<svg xmlns="http://www.w3.org/2000/svg" xmlns:xlink="http://www.w3.org/1999/xlink" width="496" zoomAndPan="magnify" viewBox="0 0 372 225.75" height="301" preserveAspectRatio="xMidYMid meet" version="1.0"><defs><g/><clipPath id="3192c25c97"><path d="M 188 0.417969 L 279.480469 0.417969 L 279.480469 135 L 188 135 Z M 188 0.417969 " clip-rule="nonzero"/></clipPath><clipPath id="94571f6f0a"><path d="M 91.949219 0.417969 L 183 0.417969 L 183 135 L 91.949219 135 Z M 91.949219 0.417969 " clip-rule="nonzero"/></clipPath><clipPath id="5329e1a736"><path d="M 84.082031 29.832031 L 106.238281 29.832031 L 106.238281 51.988281 L 84.082031 51.988281 Z M 84.082031 29.832031 " clip-rule="nonzero"/></clipPath><clipPath id="c5a34c03b2"><path d="M 85 30 L 111 30 L 111 56 L 85 56 Z M 85 30 " clip-rule="nonzero"/></clipPath><clipPath id="013ee5ef36"><path d="M 80.316406 42.679688 L 97.40625 25.585938 L 114.496094 42.679688 L 97.40625 59.769531 Z M 80.316406 42.679688 " clip-rule="nonzero"/></clipPath><clipPath id="06ede6ba93"><path d="M 80.316406 42.679688 L 97.40625 25.585938 L 114.496094 42.679688 L 97.40625 59.769531 Z M 80.316406 42.679688 " clip-rule="nonzero"/></clipPath><clipPath id="6cec94d285"><path d="M 146 15 L 167 15 L 167 36 L 146 36 Z M 146 15 " clip-rule="nonzero"/></clipPath><clipPath id="a80c906beb"><path d="M 142.027344 25.257812 L 156.269531 11.015625 L 170.511719 25.257812 L 156.269531 39.5 Z M 142.027344 25.257812 " clip-rule="nonzero"/></clipPath><clipPath id="c0d1e7fee1"><path d="M 142.027344 25.257812 L 156.269531 11.015625 L 170.511719 25.257812 L 156.269531 39.5 Z M 142.027344 25.257812 " clip-rule="nonzero"/></clipPath><clipPath id="cac9f79421"><path d="M 87.847656 69.476562 L 110.003906 69.476562 L 110.003906 91.636719 L 87.847656 91.636719 Z M 87.847656 69.476562 " clip-rule="nonzero"/></clipPath><clipPath id="6153756253"><path d="M 89 70 L 114 70 L 114 95 L 89 95 Z M 89 70 " clip-rule="nonzero"/></clipPath><clipPath id="1a1f3882f7"><path d="M 84.082031 82.324219 L 101.175781 65.234375 L 118.265625 82.324219 L 101.175781 99.414062 Z M 84.082031 82.324219 " clip-rule="nonzero"/></clipPath><clipPath id="b9051a6948"><path d="M 84.082031 82.324219 L 101.175781 65.234375 L 118.265625 82.324219 L 101.175781 99.414062 Z M 84.082031 82.324219 " clip-rule="nonzero"/></clipPath><clipPath id="2684dc330d"><path d="M 262.742188 27.96875 L 284.898438 27.96875 L 284.898438 50.125 L 262.742188 50.125 Z M 262.742188 27.96875 " clip-rule="nonzero"/></clipPath><clipPath id="b45c2b7e8b"><path d="M 261 28 L 287 28 L 287 54 L 261 54 Z M 261 28 " clip-rule="nonzero"/></clipPath><clipPath id="5faee8368b"><path d="M 256.308594 40.8125 L 273.398438 23.722656 L 290.492188 40.8125 L 273.398438 57.902344 Z M 256.308594 40.8125 " clip-rule="nonzero"/></clipPath><clipPath id="d89a14fe54"><path d="M 256.308594 40.8125 L 273.398438 23.722656 L 290.492188 40.8125 L 273.398438 57.902344 Z M 256.308594 40.8125 " clip-rule="nonzero"/></clipPath><clipPath id="a90cb8ee0f"><path d="M 262.742188 69.476562 L 284.898438 69.476562 L 284.898438 91.636719 L 262.742188 91.636719 Z M 262.742188 69.476562 " clip-rule="nonzero"/></clipPath><clipPath id="47100ff30d"><path d="M 260 70 L 286 70 L 286 95 L 260 95 Z M 260 70 " clip-rule="nonzero"/></clipPath><clipPath id="6e4f752f12"><path d="M 255.53125 82.324219 L 272.621094 65.234375 L 289.710938 82.324219 L 272.621094 99.414062 Z M 255.53125 82.324219 " clip-rule="nonzero"/></clipPath><clipPath id="2fae89e468"><path d="M 255.53125 82.324219 L 272.621094 65.234375 L 289.710938 82.324219 L 272.621094 99.414062 Z M 255.53125 82.324219 " clip-rule="nonzero"/></clipPath><clipPath id="7487d1efab"><path d="M 158 37 L 179 37 L 179 58 L 158 58 Z M 158 37 " clip-rule="nonzero"/></clipPath><clipPath id="75cb6f6524"><path d="M 154.253906 47.523438 L 168.496094 33.28125 L 182.738281 47.523438 L 168.496094 61.765625 Z M 154.253906 47.523438 " clip-rule="nonzero"/></clipPath><clipPath id="28560e563b"><path d="M 154.253906 47.523438 L 168.496094 33.28125 L 182.738281 47.523438 L 168.496094 61.765625 Z M 154.253906 47.523438 " clip-rule="nonzero"/></clipPath><clipPath id="b8321d5c31"><path d="M 128 56 L 150 56 L 150 78 L 128 78 Z M 128 56 " clip-rule="nonzero"/></clipPath><clipPath id="706e85490b"><path d="M 124.480469 67.0625 L 138.722656 52.816406 L 152.964844 67.0625 L 138.722656 81.304688 Z M 124.480469 67.0625 " clip-rule="nonzero"/></clipPath><clipPath id="d5944ac313"><path d="M 124.480469 67.0625 L 138.722656 52.816406 L 152.964844 67.0625 L 138.722656 81.304688 Z M 124.480469 67.0625 " clip-rule="nonzero"/></clipPath><clipPath id="3da1406c07"><path d="M 152 77 L 173 77 L 173 99 L 152 99 Z M 152 77 " clip-rule="nonzero"/></clipPath><clipPath id="cbc5934726"><path d="M 147.945312 88.050781 L 162.1875 73.808594 L 176.429688 88.050781 L 162.1875 102.292969 Z M 147.945312 88.050781 " clip-rule="nonzero"/></clipPath><clipPath id="d6e74c4531"><path d="M 147.945312 88.050781 L 162.1875 73.808594 L 176.429688 88.050781 L 162.1875 102.292969 Z M 147.945312 88.050781 " clip-rule="nonzero"/></clipPath><clipPath id="4a24402567"><path d="M 142 98 L 163 98 L 163 120 L 142 120 Z M 142 98 " clip-rule="nonzero"/></clipPath><clipPath id="53ddfe0fa6"><path d="M 137.96875 108.980469 L 152.210938 94.734375 L 166.453125 108.980469 L 152.210938 123.222656 Z M 137.96875 108.980469 " clip-rule="nonzero"/></clipPath><clipPath id="19e5d877b8"><path d="M 137.96875 108.980469 L 152.210938 94.734375 L 166.453125 108.980469 L 152.210938 123.222656 Z M 137.96875 108.980469 " clip-rule="nonzero"/></clipPath><clipPath id="f8f1f13f30"><path d="M 203 15 L 224 15 L 224 36 L 203 36 Z M 203 15 " clip-rule="nonzero"/></clipPath><clipPath id="4b33a2ca19"><path d="M 199.167969 25.257812 L 213.410156 11.015625 L 227.652344 25.257812 L 213.410156 39.5 Z M 199.167969 25.257812 " clip-rule="nonzero"/></clipPath><clipPath id="f118b2d1a8"><path d="M 199.167969 25.257812 L 213.410156 11.015625 L 227.652344 25.257812 L 213.410156 39.5 Z M 199.167969 25.257812 " clip-rule="nonzero"/></clipPath><clipPath id="9492e47beb"><path d="M 193 37 L 214 37 L 214 58 L 193 58 Z M 193 37 " clip-rule="nonzero"/></clipPath><clipPath id="434519c8fa"><path d="M 188.839844 47.523438 L 203.082031 33.28125 L 217.328125 47.523438 L 203.082031 61.765625 Z M 188.839844 47.523438 " clip-rule="nonzero"/></clipPath><clipPath id="456fd12b78"><path d="M 188.839844 47.523438 L 203.082031 33.28125 L 217.328125 47.523438 L 203.082031 61.765625 Z M 188.839844 47.523438 " clip-rule="nonzero"/></clipPath><clipPath id="5d777f82d1"><path d="M 221 57 L 243 57 L 243 79 L 221 79 Z M 221 57 " clip-rule="nonzero"/></clipPath><clipPath id="2be64158b1"><path d="M 217.652344 68.128906 L 231.894531 53.886719 L 246.136719 68.128906 L 231.894531 82.371094 Z M 217.652344 68.128906 " clip-rule="nonzero"/></clipPath><clipPath id="d2eeb9f447"><path d="M 217.652344 68.128906 L 231.894531 53.886719 L 246.136719 68.128906 L 231.894531 82.371094 Z M 217.652344 68.128906 " clip-rule="nonzero"/></clipPath><clipPath id="6abf54a714"><path d="M 199 77 L 220 77 L 220 98 L 199 98 Z M 199 77 " clip-rule="nonzero"/></clipPath><clipPath id="4be5dc57e0"><path d="M 195.125 87.359375 L 209.367188 73.117188 L 223.609375 87.359375 L 209.367188 101.601562 Z M 195.125 87.359375 " clip-rule="nonzero"/></clipPath><clipPath id="5839255070"><path d="M 195.125 87.359375 L 209.367188 73.117188 L 223.609375 87.359375 L 209.367188 101.601562 Z M 195.125 87.359375 " clip-rule="nonzero"/></clipPath><clipPath id="27eedfed04"><path d="M 209 98 L 230 98 L 230 120 L 209 120 Z M 209 98 " clip-rule="nonzero"/></clipPath><clipPath id="5356457e06"><path d="M 204.953125 108.980469 L 219.199219 94.734375 L 233.441406 108.980469 L 219.199219 123.222656 Z M 204.953125 108.980469 " clip-rule="nonzero"/></clipPath><clipPath id="e9edb8db09"><path d="M 204.953125 108.980469 L 219.199219 94.734375 L 233.441406 108.980469 L 219.199219 123.222656 Z M 204.953125 108.980469 " clip-rule="nonzero"/></clipPath></defs><g fill="#737373" fill-opacity="1"><g transform="translate(9.678488, 212.358648)"><g><path d="M 11.9375 -1.28125 C 12 -1.125 12.03125 -0.992188 12.03125 -0.890625 C 12.03125 -0.648438 11.941406 -0.441406 11.765625 -0.265625 C 11.585938 -0.0859375 11.375 0 11.125 0 C 10.945312 0 10.78125 -0.046875 10.625 -0.140625 C 10.46875 -0.242188 10.351562 -0.382812 10.28125 -0.5625 L 9.296875 -3 L 3.03125 -3 L 2.046875 -0.5625 C 1.960938 -0.382812 1.84375 -0.242188 1.6875 -0.140625 C 1.539062 -0.046875 1.378906 0 1.203125 0 C 0.941406 0 0.726562 -0.0859375 0.5625 -0.265625 C 0.394531 -0.453125 0.3125 -0.664062 0.3125 -0.90625 C 0.3125 -1.019531 0.34375 -1.15625 0.40625 -1.3125 L 5.3125 -13.015625 C 5.476562 -13.421875 5.757812 -13.625 6.15625 -13.625 C 6.582031 -13.625 6.867188 -13.421875 7.015625 -13.015625 Z M 3.640625 -4.5 L 8.6875 -4.5 L 6.203125 -10.71875 Z M 3.640625 -4.5 "/></g></g></g><g fill="#737373" fill-opacity="1"><g transform="translate(25.228562, 212.358648)"><g><path d="M 14.484375 -13.625 C 14.742188 -13.625 14.957031 -13.535156 15.125 -13.359375 C 15.300781 -13.191406 15.390625 -12.976562 15.390625 -12.71875 L 15.390625 -0.90625 C 15.390625 -0.65625 15.300781 -0.441406 15.125 -0.265625 C 14.945312 -0.0859375 14.734375 0 14.484375 0 C 14.234375 0 14.019531 -0.0859375 13.84375 -0.265625 C 13.664062 -0.441406 13.578125 -0.65625 13.578125 -0.90625 L 13.578125 -9.578125 L 9.359375 -0.984375 C 9.160156 -0.679688 8.894531 -0.53125 8.5625 -0.53125 C 8.1875 -0.53125 7.910156 -0.707031 7.734375 -1.0625 L 3.5625 -9.421875 L 3.5625 -0.90625 C 3.5625 -0.65625 3.472656 -0.441406 3.296875 -0.265625 C 3.117188 -0.0859375 2.90625 0 2.65625 0 C 2.394531 0 2.175781 -0.0859375 2 -0.265625 C 1.832031 -0.441406 1.75 -0.65625 1.75 -0.90625 L 1.75 -12.71875 C 1.75 -12.976562 1.832031 -13.191406 2 -13.359375 C 2.175781 -13.535156 2.394531 -13.625 2.65625 -13.625 C 3 -13.625 3.265625 -13.460938 3.453125 -13.140625 L 8.640625 -2.75 L 13.6875 -13.140625 C 13.875 -13.460938 14.140625 -13.625 14.484375 -13.625 Z M 14.484375 -13.625 "/></g></g></g><g fill="#737373" fill-opacity="1"><g transform="translate(45.647521, 212.358648)"><g><path d="M 2.640625 0 C 2.378906 0 2.164062 -0.0859375 2 -0.265625 C 1.832031 -0.441406 1.75 -0.65625 1.75 -0.90625 L 1.75 -12.71875 C 1.75 -12.976562 1.832031 -13.191406 2 -13.359375 C 2.175781 -13.535156 2.390625 -13.625 2.640625 -13.625 C 2.890625 -13.625 3.101562 -13.535156 3.28125 -13.359375 C 3.457031 -13.191406 3.546875 -12.976562 3.546875 -12.71875 L 3.546875 -1.8125 L 9.859375 -1.8125 C 10.117188 -1.8125 10.332031 -1.722656 10.5 -1.546875 C 10.675781 -1.378906 10.765625 -1.164062 10.765625 -0.90625 C 10.765625 -0.65625 10.675781 -0.441406 10.5 -0.265625 C 10.332031 -0.0859375 10.117188 0 9.859375 0 Z M 2.640625 0 "/></g></g></g><g fill="#737373" fill-opacity="1"><g transform="translate(60.133074, 212.358648)"><g/></g></g><g fill="#737373" fill-opacity="1"><g transform="translate(68.528166, 212.358648)"><g><path d="M 2.65625 0 C 2.394531 0 2.175781 -0.0859375 2 -0.265625 C 1.832031 -0.441406 1.75 -0.65625 1.75 -0.90625 L 1.75 -12.71875 C 1.75 -12.988281 1.832031 -13.207031 2 -13.375 C 2.175781 -13.539062 2.394531 -13.625 2.65625 -13.625 C 2.914062 -13.625 3.128906 -13.539062 3.296875 -13.375 C 3.472656 -13.207031 3.5625 -12.988281 3.5625 -12.71875 L 3.5625 -0.90625 C 3.5625 -0.65625 3.472656 -0.441406 3.296875 -0.265625 C 3.128906 -0.0859375 2.914062 0 2.65625 0 Z M 2.65625 0 "/></g></g></g><g fill="#737373" fill-opacity="1"><g transform="translate(77.115207, 212.358648)"><g><path d="M 2.640625 0 C 2.378906 0 2.164062 -0.0820312 2 -0.25 C 1.832031 -0.414062 1.75 -0.632812 1.75 -0.90625 L 1.75 -12.71875 C 1.75 -12.988281 1.832031 -13.207031 2 -13.375 C 2.164062 -13.539062 2.378906 -13.625 2.640625 -13.625 C 2.765625 -13.625 2.890625 -13.59375 3.015625 -13.53125 C 3.148438 -13.46875 3.253906 -13.390625 3.328125 -13.296875 L 10.9375 -3.171875 L 10.9375 -12.71875 C 10.9375 -12.988281 11.023438 -13.207031 11.203125 -13.375 C 11.378906 -13.539062 11.59375 -13.625 11.84375 -13.625 C 12.101562 -13.625 12.316406 -13.539062 12.484375 -13.375 C 12.648438 -13.207031 12.734375 -12.988281 12.734375 -12.71875 L 12.734375 -0.90625 C 12.734375 -0.632812 12.648438 -0.414062 12.484375 -0.25 C 12.316406 -0.0820312 12.101562 0 11.84375 0 C 11.71875 0 11.585938 -0.0234375 11.453125 -0.078125 C 11.316406 -0.128906 11.21875 -0.207031 11.15625 -0.3125 L 3.546875 -10.4375 L 3.546875 -0.90625 C 3.546875 -0.65625 3.457031 -0.441406 3.28125 -0.265625 C 3.113281 -0.0859375 2.898438 0 2.640625 0 Z M 2.640625 0 "/></g></g></g><g fill="#737373" fill-opacity="1"><g transform="translate(94.881589, 212.358648)"><g><path d="M 10.4375 -13.625 C 10.675781 -13.625 10.875 -13.546875 11.03125 -13.390625 C 11.195312 -13.234375 11.28125 -13.035156 11.28125 -12.796875 C 11.28125 -12.546875 11.195312 -12.34375 11.03125 -12.1875 C 10.875 -12.03125 10.675781 -11.953125 10.4375 -11.953125 L 6.6875 -11.953125 L 6.6875 -0.90625 C 6.6875 -0.65625 6.597656 -0.441406 6.421875 -0.265625 C 6.242188 -0.0859375 6.03125 0 5.78125 0 C 5.519531 0 5.300781 -0.0859375 5.125 -0.265625 C 4.957031 -0.441406 4.875 -0.65625 4.875 -0.90625 L 4.875 -11.953125 L 1.09375 -11.953125 C 0.851562 -11.953125 0.65625 -12.03125 0.5 -12.1875 C 0.34375 -12.34375 0.265625 -12.546875 0.265625 -12.796875 C 0.265625 -13.035156 0.34375 -13.234375 0.5 -13.390625 C 0.65625 -13.546875 0.851562 -13.625 1.09375 -13.625 Z M 10.4375 -13.625 "/></g></g></g><g fill="#737373" fill-opacity="1"><g transform="translate(109.698718, 212.358648)"><g><path d="M 2.65625 0 C 2.394531 0 2.175781 -0.0859375 2 -0.265625 C 1.832031 -0.441406 1.75 -0.65625 1.75 -0.90625 L 1.75 -12.71875 C 1.75 -12.988281 1.832031 -13.207031 2 -13.375 C 2.175781 -13.539062 2.394531 -13.625 2.65625 -13.625 L 10.546875 -13.625 C 10.804688 -13.625 11.019531 -13.546875 11.1875 -13.390625 C 11.351562 -13.234375 11.4375 -13.03125 11.4375 -12.78125 C 11.4375 -12.53125 11.351562 -12.328125 11.1875 -12.171875 C 11.019531 -12.023438 10.804688 -11.953125 10.546875 -11.953125 L 3.5625 -11.953125 L 3.5625 -7.71875 L 8.5625 -7.71875 C 8.820312 -7.71875 9.035156 -7.640625 9.203125 -7.484375 C 9.367188 -7.328125 9.453125 -7.125 9.453125 -6.875 C 9.453125 -6.632812 9.367188 -6.429688 9.203125 -6.265625 C 9.035156 -6.109375 8.820312 -6.03125 8.5625 -6.03125 L 3.5625 -6.03125 L 3.5625 -1.671875 L 10.546875 -1.671875 C 10.804688 -1.671875 11.019531 -1.59375 11.1875 -1.4375 C 11.351562 -1.289062 11.4375 -1.097656 11.4375 -0.859375 C 11.4375 -0.597656 11.351562 -0.390625 11.1875 -0.234375 C 11.019531 -0.078125 10.804688 0 10.546875 0 Z M 2.65625 0 "/></g></g></g><g fill="#737373" fill-opacity="1"><g transform="translate(125.196446, 212.358648)"><g><path d="M 11.515625 -7.0625 C 11.773438 -7.0625 11.988281 -6.976562 12.15625 -6.8125 C 12.320312 -6.644531 12.40625 -6.425781 12.40625 -6.15625 L 12.40625 -1.984375 C 12.40625 -1.710938 12.3125 -1.5 12.125 -1.34375 C 10.90625 -0.332031 9.484375 0.171875 7.859375 0.171875 C 6.609375 0.171875 5.46875 -0.132812 4.4375 -0.75 C 3.40625 -1.363281 2.59375 -2.207031 2 -3.28125 C 1.40625 -4.351562 1.109375 -5.535156 1.109375 -6.828125 C 1.109375 -8.109375 1.40625 -9.28125 2 -10.34375 C 2.59375 -11.40625 3.40625 -12.25 4.4375 -12.875 C 5.46875 -13.5 6.609375 -13.8125 7.859375 -13.8125 C 8.742188 -13.8125 9.507812 -13.691406 10.15625 -13.453125 C 10.800781 -13.222656 11.453125 -12.835938 12.109375 -12.296875 C 12.253906 -12.191406 12.347656 -12.082031 12.390625 -11.96875 C 12.441406 -11.863281 12.46875 -11.738281 12.46875 -11.59375 C 12.46875 -11.351562 12.378906 -11.15625 12.203125 -11 C 12.035156 -10.851562 11.835938 -10.78125 11.609375 -10.78125 C 11.398438 -10.78125 11.203125 -10.859375 11.015625 -11.015625 C 10.535156 -11.421875 10.066406 -11.710938 9.609375 -11.890625 C 9.160156 -12.078125 8.578125 -12.171875 7.859375 -12.171875 C 6.953125 -12.171875 6.113281 -11.929688 5.34375 -11.453125 C 4.582031 -10.972656 3.976562 -10.320312 3.53125 -9.5 C 3.082031 -8.675781 2.859375 -7.785156 2.859375 -6.828125 C 2.859375 -5.847656 3.082031 -4.953125 3.53125 -4.140625 C 3.976562 -3.328125 4.582031 -2.679688 5.34375 -2.203125 C 6.113281 -1.722656 6.953125 -1.484375 7.859375 -1.484375 C 8.828125 -1.484375 9.757812 -1.773438 10.65625 -2.359375 L 10.65625 -5.46875 L 8.25 -5.46875 C 7.988281 -5.46875 7.769531 -5.539062 7.59375 -5.6875 C 7.425781 -5.84375 7.34375 -6.035156 7.34375 -6.265625 C 7.34375 -6.492188 7.425781 -6.679688 7.59375 -6.828125 C 7.769531 -6.984375 7.988281 -7.0625 8.25 -7.0625 Z M 11.515625 -7.0625 "/></g></g></g><g fill="#737373" fill-opacity="1"><g transform="translate(142.037904, 212.358648)"><g><path d="M 10.59375 -1.390625 C 10.707031 -1.203125 10.765625 -1.007812 10.765625 -0.8125 C 10.765625 -0.582031 10.6875 -0.390625 10.53125 -0.234375 C 10.375 -0.078125 10.160156 0 9.890625 0 C 9.554688 0 9.296875 -0.144531 9.109375 -0.4375 L 6.109375 -5.25 L 3.5625 -5.25 L 3.5625 -0.90625 C 3.5625 -0.65625 3.472656 -0.441406 3.296875 -0.265625 C 3.128906 -0.0859375 2.914062 0 2.65625 0 C 2.394531 0 2.175781 -0.0859375 2 -0.265625 C 1.832031 -0.441406 1.75 -0.65625 1.75 -0.90625 L 1.75 -12.71875 C 1.75 -12.988281 1.832031 -13.207031 2 -13.375 C 2.175781 -13.539062 2.394531 -13.625 2.65625 -13.625 L 5.796875 -13.625 C 6.660156 -13.625 7.429688 -13.441406 8.109375 -13.078125 C 8.785156 -12.722656 9.3125 -12.21875 9.6875 -11.5625 C 10.070312 -10.914062 10.265625 -10.175781 10.265625 -9.34375 C 10.265625 -8.507812 10.050781 -7.769531 9.625 -7.125 C 9.207031 -6.488281 8.640625 -6.007812 7.921875 -5.6875 Z M 5.796875 -6.921875 C 6.585938 -6.921875 7.238281 -7.144531 7.75 -7.59375 C 8.257812 -8.039062 8.515625 -8.625 8.515625 -9.34375 C 8.515625 -10.101562 8.257812 -10.726562 7.75 -11.21875 C 7.238281 -11.707031 6.585938 -11.953125 5.796875 -11.953125 L 3.5625 -11.953125 L 3.5625 -6.921875 Z M 5.796875 -6.921875 "/></g></g></g><g fill="#737373" fill-opacity="1"><g transform="translate(156.348942, 212.358648)"><g><path d="M 11.9375 -1.28125 C 12 -1.125 12.03125 -0.992188 12.03125 -0.890625 C 12.03125 -0.648438 11.941406 -0.441406 11.765625 -0.265625 C 11.585938 -0.0859375 11.375 0 11.125 0 C 10.945312 0 10.78125 -0.046875 10.625 -0.140625 C 10.46875 -0.242188 10.351562 -0.382812 10.28125 -0.5625 L 9.296875 -3 L 3.03125 -3 L 2.046875 -0.5625 C 1.960938 -0.382812 1.84375 -0.242188 1.6875 -0.140625 C 1.539062 -0.046875 1.378906 0 1.203125 0 C 0.941406 0 0.726562 -0.0859375 0.5625 -0.265625 C 0.394531 -0.453125 0.3125 -0.664062 0.3125 -0.90625 C 0.3125 -1.019531 0.34375 -1.15625 0.40625 -1.3125 L 5.3125 -13.015625 C 5.476562 -13.421875 5.757812 -13.625 6.15625 -13.625 C 6.582031 -13.625 6.867188 -13.421875 7.015625 -13.015625 Z M 3.640625 -4.5 L 8.6875 -4.5 L 6.203125 -10.71875 Z M 3.640625 -4.5 "/></g></g></g><g fill="#737373" fill-opacity="1"><g transform="translate(171.899012, 212.358648)"><g><path d="M 10.4375 -13.625 C 10.675781 -13.625 10.875 -13.546875 11.03125 -13.390625 C 11.195312 -13.234375 11.28125 -13.035156 11.28125 -12.796875 C 11.28125 -12.546875 11.195312 -12.34375 11.03125 -12.1875 C 10.875 -12.03125 10.675781 -11.953125 10.4375 -11.953125 L 6.6875 -11.953125 L 6.6875 -0.90625 C 6.6875 -0.65625 6.597656 -0.441406 6.421875 -0.265625 C 6.242188 -0.0859375 6.03125 0 5.78125 0 C 5.519531 0 5.300781 -0.0859375 5.125 -0.265625 C 4.957031 -0.441406 4.875 -0.65625 4.875 -0.90625 L 4.875 -11.953125 L 1.09375 -11.953125 C 0.851562 -11.953125 0.65625 -12.03125 0.5 -12.1875 C 0.34375 -12.34375 0.265625 -12.546875 0.265625 -12.796875 C 0.265625 -13.035156 0.34375 -13.234375 0.5 -13.390625 C 0.65625 -13.546875 0.851562 -13.625 1.09375 -13.625 Z M 10.4375 -13.625 "/></g></g></g><g fill="#737373" fill-opacity="1"><g transform="translate(186.71614, 212.358648)"><g><path d="M 2.65625 0 C 2.394531 0 2.175781 -0.0859375 2 -0.265625 C 1.832031 -0.441406 1.75 -0.65625 1.75 -0.90625 L 1.75 -12.71875 C 1.75 -12.988281 1.832031 -13.207031 2 -13.375 C 2.175781 -13.539062 2.394531 -13.625 2.65625 -13.625 C 2.914062 -13.625 3.128906 -13.539062 3.296875 -13.375 C 3.472656 -13.207031 3.5625 -12.988281 3.5625 -12.71875 L 3.5625 -0.90625 C 3.5625 -0.65625 3.472656 -0.441406 3.296875 -0.265625 C 3.128906 -0.0859375 2.914062 0 2.65625 0 Z M 2.65625 0 "/></g></g></g><g fill="#737373" fill-opacity="1"><g transform="translate(195.303181, 212.358648)"><g><path d="M 2.640625 0 C 2.378906 0 2.164062 -0.0820312 2 -0.25 C 1.832031 -0.414062 1.75 -0.632812 1.75 -0.90625 L 1.75 -12.71875 C 1.75 -12.988281 1.832031 -13.207031 2 -13.375 C 2.164062 -13.539062 2.378906 -13.625 2.640625 -13.625 C 2.765625 -13.625 2.890625 -13.59375 3.015625 -13.53125 C 3.148438 -13.46875 3.253906 -13.390625 3.328125 -13.296875 L 10.9375 -3.171875 L 10.9375 -12.71875 C 10.9375 -12.988281 11.023438 -13.207031 11.203125 -13.375 C 11.378906 -13.539062 11.59375 -13.625 11.84375 -13.625 C 12.101562 -13.625 12.316406 -13.539062 12.484375 -13.375 C 12.648438 -13.207031 12.734375 -12.988281 12.734375 -12.71875 L 12.734375 -0.90625 C 12.734375 -0.632812 12.648438 -0.414062 12.484375 -0.25 C 12.316406 -0.0820312 12.101562 0 11.84375 0 C 11.71875 0 11.585938 -0.0234375 11.453125 -0.078125 C 11.316406 -0.128906 11.21875 -0.207031 11.15625 -0.3125 L 3.546875 -10.4375 L 3.546875 -0.90625 C 3.546875 -0.65625 3.457031 -0.441406 3.28125 -0.265625 C 3.113281 -0.0859375 2.898438 0 2.640625 0 Z M 2.640625 0 "/></g></g></g><g fill="#737373" fill-opacity="1"><g transform="translate(213.069563, 212.358648)"><g><path d="M 11.515625 -7.0625 C 11.773438 -7.0625 11.988281 -6.976562 12.15625 -6.8125 C 12.320312 -6.644531 12.40625 -6.425781 12.40625 -6.15625 L 12.40625 -1.984375 C 12.40625 -1.710938 12.3125 -1.5 12.125 -1.34375 C 10.90625 -0.332031 9.484375 0.171875 7.859375 0.171875 C 6.609375 0.171875 5.46875 -0.132812 4.4375 -0.75 C 3.40625 -1.363281 2.59375 -2.207031 2 -3.28125 C 1.40625 -4.351562 1.109375 -5.535156 1.109375 -6.828125 C 1.109375 -8.109375 1.40625 -9.28125 2 -10.34375 C 2.59375 -11.40625 3.40625 -12.25 4.4375 -12.875 C 5.46875 -13.5 6.609375 -13.8125 7.859375 -13.8125 C 8.742188 -13.8125 9.507812 -13.691406 10.15625 -13.453125 C 10.800781 -13.222656 11.453125 -12.835938 12.109375 -12.296875 C 12.253906 -12.191406 12.347656 -12.082031 12.390625 -11.96875 C 12.441406 -11.863281 12.46875 -11.738281 12.46875 -11.59375 C 12.46875 -11.351562 12.378906 -11.15625 12.203125 -11 C 12.035156 -10.851562 11.835938 -10.78125 11.609375 -10.78125 C 11.398438 -10.78125 11.203125 -10.859375 11.015625 -11.015625 C 10.535156 -11.421875 10.066406 -11.710938 9.609375 -11.890625 C 9.160156 -12.078125 8.578125 -12.171875 7.859375 -12.171875 C 6.953125 -12.171875 6.113281 -11.929688 5.34375 -11.453125 C 4.582031 -10.972656 3.976562 -10.320312 3.53125 -9.5 C 3.082031 -8.675781 2.859375 -7.785156 2.859375 -6.828125 C 2.859375 -5.847656 3.082031 -4.953125 3.53125 -4.140625 C 3.976562 -3.328125 4.582031 -2.679688 5.34375 -2.203125 C 6.113281 -1.722656 6.953125 -1.484375 7.859375 -1.484375 C 8.828125 -1.484375 9.757812 -1.773438 10.65625 -2.359375 L 10.65625 -5.46875 L 8.25 -5.46875 C 7.988281 -5.46875 7.769531 -5.539062 7.59375 -5.6875 C 7.425781 -5.84375 7.34375 -6.035156 7.34375 -6.265625 C 7.34375 -6.492188 7.425781 -6.679688 7.59375 -6.828125 C 7.769531 -6.984375 7.988281 -7.0625 8.25 -7.0625 Z M 11.515625 -7.0625 "/></g></g></g><g fill="#737373" fill-opacity="1"><g transform="translate(229.911021, 212.358648)"><g/></g></g><g fill="#737373" fill-opacity="1"><g transform="translate(238.306109, 212.358648)"><g><path d="M 2.65625 0 C 2.394531 0 2.175781 -0.0859375 2 -0.265625 C 1.832031 -0.441406 1.75 -0.65625 1.75 -0.90625 L 1.75 -12.71875 C 1.75 -12.988281 1.832031 -13.207031 2 -13.375 C 2.175781 -13.539062 2.394531 -13.625 2.65625 -13.625 L 6.140625 -13.625 C 7.003906 -13.625 7.773438 -13.429688 8.453125 -13.046875 C 9.140625 -12.671875 9.671875 -12.140625 10.046875 -11.453125 C 10.421875 -10.765625 10.609375 -9.984375 10.609375 -9.109375 C 10.609375 -8.265625 10.421875 -7.507812 10.046875 -6.84375 C 9.671875 -6.175781 9.140625 -5.65625 8.453125 -5.28125 C 7.773438 -4.914062 7.003906 -4.734375 6.140625 -4.734375 L 3.5625 -4.734375 L 3.5625 -0.90625 C 3.5625 -0.65625 3.472656 -0.441406 3.296875 -0.265625 C 3.128906 -0.0859375 2.914062 0 2.65625 0 Z M 6.140625 -6.40625 C 6.929688 -6.40625 7.582031 -6.65625 8.09375 -7.15625 C 8.601562 -7.664062 8.859375 -8.316406 8.859375 -9.109375 C 8.859375 -9.929688 8.601562 -10.609375 8.09375 -11.140625 C 7.582031 -11.679688 6.929688 -11.953125 6.140625 -11.953125 L 3.5625 -11.953125 L 3.5625 -6.40625 Z M 6.140625 -6.40625 "/></g></g></g><g fill="#737373" fill-opacity="1"><g transform="translate(252.460094, 212.358648)"><g><path d="M 2.640625 0 C 2.378906 0 2.164062 -0.0859375 2 -0.265625 C 1.832031 -0.441406 1.75 -0.65625 1.75 -0.90625 L 1.75 -12.71875 C 1.75 -12.976562 1.832031 -13.191406 2 -13.359375 C 2.175781 -13.535156 2.390625 -13.625 2.640625 -13.625 C 2.890625 -13.625 3.101562 -13.535156 3.28125 -13.359375 C 3.457031 -13.191406 3.546875 -12.976562 3.546875 -12.71875 L 3.546875 -1.8125 L 9.859375 -1.8125 C 10.117188 -1.8125 10.332031 -1.722656 10.5 -1.546875 C 10.675781 -1.378906 10.765625 -1.164062 10.765625 -0.90625 C 10.765625 -0.65625 10.675781 -0.441406 10.5 -0.265625 C 10.332031 -0.0859375 10.117188 0 9.859375 0 Z M 2.640625 0 "/></g></g></g><g fill="#737373" fill-opacity="1"><g transform="translate(266.945643, 212.358648)"><g><path d="M 11.9375 -1.28125 C 12 -1.125 12.03125 -0.992188 12.03125 -0.890625 C 12.03125 -0.648438 11.941406 -0.441406 11.765625 -0.265625 C 11.585938 -0.0859375 11.375 0 11.125 0 C 10.945312 0 10.78125 -0.046875 10.625 -0.140625 C 10.46875 -0.242188 10.351562 -0.382812 10.28125 -0.5625 L 9.296875 -3 L 3.03125 -3 L 2.046875 -0.5625 C 1.960938 -0.382812 1.84375 -0.242188 1.6875 -0.140625 C 1.539062 -0.046875 1.378906 0 1.203125 0 C 0.941406 0 0.726562 -0.0859375 0.5625 -0.265625 C 0.394531 -0.453125 0.3125 -0.664062 0.3125 -0.90625 C 0.3125 -1.019531 0.34375 -1.15625 0.40625 -1.3125 L 5.3125 -13.015625 C 5.476562 -13.421875 5.757812 -13.625 6.15625 -13.625 C 6.582031 -13.625 6.867188 -13.421875 7.015625 -13.015625 Z M 3.640625 -4.5 L 8.6875 -4.5 L 6.203125 -10.71875 Z M 3.640625 -4.5 "/></g></g></g><g fill="#737373" fill-opacity="1"><g transform="translate(282.495712, 212.358648)"><g><path d="M 10.4375 -13.625 C 10.675781 -13.625 10.875 -13.546875 11.03125 -13.390625 C 11.195312 -13.234375 11.28125 -13.035156 11.28125 -12.796875 C 11.28125 -12.546875 11.195312 -12.34375 11.03125 -12.1875 C 10.875 -12.03125 10.675781 -11.953125 10.4375 -11.953125 L 6.6875 -11.953125 L 6.6875 -0.90625 C 6.6875 -0.65625 6.597656 -0.441406 6.421875 -0.265625 C 6.242188 -0.0859375 6.03125 0 5.78125 0 C 5.519531 0 5.300781 -0.0859375 5.125 -0.265625 C 4.957031 -0.441406 4.875 -0.65625 4.875 -0.90625 L 4.875 -11.953125 L 1.09375 -11.953125 C 0.851562 -11.953125 0.65625 -12.03125 0.5 -12.1875 C 0.34375 -12.34375 0.265625 -12.546875 0.265625 -12.796875 C 0.265625 -13.035156 0.34375 -13.234375 0.5 -13.390625 C 0.65625 -13.546875 0.851562 -13.625 1.09375 -13.625 Z M 10.4375 -13.625 "/></g></g></g><g fill="#737373" fill-opacity="1"><g transform="translate(297.312856, 212.358648)"><g><path d="M 1.546875 0 C 1.296875 0 1.082031 -0.0859375 0.90625 -0.265625 C 0.726562 -0.441406 0.640625 -0.65625 0.640625 -0.90625 L 0.640625 -12.71875 C 0.640625 -12.988281 0.726562 -13.207031 0.90625 -13.375 C 1.082031 -13.539062 1.296875 -13.625 1.546875 -13.625 L 9.4375 -13.625 C 9.707031 -13.625 9.921875 -13.546875 10.078125 -13.390625 C 10.242188 -13.234375 10.328125 -13.03125 10.328125 -12.78125 C 10.328125 -12.53125 10.242188 -12.328125 10.078125 -12.171875 C 9.921875 -12.023438 9.707031 -11.953125 9.4375 -11.953125 L 2.453125 -11.953125 L 2.453125 -7.71875 L 7.46875 -7.71875 C 7.726562 -7.71875 7.941406 -7.640625 8.109375 -7.484375 C 8.273438 -7.328125 8.359375 -7.125 8.359375 -6.875 C 8.359375 -6.632812 8.273438 -6.429688 8.109375 -6.265625 C 7.941406 -6.109375 7.726562 -6.03125 7.46875 -6.03125 L 2.453125 -6.03125 L 2.453125 -0.90625 C 2.453125 -0.65625 2.363281 -0.441406 2.1875 -0.265625 C 2.019531 -0.0859375 1.804688 0 1.546875 0 Z M 1.546875 0 "/></g></g></g><g fill="#737373" fill-opacity="1"><g transform="translate(311.501755, 212.358648)"><g><path d="M 8.046875 0.171875 C 6.691406 0.171875 5.488281 -0.125 4.4375 -0.71875 C 3.382812 -1.3125 2.566406 -2.140625 1.984375 -3.203125 C 1.398438 -4.265625 1.109375 -5.472656 1.109375 -6.828125 C 1.109375 -8.171875 1.398438 -9.375 1.984375 -10.4375 C 2.566406 -11.5 3.382812 -12.328125 4.4375 -12.921875 C 5.488281 -13.515625 6.691406 -13.8125 8.046875 -13.8125 C 9.378906 -13.8125 10.570312 -13.515625 11.625 -12.921875 C 12.6875 -12.328125 13.507812 -11.5 14.09375 -10.4375 C 14.675781 -9.375 14.96875 -8.171875 14.96875 -6.828125 C 14.96875 -5.472656 14.675781 -4.265625 14.09375 -3.203125 C 13.507812 -2.140625 12.691406 -1.3125 11.640625 -0.71875 C 10.597656 -0.125 9.398438 0.171875 8.046875 0.171875 Z M 8.046875 -1.46875 C 9.035156 -1.46875 9.925781 -1.703125 10.71875 -2.171875 C 11.507812 -2.640625 12.125 -3.28125 12.5625 -4.09375 C 13.007812 -4.914062 13.234375 -5.828125 13.234375 -6.828125 C 13.234375 -7.828125 13.007812 -8.734375 12.5625 -9.546875 C 12.125 -10.359375 11.507812 -11 10.71875 -11.46875 C 9.9375 -11.9375 9.046875 -12.171875 8.046875 -12.171875 C 7.046875 -12.171875 6.148438 -11.9375 5.359375 -11.46875 C 4.578125 -11 3.960938 -10.359375 3.515625 -9.546875 C 3.078125 -8.734375 2.859375 -7.828125 2.859375 -6.828125 C 2.859375 -5.828125 3.078125 -4.914062 3.515625 -4.09375 C 3.960938 -3.28125 4.582031 -2.640625 5.375 -2.171875 C 6.164062 -1.703125 7.054688 -1.46875 8.046875 -1.46875 Z M 8.046875 -1.46875 "/></g></g></g><g fill="#737373" fill-opacity="1"><g transform="translate(330.856205, 212.358648)"><g><path d="M 10.59375 -1.390625 C 10.707031 -1.203125 10.765625 -1.007812 10.765625 -0.8125 C 10.765625 -0.582031 10.6875 -0.390625 10.53125 -0.234375 C 10.375 -0.078125 10.160156 0 9.890625 0 C 9.554688 0 9.296875 -0.144531 9.109375 -0.4375 L 6.109375 -5.25 L 3.5625 -5.25 L 3.5625 -0.90625 C 3.5625 -0.65625 3.472656 -0.441406 3.296875 -0.265625 C 3.128906 -0.0859375 2.914062 0 2.65625 0 C 2.394531 0 2.175781 -0.0859375 2 -0.265625 C 1.832031 -0.441406 1.75 -0.65625 1.75 -0.90625 L 1.75 -12.71875 C 1.75 -12.988281 1.832031 -13.207031 2 -13.375 C 2.175781 -13.539062 2.394531 -13.625 2.65625 -13.625 L 5.796875 -13.625 C 6.660156 -13.625 7.429688 -13.441406 8.109375 -13.078125 C 8.785156 -12.722656 9.3125 -12.21875 9.6875 -11.5625 C 10.070312 -10.914062 10.265625 -10.175781 10.265625 -9.34375 C 10.265625 -8.507812 10.050781 -7.769531 9.625 -7.125 C 9.207031 -6.488281 8.640625 -6.007812 7.921875 -5.6875 Z M 5.796875 -6.921875 C 6.585938 -6.921875 7.238281 -7.144531 7.75 -7.59375 C 8.257812 -8.039062 8.515625 -8.625 8.515625 -9.34375 C 8.515625 -10.101562 8.257812 -10.726562 7.75 -11.21875 C 7.238281 -11.707031 6.585938 -11.953125 5.796875 -11.953125 L 3.5625 -11.953125 L 3.5625 -6.921875 Z M 5.796875 -6.921875 "/></g></g></g><g fill="#737373" fill-opacity="1"><g transform="translate(345.167243, 212.358648)"><g><path d="M 14.484375 -13.625 C 14.742188 -13.625 14.957031 -13.535156 15.125 -13.359375 C 15.300781 -13.191406 15.390625 -12.976562 15.390625 -12.71875 L 15.390625 -0.90625 C 15.390625 -0.65625 15.300781 -0.441406 15.125 -0.265625 C 14.945312 -0.0859375 14.734375 0 14.484375 0 C 14.234375 0 14.019531 -0.0859375 13.84375 -0.265625 C 13.664062 -0.441406 13.578125 -0.65625 13.578125 -0.90625 L 13.578125 -9.578125 L 9.359375 -0.984375 C 9.160156 -0.679688 8.894531 -0.53125 8.5625 -0.53125 C 8.1875 -0.53125 7.910156 -0.707031 7.734375 -1.0625 L 3.5625 -9.421875 L 3.5625 -0.90625 C 3.5625 -0.65625 3.472656 -0.441406 3.296875 -0.265625 C 3.117188 -0.0859375 2.90625 0 2.65625 0 C 2.394531 0 2.175781 -0.0859375 2 -0.265625 C 1.832031 -0.441406 1.75 -0.65625 1.75 -0.90625 L 1.75 -12.71875 C 1.75 -12.976562 1.832031 -13.191406 2 -13.359375 C 2.175781 -13.535156 2.394531 -13.625 2.65625 -13.625 C 3 -13.625 3.265625 -13.460938 3.453125 -13.140625 L 8.640625 -2.75 L 13.6875 -13.140625 C 13.875 -13.460938 14.140625 -13.625 14.484375 -13.625 Z M 14.484375 -13.625 "/></g></g></g><g fill="#060644" fill-opacity="1"><g transform="translate(101.412514, 186.318818)"><g><path d="M 28.21875 -3.015625 C 28.363281 -2.648438 28.4375 -2.347656 28.4375 -2.109375 C 28.4375 -1.523438 28.226562 -1.023438 27.8125 -0.609375 C 27.394531 -0.203125 26.882812 0 26.28125 0 C 25.875 0 25.484375 -0.113281 25.109375 -0.34375 C 24.734375 -0.582031 24.46875 -0.910156 24.3125 -1.328125 L 22 -7.09375 L 7.1875 -7.09375 L 4.828125 -1.328125 C 4.640625 -0.910156 4.363281 -0.582031 4 -0.34375 C 3.644531 -0.113281 3.257812 0 2.84375 0 C 2.238281 0 1.738281 -0.210938 1.34375 -0.640625 C 0.945312 -1.066406 0.75 -1.566406 0.75 -2.140625 C 0.75 -2.421875 0.816406 -2.738281 0.953125 -3.09375 L 12.546875 -30.78125 C 12.953125 -31.75 13.625 -32.234375 14.5625 -32.234375 C 15.550781 -32.234375 16.226562 -31.75 16.59375 -30.78125 Z M 8.625 -10.640625 L 20.546875 -10.640625 L 14.65625 -25.34375 Z M 8.625 -10.640625 "/></g></g></g><g fill="#060644" fill-opacity="1"><g transform="translate(134.173286, 186.318818)"><g><path d="M 34.25 -32.234375 C 34.851562 -32.234375 35.359375 -32.023438 35.765625 -31.609375 C 36.179688 -31.191406 36.390625 -30.679688 36.390625 -30.078125 L 36.390625 -2.140625 C 36.390625 -1.535156 36.175781 -1.023438 35.75 -0.609375 C 35.320312 -0.203125 34.820312 0 34.25 0 C 33.644531 0 33.132812 -0.203125 32.71875 -0.609375 C 32.3125 -1.023438 32.109375 -1.535156 32.109375 -2.140625 L 32.109375 -22.65625 L 22.125 -2.3125 C 21.65625 -1.59375 21.035156 -1.234375 20.265625 -1.234375 C 19.359375 -1.234375 18.695312 -1.660156 18.28125 -2.515625 L 8.421875 -22.28125 L 8.421875 -2.140625 C 8.421875 -1.535156 8.210938 -1.023438 7.796875 -0.609375 C 7.390625 -0.203125 6.878906 0 6.265625 0 C 5.660156 0 5.148438 -0.203125 4.734375 -0.609375 C 4.328125 -1.023438 4.125 -1.535156 4.125 -2.140625 L 4.125 -30.078125 C 4.125 -30.679688 4.328125 -31.191406 4.734375 -31.609375 C 5.148438 -32.023438 5.660156 -32.234375 6.265625 -32.234375 C 7.097656 -32.234375 7.734375 -31.847656 8.171875 -31.078125 L 20.421875 -6.515625 L 32.359375 -31.078125 C 32.796875 -31.847656 33.425781 -32.234375 34.25 -32.234375 Z M 34.25 -32.234375 "/></g></g></g><g fill="#060644" fill-opacity="1"><g transform="translate(178.445565, 186.318818)"><g><path d="M 6.234375 0 C 5.628906 0 5.125 -0.203125 4.71875 -0.609375 C 4.320312 -1.023438 4.125 -1.535156 4.125 -2.140625 L 4.125 -30.078125 C 4.125 -30.679688 4.328125 -31.191406 4.734375 -31.609375 C 5.148438 -32.023438 5.648438 -32.234375 6.234375 -32.234375 C 6.835938 -32.234375 7.34375 -32.023438 7.75 -31.609375 C 8.164062 -31.191406 8.375 -30.679688 8.375 -30.078125 L 8.375 -4.296875 L 23.3125 -4.296875 C 23.914062 -4.296875 24.425781 -4.085938 24.84375 -3.671875 C 25.257812 -3.253906 25.46875 -2.742188 25.46875 -2.140625 C 25.46875 -1.535156 25.257812 -1.023438 24.84375 -0.609375 C 24.425781 -0.203125 23.914062 0 23.3125 0 Z M 6.234375 0 "/></g></g></g><g fill="#060644" fill-opacity="1"><g transform="translate(208.689487, 186.318818)"><g><path d="M 3.59375 -9.203125 C 2.988281 -9.203125 2.484375 -9.394531 2.078125 -9.78125 C 1.679688 -10.164062 1.484375 -10.660156 1.484375 -11.265625 C 1.484375 -11.867188 1.679688 -12.367188 2.078125 -12.765625 C 2.484375 -13.171875 2.988281 -13.375 3.59375 -13.375 L 12.796875 -13.375 C 13.398438 -13.375 13.894531 -13.171875 14.28125 -12.765625 C 14.664062 -12.367188 14.859375 -11.867188 14.859375 -11.265625 C 14.859375 -10.660156 14.664062 -10.164062 14.28125 -9.78125 C 13.894531 -9.394531 13.398438 -9.203125 12.796875 -9.203125 Z M 3.59375 -9.203125 "/></g></g></g><g fill="#060644" fill-opacity="1"><g transform="translate(228.577165, 186.318818)"><g><path d="M 6.265625 0 C 5.660156 0 5.148438 -0.203125 4.734375 -0.609375 C 4.328125 -1.023438 4.125 -1.535156 4.125 -2.140625 L 4.125 -30.078125 C 4.125 -30.710938 4.328125 -31.226562 4.734375 -31.625 C 5.148438 -32.03125 5.660156 -32.234375 6.265625 -32.234375 C 6.898438 -32.234375 7.414062 -32.03125 7.8125 -31.625 C 8.21875 -31.226562 8.421875 -30.710938 8.421875 -30.078125 L 8.421875 -2.140625 C 8.421875 -1.535156 8.21875 -1.023438 7.8125 -0.609375 C 7.414062 -0.203125 6.898438 0 6.265625 0 Z M 6.265625 0 "/></g></g></g><g fill="#060644" fill-opacity="1"><g transform="translate(244.875236, 186.318818)"><g><path d="M 6.265625 0 C 5.660156 0 5.148438 -0.203125 4.734375 -0.609375 C 4.328125 -1.023438 4.125 -1.535156 4.125 -2.140625 L 4.125 -30.078125 C 4.125 -30.710938 4.328125 -31.226562 4.734375 -31.625 C 5.148438 -32.03125 5.660156 -32.234375 6.265625 -32.234375 L 14.53125 -32.234375 C 16.5625 -32.234375 18.378906 -31.773438 19.984375 -30.859375 C 21.597656 -29.953125 22.851562 -28.6875 23.75 -27.0625 C 24.644531 -25.445312 25.09375 -23.609375 25.09375 -21.546875 C 25.09375 -19.535156 24.644531 -17.742188 23.75 -16.171875 C 22.851562 -14.609375 21.597656 -13.382812 19.984375 -12.5 C 18.378906 -11.625 16.5625 -11.1875 14.53125 -11.1875 L 8.421875 -11.1875 L 8.421875 -2.140625 C 8.421875 -1.535156 8.21875 -1.023438 7.8125 -0.609375 C 7.414062 -0.203125 6.898438 0 6.265625 0 Z M 14.53125 -15.140625 C 16.394531 -15.140625 17.929688 -15.738281 19.140625 -16.9375 C 20.359375 -18.132812 20.96875 -19.671875 20.96875 -21.546875 C 20.96875 -23.492188 20.359375 -25.097656 19.140625 -26.359375 C 17.929688 -27.628906 16.394531 -28.265625 14.53125 -28.265625 L 8.421875 -28.265625 L 8.421875 -15.140625 Z M 14.53125 -15.140625 "/></g></g></g><g clip-path="url(#3192c25c97)"><path fill="#0895cd" d="M 214.875 18.757812 C 211.617188 18.757812 208.859375 20.636719 207.734375 23.394531 L 188.683594 23.394531 L 188.683594 18.757812 C 188.683594 9.359375 195.828125 1.339844 205.226562 0.835938 C 212.367188 0.585938 218.507812 4.722656 221.265625 10.738281 C 221.765625 11.863281 223.144531 12.367188 224.273438 12.367188 C 233.921875 12.367188 241.691406 20.136719 241.691406 29.785156 C 241.691406 30.660156 241.691406 31.414062 241.441406 32.039062 C 241.191406 34.296875 242.320312 36.425781 244.449219 37.304688 C 245.324219 37.679688 245.953125 38.179688 246.828125 38.679688 L 265.5 38.679688 C 266.753906 36.050781 268.757812 34.042969 271.890625 34.042969 C 276.027344 34.042969 279.410156 37.429688 279.410156 41.5625 C 279.410156 45.699219 276.027344 49.082031 271.890625 49.082031 C 268.886719 49.082031 266.753906 46.953125 265.5 44.445312 L 210.992188 44.445312 C 209.863281 41.941406 207.105469 40.058594 204.097656 40.058594 C 199.964844 40.058594 196.328125 43.316406 196.328125 47.578125 C 196.328125 51.714844 199.964844 55.097656 204.097656 55.097656 C 207.105469 55.097656 209.863281 53.21875 210.992188 50.710938 L 256.855469 50.710938 C 258.234375 53.46875 258.734375 56.476562 258.734375 59.609375 C 258.734375 66.75 255.476562 72.890625 250.464844 77.277344 C 250.214844 77.527344 249.960938 78.15625 249.585938 78.40625 L 263.121094 78.40625 C 264.25 75.898438 267.003906 74.019531 270.261719 74.019531 C 274.398438 74.019531 277.78125 77.277344 277.78125 81.539062 C 277.78125 85.671875 274.523438 89.058594 270.261719 89.058594 C 267.003906 89.058594 264.25 87.175781 263.121094 84.671875 L 217.257812 84.671875 C 216.128906 81.914062 213.621094 80.035156 210.363281 80.035156 C 206.230469 80.035156 202.84375 83.292969 202.84375 87.554688 C 202.84375 91.9375 206.101562 95.324219 210.363281 95.324219 C 213.371094 95.324219 216.128906 93.441406 217.257812 90.6875 L 248.710938 90.6875 C 248.207031 99.582031 242.695312 106.976562 235.175781 110.859375 C 233.546875 111.738281 231.917969 113.117188 231.292969 114.996094 C 229.914062 118.882812 227.15625 122.140625 223.523438 124.394531 C 222.144531 125.273438 220.765625 126.273438 219.886719 127.652344 C 216.253906 132.664062 210.488281 135.671875 203.847656 134.796875 C 194.949219 133.917969 188.433594 126.273438 188.433594 117.125 L 188.433594 111.113281 L 211.117188 111.113281 C 212.242188 113.867188 214.75 115.75 218.007812 115.75 C 222.144531 115.75 225.527344 112.488281 225.527344 108.230469 C 225.527344 104.09375 222.269531 100.460938 218.007812 100.460938 C 215 100.460938 212.242188 102.339844 211.117188 105.097656 L 188.433594 105.097656 L 188.433594 71.136719 L 224.023438 71.136719 C 225.152344 73.644531 227.90625 75.523438 230.914062 75.523438 C 235.050781 75.523438 238.433594 72.265625 238.433594 68.003906 C 238.433594 63.871094 235.175781 60.484375 230.914062 60.484375 C 227.90625 60.484375 225.152344 62.367188 224.023438 64.871094 L 188.433594 64.871094 L 188.433594 29.28125 L 207.480469 29.28125 C 208.609375 32.039062 211.367188 33.917969 214.625 33.917969 C 218.761719 33.917969 222.144531 30.660156 222.144531 26.402344 C 222.269531 22.390625 219.011719 18.757812 214.875 18.757812 Z M 214.875 18.757812 " fill-opacity="1" fill-rule="nonzero"/></g><g clip-path="url(#94571f6f0a)"><path fill="#09487e" d="M 156.359375 18.757812 C 159.617188 18.757812 162.375 20.636719 163.5 23.394531 L 182.550781 23.394531 L 182.550781 18.757812 C 182.550781 9.359375 175.40625 1.339844 166.007812 0.835938 C 158.863281 0.585938 152.726562 4.722656 149.96875 10.738281 C 149.464844 11.863281 148.089844 12.367188 146.960938 12.367188 C 137.3125 12.367188 129.542969 20.136719 129.542969 29.785156 C 129.542969 30.660156 129.542969 31.414062 129.792969 32.039062 C 130.042969 34.296875 128.914062 36.425781 126.785156 37.304688 C 125.90625 37.679688 125.28125 38.179688 124.40625 38.679688 L 105.859375 38.679688 C 104.605469 36.050781 102.601562 34.042969 99.46875 34.042969 C 95.332031 34.042969 91.949219 37.429688 91.949219 41.5625 C 91.949219 45.699219 95.332031 49.082031 99.46875 49.082031 C 102.476562 49.082031 104.605469 46.953125 105.859375 44.445312 L 160.367188 44.445312 C 161.496094 41.941406 164.253906 40.058594 167.261719 40.058594 C 171.394531 40.058594 175.03125 43.316406 175.03125 47.578125 C 175.03125 51.714844 171.394531 55.097656 167.261719 55.097656 C 164.253906 55.097656 161.496094 53.21875 160.367188 50.710938 L 114.378906 50.710938 C 113 53.46875 112.5 56.476562 112.5 59.609375 C 112.5 66.75 115.757812 72.890625 120.769531 77.277344 C 121.019531 77.527344 121.273438 78.15625 121.648438 78.40625 L 108.113281 78.40625 C 106.984375 75.898438 104.230469 74.019531 100.972656 74.019531 C 96.835938 74.019531 93.453125 77.277344 93.453125 81.539062 C 93.453125 85.671875 96.710938 89.058594 100.972656 89.058594 C 104.230469 89.058594 106.984375 87.175781 108.113281 84.671875 L 153.976562 84.671875 C 155.105469 81.914062 157.613281 80.035156 160.871094 80.035156 C 165.003906 80.035156 168.390625 83.292969 168.390625 87.554688 C 168.390625 91.9375 165.128906 95.324219 160.871094 95.324219 C 157.863281 95.324219 155.105469 93.441406 153.976562 90.6875 L 122.398438 90.6875 C 122.902344 99.582031 128.414062 106.976562 135.933594 110.859375 C 137.5625 111.738281 139.191406 113.117188 139.816406 114.996094 C 141.195312 118.882812 143.953125 122.140625 147.585938 124.394531 C 148.964844 125.273438 150.34375 126.273438 151.222656 127.652344 C 154.855469 132.664062 160.621094 135.671875 167.261719 134.796875 C 176.160156 133.917969 182.675781 126.273438 182.675781 117.125 L 182.675781 111.113281 L 159.992188 111.113281 C 158.863281 113.867188 156.359375 115.75 153.101562 115.75 C 148.964844 115.75 145.582031 112.488281 145.582031 108.230469 C 145.582031 104.09375 148.839844 100.460938 153.101562 100.460938 C 156.109375 100.460938 158.863281 102.339844 159.992188 105.097656 L 182.675781 105.097656 L 182.675781 71.136719 L 146.960938 71.136719 C 145.832031 73.644531 143.074219 75.523438 140.070312 75.523438 C 135.933594 75.523438 132.550781 72.265625 132.550781 68.003906 C 132.550781 63.871094 135.808594 60.484375 140.070312 60.484375 C 143.074219 60.484375 145.832031 62.367188 146.960938 64.871094 L 182.550781 64.871094 L 182.550781 29.28125 L 163.628906 29.28125 C 162.5 32.039062 159.742188 33.917969 156.484375 33.917969 C 152.347656 33.917969 148.964844 30.660156 148.964844 26.402344 C 148.964844 22.390625 152.222656 18.757812 156.359375 18.757812 Z M 156.359375 18.757812 " fill-opacity="1" fill-rule="nonzero"/></g><g clip-path="url(#5329e1a736)"><path fill="#ffffff" d="M 106.238281 40.910156 C 106.238281 41.640625 106.164062 42.359375 106.023438 43.074219 C 105.882812 43.785156 105.671875 44.480469 105.394531 45.152344 C 105.117188 45.824219 104.773438 46.460938 104.371094 47.066406 C 103.964844 47.671875 103.507812 48.230469 102.992188 48.746094 C 102.476562 49.257812 101.917969 49.71875 101.3125 50.121094 C 100.707031 50.527344 100.070312 50.867188 99.398438 51.144531 C 98.726562 51.425781 98.035156 51.636719 97.320312 51.777344 C 96.605469 51.917969 95.886719 51.988281 95.160156 51.988281 C 94.429688 51.988281 93.710938 51.917969 92.996094 51.777344 C 92.285156 51.636719 91.589844 51.425781 90.917969 51.144531 C 90.246094 50.867188 89.609375 50.527344 89.003906 50.121094 C 88.398438 49.71875 87.839844 49.257812 87.324219 48.746094 C 86.8125 48.230469 86.351562 47.671875 85.949219 47.066406 C 85.542969 46.460938 85.203125 45.824219 84.921875 45.152344 C 84.644531 44.480469 84.433594 43.785156 84.292969 43.074219 C 84.152344 42.359375 84.082031 41.640625 84.082031 40.910156 C 84.082031 40.183594 84.152344 39.464844 84.292969 38.75 C 84.433594 38.035156 84.644531 37.34375 84.921875 36.671875 C 85.203125 36 85.542969 35.363281 85.949219 34.757812 C 86.351562 34.152344 86.8125 33.59375 87.324219 33.078125 C 87.839844 32.5625 88.398438 32.105469 89.003906 31.699219 C 89.609375 31.296875 90.246094 30.953125 90.917969 30.675781 C 91.589844 30.398438 92.285156 30.1875 92.996094 30.046875 C 93.710938 29.90625 94.429688 29.832031 95.160156 29.832031 C 95.886719 29.832031 96.605469 29.90625 97.320312 30.046875 C 98.035156 30.1875 98.726562 30.398438 99.398438 30.675781 C 100.070312 30.953125 100.707031 31.296875 101.3125 31.699219 C 101.917969 32.105469 102.476562 32.5625 102.992188 33.078125 C 103.507812 33.59375 103.964844 34.152344 104.371094 34.757812 C 104.773438 35.363281 105.117188 36 105.394531 36.671875 C 105.671875 37.34375 105.882812 38.035156 106.023438 38.75 C 106.164062 39.464844 106.238281 40.183594 106.238281 40.910156 Z M 106.238281 40.910156 " fill-opacity="1" fill-rule="nonzero"/></g><g clip-path="url(#c5a34c03b2)"><g clip-path="url(#013ee5ef36)"><g clip-path="url(#06ede6ba93)"><path fill="#09487e" d="M 101.910156 46.859375 C 99.601562 49.171875 95.855469 49.171875 93.546875 46.859375 C 91.238281 44.550781 91.238281 40.804688 93.546875 38.496094 C 95.855469 36.1875 99.601562 36.1875 101.910156 38.496094 C 104.21875 40.804688 104.21875 44.550781 101.910156 46.859375 Z M 104.59375 32.460938 L 103.386719 33.667969 C 102.929688 33.519531 101.671875 32.742188 100.753906 32.46875 L 100.757812 30.757812 C 99.019531 30.320312 97.210938 30.257812 95.457031 30.585938 L 95.546875 32.199219 C 94.597656 32.40625 93.703125 32.707031 92.890625 33.117188 L 91.671875 31.898438 C 90.574219 32.632812 89.925781 33.070312 89.171875 33.824219 C 88.6875 34.304688 88.386719 34.707031 87.851562 35.394531 L 89.046875 36.585938 C 88.277344 37.644531 87.886719 38.558594 87.582031 39.59375 L 85.839844 39.621094 C 85.402344 41.355469 85.324219 43.179688 85.648438 44.933594 L 87.34375 44.9375 C 87.601562 46.125 88.304688 47.53125 88.71875 48.335938 L 87.511719 49.542969 C 88.320312 50.566406 88.625 50.988281 89.199219 51.5625 C 89.863281 52.226562 90.476562 52.675781 91.53125 53.449219 L 92.746094 52.234375 C 93.253906 52.332031 94.570312 53.015625 95.636719 53.25 L 95.546875 54.863281 C 97.304688 55.191406 99.066406 55.078125 100.800781 54.640625 L 100.835938 52.847656 C 101.871094 52.542969 102.761719 52.132812 103.824219 51.363281 L 105.015625 52.554688 C 105.699219 52.023438 106.101562 51.71875 106.585938 51.238281 C 107.339844 50.484375 107.777344 49.832031 108.507812 48.734375 L 107.292969 47.519531 C 107.699219 46.707031 108 45.808594 108.210938 44.859375 L 109.867188 44.90625 C 110.195312 43.148438 110.105469 41.363281 109.671875 39.628906 L 108.125 39.820312 C 107.886719 39.019531 107.433594 38.15625 107.28125 37.699219 L 108.5 36.480469 C 107.726562 35.425781 107.273438 34.8125 106.613281 34.148438 C 106.039062 33.574219 105.613281 33.269531 104.59375 32.460938 " fill-opacity="1" fill-rule="nonzero"/></g></g></g><g clip-path="url(#6cec94d285)"><g clip-path="url(#a80c906beb)"><g clip-path="url(#c0d1e7fee1)"><path fill="#ffffff" d="M 159.882812 28.714844 C 157.972656 30.625 154.878906 30.625 152.96875 28.714844 C 151.058594 26.804688 151.058594 23.707031 152.96875 21.800781 C 154.878906 19.890625 157.972656 19.890625 159.882812 21.800781 C 161.792969 23.707031 161.792969 26.804688 159.882812 28.714844 Z M 162.101562 16.808594 L 161.105469 17.808594 C 160.722656 17.683594 159.6875 17.042969 158.925781 16.816406 L 158.929688 15.402344 C 157.492188 15.039062 156 14.988281 154.546875 15.257812 L 154.621094 16.589844 C 153.835938 16.761719 153.09375 17.011719 152.425781 17.347656 L 151.417969 16.34375 C 150.511719 16.949219 149.972656 17.3125 149.347656 17.933594 C 148.949219 18.332031 148.699219 18.664062 148.257812 19.230469 L 149.246094 20.21875 C 148.609375 21.09375 148.289062 21.847656 148.035156 22.707031 L 146.59375 22.726562 C 146.234375 24.164062 146.167969 25.671875 146.4375 27.121094 L 147.835938 27.125 C 148.050781 28.105469 148.632812 29.269531 148.976562 29.933594 L 147.976562 30.933594 C 148.644531 31.777344 148.898438 32.128906 149.371094 32.601562 C 149.921875 33.148438 150.425781 33.523438 151.300781 34.164062 L 152.304688 33.15625 C 152.726562 33.238281 153.8125 33.804688 154.695312 33.996094 L 154.621094 35.332031 C 156.074219 35.601562 157.53125 35.507812 158.964844 35.148438 L 158.996094 33.664062 C 159.851562 33.410156 160.585938 33.070312 161.464844 32.4375 L 162.449219 33.421875 C 163.015625 32.984375 163.347656 32.730469 163.746094 32.332031 C 164.371094 31.710938 164.734375 31.171875 165.335938 30.265625 L 164.332031 29.261719 C 164.667969 28.585938 164.917969 27.84375 165.089844 27.058594 L 166.460938 27.097656 C 166.730469 25.644531 166.660156 24.171875 166.296875 22.734375 L 165.023438 22.894531 C 164.824219 22.230469 164.449219 21.519531 164.324219 21.136719 L 165.332031 20.132812 C 164.691406 19.257812 164.320312 18.75 163.769531 18.203125 C 163.296875 17.730469 162.945312 17.476562 162.101562 16.808594 " fill-opacity="1" fill-rule="nonzero"/></g></g></g><g clip-path="url(#cac9f79421)"><path fill="#ffffff" d="M 110.003906 80.558594 C 110.003906 81.285156 109.933594 82.003906 109.792969 82.71875 C 109.652344 83.429688 109.441406 84.125 109.164062 84.796875 C 108.882812 85.46875 108.542969 86.105469 108.136719 86.710938 C 107.734375 87.316406 107.273438 87.875 106.761719 88.390625 C 106.246094 88.90625 105.6875 89.363281 105.082031 89.769531 C 104.476562 90.171875 103.839844 90.511719 103.167969 90.792969 C 102.496094 91.070312 101.800781 91.28125 101.089844 91.421875 C 100.375 91.5625 99.65625 91.636719 98.925781 91.636719 C 98.199219 91.636719 97.480469 91.5625 96.765625 91.421875 C 96.050781 91.28125 95.359375 91.070312 94.6875 90.792969 C 94.015625 90.511719 93.378906 90.171875 92.773438 89.769531 C 92.167969 89.363281 91.609375 88.90625 91.09375 88.390625 C 90.578125 87.875 90.121094 87.316406 89.714844 86.710938 C 89.3125 86.105469 88.972656 85.46875 88.691406 84.796875 C 88.414062 84.125 88.203125 83.429688 88.0625 82.71875 C 87.921875 82.003906 87.847656 81.285156 87.847656 80.558594 C 87.847656 79.828125 87.921875 79.109375 88.0625 78.394531 C 88.203125 77.683594 88.414062 76.988281 88.691406 76.316406 C 88.972656 75.644531 89.3125 75.007812 89.714844 74.402344 C 90.121094 73.796875 90.578125 73.238281 91.09375 72.722656 C 91.609375 72.207031 92.167969 71.75 92.773438 71.34375 C 93.378906 70.941406 94.015625 70.601562 94.6875 70.320312 C 95.359375 70.042969 96.050781 69.832031 96.765625 69.691406 C 97.480469 69.550781 98.199219 69.476562 98.925781 69.476562 C 99.65625 69.476562 100.375 69.550781 101.089844 69.691406 C 101.800781 69.832031 102.496094 70.042969 103.167969 70.320312 C 103.839844 70.601562 104.476562 70.941406 105.082031 71.34375 C 105.6875 71.75 106.246094 72.207031 106.761719 72.722656 C 107.273438 73.238281 107.734375 73.796875 108.136719 74.402344 C 108.542969 75.007812 108.882812 75.644531 109.164062 76.316406 C 109.441406 76.988281 109.652344 77.683594 109.792969 78.394531 C 109.933594 79.109375 110.003906 79.828125 110.003906 80.558594 Z M 110.003906 80.558594 " fill-opacity="1" fill-rule="nonzero"/></g><g clip-path="url(#6153756253)"><g clip-path="url(#1a1f3882f7)"><g clip-path="url(#b9051a6948)"><path fill="#09487e" d="M 105.679688 86.503906 C 103.371094 88.816406 99.625 88.816406 97.316406 86.503906 C 95.007812 84.199219 95.007812 80.453125 97.316406 78.140625 C 99.625 75.832031 103.371094 75.832031 105.679688 78.140625 C 107.988281 80.453125 107.988281 84.195312 105.679688 86.503906 Z M 108.363281 72.105469 L 107.15625 73.3125 C 106.695312 73.164062 105.441406 72.386719 104.519531 72.113281 L 104.523438 70.40625 C 102.789062 69.96875 100.980469 69.902344 99.226562 70.230469 L 99.316406 71.84375 C 98.367188 72.050781 97.46875 72.355469 96.660156 72.761719 L 95.441406 71.542969 C 94.34375 72.277344 93.691406 72.714844 92.9375 73.46875 C 92.457031 73.949219 92.15625 74.351562 91.621094 75.039062 L 92.8125 76.230469 C 92.046875 77.289062 91.65625 78.203125 91.351562 79.238281 L 89.609375 79.265625 C 89.171875 81.003906 89.09375 82.824219 89.417969 84.578125 L 91.113281 84.585938 C 91.371094 85.769531 92.074219 87.175781 92.488281 87.980469 L 91.28125 89.191406 C 92.085938 90.210938 92.394531 90.636719 92.964844 91.207031 C 93.628906 91.871094 94.242188 92.320312 95.300781 93.09375 L 96.515625 91.878906 C 97.023438 91.980469 98.339844 92.660156 99.40625 92.894531 L 99.316406 94.507812 C 101.074219 94.835938 102.835938 94.722656 104.570312 94.285156 L 104.605469 92.492188 C 105.640625 92.1875 106.53125 91.777344 107.589844 91.007812 L 108.785156 92.199219 C 109.46875 91.667969 109.871094 91.363281 110.351562 90.882812 C 111.105469 90.128906 111.542969 89.476562 112.277344 88.382812 L 111.0625 87.164062 C 111.46875 86.351562 111.769531 85.453125 111.976562 84.503906 L 113.636719 84.550781 C 113.960938 82.796875 113.875 81.011719 113.4375 79.273438 L 111.894531 79.464844 C 111.65625 78.664062 111.203125 77.800781 111.050781 77.34375 L 112.269531 76.125 C 111.492188 75.070312 111.042969 74.457031 110.378906 73.792969 C 109.808594 73.222656 109.382812 72.914062 108.363281 72.105469 " fill-opacity="1" fill-rule="nonzero"/></g></g></g><g clip-path="url(#2684dc330d)"><path fill="#ffffff" d="M 284.898438 39.046875 C 284.898438 39.773438 284.828125 40.492188 284.6875 41.207031 C 284.542969 41.921875 284.335938 42.613281 284.054688 43.285156 C 283.777344 43.957031 283.4375 44.59375 283.03125 45.199219 C 282.628906 45.804688 282.167969 46.363281 281.65625 46.878906 C 281.140625 47.394531 280.582031 47.851562 279.976562 48.257812 C 279.371094 48.660156 278.734375 49 278.0625 49.28125 C 277.390625 49.558594 276.695312 49.769531 275.984375 49.910156 C 275.269531 50.050781 274.546875 50.125 273.820312 50.125 C 273.09375 50.125 272.375 50.050781 271.660156 49.910156 C 270.945312 49.769531 270.253906 49.558594 269.582031 49.28125 C 268.910156 49 268.269531 48.660156 267.667969 48.257812 C 267.0625 47.851562 266.503906 47.394531 265.988281 46.878906 C 265.472656 46.363281 265.015625 45.804688 264.609375 45.199219 C 264.207031 44.59375 263.863281 43.957031 263.585938 43.285156 C 263.308594 42.613281 263.097656 41.921875 262.957031 41.207031 C 262.8125 40.492188 262.742188 39.773438 262.742188 39.046875 C 262.742188 38.316406 262.8125 37.597656 262.957031 36.882812 C 263.097656 36.171875 263.308594 35.476562 263.585938 34.804688 C 263.863281 34.132812 264.207031 33.496094 264.609375 32.890625 C 265.015625 32.285156 265.472656 31.726562 265.988281 31.210938 C 266.503906 30.699219 267.0625 30.238281 267.667969 29.835938 C 268.269531 29.429688 268.910156 29.089844 269.582031 28.808594 C 270.253906 28.53125 270.945312 28.320312 271.660156 28.179688 C 272.375 28.039062 273.09375 27.96875 273.820312 27.96875 C 274.546875 27.96875 275.269531 28.039062 275.984375 28.179688 C 276.695312 28.320312 277.390625 28.53125 278.0625 28.808594 C 278.734375 29.089844 279.371094 29.429688 279.976562 29.835938 C 280.582031 30.238281 281.140625 30.699219 281.65625 31.210938 C 282.167969 31.726562 282.628906 32.285156 283.03125 32.890625 C 283.4375 33.496094 283.777344 34.132812 284.054688 34.804688 C 284.335938 35.476562 284.542969 36.171875 284.6875 36.882812 C 284.828125 37.597656 284.898438 38.316406 284.898438 39.046875 Z M 284.898438 39.046875 " fill-opacity="1" fill-rule="nonzero"/></g><g clip-path="url(#b45c2b7e8b)"><g clip-path="url(#5faee8368b)"><g clip-path="url(#d89a14fe54)"><path fill="#0895cd" d="M 277.902344 44.996094 C 275.59375 47.304688 271.851562 47.304688 269.539062 44.996094 C 267.230469 42.6875 267.230469 38.941406 269.539062 36.628906 C 271.851562 34.320312 275.597656 34.324219 277.902344 36.628906 C 280.214844 38.941406 280.214844 42.683594 277.902344 44.996094 Z M 280.589844 30.59375 L 279.378906 31.800781 C 278.921875 31.652344 277.667969 30.875 276.746094 30.601562 L 276.75 28.894531 C 275.011719 28.457031 273.207031 28.390625 271.453125 28.71875 L 271.539062 30.332031 C 270.589844 30.539062 269.695312 30.84375 268.882812 31.25 L 267.667969 30.03125 C 266.570312 30.765625 265.917969 31.203125 265.164062 31.957031 C 264.679688 32.441406 264.378906 32.839844 263.84375 33.527344 L 265.039062 34.71875 C 264.269531 35.777344 263.878906 36.691406 263.574219 37.726562 L 261.832031 37.753906 C 261.394531 39.492188 261.316406 41.3125 261.640625 43.066406 L 263.335938 43.074219 C 263.59375 44.257812 264.300781 45.664062 264.710938 46.472656 L 263.503906 47.679688 C 264.3125 48.699219 264.621094 49.125 265.191406 49.695312 C 265.855469 50.359375 266.46875 50.808594 267.523438 51.582031 L 268.742188 50.367188 C 269.246094 50.46875 270.5625 51.152344 271.628906 51.382812 L 271.539062 52.996094 C 273.296875 53.324219 275.058594 53.210938 276.796875 52.773438 L 276.828125 50.980469 C 277.867188 50.675781 278.757812 50.265625 279.816406 49.496094 L 281.007812 50.691406 C 281.695312 50.15625 282.09375 49.851562 282.578125 49.371094 C 283.332031 48.617188 283.769531 47.964844 284.5 46.871094 L 283.285156 45.65625 C 283.691406 44.839844 283.992188 43.941406 284.203125 42.992188 L 285.863281 43.039062 C 286.1875 41.285156 286.097656 39.5 285.664062 37.765625 L 284.117188 37.953125 C 283.882812 37.152344 283.425781 36.289062 283.277344 35.832031 L 284.492188 34.613281 C 283.71875 33.558594 283.269531 32.945312 282.605469 32.28125 C 282.035156 31.710938 281.609375 31.402344 280.589844 30.59375 " fill-opacity="1" fill-rule="nonzero"/></g></g></g><g clip-path="url(#a90cb8ee0f)"><path fill="#ffffff" d="M 284.898438 80.558594 C 284.898438 81.285156 284.828125 82.003906 284.6875 82.71875 C 284.542969 83.429688 284.335938 84.125 284.054688 84.796875 C 283.777344 85.46875 283.4375 86.105469 283.03125 86.710938 C 282.628906 87.316406 282.167969 87.875 281.65625 88.390625 C 281.140625 88.90625 280.582031 89.363281 279.976562 89.769531 C 279.371094 90.171875 278.734375 90.511719 278.0625 90.792969 C 277.390625 91.070312 276.695312 91.28125 275.984375 91.421875 C 275.269531 91.5625 274.546875 91.636719 273.820312 91.636719 C 273.09375 91.636719 272.375 91.5625 271.660156 91.421875 C 270.945312 91.28125 270.253906 91.070312 269.582031 90.792969 C 268.910156 90.511719 268.269531 90.171875 267.667969 89.769531 C 267.0625 89.363281 266.503906 88.90625 265.988281 88.390625 C 265.472656 87.875 265.015625 87.316406 264.609375 86.710938 C 264.207031 86.105469 263.863281 85.46875 263.585938 84.796875 C 263.308594 84.125 263.097656 83.429688 262.957031 82.71875 C 262.8125 82.003906 262.742188 81.285156 262.742188 80.558594 C 262.742188 79.828125 262.8125 79.109375 262.957031 78.394531 C 263.097656 77.683594 263.308594 76.988281 263.585938 76.316406 C 263.863281 75.644531 264.207031 75.007812 264.609375 74.402344 C 265.015625 73.796875 265.472656 73.238281 265.988281 72.722656 C 266.503906 72.207031 267.0625 71.75 267.667969 71.34375 C 268.269531 70.941406 268.910156 70.601562 269.582031 70.320312 C 270.253906 70.042969 270.945312 69.832031 271.660156 69.691406 C 272.375 69.550781 273.09375 69.476562 273.820312 69.476562 C 274.546875 69.476562 275.269531 69.550781 275.984375 69.691406 C 276.695312 69.832031 277.390625 70.042969 278.0625 70.320312 C 278.734375 70.601562 279.371094 70.941406 279.976562 71.34375 C 280.582031 71.75 281.140625 72.207031 281.65625 72.722656 C 282.167969 73.238281 282.628906 73.796875 283.03125 74.402344 C 283.4375 75.007812 283.777344 75.644531 284.054688 76.316406 C 284.335938 76.988281 284.542969 77.683594 284.6875 78.394531 C 284.828125 79.109375 284.898438 79.828125 284.898438 80.558594 Z M 284.898438 80.558594 " fill-opacity="1" fill-rule="nonzero"/></g><g clip-path="url(#47100ff30d)"><g clip-path="url(#6e4f752f12)"><g clip-path="url(#2fae89e468)"><path fill="#0895cd" d="M 277.125 86.503906 C 274.816406 88.816406 271.070312 88.816406 268.761719 86.503906 C 266.453125 84.199219 266.453125 80.453125 268.761719 78.140625 C 271.070312 75.832031 274.816406 75.832031 277.125 78.140625 C 279.433594 80.453125 279.433594 84.195312 277.125 86.503906 Z M 279.808594 72.105469 L 278.601562 73.3125 C 278.140625 73.164062 276.886719 72.386719 275.96875 72.113281 L 275.96875 70.40625 C 274.234375 69.96875 272.425781 69.902344 270.671875 70.230469 L 270.761719 71.84375 C 269.8125 72.050781 268.917969 72.355469 268.105469 72.761719 L 266.886719 71.542969 C 265.789062 72.277344 265.140625 72.714844 264.386719 73.46875 C 263.902344 73.949219 263.601562 74.351562 263.066406 75.039062 L 264.257812 76.230469 C 263.492188 77.289062 263.101562 78.203125 262.796875 79.238281 L 261.054688 79.265625 C 260.617188 81.003906 260.539062 82.824219 260.863281 84.578125 L 262.558594 84.585938 C 262.816406 85.769531 263.519531 87.175781 263.933594 87.980469 L 262.726562 89.191406 C 263.53125 90.210938 263.839844 90.636719 264.414062 91.207031 C 265.074219 91.871094 265.691406 92.320312 266.746094 93.09375 L 267.960938 91.878906 C 268.46875 91.980469 269.785156 92.660156 270.851562 92.894531 L 270.761719 94.507812 C 272.519531 94.835938 274.28125 94.722656 276.015625 94.285156 L 276.050781 92.492188 C 277.085938 92.1875 277.976562 91.777344 279.039062 91.007812 L 280.230469 92.199219 C 280.914062 91.667969 281.316406 91.363281 281.796875 90.882812 C 282.554688 90.128906 282.992188 89.476562 283.722656 88.382812 L 282.507812 87.164062 C 282.914062 86.351562 283.214844 85.453125 283.421875 84.503906 L 285.082031 84.550781 C 285.410156 82.796875 285.320312 81.011719 284.882812 79.273438 L 283.339844 79.464844 C 283.101562 78.664062 282.648438 77.800781 282.496094 77.34375 L 283.714844 76.125 C 282.941406 75.070312 282.488281 74.457031 281.828125 73.792969 C 281.253906 73.222656 280.828125 72.914062 279.808594 72.105469 " fill-opacity="1" fill-rule="nonzero"/></g></g></g><g clip-path="url(#7487d1efab)"><g clip-path="url(#75cb6f6524)"><g clip-path="url(#28560e563b)"><path fill="#ffffff" d="M 172.109375 50.980469 C 170.199219 52.890625 167.105469 52.890625 165.195312 50.980469 C 163.285156 49.070312 163.285156 45.972656 165.195312 44.066406 C 167.105469 42.15625 170.199219 42.15625 172.109375 44.066406 C 174.019531 45.972656 174.019531 49.070312 172.109375 50.980469 Z M 174.328125 39.074219 L 173.332031 40.074219 C 172.949219 39.949219 171.914062 39.308594 171.152344 39.082031 L 171.15625 37.667969 C 169.71875 37.304688 168.226562 37.253906 166.773438 37.523438 L 166.847656 38.855469 C 166.0625 39.027344 165.320312 39.277344 164.652344 39.613281 L 163.644531 38.609375 C 162.738281 39.214844 162.199219 39.578125 161.574219 40.199219 C 161.175781 40.597656 160.925781 40.929688 160.484375 41.496094 L 161.472656 42.484375 C 160.835938 43.359375 160.515625 44.113281 160.261719 44.972656 L 158.820312 44.992188 C 158.460938 46.429688 158.394531 47.9375 158.664062 49.386719 L 160.0625 49.390625 C 160.277344 50.371094 160.859375 51.535156 161.203125 52.199219 L 160.203125 53.199219 C 160.871094 54.042969 161.125 54.394531 161.597656 54.867188 C 162.148438 55.414062 162.652344 55.789062 163.527344 56.429688 L 164.53125 55.421875 C 164.953125 55.503906 166.039062 56.070312 166.921875 56.261719 L 166.847656 57.597656 C 168.300781 57.867188 169.757812 57.773438 171.191406 57.414062 L 171.222656 55.929688 C 172.078125 55.675781 172.8125 55.335938 173.691406 54.703125 L 174.675781 55.6875 C 175.242188 55.25 175.574219 54.996094 175.972656 54.597656 C 176.597656 53.976562 176.960938 53.4375 177.5625 52.53125 L 176.558594 51.527344 C 176.894531 50.851562 177.144531 50.109375 177.316406 49.324219 L 178.6875 49.363281 C 178.957031 47.910156 178.886719 46.4375 178.523438 45 L 177.25 45.160156 C 177.050781 44.496094 176.675781 43.785156 176.550781 43.402344 L 177.558594 42.398438 C 176.917969 41.523438 176.546875 41.015625 175.996094 40.46875 C 175.523438 39.996094 175.171875 39.742188 174.328125 39.074219 " fill-opacity="1" fill-rule="nonzero"/></g></g></g><g clip-path="url(#b8321d5c31)"><g clip-path="url(#706e85490b)"><g clip-path="url(#d5944ac313)"><path fill="#ffffff" d="M 142.335938 70.519531 C 140.425781 72.429688 137.328125 72.429688 135.421875 70.519531 C 133.511719 68.609375 133.511719 65.511719 135.421875 63.601562 C 137.328125 61.695312 140.425781 61.695312 142.335938 63.601562 C 144.246094 65.511719 144.246094 68.609375 142.335938 70.519531 Z M 144.554688 58.613281 L 143.554688 59.609375 C 143.175781 59.488281 142.136719 58.84375 141.378906 58.621094 L 141.378906 57.207031 C 139.945312 56.84375 138.449219 56.792969 137 57.0625 L 137.074219 58.394531 C 136.289062 58.566406 135.546875 58.816406 134.875 59.152344 L 133.871094 58.148438 C 132.964844 58.753906 132.425781 59.113281 131.800781 59.738281 C 131.402344 60.136719 131.152344 60.46875 130.710938 61.035156 L 131.699219 62.023438 C 131.0625 62.898438 130.742188 63.652344 130.488281 64.507812 L 129.046875 64.53125 C 128.6875 65.96875 128.621094 67.476562 128.890625 68.925781 L 130.289062 68.929688 C 130.503906 69.910156 131.085938 71.074219 131.429688 71.738281 L 130.429688 72.738281 C 131.097656 73.582031 131.351562 73.933594 131.824219 74.40625 C 132.371094 74.953125 132.878906 75.328125 133.753906 75.964844 L 134.757812 74.960938 C 135.175781 75.042969 136.265625 75.609375 137.148438 75.800781 L 137.074219 77.136719 C 138.527344 77.40625 139.984375 77.3125 141.417969 76.953125 L 141.445312 75.46875 C 142.304688 75.214844 143.039062 74.875 143.917969 74.242188 L 144.902344 75.226562 C 145.46875 74.785156 145.800781 74.535156 146.199219 74.136719 C 146.824219 73.511719 147.183594 72.976562 147.789062 72.070312 L 146.785156 71.066406 C 147.121094 70.390625 147.371094 69.648438 147.542969 68.863281 L 148.914062 68.902344 C 149.183594 67.449219 149.113281 65.972656 148.75 64.539062 L 147.472656 64.699219 C 147.277344 64.035156 146.902344 63.320312 146.777344 62.941406 L 147.785156 61.9375 C 147.144531 61.0625 146.769531 60.554688 146.222656 60.007812 C 145.75 59.535156 145.398438 59.28125 144.554688 58.613281 " fill-opacity="1" fill-rule="nonzero"/></g></g></g><g clip-path="url(#3da1406c07)"><g clip-path="url(#cbc5934726)"><g clip-path="url(#d6e74c4531)"><path fill="#ffffff" d="M 165.800781 91.507812 C 163.890625 93.417969 160.792969 93.417969 158.882812 91.507812 C 156.976562 89.601562 156.976562 86.503906 158.882812 84.59375 C 160.792969 82.683594 163.890625 82.683594 165.800781 84.59375 C 167.710938 86.503906 167.710938 89.597656 165.800781 91.507812 Z M 168.019531 79.601562 L 167.019531 80.601562 C 166.640625 80.476562 165.601562 79.835938 164.84375 79.609375 L 164.84375 78.195312 C 163.410156 77.832031 161.914062 77.78125 160.464844 78.050781 L 160.539062 79.386719 C 159.753906 79.554688 159.011719 79.808594 158.339844 80.144531 L 157.335938 79.136719 C 156.425781 79.742188 155.890625 80.105469 155.265625 80.730469 C 154.867188 81.128906 154.617188 81.457031 154.175781 82.027344 L 155.164062 83.011719 C 154.527344 83.886719 154.203125 84.644531 153.953125 85.5 L 152.511719 85.523438 C 152.152344 86.957031 152.085938 88.464844 152.355469 89.914062 L 153.753906 89.917969 C 153.96875 90.898438 154.550781 92.0625 154.890625 92.730469 L 153.894531 93.726562 C 154.5625 94.570312 154.816406 94.921875 155.289062 95.394531 C 155.835938 95.945312 156.34375 96.316406 157.21875 96.957031 L 158.222656 95.949219 C 158.640625 96.035156 159.730469 96.597656 160.613281 96.789062 L 160.539062 98.125 C 161.992188 98.394531 163.449219 98.304688 164.882812 97.941406 L 164.910156 96.460938 C 165.769531 96.207031 166.503906 95.867188 167.382812 95.230469 L 168.367188 96.21875 C 168.933594 95.777344 169.265625 95.527344 169.664062 95.128906 C 170.289062 94.503906 170.648438 93.964844 171.253906 93.058594 L 170.25 92.054688 C 170.585938 91.378906 170.835938 90.636719 171.007812 89.855469 L 172.378906 89.890625 C 172.648438 88.441406 172.574219 86.964844 172.214844 85.53125 L 170.9375 85.6875 C 170.742188 85.023438 170.367188 84.3125 170.242188 83.933594 L 171.246094 82.925781 C 170.609375 82.054688 170.234375 81.546875 169.6875 80.996094 C 169.214844 80.523438 168.863281 80.269531 168.019531 79.601562 " fill-opacity="1" fill-rule="nonzero"/></g></g></g><g clip-path="url(#4a24402567)"><g clip-path="url(#53ddfe0fa6)"><g clip-path="url(#19e5d877b8)"><path fill="#ffffff" d="M 155.824219 112.4375 C 153.914062 114.347656 150.820312 114.347656 148.910156 112.4375 C 147 110.527344 147 107.429688 148.910156 105.519531 C 150.820312 103.609375 153.917969 103.613281 155.824219 105.519531 C 157.734375 107.429688 157.734375 110.527344 155.824219 112.4375 Z M 158.042969 100.53125 L 157.046875 101.527344 C 156.667969 101.40625 155.628906 100.761719 154.867188 100.535156 L 154.871094 99.125 C 153.433594 98.761719 151.941406 98.707031 150.488281 98.980469 L 150.5625 100.3125 C 149.78125 100.484375 149.039062 100.734375 148.367188 101.070312 L 147.359375 100.066406 C 146.453125 100.671875 145.914062 101.03125 145.292969 101.65625 C 144.894531 102.054688 144.644531 102.386719 144.199219 102.953125 L 145.1875 103.941406 C 144.550781 104.816406 144.230469 105.570312 143.976562 106.425781 L 142.539062 106.449219 C 142.175781 107.886719 142.109375 109.394531 142.378906 110.84375 L 143.78125 110.847656 C 143.992188 111.828125 144.578125 112.992188 144.917969 113.65625 L 143.917969 114.65625 C 144.585938 115.5 144.839844 115.851562 145.316406 116.324219 C 145.863281 116.871094 146.371094 117.242188 147.242188 117.882812 L 148.25 116.878906 C 148.667969 116.960938 149.757812 117.527344 150.636719 117.71875 L 150.5625 119.050781 C 152.015625 119.324219 153.472656 119.230469 154.910156 118.871094 L 154.9375 117.386719 C 155.792969 117.132812 156.53125 116.792969 157.40625 116.160156 L 158.390625 117.144531 C 158.957031 116.703125 159.292969 116.453125 159.691406 116.054688 C 160.3125 115.429688 160.675781 114.894531 161.28125 113.988281 L 160.273438 112.980469 C 160.613281 112.308594 160.859375 111.566406 161.035156 110.78125 L 162.40625 110.820312 C 162.675781 109.367188 162.601562 107.890625 162.242188 106.457031 L 160.964844 106.613281 C 160.765625 105.953125 160.390625 105.238281 160.269531 104.859375 L 161.273438 103.855469 C 160.632812 102.980469 160.261719 102.472656 159.714844 101.925781 C 159.238281 101.453125 158.886719 101.199219 158.042969 100.53125 " fill-opacity="1" fill-rule="nonzero"/></g></g></g><g clip-path="url(#f8f1f13f30)"><g clip-path="url(#4b33a2ca19)"><g clip-path="url(#f118b2d1a8)"><path fill="#ffffff" d="M 217.023438 28.714844 C 215.113281 30.625 212.019531 30.625 210.109375 28.714844 C 208.199219 26.804688 208.199219 23.707031 210.109375 21.800781 C 212.019531 19.890625 215.113281 19.890625 217.023438 21.800781 C 218.933594 23.707031 218.933594 26.804688 217.023438 28.714844 Z M 219.242188 16.808594 L 218.242188 17.808594 C 217.863281 17.683594 216.828125 17.042969 216.066406 16.816406 L 216.070312 15.402344 C 214.632812 15.039062 213.140625 14.988281 211.6875 15.257812 L 211.761719 16.589844 C 210.976562 16.761719 210.234375 17.011719 209.566406 17.347656 L 208.558594 16.34375 C 207.652344 16.949219 207.113281 17.3125 206.488281 17.933594 C 206.089844 18.332031 205.839844 18.664062 205.398438 19.230469 L 206.386719 20.21875 C 205.75 21.09375 205.429688 21.847656 205.175781 22.707031 L 203.734375 22.726562 C 203.375 24.164062 203.308594 25.671875 203.578125 27.121094 L 204.976562 27.125 C 205.191406 28.105469 205.773438 29.269531 206.117188 29.933594 L 205.117188 30.933594 C 205.785156 31.777344 206.039062 32.128906 206.511719 32.601562 C 207.058594 33.148438 207.566406 33.523438 208.441406 34.164062 L 209.445312 33.15625 C 209.863281 33.238281 210.953125 33.804688 211.835938 33.996094 L 211.761719 35.332031 C 213.214844 35.601562 214.671875 35.507812 216.105469 35.148438 L 216.136719 33.664062 C 216.992188 33.410156 217.726562 33.070312 218.605469 32.4375 L 219.589844 33.421875 C 220.15625 32.984375 220.488281 32.730469 220.886719 32.332031 C 221.511719 31.710938 221.875 31.171875 222.476562 30.265625 L 221.472656 29.261719 C 221.808594 28.585938 222.058594 27.84375 222.230469 27.058594 L 223.601562 27.097656 C 223.871094 25.644531 223.800781 24.171875 223.4375 22.734375 L 222.160156 22.894531 C 221.964844 22.230469 221.589844 21.519531 221.464844 21.136719 L 222.472656 20.132812 C 221.832031 19.257812 221.457031 18.75 220.910156 18.203125 C 220.4375 17.730469 220.085938 17.476562 219.242188 16.808594 " fill-opacity="1" fill-rule="nonzero"/></g></g></g><g clip-path="url(#9492e47beb)"><g clip-path="url(#434519c8fa)"><g clip-path="url(#456fd12b78)"><path fill="#ffffff" d="M 206.695312 50.980469 C 204.789062 52.890625 201.691406 52.890625 199.78125 50.980469 C 197.875 49.070312 197.871094 45.972656 199.78125 44.066406 C 201.691406 42.15625 204.789062 42.15625 206.695312 44.066406 C 208.605469 45.972656 208.605469 49.070312 206.695312 50.980469 Z M 208.917969 39.074219 L 207.917969 40.074219 C 207.539062 39.949219 206.5 39.308594 205.738281 39.082031 L 205.742188 37.667969 C 204.308594 37.304688 202.8125 37.253906 201.363281 37.523438 L 201.4375 38.855469 C 200.652344 39.027344 199.910156 39.277344 199.238281 39.613281 L 198.230469 38.609375 C 197.324219 39.214844 196.785156 39.578125 196.164062 40.199219 C 195.765625 40.597656 195.515625 40.929688 195.074219 41.496094 L 196.058594 42.484375 C 195.425781 43.359375 195.101562 44.113281 194.847656 44.972656 L 193.410156 44.992188 C 193.046875 46.429688 192.984375 47.9375 193.25 49.386719 L 194.652344 49.390625 C 194.867188 50.371094 195.449219 51.535156 195.789062 52.199219 L 194.792969 53.199219 C 195.457031 54.042969 195.714844 54.394531 196.1875 54.867188 C 196.734375 55.414062 197.242188 55.789062 198.113281 56.429688 L 199.121094 55.421875 C 199.539062 55.503906 200.628906 56.070312 201.511719 56.261719 L 201.4375 57.597656 C 202.886719 57.867188 204.34375 57.773438 205.78125 57.414062 L 205.808594 55.929688 C 206.664062 55.675781 207.402344 55.335938 208.277344 54.703125 L 209.265625 55.6875 C 209.832031 55.25 210.164062 54.996094 210.5625 54.597656 C 211.183594 53.976562 211.546875 53.4375 212.152344 52.53125 L 211.148438 51.527344 C 211.484375 50.851562 211.730469 50.109375 211.90625 49.324219 L 213.277344 49.363281 C 213.546875 47.910156 213.472656 46.4375 213.113281 45 L 211.835938 45.160156 C 211.640625 44.496094 211.261719 43.785156 211.140625 43.402344 L 212.144531 42.398438 C 211.503906 41.523438 211.132812 41.015625 210.585938 40.46875 C 210.113281 39.996094 209.761719 39.742188 208.917969 39.074219 " fill-opacity="1" fill-rule="nonzero"/></g></g></g><g clip-path="url(#5d777f82d1)"><g clip-path="url(#2be64158b1)"><g clip-path="url(#d2eeb9f447)"><path fill="#ffffff" d="M 235.507812 71.585938 C 233.597656 73.496094 230.503906 73.496094 228.59375 71.585938 C 226.683594 69.679688 226.683594 66.582031 228.59375 64.671875 C 230.503906 62.761719 233.601562 62.761719 235.507812 64.671875 C 237.417969 66.582031 237.417969 69.675781 235.507812 71.585938 Z M 237.726562 59.679688 L 236.730469 60.679688 C 236.351562 60.554688 235.3125 59.914062 234.550781 59.6875 L 234.554688 58.273438 C 233.117188 57.910156 231.625 57.859375 230.171875 58.128906 L 230.246094 59.464844 C 229.460938 59.636719 228.722656 59.886719 228.050781 60.222656 L 227.042969 59.214844 C 226.136719 59.820312 225.597656 60.183594 224.976562 60.808594 C 224.574219 61.207031 224.328125 61.539062 223.882812 62.105469 L 224.871094 63.089844 C 224.234375 63.96875 223.914062 64.722656 223.660156 65.578125 L 222.222656 65.601562 C 221.859375 67.035156 221.792969 68.542969 222.0625 69.992188 L 223.464844 69.996094 C 223.675781 70.976562 224.261719 72.140625 224.601562 72.808594 L 223.601562 73.804688 C 224.269531 74.648438 224.523438 75 224.996094 75.472656 C 225.546875 76.023438 226.054688 76.394531 226.925781 77.035156 L 227.933594 76.027344 C 228.351562 76.113281 229.441406 76.675781 230.320312 76.867188 L 230.246094 78.203125 C 231.699219 78.472656 233.15625 78.382812 234.59375 78.019531 L 234.621094 76.539062 C 235.476562 76.285156 236.214844 75.945312 237.089844 75.308594 L 238.074219 76.296875 C 238.640625 75.855469 238.972656 75.605469 239.375 75.207031 C 239.996094 74.582031 240.359375 74.042969 240.964844 73.136719 L 239.957031 72.132812 C 240.292969 71.460938 240.542969 70.714844 240.714844 69.933594 L 242.089844 69.96875 C 242.359375 68.519531 242.285156 67.042969 241.925781 65.609375 L 240.648438 65.765625 C 240.449219 65.101562 240.074219 64.390625 239.949219 64.011719 L 240.957031 63.003906 C 240.316406 62.132812 239.945312 61.625 239.394531 61.074219 C 238.921875 60.601562 238.570312 60.347656 237.726562 59.679688 " fill-opacity="1" fill-rule="nonzero"/></g></g></g><g clip-path="url(#6abf54a714)"><g clip-path="url(#4be5dc57e0)"><g clip-path="url(#5839255070)"><path fill="#ffffff" d="M 212.980469 90.816406 C 211.070312 92.726562 207.976562 92.726562 206.066406 90.816406 C 204.15625 88.90625 204.15625 85.8125 206.066406 83.902344 C 207.976562 81.992188 211.070312 81.992188 212.980469 83.902344 C 214.890625 85.8125 214.890625 88.90625 212.980469 90.816406 Z M 215.199219 78.910156 L 214.203125 79.910156 C 213.820312 79.785156 212.785156 79.144531 212.023438 78.917969 L 212.027344 77.503906 C 210.589844 77.140625 209.097656 77.089844 207.644531 77.359375 L 207.71875 78.691406 C 206.933594 78.863281 206.191406 79.113281 205.523438 79.449219 L 204.515625 78.445312 C 203.609375 79.050781 203.070312 79.414062 202.445312 80.035156 C 202.046875 80.433594 201.796875 80.765625 201.355469 81.335938 L 202.34375 82.320312 C 201.707031 83.195312 201.386719 83.949219 201.132812 84.808594 L 199.691406 84.832031 C 199.332031 86.265625 199.265625 87.773438 199.535156 89.222656 L 200.933594 89.226562 C 201.148438 90.207031 201.730469 91.371094 202.074219 92.035156 L 201.074219 93.035156 C 201.742188 93.878906 201.996094 94.230469 202.46875 94.703125 C 203.019531 95.25 203.523438 95.625 204.398438 96.265625 L 205.402344 95.257812 C 205.820312 95.339844 206.910156 95.90625 207.792969 96.097656 L 207.71875 97.433594 C 209.171875 97.703125 210.628906 97.613281 212.0625 97.25 L 212.09375 95.765625 C 212.949219 95.515625 213.683594 95.175781 214.5625 94.539062 L 215.546875 95.527344 C 216.113281 95.085938 216.445312 94.832031 216.84375 94.433594 C 217.46875 93.8125 217.832031 93.273438 218.433594 92.367188 L 217.429688 91.363281 C 217.765625 90.6875 218.015625 89.945312 218.1875 89.164062 L 219.558594 89.199219 C 219.828125 87.75 219.757812 86.273438 219.394531 84.835938 L 218.121094 84.996094 C 217.921875 84.332031 217.546875 83.621094 217.421875 83.238281 L 218.429688 82.234375 C 217.789062 81.359375 217.417969 80.851562 216.867188 80.304688 C 216.394531 79.832031 216.042969 79.578125 215.199219 78.910156 " fill-opacity="1" fill-rule="nonzero"/></g></g></g><g clip-path="url(#27eedfed04)"><g clip-path="url(#5356457e06)"><g clip-path="url(#e9edb8db09)"><path fill="#ffffff" d="M 222.8125 112.4375 C 220.902344 114.347656 217.804688 114.347656 215.894531 112.4375 C 213.988281 110.527344 213.984375 107.429688 215.894531 105.519531 C 217.804688 103.609375 220.902344 103.613281 222.8125 105.519531 C 224.71875 107.429688 224.71875 110.527344 222.8125 112.4375 Z M 225.03125 100.53125 L 224.03125 101.527344 C 223.652344 101.40625 222.613281 100.761719 221.851562 100.535156 L 221.855469 99.125 C 220.421875 98.761719 218.925781 98.707031 217.476562 98.980469 L 217.550781 100.3125 C 216.765625 100.484375 216.023438 100.734375 215.351562 101.070312 L 214.347656 100.066406 C 213.4375 100.671875 212.902344 101.03125 212.277344 101.65625 C 211.878906 102.054688 211.628906 102.386719 211.1875 102.953125 L 212.171875 103.941406 C 211.539062 104.816406 211.214844 105.570312 210.960938 106.425781 L 209.523438 106.449219 C 209.160156 107.886719 209.097656 109.394531 209.363281 110.84375 L 210.765625 110.847656 C 210.980469 111.828125 211.5625 112.992188 211.902344 113.65625 L 210.90625 114.65625 C 211.574219 115.5 211.828125 115.851562 212.300781 116.324219 C 212.847656 116.871094 213.355469 117.242188 214.230469 117.882812 L 215.234375 116.878906 C 215.652344 116.960938 216.742188 117.527344 217.625 117.71875 L 217.550781 119.050781 C 219 119.324219 220.457031 119.230469 221.894531 118.871094 L 221.921875 117.386719 C 222.777344 117.132812 223.515625 116.792969 224.390625 116.160156 L 225.378906 117.144531 C 225.945312 116.703125 226.277344 116.453125 226.675781 116.054688 C 227.300781 115.429688 227.660156 114.894531 228.265625 113.988281 L 227.261719 112.980469 C 227.597656 112.308594 227.847656 111.566406 228.019531 110.78125 L 229.390625 110.820312 C 229.660156 109.367188 229.585938 107.890625 229.226562 106.457031 L 227.949219 106.613281 C 227.753906 105.953125 227.375 105.238281 227.253906 104.859375 L 228.257812 103.855469 C 227.617188 102.980469 227.246094 102.472656 226.699219 101.925781 C 226.226562 101.453125 225.875 101.199219 225.03125 100.53125 " fill-opacity="1" fill-rule="nonzero"/></g></g></g></svg>