<svg xmlns="http://www.w3.org/2000/svg" xmlns:xlink="http://www.w3.org/1999/xlink" width="708" zoomAndPan="magnify" viewBox="0 0 531 206.249992" height="275" preserveAspectRatio="xMidYMid meet" version="1.0"><defs><g/><clipPath id="fc5cd8175e"><path d="M 349.292969 70.726562 L 371 70.726562 L 371 92 L 349.292969 92 Z M 349.292969 70.726562 " clip-rule="nonzero"/></clipPath><clipPath id="7b0a034053"><path d="M 384 70.726562 L 406 70.726562 L 406 92 L 384 92 Z M 384 70.726562 " clip-rule="nonzero"/></clipPath><clipPath id="91fbba462e"><path d="M 349.292969 106 L 371 106 L 371 127.523438 L 349.292969 127.523438 Z M 349.292969 106 " clip-rule="nonzero"/></clipPath><clipPath id="ac5e43ee39"><path d="M 384 106 L 406 106 L 406 127.523438 L 384 127.523438 Z M 384 106 " clip-rule="nonzero"/></clipPath></defs><g fill="#09487e" fill-opacity="1"><g transform="translate(45.781405, 125.792538)"><g><path d="M 5.5 -81.578125 L 22.796875 -81.578125 C 29.441406 -81.578125 34.519531 -79.722656 38.03125 -76.015625 C 41.550781 -72.316406 43.3125 -67.144531 43.3125 -60.5 L 43.3125 -22.34375 C 43.3125 -14.707031 41.457031 -9.070312 37.75 -5.4375 C 34.050781 -1.8125 28.722656 0 21.765625 0 L 5.5 0 Z M 17.1875 -11 L 22.578125 -11 C 25.859375 -11 28.1875 -11.816406 29.5625 -13.453125 C 30.9375 -15.097656 31.625 -17.679688 31.625 -21.203125 L 31.625 -60.5 C 31.625 -63.707031 30.972656 -66.1875 29.671875 -67.9375 C 28.378906 -69.695312 26.015625 -70.578125 22.578125 -70.578125 L 17.1875 -70.578125 Z M 17.1875 -11 "/></g></g></g><g fill="#09487e" fill-opacity="1"><g transform="translate(94.592265, 125.792538)"><g><path d="M 5.5 -81.578125 L 22.796875 -81.578125 C 29.441406 -81.578125 34.519531 -79.722656 38.03125 -76.015625 C 41.550781 -72.316406 43.3125 -67.144531 43.3125 -60.5 L 43.3125 -22.34375 C 43.3125 -14.707031 41.457031 -9.070312 37.75 -5.4375 C 34.050781 -1.8125 28.722656 0 21.765625 0 L 5.5 0 Z M 17.1875 -11 L 22.578125 -11 C 25.859375 -11 28.1875 -11.816406 29.5625 -13.453125 C 30.9375 -15.097656 31.625 -17.679688 31.625 -21.203125 L 31.625 -60.5 C 31.625 -63.707031 30.972656 -66.1875 29.671875 -67.9375 C 28.378906 -69.695312 26.015625 -70.578125 22.578125 -70.578125 L 17.1875 -70.578125 Z M 17.1875 -11 "/></g></g></g><g fill="#09487e" fill-opacity="1"><g transform="translate(143.403124, 125.792538)"><g><path d="M 43.3125 -58.09375 L 31.625 -58.09375 L 31.625 -60.71875 C 31.625 -63.394531 30.992188 -65.707031 29.734375 -67.65625 C 28.472656 -69.601562 26.351562 -70.578125 23.375 -70.578125 C 21.769531 -70.578125 20.453125 -70.269531 19.421875 -69.65625 C 18.390625 -69.050781 17.585938 -68.269531 17.015625 -67.3125 C 16.441406 -66.351562 16.039062 -65.242188 15.8125 -63.984375 C 15.582031 -62.722656 15.46875 -61.40625 15.46875 -60.03125 C 15.46875 -58.425781 15.523438 -57.070312 15.640625 -55.96875 C 15.753906 -54.863281 16.039062 -53.910156 16.5 -53.109375 C 16.957031 -52.304688 17.625 -51.597656 18.5 -50.984375 C 19.382812 -50.378906 20.585938 -49.769531 22.109375 -49.15625 L 31.046875 -45.609375 C 33.648438 -44.609375 35.753906 -43.441406 37.359375 -42.109375 C 38.960938 -40.773438 40.203125 -39.207031 41.078125 -37.40625 C 41.953125 -35.613281 42.539062 -33.550781 42.84375 -31.21875 C 43.15625 -28.894531 43.3125 -26.242188 43.3125 -23.265625 C 43.3125 -19.828125 42.96875 -16.632812 42.28125 -13.6875 C 41.59375 -10.75 40.460938 -8.226562 38.890625 -6.125 C 37.328125 -4.03125 35.25 -2.367188 32.65625 -1.140625 C 30.0625 0.078125 26.890625 0.6875 23.140625 0.6875 C 20.316406 0.6875 17.679688 0.191406 15.234375 -0.796875 C 12.796875 -1.796875 10.695312 -3.15625 8.9375 -4.875 C 7.175781 -6.59375 5.78125 -8.632812 4.75 -11 C 3.71875 -13.363281 3.203125 -15.921875 3.203125 -18.671875 L 3.203125 -23.03125 L 14.890625 -23.03125 L 14.890625 -19.359375 C 14.890625 -17.222656 15.519531 -15.296875 16.78125 -13.578125 C 18.039062 -11.859375 20.160156 -11 23.140625 -11 C 25.128906 -11 26.675781 -11.285156 27.78125 -11.859375 C 28.894531 -12.429688 29.738281 -13.234375 30.3125 -14.265625 C 30.882812 -15.296875 31.242188 -16.570312 31.390625 -18.09375 C 31.546875 -19.625 31.625 -21.304688 31.625 -23.140625 C 31.625 -25.285156 31.546875 -27.046875 31.390625 -28.421875 C 31.242188 -29.796875 30.921875 -30.898438 30.421875 -31.734375 C 29.921875 -32.578125 29.234375 -33.265625 28.359375 -33.796875 C 27.484375 -34.335938 26.316406 -34.910156 24.859375 -35.515625 L 16.5 -38.953125 C 11.457031 -41.015625 8.078125 -43.742188 6.359375 -47.140625 C 4.640625 -50.546875 3.78125 -54.804688 3.78125 -59.921875 C 3.78125 -62.972656 4.195312 -65.875 5.03125 -68.625 C 5.875 -71.375 7.117188 -73.742188 8.765625 -75.734375 C 10.410156 -77.722656 12.492188 -79.304688 15.015625 -80.484375 C 17.535156 -81.671875 20.472656 -82.265625 23.828125 -82.265625 C 26.734375 -82.265625 29.390625 -81.726562 31.796875 -80.65625 C 34.203125 -79.59375 36.265625 -78.179688 37.984375 -76.421875 C 39.703125 -74.660156 41.019531 -72.691406 41.9375 -70.515625 C 42.851562 -68.335938 43.3125 -66.101562 43.3125 -63.8125 Z M 43.3125 -58.09375 "/></g></g></g><g fill="#000000" fill-opacity="1"><g transform="translate(189.925203, 125.792538)"><g/></g></g><g fill="#0895cd" fill-opacity="1"><g transform="translate(211.246108, 125.792538)"><g><path d="M 17.1875 -45.140625 L 23.828125 -45.140625 C 25.890625 -45.140625 27.53125 -45.425781 28.75 -46 C 29.976562 -46.570312 30.914062 -47.394531 31.5625 -48.46875 C 32.21875 -49.539062 32.660156 -50.859375 32.890625 -52.421875 C 33.117188 -53.984375 33.234375 -55.796875 33.234375 -57.859375 C 33.234375 -59.921875 33.117188 -61.734375 32.890625 -63.296875 C 32.660156 -64.867188 32.179688 -66.207031 31.453125 -67.3125 C 30.722656 -68.414062 29.707031 -69.234375 28.40625 -69.765625 C 27.113281 -70.304688 25.398438 -70.578125 23.265625 -70.578125 L 17.1875 -70.578125 Z M 5.5 -81.578125 L 24.296875 -81.578125 C 38.046875 -81.578125 44.921875 -73.59375 44.921875 -57.625 C 44.921875 -52.894531 44.175781 -48.828125 42.6875 -45.421875 C 41.195312 -42.023438 38.578125 -39.296875 34.828125 -37.234375 L 47.4375 0 L 35.0625 0 L 24.171875 -34.828125 L 17.1875 -34.828125 L 17.1875 0 L 5.5 0 Z M 5.5 -81.578125 "/></g></g></g><g fill="#0895cd" fill-opacity="1"><g transform="translate(260.056968, 125.792538)"><g><path d="M 15.46875 -24.640625 L 15.46875 -16.734375 C 15.46875 -14.898438 15.984375 -13.484375 17.015625 -12.484375 C 18.046875 -11.492188 19.441406 -11 21.203125 -11 C 23.410156 -11 24.878906 -11.644531 25.609375 -12.9375 C 26.335938 -14.238281 26.773438 -15.539062 26.921875 -16.84375 L 38.609375 -16.84375 C 38.609375 -14.394531 38.207031 -12.101562 37.40625 -9.96875 C 36.601562 -7.832031 35.441406 -6 33.921875 -4.46875 C 32.390625 -2.863281 30.550781 -1.601562 28.40625 -0.6875 C 26.269531 0.226562 23.867188 0.6875 21.203125 0.6875 C 17.609375 0.6875 14.507812 -0.0703125 11.90625 -1.59375 C 9.3125 -3.125 7.328125 -5.148438 5.953125 -7.671875 C 5.117188 -9.203125 4.546875 -10.957031 4.234375 -12.9375 C 3.929688 -14.925781 3.78125 -17.109375 3.78125 -19.484375 L 3.78125 -38.609375 C 3.78125 -40.984375 3.929688 -43.160156 4.234375 -45.140625 C 4.546875 -47.128906 5.117188 -48.890625 5.953125 -50.421875 C 7.328125 -52.941406 9.3125 -54.960938 11.90625 -56.484375 C 14.507812 -58.015625 17.609375 -58.78125 21.203125 -58.78125 C 23.867188 -58.78125 26.289062 -58.320312 28.46875 -57.40625 C 30.644531 -56.488281 32.476562 -55.207031 33.96875 -53.5625 C 35.457031 -51.925781 36.601562 -50 37.40625 -47.78125 C 38.207031 -45.5625 38.609375 -43.191406 38.609375 -40.671875 L 38.609375 -24.640625 Z M 15.46875 -33.796875 L 26.921875 -33.796875 L 26.921875 -40.453125 C 26.921875 -42.660156 26.40625 -44.316406 25.375 -45.421875 C 24.34375 -46.535156 22.953125 -47.09375 21.203125 -47.09375 C 19.441406 -47.09375 18.046875 -46.535156 17.015625 -45.421875 C 15.984375 -44.316406 15.46875 -42.660156 15.46875 -40.453125 Z M 15.46875 -33.796875 "/></g></g></g><g fill="#0895cd" fill-opacity="1"><g transform="translate(302.451376, 125.792538)"><g><path d="M 17.1875 -16.734375 C 17.1875 -14.898438 17.703125 -13.484375 18.734375 -12.484375 C 19.765625 -11.492188 21.160156 -11 22.921875 -11 C 25.128906 -11 26.597656 -11.644531 27.328125 -12.9375 C 28.054688 -14.238281 28.492188 -15.539062 28.640625 -16.84375 L 40.328125 -16.84375 C 40.328125 -14.394531 39.925781 -12.101562 39.125 -9.96875 C 38.320312 -7.832031 37.160156 -6 35.640625 -4.46875 C 34.109375 -2.863281 32.269531 -1.601562 30.125 -0.6875 C 27.988281 0.226562 25.585938 0.6875 22.921875 0.6875 C 19.328125 0.6875 16.226562 -0.0703125 13.625 -1.59375 C 11.03125 -3.125 9.046875 -5.148438 7.671875 -7.671875 C 6.835938 -9.203125 6.265625 -10.957031 5.953125 -12.9375 C 5.648438 -14.925781 5.5 -17.109375 5.5 -19.484375 L 5.5 -38.609375 C 5.5 -40.984375 5.648438 -43.160156 5.953125 -45.140625 C 6.265625 -47.128906 6.835938 -48.890625 7.671875 -50.421875 C 9.046875 -52.941406 11.03125 -54.960938 13.625 -56.484375 C 16.226562 -58.015625 19.328125 -58.78125 22.921875 -58.78125 C 25.585938 -58.78125 28.007812 -58.320312 30.1875 -57.40625 C 32.363281 -56.488281 34.195312 -55.207031 35.6875 -53.5625 C 37.175781 -51.925781 38.320312 -49.960938 39.125 -47.671875 C 39.925781 -45.378906 40.328125 -42.894531 40.328125 -40.21875 L 28.640625 -40.21875 C 28.640625 -42.582031 28.125 -44.316406 27.09375 -45.421875 C 26.0625 -46.535156 24.671875 -47.09375 22.921875 -47.09375 C 21.160156 -47.09375 19.765625 -46.535156 18.734375 -45.421875 C 17.703125 -44.316406 17.1875 -42.660156 17.1875 -40.453125 Z M 17.1875 -16.734375 "/></g></g></g><g fill="#0895cd" fill-opacity="1"><g transform="translate(344.846217, 125.792538)"><g/></g></g><g fill="#0895cd" fill-opacity="1"><g transform="translate(366.158, 125.792538)"><g/></g></g><g fill="#0895cd" fill-opacity="1"><g transform="translate(387.469783, 125.792538)"><g/></g></g><g fill="#0895cd" fill-opacity="1"><g transform="translate(408.78558, 125.792538)"><g><path d="M 4.8125 -58.09375 L 16.5 -58.09375 L 16.5 -51.90625 C 18.863281 -54.039062 21.191406 -55.71875 23.484375 -56.9375 C 25.773438 -58.164062 28.601562 -58.78125 31.96875 -58.78125 L 31.96875 -46.40625 C 30.820312 -46.863281 29.640625 -47.09375 28.421875 -47.09375 C 27.191406 -47.09375 25.867188 -46.878906 24.453125 -46.453125 C 23.046875 -46.035156 21.75 -45.332031 20.5625 -44.34375 C 19.382812 -43.351562 18.410156 -42.054688 17.640625 -40.453125 C 16.878906 -38.847656 16.5 -36.859375 16.5 -34.484375 L 16.5 0 L 4.8125 0 Z M 4.8125 -58.09375 "/></g></g></g><g fill="#0895cd" fill-opacity="1"><g transform="translate(440.638669, 125.792538)"><g><path d="M 16.5 -18.90625 C 16.5 -16.539062 16.957031 -14.628906 17.875 -13.171875 C 18.789062 -11.722656 20.242188 -11 22.234375 -11 C 23.984375 -11 25.394531 -11.664062 26.46875 -13 C 27.539062 -14.34375 28.078125 -16.082031 28.078125 -18.21875 L 28.078125 -40.796875 C 28.078125 -42.628906 27.519531 -44.132812 26.40625 -45.3125 C 25.300781 -46.5 23.910156 -47.09375 22.234375 -47.09375 C 20.015625 -47.09375 18.503906 -46.40625 17.703125 -45.03125 C 16.898438 -43.65625 16.5 -42.050781 16.5 -40.21875 Z M 28.078125 -5.265625 C 27.304688 -4.429688 26.578125 -3.648438 25.890625 -2.921875 C 25.203125 -2.191406 24.4375 -1.5625 23.59375 -1.03125 C 22.757812 -0.5 21.804688 -0.0820312 20.734375 0.21875 C 19.671875 0.53125 18.410156 0.6875 16.953125 0.6875 C 12.140625 0.6875 8.742188 -1.144531 6.765625 -4.8125 C 6.078125 -6.113281 5.578125 -7.71875 5.265625 -9.625 C 4.960938 -11.53125 4.8125 -14.085938 4.8125 -17.296875 L 4.8125 -39.421875 C 4.8125 -43.617188 4.925781 -46.707031 5.15625 -48.6875 C 5.382812 -50.675781 5.878906 -52.285156 6.640625 -53.515625 C 7.640625 -55.035156 8.921875 -56.289062 10.484375 -57.28125 C 12.046875 -58.28125 14.242188 -58.78125 17.078125 -58.78125 C 19.367188 -58.78125 21.410156 -58.265625 23.203125 -57.234375 C 24.992188 -56.203125 26.539062 -54.734375 27.84375 -52.828125 L 28.078125 -52.828125 L 28.078125 -81.578125 L 39.765625 -81.578125 L 39.765625 0 L 28.078125 0 Z M 28.078125 -5.265625 "/></g></g></g><path fill="#f44336" d="M 388.214844 99.039062 C 388.214844 99.734375 388.148438 100.425781 388.011719 101.109375 C 387.875 101.792969 387.675781 102.457031 387.40625 103.101562 C 387.140625 103.742188 386.8125 104.355469 386.425781 104.933594 C 386.039062 105.515625 385.601562 106.050781 385.105469 106.542969 C 384.613281 107.035156 384.078125 107.476562 383.5 107.863281 C 382.917969 108.25 382.308594 108.578125 381.664062 108.84375 C 381.019531 109.113281 380.355469 109.3125 379.671875 109.449219 C 378.988281 109.585938 378.296875 109.652344 377.601562 109.652344 C 376.902344 109.652344 376.214844 109.585938 375.527344 109.449219 C 374.84375 109.3125 374.183594 109.113281 373.539062 108.84375 C 372.894531 108.578125 372.28125 108.25 371.703125 107.863281 C 371.121094 107.476562 370.585938 107.035156 370.09375 106.542969 C 369.601562 106.050781 369.160156 105.515625 368.773438 104.933594 C 368.386719 104.355469 368.058594 103.742188 367.792969 103.101562 C 367.527344 102.457031 367.324219 101.792969 367.1875 101.109375 C 367.050781 100.425781 366.984375 99.734375 366.984375 99.039062 C 366.984375 98.339844 367.050781 97.648438 367.1875 96.964844 C 367.324219 96.28125 367.527344 95.617188 367.792969 94.976562 C 368.058594 94.332031 368.386719 93.71875 368.773438 93.140625 C 369.160156 92.558594 369.601562 92.023438 370.09375 91.53125 C 370.585938 91.039062 371.121094 90.597656 371.703125 90.210938 C 372.28125 89.824219 372.894531 89.496094 373.539062 89.230469 C 374.183594 88.964844 374.84375 88.761719 375.527344 88.625 C 376.214844 88.488281 376.902344 88.421875 377.601562 88.421875 C 378.296875 88.421875 378.988281 88.488281 379.671875 88.625 C 380.355469 88.761719 381.019531 88.964844 381.664062 89.230469 C 382.308594 89.496094 382.917969 89.824219 383.5 90.210938 C 384.078125 90.597656 384.613281 91.039062 385.105469 91.53125 C 385.601562 92.023438 386.039062 92.558594 386.425781 93.140625 C 386.8125 93.71875 387.140625 94.332031 387.40625 94.976562 C 387.675781 95.617188 387.875 96.28125 388.011719 96.964844 C 388.148438 97.648438 388.214844 98.339844 388.214844 99.039062 Z M 388.214844 99.039062 " fill-opacity="1" fill-rule="nonzero"/><g clip-path="url(#fc5cd8175e)"><path fill="#0895cd" d="M 351.058594 91.960938 C 350.824219 91.960938 350.601562 91.914062 350.382812 91.824219 C 350.167969 91.734375 349.976562 91.609375 349.808594 91.441406 C 349.644531 91.277344 349.515625 91.085938 349.425781 90.867188 C 349.335938 90.652344 349.292969 90.425781 349.292969 90.191406 L 349.292969 72.496094 C 349.292969 72.261719 349.335938 72.039062 349.425781 71.820312 C 349.515625 71.605469 349.644531 71.414062 349.808594 71.246094 C 349.976562 71.082031 350.167969 70.953125 350.382812 70.863281 C 350.601562 70.773438 350.824219 70.726562 351.058594 70.726562 L 368.753906 70.726562 C 368.988281 70.726562 369.214844 70.773438 369.429688 70.863281 C 369.648438 70.953125 369.839844 71.082031 370.003906 71.246094 C 370.171875 71.414062 370.296875 71.605469 370.386719 71.820312 C 370.476562 72.039062 370.523438 72.261719 370.523438 72.496094 C 370.523438 72.730469 370.476562 72.957031 370.386719 73.175781 C 370.296875 73.390625 370.171875 73.582031 370.003906 73.75 C 369.839844 73.914062 369.648438 74.042969 369.429688 74.132812 C 369.214844 74.222656 368.988281 74.265625 368.753906 74.265625 L 352.828125 74.265625 L 352.828125 90.191406 C 352.828125 90.425781 352.785156 90.652344 352.695312 90.867188 C 352.605469 91.085938 352.476562 91.277344 352.3125 91.441406 C 352.144531 91.609375 351.953125 91.734375 351.738281 91.824219 C 351.519531 91.914062 351.296875 91.960938 351.058594 91.960938 Z M 351.058594 91.960938 " fill-opacity="1" fill-rule="nonzero"/></g><g clip-path="url(#7b0a034053)"><path fill="#0895cd" d="M 404.140625 91.960938 C 403.90625 91.960938 403.679688 91.914062 403.464844 91.824219 C 403.246094 91.734375 403.054688 91.609375 402.890625 91.441406 C 402.722656 91.277344 402.59375 91.085938 402.503906 90.867188 C 402.414062 90.652344 402.371094 90.425781 402.371094 90.191406 L 402.371094 74.265625 L 386.445312 74.265625 C 386.210938 74.265625 385.988281 74.222656 385.769531 74.132812 C 385.554688 74.042969 385.363281 73.914062 385.195312 73.75 C 385.03125 73.582031 384.902344 73.390625 384.8125 73.175781 C 384.722656 72.957031 384.675781 72.730469 384.675781 72.496094 C 384.675781 72.261719 384.722656 72.039062 384.8125 71.820312 C 384.902344 71.605469 385.03125 71.414062 385.195312 71.246094 C 385.363281 71.082031 385.554688 70.953125 385.769531 70.863281 C 385.988281 70.773438 386.210938 70.726562 386.445312 70.726562 L 404.140625 70.726562 C 404.375 70.726562 404.601562 70.773438 404.816406 70.863281 C 405.035156 70.953125 405.226562 71.082031 405.390625 71.246094 C 405.558594 71.414062 405.683594 71.605469 405.773438 71.820312 C 405.863281 72.039062 405.910156 72.261719 405.910156 72.496094 L 405.910156 90.191406 C 405.910156 90.425781 405.863281 90.652344 405.773438 90.867188 C 405.683594 91.085938 405.558594 91.277344 405.390625 91.441406 C 405.226562 91.609375 405.035156 91.734375 404.816406 91.824219 C 404.601562 91.914062 404.375 91.960938 404.140625 91.960938 Z M 404.140625 91.960938 " fill-opacity="1" fill-rule="nonzero"/></g><g clip-path="url(#91fbba462e)"><path fill="#0895cd" d="M 368.753906 127.347656 L 351.058594 127.347656 C 350.824219 127.347656 350.601562 127.300781 350.382812 127.210938 C 350.167969 127.121094 349.976562 126.996094 349.808594 126.828125 C 349.644531 126.664062 349.515625 126.472656 349.425781 126.253906 C 349.335938 126.039062 349.292969 125.8125 349.292969 125.578125 L 349.292969 107.882812 C 349.292969 107.648438 349.335938 107.425781 349.425781 107.207031 C 349.515625 106.992188 349.644531 106.800781 349.808594 106.632812 C 349.976562 106.46875 350.167969 106.339844 350.382812 106.25 C 350.601562 106.160156 350.824219 106.113281 351.058594 106.113281 C 351.296875 106.113281 351.519531 106.160156 351.738281 106.25 C 351.953125 106.339844 352.144531 106.46875 352.3125 106.632812 C 352.476562 106.800781 352.605469 106.992188 352.695312 107.207031 C 352.785156 107.425781 352.828125 107.648438 352.828125 107.882812 L 352.828125 123.808594 L 368.753906 123.808594 C 368.988281 123.808594 369.214844 123.851562 369.429688 123.941406 C 369.648438 124.03125 369.839844 124.160156 370.003906 124.328125 C 370.171875 124.492188 370.296875 124.683594 370.386719 124.898438 C 370.476562 125.117188 370.523438 125.34375 370.523438 125.578125 C 370.523438 125.8125 370.476562 126.039062 370.386719 126.253906 C 370.296875 126.472656 370.171875 126.664062 370.003906 126.828125 C 369.839844 126.996094 369.648438 127.121094 369.429688 127.210938 C 369.214844 127.300781 368.988281 127.347656 368.753906 127.347656 Z M 368.753906 127.347656 " fill-opacity="1" fill-rule="nonzero"/></g><g clip-path="url(#ac5e43ee39)"><path fill="#0895cd" d="M 404.140625 127.347656 L 386.445312 127.347656 C 386.210938 127.347656 385.988281 127.300781 385.769531 127.210938 C 385.554688 127.121094 385.363281 126.996094 385.195312 126.828125 C 385.03125 126.664062 384.902344 126.472656 384.8125 126.253906 C 384.722656 126.039062 384.675781 125.8125 384.675781 125.578125 C 384.675781 125.34375 384.722656 125.117188 384.8125 124.898438 C 384.902344 124.683594 385.03125 124.492188 385.195312 124.328125 C 385.363281 124.160156 385.554688 124.03125 385.769531 123.941406 C 385.988281 123.851562 386.210938 123.808594 386.445312 123.808594 L 402.371094 123.808594 L 402.371094 107.882812 C 402.371094 107.648438 402.414062 107.425781 402.503906 107.207031 C 402.59375 106.992188 402.722656 106.800781 402.890625 106.632812 C 403.054688 106.46875 403.246094 106.339844 403.464844 106.25 C 403.679688 106.160156 403.90625 106.113281 404.140625 106.113281 C 404.375 106.113281 404.601562 106.160156 404.816406 106.25 C 405.035156 106.339844 405.226562 106.46875 405.390625 106.632812 C 405.558594 106.800781 405.683594 106.992188 405.773438 107.207031 C 405.863281 107.425781 405.910156 107.648438 405.910156 107.882812 L 405.910156 125.578125 C 405.910156 125.8125 405.863281 126.039062 405.773438 126.253906 C 405.683594 126.472656 405.558594 126.664062 405.390625 126.828125 C 405.226562 126.996094 405.035156 127.121094 404.816406 127.210938 C 404.601562 127.300781 404.375 127.347656 404.140625 127.347656 Z M 404.140625 127.347656 " fill-opacity="1" fill-rule="nonzero"/></g></svg>