<svg xmlns="http://www.w3.org/2000/svg" xmlns:xlink="http://www.w3.org/1999/xlink" width="708" zoomAndPan="magnify" viewBox="0 0 531 206.249992" height="275" preserveAspectRatio="xMidYMid meet" version="1.0"><defs><g/><clipPath id="69d23cc1d1"><path d="M 389.371094 68.085938 L 450.648438 68.085938 L 450.648438 124.703125 L 389.371094 124.703125 Z M 389.371094 68.085938 " clip-rule="nonzero"/></clipPath><clipPath id="6cb92ecb0c"><path d="M 407.300781 83.820312 L 432.710938 83.820312 L 432.710938 109 L 407.300781 109 Z M 407.300781 83.820312 " clip-rule="nonzero"/></clipPath></defs><g fill="#09487e" fill-opacity="1"><g transform="translate(41.426149, 125.792538)"><g><path d="M 5.5 -81.578125 L 22.796875 -81.578125 C 29.441406 -81.578125 34.519531 -79.722656 38.03125 -76.015625 C 41.550781 -72.316406 43.3125 -67.144531 43.3125 -60.5 L 43.3125 -22.34375 C 43.3125 -14.707031 41.457031 -9.070312 37.75 -5.4375 C 34.050781 -1.8125 28.722656 0 21.765625 0 L 5.5 0 Z M 17.1875 -11 L 22.578125 -11 C 25.859375 -11 28.1875 -11.816406 29.5625 -13.453125 C 30.9375 -15.097656 31.625 -17.679688 31.625 -21.203125 L 31.625 -60.5 C 31.625 -63.707031 30.972656 -66.1875 29.671875 -67.9375 C 28.378906 -69.695312 26.015625 -70.578125 22.578125 -70.578125 L 17.1875 -70.578125 Z M 17.1875 -11 "/></g></g></g><g fill="#09487e" fill-opacity="1"><g transform="translate(90.237009, 125.792538)"><g><path d="M 5.5 -81.578125 L 22.796875 -81.578125 C 29.441406 -81.578125 34.519531 -79.722656 38.03125 -76.015625 C 41.550781 -72.316406 43.3125 -67.144531 43.3125 -60.5 L 43.3125 -22.34375 C 43.3125 -14.707031 41.457031 -9.070312 37.75 -5.4375 C 34.050781 -1.8125 28.722656 0 21.765625 0 L 5.5 0 Z M 17.1875 -11 L 22.578125 -11 C 25.859375 -11 28.1875 -11.816406 29.5625 -13.453125 C 30.9375 -15.097656 31.625 -17.679688 31.625 -21.203125 L 31.625 -60.5 C 31.625 -63.707031 30.972656 -66.1875 29.671875 -67.9375 C 28.378906 -69.695312 26.015625 -70.578125 22.578125 -70.578125 L 17.1875 -70.578125 Z M 17.1875 -11 "/></g></g></g><g fill="#09487e" fill-opacity="1"><g transform="translate(139.047868, 125.792538)"><g><path d="M 43.3125 -58.09375 L 31.625 -58.09375 L 31.625 -60.71875 C 31.625 -63.394531 30.992188 -65.707031 29.734375 -67.65625 C 28.472656 -69.601562 26.351562 -70.578125 23.375 -70.578125 C 21.769531 -70.578125 20.453125 -70.269531 19.421875 -69.65625 C 18.390625 -69.050781 17.585938 -68.269531 17.015625 -67.3125 C 16.441406 -66.351562 16.039062 -65.242188 15.8125 -63.984375 C 15.582031 -62.722656 15.46875 -61.40625 15.46875 -60.03125 C 15.46875 -58.425781 15.523438 -57.070312 15.640625 -55.96875 C 15.753906 -54.863281 16.039062 -53.910156 16.5 -53.109375 C 16.957031 -52.304688 17.625 -51.597656 18.5 -50.984375 C 19.382812 -50.378906 20.585938 -49.769531 22.109375 -49.15625 L 31.046875 -45.609375 C 33.648438 -44.609375 35.753906 -43.441406 37.359375 -42.109375 C 38.960938 -40.773438 40.203125 -39.207031 41.078125 -37.40625 C 41.953125 -35.613281 42.539062 -33.550781 42.84375 -31.21875 C 43.15625 -28.894531 43.3125 -26.242188 43.3125 -23.265625 C 43.3125 -19.828125 42.96875 -16.632812 42.28125 -13.6875 C 41.59375 -10.75 40.460938 -8.226562 38.890625 -6.125 C 37.328125 -4.03125 35.25 -2.367188 32.65625 -1.140625 C 30.0625 0.078125 26.890625 0.6875 23.140625 0.6875 C 20.316406 0.6875 17.679688 0.191406 15.234375 -0.796875 C 12.796875 -1.796875 10.695312 -3.15625 8.9375 -4.875 C 7.175781 -6.59375 5.78125 -8.632812 4.75 -11 C 3.71875 -13.363281 3.203125 -15.921875 3.203125 -18.671875 L 3.203125 -23.03125 L 14.890625 -23.03125 L 14.890625 -19.359375 C 14.890625 -17.222656 15.519531 -15.296875 16.78125 -13.578125 C 18.039062 -11.859375 20.160156 -11 23.140625 -11 C 25.128906 -11 26.675781 -11.285156 27.78125 -11.859375 C 28.894531 -12.429688 29.738281 -13.234375 30.3125 -14.265625 C 30.882812 -15.296875 31.242188 -16.570312 31.390625 -18.09375 C 31.546875 -19.625 31.625 -21.304688 31.625 -23.140625 C 31.625 -25.285156 31.546875 -27.046875 31.390625 -28.421875 C 31.242188 -29.796875 30.921875 -30.898438 30.421875 -31.734375 C 29.921875 -32.578125 29.234375 -33.265625 28.359375 -33.796875 C 27.484375 -34.335938 26.316406 -34.910156 24.859375 -35.515625 L 16.5 -38.953125 C 11.457031 -41.015625 8.078125 -43.742188 6.359375 -47.140625 C 4.640625 -50.546875 3.78125 -54.804688 3.78125 -59.921875 C 3.78125 -62.972656 4.195312 -65.875 5.03125 -68.625 C 5.875 -71.375 7.117188 -73.742188 8.765625 -75.734375 C 10.410156 -77.722656 12.492188 -79.304688 15.015625 -80.484375 C 17.535156 -81.671875 20.472656 -82.265625 23.828125 -82.265625 C 26.734375 -82.265625 29.390625 -81.726562 31.796875 -80.65625 C 34.203125 -79.59375 36.265625 -78.179688 37.984375 -76.421875 C 39.703125 -74.660156 41.019531 -72.691406 41.9375 -70.515625 C 42.851562 -68.335938 43.3125 -66.101562 43.3125 -63.8125 Z M 43.3125 -58.09375 "/></g></g></g><g fill="#000000" fill-opacity="1"><g transform="translate(185.569951, 125.792538)"><g/></g></g><g fill="#000000" fill-opacity="1"><g transform="translate(206.881734, 125.792538)"><g/></g></g><g fill="#0895cd" fill-opacity="1"><g transform="translate(228.200081, 125.792538)"><g><path d="M 17.1875 -45.140625 L 23.828125 -45.140625 C 25.890625 -45.140625 27.53125 -45.425781 28.75 -46 C 29.976562 -46.570312 30.914062 -47.394531 31.5625 -48.46875 C 32.21875 -49.539062 32.660156 -50.859375 32.890625 -52.421875 C 33.117188 -53.984375 33.234375 -55.796875 33.234375 -57.859375 C 33.234375 -59.921875 33.117188 -61.734375 32.890625 -63.296875 C 32.660156 -64.867188 32.179688 -66.207031 31.453125 -67.3125 C 30.722656 -68.414062 29.707031 -69.234375 28.40625 -69.765625 C 27.113281 -70.304688 25.398438 -70.578125 23.265625 -70.578125 L 17.1875 -70.578125 Z M 5.5 -81.578125 L 24.296875 -81.578125 C 38.046875 -81.578125 44.921875 -73.59375 44.921875 -57.625 C 44.921875 -52.894531 44.175781 -48.828125 42.6875 -45.421875 C 41.195312 -42.023438 38.578125 -39.296875 34.828125 -37.234375 L 47.4375 0 L 35.0625 0 L 24.171875 -34.828125 L 17.1875 -34.828125 L 17.1875 0 L 5.5 0 Z M 5.5 -81.578125 "/></g></g></g><g fill="#0895cd" fill-opacity="1"><g transform="translate(277.010941, 125.792538)"><g><path d="M 15.46875 -24.640625 L 15.46875 -16.734375 C 15.46875 -14.898438 15.984375 -13.484375 17.015625 -12.484375 C 18.046875 -11.492188 19.441406 -11 21.203125 -11 C 23.410156 -11 24.878906 -11.644531 25.609375 -12.9375 C 26.335938 -14.238281 26.773438 -15.539062 26.921875 -16.84375 L 38.609375 -16.84375 C 38.609375 -14.394531 38.207031 -12.101562 37.40625 -9.96875 C 36.601562 -7.832031 35.441406 -6 33.921875 -4.46875 C 32.390625 -2.863281 30.550781 -1.601562 28.40625 -0.6875 C 26.269531 0.226562 23.867188 0.6875 21.203125 0.6875 C 17.609375 0.6875 14.507812 -0.0703125 11.90625 -1.59375 C 9.3125 -3.125 7.328125 -5.148438 5.953125 -7.671875 C 5.117188 -9.203125 4.546875 -10.957031 4.234375 -12.9375 C 3.929688 -14.925781 3.78125 -17.109375 3.78125 -19.484375 L 3.78125 -38.609375 C 3.78125 -40.984375 3.929688 -43.160156 4.234375 -45.140625 C 4.546875 -47.128906 5.117188 -48.890625 5.953125 -50.421875 C 7.328125 -52.941406 9.3125 -54.960938 11.90625 -56.484375 C 14.507812 -58.015625 17.609375 -58.78125 21.203125 -58.78125 C 23.867188 -58.78125 26.289062 -58.320312 28.46875 -57.40625 C 30.644531 -56.488281 32.476562 -55.207031 33.96875 -53.5625 C 35.457031 -51.925781 36.601562 -50 37.40625 -47.78125 C 38.207031 -45.5625 38.609375 -43.191406 38.609375 -40.671875 L 38.609375 -24.640625 Z M 15.46875 -33.796875 L 26.921875 -33.796875 L 26.921875 -40.453125 C 26.921875 -42.660156 26.40625 -44.316406 25.375 -45.421875 C 24.34375 -46.535156 22.953125 -47.09375 21.203125 -47.09375 C 19.441406 -47.09375 18.046875 -46.535156 17.015625 -45.421875 C 15.984375 -44.316406 15.46875 -42.660156 15.46875 -40.453125 Z M 15.46875 -33.796875 "/></g></g></g><g fill="#0895cd" fill-opacity="1"><g transform="translate(319.405348, 125.792538)"><g><path d="M 4.8125 -58.09375 L 16.5 -58.09375 L 16.5 -52.828125 C 17.945312 -54.503906 19.4375 -55.914062 20.96875 -57.0625 C 22.5 -58.207031 24.710938 -58.78125 27.609375 -58.78125 C 32.421875 -58.78125 35.820312 -56.945312 37.8125 -53.28125 C 38.5 -51.976562 38.992188 -50.375 39.296875 -48.46875 C 39.609375 -46.5625 39.765625 -44.003906 39.765625 -40.796875 L 39.765625 -18.671875 C 39.765625 -14.472656 39.648438 -11.378906 39.421875 -9.390625 C 39.191406 -7.410156 38.691406 -5.804688 37.921875 -4.578125 C 36.929688 -3.054688 35.648438 -1.796875 34.078125 -0.796875 C 32.515625 0.191406 30.320312 0.6875 27.5 0.6875 C 25.207031 0.6875 23.160156 0.171875 21.359375 -0.859375 C 19.566406 -1.890625 18.023438 -3.359375 16.734375 -5.265625 L 16.5 -5.265625 L 16.5 23.484375 L 4.8125 23.484375 Z M 28.078125 -39.1875 C 28.078125 -41.550781 27.617188 -43.457031 26.703125 -44.90625 C 25.785156 -46.363281 24.332031 -47.09375 22.34375 -47.09375 C 20.582031 -47.09375 19.164062 -46.421875 18.09375 -45.078125 C 17.03125 -43.742188 16.5 -42.007812 16.5 -39.875 L 16.5 -17.296875 C 16.5 -15.460938 17.050781 -13.953125 18.15625 -12.765625 C 19.269531 -11.585938 20.664062 -11 22.34375 -11 C 24.5625 -11 26.070312 -11.6875 26.875 -13.0625 C 27.675781 -14.4375 28.078125 -16.039062 28.078125 -17.875 Z M 28.078125 -39.1875 "/></g></g></g><g fill="#0895cd" fill-opacity="1"><g transform="translate(363.976769, 125.792538)"><g><path d="M 4.125 -81.578125 L 15.8125 -81.578125 L 15.8125 -16.390625 C 15.8125 -14.171875 16.210938 -12.660156 17.015625 -11.859375 C 17.816406 -11.054688 19.328125 -10.539062 21.546875 -10.3125 L 21.546875 0.6875 C 18.867188 0.6875 16.441406 0.472656 14.265625 0.046875 C 12.085938 -0.367188 10.253906 -1.164062 8.765625 -2.34375 C 7.273438 -3.53125 6.128906 -5.191406 5.328125 -7.328125 C 4.523438 -9.472656 4.125 -12.222656 4.125 -15.578125 Z M 4.125 -81.578125 "/></g></g></g><g fill="#0895cd" fill-opacity="1"><g transform="translate(385.292884, 125.792538)"><g/></g></g><g fill="#0895cd" fill-opacity="1"><g transform="translate(406.604668, 125.792538)"><g/></g></g><g fill="#0895cd" fill-opacity="1"><g transform="translate(427.916451, 125.792538)"><g/></g></g><g fill="#0895cd" fill-opacity="1"><g transform="translate(449.232248, 125.792538)"><g><path d="M 12.265625 -58.09375 L 20.28125 -21.890625 L 20.515625 -21.890625 L 28.421875 -58.09375 L 40.453125 -58.09375 L 23.71875 10.078125 C 23.101562 12.679688 22.242188 14.84375 21.140625 16.5625 C 20.035156 18.28125 18.753906 19.65625 17.296875 20.6875 C 15.847656 21.71875 14.300781 22.441406 12.65625 22.859375 C 11.019531 23.273438 9.320312 23.484375 7.5625 23.484375 L 4.359375 23.484375 L 4.359375 12.484375 L 6.984375 12.484375 C 8.128906 12.484375 9.125 12.332031 9.96875 12.03125 C 10.8125 11.726562 11.554688 11.0625 12.203125 10.03125 C 12.847656 9 13.4375 7.46875 13.96875 5.4375 C 14.507812 3.414062 15.125 0.722656 15.8125 -2.640625 L -0.109375 -58.09375 Z M 12.265625 -58.09375 "/></g></g></g><g clip-path="url(#69d23cc1d1)"><path fill="#0895cd" d="M 445.535156 93.351562 L 446.363281 92.046875 C 447 91.042969 448.332031 90.742188 449.339844 91.378906 C 450.347656 92.019531 450.648438 93.351562 450.011719 94.359375 L 445.449219 101.558594 C 445.070312 102.15625 444.421875 102.535156 443.710938 102.5625 C 443.003906 102.589844 442.324219 102.269531 441.898438 101.699219 L 436.5 94.5 C 436.207031 94.113281 436.066406 93.65625 436.066406 93.207031 C 436.066406 92.550781 436.367188 91.902344 436.933594 91.476562 C 437.886719 90.761719 439.238281 90.953125 439.957031 91.90625 L 441.214844 93.589844 C 439.820312 81.6875 429.675781 72.421875 417.40625 72.421875 C 404.1875 72.421875 393.4375 83.175781 393.4375 96.394531 C 393.4375 109.613281 404.1875 120.367188 417.40625 120.367188 C 422.714844 120.367188 427.738281 118.671875 431.945312 115.460938 C 432.890625 114.738281 434.246094 114.917969 434.972656 115.867188 C 435.695312 116.8125 435.511719 118.171875 434.566406 118.894531 C 429.601562 122.683594 423.667969 124.6875 417.40625 124.6875 C 401.808594 124.6875 389.117188 111.996094 389.117188 96.394531 C 389.117188 80.792969 401.808594 68.101562 417.40625 68.101562 C 431.980469 68.101562 444.011719 79.175781 445.535156 93.351562 " fill-opacity="1" fill-rule="nonzero"/></g><g clip-path="url(#6cb92ecb0c)"><path fill="#ffc001" d="M 431.359375 94.585938 L 410.308594 84.152344 C 409.671875 83.832031 408.910156 83.867188 408.304688 84.234375 C 407.695312 84.601562 407.324219 85.257812 407.324219 85.957031 L 407.324219 106.835938 C 407.324219 107.535156 407.695312 108.1875 408.304688 108.558594 C 408.632812 108.757812 409.007812 108.859375 409.386719 108.859375 C 409.703125 108.859375 410.019531 108.785156 410.3125 108.640625 L 431.359375 98.203125 C 432.050781 97.855469 432.492188 97.160156 432.492188 96.394531 C 432.492188 95.625 432.050781 94.933594 431.359375 94.585938 Z M 431.359375 94.585938 " fill-opacity="1" fill-rule="nonzero"/></g></svg>