<svg xmlns="http://www.w3.org/2000/svg" xmlns:xlink="http://www.w3.org/1999/xlink" width="443" zoomAndPan="magnify" viewBox="0 0 332.25 218.249992" height="291" preserveAspectRatio="xMidYMid meet" version="1.0"><defs><g/><clipPath id="7f9eae8fc8"><path d="M 99.5625 18.449219 L 134.292969 18.449219 L 134.292969 43.617188 L 99.5625 43.617188 Z M 99.5625 18.449219 " clip-rule="nonzero"/></clipPath><clipPath id="c5db457060"><path d="M 34.320312 37 L 93.714844 37 L 93.714844 80 L 34.320312 80 Z M 34.320312 37 " clip-rule="nonzero"/></clipPath><clipPath id="974b770642"><path d="M 55.394531 50.125 L 72.507812 50.125 L 72.507812 67.238281 L 55.394531 67.238281 Z M 55.394531 50.125 " clip-rule="nonzero"/></clipPath><clipPath id="722ebef00c"><path d="M 56.5 50.464844 L 71.597656 50.464844 L 71.597656 67.074219 L 56.5 67.074219 Z M 56.5 50.464844 " clip-rule="nonzero"/></clipPath><clipPath id="8ad75c8fa5"><path d="M 51.3125 37 L 93.59375 37 L 93.59375 46.019531 L 51.3125 46.019531 Z M 51.3125 37 " clip-rule="nonzero"/></clipPath><clipPath id="60ea3e28d0"><path d="M 71.929688 43.238281 L 93.574219 43.238281 L 93.574219 70.921875 L 71.929688 70.921875 Z M 71.929688 43.238281 " clip-rule="nonzero"/></clipPath><clipPath id="edfa3e6b03"><path d="M 66.292969 44.953125 L 81.898438 44.953125 L 81.898438 49.988281 L 66.292969 49.988281 Z M 66.292969 44.953125 " clip-rule="nonzero"/></clipPath><clipPath id="1b59c0540e"><path d="M 65.765625 66.511719 L 72.308594 66.511719 L 72.308594 72.046875 L 65.765625 72.046875 Z M 65.765625 66.511719 " clip-rule="nonzero"/></clipPath></defs><g fill="#09487e" fill-opacity="1"><g transform="translate(75.198144, 138.370352)"><g><path d="M 43.375 -58.171875 L 31.671875 -58.171875 L 31.671875 -60.8125 C 31.671875 -63.488281 31.039062 -65.800781 29.78125 -67.75 C 28.519531 -69.707031 26.394531 -70.6875 23.40625 -70.6875 C 21.800781 -70.6875 20.484375 -70.378906 19.453125 -69.765625 C 18.421875 -69.148438 17.617188 -68.363281 17.046875 -67.40625 C 16.472656 -66.457031 16.066406 -65.347656 15.828125 -64.078125 C 15.597656 -62.816406 15.484375 -61.5 15.484375 -60.125 C 15.484375 -58.519531 15.539062 -57.160156 15.65625 -56.046875 C 15.769531 -54.941406 16.054688 -53.988281 16.515625 -53.1875 C 16.984375 -52.382812 17.65625 -51.675781 18.53125 -51.0625 C 19.414062 -50.445312 20.617188 -49.835938 22.140625 -49.234375 L 31.09375 -45.671875 C 33.695312 -44.671875 35.800781 -43.5 37.40625 -42.15625 C 39.007812 -40.820312 40.25 -39.253906 41.125 -37.453125 C 42.007812 -35.660156 42.601562 -33.597656 42.90625 -31.265625 C 43.21875 -28.929688 43.375 -26.273438 43.375 -23.296875 C 43.375 -19.847656 43.03125 -16.648438 42.34375 -13.703125 C 41.65625 -10.765625 40.523438 -8.242188 38.953125 -6.140625 C 37.390625 -4.035156 35.304688 -2.367188 32.703125 -1.140625 C 30.097656 0.078125 26.921875 0.6875 23.171875 0.6875 C 20.347656 0.6875 17.710938 0.191406 15.265625 -0.796875 C 12.816406 -1.796875 10.710938 -3.15625 8.953125 -4.875 C 7.191406 -6.59375 5.796875 -8.640625 4.765625 -11.015625 C 3.734375 -13.390625 3.21875 -15.953125 3.21875 -18.703125 L 3.21875 -23.0625 L 14.921875 -23.0625 L 14.921875 -19.390625 C 14.921875 -17.253906 15.550781 -15.320312 16.8125 -13.59375 C 18.070312 -11.875 20.191406 -11.015625 23.171875 -11.015625 C 25.160156 -11.015625 26.707031 -11.300781 27.8125 -11.875 C 28.925781 -12.445312 29.769531 -13.25 30.34375 -14.28125 C 30.925781 -15.3125 31.289062 -16.59375 31.4375 -18.125 C 31.59375 -19.65625 31.671875 -21.335938 31.671875 -23.171875 C 31.671875 -25.316406 31.59375 -27.078125 31.4375 -28.453125 C 31.289062 -29.835938 30.96875 -30.945312 30.46875 -31.78125 C 29.96875 -32.625 29.273438 -33.3125 28.390625 -33.84375 C 27.515625 -34.382812 26.351562 -34.960938 24.90625 -35.578125 L 16.53125 -39.015625 C 11.476562 -41.078125 8.085938 -43.8125 6.359375 -47.21875 C 4.640625 -50.625 3.78125 -54.890625 3.78125 -60.015625 C 3.78125 -63.078125 4.203125 -65.984375 5.046875 -68.734375 C 5.890625 -71.484375 7.132812 -73.851562 8.78125 -75.84375 C 10.425781 -77.832031 12.507812 -79.421875 15.03125 -80.609375 C 17.550781 -81.796875 20.5 -82.390625 23.875 -82.390625 C 26.78125 -82.390625 29.4375 -81.851562 31.84375 -80.78125 C 34.25 -79.707031 36.3125 -78.289062 38.03125 -76.53125 C 39.757812 -74.78125 41.082031 -72.8125 42 -70.625 C 42.914062 -68.445312 43.375 -66.210938 43.375 -63.921875 Z M 43.375 -58.171875 "/></g></g></g><g fill="#09487e" fill-opacity="1"><g transform="translate(125.570257, 138.370352)"><g><path d="M 4.8125 -58.171875 L 16.53125 -58.171875 L 16.53125 -52.90625 C 17.976562 -54.582031 19.46875 -55.992188 21 -57.140625 C 22.53125 -58.285156 24.75 -58.859375 27.65625 -58.859375 C 32.476562 -58.859375 35.882812 -57.023438 37.875 -53.359375 C 38.5625 -52.054688 39.054688 -50.445312 39.359375 -48.53125 C 39.660156 -46.625 39.8125 -44.0625 39.8125 -40.84375 L 39.8125 -18.703125 C 39.8125 -14.492188 39.695312 -11.394531 39.46875 -9.40625 C 39.238281 -7.414062 38.742188 -5.8125 37.984375 -4.59375 C 36.984375 -3.0625 35.695312 -1.796875 34.125 -0.796875 C 32.5625 0.191406 30.367188 0.6875 27.546875 0.6875 C 25.242188 0.6875 23.191406 0.171875 21.390625 -0.859375 C 19.597656 -1.890625 18.050781 -3.363281 16.75 -5.28125 L 16.53125 -5.28125 L 16.53125 23.53125 L 4.8125 23.53125 Z M 28.109375 -39.25 C 28.109375 -41.613281 27.648438 -43.519531 26.734375 -44.96875 C 25.816406 -46.425781 24.363281 -47.15625 22.375 -47.15625 C 20.613281 -47.15625 19.195312 -46.484375 18.125 -45.140625 C 17.0625 -43.804688 16.53125 -42.070312 16.53125 -39.9375 L 16.53125 -17.328125 C 16.53125 -15.492188 17.082031 -13.984375 18.1875 -12.796875 C 19.300781 -11.609375 20.695312 -11.015625 22.375 -11.015625 C 24.59375 -11.015625 26.101562 -11.703125 26.90625 -13.078125 C 27.707031 -14.453125 28.109375 -16.0625 28.109375 -17.90625 Z M 28.109375 -39.25 "/></g></g></g><g fill="#09487e" fill-opacity="1"><g transform="translate(173.991745, 138.370352)"><g><path d="M 12.28125 -58.171875 L 20.3125 -21.921875 L 20.546875 -21.921875 L 28.453125 -58.171875 L 40.5 -58.171875 L 23.75 10.09375 C 23.132812 12.695312 22.269531 14.859375 21.15625 16.578125 C 20.050781 18.296875 18.769531 19.671875 17.3125 20.703125 C 15.863281 21.742188 14.316406 22.472656 12.671875 22.890625 C 11.035156 23.316406 9.335938 23.53125 7.578125 23.53125 L 4.359375 23.53125 L 4.359375 12.5 L 7 12.5 C 8.144531 12.5 9.140625 12.347656 9.984375 12.046875 C 10.828125 11.742188 11.570312 11.070312 12.21875 10.03125 C 12.875 9 13.46875 7.46875 14 5.4375 C 14.53125 3.414062 15.140625 0.722656 15.828125 -2.640625 L -0.109375 -58.171875 Z M 12.28125 -58.171875 "/></g></g></g><g fill="#09487e" fill-opacity="1"><g transform="translate(127.636596, 72.071803)"><g><path d="M 3.21875 -47.734375 L 23.59375 -47.734375 L 23.59375 -41.296875 L 10.0625 -41.296875 L 10.0625 -26.8125 L 21.859375 -26.8125 L 21.859375 -20.375 L 10.0625 -20.375 L 10.0625 0 L 3.21875 0 Z M 3.21875 -47.734375 "/></g></g></g><g fill="#09487e" fill-opacity="1"><g transform="translate(152.44603, 72.071803)"><g><path d="M 15.75 -3.484375 L 15.625 -3.484375 C 14.726562 -2.234375 13.820312 -1.269531 12.90625 -0.59375 C 11.988281 0.0703125 10.703125 0.40625 9.046875 0.40625 C 8.242188 0.40625 7.414062 0.28125 6.5625 0.03125 C 5.71875 -0.207031 4.925781 -0.648438 4.1875 -1.296875 C 3.445312 -1.953125 2.84375 -2.867188 2.375 -4.046875 C 1.90625 -5.234375 1.671875 -6.769531 1.671875 -8.65625 C 1.671875 -10.570312 1.828125 -12.253906 2.140625 -13.703125 C 2.453125 -15.160156 3.019531 -16.367188 3.84375 -17.328125 C 4.675781 -18.285156 5.785156 -19 7.171875 -19.46875 C 8.554688 -19.945312 10.320312 -20.1875 12.46875 -20.1875 C 12.957031 -20.1875 13.445312 -20.160156 13.9375 -20.109375 C 14.4375 -20.066406 15.039062 -20.023438 15.75 -19.984375 L 15.75 -23.53125 C 15.75 -24.695312 15.503906 -25.660156 15.015625 -26.421875 C 14.523438 -27.179688 13.632812 -27.5625 12.34375 -27.5625 C 11.445312 -27.5625 10.628906 -27.269531 9.890625 -26.6875 C 9.148438 -26.101562 8.671875 -25.253906 8.453125 -24.140625 L 1.8125 -24.140625 C 2.03125 -27.222656 3.054688 -29.679688 4.890625 -31.515625 C 5.785156 -32.410156 6.859375 -33.113281 8.109375 -33.625 C 9.359375 -34.132812 10.769531 -34.390625 12.34375 -34.390625 C 13.769531 -34.390625 15.109375 -34.164062 16.359375 -33.71875 C 17.609375 -33.269531 18.691406 -32.597656 19.609375 -31.703125 C 20.523438 -30.816406 21.25 -29.703125 21.78125 -28.359375 C 22.320312 -27.015625 22.59375 -25.453125 22.59375 -23.671875 L 22.59375 0 L 15.75 0 Z M 15.75 -14.609375 C 14.988281 -14.742188 14.363281 -14.8125 13.875 -14.8125 C 12.40625 -14.8125 11.144531 -14.460938 10.09375 -13.765625 C 9.039062 -13.078125 8.515625 -11.816406 8.515625 -9.984375 C 8.515625 -8.691406 8.828125 -7.640625 9.453125 -6.828125 C 10.078125 -6.023438 10.945312 -5.625 12.0625 -5.625 C 13.226562 -5.625 14.132812 -6.003906 14.78125 -6.765625 C 15.425781 -7.523438 15.75 -8.597656 15.75 -9.984375 Z M 15.75 -14.609375 "/></g></g></g><g fill="#09487e" fill-opacity="1"><g transform="translate(177.255464, 72.071803)"><g><path d="M 15.21875 -24.46875 C 15.175781 -25.632812 14.804688 -26.503906 14.109375 -27.078125 C 13.421875 -27.660156 12.628906 -27.953125 11.734375 -27.953125 C 10.660156 -27.953125 9.832031 -27.601562 9.25 -26.90625 C 8.664062 -26.21875 8.375 -25.429688 8.375 -24.546875 C 8.375 -23.910156 8.53125 -23.289062 8.84375 -22.6875 C 9.15625 -22.09375 9.960938 -21.546875 11.265625 -21.046875 L 15.28125 -19.4375 C 17.832031 -18.457031 19.585938 -17.117188 20.546875 -15.421875 C 21.503906 -13.722656 21.984375 -11.867188 21.984375 -9.859375 C 21.984375 -8.421875 21.726562 -7.085938 21.21875 -5.859375 C 20.707031 -4.628906 20.003906 -3.546875 19.109375 -2.609375 C 18.210938 -1.671875 17.140625 -0.929688 15.890625 -0.390625 C 14.640625 0.140625 13.273438 0.40625 11.796875 0.40625 C 10.453125 0.40625 9.175781 0.179688 7.96875 -0.265625 C 6.769531 -0.710938 5.710938 -1.359375 4.796875 -2.203125 C 3.878906 -3.054688 3.128906 -4.117188 2.546875 -5.390625 C 1.960938 -6.671875 1.648438 -8.160156 1.609375 -9.859375 L 8.046875 -9.859375 C 8.179688 -8.921875 8.503906 -8.046875 9.015625 -7.234375 C 9.523438 -6.429688 10.429688 -6.03125 11.734375 -6.03125 C 12.710938 -6.03125 13.59375 -6.351562 14.375 -7 C 15.164062 -7.65625 15.5625 -8.5625 15.5625 -9.71875 C 15.5625 -10.65625 15.3125 -11.457031 14.8125 -12.125 C 14.320312 -12.800781 13.429688 -13.382812 12.140625 -13.875 L 8.84375 -15.078125 C 6.695312 -15.890625 5.007812 -17.085938 3.78125 -18.671875 C 2.550781 -20.253906 1.9375 -22.1875 1.9375 -24.46875 C 1.9375 -25.90625 2.203125 -27.238281 2.734375 -28.46875 C 3.273438 -29.695312 4.003906 -30.742188 4.921875 -31.609375 C 5.835938 -32.484375 6.898438 -33.164062 8.109375 -33.65625 C 9.316406 -34.144531 10.613281 -34.390625 12 -34.390625 C 13.382812 -34.390625 14.671875 -34.132812 15.859375 -33.625 C 17.046875 -33.113281 18.0625 -32.421875 18.90625 -31.546875 C 19.757812 -30.671875 20.429688 -29.617188 20.921875 -28.390625 C 21.410156 -27.160156 21.65625 -25.851562 21.65625 -24.46875 Z M 15.21875 -24.46875 "/></g></g></g><g fill="#09487e" fill-opacity="1"><g transform="translate(200.857959, 72.071803)"><g><path d="M 2.8125 -44.3125 L 9.65625 -44.3125 L 9.65625 -34 L 13.875 -34 L 13.875 -28.625 L 9.65625 -28.625 L 9.65625 -9.78125 C 9.65625 -8.976562 9.734375 -8.351562 9.890625 -7.90625 C 10.046875 -7.457031 10.289062 -7.125 10.625 -6.90625 C 10.957031 -6.6875 11.390625 -6.550781 11.921875 -6.5 C 12.460938 -6.457031 13.113281 -6.4375 13.875 -6.4375 L 13.875 0 L 11.0625 0 C 9.5 0 8.191406 -0.242188 7.140625 -0.734375 C 6.085938 -1.222656 5.25 -1.847656 4.625 -2.609375 C 4 -3.367188 3.539062 -4.226562 3.25 -5.1875 C 2.957031 -6.15625 2.8125 -7.085938 2.8125 -7.984375 L 2.8125 -28.625 L -0.609375 -28.625 L -0.609375 -34 L 2.8125 -34 Z M 2.8125 -44.3125 "/></g></g></g><g fill="#000000" fill-opacity="1"><g transform="translate(214.545315, 72.071803)"><g/></g></g><g fill="#0895cd" fill-opacity="1"><g transform="translate(227.017863, 72.071803)"><g><path d="M 3.21875 -47.734375 L 13.34375 -47.734375 C 17.226562 -47.734375 20.195312 -46.648438 22.25 -44.484375 C 24.3125 -42.316406 25.34375 -39.289062 25.34375 -35.40625 L 25.34375 -13.078125 C 25.34375 -8.609375 24.257812 -5.3125 22.09375 -3.1875 C 19.925781 -1.0625 16.804688 0 12.734375 0 L 3.21875 0 Z M 10.0625 -6.4375 L 13.203125 -6.4375 C 15.128906 -6.4375 16.492188 -6.914062 17.296875 -7.875 C 18.097656 -8.832031 18.5 -10.34375 18.5 -12.40625 L 18.5 -35.40625 C 18.5 -37.28125 18.117188 -38.726562 17.359375 -39.75 C 16.597656 -40.78125 15.210938 -41.296875 13.203125 -41.296875 L 10.0625 -41.296875 Z M 10.0625 -6.4375 "/></g></g></g><g fill="#0895cd" fill-opacity="1"><g transform="translate(255.582241, 72.071803)"><g><path d="M 3.21875 -47.734375 L 13.34375 -47.734375 C 17.226562 -47.734375 20.195312 -46.648438 22.25 -44.484375 C 24.3125 -42.316406 25.34375 -39.289062 25.34375 -35.40625 L 25.34375 -13.078125 C 25.34375 -8.609375 24.257812 -5.3125 22.09375 -3.1875 C 19.925781 -1.0625 16.804688 0 12.734375 0 L 3.21875 0 Z M 10.0625 -6.4375 L 13.203125 -6.4375 C 15.128906 -6.4375 16.492188 -6.914062 17.296875 -7.875 C 18.097656 -8.832031 18.5 -10.34375 18.5 -12.40625 L 18.5 -35.40625 C 18.5 -37.28125 18.117188 -38.726562 17.359375 -39.75 C 16.597656 -40.78125 15.210938 -41.296875 13.203125 -41.296875 L 10.0625 -41.296875 Z M 10.0625 -6.4375 "/></g></g></g><g fill="#0895cd" fill-opacity="1"><g transform="translate(284.146619, 72.071803)"><g><path d="M 25.34375 -34 L 18.5 -34 L 18.5 -35.53125 C 18.5 -37.09375 18.128906 -38.441406 17.390625 -39.578125 C 16.660156 -40.722656 15.421875 -41.296875 13.671875 -41.296875 C 12.734375 -41.296875 11.960938 -41.117188 11.359375 -40.765625 C 10.753906 -40.410156 10.285156 -39.953125 9.953125 -39.390625 C 9.617188 -38.828125 9.382812 -38.175781 9.25 -37.4375 C 9.113281 -36.707031 9.046875 -35.9375 9.046875 -35.125 C 9.046875 -34.1875 9.078125 -33.394531 9.140625 -32.75 C 9.210938 -32.101562 9.382812 -31.546875 9.65625 -31.078125 C 9.925781 -30.609375 10.316406 -30.191406 10.828125 -29.828125 C 11.335938 -29.472656 12.039062 -29.117188 12.9375 -28.765625 L 18.171875 -26.6875 C 19.691406 -26.101562 20.921875 -25.421875 21.859375 -24.640625 C 22.796875 -23.859375 23.519531 -22.941406 24.03125 -21.890625 C 24.550781 -20.835938 24.898438 -19.628906 25.078125 -18.265625 C 25.253906 -16.898438 25.34375 -15.347656 25.34375 -13.609375 C 25.34375 -11.597656 25.140625 -9.734375 24.734375 -8.015625 C 24.335938 -6.296875 23.679688 -4.820312 22.765625 -3.59375 C 21.847656 -2.363281 20.628906 -1.390625 19.109375 -0.671875 C 17.585938 0.046875 15.734375 0.40625 13.546875 0.40625 C 11.890625 0.40625 10.34375 0.113281 8.90625 -0.46875 C 7.476562 -1.050781 6.25 -1.84375 5.21875 -2.84375 C 4.195312 -3.851562 3.382812 -5.050781 2.78125 -6.4375 C 2.175781 -7.820312 1.875 -9.316406 1.875 -10.921875 L 1.875 -13.46875 L 8.71875 -13.46875 L 8.71875 -11.328125 C 8.71875 -10.078125 9.082031 -8.945312 9.8125 -7.9375 C 10.550781 -6.9375 11.796875 -6.4375 13.546875 -6.4375 C 14.703125 -6.4375 15.601562 -6.601562 16.25 -6.9375 C 16.90625 -7.269531 17.398438 -7.738281 17.734375 -8.34375 C 18.066406 -8.945312 18.273438 -9.695312 18.359375 -10.59375 C 18.453125 -11.488281 18.5 -12.472656 18.5 -13.546875 C 18.5 -14.796875 18.453125 -15.820312 18.359375 -16.625 C 18.273438 -17.425781 18.085938 -18.070312 17.796875 -18.5625 C 17.503906 -19.0625 17.101562 -19.46875 16.59375 -19.78125 C 16.082031 -20.09375 15.398438 -20.425781 14.546875 -20.78125 L 9.65625 -22.796875 C 6.707031 -24.003906 4.726562 -25.601562 3.71875 -27.59375 C 2.71875 -29.582031 2.21875 -32.070312 2.21875 -35.0625 C 2.21875 -36.851562 2.460938 -38.550781 2.953125 -40.15625 C 3.441406 -41.769531 4.164062 -43.15625 5.125 -44.3125 C 6.09375 -45.476562 7.3125 -46.40625 8.78125 -47.09375 C 10.257812 -47.789062 11.984375 -48.140625 13.953125 -48.140625 C 15.648438 -48.140625 17.203125 -47.828125 18.609375 -47.203125 C 20.015625 -46.578125 21.21875 -45.75 22.21875 -44.71875 C 23.226562 -43.6875 24 -42.535156 24.53125 -41.265625 C 25.070312 -39.992188 25.34375 -38.6875 25.34375 -37.34375 Z M 25.34375 -34 "/></g></g></g><g clip-path="url(#7f9eae8fc8)"><path fill="#ffc001" d="M 102.8125 43.007812 L 113.488281 32.332031 C 114.183594 31.636719 114.183594 30.511719 113.488281 29.816406 L 102.8125 19.140625 C 102.117188 18.445312 100.992188 18.445312 100.296875 19.140625 C 99.601562 19.835938 99.601562 20.960938 100.296875 21.65625 L 109.714844 31.074219 L 100.296875 40.492188 C 99.601562 41.1875 99.601562 42.3125 100.296875 43.007812 C 100.644531 43.355469 101.097656 43.527344 101.554688 43.527344 C 102.011719 43.527344 102.464844 43.355469 102.8125 43.007812 Z M 112.894531 43.007812 L 123.570312 32.332031 C 124.265625 31.636719 124.265625 30.511719 123.570312 29.816406 L 112.894531 19.140625 C 112.199219 18.445312 111.074219 18.445312 110.378906 19.140625 C 109.683594 19.835938 109.683594 20.960938 110.378906 21.65625 L 119.796875 31.074219 L 110.378906 40.492188 C 109.683594 41.1875 109.683594 42.3125 110.378906 43.007812 C 110.726562 43.355469 111.183594 43.527344 111.636719 43.527344 C 112.09375 43.527344 112.546875 43.355469 112.894531 43.007812 Z M 121.71875 43.527344 C 121.265625 43.527344 120.808594 43.355469 120.460938 43.007812 C 119.765625 42.3125 119.765625 41.1875 120.460938 40.492188 L 129.878906 31.074219 L 120.460938 21.65625 C 119.765625 20.960938 119.765625 19.835938 120.460938 19.140625 C 121.15625 18.445312 122.28125 18.445312 122.976562 19.140625 L 133.652344 29.816406 C 134.347656 30.511719 134.347656 31.636719 133.652344 32.332031 L 122.976562 43.007812 C 122.628906 43.355469 122.175781 43.527344 121.71875 43.527344 " fill-opacity="1" fill-rule="nonzero"/></g><g clip-path="url(#c5db457060)"><path fill="#09487e" d="M 58.730469 53.375 C 55.875 56.230469 55.875 60.878906 58.730469 63.734375 C 61.585938 66.589844 66.230469 66.589844 69.085938 63.734375 C 71.945312 60.878906 71.945312 56.230469 69.089844 53.375 C 66.230469 50.519531 61.585938 50.519531 58.730469 53.375 Z M 76.148438 73.695312 C 76.574219 73.269531 76.972656 72.828125 77.351562 72.371094 C 75.316406 73.324219 73.109375 73.867188 70.847656 73.921875 C 66.882812 74.019531 60.855469 72.699219 54.667969 65.894531 C 54.628906 65.859375 54.585938 65.828125 54.550781 65.789062 C 50.6875 61.925781 50.6875 55.640625 54.550781 51.777344 C 56.367188 49.960938 58.714844 49.007812 61.097656 48.902344 C 58.441406 47.324219 55.679688 46.519531 52.902344 46.582031 C 49.445312 46.660156 46.117188 48.09375 43.511719 50.554688 L 42.988281 51.078125 C 42.71875 51.363281 42.445312 51.644531 42.195312 51.945312 L 42.152344 51.914062 L 34.324219 59.746094 L 48.277344 73.695312 C 55.960938 81.382812 68.460938 81.378906 76.148438 73.695312 Z M 79.601562 43.640625 L 93.550781 57.59375 L 85.722656 65.421875 L 85.683594 65.390625 C 85.429688 65.695312 85.160156 65.976562 84.886719 66.257812 L 84.363281 66.78125 C 81.761719 69.242188 78.429688 70.675781 74.972656 70.757812 C 72.199219 70.816406 69.433594 70.011719 66.777344 68.4375 C 69.160156 68.328125 71.511719 67.375 73.324219 65.5625 C 77.191406 61.695312 77.191406 55.410156 73.328125 51.546875 C 73.289062 51.507812 73.246094 51.480469 73.210938 51.441406 C 67.019531 44.640625 60.992188 43.320312 57.027344 43.417969 C 54.765625 43.46875 52.558594 44.011719 50.527344 44.964844 C 50.90625 44.511719 51.304688 44.066406 51.730469 43.640625 C 59.414062 35.957031 71.914062 35.957031 79.601562 43.640625 " fill-opacity="1" fill-rule="nonzero"/></g><g clip-path="url(#974b770642)"><path fill="#ffffff" d="M 72.507812 58.679688 C 72.507812 59.242188 72.453125 59.800781 72.339844 60.351562 C 72.230469 60.902344 72.070312 61.4375 71.855469 61.957031 C 71.640625 62.476562 71.375 62.96875 71.0625 63.433594 C 70.75 63.902344 70.398438 64.335938 70 64.730469 C 69.601562 65.128906 69.171875 65.484375 68.703125 65.796875 C 68.234375 66.109375 67.742188 66.371094 67.222656 66.585938 C 66.703125 66.800781 66.167969 66.964844 65.617188 67.074219 C 65.066406 67.183594 64.511719 67.238281 63.949219 67.238281 C 63.386719 67.238281 62.832031 67.183594 62.28125 67.074219 C 61.730469 66.964844 61.195312 66.800781 60.675781 66.585938 C 60.15625 66.371094 59.664062 66.109375 59.195312 65.796875 C 58.726562 65.484375 58.296875 65.128906 57.898438 64.730469 C 57.5 64.335938 57.148438 63.902344 56.835938 63.433594 C 56.523438 62.96875 56.257812 62.476562 56.042969 61.957031 C 55.828125 61.4375 55.667969 60.902344 55.558594 60.351562 C 55.449219 59.800781 55.394531 59.242188 55.394531 58.679688 C 55.394531 58.121094 55.449219 57.5625 55.558594 57.011719 C 55.667969 56.460938 55.828125 55.925781 56.042969 55.40625 C 56.257812 54.886719 56.523438 54.394531 56.835938 53.925781 C 57.148438 53.460938 57.5 53.027344 57.898438 52.632812 C 58.296875 52.234375 58.726562 51.878906 59.195312 51.566406 C 59.664062 51.253906 60.15625 50.992188 60.675781 50.777344 C 61.195312 50.5625 61.730469 50.398438 62.28125 50.289062 C 62.832031 50.179688 63.386719 50.125 63.949219 50.125 C 64.511719 50.125 65.066406 50.179688 65.617188 50.289062 C 66.167969 50.398438 66.703125 50.5625 67.222656 50.777344 C 67.742188 50.992188 68.234375 51.253906 68.703125 51.566406 C 69.171875 51.878906 69.601562 52.234375 70 52.632812 C 70.398438 53.027344 70.75 53.460938 71.0625 53.925781 C 71.375 54.394531 71.640625 54.886719 71.855469 55.40625 C 72.070312 55.925781 72.230469 56.460938 72.339844 57.011719 C 72.453125 57.5625 72.507812 58.121094 72.507812 58.679688 Z M 72.507812 58.679688 " fill-opacity="1" fill-rule="nonzero"/></g><g clip-path="url(#722ebef00c)"><path fill="#ffc001" d="M 58.78125 53.621094 C 55.925781 56.476562 55.925781 61.125 58.78125 63.980469 C 61.636719 66.835938 66.285156 66.835938 69.140625 63.980469 C 71.996094 61.125 71.996094 56.476562 69.140625 53.621094 C 66.285156 50.765625 61.636719 50.765625 58.78125 53.621094 Z M 76.199219 73.941406 C 76.625 73.515625 77.023438 73.074219 77.402344 72.617188 C 75.367188 73.570312 73.160156 74.113281 70.898438 74.167969 C 66.933594 74.265625 60.910156 72.945312 54.71875 66.140625 C 54.683594 66.105469 54.640625 66.074219 54.601562 66.035156 C 50.738281 62.171875 50.738281 55.886719 54.601562 52.023438 C 56.417969 50.207031 58.769531 49.253906 61.152344 49.144531 C 58.492188 47.570312 55.730469 46.765625 52.953125 46.828125 C 49.496094 46.90625 46.167969 48.339844 43.5625 50.800781 L 43.039062 51.324219 C 42.769531 51.609375 42.5 51.886719 42.246094 52.191406 L 42.207031 52.160156 L 34.375 59.992188 L 48.328125 73.941406 C 56.011719 81.625 68.515625 81.625 76.199219 73.941406 Z M 79.652344 43.886719 L 93.605469 57.839844 L 85.773438 65.667969 L 85.734375 65.636719 C 85.480469 65.941406 85.210938 66.222656 84.941406 66.503906 L 84.417969 67.027344 C 81.8125 69.488281 78.484375 70.921875 75.027344 71 C 72.25 71.0625 69.484375 70.257812 66.828125 68.683594 C 69.210938 68.574219 71.5625 67.621094 73.378906 65.808594 C 77.242188 61.941406 77.242188 55.65625 73.378906 51.792969 C 73.339844 51.753906 73.296875 51.726562 73.261719 51.6875 C 67.070312 44.886719 61.046875 43.566406 57.082031 43.660156 C 54.820312 43.714844 52.613281 44.257812 50.578125 45.210938 C 50.957031 44.757812 51.355469 44.3125 51.78125 43.886719 C 59.464844 36.203125 71.96875 36.203125 79.652344 43.886719 " fill-opacity="1" fill-rule="nonzero"/></g><g clip-path="url(#8ad75c8fa5)"><path fill="#0895cd" d="M 58.828125 53.375 C 55.972656 56.230469 55.972656 60.878906 58.828125 63.734375 C 61.683594 66.589844 66.332031 66.589844 69.1875 63.734375 C 72.042969 60.878906 72.042969 56.230469 69.1875 53.375 C 66.332031 50.519531 61.683594 50.519531 58.828125 53.375 Z M 76.246094 73.695312 C 76.671875 73.269531 77.070312 72.828125 77.453125 72.371094 C 75.417969 73.324219 73.210938 73.867188 70.949219 73.921875 C 66.984375 74.019531 60.957031 72.699219 54.765625 65.894531 C 54.730469 65.859375 54.6875 65.828125 54.648438 65.789062 C 50.785156 61.925781 50.789062 55.640625 54.652344 51.777344 C 56.464844 49.960938 58.816406 49.007812 61.199219 48.902344 C 58.542969 47.324219 55.78125 46.519531 53.003906 46.582031 C 49.546875 46.660156 46.214844 48.09375 43.613281 50.554688 L 43.089844 51.078125 C 42.816406 51.363281 42.546875 51.644531 42.296875 51.945312 L 42.253906 51.914062 L 34.425781 59.746094 L 48.378906 73.695312 C 56.0625 81.382812 68.5625 81.378906 76.246094 73.695312 Z M 79.699219 43.640625 L 93.652344 57.59375 L 85.824219 65.421875 L 85.78125 65.390625 C 85.53125 65.695312 85.257812 65.976562 84.988281 66.257812 L 84.464844 66.78125 C 81.859375 69.242188 78.53125 70.675781 75.074219 70.757812 C 72.296875 70.816406 69.535156 70.011719 66.878906 68.4375 C 69.261719 68.328125 71.609375 67.375 73.425781 65.5625 C 77.289062 61.695312 77.289062 55.410156 73.425781 51.546875 C 73.390625 51.507812 73.347656 51.480469 73.308594 51.441406 C 67.121094 44.640625 61.09375 43.320312 57.128906 43.417969 C 54.867188 43.46875 52.660156 44.011719 50.625 44.964844 C 51.003906 44.511719 51.402344 44.066406 51.832031 43.640625 C 59.515625 35.957031 72.015625 35.957031 79.699219 43.640625 " fill-opacity="1" fill-rule="nonzero"/></g><g clip-path="url(#60ea3e28d0)"><path fill="#0895cd" d="M 58.828125 53.449219 C 55.972656 56.304688 55.972656 60.949219 58.828125 63.804688 C 61.683594 66.664062 66.332031 66.664062 69.1875 63.808594 C 72.042969 60.949219 72.042969 56.304688 69.1875 53.445312 C 66.332031 50.589844 61.683594 50.59375 58.828125 53.449219 Z M 76.246094 73.769531 C 76.671875 73.34375 77.070312 72.898438 77.453125 72.445312 C 75.417969 73.398438 73.210938 73.941406 70.949219 73.992188 C 66.984375 74.089844 60.957031 72.769531 54.765625 65.96875 C 54.730469 65.929688 54.6875 65.898438 54.648438 65.863281 C 50.785156 62 50.789062 55.710938 54.652344 51.847656 C 56.464844 50.035156 58.816406 49.082031 61.199219 48.972656 C 58.542969 47.398438 55.78125 46.59375 53.003906 46.652344 C 49.546875 46.730469 46.214844 48.167969 43.613281 50.628906 L 43.089844 51.152344 C 42.816406 51.433594 42.546875 51.714844 42.296875 52.019531 L 42.253906 51.988281 L 34.425781 59.816406 L 48.378906 73.769531 C 56.0625 81.453125 68.5625 81.453125 76.246094 73.769531 Z M 79.699219 43.710938 L 93.652344 57.664062 L 85.824219 65.496094 L 85.78125 65.464844 C 85.53125 65.765625 85.257812 66.046875 84.988281 66.332031 L 84.464844 66.855469 C 81.859375 69.316406 78.53125 70.75 75.074219 70.828125 C 72.296875 70.890625 69.535156 70.082031 66.878906 68.507812 C 69.261719 68.402344 71.609375 67.449219 73.425781 65.632812 C 77.289062 61.769531 77.289062 55.484375 73.425781 51.621094 C 73.390625 51.582031 73.347656 51.550781 73.308594 51.515625 C 67.121094 44.710938 61.09375 43.390625 57.128906 43.488281 C 54.867188 43.542969 52.660156 44.085938 50.625 45.039062 C 51.003906 44.582031 51.402344 44.140625 51.832031 43.714844 C 59.515625 36.03125 72.015625 36.027344 79.699219 43.710938 " fill-opacity="1" fill-rule="nonzero"/></g><g clip-path="url(#edfa3e6b03)"><path fill="#0895cd" d="M 58.707031 53.300781 C 55.851562 56.15625 55.851562 60.800781 58.707031 63.65625 C 61.5625 66.515625 66.210938 66.515625 69.066406 63.660156 C 71.921875 60.800781 71.921875 56.15625 69.066406 53.296875 C 66.210938 50.441406 61.5625 50.445312 58.707031 53.300781 Z M 76.125 73.621094 C 76.550781 73.195312 76.949219 72.75 77.328125 72.296875 C 75.296875 73.25 73.085938 73.792969 70.828125 73.84375 C 66.863281 73.941406 60.835938 72.621094 54.644531 65.820312 C 54.609375 65.78125 54.566406 65.75 54.527344 65.714844 C 50.664062 61.851562 50.664062 55.5625 54.53125 51.699219 C 56.34375 49.886719 58.695312 48.933594 61.078125 48.824219 C 58.421875 47.25 55.660156 46.445312 52.882812 46.503906 C 49.425781 46.582031 46.09375 48.019531 43.492188 50.480469 L 42.96875 51.003906 C 42.695312 51.285156 42.425781 51.566406 42.171875 51.871094 L 42.132812 51.839844 L 34.304688 59.667969 L 48.253906 73.621094 C 55.941406 81.304688 68.441406 81.304688 76.125 73.621094 Z M 79.578125 43.5625 L 93.53125 57.515625 L 85.703125 65.347656 L 85.660156 65.316406 C 85.410156 65.617188 85.136719 65.898438 84.867188 66.183594 L 84.34375 66.707031 C 81.738281 69.167969 78.410156 70.601562 74.953125 70.679688 C 72.175781 70.742188 69.414062 69.933594 66.757812 68.359375 C 69.140625 68.253906 71.488281 67.300781 73.304688 65.484375 C 77.167969 61.621094 77.167969 55.335938 73.304688 51.472656 C 73.269531 51.433594 73.226562 51.402344 73.1875 51.367188 C 67 44.5625 60.972656 43.242188 57.007812 43.339844 C 54.746094 43.394531 52.539062 43.9375 50.503906 44.890625 C 50.882812 44.433594 51.28125 43.992188 51.707031 43.566406 C 59.394531 35.882812 71.894531 35.878906 79.578125 43.5625 " fill-opacity="1" fill-rule="nonzero"/></g><g clip-path="url(#1b59c0540e)"><path fill="#0895cd" d="M 58.730469 53.582031 C 55.875 56.4375 55.875 61.082031 58.730469 63.941406 C 61.589844 66.796875 66.234375 66.796875 69.089844 63.941406 C 71.945312 61.085938 71.945312 56.4375 69.089844 53.582031 C 66.234375 50.722656 61.589844 50.726562 58.730469 53.582031 Z M 76.148438 73.902344 C 76.578125 73.476562 76.976562 73.03125 77.355469 72.578125 C 75.320312 73.53125 73.113281 74.074219 70.851562 74.128906 C 66.886719 74.222656 60.859375 72.90625 54.671875 66.101562 C 54.632812 66.0625 54.589844 66.035156 54.554688 65.996094 C 50.691406 62.132812 50.691406 55.847656 54.554688 51.980469 C 56.367188 50.167969 58.71875 49.214844 61.101562 49.105469 C 58.445312 47.53125 55.683594 46.726562 52.90625 46.789062 C 49.449219 46.867188 46.121094 48.300781 43.515625 50.761719 L 42.992188 51.285156 C 42.71875 51.570312 42.449219 51.847656 42.199219 52.152344 L 42.15625 52.121094 L 34.328125 59.949219 L 48.28125 73.902344 C 55.964844 81.585938 68.464844 81.585938 76.148438 73.902344 Z M 79.601562 43.847656 L 93.554688 57.800781 L 85.726562 65.628906 L 85.683594 65.597656 C 85.433594 65.902344 85.164062 66.179688 84.890625 66.464844 L 84.367188 66.988281 C 81.761719 69.449219 78.433594 70.882812 74.976562 70.960938 C 72.199219 71.023438 69.4375 70.21875 66.78125 68.644531 C 69.164062 68.535156 71.515625 67.582031 73.328125 65.765625 C 77.191406 61.902344 77.195312 55.617188 73.328125 51.753906 C 73.292969 51.714844 73.25 51.6875 73.214844 51.648438 C 67.023438 44.847656 60.996094 43.527344 57.03125 43.621094 C 54.769531 43.675781 52.5625 44.21875 50.527344 45.171875 C 50.910156 44.71875 51.308594 44.273438 51.734375 43.847656 C 59.417969 36.164062 71.917969 36.164062 79.601562 43.847656 " fill-opacity="1" fill-rule="nonzero"/></g></svg>