<svg xmlns="http://www.w3.org/2000/svg" xmlns:xlink="http://www.w3.org/1999/xlink" width="624" zoomAndPan="magnify" viewBox="0 0 468 257.99999" height="344" preserveAspectRatio="xMidYMid meet" version="1.0"><defs><g/><clipPath id="b94249e090"><path d="M 192 24.195312 L 230.011719 24.195312 L 230.011719 51.945312 L 192 51.945312 Z M 192 24.195312 " clip-rule="nonzero"/></clipPath><clipPath id="3ed5de5060"><path d="M 2 82.65625 L 60.335938 82.65625 L 60.335938 126.90625 L 2 126.90625 Z M 2 82.65625 " clip-rule="nonzero"/></clipPath></defs><g fill="#0895cd" fill-opacity="1"><g transform="translate(56.585243, 178.222024)"><g><path d="M 5.515625 -81.796875 L 16.765625 -81.796875 L 31.828125 -38.484375 L 32.046875 -38.484375 L 46.984375 -81.796875 L 58.359375 -81.796875 L 58.359375 0 L 46.640625 0 L 46.640625 -49.734375 L 46.40625 -49.734375 L 34.8125 -14.59375 L 28.953125 -14.59375 L 17.46875 -49.734375 L 17.234375 -49.734375 L 17.234375 0 L 5.515625 0 Z M 5.515625 -81.796875 "/></g></g></g><g fill="#0895cd" fill-opacity="1"><g transform="translate(120.457015, 178.222024)"><g><path d="M 3.796875 -38.71875 C 3.796875 -41.09375 3.945312 -43.273438 4.25 -45.265625 C 4.550781 -47.253906 5.125 -49.015625 5.96875 -50.546875 C 7.351562 -53.066406 9.347656 -55.09375 11.953125 -56.625 C 14.554688 -58.164062 17.65625 -58.9375 21.25 -58.9375 C 24.851562 -58.9375 27.957031 -58.164062 30.5625 -56.625 C 33.164062 -55.09375 35.15625 -53.066406 36.53125 -50.546875 C 37.375 -49.015625 37.945312 -47.253906 38.25 -45.265625 C 38.5625 -43.273438 38.71875 -41.09375 38.71875 -38.71875 L 38.71875 -19.53125 C 38.71875 -17.15625 38.5625 -14.972656 38.25 -12.984375 C 37.945312 -10.992188 37.375 -9.234375 36.53125 -7.703125 C 35.15625 -5.171875 33.164062 -3.140625 30.5625 -1.609375 C 27.957031 -0.078125 24.851562 0.6875 21.25 0.6875 C 17.65625 0.6875 14.554688 -0.078125 11.953125 -1.609375 C 9.347656 -3.140625 7.351562 -5.171875 5.96875 -7.703125 C 5.125 -9.234375 4.550781 -10.992188 4.25 -12.984375 C 3.945312 -14.972656 3.796875 -17.15625 3.796875 -19.53125 Z M 15.515625 -17.6875 C 15.515625 -15.46875 16.03125 -13.800781 17.0625 -12.6875 C 18.09375 -11.582031 19.488281 -11.03125 21.25 -11.03125 C 23.007812 -11.03125 24.40625 -11.582031 25.4375 -12.6875 C 26.476562 -13.800781 27 -15.46875 27 -17.6875 L 27 -40.546875 C 27 -42.765625 26.476562 -44.429688 25.4375 -45.546875 C 24.40625 -46.660156 23.007812 -47.21875 21.25 -47.21875 C 19.488281 -47.21875 18.09375 -46.660156 17.0625 -45.546875 C 16.03125 -44.429688 15.515625 -42.765625 15.515625 -40.546875 Z M 15.515625 -17.6875 "/></g></g></g><g fill="#0895cd" fill-opacity="1"><g transform="translate(162.961611, 178.222024)"><g><path d="M 4.828125 -58.234375 L 16.546875 -58.234375 L 16.546875 -52.609375 L 16.765625 -52.609375 C 17.992188 -54.453125 19.46875 -55.96875 21.1875 -57.15625 C 22.914062 -58.34375 25.117188 -58.9375 27.796875 -58.9375 C 29.253906 -58.9375 30.707031 -58.6875 32.15625 -58.1875 C 33.613281 -57.6875 34.914062 -56.859375 36.0625 -55.703125 C 37.21875 -54.554688 38.140625 -53.082031 38.828125 -51.28125 C 39.515625 -49.488281 39.859375 -47.289062 39.859375 -44.6875 L 39.859375 0 L 28.140625 0 L 28.140625 -40.328125 C 28.140625 -42.460938 27.640625 -44.144531 26.640625 -45.375 C 25.648438 -46.601562 24.238281 -47.21875 22.40625 -47.21875 C 20.175781 -47.21875 18.640625 -46.523438 17.796875 -45.140625 C 16.960938 -43.765625 16.546875 -41.773438 16.546875 -39.171875 L 16.546875 0 L 4.828125 0 Z M 4.828125 -58.234375 "/></g></g></g><g fill="#0895cd" fill-opacity="1"><g transform="translate(207.648884, 178.222024)"><g><path d="M 4.828125 -58.234375 L 16.546875 -58.234375 L 16.546875 0 L 4.828125 0 Z M 4.828125 -81.796875 L 16.546875 -81.796875 L 16.546875 -70.078125 L 4.828125 -70.078125 Z M 4.828125 -81.796875 "/></g></g></g><g fill="#0895cd" fill-opacity="1"><g transform="translate(229.016059, 178.222024)"><g><path d="M 4.828125 -75.9375 L 16.546875 -75.9375 L 16.546875 -58.234375 L 23.78125 -58.234375 L 23.78125 -49.046875 L 16.546875 -49.046875 L 16.546875 -16.765625 C 16.546875 -15.390625 16.675781 -14.316406 16.9375 -13.546875 C 17.207031 -12.785156 17.628906 -12.210938 18.203125 -11.828125 C 18.773438 -11.441406 19.519531 -11.210938 20.4375 -11.140625 C 21.363281 -11.066406 22.476562 -11.03125 23.78125 -11.03125 L 23.78125 0 L 18.953125 0 C 16.273438 0 14.035156 -0.421875 12.234375 -1.265625 C 10.429688 -2.109375 8.992188 -3.179688 7.921875 -4.484375 C 6.847656 -5.785156 6.0625 -7.257812 5.5625 -8.90625 C 5.070312 -10.550781 4.828125 -12.140625 4.828125 -13.671875 L 4.828125 -49.046875 L -1.03125 -49.046875 L -1.03125 -58.234375 L 4.828125 -58.234375 Z M 4.828125 -75.9375 "/></g></g></g><g fill="#0895cd" fill-opacity="1"><g transform="translate(252.451012, 178.222024)"><g><path d="M 3.796875 -38.71875 C 3.796875 -41.09375 3.945312 -43.273438 4.25 -45.265625 C 4.550781 -47.253906 5.125 -49.015625 5.96875 -50.546875 C 7.351562 -53.066406 9.347656 -55.09375 11.953125 -56.625 C 14.554688 -58.164062 17.65625 -58.9375 21.25 -58.9375 C 24.851562 -58.9375 27.957031 -58.164062 30.5625 -56.625 C 33.164062 -55.09375 35.15625 -53.066406 36.53125 -50.546875 C 37.375 -49.015625 37.945312 -47.253906 38.25 -45.265625 C 38.5625 -43.273438 38.71875 -41.09375 38.71875 -38.71875 L 38.71875 -19.53125 C 38.71875 -17.15625 38.5625 -14.972656 38.25 -12.984375 C 37.945312 -10.992188 37.375 -9.234375 36.53125 -7.703125 C 35.15625 -5.171875 33.164062 -3.140625 30.5625 -1.609375 C 27.957031 -0.078125 24.851562 0.6875 21.25 0.6875 C 17.65625 0.6875 14.554688 -0.078125 11.953125 -1.609375 C 9.347656 -3.140625 7.351562 -5.171875 5.96875 -7.703125 C 5.125 -9.234375 4.550781 -10.992188 4.25 -12.984375 C 3.945312 -14.972656 3.796875 -17.15625 3.796875 -19.53125 Z M 15.515625 -17.6875 C 15.515625 -15.46875 16.03125 -13.800781 17.0625 -12.6875 C 18.09375 -11.582031 19.488281 -11.03125 21.25 -11.03125 C 23.007812 -11.03125 24.40625 -11.582031 25.4375 -12.6875 C 26.476562 -13.800781 27 -15.46875 27 -17.6875 L 27 -40.546875 C 27 -42.765625 26.476562 -44.429688 25.4375 -45.546875 C 24.40625 -46.660156 23.007812 -47.21875 21.25 -47.21875 C 19.488281 -47.21875 18.09375 -46.660156 17.0625 -45.546875 C 16.03125 -44.429688 15.515625 -42.765625 15.515625 -40.546875 Z M 15.515625 -17.6875 "/></g></g></g><g fill="#0895cd" fill-opacity="1"><g transform="translate(294.955608, 178.222024)"><g><path d="M 4.828125 -58.234375 L 16.546875 -58.234375 L 16.546875 -52.03125 C 18.921875 -54.175781 21.253906 -55.863281 23.546875 -57.09375 C 25.847656 -58.320312 28.679688 -58.9375 32.046875 -58.9375 L 32.046875 -46.53125 C 30.898438 -46.988281 29.710938 -47.21875 28.484375 -47.21875 C 27.265625 -47.21875 25.945312 -47.003906 24.53125 -46.578125 C 23.113281 -46.160156 21.8125 -45.453125 20.625 -44.453125 C 19.4375 -43.460938 18.457031 -42.160156 17.6875 -40.546875 C 16.925781 -38.941406 16.546875 -36.953125 16.546875 -34.578125 L 16.546875 0 L 4.828125 0 Z M 4.828125 -58.234375 "/></g></g></g><g fill="#09487e" fill-opacity="1"><g transform="translate(221.949747, 87.382681)"><g><path d="M 3.890625 -57.609375 L 28.484375 -57.609375 L 28.484375 -49.84375 L 12.140625 -49.84375 L 12.140625 -32.359375 L 26.375 -32.359375 L 26.375 -24.59375 L 12.140625 -24.59375 L 12.140625 0 L 3.890625 0 Z M 3.890625 -57.609375 "/></g></g></g><g fill="#09487e" fill-opacity="1"><g transform="translate(251.885958, 87.382681)"><g><path d="M 19.015625 -4.203125 L 18.84375 -4.203125 C 17.769531 -2.691406 16.679688 -1.53125 15.578125 -0.71875 C 14.472656 0.0820312 12.921875 0.484375 10.921875 0.484375 C 9.953125 0.484375 8.953125 0.332031 7.921875 0.03125 C 6.898438 -0.257812 5.941406 -0.796875 5.046875 -1.578125 C 4.160156 -2.359375 3.429688 -3.460938 2.859375 -4.890625 C 2.296875 -6.316406 2.015625 -8.164062 2.015625 -10.4375 C 2.015625 -12.757812 2.203125 -14.796875 2.578125 -16.546875 C 2.960938 -18.296875 3.65625 -19.75 4.65625 -20.90625 C 5.65625 -22.070312 6.988281 -22.9375 8.65625 -23.5 C 10.332031 -24.070312 12.460938 -24.359375 15.046875 -24.359375 C 15.640625 -24.359375 16.234375 -24.328125 16.828125 -24.265625 C 17.421875 -24.210938 18.148438 -24.160156 19.015625 -24.109375 L 19.015625 -28.390625 C 19.015625 -29.796875 18.71875 -30.957031 18.125 -31.875 C 17.53125 -32.789062 16.453125 -33.25 14.890625 -33.25 C 13.804688 -33.25 12.816406 -32.898438 11.921875 -32.203125 C 11.035156 -31.503906 10.457031 -30.476562 10.1875 -29.125 L 2.1875 -29.125 C 2.457031 -32.84375 3.695312 -35.8125 5.90625 -38.03125 C 6.988281 -39.101562 8.285156 -39.945312 9.796875 -40.5625 C 11.304688 -41.1875 13.003906 -41.5 14.890625 -41.5 C 16.609375 -41.5 18.222656 -41.226562 19.734375 -40.6875 C 21.242188 -40.15625 22.550781 -39.347656 23.65625 -38.265625 C 24.769531 -37.191406 25.648438 -35.84375 26.296875 -34.21875 C 26.941406 -32.601562 27.265625 -30.71875 27.265625 -28.5625 L 27.265625 0 L 19.015625 0 Z M 19.015625 -17.640625 C 18.097656 -17.796875 17.34375 -17.875 16.75 -17.875 C 14.96875 -17.875 13.441406 -17.457031 12.171875 -16.625 C 10.910156 -15.789062 10.28125 -14.269531 10.28125 -12.0625 C 10.28125 -10.488281 10.65625 -9.21875 11.40625 -8.25 C 12.164062 -7.28125 13.21875 -6.796875 14.5625 -6.796875 C 15.96875 -6.796875 17.0625 -7.253906 17.84375 -8.171875 C 18.625 -9.085938 19.015625 -10.382812 19.015625 -12.0625 Z M 19.015625 -17.640625 "/></g></g></g><g fill="#09487e" fill-opacity="1"><g transform="translate(281.822168, 87.382681)"><g><path d="M 18.359375 -29.53125 C 18.304688 -30.9375 17.863281 -31.988281 17.03125 -32.6875 C 16.195312 -33.382812 15.238281 -33.734375 14.15625 -33.734375 C 12.863281 -33.734375 11.863281 -33.316406 11.15625 -32.484375 C 10.457031 -31.648438 10.109375 -30.691406 10.109375 -29.609375 C 10.109375 -28.859375 10.296875 -28.117188 10.671875 -27.390625 C 11.054688 -26.660156 12.03125 -26 13.59375 -25.40625 L 18.453125 -23.46875 C 21.523438 -22.28125 23.640625 -20.660156 24.796875 -18.609375 C 25.953125 -16.554688 26.53125 -14.316406 26.53125 -11.890625 C 26.53125 -10.160156 26.21875 -8.554688 25.59375 -7.078125 C 24.976562 -5.597656 24.128906 -4.289062 23.046875 -3.15625 C 21.972656 -2.019531 20.679688 -1.128906 19.171875 -0.484375 C 17.660156 0.160156 16.015625 0.484375 14.234375 0.484375 C 12.617188 0.484375 11.082031 0.21875 9.625 -0.3125 C 8.164062 -0.851562 6.882812 -1.632812 5.78125 -2.65625 C 4.675781 -3.6875 3.769531 -4.96875 3.0625 -6.5 C 2.363281 -8.039062 1.988281 -9.835938 1.9375 -11.890625 L 9.703125 -11.890625 C 9.867188 -10.753906 10.257812 -9.703125 10.875 -8.734375 C 11.5 -7.765625 12.59375 -7.28125 14.15625 -7.28125 C 15.34375 -7.28125 16.40625 -7.671875 17.34375 -8.453125 C 18.289062 -9.234375 18.765625 -10.328125 18.765625 -11.734375 C 18.765625 -12.867188 18.46875 -13.835938 17.875 -14.640625 C 17.28125 -15.453125 16.203125 -16.15625 14.640625 -16.75 L 10.671875 -18.203125 C 8.085938 -19.171875 6.050781 -20.613281 4.5625 -22.53125 C 3.082031 -24.445312 2.34375 -26.78125 2.34375 -29.53125 C 2.34375 -31.257812 2.664062 -32.863281 3.3125 -34.34375 C 3.957031 -35.820312 4.832031 -37.085938 5.9375 -38.140625 C 7.050781 -39.191406 8.332031 -40.015625 9.78125 -40.609375 C 11.238281 -41.203125 12.804688 -41.5 14.484375 -41.5 C 16.148438 -41.5 17.695312 -41.1875 19.125 -40.5625 C 20.5625 -39.945312 21.789062 -39.113281 22.8125 -38.0625 C 23.84375 -37.007812 24.648438 -35.738281 25.234375 -34.25 C 25.828125 -32.769531 26.125 -31.195312 26.125 -29.53125 Z M 18.359375 -29.53125 "/></g></g></g><g fill="#09487e" fill-opacity="1"><g transform="translate(310.302031, 87.382681)"><g><path d="M 3.390625 -53.484375 L 11.65625 -53.484375 L 11.65625 -41.015625 L 16.75 -41.015625 L 16.75 -34.546875 L 11.65625 -34.546875 L 11.65625 -11.8125 C 11.65625 -10.84375 11.75 -10.085938 11.9375 -9.546875 C 12.125 -9.003906 12.421875 -8.597656 12.828125 -8.328125 C 13.234375 -8.054688 13.757812 -7.894531 14.40625 -7.84375 C 15.050781 -7.789062 15.832031 -7.765625 16.75 -7.765625 L 16.75 0 L 13.34375 0 C 11.457031 0 9.878906 -0.296875 8.609375 -0.890625 C 7.347656 -1.484375 6.335938 -2.238281 5.578125 -3.15625 C 4.828125 -4.070312 4.273438 -5.109375 3.921875 -6.265625 C 3.566406 -7.429688 3.390625 -8.550781 3.390625 -9.625 L 3.390625 -34.546875 L -0.734375 -34.546875 L -0.734375 -41.015625 L 3.390625 -41.015625 Z M 3.390625 -53.484375 "/></g></g></g><g fill="#000000" fill-opacity="1"><g transform="translate(326.817827, 87.382681)"><g/></g></g><g fill="#0895cd" fill-opacity="1"><g transform="translate(341.867781, 87.382681)"><g><path d="M 3.890625 -57.609375 L 16.09375 -57.609375 C 20.789062 -57.609375 24.378906 -56.296875 26.859375 -53.671875 C 29.335938 -51.054688 30.578125 -47.40625 30.578125 -42.71875 L 30.578125 -15.78125 C 30.578125 -10.382812 29.269531 -6.40625 26.65625 -3.84375 C 24.039062 -1.28125 20.28125 0 15.375 0 L 3.890625 0 Z M 12.140625 -7.765625 L 15.9375 -7.765625 C 18.257812 -7.765625 19.90625 -8.34375 20.875 -9.5 C 21.84375 -10.664062 22.328125 -12.488281 22.328125 -14.96875 L 22.328125 -42.71875 C 22.328125 -44.976562 21.867188 -46.726562 20.953125 -47.96875 C 20.035156 -49.21875 18.363281 -49.84375 15.9375 -49.84375 L 12.140625 -49.84375 Z M 12.140625 -7.765625 "/></g></g></g><g fill="#0895cd" fill-opacity="1"><g transform="translate(376.33488, 87.382681)"><g><path d="M 3.890625 -57.609375 L 16.09375 -57.609375 C 20.789062 -57.609375 24.378906 -56.296875 26.859375 -53.671875 C 29.335938 -51.054688 30.578125 -47.40625 30.578125 -42.71875 L 30.578125 -15.78125 C 30.578125 -10.382812 29.269531 -6.40625 26.65625 -3.84375 C 24.039062 -1.28125 20.28125 0 15.375 0 L 3.890625 0 Z M 12.140625 -7.765625 L 15.9375 -7.765625 C 18.257812 -7.765625 19.90625 -8.34375 20.875 -9.5 C 21.84375 -10.664062 22.328125 -12.488281 22.328125 -14.96875 L 22.328125 -42.71875 C 22.328125 -44.976562 21.867188 -46.726562 20.953125 -47.96875 C 20.035156 -49.21875 18.363281 -49.84375 15.9375 -49.84375 L 12.140625 -49.84375 Z M 12.140625 -7.765625 "/></g></g></g><g fill="#0895cd" fill-opacity="1"><g transform="translate(410.801979, 87.382681)"><g><path d="M 30.578125 -41.015625 L 22.328125 -41.015625 L 22.328125 -42.875 C 22.328125 -44.769531 21.878906 -46.40625 20.984375 -47.78125 C 20.097656 -49.15625 18.601562 -49.84375 16.5 -49.84375 C 15.375 -49.84375 14.445312 -49.625 13.71875 -49.1875 C 12.988281 -48.757812 12.421875 -48.207031 12.015625 -47.53125 C 11.609375 -46.851562 11.320312 -46.066406 11.15625 -45.171875 C 11 -44.285156 10.921875 -43.359375 10.921875 -42.390625 C 10.921875 -41.265625 10.960938 -40.304688 11.046875 -39.515625 C 11.128906 -38.734375 11.332031 -38.0625 11.65625 -37.5 C 11.976562 -36.9375 12.445312 -36.4375 13.0625 -36 C 13.6875 -35.570312 14.535156 -35.140625 15.609375 -34.703125 L 21.921875 -32.203125 C 23.753906 -31.503906 25.238281 -30.679688 26.375 -29.734375 C 27.507812 -28.785156 28.382812 -27.675781 29 -26.40625 C 29.625 -25.144531 30.039062 -23.691406 30.25 -22.046875 C 30.46875 -20.398438 30.578125 -18.523438 30.578125 -16.421875 C 30.578125 -13.992188 30.332031 -11.738281 29.84375 -9.65625 C 29.363281 -7.582031 28.570312 -5.804688 27.46875 -4.328125 C 26.363281 -2.847656 24.894531 -1.675781 23.0625 -0.8125 C 21.226562 0.0507812 18.988281 0.484375 16.34375 0.484375 C 14.34375 0.484375 12.476562 0.132812 10.75 -0.5625 C 9.03125 -1.269531 7.550781 -2.226562 6.3125 -3.4375 C 5.070312 -4.65625 4.085938 -6.097656 3.359375 -7.765625 C 2.628906 -9.441406 2.265625 -11.25 2.265625 -13.1875 L 2.265625 -16.265625 L 10.515625 -16.265625 L 10.515625 -13.671875 C 10.515625 -12.160156 10.957031 -10.796875 11.84375 -9.578125 C 12.738281 -8.367188 14.238281 -7.765625 16.34375 -7.765625 C 17.75 -7.765625 18.84375 -7.96875 19.625 -8.375 C 20.40625 -8.78125 20.992188 -9.347656 21.390625 -10.078125 C 21.796875 -10.804688 22.050781 -11.707031 22.15625 -12.78125 C 22.269531 -13.863281 22.328125 -15.050781 22.328125 -16.34375 C 22.328125 -17.851562 22.269531 -19.09375 22.15625 -20.0625 C 22.050781 -21.03125 21.820312 -21.8125 21.46875 -22.40625 C 21.125 -23 20.640625 -23.484375 20.015625 -23.859375 C 19.398438 -24.242188 18.582031 -24.648438 17.5625 -25.078125 L 11.65625 -27.515625 C 8.09375 -28.960938 5.703125 -30.882812 4.484375 -33.28125 C 3.273438 -35.6875 2.671875 -38.695312 2.671875 -42.3125 C 2.671875 -44.46875 2.96875 -46.515625 3.5625 -48.453125 C 4.15625 -50.398438 5.03125 -52.070312 6.1875 -53.46875 C 7.34375 -54.875 8.8125 -55.992188 10.59375 -56.828125 C 12.375 -57.671875 14.453125 -58.09375 16.828125 -58.09375 C 18.878906 -58.09375 20.753906 -57.710938 22.453125 -56.953125 C 24.148438 -56.203125 25.601562 -55.207031 26.8125 -53.96875 C 28.03125 -52.726562 28.960938 -51.335938 29.609375 -49.796875 C 30.253906 -48.253906 30.578125 -46.675781 30.578125 -45.0625 Z M 30.578125 -41.015625 "/></g></g></g><g clip-path="url(#b94249e090)"><path fill="#ffc001" d="M 195.363281 51.382812 L 207.183594 39.566406 C 207.953125 38.796875 207.953125 37.546875 207.183594 36.78125 L 195.363281 24.960938 C 194.597656 24.195312 193.347656 24.195312 192.578125 24.960938 C 191.8125 25.730469 191.8125 26.980469 192.578125 27.746094 L 203.003906 38.171875 L 192.578125 48.597656 C 191.8125 49.367188 191.8125 50.613281 192.578125 51.382812 C 192.964844 51.765625 193.46875 51.957031 193.972656 51.957031 C 194.476562 51.957031 194.980469 51.765625 195.363281 51.382812 Z M 206.527344 51.382812 L 218.34375 39.566406 C 219.113281 38.796875 219.113281 37.546875 218.34375 36.78125 L 206.527344 24.960938 C 205.757812 24.195312 204.507812 24.195312 203.738281 24.960938 C 202.972656 25.730469 202.972656 26.980469 203.738281 27.746094 L 214.164062 38.171875 L 203.738281 48.597656 C 202.972656 49.367188 202.972656 50.613281 203.738281 51.382812 C 204.125 51.765625 204.628906 51.957031 205.132812 51.957031 C 205.636719 51.957031 206.140625 51.765625 206.527344 51.382812 Z M 216.292969 51.957031 C 215.789062 51.957031 215.285156 51.765625 214.902344 51.382812 C 214.132812 50.613281 214.132812 49.367188 214.902344 48.597656 L 225.324219 38.171875 L 214.902344 27.746094 C 214.132812 26.980469 214.132812 25.730469 214.902344 24.960938 C 215.671875 24.195312 216.917969 24.195312 217.6875 24.960938 L 229.503906 36.78125 C 230.273438 37.546875 230.273438 38.796875 229.503906 39.566406 L 217.6875 51.382812 C 217.300781 51.765625 216.796875 51.957031 216.292969 51.957031 " fill-opacity="1" fill-rule="nonzero"/></g><g clip-path="url(#3ed5de5060)"><path fill="#ffc001" d="M 56.320312 110.421875 L 56.320312 116.511719 L 43.921875 116.511719 L 37.753906 110.335938 L 56.335938 104.726562 L 55.027344 100.386719 L 17.605469 111.683594 L 8.765625 104.519531 L 12.316406 116.292969 L 12.792969 117.871094 L 33.226562 111.703125 L 42.195312 120.671875 L 56.320312 120.671875 L 56.320312 126.769531 L 60.484375 126.769531 L 60.484375 110.421875 Z M 57.875 97.121094 L 53.511719 82.65625 L 3.917969 97.628906 L 18.109375 109.121094 Z M 2.011719 106.558594 L 4.867188 116.023438 L 9.414062 114.652344 L 6.558594 105.1875 L 2.011719 106.558594 " fill-opacity="1" fill-rule="nonzero"/></g></svg>