<svg xmlns="http://www.w3.org/2000/svg" xmlns:xlink="http://www.w3.org/1999/xlink" width="530" zoomAndPan="magnify" viewBox="0 0 397.5 203.249992" height="271" preserveAspectRatio="xMidYMid meet" version="1.0"><defs><g/><clipPath id="ea3a6b7bef"><path d="M 1 32.253906 L 60.714844 32.253906 L 60.714844 75.59375 L 1 75.59375 Z M 1 32.253906 " clip-rule="nonzero"/></clipPath></defs><g fill="#09487e" fill-opacity="1"><g transform="translate(50.13453, 122.914477)"><g><path d="M 5.484375 -81.296875 L 40.1875 -81.296875 L 40.1875 -70.328125 L 17.125 -70.328125 L 17.125 -45.671875 L 37.21875 -45.671875 L 37.21875 -34.703125 L 17.125 -34.703125 L 17.125 0 L 5.484375 0 Z M 5.484375 -81.296875 "/></g></g></g><g fill="#09487e" fill-opacity="1"><g transform="translate(92.379087, 122.914477)"><g><path d="M 26.828125 -5.9375 L 26.609375 -5.9375 C 25.078125 -3.800781 23.53125 -2.160156 21.96875 -1.015625 C 20.414062 0.117188 18.226562 0.6875 15.40625 0.6875 C 14.039062 0.6875 12.632812 0.472656 11.1875 0.046875 C 9.738281 -0.367188 8.382812 -1.125 7.125 -2.21875 C 5.875 -3.320312 4.847656 -4.882812 4.046875 -6.90625 C 3.253906 -8.925781 2.859375 -11.535156 2.859375 -14.734375 C 2.859375 -18.003906 3.125 -20.875 3.65625 -23.34375 C 4.1875 -25.820312 5.15625 -27.878906 6.5625 -29.515625 C 7.96875 -31.148438 9.847656 -32.363281 12.203125 -33.15625 C 14.566406 -33.957031 17.578125 -34.359375 21.234375 -34.359375 C 22.066406 -34.359375 22.898438 -34.320312 23.734375 -34.25 C 24.578125 -34.175781 25.609375 -34.097656 26.828125 -34.015625 L 26.828125 -40.078125 C 26.828125 -42.054688 26.40625 -43.691406 25.5625 -44.984375 C 24.726562 -46.273438 23.207031 -46.921875 21 -46.921875 C 19.476562 -46.921875 18.085938 -46.425781 16.828125 -45.4375 C 15.578125 -44.445312 14.765625 -43.003906 14.390625 -41.109375 L 3.078125 -41.109375 C 3.460938 -46.359375 5.210938 -50.539062 8.328125 -53.65625 C 9.859375 -55.175781 11.6875 -56.375 13.8125 -57.25 C 15.945312 -58.125 18.34375 -58.5625 21 -58.5625 C 23.4375 -58.5625 25.722656 -58.179688 27.859375 -57.421875 C 29.992188 -56.660156 31.835938 -55.519531 33.390625 -54 C 34.953125 -52.476562 36.1875 -50.578125 37.09375 -48.296875 C 38.007812 -46.015625 38.46875 -43.347656 38.46875 -40.296875 L 38.46875 0 L 26.828125 0 Z M 26.828125 -24.890625 C 25.535156 -25.117188 24.472656 -25.234375 23.640625 -25.234375 C 21.117188 -25.234375 18.960938 -24.640625 17.171875 -23.453125 C 15.390625 -22.273438 14.5 -20.128906 14.5 -17.015625 C 14.5 -14.804688 15.03125 -13.015625 16.09375 -11.640625 C 17.164062 -10.273438 18.648438 -9.59375 20.546875 -9.59375 C 22.523438 -9.59375 24.066406 -10.238281 25.171875 -11.53125 C 26.273438 -12.820312 26.828125 -14.648438 26.828125 -17.015625 Z M 26.828125 -24.890625 "/></g></g></g><g fill="#09487e" fill-opacity="1"><g transform="translate(134.623645, 122.914477)"><g><path d="M 25.921875 -41.671875 C 25.835938 -43.648438 25.207031 -45.132812 24.03125 -46.125 C 22.851562 -47.113281 21.503906 -47.609375 19.984375 -47.609375 C 18.148438 -47.609375 16.738281 -47.019531 15.75 -45.84375 C 14.757812 -44.664062 14.265625 -43.3125 14.265625 -41.78125 C 14.265625 -40.71875 14.53125 -39.671875 15.0625 -38.640625 C 15.601562 -37.617188 16.976562 -36.6875 19.1875 -35.84375 L 26.03125 -33.109375 C 30.363281 -31.429688 33.347656 -29.144531 34.984375 -26.25 C 36.628906 -23.363281 37.453125 -20.207031 37.453125 -16.78125 C 37.453125 -14.34375 37.015625 -12.078125 36.140625 -9.984375 C 35.265625 -7.890625 34.0625 -6.046875 32.53125 -4.453125 C 31.007812 -2.859375 29.179688 -1.601562 27.046875 -0.6875 C 24.921875 0.226562 22.601562 0.6875 20.09375 0.6875 C 17.8125 0.6875 15.640625 0.304688 13.578125 -0.453125 C 11.523438 -1.210938 9.71875 -2.316406 8.15625 -3.765625 C 6.601562 -5.210938 5.332031 -7.019531 4.34375 -9.1875 C 3.351562 -11.351562 2.816406 -13.882812 2.734375 -16.78125 L 13.703125 -16.78125 C 13.929688 -15.1875 14.484375 -13.703125 15.359375 -12.328125 C 16.234375 -10.960938 17.773438 -10.28125 19.984375 -10.28125 C 21.648438 -10.28125 23.148438 -10.832031 24.484375 -11.9375 C 25.816406 -13.039062 26.484375 -14.582031 26.484375 -16.5625 C 26.484375 -18.15625 26.0625 -19.519531 25.21875 -20.65625 C 24.382812 -21.800781 22.867188 -22.796875 20.671875 -23.640625 L 15.078125 -25.6875 C 11.421875 -27.0625 8.546875 -29.097656 6.453125 -31.796875 C 4.359375 -34.492188 3.3125 -37.785156 3.3125 -41.671875 C 3.3125 -44.109375 3.765625 -46.375 4.671875 -48.46875 C 5.585938 -50.5625 6.828125 -52.347656 8.390625 -53.828125 C 9.953125 -55.316406 11.757812 -56.476562 13.8125 -57.3125 C 15.863281 -58.144531 18.070312 -58.5625 20.4375 -58.5625 C 22.789062 -58.5625 24.976562 -58.125 27 -57.25 C 29.019531 -56.375 30.75 -55.191406 32.1875 -53.703125 C 33.632812 -52.222656 34.773438 -50.4375 35.609375 -48.34375 C 36.453125 -46.257812 36.875 -44.035156 36.875 -41.671875 Z M 25.921875 -41.671875 "/></g></g></g><g fill="#09487e" fill-opacity="1"><g transform="translate(174.813073, 122.914477)"><g><path d="M 4.796875 -75.46875 L 16.4375 -75.46875 L 16.4375 -57.890625 L 23.640625 -57.890625 L 23.640625 -48.75 L 16.4375 -48.75 L 16.4375 -16.671875 C 16.4375 -15.296875 16.566406 -14.226562 16.828125 -13.46875 C 17.097656 -12.707031 17.519531 -12.132812 18.09375 -11.75 C 18.664062 -11.375 19.40625 -11.144531 20.3125 -11.0625 C 21.226562 -10.988281 22.335938 -10.953125 23.640625 -10.953125 L 23.640625 0 L 18.84375 0 C 16.175781 0 13.945312 -0.414062 12.15625 -1.25 C 10.363281 -2.09375 8.9375 -3.160156 7.875 -4.453125 C 6.8125 -5.742188 6.03125 -7.207031 5.53125 -8.84375 C 5.039062 -10.476562 4.796875 -12.0625 4.796875 -13.59375 L 4.796875 -48.75 L -1.03125 -48.75 L -1.03125 -57.890625 L 4.796875 -57.890625 Z M 4.796875 -75.46875 "/></g></g></g><g fill="#09487e" fill-opacity="1"><g transform="translate(198.104654, 122.914477)"><g/></g></g><g fill="#0895cd" fill-opacity="1"><g transform="translate(219.35716, 122.914477)"><g><path d="M 5.484375 -81.296875 L 22.71875 -81.296875 C 29.34375 -81.296875 34.40625 -79.445312 37.90625 -75.75 C 41.40625 -72.0625 43.15625 -66.90625 43.15625 -60.28125 L 43.15625 -22.265625 C 43.15625 -14.648438 41.304688 -9.035156 37.609375 -5.421875 C 33.921875 -1.804688 28.613281 0 21.6875 0 L 5.484375 0 Z M 17.125 -10.953125 L 22.484375 -10.953125 C 25.765625 -10.953125 28.085938 -11.769531 29.453125 -13.40625 C 30.828125 -15.050781 31.515625 -17.625 31.515625 -21.125 L 31.515625 -60.28125 C 31.515625 -63.476562 30.863281 -65.953125 29.5625 -67.703125 C 28.269531 -69.453125 25.910156 -70.328125 22.484375 -70.328125 L 17.125 -70.328125 Z M 17.125 -10.953125 "/></g></g></g><g fill="#0895cd" fill-opacity="1"><g transform="translate(267.995492, 122.914477)"><g><path d="M 5.484375 -81.296875 L 22.71875 -81.296875 C 29.34375 -81.296875 34.40625 -79.445312 37.90625 -75.75 C 41.40625 -72.0625 43.15625 -66.90625 43.15625 -60.28125 L 43.15625 -22.265625 C 43.15625 -14.648438 41.304688 -9.035156 37.609375 -5.421875 C 33.921875 -1.804688 28.613281 0 21.6875 0 L 5.484375 0 Z M 17.125 -10.953125 L 22.484375 -10.953125 C 25.765625 -10.953125 28.085938 -11.769531 29.453125 -13.40625 C 30.828125 -15.050781 31.515625 -17.625 31.515625 -21.125 L 31.515625 -60.28125 C 31.515625 -63.476562 30.863281 -65.953125 29.5625 -67.703125 C 28.269531 -69.453125 25.910156 -70.328125 22.484375 -70.328125 L 17.125 -70.328125 Z M 17.125 -10.953125 "/></g></g></g><g fill="#0895cd" fill-opacity="1"><g transform="translate(316.633825, 122.914477)"><g><path d="M 43.15625 -57.890625 L 31.515625 -57.890625 L 31.515625 -60.515625 C 31.515625 -63.171875 30.882812 -65.46875 29.625 -67.40625 C 28.375 -69.351562 26.265625 -70.328125 23.296875 -70.328125 C 21.691406 -70.328125 20.375 -70.019531 19.34375 -69.40625 C 18.320312 -68.800781 17.523438 -68.023438 16.953125 -67.078125 C 16.378906 -66.128906 15.976562 -65.023438 15.75 -63.765625 C 15.519531 -62.503906 15.40625 -61.191406 15.40625 -59.828125 C 15.40625 -58.222656 15.460938 -56.867188 15.578125 -55.765625 C 15.691406 -54.671875 15.976562 -53.722656 16.4375 -52.921875 C 16.894531 -52.117188 17.5625 -51.410156 18.4375 -50.796875 C 19.3125 -50.191406 20.507812 -49.585938 22.03125 -48.984375 L 30.9375 -45.4375 C 33.53125 -44.445312 35.625 -43.285156 37.21875 -41.953125 C 38.820312 -40.617188 40.0625 -39.054688 40.9375 -37.265625 C 41.8125 -35.484375 42.398438 -33.429688 42.703125 -31.109375 C 43.003906 -28.785156 43.15625 -26.140625 43.15625 -23.171875 C 43.15625 -19.753906 42.8125 -16.578125 42.125 -13.640625 C 41.445312 -10.710938 40.328125 -8.203125 38.765625 -6.109375 C 37.203125 -4.015625 35.125 -2.359375 32.53125 -1.140625 C 29.945312 0.078125 26.789062 0.6875 23.0625 0.6875 C 20.25 0.6875 17.625 0.191406 15.1875 -0.796875 C 12.75 -1.785156 10.65625 -3.132812 8.90625 -4.84375 C 7.15625 -6.5625 5.765625 -8.597656 4.734375 -10.953125 C 3.710938 -13.316406 3.203125 -15.867188 3.203125 -18.609375 L 3.203125 -22.953125 L 14.84375 -22.953125 L 14.84375 -19.296875 C 14.84375 -17.160156 15.46875 -15.234375 16.71875 -13.515625 C 17.976562 -11.804688 20.09375 -10.953125 23.0625 -10.953125 C 25.039062 -10.953125 26.582031 -11.238281 27.6875 -11.8125 C 28.789062 -12.382812 29.628906 -13.179688 30.203125 -14.203125 C 30.773438 -15.234375 31.132812 -16.507812 31.28125 -18.03125 C 31.4375 -19.5625 31.515625 -21.238281 31.515625 -23.0625 C 31.515625 -25.195312 31.4375 -26.945312 31.28125 -28.3125 C 31.132812 -29.6875 30.8125 -30.789062 30.3125 -31.625 C 29.820312 -32.457031 29.132812 -33.140625 28.25 -33.671875 C 27.375 -34.210938 26.21875 -34.785156 24.78125 -35.390625 L 16.4375 -38.8125 C 11.414062 -40.875 8.046875 -43.597656 6.328125 -46.984375 C 4.617188 -50.367188 3.765625 -54.613281 3.765625 -59.71875 C 3.765625 -62.757812 4.179688 -65.648438 5.015625 -68.390625 C 5.859375 -71.128906 7.097656 -73.488281 8.734375 -75.46875 C 10.367188 -77.445312 12.441406 -79.023438 14.953125 -80.203125 C 17.460938 -81.378906 20.394531 -81.96875 23.75 -81.96875 C 26.644531 -81.96875 29.289062 -81.4375 31.6875 -80.375 C 34.082031 -79.3125 36.132812 -77.90625 37.84375 -76.15625 C 39.5625 -74.40625 40.875 -72.441406 41.78125 -70.265625 C 42.695312 -68.097656 43.15625 -65.875 43.15625 -63.59375 Z M 43.15625 -57.890625 "/></g></g></g><g clip-path="url(#ea3a6b7bef)"><path fill="#ffc001" d="M 6.527344 74.453125 L 24.871094 56.109375 C 26.066406 54.917969 26.066406 52.980469 24.871094 51.789062 L 6.527344 33.445312 C 5.332031 32.25 3.398438 32.25 2.203125 33.445312 C 1.007812 34.636719 1.007812 36.574219 2.203125 37.769531 L 18.386719 53.949219 L 2.203125 70.128906 C 1.007812 71.324219 1.007812 73.261719 2.203125 74.453125 C 2.800781 75.050781 3.582031 75.351562 4.363281 75.351562 C 5.148438 75.351562 5.929688 75.050781 6.527344 74.453125 Z M 23.851562 74.453125 L 42.195312 56.109375 C 43.390625 54.917969 43.390625 52.980469 42.195312 51.789062 L 23.851562 33.445312 C 22.65625 32.25 20.722656 32.25 19.527344 33.445312 C 18.332031 34.636719 18.332031 36.574219 19.527344 37.769531 L 35.710938 53.949219 L 19.527344 70.128906 C 18.332031 71.324219 18.332031 73.261719 19.527344 74.453125 C 20.125 75.050781 20.90625 75.351562 21.691406 75.351562 C 22.472656 75.351562 23.253906 75.050781 23.851562 74.453125 Z M 39.015625 75.351562 C 38.230469 75.351562 37.449219 75.050781 36.851562 74.453125 C 35.660156 73.261719 35.660156 71.324219 36.851562 70.128906 L 53.035156 53.949219 L 36.851562 37.769531 C 35.660156 36.574219 35.660156 34.636719 36.851562 33.445312 C 38.046875 32.25 39.980469 32.25 41.175781 33.445312 L 59.519531 51.789062 C 60.714844 52.980469 60.714844 54.917969 59.519531 56.109375 L 41.175781 74.453125 C 40.578125 75.050781 39.796875 75.351562 39.015625 75.351562 " fill-opacity="1" fill-rule="nonzero"/></g></svg>