<svg xmlns="http://www.w3.org/2000/svg" xmlns:xlink="http://www.w3.org/1999/xlink" width="558" zoomAndPan="magnify" viewBox="0 0 418.5 204.749996" height="273" preserveAspectRatio="xMidYMid meet" version="1.0"><defs><g/><clipPath id="d2cce87136"><path d="M 22.175781 21.5625 L 70 21.5625 L 70 80 L 22.175781 80 Z M 22.175781 21.5625 " clip-rule="nonzero"/></clipPath><clipPath id="75c315b2ea"><path d="M 22.175781 21.5625 L 70.28125 21.5625 L 70.28125 80.195312 L 22.175781 80.195312 Z M 22.175781 21.5625 " clip-rule="nonzero"/></clipPath><clipPath id="ebe7a67e87"><path d="M 30.296875 35.023438 L 64.875 35.023438 L 64.875 62 L 30.296875 62 Z M 30.296875 35.023438 " clip-rule="nonzero"/></clipPath></defs><g fill="#09487e" fill-opacity="1"><g transform="translate(36.462954, 124.175665)"><g/></g></g><g fill="#09487e" fill-opacity="1"><g transform="translate(57.876972, 124.175665)"><g><path d="M 43.515625 -58.375 L 31.78125 -58.375 L 31.78125 -61.015625 C 31.78125 -63.703125 31.144531 -66.023438 29.875 -67.984375 C 28.601562 -69.941406 26.472656 -70.921875 23.484375 -70.921875 C 21.867188 -70.921875 20.539062 -70.613281 19.5 -70 C 18.46875 -69.382812 17.664062 -68.597656 17.09375 -67.640625 C 16.519531 -66.679688 16.117188 -65.566406 15.890625 -64.296875 C 15.660156 -63.023438 15.546875 -61.703125 15.546875 -60.328125 C 15.546875 -58.710938 15.601562 -57.347656 15.71875 -56.234375 C 15.832031 -55.117188 16.117188 -54.160156 16.578125 -53.359375 C 17.035156 -52.554688 17.707031 -51.847656 18.59375 -51.234375 C 19.476562 -50.617188 20.6875 -50.003906 22.21875 -49.390625 L 31.203125 -45.8125 C 33.804688 -44.820312 35.914062 -43.65625 37.53125 -42.3125 C 39.144531 -40.96875 40.390625 -39.394531 41.265625 -37.59375 C 42.148438 -35.789062 42.742188 -33.71875 43.046875 -31.375 C 43.359375 -29.03125 43.515625 -26.363281 43.515625 -23.375 C 43.515625 -19.914062 43.164062 -16.707031 42.46875 -13.75 C 41.78125 -10.800781 40.648438 -8.269531 39.078125 -6.15625 C 37.503906 -4.050781 35.410156 -2.382812 32.796875 -1.15625 C 30.191406 0.0703125 27.007812 0.6875 23.25 0.6875 C 20.414062 0.6875 17.769531 0.191406 15.3125 -0.796875 C 12.851562 -1.796875 10.738281 -3.160156 8.96875 -4.890625 C 7.207031 -6.617188 5.804688 -8.671875 4.765625 -11.046875 C 3.734375 -13.429688 3.21875 -16.003906 3.21875 -18.765625 L 3.21875 -23.140625 L 14.96875 -23.140625 L 14.96875 -19.453125 C 14.96875 -17.304688 15.597656 -15.367188 16.859375 -13.640625 C 18.128906 -11.910156 20.257812 -11.046875 23.25 -11.046875 C 25.25 -11.046875 26.804688 -11.332031 27.921875 -11.90625 C 29.035156 -12.488281 29.878906 -13.296875 30.453125 -14.328125 C 31.023438 -15.367188 31.390625 -16.65625 31.546875 -18.1875 C 31.703125 -19.726562 31.78125 -21.414062 31.78125 -23.25 C 31.78125 -25.40625 31.703125 -27.171875 31.546875 -28.546875 C 31.390625 -29.929688 31.0625 -31.046875 30.5625 -31.890625 C 30.0625 -32.734375 29.367188 -33.421875 28.484375 -33.953125 C 27.609375 -34.492188 26.441406 -35.070312 24.984375 -35.6875 L 16.578125 -39.140625 C 11.515625 -41.210938 8.117188 -43.957031 6.390625 -47.375 C 4.660156 -50.789062 3.796875 -55.066406 3.796875 -60.203125 C 3.796875 -63.273438 4.21875 -66.191406 5.0625 -68.953125 C 5.90625 -71.722656 7.148438 -74.101562 8.796875 -76.09375 C 10.453125 -78.09375 12.546875 -79.6875 15.078125 -80.875 C 17.609375 -82.0625 20.566406 -82.65625 23.953125 -82.65625 C 26.867188 -82.65625 29.535156 -82.117188 31.953125 -81.046875 C 34.367188 -79.972656 36.4375 -78.550781 38.15625 -76.78125 C 39.882812 -75.019531 41.207031 -73.046875 42.125 -70.859375 C 43.050781 -68.671875 43.515625 -66.425781 43.515625 -64.125 Z M 43.515625 -58.375 "/></g></g></g><g fill="#09487e" fill-opacity="1"><g transform="translate(104.616454, 124.175665)"><g><path d="M 27.046875 -5.984375 L 26.828125 -5.984375 C 25.285156 -3.835938 23.726562 -2.1875 22.15625 -1.03125 C 20.582031 0.113281 18.378906 0.6875 15.546875 0.6875 C 14.160156 0.6875 12.738281 0.472656 11.28125 0.046875 C 9.820312 -0.367188 8.457031 -1.132812 7.1875 -2.25 C 5.925781 -3.363281 4.890625 -4.9375 4.078125 -6.96875 C 3.273438 -9 2.875 -11.625 2.875 -14.84375 C 2.875 -18.144531 3.140625 -21.039062 3.671875 -23.53125 C 4.210938 -26.03125 5.191406 -28.101562 6.609375 -29.75 C 8.035156 -31.40625 9.9375 -32.632812 12.3125 -33.4375 C 14.695312 -34.25 17.726562 -34.65625 21.40625 -34.65625 C 22.25 -34.65625 23.09375 -34.613281 23.9375 -34.53125 C 24.789062 -34.457031 25.828125 -34.382812 27.046875 -34.3125 L 27.046875 -40.40625 C 27.046875 -42.40625 26.625 -44.054688 25.78125 -45.359375 C 24.9375 -46.660156 23.40625 -47.3125 21.1875 -47.3125 C 19.644531 -47.3125 18.238281 -46.8125 16.96875 -45.8125 C 15.707031 -44.820312 14.882812 -43.363281 14.5 -41.4375 L 3.109375 -41.4375 C 3.492188 -46.738281 5.257812 -50.960938 8.40625 -54.109375 C 9.9375 -55.640625 11.773438 -56.847656 13.921875 -57.734375 C 16.078125 -58.617188 18.5 -59.0625 21.1875 -59.0625 C 23.632812 -59.0625 25.929688 -58.675781 28.078125 -57.90625 C 30.234375 -57.132812 32.097656 -55.984375 33.671875 -54.453125 C 35.242188 -52.921875 36.488281 -51.003906 37.40625 -48.703125 C 38.332031 -46.398438 38.796875 -43.710938 38.796875 -40.640625 L 38.796875 0 L 27.046875 0 Z M 27.046875 -25.09375 C 25.742188 -25.320312 24.671875 -25.4375 23.828125 -25.4375 C 21.296875 -25.4375 19.128906 -24.84375 17.328125 -23.65625 C 15.523438 -22.46875 14.625 -20.300781 14.625 -17.15625 C 14.625 -14.925781 15.160156 -13.117188 16.234375 -11.734375 C 17.304688 -10.359375 18.800781 -9.671875 20.71875 -9.671875 C 22.71875 -9.671875 24.269531 -10.320312 25.375 -11.625 C 26.488281 -12.925781 27.046875 -14.769531 27.046875 -17.15625 Z M 27.046875 -25.09375 "/></g></g></g><g fill="#09487e" fill-opacity="1"><g transform="translate(147.211572, 124.175665)"><g><path d="M 6.328125 -49.15625 L 0.578125 -49.15625 L 0.578125 -58.375 L 6.328125 -58.375 L 6.328125 -66.3125 C 6.328125 -69.15625 6.75 -71.550781 7.59375 -73.5 C 8.4375 -75.457031 9.566406 -77.066406 10.984375 -78.328125 C 12.410156 -79.597656 14.023438 -80.519531 15.828125 -81.09375 C 17.628906 -81.675781 19.488281 -81.96875 21.40625 -81.96875 L 26.828125 -81.96875 L 26.828125 -70.921875 L 21.53125 -70.921875 C 19.226562 -70.921875 18.078125 -69.578125 18.078125 -66.890625 L 18.078125 -58.375 L 26.828125 -58.375 L 26.828125 -49.15625 L 18.078125 -49.15625 L 18.078125 0 L 6.328125 0 Z M 6.328125 -49.15625 "/></g></g></g><g fill="#09487e" fill-opacity="1"><g transform="translate(172.768617, 124.175665)"><g><path d="M 15.546875 -24.75 L 15.546875 -16.8125 C 15.546875 -14.96875 16.0625 -13.546875 17.09375 -12.546875 C 18.132812 -11.546875 19.535156 -11.046875 21.296875 -11.046875 C 23.523438 -11.046875 25.003906 -11.695312 25.734375 -13 C 26.460938 -14.3125 26.898438 -15.617188 27.046875 -16.921875 L 38.796875 -16.921875 C 38.796875 -14.460938 38.390625 -12.160156 37.578125 -10.015625 C 36.773438 -7.867188 35.609375 -6.023438 34.078125 -4.484375 C 32.546875 -2.878906 30.703125 -1.613281 28.546875 -0.6875 C 26.398438 0.226562 23.984375 0.6875 21.296875 0.6875 C 17.691406 0.6875 14.582031 -0.078125 11.96875 -1.609375 C 9.363281 -3.148438 7.367188 -5.1875 5.984375 -7.71875 C 5.140625 -9.25 4.5625 -11.007812 4.25 -13 C 3.945312 -15 3.796875 -17.191406 3.796875 -19.578125 L 3.796875 -38.796875 C 3.796875 -41.171875 3.945312 -43.359375 4.25 -45.359375 C 4.5625 -47.359375 5.140625 -49.125 5.984375 -50.65625 C 7.367188 -53.1875 9.363281 -55.21875 11.96875 -56.75 C 14.582031 -58.289062 17.691406 -59.0625 21.296875 -59.0625 C 23.984375 -59.0625 26.421875 -58.597656 28.609375 -57.671875 C 30.796875 -56.753906 32.632812 -55.46875 34.125 -53.8125 C 35.625 -52.164062 36.773438 -50.226562 37.578125 -48 C 38.390625 -45.78125 38.796875 -43.40625 38.796875 -40.875 L 38.796875 -24.75 Z M 15.546875 -33.96875 L 27.046875 -33.96875 L 27.046875 -40.640625 C 27.046875 -42.867188 26.53125 -44.535156 25.5 -45.640625 C 24.46875 -46.753906 23.066406 -47.3125 21.296875 -47.3125 C 19.535156 -47.3125 18.132812 -46.753906 17.09375 -45.640625 C 16.0625 -44.535156 15.546875 -42.867188 15.546875 -40.640625 Z M 15.546875 -33.96875 "/></g></g></g><g fill="#09487e" fill-opacity="1"><g transform="translate(215.363734, 124.175665)"><g/></g></g><g fill="#0895cd" fill-opacity="1"><g transform="translate(236.812509, 124.175665)"><g><path d="M 5.53125 -81.96875 L 22.90625 -81.96875 C 29.582031 -81.96875 34.6875 -80.101562 38.21875 -76.375 C 41.75 -72.65625 43.515625 -67.457031 43.515625 -60.78125 L 43.515625 -22.453125 C 43.515625 -14.773438 41.648438 -9.113281 37.921875 -5.46875 C 34.203125 -1.820312 28.851562 0 21.875 0 L 5.53125 0 Z M 17.265625 -11.046875 L 22.671875 -11.046875 C 25.972656 -11.046875 28.316406 -11.867188 29.703125 -13.515625 C 31.085938 -15.171875 31.78125 -17.765625 31.78125 -21.296875 L 31.78125 -60.78125 C 31.78125 -64.007812 31.125 -66.503906 29.8125 -68.265625 C 28.507812 -70.035156 26.128906 -70.921875 22.671875 -70.921875 L 17.265625 -70.921875 Z M 17.265625 -11.046875 "/></g></g></g><g fill="#0895cd" fill-opacity="1"><g transform="translate(285.854459, 124.175665)"><g><path d="M 5.53125 -81.96875 L 22.90625 -81.96875 C 29.582031 -81.96875 34.6875 -80.101562 38.21875 -76.375 C 41.75 -72.65625 43.515625 -67.457031 43.515625 -60.78125 L 43.515625 -22.453125 C 43.515625 -14.773438 41.648438 -9.113281 37.921875 -5.46875 C 34.203125 -1.820312 28.851562 0 21.875 0 L 5.53125 0 Z M 17.265625 -11.046875 L 22.671875 -11.046875 C 25.972656 -11.046875 28.316406 -11.867188 29.703125 -13.515625 C 31.085938 -15.171875 31.78125 -17.765625 31.78125 -21.296875 L 31.78125 -60.78125 C 31.78125 -64.007812 31.125 -66.503906 29.8125 -68.265625 C 28.507812 -70.035156 26.128906 -70.921875 22.671875 -70.921875 L 17.265625 -70.921875 Z M 17.265625 -11.046875 "/></g></g></g><g fill="#0895cd" fill-opacity="1"><g transform="translate(334.89641, 124.175665)"><g><path d="M 43.515625 -58.375 L 31.78125 -58.375 L 31.78125 -61.015625 C 31.78125 -63.703125 31.144531 -66.023438 29.875 -67.984375 C 28.601562 -69.941406 26.472656 -70.921875 23.484375 -70.921875 C 21.867188 -70.921875 20.539062 -70.613281 19.5 -70 C 18.46875 -69.382812 17.664062 -68.597656 17.09375 -67.640625 C 16.519531 -66.679688 16.117188 -65.566406 15.890625 -64.296875 C 15.660156 -63.023438 15.546875 -61.703125 15.546875 -60.328125 C 15.546875 -58.710938 15.601562 -57.347656 15.71875 -56.234375 C 15.832031 -55.117188 16.117188 -54.160156 16.578125 -53.359375 C 17.035156 -52.554688 17.707031 -51.847656 18.59375 -51.234375 C 19.476562 -50.617188 20.6875 -50.003906 22.21875 -49.390625 L 31.203125 -45.8125 C 33.804688 -44.820312 35.914062 -43.65625 37.53125 -42.3125 C 39.144531 -40.96875 40.390625 -39.394531 41.265625 -37.59375 C 42.148438 -35.789062 42.742188 -33.71875 43.046875 -31.375 C 43.359375 -29.03125 43.515625 -26.363281 43.515625 -23.375 C 43.515625 -19.914062 43.164062 -16.707031 42.46875 -13.75 C 41.78125 -10.800781 40.648438 -8.269531 39.078125 -6.15625 C 37.503906 -4.050781 35.410156 -2.382812 32.796875 -1.15625 C 30.191406 0.0703125 27.007812 0.6875 23.25 0.6875 C 20.414062 0.6875 17.769531 0.191406 15.3125 -0.796875 C 12.851562 -1.796875 10.738281 -3.160156 8.96875 -4.890625 C 7.207031 -6.617188 5.804688 -8.671875 4.765625 -11.046875 C 3.734375 -13.429688 3.21875 -16.003906 3.21875 -18.765625 L 3.21875 -23.140625 L 14.96875 -23.140625 L 14.96875 -19.453125 C 14.96875 -17.304688 15.597656 -15.367188 16.859375 -13.640625 C 18.128906 -11.910156 20.257812 -11.046875 23.25 -11.046875 C 25.25 -11.046875 26.804688 -11.332031 27.921875 -11.90625 C 29.035156 -12.488281 29.878906 -13.296875 30.453125 -14.328125 C 31.023438 -15.367188 31.390625 -16.65625 31.546875 -18.1875 C 31.703125 -19.726562 31.78125 -21.414062 31.78125 -23.25 C 31.78125 -25.40625 31.703125 -27.171875 31.546875 -28.546875 C 31.390625 -29.929688 31.0625 -31.046875 30.5625 -31.890625 C 30.0625 -32.734375 29.367188 -33.421875 28.484375 -33.953125 C 27.609375 -34.492188 26.441406 -35.070312 24.984375 -35.6875 L 16.578125 -39.140625 C 11.515625 -41.210938 8.117188 -43.957031 6.390625 -47.375 C 4.660156 -50.789062 3.796875 -55.066406 3.796875 -60.203125 C 3.796875 -63.273438 4.21875 -66.191406 5.0625 -68.953125 C 5.90625 -71.722656 7.148438 -74.101562 8.796875 -76.09375 C 10.453125 -78.09375 12.546875 -79.6875 15.078125 -80.875 C 17.609375 -82.0625 20.566406 -82.65625 23.953125 -82.65625 C 26.867188 -82.65625 29.535156 -82.117188 31.953125 -81.046875 C 34.367188 -79.972656 36.4375 -78.550781 38.15625 -76.78125 C 39.882812 -75.019531 41.207031 -73.046875 42.125 -70.859375 C 43.050781 -68.671875 43.515625 -66.425781 43.515625 -64.125 Z M 43.515625 -58.375 "/></g></g></g><g clip-path="url(#d2cce87136)"><path fill="#ffc001" d="M 46.054688 21.597656 L 46.265625 21.597656 L 47.164062 22.0625 C 47.761719 22.375 48.15625 22.578125 48.347656 22.671875 C 48.539062 22.769531 49.195312 23.082031 50.3125 23.609375 C 51.429688 24.140625 52.003906 24.40625 52.042969 24.410156 C 52.082031 24.417969 52.378906 24.542969 52.933594 24.789062 C 53.488281 25.035156 53.914062 25.214844 54.214844 25.332031 C 54.515625 25.453125 54.945312 25.613281 55.511719 25.816406 C 56.078125 26.015625 56.4375 26.144531 56.585938 26.199219 C 56.738281 26.253906 56.921875 26.316406 57.148438 26.390625 C 57.371094 26.464844 57.660156 26.558594 58.011719 26.664062 C 58.367188 26.769531 58.816406 26.898438 59.359375 27.046875 C 59.90625 27.199219 60.433594 27.332031 60.945312 27.449219 C 61.460938 27.566406 61.792969 27.640625 61.941406 27.671875 C 62.089844 27.707031 62.566406 27.796875 63.367188 27.945312 C 64.167969 28.097656 64.671875 28.1875 64.875 28.21875 C 65.078125 28.25 65.574219 28.332031 66.363281 28.460938 C 67.15625 28.585938 67.554688 28.652344 67.566406 28.652344 C 67.578125 28.652344 67.960938 28.726562 68.71875 28.875 C 69.480469 29.027344 69.863281 29.101562 69.867188 29.109375 L 69.875 29.117188 L 69.828125 31.503906 C 69.792969 33.097656 69.714844 35.152344 69.585938 37.675781 C 69.457031 40.199219 69.355469 41.960938 69.28125 42.964844 C 69.207031 43.96875 69.121094 44.828125 69.023438 45.546875 C 68.929688 46.261719 68.816406 46.941406 68.6875 47.582031 C 68.558594 48.222656 68.421875 48.867188 68.273438 49.519531 C 68.121094 50.171875 67.988281 50.742188 67.871094 51.234375 C 67.753906 51.726562 67.613281 52.257812 67.453125 52.824219 C 67.292969 53.390625 67.199219 53.730469 67.164062 53.847656 C 67.132812 53.964844 67.085938 54.117188 67.023438 54.296875 C 66.957031 54.480469 66.882812 54.703125 66.796875 54.96875 C 66.710938 55.238281 66.578125 55.621094 66.398438 56.125 C 66.214844 56.625 66.066406 57.027344 65.949219 57.328125 C 65.832031 57.625 65.6875 57.984375 65.515625 58.398438 C 65.34375 58.816406 65.125 59.320312 64.859375 59.90625 C 64.589844 60.496094 64.429688 60.835938 64.378906 60.933594 C 64.324219 61.027344 64.128906 61.378906 63.792969 61.984375 C 63.457031 62.585938 63.253906 62.945312 63.183594 63.054688 C 63.113281 63.167969 62.949219 63.453125 62.6875 63.90625 C 62.425781 64.359375 62.253906 64.648438 62.171875 64.773438 C 62.09375 64.894531 61.96875 65.085938 61.804688 65.347656 C 61.640625 65.609375 61.503906 65.8125 61.402344 65.957031 C 61.300781 66.101562 61.183594 66.273438 61.050781 66.46875 C 60.917969 66.667969 60.789062 66.851562 60.667969 67.015625 C 60.542969 67.179688 60.449219 67.320312 60.378906 67.433594 C 60.308594 67.542969 60.207031 67.6875 60.074219 67.863281 C 59.941406 68.042969 59.8125 68.21875 59.6875 68.394531 C 59.566406 68.570312 59.433594 68.753906 59.289062 68.9375 C 59.144531 69.125 59.019531 69.285156 58.917969 69.417969 C 58.816406 69.554688 58.601562 69.808594 58.269531 70.179688 C 57.9375 70.554688 57.550781 70.984375 57.101562 71.464844 C 56.652344 71.945312 56.257812 72.355469 55.914062 72.699219 C 55.570312 73.039062 55.34375 73.257812 55.234375 73.347656 C 55.121094 73.4375 54.859375 73.667969 54.449219 74.035156 C 54.035156 74.40625 53.785156 74.628906 53.695312 74.710938 C 53.601562 74.789062 53.378906 74.988281 53.019531 75.300781 C 52.664062 75.617188 52.429688 75.820312 52.316406 75.910156 C 52.203125 76.003906 52.074219 76.109375 51.929688 76.230469 C 51.785156 76.355469 51.585938 76.523438 51.328125 76.738281 C 51.074219 76.949219 50.878906 77.109375 50.746094 77.210938 C 50.609375 77.3125 50.484375 77.402344 50.359375 77.480469 C 50.238281 77.5625 50.011719 77.703125 49.6875 77.898438 C 49.359375 78.097656 49.148438 78.230469 49.046875 78.300781 C 48.945312 78.367188 48.828125 78.441406 48.699219 78.515625 C 48.574219 78.589844 48.4375 78.675781 48.300781 78.773438 C 48.160156 78.867188 48.058594 78.9375 47.996094 78.980469 C 47.933594 79.023438 47.792969 79.097656 47.578125 79.207031 C 47.367188 79.3125 47.109375 79.433594 46.808594 79.574219 C 46.511719 79.710938 46.300781 79.804688 46.183594 79.847656 L 46.007812 79.910156 L 45.816406 79.863281 C 45.6875 79.832031 45.550781 79.777344 45.398438 79.703125 C 45.25 79.628906 45 79.5 44.644531 79.316406 C 44.292969 79.136719 44.089844 79.023438 44.035156 78.980469 C 43.984375 78.9375 43.847656 78.84375 43.628906 78.699219 C 43.410156 78.554688 43.242188 78.449219 43.132812 78.378906 C 43.019531 78.308594 42.800781 78.175781 42.472656 77.980469 C 42.148438 77.78125 41.921875 77.640625 41.800781 77.5625 C 41.679688 77.480469 41.550781 77.390625 41.417969 77.289062 C 41.28125 77.1875 41.128906 77.066406 40.960938 76.929688 C 40.789062 76.789062 40.5625 76.601562 40.277344 76.359375 C 39.996094 76.121094 39.75 75.910156 39.539062 75.734375 C 39.332031 75.558594 39.027344 75.292969 38.628906 74.933594 C 38.226562 74.574219 37.96875 74.351562 37.859375 74.261719 C 37.746094 74.167969 37.5 73.957031 37.121094 73.621094 C 36.742188 73.28125 36.53125 73.09375 36.488281 73.050781 C 36.445312 73.007812 36.253906 72.816406 35.917969 72.480469 C 35.582031 72.144531 35.347656 71.90625 35.214844 71.761719 C 35.078125 71.617188 34.785156 71.296875 34.332031 70.796875 C 33.878906 70.300781 33.605469 69.996094 33.515625 69.882812 C 33.421875 69.773438 33.289062 69.605469 33.113281 69.386719 C 32.9375 69.167969 32.796875 68.992188 32.695312 68.859375 C 32.59375 68.726562 32.492188 68.585938 32.390625 68.441406 C 32.289062 68.296875 32.183594 68.148438 32.070312 67.992188 C 31.960938 67.839844 31.859375 67.699219 31.765625 67.578125 C 31.675781 67.453125 31.597656 67.34375 31.535156 67.246094 C 31.46875 67.152344 31.382812 67.027344 31.269531 66.871094 C 31.15625 66.714844 31.0625 66.578125 30.980469 66.453125 C 30.902344 66.332031 30.792969 66.171875 30.660156 65.972656 C 30.527344 65.777344 30.425781 65.621094 30.355469 65.507812 C 30.285156 65.398438 30.175781 65.21875 30.019531 64.980469 C 29.863281 64.738281 29.761719 64.574219 29.714844 64.484375 C 29.667969 64.390625 29.535156 64.164062 29.316406 63.792969 C 29.09375 63.425781 28.953125 63.183594 28.882812 63.074219 C 28.8125 62.960938 28.640625 62.652344 28.359375 62.152344 C 28.082031 61.648438 27.875 61.269531 27.734375 61.011719 C 27.597656 60.757812 27.472656 60.515625 27.367188 60.292969 C 27.261719 60.066406 27.109375 59.730469 26.917969 59.28125 C 26.726562 58.832031 26.628906 58.601562 26.628906 58.59375 C 26.628906 58.582031 26.535156 58.335938 26.339844 57.855469 C 26.148438 57.375 26 56.996094 25.894531 56.71875 C 25.785156 56.441406 25.636719 56.015625 25.445312 55.449219 C 25.25 54.886719 25.058594 54.28125 24.867188 53.640625 C 24.675781 53 24.460938 52.21875 24.226562 51.300781 C 23.992188 50.378906 23.824219 49.695312 23.730469 49.25 C 23.632812 48.800781 23.5 48.148438 23.328125 47.292969 C 23.15625 46.4375 23.054688 45.875 23.023438 45.609375 C 22.992188 45.34375 22.921875 44.523438 22.816406 43.15625 C 22.707031 41.789062 22.640625 40.757812 22.605469 40.0625 C 22.574219 39.371094 22.539062 38.632812 22.496094 37.851562 C 22.453125 37.070312 22.394531 35.792969 22.316406 34.019531 C 22.242188 32.246094 22.207031 30.992188 22.207031 30.253906 L 22.207031 29.148438 L 22.308594 29.09375 C 22.378906 29.054688 22.570312 29.007812 22.878906 28.957031 C 23.1875 28.902344 23.617188 28.832031 24.160156 28.746094 C 24.707031 28.664062 25.535156 28.523438 26.644531 28.332031 C 27.757812 28.136719 28.554688 28 29.035156 27.914062 C 29.515625 27.828125 30.152344 27.695312 30.941406 27.511719 C 31.730469 27.332031 32.417969 27.160156 32.992188 27 C 33.570312 26.839844 34.066406 26.691406 34.484375 26.550781 C 34.902344 26.414062 35.226562 26.304688 35.460938 26.230469 C 35.695312 26.15625 35.921875 26.082031 36.136719 26.007812 C 36.347656 25.933594 36.777344 25.773438 37.417969 25.527344 C 38.058594 25.28125 38.660156 25.03125 39.21875 24.78125 C 39.78125 24.53125 40.082031 24.402344 40.117188 24.394531 C 40.15625 24.390625 40.425781 24.269531 40.925781 24.035156 C 41.429688 23.800781 41.882812 23.585938 42.289062 23.394531 C 42.695312 23.203125 43.097656 23.007812 43.492188 22.816406 C 43.886719 22.625 44.378906 22.375 44.964844 22.0625 L 45.847656 21.597656 Z M 46.054688 21.597656 " fill-opacity="1" fill-rule="evenodd"/></g><g clip-path="url(#75c315b2ea)"><path stroke-linecap="butt" transform="matrix(0.0320569, 0, 0, 0.0320569, 22.15801, 21.550925)" fill="none" stroke-linejoin="miter" d="M 745.44553 1.457759 L 752.025625 1.457759 L 780.051957 15.958339 C 798.695561 25.706629 811.002776 32.043017 816.973603 34.967504 C 822.94443 38.013844 843.415838 47.762134 878.265973 64.212372 C 913.116107 80.784464 931.028589 89.07051 932.247125 89.192363 C 933.465662 89.436071 942.726537 93.335386 960.02975 101.012164 C 977.332964 108.688942 990.615008 114.294209 999.997737 117.949817 C 1009.380465 121.727279 1022.784363 126.723278 1040.453138 133.059666 C 1058.121912 139.2742 1069.332445 143.29537 1073.962883 145.00132 C 1078.715174 146.707271 1084.442294 148.656929 1091.509804 150.972148 C 1098.45546 153.287366 1107.472628 156.211853 1118.439453 159.501901 C 1129.528132 162.791949 1143.541298 166.813118 1160.478951 171.443555 C 1177.538458 176.195846 1193.988696 180.338869 1209.95152 183.994478 C 1226.036197 187.650087 1236.393755 189.965305 1241.024192 190.940134 C 1245.65463 192.036817 1260.520771 194.83945 1285.500763 199.469887 C 1310.480754 204.222178 1326.199871 207.024812 1332.536259 207.999641 C 1338.872647 208.97447 1354.348057 211.533396 1378.962487 215.554565 C 1403.698772 219.453881 1416.127841 221.525392 1416.493402 221.525392 C 1416.858963 221.525392 1428.800617 223.840611 1452.440219 228.471048 C 1476.201674 233.223339 1488.143329 235.538558 1488.265182 235.782265 L 1488.50889 236.025973 L 1487.046646 310.478533 C 1485.949964 360.194809 1483.512891 424.289812 1479.491722 503.007249 C 1475.470553 581.724686 1472.302359 636.680667 1469.98714 667.997047 C 1467.671921 699.313427 1464.991141 726.121223 1461.944801 748.542288 C 1459.020314 770.8415 1455.486559 792.04403 1451.46539 812.028023 C 1447.444221 832.012016 1443.179344 852.117863 1438.548906 872.467417 C 1433.796615 892.816971 1429.653592 910.6076 1425.997984 925.961155 C 1422.342375 941.314711 1417.955645 957.886803 1412.959647 975.555578 C 1407.963648 993.224352 1405.039162 1003.825617 1403.942479 1007.481226 C 1402.96765 1011.136834 1401.505407 1015.889125 1399.555749 1021.494392 C 1397.484237 1027.221512 1395.169019 1034.167168 1392.488239 1042.453214 C 1389.807459 1050.861113 1385.664436 1062.802768 1380.05917 1078.521885 C 1374.33205 1094.119148 1369.701613 1106.67007 1366.046004 1116.052799 C 1362.390395 1125.313674 1357.881812 1136.524207 1352.520252 1149.44069 C 1347.158693 1162.479027 1340.334891 1178.198144 1332.048845 1196.476186 C 1323.640945 1214.876083 1318.644947 1225.477347 1317.06085 1228.523688 C 1315.354899 1231.448175 1309.262218 1242.415 1298.782807 1261.302311 C 1288.303396 1280.067768 1281.967008 1291.278301 1279.773643 1294.690202 C 1277.580278 1298.223957 1272.462426 1307.119271 1264.298233 1321.254291 C 1256.134041 1335.38931 1250.772482 1344.406478 1248.213556 1348.305794 C 1245.776483 1352.083256 1241.877168 1358.054083 1236.759316 1366.218276 C 1231.641464 1374.382468 1227.376587 1380.718856 1224.208393 1385.22744 C 1221.040199 1389.736024 1217.384591 1395.097583 1213.241568 1401.190264 C 1209.098545 1407.404798 1205.077375 1413.131919 1201.299913 1418.24977 C 1197.400597 1423.367622 1194.47611 1427.754353 1192.282745 1431.288108 C 1190.08938 1434.700009 1186.921186 1439.208593 1182.778163 1444.692005 C 1178.63514 1450.297272 1174.613971 1455.780685 1170.714655 1461.264097 C 1166.937193 1466.74751 1162.79417 1472.47463 1158.285586 1478.20175 C 1153.777002 1484.050724 1149.877686 1489.046722 1146.709492 1493.189745 C 1143.541298 1497.454622 1136.839349 1505.375107 1126.481792 1516.951201 C 1116.124234 1528.649148 1104.060726 1542.053046 1090.04756 1557.041041 C 1076.034394 1572.029036 1063.727179 1584.823666 1053.00406 1595.546784 C 1042.280942 1606.148049 1035.213432 1612.971851 1031.801531 1615.774485 C 1028.267776 1618.577118 1020.103584 1625.766481 1007.308954 1637.220721 C 994.39247 1648.796815 986.593839 1655.742471 983.791206 1658.301397 C 980.866719 1660.738469 973.921063 1666.953004 962.71053 1676.701293 C 951.621851 1686.571436 944.310634 1692.907824 940.776879 1695.710458 C 937.243124 1698.634944 933.221954 1701.924992 928.713371 1705.702454 C 924.204787 1709.60177 917.990252 1714.841476 909.947913 1721.543425 C 902.027428 1728.12352 895.934747 1733.119518 891.791724 1736.287712 C 887.526848 1739.455906 883.627532 1742.25854 879.728216 1744.695612 C 875.950754 1747.254538 868.883244 1751.641268 858.769394 1757.733949 C 848.53369 1763.948484 841.953595 1768.091507 838.785401 1770.284872 C 835.617207 1772.356383 831.961598 1774.671602 827.940429 1776.986821 C 824.041113 1779.302039 819.776236 1781.982819 815.51136 1785.029159 C 811.12463 1787.953646 807.956436 1790.147011 806.006778 1791.487401 C 804.05712 1792.827791 799.67039 1795.14301 792.968441 1798.554911 C 786.388345 1801.844959 778.346006 1805.622421 768.963278 1810.009151 C 759.702403 1814.274028 753.122308 1817.198514 749.466699 1818.538904 L 743.983286 1820.488562 L 738.012459 1819.026319 C 733.99129 1818.05149 729.726413 1816.345539 724.974122 1814.03032 C 720.343684 1811.715102 712.545053 1807.693932 701.456374 1801.966812 C 690.489548 1796.361546 684.15316 1792.827791 682.447209 1791.487401 C 680.863112 1790.147011 676.598236 1787.222524 669.774433 1782.713941 C 662.950631 1778.205357 657.710925 1774.915309 654.299024 1772.721944 C 650.765269 1770.528579 643.941466 1766.385556 633.705762 1760.292875 C 623.591912 1754.07834 616.524402 1749.69161 612.74694 1747.254538 C 608.969478 1744.695612 604.948309 1741.892979 600.805286 1738.724785 C 596.540409 1735.556591 591.788118 1731.779128 586.548412 1727.514252 C 581.186853 1723.127522 574.119343 1717.278548 565.224029 1709.723624 C 556.450569 1702.290553 548.773791 1695.710458 542.193696 1690.227045 C 535.735454 1684.743632 526.230872 1676.457586 513.801803 1665.247053 C 501.25088 1654.03652 493.208541 1647.090864 489.79664 1644.288231 C 486.262885 1641.363744 478.586107 1634.783649 466.766306 1624.304238 C 454.946505 1613.702973 448.36641 1607.853999 447.02602 1606.51361 C 445.68563 1605.17322 439.714803 1599.202393 429.235392 1588.722981 C 418.755981 1578.24357 411.444764 1570.8105 407.301741 1566.301916 C 403.036864 1561.793332 393.897843 1551.801335 379.762823 1536.204072 C 365.627804 1520.728663 357.09805 1511.224081 354.295417 1507.690326 C 351.37093 1504.278424 347.227907 1499.038719 341.744495 1492.214916 C 336.261082 1485.391114 331.874352 1479.907701 328.706158 1475.764678 C 325.537964 1471.621655 322.369769 1467.234925 319.201575 1462.726341 C 316.033381 1458.217757 312.743334 1453.58732 309.209579 1448.713175 C 305.797677 1443.960884 302.629483 1439.574154 299.704997 1435.796691 C 296.902363 1431.897376 294.465291 1428.485474 292.515633 1425.439134 C 290.444122 1422.514647 287.763342 1418.615331 284.229587 1413.741187 C 280.695832 1408.867042 277.771345 1404.602165 275.212419 1400.70285 C 272.775347 1396.925387 269.363446 1391.929389 265.220423 1385.714855 C 261.0774 1379.622174 257.909206 1374.748029 255.715841 1371.214274 C 253.522476 1367.802373 250.110574 1362.197106 245.23643 1354.764036 C 240.362285 1347.209111 237.194091 1342.091259 235.731847 1339.288626 C 234.269604 1336.364139 230.126581 1329.29663 223.302778 1317.720536 C 216.357122 1306.266296 211.970392 1298.711372 209.777027 1295.29947 C 207.583662 1291.765715 202.222103 1282.13928 193.448642 1266.542017 C 184.797035 1250.8229 178.338793 1239.003099 173.952063 1230.96076 C 169.687187 1223.040275 165.787871 1215.485351 162.497823 1208.539695 C 159.207776 1201.472185 154.455484 1190.992774 148.484657 1176.979608 C 142.51383 1162.966442 139.467489 1155.777078 139.467489 1155.533371 C 139.467489 1155.16781 136.543003 1147.491032 130.450322 1132.503037 C 124.479495 1117.515042 119.849057 1105.695241 116.559009 1097.043634 C 113.147108 1088.392028 108.516671 1075.109983 102.545843 1057.441209 C 96.453162 1039.894288 90.482335 1021.006977 84.511508 1001.022984 C 78.540681 981.038991 71.838732 956.668267 64.527515 928.032667 C 57.216298 899.275213 51.976592 877.95083 49.052105 864.059518 C 46.005765 850.046352 41.862742 829.696798 36.501183 803.010855 C 31.139623 776.324913 27.971429 758.777992 26.9966 750.491946 C 26.021771 742.2059 23.828406 716.61664 20.538359 673.967874 C 17.126457 631.319108 15.054946 599.149753 13.958263 577.459809 C 12.983434 555.891719 11.886752 532.861385 10.546362 508.490662 C 9.205972 484.119938 7.378168 444.273805 4.941096 388.952263 C 2.625877 333.63072 1.529194 294.515709 1.529194 271.485375 L 1.529194 237.000802 L 4.697388 235.294851 C 6.890754 234.076315 12.861581 232.614071 22.488017 231.029974 C 32.114452 229.324024 45.51835 227.130659 62.456003 224.449879 C 79.51551 221.890953 105.348477 217.504223 139.954904 211.533396 C 174.683185 205.440715 199.541323 201.175838 214.529318 198.495058 C 229.517313 195.814279 249.379453 191.671256 273.993883 185.944136 C 298.608314 180.338869 320.054551 174.97731 337.967033 169.981312 C 356.001368 164.985314 371.476777 160.354876 384.515114 155.968146 C 397.553452 151.703269 407.667302 148.291368 414.978519 145.976149 C 422.289736 143.660931 429.357246 141.345712 436.059195 139.030493 C 442.63929 136.715274 456.043188 131.719276 476.027181 124.042498 C 496.011175 116.36572 514.776632 108.567089 532.201699 100.768457 C 549.74862 92.969826 559.131348 88.948656 560.228031 88.704949 C 561.446567 88.583095 569.854467 84.805633 585.45173 77.494416 C 601.170846 70.183199 615.305866 63.48125 627.978642 57.510423 C 640.651419 51.539596 653.202341 45.446915 665.509557 39.476088 C 677.816772 33.50526 693.170328 25.706629 711.44837 15.958339 L 738.987288 1.457759 Z M 745.44553 1.457759 " stroke="#000000" stroke-width="2" stroke-opacity="1" stroke-miterlimit="4"/></g><g clip-path="url(#ebe7a67e87)"><path fill="#ffffff" d="M 41.769531 52.929688 L 58.242188 36.457031 C 59.660156 35.039062 61.957031 35.039062 63.375 36.457031 C 64.792969 37.875 64.792969 40.175781 63.375 41.59375 L 44.355469 60.613281 C 44.351562 60.621094 44.34375 60.625 44.335938 60.632812 C 42.917969 62.050781 40.621094 62.050781 39.203125 60.632812 L 38.515625 59.949219 L 38.515625 59.945312 L 31.71875 53.148438 C 30.300781 51.730469 30.300781 49.429688 31.71875 48.011719 C 33.136719 46.59375 35.433594 46.59375 36.851562 48.011719 L 41.769531 52.929688 " fill-opacity="1" fill-rule="evenodd"/></g></svg>