<svg xmlns="http://www.w3.org/2000/svg" xmlns:xlink="http://www.w3.org/1999/xlink" width="1089" zoomAndPan="magnify" viewBox="0 0 816.75 293.999989" height="392" preserveAspectRatio="xMidYMid meet" version="1.0"><defs><g/><clipPath id="ffaf44ea01"><path d="M 29.292969 79.585938 L 73.730469 79.585938 L 73.730469 124 L 29.292969 124 Z M 29.292969 79.585938 " clip-rule="nonzero"/></clipPath><clipPath id="aaa8458f40"><path d="M 49.542969 38.960938 L 84.835938 38.960938 L 84.835938 74.253906 L 49.542969 74.253906 Z M 49.542969 38.960938 " clip-rule="nonzero"/></clipPath><clipPath id="a7ae8858cc"><path d="M 49.128906 38.550781 L 85.246094 38.550781 L 85.246094 39.375 L 49.128906 39.375 Z M 84.421875 39.375 L 85.246094 39.375 L 85.246094 73.84375 L 84.421875 73.84375 Z M 49.128906 39.375 L 49.953125 39.375 L 49.953125 73.84375 L 49.128906 73.84375 Z M 49.128906 73.84375 L 85.246094 73.84375 L 85.246094 74.667969 L 49.128906 74.667969 Z M 49.128906 73.84375 " clip-rule="nonzero"/></clipPath><clipPath id="61214f2de7"><path d="M 0 41.777344 L 42.269531 41.777344 L 42.269531 78.625 L 0 78.625 Z M 0 41.777344 " clip-rule="nonzero"/></clipPath></defs><g fill="#09487e" fill-opacity="1"><g transform="translate(67.616535, 178.820935)"><g><path d="M 62.71875 -84.109375 L 45.796875 -84.109375 L 45.796875 -87.9375 C 45.796875 -91.800781 44.878906 -95.144531 43.046875 -97.96875 C 41.222656 -100.789062 38.15625 -102.203125 33.84375 -102.203125 C 31.519531 -102.203125 29.609375 -101.757812 28.109375 -100.875 C 26.617188 -99.988281 25.457031 -98.851562 24.625 -97.46875 C 23.800781 -96.082031 23.222656 -94.476562 22.890625 -92.65625 C 22.554688 -90.832031 22.390625 -88.925781 22.390625 -86.9375 C 22.390625 -84.613281 22.472656 -82.648438 22.640625 -81.046875 C 22.804688 -79.441406 23.222656 -78.054688 23.890625 -76.890625 C 24.554688 -75.734375 25.523438 -74.710938 26.796875 -73.828125 C 28.066406 -72.941406 29.804688 -72.054688 32.015625 -71.171875 L 44.953125 -66.03125 C 48.710938 -64.59375 51.753906 -62.90625 54.078125 -60.96875 C 56.398438 -59.03125 58.195312 -56.757812 59.46875 -54.15625 C 60.75 -51.5625 61.609375 -48.578125 62.046875 -45.203125 C 62.492188 -41.835938 62.71875 -37.992188 62.71875 -33.671875 C 62.71875 -28.703125 62.21875 -24.085938 61.21875 -19.828125 C 60.21875 -15.566406 58.582031 -11.914062 56.3125 -8.875 C 54.050781 -5.832031 51.039062 -3.425781 47.28125 -1.65625 C 43.519531 0.113281 38.929688 1 33.515625 1 C 29.421875 1 25.601562 0.28125 22.0625 -1.15625 C 18.519531 -2.59375 15.476562 -4.554688 12.9375 -7.046875 C 10.394531 -9.535156 8.375 -12.492188 6.875 -15.921875 C 5.382812 -19.347656 4.640625 -23.054688 4.640625 -27.046875 L 4.640625 -33.34375 L 21.5625 -33.34375 L 21.5625 -28.03125 C 21.5625 -24.9375 22.472656 -22.144531 24.296875 -19.65625 C 26.128906 -17.164062 29.203125 -15.921875 33.515625 -15.921875 C 36.390625 -15.921875 38.628906 -16.335938 40.234375 -17.171875 C 41.835938 -18.003906 43.050781 -19.164062 43.875 -20.65625 C 44.707031 -22.144531 45.234375 -23.992188 45.453125 -26.203125 C 45.679688 -28.421875 45.796875 -30.859375 45.796875 -33.515625 C 45.796875 -36.609375 45.679688 -39.148438 45.453125 -41.140625 C 45.234375 -43.128906 44.765625 -44.734375 44.046875 -45.953125 C 43.328125 -47.171875 42.332031 -48.164062 41.0625 -48.9375 C 39.789062 -49.71875 38.101562 -50.550781 36 -51.4375 L 23.890625 -56.40625 C 16.585938 -59.394531 11.691406 -63.347656 9.203125 -68.265625 C 6.710938 -73.191406 5.46875 -79.359375 5.46875 -86.765625 C 5.46875 -91.191406 6.078125 -95.394531 7.296875 -99.375 C 8.515625 -103.351562 10.3125 -106.78125 12.6875 -109.65625 C 15.070312 -112.539062 18.085938 -114.835938 21.734375 -116.546875 C 25.378906 -118.265625 29.640625 -119.125 34.515625 -119.125 C 38.710938 -119.125 42.550781 -118.347656 46.03125 -116.796875 C 49.519531 -115.242188 52.507812 -113.195312 55 -110.65625 C 57.488281 -108.113281 59.394531 -105.265625 60.71875 -102.109375 C 62.050781 -98.960938 62.71875 -95.726562 62.71875 -92.40625 Z M 62.71875 -84.109375 "/></g></g></g><g fill="#09487e" fill-opacity="1"><g transform="translate(134.973053, 178.820935)"><g><path d="M 6.96875 -118.125 L 23.890625 -118.125 L 23.890625 -75.984375 L 24.21875 -75.984375 C 25.988281 -78.640625 28.117188 -80.820312 30.609375 -82.53125 C 33.097656 -84.25 36.28125 -85.109375 40.15625 -85.109375 C 42.25 -85.109375 44.347656 -84.75 46.453125 -84.03125 C 48.554688 -83.3125 50.4375 -82.117188 52.09375 -80.453125 C 53.75 -78.796875 55.070312 -76.664062 56.0625 -74.0625 C 57.0625 -71.46875 57.5625 -68.289062 57.5625 -64.53125 L 57.5625 0 L 40.640625 0 L 40.640625 -58.234375 C 40.640625 -61.328125 39.921875 -63.757812 38.484375 -65.53125 C 37.046875 -67.300781 35.003906 -68.1875 32.359375 -68.1875 C 29.148438 -68.1875 26.9375 -67.191406 25.71875 -65.203125 C 24.5 -63.210938 23.890625 -60.335938 23.890625 -56.578125 L 23.890625 0 L 6.96875 0 Z M 6.96875 -118.125 "/></g></g></g><g fill="#09487e" fill-opacity="1"><g transform="translate(199.509272, 178.820935)"><g><path d="M 38.984375 -8.625 L 38.65625 -8.625 C 36.445312 -5.53125 34.207031 -3.148438 31.9375 -1.484375 C 29.664062 0.171875 26.484375 1 22.390625 1 C 20.398438 1 18.351562 0.691406 16.25 0.078125 C 14.15625 -0.523438 12.191406 -1.628906 10.359375 -3.234375 C 8.535156 -4.835938 7.039062 -7.101562 5.875 -10.03125 C 4.71875 -12.96875 4.140625 -16.757812 4.140625 -21.40625 C 4.140625 -26.15625 4.523438 -30.328125 5.296875 -33.921875 C 6.078125 -37.515625 7.488281 -40.5 9.53125 -42.875 C 11.582031 -45.257812 14.320312 -47.03125 17.75 -48.1875 C 21.175781 -49.351562 25.546875 -49.9375 30.859375 -49.9375 C 32.078125 -49.9375 33.289062 -49.878906 34.5 -49.765625 C 35.71875 -49.660156 37.210938 -49.550781 38.984375 -49.4375 L 38.984375 -58.234375 C 38.984375 -61.109375 38.375 -63.484375 37.15625 -65.359375 C 35.945312 -67.242188 33.738281 -68.1875 30.53125 -68.1875 C 28.3125 -68.1875 26.289062 -67.46875 24.46875 -66.03125 C 22.644531 -64.59375 21.457031 -62.488281 20.90625 -59.71875 L 4.484375 -59.71875 C 5.035156 -67.351562 7.578125 -73.4375 12.109375 -77.96875 C 14.316406 -80.1875 16.96875 -81.929688 20.0625 -83.203125 C 23.164062 -84.472656 26.65625 -85.109375 30.53125 -85.109375 C 34.0625 -85.109375 37.375 -84.554688 40.46875 -83.453125 C 43.570312 -82.347656 46.253906 -80.6875 48.515625 -78.46875 C 50.785156 -76.257812 52.582031 -73.492188 53.90625 -70.171875 C 55.238281 -66.859375 55.90625 -62.988281 55.90625 -58.5625 L 55.90625 0 L 38.984375 0 Z M 38.984375 -36.171875 C 37.109375 -36.503906 35.5625 -36.671875 34.34375 -36.671875 C 30.695312 -36.671875 27.570312 -35.8125 24.96875 -34.09375 C 22.363281 -32.375 21.0625 -29.25 21.0625 -24.71875 C 21.0625 -21.507812 21.835938 -18.910156 23.390625 -16.921875 C 24.941406 -14.929688 27.097656 -13.9375 29.859375 -13.9375 C 32.734375 -13.9375 34.972656 -14.875 36.578125 -16.75 C 38.179688 -18.632812 38.984375 -21.289062 38.984375 -24.71875 Z M 38.984375 -36.171875 "/></g></g></g><g fill="#09487e" fill-opacity="1"><g transform="translate(260.893324, 178.820935)"><g><path d="M 6.96875 -84.109375 L 23.890625 -84.109375 L 23.890625 -76.484375 C 25.992188 -78.910156 28.148438 -80.953125 30.359375 -82.609375 C 32.566406 -84.273438 35.773438 -85.109375 39.984375 -85.109375 C 46.953125 -85.109375 51.875 -82.453125 54.75 -77.140625 C 55.75 -75.265625 56.46875 -72.941406 56.90625 -70.171875 C 57.34375 -67.410156 57.5625 -63.707031 57.5625 -59.0625 L 57.5625 -27.046875 C 57.5625 -20.960938 57.394531 -16.484375 57.0625 -13.609375 C 56.738281 -10.734375 56.023438 -8.410156 54.921875 -6.640625 C 53.484375 -4.421875 51.628906 -2.59375 49.359375 -1.15625 C 47.085938 0.28125 43.90625 1 39.8125 1 C 36.5 1 33.539062 0.253906 30.9375 -1.234375 C 28.34375 -2.734375 26.101562 -4.863281 24.21875 -7.625 L 23.890625 -7.625 L 23.890625 34.015625 L 6.96875 34.015625 Z M 40.640625 -56.734375 C 40.640625 -60.171875 39.976562 -62.9375 38.65625 -65.03125 C 37.332031 -67.132812 35.234375 -68.1875 32.359375 -68.1875 C 29.804688 -68.1875 27.753906 -67.21875 26.203125 -65.28125 C 24.660156 -63.34375 23.890625 -60.828125 23.890625 -57.734375 L 23.890625 -25.046875 C 23.890625 -22.390625 24.691406 -20.203125 26.296875 -18.484375 C 27.898438 -16.773438 29.921875 -15.921875 32.359375 -15.921875 C 35.554688 -15.921875 37.734375 -16.914062 38.890625 -18.90625 C 40.054688 -20.90625 40.640625 -23.226562 40.640625 -25.875 Z M 40.640625 -56.734375 "/></g></g></g><g fill="#09487e" fill-opacity="1"><g transform="translate(325.429542, 178.820935)"><g><path d="M 22.390625 -35.671875 L 22.390625 -24.21875 C 22.390625 -21.5625 23.132812 -19.515625 24.625 -18.078125 C 26.125 -16.640625 28.144531 -15.921875 30.6875 -15.921875 C 33.894531 -15.921875 36.023438 -16.859375 37.078125 -18.734375 C 38.128906 -20.617188 38.765625 -22.503906 38.984375 -24.390625 L 55.90625 -24.390625 C 55.90625 -20.847656 55.320312 -17.523438 54.15625 -14.421875 C 53 -11.328125 51.316406 -8.675781 49.109375 -6.46875 C 46.898438 -4.144531 44.242188 -2.316406 41.140625 -0.984375 C 38.046875 0.335938 34.5625 1 30.6875 1 C 25.488281 1 21.007812 -0.101562 17.25 -2.3125 C 13.488281 -4.53125 10.613281 -7.460938 8.625 -11.109375 C 7.40625 -13.328125 6.570312 -15.875 6.125 -18.75 C 5.6875 -21.625 5.46875 -24.773438 5.46875 -28.203125 L 5.46875 -55.90625 C 5.46875 -59.332031 5.6875 -62.484375 6.125 -65.359375 C 6.570312 -68.242188 7.40625 -70.789062 8.625 -73 C 10.613281 -76.644531 13.488281 -79.570312 17.25 -81.78125 C 21.007812 -84 25.488281 -85.109375 30.6875 -85.109375 C 34.5625 -85.109375 38.070312 -84.441406 41.21875 -83.109375 C 44.375 -81.785156 47.03125 -79.9375 49.1875 -77.5625 C 51.34375 -75.1875 53 -72.394531 54.15625 -69.1875 C 55.320312 -65.976562 55.90625 -62.546875 55.90625 -58.890625 L 55.90625 -35.671875 Z M 22.390625 -48.9375 L 38.984375 -48.9375 L 38.984375 -58.5625 C 38.984375 -61.769531 38.238281 -64.175781 36.75 -65.78125 C 35.257812 -67.382812 33.238281 -68.1875 30.6875 -68.1875 C 28.144531 -68.1875 26.125 -67.382812 24.625 -65.78125 C 23.132812 -64.175781 22.390625 -61.769531 22.390625 -58.5625 Z M 22.390625 -48.9375 "/></g></g></g><g fill="#09487e" fill-opacity="1"><g transform="translate(386.813594, 178.820935)"><g><path d="M 37.65625 -60.5625 C 37.550781 -63.4375 36.640625 -65.59375 34.921875 -67.03125 C 33.210938 -68.46875 31.25 -69.1875 29.03125 -69.1875 C 26.375 -69.1875 24.328125 -68.328125 22.890625 -66.609375 C 21.453125 -64.898438 20.734375 -62.9375 20.734375 -60.71875 C 20.734375 -59.175781 21.117188 -57.65625 21.890625 -56.15625 C 22.671875 -54.664062 24.664062 -53.3125 27.875 -52.09375 L 37.828125 -48.109375 C 44.128906 -45.679688 48.46875 -42.363281 50.84375 -38.15625 C 53.226562 -33.957031 54.421875 -29.367188 54.421875 -24.390625 C 54.421875 -20.847656 53.78125 -17.554688 52.5 -14.515625 C 51.226562 -11.472656 49.488281 -8.789062 47.28125 -6.46875 C 45.070312 -4.144531 42.414062 -2.316406 39.3125 -0.984375 C 36.21875 0.335938 32.847656 1 29.203125 1 C 25.878906 1 22.722656 0.445312 19.734375 -0.65625 C 16.753906 -1.769531 14.128906 -3.375 11.859375 -5.46875 C 9.597656 -7.570312 7.742188 -10.195312 6.296875 -13.34375 C 4.859375 -16.5 4.085938 -20.179688 3.984375 -24.390625 L 19.90625 -24.390625 C 20.238281 -22.066406 21.039062 -19.910156 22.3125 -17.921875 C 23.582031 -15.929688 25.820312 -14.9375 29.03125 -14.9375 C 31.46875 -14.9375 33.648438 -15.738281 35.578125 -17.34375 C 37.515625 -18.945312 38.484375 -21.1875 38.484375 -24.0625 C 38.484375 -26.382812 37.875 -28.375 36.65625 -30.03125 C 35.445312 -31.6875 33.238281 -33.125 30.03125 -34.34375 L 21.90625 -37.328125 C 16.59375 -39.316406 12.414062 -42.273438 9.375 -46.203125 C 6.332031 -50.128906 4.8125 -54.914062 4.8125 -60.5625 C 4.8125 -64.09375 5.472656 -67.378906 6.796875 -70.421875 C 8.128906 -73.460938 9.925781 -76.0625 12.1875 -78.21875 C 14.457031 -80.375 17.082031 -82.0625 20.0625 -83.28125 C 23.050781 -84.5 26.265625 -85.109375 29.703125 -85.109375 C 33.128906 -85.109375 36.304688 -84.472656 39.234375 -83.203125 C 42.171875 -81.929688 44.6875 -80.21875 46.78125 -78.0625 C 48.882812 -75.90625 50.546875 -73.304688 51.765625 -70.265625 C 52.984375 -67.222656 53.59375 -63.988281 53.59375 -60.5625 Z M 37.65625 -60.5625 "/></g></g></g><g fill="#000000" fill-opacity="1"><g transform="translate(445.217742, 178.820935)"><g/></g></g><g fill="#0895cd" fill-opacity="1"><g transform="translate(476.077599, 178.820935)"><g><path d="M 7.96875 -118.125 L 33.015625 -118.125 C 42.640625 -118.125 49.992188 -115.441406 55.078125 -110.078125 C 60.171875 -104.710938 62.71875 -97.21875 62.71875 -87.59375 L 62.71875 -32.359375 C 62.71875 -21.296875 60.035156 -13.132812 54.671875 -7.875 C 49.304688 -2.625 41.585938 0 31.515625 0 L 7.96875 0 Z M 24.890625 -15.921875 L 32.6875 -15.921875 C 37.4375 -15.921875 40.804688 -17.109375 42.796875 -19.484375 C 44.796875 -21.867188 45.796875 -25.601562 45.796875 -30.6875 L 45.796875 -87.59375 C 45.796875 -92.238281 44.851562 -95.832031 42.96875 -98.375 C 41.09375 -100.925781 37.664062 -102.203125 32.6875 -102.203125 L 24.890625 -102.203125 Z M 24.890625 -15.921875 "/></g></g></g><g fill="#0895cd" fill-opacity="1"><g transform="translate(546.752217, 178.820935)"><g><path d="M 22.390625 -35.671875 L 22.390625 -24.21875 C 22.390625 -21.5625 23.132812 -19.515625 24.625 -18.078125 C 26.125 -16.640625 28.144531 -15.921875 30.6875 -15.921875 C 33.894531 -15.921875 36.023438 -16.859375 37.078125 -18.734375 C 38.128906 -20.617188 38.765625 -22.503906 38.984375 -24.390625 L 55.90625 -24.390625 C 55.90625 -20.847656 55.320312 -17.523438 54.15625 -14.421875 C 53 -11.328125 51.316406 -8.675781 49.109375 -6.46875 C 46.898438 -4.144531 44.242188 -2.316406 41.140625 -0.984375 C 38.046875 0.335938 34.5625 1 30.6875 1 C 25.488281 1 21.007812 -0.101562 17.25 -2.3125 C 13.488281 -4.53125 10.613281 -7.460938 8.625 -11.109375 C 7.40625 -13.328125 6.570312 -15.875 6.125 -18.75 C 5.6875 -21.625 5.46875 -24.773438 5.46875 -28.203125 L 5.46875 -55.90625 C 5.46875 -59.332031 5.6875 -62.484375 6.125 -65.359375 C 6.570312 -68.242188 7.40625 -70.789062 8.625 -73 C 10.613281 -76.644531 13.488281 -79.570312 17.25 -81.78125 C 21.007812 -84 25.488281 -85.109375 30.6875 -85.109375 C 34.5625 -85.109375 38.070312 -84.441406 41.21875 -83.109375 C 44.375 -81.785156 47.03125 -79.9375 49.1875 -77.5625 C 51.34375 -75.1875 53 -72.394531 54.15625 -69.1875 C 55.320312 -65.976562 55.90625 -62.546875 55.90625 -58.890625 L 55.90625 -35.671875 Z M 22.390625 -48.9375 L 38.984375 -48.9375 L 38.984375 -58.5625 C 38.984375 -61.769531 38.238281 -64.175781 36.75 -65.78125 C 35.257812 -67.382812 33.238281 -68.1875 30.6875 -68.1875 C 28.144531 -68.1875 26.125 -67.382812 24.625 -65.78125 C 23.132812 -64.175781 22.390625 -61.769531 22.390625 -58.5625 Z M 22.390625 -48.9375 "/></g></g></g><g fill="#0895cd" fill-opacity="1"><g transform="translate(608.136269, 178.820935)"><g><path d="M 6.96875 -84.109375 L 23.890625 -84.109375 L 23.890625 -75.984375 L 24.21875 -75.984375 C 25.988281 -78.640625 28.117188 -80.820312 30.609375 -82.53125 C 33.097656 -84.25 36.28125 -85.109375 40.15625 -85.109375 C 43.800781 -85.109375 46.835938 -84.222656 49.265625 -82.453125 C 51.703125 -80.679688 53.695312 -78.75 55.25 -76.65625 C 57.351562 -78.96875 59.675781 -80.953125 62.21875 -82.609375 C 64.757812 -84.273438 68.296875 -85.109375 72.828125 -85.109375 C 74.929688 -85.109375 77.085938 -84.75 79.296875 -84.03125 C 81.515625 -83.3125 83.507812 -82.117188 85.28125 -80.453125 C 87.050781 -78.796875 88.488281 -76.664062 89.59375 -74.0625 C 90.695312 -71.46875 91.25 -68.289062 91.25 -64.53125 L 91.25 0 L 74.328125 0 L 74.328125 -58.234375 C 74.328125 -61.328125 73.609375 -63.757812 72.171875 -65.53125 C 70.734375 -67.300781 68.6875 -68.1875 66.03125 -68.1875 C 62.820312 -68.1875 60.609375 -67.191406 59.390625 -65.203125 C 58.171875 -63.210938 57.5625 -60.335938 57.5625 -56.578125 L 57.5625 0 L 40.640625 0 L 40.640625 -58.234375 C 40.640625 -61.328125 39.921875 -63.757812 38.484375 -65.53125 C 37.046875 -67.300781 35.003906 -68.1875 32.359375 -68.1875 C 29.148438 -68.1875 26.9375 -67.191406 25.71875 -65.203125 C 24.5 -63.210938 23.890625 -60.335938 23.890625 -56.578125 L 23.890625 0 L 6.96875 0 Z M 6.96875 -84.109375 "/></g></g></g><g fill="#0895cd" fill-opacity="1"><g transform="translate(706.350717, 178.820935)"><g><path d="M 5.46875 -55.90625 C 5.46875 -59.332031 5.6875 -62.484375 6.125 -65.359375 C 6.570312 -68.242188 7.40625 -70.789062 8.625 -73 C 10.613281 -76.644531 13.488281 -79.570312 17.25 -81.78125 C 21.007812 -84 25.488281 -85.109375 30.6875 -85.109375 C 35.882812 -85.109375 40.363281 -84 44.125 -81.78125 C 47.882812 -79.570312 50.765625 -76.644531 52.765625 -73 C 53.972656 -70.789062 54.796875 -68.242188 55.234375 -65.359375 C 55.679688 -62.484375 55.90625 -59.332031 55.90625 -55.90625 L 55.90625 -28.203125 C 55.90625 -24.773438 55.679688 -21.625 55.234375 -18.75 C 54.796875 -15.875 53.972656 -13.328125 52.765625 -11.109375 C 50.765625 -7.460938 47.882812 -4.53125 44.125 -2.3125 C 40.363281 -0.101562 35.882812 1 30.6875 1 C 25.488281 1 21.007812 -0.101562 17.25 -2.3125 C 13.488281 -4.53125 10.613281 -7.460938 8.625 -11.109375 C 7.40625 -13.328125 6.570312 -15.875 6.125 -18.75 C 5.6875 -21.625 5.46875 -24.773438 5.46875 -28.203125 Z M 22.390625 -25.546875 C 22.390625 -22.335938 23.132812 -19.929688 24.625 -18.328125 C 26.125 -16.722656 28.144531 -15.921875 30.6875 -15.921875 C 33.238281 -15.921875 35.257812 -16.722656 36.75 -18.328125 C 38.238281 -19.929688 38.984375 -22.335938 38.984375 -25.546875 L 38.984375 -58.5625 C 38.984375 -61.769531 38.238281 -64.175781 36.75 -65.78125 C 35.257812 -67.382812 33.238281 -68.1875 30.6875 -68.1875 C 28.144531 -68.1875 26.125 -67.382812 24.625 -65.78125 C 23.132812 -64.175781 22.390625 -61.769531 22.390625 -58.5625 Z M 22.390625 -25.546875 "/></g></g></g><g clip-path="url(#ffaf44ea01)"><path fill="#88ce28" d="M 51.441406 79.585938 C 39.230469 79.585938 29.292969 89.523438 29.292969 101.734375 C 29.292969 113.949219 39.230469 123.886719 51.441406 123.886719 C 63.65625 123.886719 73.59375 113.949219 73.59375 101.734375 C 73.59375 89.523438 63.65625 79.585938 51.441406 79.585938 Z M 51.441406 79.585938 " fill-opacity="1" fill-rule="nonzero"/></g><g clip-path="url(#aaa8458f40)"><path fill="#ffc001" d="M 49.128906 38.550781 L 85.246094 38.550781 L 85.246094 74.667969 L 49.128906 74.667969 Z M 49.128906 38.550781 " fill-opacity="1" fill-rule="nonzero"/></g><g clip-path="url(#a7ae8858cc)"><path fill="#ffc001" d="M 49.128906 38.550781 L 85.246094 38.550781 L 85.246094 74.667969 L 49.128906 74.667969 Z M 49.128906 38.550781 " fill-opacity="1" fill-rule="nonzero"/></g><path fill="#0895cd" d="M 0.992188 77.855469 L 21.167969 42.902344 L 41.34375 77.855469 Z M 0.992188 77.855469 " fill-opacity="1" fill-rule="nonzero"/><g clip-path="url(#61214f2de7)"><path fill="#0895cd" d="M 42.328125 78.421875 L 0.0117188 78.421875 L 21.167969 41.777344 Z M 1.964844 77.296875 L 40.371094 77.296875 L 21.167969 44.035156 Z M 1.964844 77.296875 " fill-opacity="1" fill-rule="nonzero"/></g></svg>