<?xml version="1.0" encoding="UTF-8"?>
<svg xmlns="http://www.w3.org/2000/svg" xmlns:xlink="http://www.w3.org/1999/xlink" width="375pt" height="374.999991pt" viewBox="0 0 375 374.999991" version="1.2">
<defs>
<clipPath id="clip1">
  <path d="M 24.742188 24.742188 L 350.230469 24.742188 L 350.230469 281 L 24.742188 281 Z M 24.742188 24.742188 "/>
</clipPath>
<clipPath id="clip2">
  <path d="M 117 303 L 258 303 L 258 350.230469 L 117 350.230469 Z M 117 303 "/>
</clipPath>
</defs>
<g id="surface1">
<g clip-path="url(#clip1)" clip-rule="nonzero">
<path style=" stroke:none;fill-rule:nonzero;fill:#808080;fill-opacity:1;" d="M 62.523438 280.484375 L 312.453125 280.484375 C 313.6875 280.484375 314.921875 280.421875 316.15625 280.300781 C 317.386719 280.179688 318.609375 280 319.824219 279.757812 C 321.035156 279.515625 322.234375 279.21875 323.417969 278.859375 C 324.601562 278.5 325.765625 278.082031 326.910156 277.609375 C 328.054688 277.136719 329.171875 276.605469 330.261719 276.023438 C 331.351562 275.441406 332.414062 274.804688 333.441406 274.117188 C 334.46875 273.429688 335.460938 272.695312 336.417969 271.910156 C 337.375 271.125 338.292969 270.292969 339.167969 269.417969 C 340.042969 268.542969 340.871094 267.628906 341.65625 266.671875 C 342.441406 265.714844 343.175781 264.722656 343.863281 263.695312 C 344.550781 262.664062 345.1875 261.605469 345.769531 260.515625 C 346.355469 259.421875 346.882812 258.304688 347.355469 257.164062 C 347.828125 256.019531 348.246094 254.855469 348.605469 253.671875 C 348.964844 252.488281 349.265625 251.289062 349.507812 250.074219 C 349.746094 248.863281 349.929688 247.640625 350.050781 246.40625 C 350.171875 245.175781 350.230469 243.941406 350.230469 242.703125 L 349.882812 242.703125 C 350.121094 241.613281 350.238281 240.507812 350.230469 239.390625 L 350.230469 74.03125 C 350.230469 72.417969 350.152344 70.808594 349.996094 69.199219 C 349.835938 67.59375 349.601562 66 349.285156 64.417969 C 348.96875 62.832031 348.578125 61.269531 348.109375 59.722656 C 347.640625 58.179688 347.097656 56.660156 346.480469 55.171875 C 345.863281 53.679688 345.171875 52.222656 344.410156 50.796875 C 343.652344 49.375 342.820312 47.992188 341.925781 46.648438 C 341.027344 45.304688 340.066406 44.011719 339.042969 42.765625 C 338.019531 41.515625 336.9375 40.320312 335.796875 39.179688 C 334.652344 38.039062 333.460938 36.957031 332.210938 35.929688 C 330.964844 34.90625 329.667969 33.945312 328.328125 33.050781 C 326.984375 32.152344 325.601562 31.324219 324.179688 30.5625 C 322.753906 29.800781 321.296875 29.113281 319.804688 28.496094 C 318.3125 27.878906 316.796875 27.335938 315.25 26.867188 C 313.707031 26.398438 312.144531 26.003906 310.558594 25.691406 C 308.976562 25.375 307.382812 25.140625 305.773438 24.980469 C 304.167969 24.824219 302.558594 24.742188 300.945312 24.742188 L 74.265625 24.742188 C 72.644531 24.734375 71.03125 24.808594 69.417969 24.960938 C 67.804688 25.109375 66.207031 25.339844 64.617188 25.652344 C 63.027344 25.960938 61.457031 26.347656 59.90625 26.8125 C 58.355469 27.273438 56.828125 27.8125 55.332031 28.429688 C 53.832031 29.042969 52.367188 29.730469 50.9375 30.488281 C 49.507812 31.246094 48.117188 32.074219 46.769531 32.96875 C 45.421875 33.863281 44.121094 34.824219 42.863281 35.847656 C 41.609375 36.871094 40.410156 37.953125 39.261719 39.097656 C 38.113281 40.238281 37.027344 41.433594 35.996094 42.683594 C 34.964844 43.933594 34 45.230469 33.097656 46.574219 C 32.195312 47.921875 31.363281 49.304688 30.597656 50.734375 C 29.832031 52.160156 29.140625 53.621094 28.519531 55.117188 C 27.894531 56.609375 27.351562 58.132812 26.878906 59.683594 C 26.40625 61.230469 26.011719 62.800781 25.695312 64.386719 C 25.378906 65.976562 25.140625 67.574219 24.984375 69.1875 C 24.824219 70.796875 24.742188 72.414062 24.742188 74.03125 L 24.742188 239.390625 C 24.738281 240.507812 24.855469 241.613281 25.09375 242.703125 L 24.742188 242.703125 C 24.742188 243.941406 24.804688 245.175781 24.925781 246.40625 C 25.046875 247.640625 25.226562 248.863281 25.46875 250.074219 C 25.710938 251.289062 26.011719 252.488281 26.371094 253.671875 C 26.730469 254.855469 27.144531 256.019531 27.621094 257.164062 C 28.09375 258.304688 28.621094 259.421875 29.203125 260.515625 C 29.789062 261.605469 30.421875 262.664062 31.109375 263.695312 C 31.796875 264.722656 32.535156 265.714844 33.320312 266.671875 C 34.105469 267.628906 34.933594 268.542969 35.808594 269.417969 C 36.683594 270.292969 37.601562 271.125 38.554688 271.910156 C 39.511719 272.695312 40.503906 273.429688 41.535156 274.117188 C 42.5625 274.804688 43.621094 275.441406 44.714844 276.023438 C 45.804688 276.605469 46.921875 277.136719 48.066406 277.609375 C 49.207031 278.082031 50.371094 278.5 51.554688 278.859375 C 52.742188 279.21875 53.941406 279.515625 55.152344 279.757812 C 56.367188 280 57.589844 280.179688 58.820312 280.300781 C 60.050781 280.421875 61.285156 280.484375 62.523438 280.484375 Z M 47.992188 74.03125 C 47.996094 73.179688 48.039062 72.328125 48.125 71.480469 C 48.207031 70.632812 48.335938 69.792969 48.503906 68.957031 C 48.671875 68.121094 48.878906 67.292969 49.128906 66.480469 C 49.375 65.664062 49.664062 64.863281 49.992188 64.078125 C 50.316406 63.289062 50.683594 62.519531 51.085938 61.769531 C 51.488281 61.015625 51.925781 60.289062 52.398438 59.578125 C 52.871094 58.871094 53.378906 58.1875 53.921875 57.527344 C 54.460938 56.871094 55.035156 56.238281 55.636719 55.636719 C 56.238281 55.035156 56.871094 54.460938 57.527344 53.921875 C 58.1875 53.378906 58.871094 52.871094 59.578125 52.398438 C 60.289062 51.925781 61.015625 51.488281 61.769531 51.085938 C 62.519531 50.683594 63.289062 50.316406 64.078125 49.992188 C 64.863281 49.664062 65.664062 49.375 66.480469 49.128906 C 67.292969 48.878906 68.121094 48.671875 68.957031 48.503906 C 69.792969 48.335938 70.632812 48.207031 71.480469 48.125 C 72.328125 48.039062 73.179688 47.996094 74.03125 47.992188 L 300.710938 47.992188 C 301.566406 47.988281 302.421875 48.023438 303.277344 48.101562 C 304.128906 48.179688 304.976562 48.300781 305.820312 48.464844 C 306.660156 48.625 307.492188 48.828125 308.316406 49.070312 C 309.136719 49.316406 309.945312 49.601562 310.738281 49.921875 C 311.53125 50.246094 312.308594 50.609375 313.066406 51.007812 C 313.824219 51.410156 314.5625 51.84375 315.277344 52.316406 C 315.992188 52.789062 316.679688 53.296875 317.347656 53.839844 C 318.011719 54.378906 318.648438 54.949219 319.257812 55.554688 C 319.867188 56.15625 320.445312 56.789062 320.988281 57.449219 C 321.535156 58.109375 322.050781 58.796875 322.527344 59.507812 C 323.007812 60.21875 323.449219 60.949219 323.855469 61.703125 C 324.261719 62.457031 324.632812 63.230469 324.964844 64.023438 C 325.292969 64.8125 325.585938 65.617188 325.835938 66.4375 C 326.085938 67.257812 326.296875 68.085938 326.46875 68.925781 C 326.636719 69.769531 326.765625 70.613281 326.851562 71.46875 C 326.9375 72.320312 326.980469 73.175781 326.984375 74.03125 L 326.984375 201.554688 C 326.984375 202.617188 326.929688 203.675781 326.828125 204.734375 C 326.722656 205.789062 326.566406 206.839844 326.359375 207.878906 C 326.152344 208.921875 325.894531 209.953125 325.585938 210.96875 C 325.277344 211.984375 324.921875 212.984375 324.515625 213.964844 C 324.109375 214.945312 323.652344 215.90625 323.152344 216.84375 C 322.652344 217.777344 322.105469 218.6875 321.515625 219.570312 C 320.925781 220.457031 320.292969 221.308594 319.621094 222.128906 C 318.945312 222.949219 318.234375 223.734375 317.484375 224.488281 C 316.734375 225.238281 315.945312 225.949219 315.125 226.625 C 314.304688 227.296875 313.453125 227.929688 312.570312 228.519531 C 311.6875 229.109375 310.777344 229.65625 309.839844 230.15625 C 308.902344 230.65625 307.941406 231.109375 306.960938 231.515625 C 305.980469 231.925781 304.980469 232.28125 303.964844 232.589844 C 302.949219 232.898438 301.917969 233.15625 300.878906 233.363281 C 299.835938 233.570312 298.785156 233.726562 297.730469 233.828125 C 296.671875 233.933594 295.613281 233.984375 294.550781 233.984375 L 80.425781 233.984375 C 79.363281 233.984375 78.304688 233.933594 77.246094 233.828125 C 76.1875 233.726562 75.140625 233.570312 74.097656 233.363281 C 73.054688 233.15625 72.027344 232.898438 71.011719 232.589844 C 69.996094 232.28125 68.996094 231.925781 68.015625 231.515625 C 67.03125 231.109375 66.074219 230.65625 65.136719 230.15625 C 64.199219 229.65625 63.289062 229.109375 62.40625 228.519531 C 61.523438 227.929688 60.671875 227.296875 59.851562 226.625 C 59.03125 225.949219 58.242188 225.238281 57.492188 224.488281 C 56.742188 223.734375 56.027344 222.949219 55.355469 222.128906 C 54.679688 221.308594 54.050781 220.457031 53.457031 219.570312 C 52.867188 218.6875 52.324219 217.777344 51.824219 216.84375 C 51.320312 215.90625 50.867188 214.945312 50.460938 213.964844 C 50.054688 212.984375 49.699219 211.984375 49.390625 210.96875 C 49.082031 209.953125 48.824219 208.921875 48.617188 207.878906 C 48.410156 206.839844 48.253906 205.789062 48.148438 204.734375 C 48.042969 203.675781 47.992188 202.617188 47.992188 201.554688 Z M 47.992188 74.03125 "/>
</g>
<g clip-path="url(#clip2)" clip-rule="nonzero">
<path style=" stroke:none;fill-rule:nonzero;fill:#808080;fill-opacity:1;" d="M 257.234375 338.605469 C 257.234375 337.84375 257.160156 337.089844 257.011719 336.339844 C 256.863281 335.589844 256.640625 334.863281 256.351562 334.160156 C 256.058594 333.453125 255.699219 332.785156 255.277344 332.148438 C 254.851562 331.515625 254.371094 330.925781 253.832031 330.386719 C 253.289062 329.847656 252.703125 329.367188 252.070312 328.941406 C 251.433594 328.519531 250.765625 328.160156 250.058594 327.867188 C 249.355469 327.574219 248.628906 327.355469 247.878906 327.207031 C 247.128906 327.058594 246.375 326.984375 245.609375 326.984375 L 230.441406 326.984375 C 229.910156 326.984375 229.382812 326.929688 228.863281 326.828125 C 228.34375 326.722656 227.839844 326.570312 227.347656 326.367188 C 226.859375 326.164062 226.394531 325.914062 225.953125 325.621094 C 225.511719 325.328125 225.101562 324.992188 224.726562 324.617188 C 224.351562 324.242188 224.019531 323.832031 223.722656 323.390625 C 223.429688 322.949219 223.179688 322.484375 222.976562 321.996094 C 222.773438 321.503906 222.621094 321 222.515625 320.480469 C 222.414062 319.960938 222.363281 319.433594 222.363281 318.902344 C 222.363281 317.90625 222.265625 316.921875 222.070312 315.945312 C 221.875 314.96875 221.589844 314.019531 221.207031 313.097656 C 220.824219 312.179688 220.359375 311.304688 219.804688 310.476562 C 219.25 309.648438 218.621094 308.882812 217.917969 308.175781 C 217.214844 307.472656 216.449219 306.84375 215.621094 306.289062 C 214.792969 305.738281 213.917969 305.269531 212.996094 304.886719 C 212.078125 304.507812 211.128906 304.21875 210.152344 304.023438 C 209.175781 303.832031 208.1875 303.734375 207.191406 303.734375 L 167.785156 303.734375 C 166.789062 303.734375 165.800781 303.832031 164.824219 304.023438 C 163.847656 304.21875 162.898438 304.507812 161.980469 304.886719 C 161.058594 305.269531 160.183594 305.738281 159.355469 306.289062 C 158.527344 306.84375 157.761719 307.472656 157.058594 308.175781 C 156.351562 308.882812 155.722656 309.648438 155.171875 310.476562 C 154.617188 311.304688 154.148438 312.179688 153.769531 313.097656 C 153.386719 314.019531 153.101562 314.96875 152.90625 315.945312 C 152.710938 316.921875 152.613281 317.90625 152.613281 318.902344 C 152.613281 319.433594 152.5625 319.960938 152.457031 320.480469 C 152.355469 321 152.203125 321.503906 152 321.996094 C 151.796875 322.484375 151.546875 322.949219 151.253906 323.390625 C 150.957031 323.832031 150.621094 324.242188 150.246094 324.617188 C 149.871094 324.992188 149.464844 325.328125 149.023438 325.621094 C 148.582031 325.914062 148.117188 326.164062 147.625 326.367188 C 147.136719 326.570312 146.632812 326.722656 146.109375 326.828125 C 145.589844 326.929688 145.066406 326.984375 144.535156 326.984375 L 129.363281 326.984375 C 128.601562 326.984375 127.84375 327.058594 127.097656 327.207031 C 126.347656 327.355469 125.621094 327.574219 124.917969 327.867188 C 124.210938 328.160156 123.542969 328.519531 122.90625 328.941406 C 122.273438 329.367188 121.683594 329.847656 121.144531 330.386719 C 120.605469 330.925781 120.125 331.515625 119.699219 332.148438 C 119.273438 332.785156 118.917969 333.453125 118.625 334.160156 C 118.332031 334.863281 118.113281 335.589844 117.964844 336.339844 C 117.816406 337.089844 117.742188 337.84375 117.742188 338.605469 C 117.742188 339.371094 117.816406 340.125 117.964844 340.875 C 118.113281 341.625 118.332031 342.351562 118.625 343.054688 C 118.917969 343.761719 119.273438 344.429688 119.699219 345.066406 C 120.125 345.699219 120.605469 346.289062 121.144531 346.828125 C 121.683594 347.367188 122.273438 347.847656 122.90625 348.273438 C 123.542969 348.695312 124.210938 349.054688 124.917969 349.347656 C 125.621094 349.640625 126.347656 349.859375 127.097656 350.007812 C 127.84375 350.15625 128.601562 350.230469 129.363281 350.230469 L 245.609375 350.230469 C 246.375 350.230469 247.128906 350.15625 247.878906 350.007812 C 248.628906 349.859375 249.355469 349.640625 250.058594 349.347656 C 250.765625 349.054688 251.433594 348.695312 252.070312 348.273438 C 252.703125 347.847656 253.289062 347.367188 253.832031 346.828125 C 254.371094 346.289062 254.851562 345.699219 255.277344 345.066406 C 255.699219 344.429688 256.058594 343.761719 256.351562 343.054688 C 256.640625 342.351562 256.863281 341.625 257.011719 340.875 C 257.160156 340.125 257.234375 339.371094 257.234375 338.605469 Z M 257.234375 338.605469 "/>
</g>
<path style=" stroke:none;fill-rule:nonzero;fill:#808080;fill-opacity:1;" d="M 103.382812 210.738281 L 132.097656 210.738281 C 132.679688 210.734375 133.257812 210.671875 133.828125 210.554688 C 134.398438 210.441406 134.953125 210.269531 135.492188 210.042969 C 136.027344 209.820312 136.539062 209.546875 137.023438 209.21875 C 137.507812 208.894531 137.957031 208.527344 138.367188 208.117188 C 138.78125 207.703125 139.148438 207.253906 139.472656 206.769531 C 139.796875 206.285156 140.074219 205.777344 140.296875 205.238281 C 140.523438 204.699219 140.691406 204.144531 140.808594 203.574219 C 140.925781 203.003906 140.984375 202.425781 140.988281 201.84375 L 140.988281 185.335938 C 140.992188 184.644531 140.960938 183.957031 140.894531 183.265625 C 140.828125 182.578125 140.726562 181.894531 140.59375 181.21875 C 140.460938 180.539062 140.292969 179.867188 140.09375 179.207031 C 139.894531 178.542969 139.664062 177.894531 139.398438 177.253906 C 139.136719 176.613281 138.839844 175.988281 138.515625 175.378906 C 138.191406 174.769531 137.835938 174.175781 137.453125 173.601562 C 137.066406 173.027344 136.65625 172.472656 136.21875 171.9375 C 135.78125 171.402344 135.316406 170.890625 134.828125 170.402344 C 134.339844 169.914062 133.824219 169.449219 133.292969 169.011719 C 132.757812 168.570312 132.203125 168.160156 131.625 167.777344 C 131.050781 167.394531 130.457031 167.039062 129.847656 166.710938 C 129.238281 166.386719 128.613281 166.09375 127.972656 165.828125 C 127.335938 165.566406 126.683594 165.332031 126.023438 165.132812 C 125.359375 164.933594 124.691406 164.769531 124.011719 164.632812 C 123.332031 164.5 122.648438 164.402344 121.960938 164.335938 C 121.273438 164.269531 120.582031 164.238281 119.890625 164.238281 L 115.589844 164.238281 C 114.898438 164.238281 114.207031 164.269531 113.519531 164.335938 C 112.832031 164.402344 112.148438 164.5 111.46875 164.632812 C 110.792969 164.769531 110.121094 164.933594 109.457031 165.132812 C 108.796875 165.332031 108.144531 165.566406 107.507812 165.828125 C 106.867188 166.09375 106.242188 166.386719 105.632812 166.710938 C 105.023438 167.039062 104.429688 167.394531 103.855469 167.777344 C 103.277344 168.160156 102.722656 168.570312 102.1875 169.011719 C 101.65625 169.449219 101.144531 169.914062 100.652344 170.402344 C 100.164062 170.890625 99.699219 171.402344 99.261719 171.9375 C 98.824219 172.472656 98.414062 173.027344 98.027344 173.601562 C 97.644531 174.175781 97.289062 174.769531 96.964844 175.378906 C 96.640625 175.988281 96.34375 176.613281 96.082031 177.253906 C 95.816406 177.894531 95.585938 178.542969 95.386719 179.207031 C 95.1875 179.867188 95.019531 180.539062 94.886719 181.21875 C 94.753906 181.894531 94.652344 182.578125 94.585938 183.265625 C 94.519531 183.957031 94.488281 184.644531 94.492188 185.335938 L 94.492188 201.84375 C 94.496094 202.425781 94.554688 203.003906 94.671875 203.574219 C 94.789062 204.144531 94.957031 204.699219 95.183594 205.238281 C 95.410156 205.777344 95.683594 206.285156 96.007812 206.769531 C 96.332031 207.253906 96.699219 207.703125 97.113281 208.117188 C 97.523438 208.527344 97.972656 208.894531 98.457031 209.21875 C 98.941406 209.546875 99.453125 209.820312 99.988281 210.042969 C 100.527344 210.269531 101.082031 210.441406 101.652344 210.554688 C 102.222656 210.671875 102.800781 210.734375 103.382812 210.738281 Z M 103.382812 210.738281 "/>
<path style=" stroke:none;fill-rule:nonzero;fill:#808080;fill-opacity:1;" d="M 173.132812 210.738281 L 201.84375 210.738281 C 202.425781 210.734375 203.003906 210.671875 203.574219 210.554688 C 204.144531 210.441406 204.699219 210.269531 205.238281 210.042969 C 205.777344 209.820312 206.285156 209.546875 206.769531 209.21875 C 207.253906 208.894531 207.703125 208.527344 208.117188 208.117188 C 208.527344 207.703125 208.894531 207.253906 209.21875 206.769531 C 209.546875 206.285156 209.820312 205.777344 210.042969 205.238281 C 210.269531 204.699219 210.441406 204.144531 210.554688 203.574219 C 210.671875 203.003906 210.734375 202.425781 210.738281 201.84375 L 210.738281 138.839844 C 210.738281 138.148438 210.707031 137.457031 210.640625 136.769531 C 210.574219 136.082031 210.476562 135.398438 210.339844 134.71875 C 210.207031 134.039062 210.042969 133.371094 209.839844 132.707031 C 209.640625 132.046875 209.410156 131.394531 209.148438 130.753906 C 208.882812 130.117188 208.589844 129.492188 208.261719 128.882812 C 207.9375 128.269531 207.582031 127.679688 207.199219 127.101562 C 206.816406 126.527344 206.402344 125.972656 205.964844 125.4375 C 205.527344 124.902344 205.0625 124.390625 204.574219 123.902344 C 204.085938 123.414062 203.574219 122.949219 203.039062 122.511719 C 202.503906 122.074219 201.949219 121.660156 201.375 121.277344 C 200.796875 120.894531 200.207031 120.539062 199.597656 120.214844 C 198.984375 119.890625 198.359375 119.59375 197.722656 119.332031 C 197.082031 119.066406 196.429688 118.835938 195.769531 118.636719 C 195.105469 118.4375 194.4375 118.269531 193.757812 118.136719 C 193.078125 118.003906 192.398438 117.902344 191.707031 117.835938 C 191.019531 117.769531 190.328125 117.738281 189.636719 117.742188 L 185.335938 117.742188 C 184.644531 117.738281 183.957031 117.769531 183.265625 117.835938 C 182.578125 117.902344 181.894531 118.003906 181.21875 118.136719 C 180.539062 118.269531 179.867188 118.4375 179.207031 118.636719 C 178.542969 118.835938 177.894531 119.066406 177.253906 119.332031 C 176.613281 119.59375 175.988281 119.890625 175.378906 120.214844 C 174.769531 120.539062 174.175781 120.894531 173.601562 121.277344 C 173.027344 121.660156 172.472656 122.074219 171.9375 122.511719 C 171.402344 122.949219 170.890625 123.414062 170.402344 123.902344 C 169.914062 124.390625 169.449219 124.902344 169.011719 125.4375 C 168.570312 125.972656 168.160156 126.527344 167.777344 127.101562 C 167.394531 127.679688 167.039062 128.269531 166.710938 128.882812 C 166.386719 129.492188 166.09375 130.117188 165.828125 130.753906 C 165.566406 131.394531 165.332031 132.046875 165.132812 132.707031 C 164.933594 133.371094 164.769531 134.039062 164.632812 134.71875 C 164.5 135.398438 164.402344 136.082031 164.335938 136.769531 C 164.269531 137.457031 164.238281 138.148438 164.238281 138.839844 L 164.238281 201.84375 C 164.242188 202.425781 164.300781 203.003906 164.417969 203.574219 C 164.535156 204.144531 164.707031 204.699219 164.929688 205.238281 C 165.15625 205.777344 165.429688 206.285156 165.753906 206.769531 C 166.078125 207.253906 166.449219 207.703125 166.859375 208.117188 C 167.273438 208.527344 167.71875 208.894531 168.203125 209.21875 C 168.6875 209.546875 169.199219 209.820312 169.738281 210.042969 C 170.273438 210.269531 170.828125 210.441406 171.402344 210.554688 C 171.972656 210.671875 172.546875 210.734375 173.132812 210.738281 Z M 173.132812 210.738281 "/>
<path style=" stroke:none;fill-rule:nonzero;fill:#808080;fill-opacity:1;" d="M 242.878906 210.738281 L 271.589844 210.738281 C 272.175781 210.734375 272.75 210.671875 273.324219 210.554688 C 273.894531 210.441406 274.449219 210.269531 274.984375 210.042969 C 275.523438 209.820312 276.035156 209.546875 276.519531 209.21875 C 277.003906 208.894531 277.449219 208.527344 277.863281 208.117188 C 278.273438 207.703125 278.644531 207.253906 278.96875 206.769531 C 279.292969 206.285156 279.566406 205.777344 279.792969 205.238281 C 280.015625 204.699219 280.1875 204.144531 280.304688 203.574219 C 280.421875 203.003906 280.480469 202.425781 280.484375 201.84375 L 280.484375 92.339844 C 280.484375 91.648438 280.453125 90.960938 280.386719 90.269531 C 280.320312 89.582031 280.222656 88.898438 280.089844 88.21875 C 279.957031 87.542969 279.789062 86.871094 279.589844 86.210938 C 279.390625 85.546875 279.15625 84.898438 278.894531 84.257812 C 278.628906 83.617188 278.335938 82.992188 278.011719 82.382812 C 277.683594 81.773438 277.332031 81.179688 276.945312 80.605469 C 276.5625 80.03125 276.152344 79.476562 275.714844 78.941406 C 275.273438 78.40625 274.8125 77.894531 274.320312 77.40625 C 273.832031 76.914062 273.320312 76.453125 272.785156 76.011719 C 272.25 75.574219 271.695312 75.164062 271.121094 74.78125 C 270.546875 74.394531 269.953125 74.042969 269.34375 73.714844 C 268.734375 73.390625 268.109375 73.097656 267.46875 72.832031 C 266.828125 72.570312 266.179688 72.335938 265.515625 72.136719 C 264.855469 71.9375 264.183594 71.769531 263.507812 71.636719 C 262.828125 71.503906 262.144531 71.40625 261.457031 71.339844 C 260.765625 71.273438 260.078125 71.238281 259.386719 71.242188 L 255.085938 71.242188 C 254.394531 71.238281 253.703125 71.273438 253.015625 71.339844 C 252.328125 71.40625 251.644531 71.503906 250.964844 71.636719 C 250.285156 71.769531 249.617188 71.9375 248.953125 72.136719 C 248.292969 72.335938 247.640625 72.570312 247 72.832031 C 246.363281 73.097656 245.738281 73.390625 245.128906 73.714844 C 244.515625 74.042969 243.925781 74.394531 243.347656 74.78125 C 242.773438 75.164062 242.21875 75.574219 241.683594 76.011719 C 241.148438 76.453125 240.636719 76.914062 240.148438 77.40625 C 239.660156 77.894531 239.195312 78.40625 238.757812 78.941406 C 238.320312 79.476562 237.90625 80.03125 237.523438 80.605469 C 237.140625 81.179688 236.785156 81.773438 236.460938 82.382812 C 236.136719 82.992188 235.839844 83.617188 235.578125 84.257812 C 235.3125 84.898438 235.082031 85.546875 234.882812 86.210938 C 234.683594 86.871094 234.515625 87.542969 234.382812 88.21875 C 234.25 88.898438 234.148438 89.582031 234.082031 90.269531 C 234.015625 90.960938 233.984375 91.648438 233.984375 92.339844 L 233.984375 201.84375 C 233.988281 202.425781 234.050781 203.003906 234.167969 203.574219 C 234.28125 204.144531 234.453125 204.699219 234.679688 205.238281 C 234.902344 205.777344 235.179688 206.285156 235.503906 206.769531 C 235.828125 207.253906 236.195312 207.703125 236.609375 208.117188 C 237.019531 208.527344 237.46875 208.894531 237.953125 209.21875 C 238.4375 209.546875 238.945312 209.820312 239.484375 210.042969 C 240.023438 210.269531 240.578125 210.441406 241.148438 210.554688 C 241.71875 210.671875 242.296875 210.734375 242.878906 210.738281 Z M 242.878906 210.738281 "/>
</g>
</svg>
