<?xml version="1.0" encoding="UTF-8"?>
<svg xmlns="http://www.w3.org/2000/svg" xmlns:xlink="http://www.w3.org/1999/xlink" width="12pt" height="12pt" viewBox="0 0 12 12" version="1.1">
<defs>
<clipPath id="clip1">
  <path d="M 1.246094 0 L 10.9375 0 L 10.9375 11.992188 L 1.246094 11.992188 Z M 1.246094 0 "/>
</clipPath>
</defs>
<g id="surface1">
<g clip-path="url(#clip1)" clip-rule="nonzero">
<path style=" stroke:none;fill-rule:nonzero;fill:#808080;fill-opacity:1;" d="M 1.746094 12.390625 L 8.460938 12.390625 C 8.597656 12.390625 8.722656 12.34375 8.808594 12.242188 L 10.800781 10.261719 C 10.898438 10.160156 10.949219 10.039062 10.949219 9.914062 L 10.949219 0.496094 C 10.949219 0.222656 10.726562 0 10.453125 0 L 3.734375 0 C 3.609375 0 3.484375 0.0507812 3.398438 0.136719 L 1.410156 1.996094 C 1.308594 2.082031 1.246094 2.21875 1.246094 2.355469 L 1.246094 11.894531 C 1.246094 12.167969 1.472656 12.390625 1.746094 12.390625 Z M 8.585938 9.046875 L 3.609375 9.046875 C 3.472656 9.046875 3.363281 8.933594 3.363281 8.796875 C 3.363281 8.660156 3.472656 8.550781 3.609375 8.550781 L 8.585938 8.550781 C 8.722656 8.550781 8.835938 8.660156 8.835938 8.796875 C 8.835938 8.933594 8.722656 9.046875 8.585938 9.046875 Z M 8.585938 7.808594 L 3.609375 7.808594 C 3.472656 7.808594 3.363281 7.695312 3.363281 7.558594 C 3.363281 7.421875 3.472656 7.3125 3.609375 7.3125 L 8.585938 7.3125 C 8.722656 7.3125 8.835938 7.421875 8.835938 7.558594 C 8.835938 7.695312 8.722656 7.808594 8.585938 7.808594 Z M 8.585938 6.566406 L 3.609375 6.566406 C 3.472656 6.566406 3.363281 6.457031 3.363281 6.320312 C 3.363281 6.183594 3.472656 6.070312 3.609375 6.070312 L 8.585938 6.070312 C 8.722656 6.070312 8.835938 6.183594 8.835938 6.320312 C 8.835938 6.457031 8.722656 6.566406 8.585938 6.566406 Z M 8.585938 5.328125 L 3.609375 5.328125 C 3.472656 5.328125 3.363281 5.21875 3.363281 5.082031 C 3.363281 4.945312 3.472656 4.832031 3.609375 4.832031 L 8.585938 4.832031 C 8.722656 4.832031 8.835938 4.945312 8.835938 5.082031 C 8.835938 5.21875 8.722656 5.328125 8.585938 5.328125 Z M 8.585938 3.59375 C 8.722656 3.59375 8.835938 3.707031 8.835938 3.839844 C 8.835938 3.976562 8.722656 4.089844 8.585938 4.089844 L 3.609375 4.089844 C 3.472656 4.089844 3.363281 3.976562 3.363281 3.839844 C 3.363281 3.707031 3.472656 3.59375 3.609375 3.59375 Z M 3.734375 0.496094 L 3.734375 2.355469 L 1.746094 2.355469 Z M 3.734375 0.496094 "/>
</g>
</g>
</svg>
