<?xml version="1.0" encoding="UTF-8"?>
<svg xmlns="http://www.w3.org/2000/svg" xmlns:xlink="http://www.w3.org/1999/xlink" width="375pt" height="374.999991pt" viewBox="0 0 375 374.999991" version="1.2">
<g id="surface1">
<path style=" stroke:none;fill-rule:nonzero;fill:#f5f5f5;fill-opacity:1;" d="M 337.210938 0 L 124.328125 0 C 123.089844 0.00390625 121.859375 0.0703125 120.628906 0.195312 C 119.398438 0.320312 118.175781 0.503906 116.964844 0.75 C 115.753906 0.996094 114.554688 1.296875 113.375 1.660156 C 112.191406 2.019531 111.03125 2.441406 109.886719 2.914062 C 108.746094 3.390625 107.632812 3.917969 106.542969 4.503906 C 105.453125 5.089844 104.394531 5.726562 103.367188 6.414062 C 102.339844 7.101562 101.347656 7.835938 100.394531 8.621094 C 99.4375 9.40625 98.523438 10.234375 97.648438 11.109375 C 96.773438 11.984375 95.945312 12.898438 95.160156 13.855469 C 94.375 14.808594 93.640625 15.800781 92.949219 16.828125 C 92.261719 17.855469 91.628906 18.914062 91.042969 20.003906 C 90.457031 21.09375 89.929688 22.207031 89.453125 23.351562 C 88.976562 24.492188 88.558594 25.652344 88.199219 26.835938 C 87.835938 28.015625 87.53125 29.214844 87.289062 30.425781 C 87.042969 31.636719 86.859375 32.859375 86.734375 34.089844 C 86.609375 35.320312 86.542969 36.550781 86.539062 37.789062 L 86.539062 86.539062 L 37.789062 86.539062 C 36.550781 86.542969 35.320312 86.609375 34.089844 86.734375 C 32.859375 86.859375 31.636719 87.042969 30.425781 87.289062 C 29.214844 87.53125 28.015625 87.835938 26.835938 88.199219 C 25.652344 88.558594 24.492188 88.976562 23.351562 89.453125 C 22.207031 89.929688 21.09375 90.457031 20.003906 91.042969 C 18.914062 91.628906 17.855469 92.261719 16.828125 92.949219 C 15.800781 93.640625 14.808594 94.375 13.855469 95.160156 C 12.898438 95.945312 11.984375 96.773438 11.109375 97.648438 C 10.234375 98.523438 9.40625 99.4375 8.621094 100.394531 C 7.835938 101.347656 7.101562 102.339844 6.414062 103.367188 C 5.726562 104.394531 5.089844 105.453125 4.503906 106.542969 C 3.917969 107.632812 3.390625 108.746094 2.914062 109.886719 C 2.441406 111.03125 2.019531 112.191406 1.660156 113.375 C 1.296875 114.554688 0.996094 115.753906 0.75 116.964844 C 0.503906 118.175781 0.320312 119.398438 0.195312 120.628906 C 0.0703125 121.859375 0.00390625 123.089844 0 124.328125 L 0 337.210938 C 0.00390625 338.449219 0.0703125 339.679688 0.195312 340.910156 C 0.320312 342.140625 0.503906 343.363281 0.75 344.574219 C 0.996094 345.785156 1.296875 346.984375 1.660156 348.164062 C 2.019531 349.347656 2.441406 350.507812 2.914062 351.648438 C 3.390625 352.792969 3.917969 353.90625 4.503906 354.996094 C 5.089844 356.085938 5.726562 357.144531 6.414062 358.171875 C 7.101562 359.199219 7.835938 360.191406 8.621094 361.144531 C 9.40625 362.101562 10.234375 363.015625 11.109375 363.890625 C 11.984375 364.765625 12.898438 365.59375 13.855469 366.378906 C 14.808594 367.164062 15.800781 367.898438 16.828125 368.585938 C 17.855469 369.273438 18.914062 369.910156 20.003906 370.496094 C 21.09375 371.082031 22.207031 371.609375 23.351562 372.085938 C 24.492188 372.558594 25.652344 372.980469 26.835938 373.339844 C 28.015625 373.703125 29.214844 374.003906 30.425781 374.25 C 31.636719 374.496094 32.859375 374.679688 34.089844 374.804688 C 35.320312 374.929688 36.550781 374.996094 37.789062 375 L 250.671875 375 C 251.910156 374.996094 253.140625 374.929688 254.371094 374.804688 C 255.601562 374.679688 256.824219 374.496094 258.035156 374.25 C 259.246094 374.003906 260.445312 373.703125 261.625 373.339844 C 262.808594 372.980469 263.96875 372.558594 265.113281 372.085938 C 266.253906 371.609375 267.367188 371.082031 268.457031 370.496094 C 269.546875 369.910156 270.605469 369.273438 271.632812 368.585938 C 272.660156 367.898438 273.652344 367.164062 274.605469 366.378906 C 275.5625 365.59375 276.476562 364.765625 277.351562 363.890625 C 278.226562 363.015625 279.054688 362.101562 279.839844 361.144531 C 280.625 360.191406 281.359375 359.199219 282.050781 358.171875 C 282.738281 357.144531 283.371094 356.085938 283.957031 354.996094 C 284.542969 353.90625 285.070312 352.792969 285.546875 351.648438 C 286.023438 350.507812 286.441406 349.347656 286.800781 348.164062 C 287.164062 346.984375 287.46875 345.785156 287.710938 344.574219 C 287.957031 343.363281 288.140625 342.140625 288.265625 340.910156 C 288.390625 339.679688 288.457031 338.449219 288.460938 337.210938 L 288.460938 288.460938 L 337.210938 288.460938 C 338.449219 288.457031 339.679688 288.390625 340.910156 288.265625 C 342.140625 288.140625 343.363281 287.957031 344.574219 287.710938 C 345.785156 287.46875 346.984375 287.164062 348.164062 286.800781 C 349.347656 286.441406 350.507812 286.023438 351.648438 285.546875 C 352.792969 285.070312 353.90625 284.542969 354.996094 283.957031 C 356.085938 283.371094 357.144531 282.738281 358.171875 282.050781 C 359.199219 281.359375 360.191406 280.625 361.144531 279.839844 C 362.101562 279.054688 363.015625 278.226562 363.890625 277.351562 C 364.765625 276.476562 365.59375 275.5625 366.378906 274.605469 C 367.164062 273.652344 367.898438 272.660156 368.585938 271.632812 C 369.273438 270.605469 369.910156 269.546875 370.496094 268.457031 C 371.082031 267.367188 371.609375 266.253906 372.085938 265.113281 C 372.558594 263.96875 372.980469 262.808594 373.339844 261.625 C 373.703125 260.445312 374.003906 259.246094 374.25 258.035156 C 374.496094 256.824219 374.679688 255.601562 374.804688 254.371094 C 374.929688 253.140625 374.996094 251.910156 375 250.671875 L 375 37.789062 C 374.996094 36.550781 374.929688 35.320312 374.804688 34.089844 C 374.679688 32.859375 374.496094 31.636719 374.25 30.425781 C 374.003906 29.214844 373.703125 28.015625 373.339844 26.835938 C 372.980469 25.652344 372.558594 24.492188 372.085938 23.351562 C 371.609375 22.207031 371.082031 21.09375 370.496094 20.003906 C 369.910156 18.914062 369.273438 17.855469 368.585938 16.828125 C 367.898438 15.800781 367.164062 14.808594 366.378906 13.855469 C 365.59375 12.898438 364.765625 11.984375 363.890625 11.109375 C 363.015625 10.234375 362.101562 9.40625 361.144531 8.621094 C 360.191406 7.835938 359.199219 7.101562 358.171875 6.414062 C 357.144531 5.726562 356.085938 5.089844 354.996094 4.503906 C 353.90625 3.917969 352.792969 3.390625 351.648438 2.914062 C 350.507812 2.441406 349.347656 2.019531 348.164062 1.660156 C 346.984375 1.296875 345.785156 0.996094 344.574219 0.75 C 343.363281 0.503906 342.140625 0.320312 340.910156 0.195312 C 339.679688 0.0703125 338.449219 0.00390625 337.210938 0 Z M 259.617188 337.210938 C 259.617188 337.796875 259.558594 338.378906 259.445312 338.957031 C 259.328125 339.53125 259.160156 340.089844 258.933594 340.632812 C 258.710938 341.175781 258.433594 341.691406 258.109375 342.179688 C 257.78125 342.667969 257.410156 343.121094 256.996094 343.535156 C 256.582031 343.949219 256.128906 344.320312 255.640625 344.648438 C 255.152344 344.972656 254.636719 345.25 254.09375 345.472656 C 253.550781 345.699219 252.992188 345.867188 252.417969 345.980469 C 251.839844 346.097656 251.261719 346.152344 250.671875 346.152344 L 37.789062 346.152344 C 37.203125 346.152344 36.621094 346.097656 36.042969 345.980469 C 35.46875 345.867188 34.910156 345.699219 34.367188 345.472656 C 33.824219 345.25 33.308594 344.972656 32.820312 344.648438 C 32.332031 344.320312 31.878906 343.949219 31.464844 343.535156 C 31.050781 343.121094 30.679688 342.667969 30.351562 342.179688 C 30.027344 341.691406 29.75 341.175781 29.527344 340.632812 C 29.300781 340.089844 29.132812 339.53125 29.019531 338.957031 C 28.902344 338.378906 28.847656 337.796875 28.847656 337.210938 L 28.847656 124.328125 C 28.847656 123.738281 28.902344 123.160156 29.019531 122.582031 C 29.132812 122.007812 29.300781 121.449219 29.527344 120.90625 C 29.75 120.363281 30.027344 119.847656 30.351562 119.359375 C 30.679688 118.871094 31.050781 118.417969 31.464844 118.003906 C 31.878906 117.589844 32.332031 117.21875 32.820312 116.890625 C 33.308594 116.566406 33.824219 116.289062 34.367188 116.066406 C 34.910156 115.839844 35.46875 115.671875 36.042969 115.554688 C 36.621094 115.441406 37.203125 115.382812 37.789062 115.382812 L 250.671875 115.382812 C 251.261719 115.382812 251.839844 115.441406 252.417969 115.554688 C 252.992188 115.671875 253.550781 115.839844 254.09375 116.066406 C 254.636719 116.289062 255.152344 116.566406 255.640625 116.890625 C 256.128906 117.21875 256.582031 117.589844 256.996094 118.003906 C 257.410156 118.417969 257.78125 118.871094 258.109375 119.359375 C 258.433594 119.847656 258.710938 120.363281 258.933594 120.90625 C 259.160156 121.449219 259.328125 122.007812 259.445312 122.582031 C 259.558594 123.160156 259.617188 123.738281 259.617188 124.328125 Z M 346.152344 250.671875 C 346.152344 251.261719 346.097656 251.839844 345.980469 252.417969 C 345.867188 252.992188 345.699219 253.550781 345.472656 254.09375 C 345.25 254.636719 344.972656 255.152344 344.648438 255.640625 C 344.320312 256.128906 343.949219 256.582031 343.535156 256.996094 C 343.121094 257.410156 342.667969 257.78125 342.179688 258.109375 C 341.691406 258.433594 341.175781 258.710938 340.632812 258.933594 C 340.089844 259.160156 339.53125 259.328125 338.957031 259.445312 C 338.378906 259.558594 337.796875 259.617188 337.210938 259.617188 L 288.460938 259.617188 L 288.460938 124.328125 C 288.457031 123.089844 288.390625 121.859375 288.265625 120.628906 C 288.140625 119.398438 287.957031 118.175781 287.710938 116.964844 C 287.46875 115.753906 287.164062 114.554688 286.800781 113.375 C 286.441406 112.191406 286.023438 111.03125 285.546875 109.886719 C 285.070312 108.746094 284.542969 107.632812 283.957031 106.542969 C 283.371094 105.453125 282.738281 104.394531 282.050781 103.367188 C 281.359375 102.339844 280.625 101.347656 279.839844 100.394531 C 279.054688 99.4375 278.226562 98.523438 277.351562 97.648438 C 276.476562 96.773438 275.5625 95.945312 274.605469 95.160156 C 273.652344 94.375 272.660156 93.640625 271.632812 92.949219 C 270.605469 92.261719 269.546875 91.628906 268.457031 91.042969 C 267.367188 90.457031 266.253906 89.929688 265.113281 89.453125 C 263.96875 88.976562 262.808594 88.558594 261.625 88.199219 C 260.445312 87.835938 259.246094 87.53125 258.035156 87.289062 C 256.824219 87.042969 255.601562 86.859375 254.371094 86.734375 C 253.140625 86.609375 251.910156 86.542969 250.671875 86.539062 L 115.382812 86.539062 L 115.382812 37.789062 C 115.382812 37.203125 115.441406 36.621094 115.554688 36.042969 C 115.671875 35.46875 115.839844 34.910156 116.066406 34.367188 C 116.289062 33.824219 116.566406 33.308594 116.890625 32.820312 C 117.21875 32.332031 117.589844 31.878906 118.003906 31.464844 C 118.417969 31.050781 118.871094 30.679688 119.359375 30.351562 C 119.847656 30.027344 120.363281 29.75 120.90625 29.527344 C 121.449219 29.300781 122.007812 29.132812 122.582031 29.019531 C 123.160156 28.902344 123.738281 28.847656 124.328125 28.847656 L 337.210938 28.847656 C 337.796875 28.847656 338.378906 28.902344 338.957031 29.019531 C 339.53125 29.132812 340.089844 29.300781 340.632812 29.527344 C 341.175781 29.75 341.691406 30.027344 342.179688 30.351562 C 342.667969 30.679688 343.121094 31.050781 343.535156 31.464844 C 343.949219 31.878906 344.320312 32.332031 344.648438 32.820312 C 344.972656 33.308594 345.25 33.824219 345.472656 34.367188 C 345.699219 34.910156 345.867188 35.46875 345.980469 36.042969 C 346.097656 36.621094 346.152344 37.203125 346.152344 37.789062 Z M 346.152344 250.671875 "/>
</g>
</svg>
