<?xml version="1.0" encoding="UTF-8"?>
<svg xmlns="http://www.w3.org/2000/svg" xmlns:xlink="http://www.w3.org/1999/xlink" width="12pt" height="12pt" viewBox="0 0 12 12" version="1.1">
<g id="surface1">
<path style=" stroke:none;fill-rule:nonzero;fill:#000000;fill-opacity:1;" d="M 1.820312 8.296875 C 1.800781 8.3125 1.785156 8.335938 1.769531 8.359375 L 0.148438 11.46875 C 0.09375 11.570312 0.113281 11.695312 0.195312 11.777344 C 0.246094 11.828125 0.3125 11.855469 0.378906 11.855469 C 0.421875 11.855469 0.464844 11.84375 0.503906 11.824219 L 3.617188 10.203125 C 3.640625 10.191406 3.664062 10.175781 3.683594 10.15625 L 4.117188 9.71875 L 2.253906 7.859375 Z M 1.820312 8.296875 "/>
<path style=" stroke:none;fill-rule:nonzero;fill:#000000;fill-opacity:1;" d="M 10.992188 0.996094 C 10.492188 0.5 9.53125 0.59375 8.925781 1.199219 L 8.21875 1.90625 L 7.65625 1.347656 C 7.609375 1.296875 7.542969 1.269531 7.472656 1.269531 C 7.402344 1.269531 7.335938 1.296875 7.285156 1.347656 L 4.117188 4.511719 C 4.015625 4.613281 4.015625 4.78125 4.117188 4.882812 C 4.167969 4.933594 4.234375 4.960938 4.304688 4.960938 C 4.371094 4.960938 4.4375 4.933594 4.488281 4.882812 L 7.472656 1.90625 L 7.84375 2.277344 L 2.625 7.488281 L 4.488281 9.347656 L 9.707031 4.140625 C 9.8125 4.242188 9.929688 4.242188 10.03125 4.140625 C 10.136719 4.035156 9.984375 3.871094 9.984375 3.769531 L 9.984375 3.765625 L 10.742188 3.058594 C 11.367188 2.433594 11.503906 1.511719 10.992188 0.996094 Z M 10.992188 0.996094 "/>
</g>
</svg>
