<?xml version="1.0" encoding="UTF-8"?>
<svg xmlns="http://www.w3.org/2000/svg" xmlns:xlink="http://www.w3.org/1999/xlink" width="375pt" height="374.999991pt" viewBox="0 0 375 374.999991" version="1.2">
<defs>
<clipPath id="clip1">
  <path d="M 11.121094 12 L 365.683594 12 L 365.683594 365 L 11.121094 365 Z M 11.121094 12 "/>
</clipPath>
</defs>
<g id="surface1">
<g clip-path="url(#clip1)" clip-rule="nonzero">
<path style=" stroke:none;fill-rule:nonzero;fill:#008000;fill-opacity:1;" d="M 350.25 162.910156 L 53.53125 15.800781 C 44.546875 11.273438 33.820312 11.765625 25.257812 16.960938 C 16.648438 22.136719 11.453125 31.367188 11.453125 41.269531 L 11.453125 335.578125 C 11.453125 345.457031 16.648438 354.664062 25.257812 359.863281 C 29.894531 362.671875 35.15625 364.097656 40.488281 364.097656 C 44.96875 364.097656 49.429688 363.074219 53.554688 361.019531 L 350.273438 213.867188 C 360.039062 209.003906 366.238281 199.195312 366.238281 188.378906 C 366.238281 177.5625 360.019531 167.773438 350.25 162.910156 Z M 350.25 162.910156 "/>
</g>
</g>
</svg>
