<?xml version="1.0" encoding="UTF-8"?>
<svg xmlns="http://www.w3.org/2000/svg" xmlns:xlink="http://www.w3.org/1999/xlink" width="375pt" height="374.999991pt" viewBox="0 0 375 374.999991" version="1.2">
<g id="surface1">
<path style=" stroke:none;fill-rule:nonzero;fill:#000000;fill-opacity:1;" d="M 365.121094 9.878906 C 355.332031 0.0585938 339.402344 0.0585938 329.617188 9.878906 L 187.5 151.960938 L 45.417969 9.878906 C 35.597656 0.0585938 19.699219 0.0585938 9.878906 9.878906 C 0.0585938 19.699219 0.0585938 35.597656 9.878906 45.417969 L 151.960938 187.5 L 9.878906 329.582031 C 0.0585938 339.402344 0.0585938 355.300781 9.878906 365.121094 C 19.699219 374.941406 35.597656 374.941406 45.417969 365.121094 L 187.5 223.003906 L 329.617188 365.121094 C 339.402344 374.941406 355.332031 374.941406 365.121094 365.121094 C 374.90625 355.300781 374.90625 339.402344 365.121094 329.582031 L 223.003906 187.5 L 365.121094 45.417969 C 374.90625 35.597656 374.90625 19.699219 365.121094 9.878906 "/>
</g>
</svg>
