<?xml version="1.0" encoding="UTF-8"?>
<svg xmlns="http://www.w3.org/2000/svg" xmlns:xlink="http://www.w3.org/1999/xlink" width="12pt" height="12pt" viewBox="0 0 12 12" version="1.1">
<defs>
<clipPath id="clip1">
  <path d="M 0 0.847656 L 5.980469 0.847656 L 5.980469 11.449219 L 0 11.449219 Z M 0 0.847656 "/>
</clipPath>
<clipPath id="clip2">
  <path d="M 5.949219 0.847656 L 11.992188 0.847656 L 11.992188 11.355469 L 5.949219 11.355469 Z M 5.949219 0.847656 "/>
</clipPath>
</defs>
<g id="surface1">
<path style=" stroke:none;fill-rule:nonzero;fill:rgb(100%,100%,100%);fill-opacity:1;" d="M 12.460938 11.667969 L -0.421875 11.667969 L -0.421875 1.488281 L 12.460938 1.488281 L 12.460938 11.667969 "/>
<path style=" stroke:none;fill-rule:nonzero;fill:rgb(100%,100%,100%);fill-opacity:1;" d="M 6.375 12.125 L 5.660156 12.125 C 5.433594 12.125 5.246094 11.9375 5.246094 11.707031 L 5.246094 1.300781 L 6.789062 1.300781 L 6.789062 11.707031 C 6.789062 11.9375 6.605469 12.125 6.375 12.125 "/>
<g clip-path="url(#clip1)" clip-rule="nonzero">
<path style=" stroke:none;fill-rule:nonzero;fill:rgb(100%,100%,100%);fill-opacity:1;" d="M 5.96875 11.433594 C 5.96875 11.433594 4.636719 11.054688 2.832031 11.054688 C 1.027344 11.054688 -0.300781 11.433594 -0.300781 11.433594 L -0.300781 1.304688 C -0.300781 1.304688 0.894531 0.847656 2.832031 0.847656 C 4.769531 0.847656 5.96875 1.304688 5.96875 1.304688 L 5.96875 11.433594 "/>
</g>
<path style=" stroke:none;fill-rule:nonzero;fill:rgb(0%,0%,0%);fill-opacity:1;" d="M 6.019531 11.148438 C 6.019531 11.148438 4.75 10.789062 3.027344 10.789062 C 1.308594 10.789062 0.0390625 11.148438 0.0390625 11.148438 L 0.0390625 1.488281 C 0.0390625 1.488281 1.179688 1.054688 3.027344 1.054688 C 4.878906 1.054688 6.019531 1.488281 6.019531 1.488281 L 6.019531 11.148438 "/>
<g clip-path="url(#clip2)" clip-rule="nonzero">
<path style=" stroke:none;fill-rule:nonzero;fill:rgb(100%,100%,100%);fill-opacity:1;" d="M 5.96875 11.355469 C 5.96875 11.355469 7.289062 10.980469 9.078125 10.980469 C 10.867188 10.980469 12.1875 11.355469 12.1875 11.355469 L 12.1875 1.300781 C 12.1875 1.300781 11 0.847656 9.078125 0.847656 C 7.152344 0.847656 5.96875 1.300781 5.96875 1.300781 L 5.96875 11.355469 "/>
</g>
<path style=" stroke:none;fill-rule:nonzero;fill:rgb(0%,0%,0%);fill-opacity:1;" d="M 6.019531 11.148438 C 6.019531 11.148438 7.289062 10.789062 9.007812 10.789062 C 10.726562 10.789062 11.996094 11.148438 11.996094 11.148438 L 11.996094 1.488281 C 11.996094 1.488281 10.855469 1.054688 9.007812 1.054688 C 7.160156 1.054688 6.019531 1.488281 6.019531 1.488281 L 6.019531 11.148438 "/>
<path style=" stroke:none;fill-rule:nonzero;fill:rgb(100%,100%,100%);fill-opacity:1;" d="M 6.21875 11.398438 L 5.714844 11.398438 L 5.714844 1.257812 L 6.21875 1.257812 L 6.21875 11.398438 "/>
<path style=" stroke:none;fill-rule:nonzero;fill:rgb(100%,100%,100%);fill-opacity:1;" d="M 11.5 2.683594 C 11.5 2.683594 10.125 2.453125 9.078125 2.453125 C 8.03125 2.453125 6.664062 2.683594 6.664062 2.683594 L 6.664062 2.347656 C 6.664062 2.347656 7.933594 2.117188 9.082031 2.117188 C 10.234375 2.117188 11.5 2.347656 11.5 2.347656 L 11.5 2.683594 "/>
<path style=" stroke:none;fill-rule:nonzero;fill:rgb(100%,100%,100%);fill-opacity:1;" d="M 11.5 3.929688 C 11.5 3.929688 10.125 3.699219 9.078125 3.699219 C 8.03125 3.699219 6.664062 3.929688 6.664062 3.929688 L 6.664062 3.597656 C 6.664062 3.597656 7.933594 3.363281 9.082031 3.363281 C 10.234375 3.363281 11.5 3.597656 11.5 3.597656 L 11.5 3.929688 "/>
<path style=" stroke:none;fill-rule:nonzero;fill:rgb(100%,100%,100%);fill-opacity:1;" d="M 11.5 5.179688 C 11.5 5.179688 10.125 4.945312 9.078125 4.945312 C 8.03125 4.945312 6.664062 5.179688 6.664062 5.179688 L 6.664062 4.84375 C 6.664062 4.84375 7.933594 4.609375 9.082031 4.609375 C 10.234375 4.609375 11.5 4.84375 11.5 4.84375 L 11.5 5.179688 "/>
<path style=" stroke:none;fill-rule:nonzero;fill:rgb(100%,100%,100%);fill-opacity:1;" d="M 11.5 6.425781 C 11.5 6.425781 10.125 6.191406 9.078125 6.191406 C 8.03125 6.191406 6.664062 6.425781 6.664062 6.425781 L 6.664062 6.089844 C 6.664062 6.089844 7.933594 5.859375 9.082031 5.859375 C 10.234375 5.859375 11.5 6.089844 11.5 6.089844 L 11.5 6.425781 "/>
<path style=" stroke:none;fill-rule:nonzero;fill:rgb(100%,100%,100%);fill-opacity:1;" d="M 11.5 7.671875 C 11.5 7.671875 10.125 7.441406 9.078125 7.441406 C 8.03125 7.441406 6.664062 7.671875 6.664062 7.671875 L 6.664062 7.335938 C 6.664062 7.335938 7.933594 7.105469 9.082031 7.105469 C 10.234375 7.105469 11.5 7.335938 11.5 7.335938 L 11.5 7.671875 "/>
<path style=" stroke:none;fill-rule:nonzero;fill:rgb(100%,100%,100%);fill-opacity:1;" d="M 11.5 8.917969 C 11.5 8.917969 10.125 8.6875 9.078125 8.6875 C 8.03125 8.6875 6.664062 8.917969 6.664062 8.917969 L 6.664062 8.582031 C 6.664062 8.582031 7.933594 8.351562 9.082031 8.351562 C 10.234375 8.351562 11.5 8.582031 11.5 8.582031 L 11.5 8.917969 "/>
<path style=" stroke:none;fill-rule:nonzero;fill:rgb(100%,100%,100%);fill-opacity:1;" d="M 11.5 10.164062 C 11.5 10.164062 10.125 9.933594 9.078125 9.933594 C 8.03125 9.933594 6.664062 10.164062 6.664062 10.164062 L 6.664062 9.828125 C 6.664062 9.828125 7.933594 9.597656 9.082031 9.597656 C 10.234375 9.597656 11.5 9.828125 11.5 9.828125 L 11.5 10.164062 "/>
<path style=" stroke:none;fill-rule:nonzero;fill:rgb(100%,100%,100%);fill-opacity:1;" d="M 2.832031 1.054688 L 2.066406 1.054688 L 2.066406 3.929688 L 2.832031 3.1875 L 3.597656 3.929688 L 3.597656 1.054688 L 2.832031 1.054688 "/>
</g>
</svg>
