<svg xmlns="http://www.w3.org/2000/svg" xmlns:xlink="http://www.w3.org/1999/xlink" version="1.1" width="1920" height="1080" style="shape-rendering: geometricprecision; text-rendering: geometricprecision; fill-rule: evenodd; clip-rule: evenodd;"><rect id="backgroundrect" width="100%" height="100%" x="0" y="0" fill="none" stroke="none"/>










































































<g class="currentLayer" style=""><title>Layer 1</title><g id="svg_1" class="selected" fill-opacity="0" fill="#000000"><path style="opacity:1" fill="#000000" d="M1.038461446762085,-2.038461446762085 C641.0384614467621,-2.038461446762085 1281.038461446762,-2.038461446762085 1921.038461446762,-2.038461446762085 C1921.038461446762,357.9615385532379 1921.038461446762,717.9615385532379 1921.038461446762,1077.961538553238 C1281.038461446762,1077.961538553238 641.0384614467621,1077.961538553238 1.038461446762085,1077.961538553238 C1.038461446762085,717.9615385532379 1.038461446762085,357.9615385532379 1.038461446762085,-2.038461446762085 z" id="svg_2"/></g><g id="svg_3"><path style="opacity:1" fill="#0c95cd" d="M 418.5,88.5 C 476.501,88.3333 534.501,88.5 592.5,89C 602.269,91.4579 609.102,97.2912 613,106.5C 613.667,137.167 613.667,167.833 613,198.5C 610.288,207.548 604.454,213.714 595.5,217C 536.167,217.667 476.833,217.667 417.5,217C 407.809,213.311 401.643,206.478 399,196.5C 398.333,167.5 398.333,138.5 399,109.5C 401.95,99.0551 408.45,92.0551 418.5,88.5 Z" id="svg_4"/></g><g id="svg_5"><path style="opacity:1" fill="#bbbbbb" d="M 941.5,88.5 C 1001.25,109.694 1060.91,131.194 1120.5,153C 1062.57,173.975 1004.74,195.142 947,216.5C 946.5,280.166 946.333,343.832 946.5,407.5C 943.833,407.5 941.167,407.5 938.5,407.5C 938.5,343.5 938.5,279.5 938.5,215.5C 880.602,195.367 822.935,174.533 765.5,153C 824.227,131.372 882.893,109.872 941.5,88.5 Z" id="svg_6"/></g><g id="svg_7"><path style="opacity:1" fill="#bbbbbb" d="M 1346.5,544.5 C 1341.68,543.821 1337.01,542.821 1332.5,541.5C 1333.83,541.5 1335.17,541.5 1336.5,541.5C 1336.5,538.833 1336.5,536.167 1336.5,533.5C 1088.17,533.333 839.833,533.5 591.5,534C 594.423,536.045 597.257,538.212 600,540.5C 599.886,549.104 596.386,550.604 589.5,545C 583.312,540.303 577.312,535.469 571.5,530.5C 571.5,529.167 571.5,527.833 571.5,526.5C 575.873,522.457 580.539,518.624 585.5,515C 589.06,512.597 592.727,510.43 596.5,508.5C 600.254,509.852 601.421,512.518 600,516.5C 597.257,518.788 594.423,520.955 591.5,523C 839.833,523.5 1088.17,523.667 1336.5,523.5C 1336.67,489.498 1336.5,455.498 1336,421.5C 1328.51,428.499 1320.34,434.499 1311.5,439.5C 1307.72,438.563 1306.22,436.229 1307,432.5C 1309.44,430.371 1311.94,428.371 1314.5,426.5C 1315.29,426.217 1315.96,425.717 1316.5,425C 1068.17,424.5 819.834,424.333 571.5,424.5C 570.167,421.5 570.167,418.5 571.5,415.5C 819.834,415.667 1068.17,415.5 1316.5,415C 1312.98,412.48 1309.82,409.647 1307,406.5C 1306.56,400.96 1309.06,399.127 1314.5,401C 1322.02,406.495 1329.19,412.329 1336,418.5C 1336.5,350.834 1336.67,283.167 1336.5,215.5C 1279.01,195.17 1221.68,174.336 1164.5,153C 1223.26,131.303 1282.09,109.803 1341,88.5C 1400.22,109.861 1459.39,131.361 1518.5,153C 1461.5,173.833 1404.5,194.667 1347.5,215.5C 1346.5,325.165 1346.17,434.831 1346.5,544.5 Z" id="svg_8"/></g><g id="svg_9"><path style="opacity:1" fill="#fafdfe" d="M 494.5,101.5 C 525.916,99.1205 546.416,112.787 556,142.5C 559.207,169.596 548.707,189.096 524.5,201C 497.11,209.983 475.61,202.483 460,178.5C 445.951,141.271 457.451,115.604 494.5,101.5 Z" id="svg_10"/></g><g id="svg_11"><path style="opacity:1" fill="#1797ce" d="M 498.5,104.5 C 531.431,104.271 549.764,120.437 553.5,153C 553.504,163.32 550.504,172.654 544.5,181C 539.64,177.559 534.307,174.559 528.5,172C 512.833,171.333 497.167,171.333 481.5,172C 475.853,174.148 470.853,177.315 466.5,181.5C 452.688,161.205 453.188,141.205 468,121.5C 476.571,112.802 486.737,107.135 498.5,104.5 Z" id="svg_12"/></g><g id="svg_13"><path style="opacity:1" fill="#fdfdfd" d="M 932.5,110.5 C 935.044,110.104 937.211,110.771 939,112.5C 939.159,119.87 938.659,127.203 937.5,134.5C 943.833,134.5 950.167,134.5 956.5,134.5C 956.818,128.105 957.652,121.772 959,115.5C 961.164,110.338 964.498,109.338 969,112.5C 969.042,119.586 968.209,126.586 966.5,133.5C 971.802,134.329 977.136,134.829 982.5,135C 986.436,138.159 986.436,141.492 982.5,145C 976.472,145.17 970.472,145.67 964.5,146.5C 963.097,151.392 962.43,156.392 962.5,161.5C 969.508,161.334 976.508,161.5 983.5,162C 986.343,165.619 986.01,168.952 982.5,172C 974.841,172.5 967.174,172.666 959.5,172.5C 958.632,180.221 956.965,187.721 954.5,195C 949.542,196.69 946.542,195.023 945.5,190C 946.919,184.231 947.919,178.397 948.5,172.5C 942.167,172.5 935.833,172.5 929.5,172.5C 928.552,179.519 927.386,186.519 926,193.5C 923,196.167 920,196.167 917,193.5C 916.79,186.463 917.29,179.463 918.5,172.5C 913.489,172.666 908.489,172.499 903.5,172C 899.99,168.952 899.657,165.619 902.5,162C 908.825,161.5 915.158,161.334 921.5,161.5C 921.949,156.137 922.616,150.804 923.5,145.5C 916.825,145.666 910.158,145.5 903.5,145C 900.713,142.833 899.88,139.999 901,136.5C 901.75,135.874 902.584,135.374 903.5,135C 911.159,134.5 918.826,134.334 926.5,134.5C 926.789,128.432 927.622,122.432 929,116.5C 929.564,114.113 930.73,112.113 932.5,110.5 Z" id="svg_14"/></g><g id="svg_15" class=""><path style="opacity:1" fill="#fdfdfd" d="M 1330.5,110.5 C 1333.69,109.961 1336.19,110.961 1338,113.5C 1337.61,120.52 1336.78,127.52 1335.5,134.5C 1341.83,134.5 1348.17,134.5 1354.5,134.5C 1355.53,127.821 1356.69,121.154 1358,114.5C 1359.33,110.896 1361.83,109.729 1365.5,111C 1367.12,112.117 1368.12,113.617 1368.5,115.5C 1367.34,121.821 1366.34,128.154 1365.5,134.5C 1370.84,134.334 1376.18,134.501 1381.5,135C 1384.17,138.333 1384.17,141.667 1381.5,145C 1375.18,145.5 1368.84,145.666 1362.5,145.5C 1362.15,150.878 1361.49,156.211 1360.5,161.5C 1367.51,161.334 1374.51,161.5 1381.5,162C 1384.09,165.297 1384.09,168.631 1381.5,172C 1373.83,172.333 1366.17,172.667 1358.5,173C 1356.96,180.393 1355.29,187.726 1353.5,195C 1351.17,195.667 1348.83,195.667 1346.5,195C 1345.87,194.25 1345.37,193.416 1345,192.5C 1344.74,186.043 1345.58,179.709 1347.5,173.5C 1341.17,172.167 1334.83,172.167 1328.5,173.5C 1327.32,180.579 1325.82,187.579 1324,194.5C 1318.43,197.044 1315.26,195.377 1314.5,189.5C 1315.78,183.872 1316.78,178.205 1317.5,172.5C 1312.49,172.666 1307.49,172.499 1302.5,172C 1297.77,169.078 1297.43,165.745 1301.5,162C 1307.5,161.667 1313.5,161.333 1319.5,161C 1320.64,156.22 1321.64,151.386 1322.5,146.5C 1315.52,145.669 1308.52,145.169 1301.5,145C 1297.27,141.157 1297.6,137.823 1302.5,135C 1309.83,134.5 1317.16,134.334 1324.5,134.5C 1325.71,127.856 1326.88,121.189 1328,114.5C 1328.66,113.016 1329.5,111.683 1330.5,110.5 Z" id="svg_16"/></g><g id="svg_17"><path style="opacity:1" fill="#fdfefe" d="M 497.5,120.5 C 511.852,118.091 522.018,123.424 528,136.5C 530.71,156.98 521.877,167.48 501.5,168C 485.541,163.615 479.041,153.115 482,136.5C 485.355,129.313 490.522,123.979 497.5,120.5 Z" id="svg_18"/></g><g id="svg_19"><path style="opacity:1" fill="#bcbcbc" d="M 934.5,145.5 C 940.833,145.5 947.167,145.5 953.5,145.5C 952.554,150.793 951.887,156.126 951.5,161.5C 945.167,161.5 938.833,161.5 932.5,161.5C 932.845,156.122 933.512,150.789 934.5,145.5 Z" id="svg_20"/></g><g id="svg_21"><path style="opacity:1" fill="#bcbcbc" d="M 1333.5,145.5 C 1339.84,145.334 1346.18,145.5 1352.5,146C 1351.02,151.046 1350.02,156.213 1349.5,161.5C 1343.17,161.5 1336.83,161.5 1330.5,161.5C 1331.25,156.087 1332.25,150.754 1333.5,145.5 Z" id="svg_22"/></g><g id="svg_23"><path style="opacity:1" fill="#babbba" d="M 511.5,271.5 C 508.167,271.5 504.833,271.5 501.5,271.5C 501.5,253.833 501.5,236.167 501.5,218.5C 504.833,218.5 508.167,218.5 511.5,218.5C 511.5,236.167 511.5,253.833 511.5,271.5 Z" id="svg_24"/></g><g id="svg_25"><path style="opacity:1" fill="#89ce2b" d="M 501.5,271.5 C 504.833,271.5 508.167,271.5 511.5,271.5C 531.34,271.17 551.007,271.503 570.5,272.5C 570.5,298.5 570.5,324.5 570.5,350.5C 550.833,350.5 531.167,350.5 511.5,350.5C 508.167,350.5 504.833,350.5 501.5,350.5C 481.833,350.5 462.167,350.5 442.5,350.5C 442.5,324.167 442.5,297.833 442.5,271.5C 462.167,271.5 481.833,271.5 501.5,271.5 Z" id="svg_26"/></g><g id="svg_27"><path style="opacity:1" fill="#f9fcf5" d="M 522.5,278.5 C 523.552,278.351 524.552,278.517 525.5,279C 529.667,283.167 533.833,287.333 538,291.5C 538.315,292.908 537.982,294.241 537,295.5C 522.138,310.696 506.971,325.529 491.5,340C 485.189,341.661 478.856,343.161 472.5,344.5C 473.049,337.635 474.549,330.968 477,324.5C 492.368,309.299 507.535,293.965 522.5,278.5 Z" id="svg_28"/></g><g id="svg_29"><path style="opacity:1" fill="#8dd032" d="M 523.5,283.5 C 526.812,286.146 529.812,289.146 532.5,292.5C 531.5,294.167 530.167,295.5 528.5,296.5C 525.349,293.85 522.349,291.016 519.5,288C 521.041,286.629 522.375,285.129 523.5,283.5 Z" id="svg_30"/></g><g id="svg_31"><path style="opacity:1" fill="#89ce2a" d="M 515.5,291.5 C 519.235,293.725 522.568,296.558 525.5,300C 514,311.5 502.5,323 491,334.5C 487.414,331.616 484.748,328.283 483,324.5C 494.035,313.632 504.869,302.632 515.5,291.5 Z" id="svg_32"/></g><g id="svg_33"><path style="opacity:1" fill="#bbbbbb" d="M 916.5,317.5 C 917.289,317.217 917.956,316.717 918.5,316C 802.834,315.5 687.167,315.333 571.5,315.5C 571.5,312.5 571.5,309.5 571.5,306.5C 686.834,306.667 802.167,306.5 917.5,306C 916.956,305.283 916.289,304.783 915.5,304.5C 912.421,302.466 910.088,299.8 908.5,296.5C 909.217,292.475 911.55,290.975 915.5,292C 921.655,296.911 927.989,301.577 934.5,306C 938.035,308.838 938.368,312.005 935.5,315.5C 929.024,320.142 922.691,324.975 916.5,330C 910.507,331.668 908.007,329.502 909,323.5C 911.439,321.371 913.939,319.371 916.5,317.5 Z" id="svg_34"/></g><g id="svg_35"><path style="opacity:1" fill="#eceee8" d="M 570.5,272.5 C 571.495,283.321 571.828,294.321 571.5,305.5C 686.335,305.833 801.001,305.5 915.5,304.5C 916.289,304.783 916.956,305.283 917.5,306C 802.167,306.5 686.834,306.667 571.5,306.5C 571.5,309.5 571.5,312.5 571.5,315.5C 571.5,315.833 571.5,316.167 571.5,316.5C 571.828,328.012 571.495,339.346 570.5,350.5C 570.5,324.5 570.5,298.5 570.5,272.5 Z" id="svg_36"/></g><g id="svg_37"><path style="opacity:1" fill="#cccccc" d="M 571.5,316.5 C 571.5,316.167 571.5,315.833 571.5,315.5C 687.167,315.333 802.834,315.5 918.5,316C 917.956,316.717 917.289,317.217 916.5,317.5C 801.668,316.5 686.668,316.167 571.5,316.5 Z" id="svg_38"/></g><g id="svg_39"><path style="opacity:1" fill="#95d343" d="M 479.5,330.5 C 482.407,331.734 484.741,333.734 486.5,336.5C 483.581,337.314 480.748,338.314 478,339.5C 478.005,336.464 478.505,333.464 479.5,330.5 Z" id="svg_40"/></g><g id="svg_41"><path style="opacity:1" fill="#babbba" d="M 501.5,350.5 C 504.833,350.5 508.167,350.5 511.5,350.5C 511.5,360.5 511.5,370.5 511.5,380.5C 508.167,380.5 504.833,380.5 501.5,380.5C 501.5,370.5 501.5,360.5 501.5,350.5 Z" id="svg_42"/></g><g id="svg_43"><path style="opacity:1" fill="#89ce2a" d="M 501.5,380.5 C 504.833,380.5 508.167,380.5 511.5,380.5C 531.5,380.5 551.5,380.5 571.5,380.5C 571.5,392.167 571.5,403.833 571.5,415.5C 570.167,418.5 570.167,421.5 571.5,424.5C 571.5,424.833 571.5,425.167 571.5,425.5C 571.5,436.833 571.5,448.167 571.5,459.5C 551.5,459.5 531.5,459.5 511.5,459.5C 508.167,459.5 504.833,459.5 501.5,459.5C 481.833,459.5 462.167,459.5 442.5,459.5C 442.5,433.167 442.5,406.833 442.5,380.5C 462.167,380.5 481.833,380.5 501.5,380.5 Z" id="svg_44"/></g><g id="svg_45"><path style="opacity:1" fill="#fbfdf8" d="M 523.5,386.5 C 528.74,390.233 533.574,394.566 538,399.5C 538.667,400.5 538.667,401.5 538,402.5C 522.833,417.667 507.667,432.833 492.5,448C 486.182,450.113 479.848,451.78 473.5,453C 473.108,446.363 474.275,439.863 477,433.5C 492.702,417.965 508.202,402.299 523.5,386.5 Z" id="svg_46"/></g><g id="svg_47"><path style="opacity:1" fill="#8ed034" d="M 523.5,392.5 C 527.235,394.725 530.568,397.558 533.5,401C 532,402.5 530.5,404 529,405.5C 525.984,402.651 523.15,399.651 520.5,396.5C 521.524,395.148 522.524,393.815 523.5,392.5 Z" id="svg_48"/></g><g id="svg_49"><path style="opacity:1" fill="#89ce2c" d="M 516.5,399.5 C 520.373,402.186 523.206,405.519 525,409.5C 514.167,420.333 503.333,431.167 492.5,442C 491.833,442.667 491.167,442.667 490.5,442C 488.093,439.715 485.593,437.549 483,435.5C 482.333,434.833 482.333,434.167 483,433.5C 494.369,422.298 505.535,410.965 516.5,399.5 Z" id="svg_50"/></g><g id="svg_51" class="" fill-opacity="0" fill="#000000"><path style="opacity:1" fill="#000000" d="M 571.5,526.5 C 571.5,513.833 571.5,501.167 571.5,488.5C 551.5,488.5 531.5,488.5 511.5,488.5C 511.5,478.833 511.5,469.167 511.5,459.5C 531.5,459.5 551.5,459.5 571.5,459.5C 571.5,448.167 571.5,436.833 571.5,425.5C 819.334,425.167 1067,425.5 1314.5,426.5C 1311.94,428.371 1309.44,430.371 1307,432.5C 1306.22,436.229 1307.72,438.563 1311.5,439.5C 1320.34,434.499 1328.51,428.499 1336,421.5C 1336.5,455.498 1336.67,489.498 1336.5,523.5C 1088.17,523.667 839.833,523.5 591.5,523C 594.423,520.955 597.257,518.788 600,516.5C 601.421,512.518 600.254,509.852 596.5,508.5C 592.727,510.43 589.06,512.597 585.5,515C 580.539,518.624 575.873,522.457 571.5,526.5 Z" id="svg_52"/></g><g id="svg_53"><path style="opacity:1" fill="#ededed" d="M 571.5,425.5 C 571.5,425.167 571.5,424.833 571.5,424.5C 819.834,424.333 1068.17,424.5 1316.5,425C 1315.96,425.717 1315.29,426.217 1314.5,426.5C 1067,425.5 819.334,425.167 571.5,425.5 Z" id="svg_54"/></g><g id="svg_55"><path style="opacity:1" fill="#bbbbbb" d="M 938.5,431.5 C 941.5,431.5 944.5,431.5 947.5,431.5C 947.5,460.167 947.5,488.833 947.5,517.5C 944.5,517.5 941.5,517.5 938.5,517.5C 938.5,488.833 938.5,460.167 938.5,431.5 Z" id="svg_56"/></g><g id="svg_57"><path style="opacity:1" fill="#8dd034" d="M 479.5,439.5 C 482.225,440.713 484.559,442.546 486.5,445C 483.509,446.523 480.509,447.023 477.5,446.5C 478.577,444.271 479.244,441.937 479.5,439.5 Z" id="svg_58"/></g><g id="svg_59"><path style="opacity:1" fill="#babbba" d="M 501.5,459.5 C 504.833,459.5 508.167,459.5 511.5,459.5C 511.5,469.167 511.5,478.833 511.5,488.5C 508.167,488.5 504.833,488.5 501.5,488.5C 501.5,478.833 501.5,469.167 501.5,459.5 Z" id="svg_60"/></g><g id="svg_61"><path style="opacity:1" fill="#ffc007" d="M 442.5,489.5 C 485.167,489.5 527.833,489.5 570.5,489.5C 570.5,515.5 570.5,541.5 570.5,567.5C 527.833,567.5 485.167,567.5 442.5,567.5C 442.5,541.5 442.5,515.5 442.5,489.5 Z" id="svg_62"/></g><g id="svg_63"><path style="opacity:1" fill="#fffcf5" d="M 484.5,498.5 C 489.511,498.334 494.511,498.501 499.5,499C 501.536,499.454 503.37,500.287 505,501.5C 511.525,498.595 518.359,497.762 525.5,499C 532.36,501.233 539.36,502.733 546.5,503.5C 547.666,521.491 547.833,539.491 547,557.5C 546.25,558.126 545.416,558.626 544.5,559C 517.811,559.893 491.144,559.56 464.5,558C 464,557.5 463.5,557 463,556.5C 462.333,539.167 462.333,521.833 463,504.5C 463.5,504 464,503.5 464.5,503C 471.612,502.911 478.279,501.411 484.5,498.5 Z" id="svg_64"/></g><g id="svg_65"><path style="opacity:1" fill="#ffc008" d="M 538.5,505.5 C 538.829,520.01 538.496,534.343 537.5,548.5C 531.062,546.933 524.562,545.599 518,544.5C 514.07,544.754 510.57,546.087 507.5,548.5C 506.334,533.845 506.167,519.178 507,504.5C 509.773,501.781 513.106,500.447 517,500.5C 524.457,501.044 531.624,502.711 538.5,505.5 Z" id="svg_66"/></g><g id="svg_67"><path style="opacity:1" fill="#ffc113" d="M 486.5,500.5 C 492.93,499.604 498.764,500.937 504,504.5C 504.667,519.5 504.667,534.5 504,549.5C 500.325,546.273 495.992,544.606 491,544.5C 484.437,545.6 477.937,546.933 471.5,548.5C 471.167,534.151 471.501,519.818 472.5,505.5C 477.17,503.51 481.837,501.844 486.5,500.5 Z" id="svg_68"/></g><g id="svg_69"><path style="opacity:1" fill="#ffc733" d="M 466.5,504.5 C 467.496,504.414 468.329,504.748 469,505.5C 469.5,521.497 469.667,537.497 469.5,553.5C 493.493,554.703 517.493,554.703 541.5,553.5C 541.5,537.167 541.5,520.833 541.5,504.5C 542.822,504.33 543.989,504.663 545,505.5C 545.667,522.167 545.667,538.833 545,555.5C 518.907,557.95 492.74,558.117 466.5,556C 466,555.5 465.5,555 465,554.5C 464.333,538.5 464.333,522.5 465,506.5C 465.717,505.956 466.217,505.289 466.5,504.5 Z" id="svg_70"/></g><g id="svg_71"><path style="opacity:1" fill="#ffe18a" d="M 538.5,505.5 C 539.826,520.005 539.826,534.672 538.5,549.5C 537.893,549.376 537.56,549.043 537.5,548.5C 538.496,534.343 538.829,520.01 538.5,505.5 Z" id="svg_72"/></g><g id="svg_73"><path style="opacity:1" fill="#feda70" d="M 442.5,489.5 C 461.993,488.503 481.66,488.17 501.5,488.5C 504.833,488.5 508.167,488.5 511.5,488.5C 531.5,488.5 551.5,488.5 571.5,488.5C 571.5,501.167 571.5,513.833 571.5,526.5C 571.5,527.833 571.5,529.167 571.5,530.5C 571.829,543.011 571.495,555.345 570.5,567.5C 570.5,541.5 570.5,515.5 570.5,489.5C 527.833,489.5 485.167,489.5 442.5,489.5 Z" id="svg_74"/></g><g id="svg_75"><path style="opacity:1" fill="#e4e4e4" d="M 939.5,540.5 C 939.5,690.167 939.5,839.833 939.5,989.5C 938.833,964.833 938.167,940.167 937.5,915.5C 937.5,912.5 937.5,909.5 937.5,906.5C 938.167,784.5 938.833,662.5 939.5,540.5 Z" id="svg_76"/></g><g id="svg_77"><path style="opacity:1" fill="#babbba" d="M 939.5,540.5 C 942.167,540.5 944.833,540.5 947.5,540.5C 947.5,690.167 947.5,839.833 947.5,989.5C 944.833,989.5 942.167,989.5 939.5,989.5C 939.5,839.833 939.5,690.167 939.5,540.5 Z" id="svg_78"/></g><g id="svg_79"><path style="opacity:1" fill="#0e497f" d="M 1332.5,541.5 C 1337.01,542.821 1341.68,543.821 1346.5,544.5C 1421.59,565.103 1474.43,611.103 1505,682.5C 1517.95,716.376 1522.28,751.376 1518,787.5C 1509.66,858.368 1476.16,913.868 1417.5,954C 1364.96,986.034 1308.29,996.367 1247.5,985C 1173.29,966.458 1119.79,922.625 1087,853.5C 1069.63,808.009 1065.63,761.343 1075,713.5C 1095.03,638.474 1140.53,585.308 1211.5,554C 1250.8,540.649 1291.13,536.482 1332.5,541.5 Z" id="svg_80"/></g><g id="svg_81"><path style="opacity:1" fill="#ffc936" d="M 486.5,547.5 C 491.449,546.959 496.116,547.792 500.5,550C 492.833,550.667 485.167,550.667 477.5,550C 480.742,549.594 483.742,548.761 486.5,547.5 Z" id="svg_82"/></g><g id="svg_83"><path style="opacity:1" fill="#ffc934" d="M 514.5,547.5 C 520.601,547.572 526.601,548.406 532.5,550C 525.167,550.667 517.833,550.667 510.5,550C 511.858,549.066 513.192,548.232 514.5,547.5 Z" id="svg_84"/></g><g id="svg_85" class=""><path style="opacity:1" fill="#fdfefe" d="M 1271.5,559.5 C 1275.77,559.203 1279.93,559.536 1284,560.5C 1284.94,587.198 1284.6,613.865 1283,640.5C 1279.06,642.15 1274.89,642.983 1270.5,643C 1244.17,643.5 1217.84,643.667 1191.5,643.5C 1201.88,615.282 1219.22,592.115 1243.5,574C 1252.49,568.341 1261.82,563.508 1271.5,559.5 Z" id="svg_86"/></g><g id="svg_87"><path style="opacity:1" fill="#fcfdfd" d="M 1305.5,559.5 C 1311.52,558.965 1317.19,560.132 1322.5,563C 1343.24,572.402 1360.4,586.235 1374,604.5C 1379.4,612.234 1384.4,620.234 1389,628.5C 1391.69,632.879 1393.53,637.546 1394.5,642.5C 1367.18,643.541 1339.84,643.708 1312.5,643C 1309.38,642.794 1306.38,642.127 1303.5,641C 1302.21,615.223 1302.38,589.39 1304,563.5C 1304.79,562.255 1305.29,560.922 1305.5,559.5 Z" id="svg_88"/></g><g id="svg_89"><path style="opacity:1" fill="#fcfdfd" d="M 1374.5,574.5 C 1375.25,573.427 1376.25,573.26 1377.5,574C 1409.32,588.811 1436.15,609.978 1458,637.5C 1459.01,639.025 1459.51,640.692 1459.5,642.5C 1445.83,642.667 1432.16,642.5 1418.5,642C 1411.04,630.913 1404.2,619.413 1398,607.5C 1389.65,596.785 1381.82,585.785 1374.5,574.5 Z" id="svg_90"/></g><g id="svg_91" class="" opacity="1"><path style="" fill="#fbfcfc" d="M 1204.5,577.5 C 1208.44,577.178 1209.27,578.511 1207,581.5C 1200.75,589.657 1194.75,597.99 1189,606.5C 1181.96,618.749 1174.79,630.916 1167.5,643C 1161.27,644.127 1154.94,644.627 1148.5,644.5C 1142.45,644.48 1136.45,644.146 1130.5,643.5C 1129.34,641.45 1129.5,639.45 1131,637.5C 1151.53,612.458 1176.03,592.458 1204.5,577.5 Z" id="svg_92" opacity="1"/></g><g id="svg_93"><path style="opacity:1" fill="#fdfdfe" d="M 1439.5,660.5 C 1450.17,660.333 1460.84,660.5 1471.5,661C 1473.29,661.785 1474.79,662.951 1476,664.5C 1490.71,690.961 1498.71,719.294 1500,749.5C 1499.5,750 1499,750.5 1498.5,751C 1489.55,752.09 1480.55,752.59 1471.5,752.5C 1461.09,752.696 1450.76,752.029 1440.5,750.5C 1439.37,747.93 1438.53,745.264 1438,742.5C 1436.85,716.395 1432.35,690.895 1424.5,666C 1424.59,664.893 1424.92,663.893 1425.5,663C 1430.27,662.017 1434.94,661.183 1439.5,660.5 Z" id="svg_94"/></g><g id="svg_95"><path style="opacity:1" fill="#fdfdfe" d="M 1117.5,662.5 C 1132.2,662.216 1146.87,662.55 1161.5,663.5C 1154.11,689.294 1149.61,715.627 1148,742.5C 1147.92,746.709 1146.42,750.209 1143.5,753C 1126.5,753.667 1109.5,753.667 1092.5,753C 1091.3,752.097 1090.47,750.931 1090,749.5C 1088.81,737.961 1089.81,726.628 1093,715.5C 1097.18,698.605 1103.52,682.605 1112,667.5C 1113.73,665.598 1115.56,663.931 1117.5,662.5 Z" id="svg_96"/></g><g id="svg_97"><path style="opacity:1" fill="#fcfdfd" d="M 1183.5,662.5 C 1216.56,662.021 1249.56,662.521 1282.5,664C 1283.29,693.43 1283.29,722.93 1282.5,752.5C 1243.8,752.815 1205.14,752.482 1166.5,751.5C 1166.65,725.289 1170.48,699.622 1178,674.5C 1179.59,670.328 1181.42,666.328 1183.5,662.5 Z" id="svg_98"/></g><g id="svg_99"><path style="opacity:1" fill="#fdfdfe" d="M 1302.5,662.5 C 1336.5,662.5 1370.5,662.5 1404.5,662.5C 1414.12,690.349 1418.95,719.015 1419,748.5C 1418.02,750.887 1416.19,752.054 1413.5,752C 1378.83,752.667 1344.17,752.667 1309.5,752C 1306.91,751.774 1304.41,751.274 1302,750.5C 1301.53,721.164 1301.7,691.83 1302.5,662.5 Z" id="svg_100"/></g><g id="svg_101"><path style="opacity:1" fill="#0d95cd" d="M 419.5,687.5 C 477.501,687.333 535.501,687.5 593.5,688C 603.165,690.333 609.665,696.166 613,705.5C 613.667,736.167 613.667,766.833 613,797.5C 610.288,806.548 604.454,812.714 595.5,816C 536.167,816.667 476.833,816.667 417.5,816C 407.809,812.311 401.643,805.478 399,795.5C 398.333,766.5 398.333,737.5 399,708.5C 402.016,697.652 408.849,690.652 419.5,687.5 Z" id="svg_102"/></g><g id="svg_103"><path style="opacity:1" fill="#fafdfe" d="M 497.5,700.5 C 527.653,698.806 547.487,712.14 557,740.5C 560.901,771.219 548.401,791.719 519.5,802C 497.592,806.809 479.426,800.642 465,783.5C 456.004,770.831 453.004,756.831 456,741.5C 461.756,719.577 475.589,705.91 497.5,700.5 Z" id="svg_104"/></g><g id="svg_105"><path style="opacity:1" fill="#1496cd" d="M 499.5,703.5 C 525.947,702.129 543.78,713.796 553,738.5C 557.11,754.186 554.443,768.52 545,781.5C 540.751,776.627 535.584,773.127 529.5,771C 513.833,770.333 498.167,770.333 482.5,771C 476.548,772.952 471.715,776.452 468,781.5C 459.027,769.599 456.027,756.265 459,741.5C 465.299,721.031 478.799,708.365 499.5,703.5 Z" id="svg_106"/></g><g id="svg_107"><path style="opacity:1" fill="#fdfefe" d="M 501.5,719.5 C 518.021,718.404 527.688,725.904 530.5,742C 529.338,757.829 520.838,766.329 505,767.5C 487.126,763.42 480.126,752.42 484,734.5C 487.424,726.558 493.257,721.558 501.5,719.5 Z" id="svg_108"/></g><g id="svg_109"><path style="opacity:1" fill="#fcfdfd" d="M 1456.5,769.5 C 1470.87,769.177 1485.2,769.677 1499.5,771C 1500,771.5 1500.5,772 1501,772.5C 1500.21,799.999 1494.21,826.332 1483,851.5C 1480.46,856.761 1477.29,861.594 1473.5,866C 1471.91,866.862 1470.25,867.529 1468.5,868C 1454.17,868.5 1439.84,868.667 1425.5,868.5C 1425.33,864.486 1425.5,860.486 1426,856.5C 1430.61,841.457 1433.94,826.124 1436,810.5C 1436.75,798.423 1438.09,786.423 1440,774.5C 1440.5,772.667 1441.67,771.5 1443.5,771C 1448.02,770.825 1452.35,770.325 1456.5,769.5 Z" id="svg_110"/></g><g id="svg_111"><path style="opacity:1" fill="#fdfdfe" d="M 1092.5,771.5 C 1108.5,771.333 1124.5,771.5 1140.5,772C 1142.68,772.163 1144.51,772.996 1146,774.5C 1148.05,791.86 1150.38,809.193 1153,826.5C 1155.23,840.746 1158.4,854.746 1162.5,868.5C 1148.52,869.533 1134.52,869.699 1120.5,869C 1117.9,868.117 1115.73,866.617 1114,864.5C 1098.09,836.967 1089.76,807.3 1089,775.5C 1089.69,773.65 1090.86,772.316 1092.5,771.5 Z" id="svg_112"/></g><g id="svg_113"><path style="opacity:1" fill="#fdfefe" d="M 1304.5,771.5 C 1342.5,771.333 1380.5,771.5 1418.5,772C 1419,772.5 1419.5,773 1420,773.5C 1419.65,803.947 1414.65,833.614 1405,862.5C 1404.21,864.587 1403.04,866.421 1401.5,868C 1368.17,868.5 1334.83,868.667 1301.5,868.5C 1300.24,838.674 1300.57,808.841 1302.5,779C 1302.63,776.223 1303.3,773.723 1304.5,771.5 Z" id="svg_114"/></g><g id="svg_115"><path style="opacity:1" fill="#fdfdfe" d="M 1172.5,771.5 C 1209.17,771.5 1245.83,771.5 1282.5,771.5C 1282.67,802.502 1282.5,833.502 1282,864.5C 1280.99,866.025 1280.49,867.692 1280.5,869.5C 1248.83,869.667 1217.16,869.5 1185.5,869C 1183.38,867.269 1181.88,865.102 1181,862.5C 1171.68,833.569 1167.01,803.903 1167,773.5C 1168.95,772.891 1170.78,772.224 1172.5,771.5 Z" id="svg_116"/></g><g id="svg_117"><path style="opacity:1" fill="#babbba" d="M 511.5,870.5 C 508.167,870.5 504.833,870.5 501.5,870.5C 501.5,852.833 501.5,835.167 501.5,817.5C 504.833,817.5 508.167,817.5 511.5,817.5C 511.5,835.167 511.5,852.833 511.5,870.5 Z" id="svg_118"/></g><g id="svg_119"><path style="opacity:1" fill="#ffc111" d="M 501.5,870.5 C 504.833,870.5 508.167,870.5 511.5,870.5C 531.167,870.5 550.833,870.5 570.5,870.5C 570.5,896.833 570.5,923.167 570.5,949.5C 550.833,949.5 531.167,949.5 511.5,949.5C 508.167,949.5 504.833,949.5 501.5,949.5C 481.833,949.5 462.167,949.5 442.5,949.5C 442.5,923.167 442.5,896.833 442.5,870.5C 462.167,870.5 481.833,870.5 501.5,870.5 Z" id="svg_120"/></g><g id="svg_121"><path style="opacity:1" fill="#fffcf4" d="M 484.5,880.5 C 491.648,879.761 498.481,880.761 505,883.5C 515.171,879.531 525.338,879.697 535.5,884C 539.167,884.333 542.833,884.667 546.5,885C 547.658,902.76 547.825,920.593 547,938.5C 546.5,939 546,939.5 545.5,940C 518.502,941.989 491.502,941.989 464.5,940C 464,939.5 463.5,939 463,938.5C 462.333,921.167 462.333,903.833 463,886.5C 463.5,886 464,885.5 464.5,885C 471.612,884.911 478.279,883.411 484.5,880.5 Z" id="svg_122"/></g><g id="svg_123"><path style="opacity:1" fill="#ffc004" d="M 503.5,886.5 C 503.829,901.343 503.496,916.01 502.5,930.5C 499.202,927.899 495.368,926.566 491,926.5C 484.389,927.236 478.055,928.902 472,931.5C 471.167,916.822 471.334,902.155 472.5,887.5C 480.438,883.746 488.771,882.246 497.5,883C 499.727,883.941 501.727,885.108 503.5,886.5 Z" id="svg_124"/></g><g id="svg_125"><path style="opacity:1" fill="#ffc004" d="M 538.5,887.5 C 538.829,902.01 538.496,916.343 537.5,930.5C 529.657,928.097 521.657,926.93 513.5,927C 511.336,927.914 509.336,929.081 507.5,930.5C 506.334,915.845 506.167,901.178 507,886.5C 509.773,883.781 513.106,882.447 517,882.5C 524.446,883.039 531.613,884.706 538.5,887.5 Z" id="svg_126"/></g><g id="svg_127"><path style="opacity:1" fill="#ffc420" d="M 466.5,886.5 C 468.173,902.376 469.173,918.543 469.5,935C 481.193,935.208 492.86,935.708 504.5,936.5C 510.071,935.071 515.738,934.404 521.5,934.5C 528.171,934.834 534.837,935.167 541.5,935.5C 541.167,919.153 541.501,902.82 542.5,886.5C 543.167,886.833 543.833,887.167 544.5,887.5C 545.666,903.823 545.833,920.156 545,936.5C 544.5,937 544,937.5 543.5,938C 517.831,939.932 492.164,939.932 466.5,938C 466,937.5 465.5,937 465,936.5C 464.333,920.5 464.333,904.5 465,888.5C 465.717,887.956 466.217,887.289 466.5,886.5 Z" id="svg_128"/></g><g id="svg_129"><path style="opacity:1" fill="#fff2c9" d="M 503.5,886.5 C 504.826,901.339 504.826,916.339 503.5,931.5C 502.893,931.376 502.56,931.043 502.5,930.5C 503.496,916.01 503.829,901.343 503.5,886.5 Z" id="svg_130"/></g><g id="svg_131"><path style="opacity:1" fill="#fdfdfe" d="M 1257.5,887.5 C 1264.84,887.334 1272.17,887.5 1279.5,888C 1280,888.5 1280.5,889 1281,889.5C 1281.63,915.506 1281.47,941.506 1280.5,967.5C 1274.42,967.804 1268.42,967.304 1262.5,966C 1230.9,949.067 1207.56,924.401 1192.5,892C 1192.75,890.674 1193.42,889.674 1194.5,889C 1215.67,888.832 1236.67,888.332 1257.5,887.5 Z" id="svg_132"/></g><g id="svg_133"><path style="opacity:1" fill="#fcfdfd" d="M 1314.5,886.5 C 1340.88,886.017 1367.22,886.683 1393.5,888.5C 1390.26,898.97 1385.43,908.637 1379,917.5C 1366.04,935.465 1350.2,950.298 1331.5,962C 1323.37,965.815 1314.87,968.315 1306,969.5C 1304.24,969.456 1302.57,969.122 1301,968.5C 1300.2,941.81 1300.37,915.143 1301.5,888.5C 1306.05,888.376 1310.38,887.709 1314.5,886.5 Z" id="svg_134"/></g><g id="svg_135"><path style="opacity:1" fill="#fafbfc" d="M 1422.5,886.5 C 1434.52,886.39 1446.52,886.723 1458.5,887.5C 1457.76,891.643 1455.93,895.31 1453,898.5C 1431.19,923.161 1405.36,942.161 1375.5,955.5C 1374.83,955.333 1374.17,955.167 1373.5,955C 1389.95,935.284 1403.78,913.784 1415,890.5C 1417.11,888.267 1419.61,886.933 1422.5,886.5 Z" id="svg_136"/></g><g id="svg_137"><path style="opacity:1" fill="#fbfcfd" d="M 1133.5,888.5 C 1143.51,888.334 1153.51,888.5 1163.5,889C 1165.95,889.29 1168.29,889.956 1170.5,891C 1181.55,911.608 1194.21,931.108 1208.5,949.5C 1206.93,950.631 1205.26,950.798 1203.5,950C 1189.19,943.181 1175.86,934.848 1163.5,925C 1153.33,916.167 1143.83,906.667 1135,896.5C 1133.82,894.656 1132.65,892.823 1131.5,891C 1132.06,889.989 1132.72,889.156 1133.5,888.5 Z" id="svg_138"/></g><g id="svg_139"><path style="opacity:1" fill="#fff0c7" d="M 538.5,887.5 C 539.826,902.005 539.826,916.672 538.5,931.5C 537.893,931.376 537.56,931.043 537.5,930.5C 538.496,916.343 538.829,902.01 538.5,887.5 Z" id="svg_140"/></g><g id="svg_141"><path style="opacity:1" fill="#bbbbbb" d="M 937.5,906.5 C 937.5,909.5 937.5,912.5 937.5,915.5C 822.166,915.333 706.833,915.5 591.5,916C 594.333,918.167 597.167,920.333 600,922.5C 600.993,928.502 598.493,930.668 592.5,929C 585.653,924.075 578.986,918.908 572.5,913.5C 570.96,910.709 571.294,908.209 573.5,906C 580.719,900.605 588.053,895.438 595.5,890.5C 599.767,891.602 601.267,894.269 600,898.5C 597.167,900.667 594.333,902.833 591.5,905C 706.833,905.734 822.166,906.234 937.5,906.5 Z" id="svg_142"/></g><g id="svg_143"><path style="opacity:1" fill="#ffc72d" d="M 486.5,929.5 C 491.449,928.959 496.116,929.792 500.5,932C 492.833,932.667 485.167,932.667 477.5,932C 480.628,931.159 483.628,930.325 486.5,929.5 Z" id="svg_144"/></g><g id="svg_145"><path style="opacity:1" fill="#ffc729" d="M 513.5,929.5 C 519.678,929.107 525.678,929.94 531.5,932C 524.167,932.667 516.833,932.667 509.5,932C 511.066,931.392 512.4,930.558 513.5,929.5 Z" id="svg_146"/></g><g id="svg_147"><path style="opacity:1" fill="#bbbbba" d="M 501.5,949.5 C 504.833,949.5 508.167,949.5 511.5,949.5C 511.5,962.5 511.5,975.5 511.5,988.5C 508.167,988.5 504.833,988.5 501.5,988.5C 501.5,975.5 501.5,962.5 501.5,949.5 Z" id="svg_148"/></g></g></svg>