<?xml version="1.0" encoding="UTF-8"?>
<svg xmlns="http://www.w3.org/2000/svg" xmlns:xlink="http://www.w3.org/1999/xlink" width="12pt" height="12pt" viewBox="0 0 12 12" version="1.1">
<defs>
<clipPath id="clip1">
  <path d="M 0 0 L 11.992188 0 L 11.992188 11.96875 L 0 11.96875 Z M 0 0 "/>
</clipPath>
</defs>
<g id="surface1">
<path style=" stroke:none;fill-rule:nonzero;fill:rgb(0%,0%,0%);fill-opacity:1;" d="M 11.617188 5.984375 C 11.617188 9.085938 9.101562 11.601562 5.996094 11.601562 C 2.890625 11.601562 0.371094 9.085938 0.371094 5.984375 C 0.371094 2.878906 2.890625 0.363281 5.996094 0.363281 C 9.101562 0.363281 11.617188 2.878906 11.617188 5.984375 "/>
<g clip-path="url(#clip1)" clip-rule="nonzero">
<path style=" stroke:none;fill-rule:nonzero;fill:rgb(100%,100%,100%);fill-opacity:1;" d="M 8.617188 9.929688 C 8.933594 10.074219 9.1875 10.222656 9.371094 10.335938 C 8.875 10.722656 8.308594 11.027344 7.695312 11.226562 C 8.046875 10.890625 8.355469 10.453125 8.617188 9.929688 Z M 2.621094 10.339844 C 2.886719 10.175781 3.144531 10.035156 3.402344 9.914062 C 3.667969 10.453125 3.988281 10.90625 4.351562 11.246094 C 3.71875 11.050781 3.136719 10.738281 2.621094 10.339844 Z M 0.484375 6.28125 L 2.578125 6.28125 C 2.609375 7.550781 2.835938 8.585938 3.210938 9.496094 C 2.890625 9.644531 2.570312 9.832031 2.246094 10.042969 C 1.222656 9.09375 0.558594 7.847656 0.484375 6.28125 Z M 2.167969 2.070312 C 2.359375 2.199219 2.703125 2.4375 3.171875 2.648438 C 2.816406 3.5625 2.601562 4.617188 2.578125 5.890625 L 0.484375 5.890625 C 0.535156 4.421875 1.171875 3.03125 2.167969 2.070312 Z M 3.351562 2.152344 C 2.992188 1.984375 2.714844 1.816406 2.53125 1.695312 C 3.066406 1.265625 3.683594 0.929688 4.351562 0.71875 C 3.96875 1.082031 3.628906 1.566406 3.351562 2.152344 Z M 9.453125 1.691406 C 9.1875 1.863281 8.925781 2.011719 8.667969 2.136719 C 8.398438 1.570312 8.070312 1.097656 7.695312 0.738281 C 8.339844 0.949219 8.933594 1.273438 9.453125 1.691406 Z M 11.507812 5.890625 L 9.449219 5.890625 C 9.429688 4.617188 9.214844 3.535156 8.855469 2.621094 C 9.171875 2.46875 9.496094 2.3125 9.820312 2.09375 C 10.816406 3.054688 11.453125 4.421875 11.507812 5.890625 Z M 6.171875 8.882812 L 6.171875 6.28125 L 8.976562 6.28125 C 8.945312 7.453125 8.675781 8.484375 8.320312 9.34375 C 7.738281 9.125 6.957031 8.925781 6.171875 8.882812 Z M 6.171875 11.472656 L 6.171875 9.335938 C 6.957031 9.375 7.550781 9.546875 8.082031 9.746094 C 7.59375 10.714844 6.957031 11.355469 6.171875 11.472656 Z M 5.683594 9.332031 L 5.683594 11.480469 C 4.804688 11.375 4.222656 10.722656 3.726562 9.726562 C 4.414062 9.464844 5 9.347656 5.683594 9.332031 Z M 5.683594 6.28125 L 5.683594 8.875 C 5 8.890625 4.34375 9.023438 3.589844 9.3125 C 3.242188 8.457031 3.082031 7.453125 3.050781 6.28125 Z M 5.683594 3.210938 L 5.683594 5.890625 L 3.050781 5.890625 C 3.070312 4.714844 3.21875 3.664062 3.554688 2.804688 C 4.160156 3.035156 4.804688 3.175781 5.683594 3.210938 Z M 5.683594 0.484375 L 5.683594 2.753906 C 4.804688 2.722656 4.230469 2.546875 3.675781 2.335938 C 4.175781 1.285156 4.804688 0.59375 5.683594 0.484375 Z M 6.171875 2.753906 L 6.171875 0.492188 C 6.957031 0.617188 7.644531 1.300781 8.136719 2.328125 C 7.449219 2.605469 6.761719 2.730469 6.171875 2.753906 Z M 6.171875 3.210938 C 6.957031 3.191406 7.617188 3.109375 8.371094 2.8125 C 8.703125 3.667969 8.957031 4.714844 8.976562 5.890625 L 6.171875 5.890625 Z M 9.746094 10.035156 C 9.542969 9.902344 9.222656 9.71875 8.808594 9.53125 C 9.1875 8.617188 9.417969 7.550781 9.449219 6.28125 L 11.503906 6.28125 C 11.433594 7.847656 10.769531 9.082031 9.746094 10.035156 Z M 11.984375 5.984375 C 11.984375 2.699219 9.324219 0.0234375 6.042969 0 C 6.03125 0 6.023438 0 6.015625 0 L 6.007812 0 C 6.003906 0 6 0 5.996094 0 C 2.691406 0 0.00390625 2.683594 0.00390625 5.984375 C 0.00390625 9.28125 2.691406 11.96875 5.996094 11.96875 C 6 11.96875 6.003906 11.96875 6.007812 11.96875 L 6.015625 11.96875 C 6.023438 11.96875 6.03125 11.964844 6.042969 11.964844 C 9.324219 11.941406 11.984375 9.265625 11.984375 5.984375 "/>
</g>
</g>
</svg>
