<?xml version="1.0" encoding="UTF-8"?>
<svg xmlns="http://www.w3.org/2000/svg" xmlns:xlink="http://www.w3.org/1999/xlink" contentScriptType="text/ecmascript" width="487.5" zoomAndPan="magnify" contentStyleType="text/css" viewBox="0 0 487.5 299.999988" height="299.999988" preserveAspectRatio="xMidYMid meet" version="1.0">
  <defs>
    <clipPath id="clip-0">
      <path d="M 83 5.214844 L 86 5.214844 L 86 295.464844 L 83 295.464844 Z M 83 5.214844 " clip-rule="nonzero"/>
    </clipPath>
    <clipPath id="clip-1">
      <path d="M 115 5.214844 L 118 5.214844 L 118 295.464844 L 115 295.464844 Z M 115 5.214844 " clip-rule="nonzero"/>
    </clipPath>
    <clipPath id="clip-2">
      <path d="M 147 5.214844 L 150 5.214844 L 150 295.464844 L 147 295.464844 Z M 147 5.214844 " clip-rule="nonzero"/>
    </clipPath>
    <clipPath id="clip-3">
      <path d="M 179 5.214844 L 182 5.214844 L 182 295.464844 L 179 295.464844 Z M 179 5.214844 " clip-rule="nonzero"/>
    </clipPath>
    <clipPath id="clip-4">
      <path d="M 210 5.214844 L 214 5.214844 L 214 295.464844 L 210 295.464844 Z M 210 5.214844 " clip-rule="nonzero"/>
    </clipPath>
    <clipPath id="clip-5">
      <path d="M 242 5.214844 L 246 5.214844 L 246 295.464844 L 242 295.464844 Z M 242 5.214844 " clip-rule="nonzero"/>
    </clipPath>
    <clipPath id="clip-6">
      <path d="M 274 5.214844 L 278 5.214844 L 278 295.464844 L 274 295.464844 Z M 274 5.214844 " clip-rule="nonzero"/>
    </clipPath>
    <clipPath id="clip-7">
      <path d="M 306 5.214844 L 310 5.214844 L 310 295.464844 L 306 295.464844 Z M 306 5.214844 " clip-rule="nonzero"/>
    </clipPath>
    <clipPath id="clip-8">
      <path d="M 338 5.214844 L 341 5.214844 L 341 295.464844 L 338 295.464844 Z M 338 5.214844 " clip-rule="nonzero"/>
    </clipPath>
    <clipPath id="clip-9">
      <path d="M 370 5.214844 L 373 5.214844 L 373 295.464844 L 370 295.464844 Z M 370 5.214844 " clip-rule="nonzero"/>
    </clipPath>
    <clipPath id="clip-10">
      <path d="M 402 5.214844 L 405 5.214844 L 405 295.464844 L 402 295.464844 Z M 402 5.214844 " clip-rule="nonzero"/>
    </clipPath>
    <clipPath id="clip-11">
      <path d="M 45.203125 5.214844 L 52 5.214844 L 52 19 L 45.203125 19 Z M 45.203125 5.214844 " clip-rule="nonzero"/>
    </clipPath>
    <clipPath id="clip-12">
      <path d="M 51 5.214844 L 57 5.214844 L 57 19 L 51 19 Z M 51 5.214844 " clip-rule="nonzero"/>
    </clipPath>
    <clipPath id="clip-13">
      <path d="M 429 158 L 441.953125 158 L 441.953125 165 L 429 165 Z M 429 158 " clip-rule="nonzero"/>
    </clipPath>
    <clipPath id="clip-14">
      <path d="M 429 164 L 441.953125 164 L 441.953125 171 L 429 171 Z M 429 164 " clip-rule="nonzero"/>
    </clipPath>
  </defs>
  <g clip-path="url(#clip-0)">
    <path fill="rgb(69.799805%, 69.40918%, 69.40918%)" d="M 83.140625 5.523438 L 85.3125 5.523438 L 85.3125 295.378906 L 83.140625 295.378906 Z M 83.140625 5.523438 " fill-opacity="1" fill-rule="nonzero"/>
  </g>
  <g clip-path="url(#clip-1)">
    <path fill="rgb(69.799805%, 69.40918%, 69.40918%)" d="M 115.105469 5.523438 L 117.28125 5.523438 L 117.28125 295.378906 L 115.105469 295.378906 Z M 115.105469 5.523438 " fill-opacity="1" fill-rule="nonzero"/>
  </g>
  <g clip-path="url(#clip-2)">
    <path fill="rgb(69.799805%, 69.40918%, 69.40918%)" d="M 147.058594 5.523438 L 149.238281 5.523438 L 149.238281 295.378906 L 147.058594 295.378906 Z M 147.058594 5.523438 " fill-opacity="1" fill-rule="nonzero"/>
  </g>
  <g clip-path="url(#clip-3)">
    <path fill="rgb(69.799805%, 69.40918%, 69.40918%)" d="M 179.019531 5.523438 L 181.195312 5.523438 L 181.195312 295.375 L 179.019531 295.375 Z M 179.019531 5.523438 " fill-opacity="1" fill-rule="nonzero"/>
  </g>
  <g clip-path="url(#clip-4)">
    <path fill="rgb(69.799805%, 69.40918%, 69.40918%)" d="M 210.984375 5.523438 L 213.160156 5.523438 L 213.160156 295.375 L 210.984375 295.375 Z M 210.984375 5.523438 " fill-opacity="1" fill-rule="nonzero"/>
  </g>
  <g clip-path="url(#clip-5)">
    <path fill="rgb(69.799805%, 69.40918%, 69.40918%)" d="M 242.945312 5.523438 L 245.117188 5.523438 L 245.117188 295.378906 L 242.945312 295.378906 Z M 242.945312 5.523438 " fill-opacity="1" fill-rule="nonzero"/>
  </g>
  <g clip-path="url(#clip-6)">
    <path fill="rgb(69.799805%, 69.40918%, 69.40918%)" d="M 274.90625 5.523438 L 277.082031 5.523438 L 277.082031 295.375 L 274.90625 295.375 Z M 274.90625 5.523438 " fill-opacity="1" fill-rule="nonzero"/>
  </g>
  <g clip-path="url(#clip-7)">
    <path fill="rgb(69.799805%, 69.40918%, 69.40918%)" d="M 306.871094 5.523438 L 309.039062 5.523438 L 309.039062 295.375 L 306.871094 295.375 Z M 306.871094 5.523438 " fill-opacity="1" fill-rule="nonzero"/>
  </g>
  <g clip-path="url(#clip-8)">
    <path fill="rgb(69.799805%, 69.40918%, 69.40918%)" d="M 338.828125 5.523438 L 341 5.523438 L 341 295.378906 L 338.828125 295.378906 Z M 338.828125 5.523438 " fill-opacity="1" fill-rule="nonzero"/>
  </g>
  <g clip-path="url(#clip-9)">
    <path fill="rgb(69.799805%, 69.40918%, 69.40918%)" d="M 370.792969 5.523438 L 372.960938 5.523438 L 372.960938 295.378906 L 370.792969 295.378906 Z M 370.792969 5.523438 " fill-opacity="1" fill-rule="nonzero"/>
  </g>
  <g clip-path="url(#clip-10)">
    <path fill="rgb(69.799805%, 69.40918%, 69.40918%)" d="M 402.746094 5.523438 L 404.921875 5.523438 L 404.921875 295.378906 L 402.746094 295.378906 Z M 402.746094 5.523438 " fill-opacity="1" fill-rule="nonzero"/>
  </g>
  <path fill="rgb(43.139648%, 43.139648%, 43.139648%)" d="M 49.96875 16.941406 L 52.140625 16.941406 L 52.140625 294.316406 L 49.96875 294.316406 Z M 49.96875 16.941406 " fill-opacity="1" fill-rule="nonzero"/>
  <g clip-path="url(#clip-11)">
    <path fill="rgb(43.139648%, 43.139648%, 43.139648%)" d="M 51.054688 5.285156 L 45.203125 18.078125 L 51.054688 17.164062 Z M 51.054688 5.285156 " fill-opacity="1" fill-rule="nonzero"/>
  </g>
  <g clip-path="url(#clip-12)">
    <path fill="rgb(64.709473%, 62.348938%, 63.139343%)" d="M 51.054688 5.285156 L 56.90625 18.078125 L 51.054688 17.164062 Z M 51.054688 5.285156 " fill-opacity="1" fill-rule="nonzero"/>
  </g>
  <path fill="rgb(43.139648%, 43.139648%, 43.139648%)" d="M 51.054688 163.726562 L 432.238281 163.726562 L 432.238281 165.910156 L 51.054688 165.910156 Z M 51.054688 163.726562 " fill-opacity="1" fill-rule="nonzero"/>
  <g clip-path="url(#clip-13)">
    <path fill="rgb(43.139648%, 43.139648%, 43.139648%)" d="M 442.007812 164.816406 L 429.238281 158.949219 L 430.152344 164.816406 Z M 442.007812 164.816406 " fill-opacity="1" fill-rule="nonzero"/>
  </g>
  <g clip-path="url(#clip-14)">
    <path fill="rgb(64.709473%, 62.348938%, 63.139343%)" d="M 442.007812 164.816406 L 429.238281 170.679688 L 430.152344 164.816406 Z M 442.007812 164.816406 " fill-opacity="1" fill-rule="nonzero"/>
  </g>
  <path fill="rgb(63.529968%, 78.039551%, 83.918762%)" d="M 245.292969 224.425781 L 209.351562 129.503906 L 180.097656 99.839844 L 151.296875 110.46875 L 118.035156 159.65625 L 84.820312 142.308594 L 59.667969 163.726562 L 52.140625 163.726562 L 52.171875 158.667969 L 83.636719 131.863281 L 115.179688 148.332031 L 145.667969 103.261719 L 182.347656 89.71875 L 216.835938 124.683594 L 244.03125 196.507812 L 273.207031 91.597656 L 309.441406 76.078125 L 340.25 107.222656 L 368.15625 50.476562 L 401.230469 25.671875 L 406.4375 32.660156 L 375.042969 56.207031 L 342.65625 122.050781 L 307.417969 86.429688 L 280.472656 97.96875 Z M 245.292969 224.425781 " fill-opacity="1" fill-rule="nonzero"/>
  <path fill="rgb(43.139648%, 53.729248%, 62.348938%)" d="M 242.25 288.03125 L 212.121094 205.015625 L 177.996094 262.027344 L 144.640625 140.332031 L 113.480469 127.917969 L 85.679688 104.316406 L 56.742188 163.726562 L 52.140625 163.726562 L 52.140625 153.304688 L 82.773438 90.417969 L 118.019531 120.34375 L 151.878906 133.835938 L 180.996094 240.058594 L 214.058594 184.835938 L 245.964844 272.765625 L 274.285156 246.679688 L 305.265625 246.679688 L 339.429688 214.296875 L 375.292969 262.234375 L 405.675781 276.441406 L 401.992188 284.347656 L 369.636719 269.207031 L 338.308594 227.351562 L 308.722656 255.398438 L 277.675781 255.398438 Z M 242.25 288.03125 " fill-opacity="1" fill-rule="nonzero"/>
</svg>
