<?xml version="1.0" encoding="UTF-8"?>
<svg xmlns="http://www.w3.org/2000/svg" xmlns:xlink="http://www.w3.org/1999/xlink" width="12pt" height="12pt" viewBox="0 0 12 12" version="1.1">
<defs>
<clipPath id="clip1">
  <path d="M 0.457031 0 L 11.25 0 L 11.25 11.992188 L 0.457031 11.992188 Z M 0.457031 0 "/>
</clipPath>
</defs>
<g id="surface1">
<g clip-path="url(#clip1)" clip-rule="nonzero">
<path style=" stroke:none;fill-rule:nonzero;fill:rgb(0%,0%,0%);fill-opacity:1;" d="M 9.449219 8.476562 C 8.996094 8.476562 8.585938 8.652344 8.273438 8.9375 L 4 6.445312 C 4.03125 6.3125 4.054688 6.171875 4.054688 6.027344 C 4.054688 5.882812 4.03125 5.742188 4 5.605469 L 8.226562 3.140625 C 8.546875 3.4375 8.976562 3.625 9.449219 3.625 C 10.445312 3.625 11.25 2.820312 11.25 1.824219 C 11.25 0.832031 10.445312 0.0273438 9.449219 0.0273438 C 8.457031 0.0273438 7.652344 0.832031 7.652344 1.824219 C 7.652344 1.96875 7.671875 2.109375 7.707031 2.246094 L 3.476562 4.714844 C 3.15625 4.414062 2.730469 4.226562 2.253906 4.226562 C 1.261719 4.226562 0.457031 5.035156 0.457031 6.027344 C 0.457031 7.019531 1.261719 7.824219 2.253906 7.824219 C 2.730469 7.824219 3.15625 7.640625 3.476562 7.339844 L 7.75 9.832031 C 7.722656 9.957031 7.703125 10.089844 7.703125 10.222656 C 7.703125 11.191406 8.484375 11.972656 9.449219 11.972656 C 10.417969 11.972656 11.199219 11.191406 11.199219 10.222656 C 11.199219 9.257812 10.417969 8.476562 9.449219 8.476562 Z M 9.449219 8.476562 "/>
</g>
</g>
</svg>
