<?xml version="1.0" encoding="UTF-8"?>
<svg xmlns="http://www.w3.org/2000/svg" xmlns:xlink="http://www.w3.org/1999/xlink" width="12pt" height="12pt" viewBox="0 0 12 12" version="1.1">
<defs>
<clipPath id="clip1">
  <path d="M 0.152344 0.0507812 L 11.878906 0.0507812 L 11.878906 11.777344 L 0.152344 11.777344 Z M 0.152344 0.0507812 "/>
</clipPath>
</defs>
<g id="surface1">
<g clip-path="url(#clip1)" clip-rule="nonzero">
<path style=" stroke:none;fill-rule:nonzero;fill:rgb(0%,0%,0%);fill-opacity:1;" d="M 1.550781 0.0507812 C 0.78125 0.0507812 0.152344 0.679688 0.152344 1.445312 L 0.152344 10.382812 C 0.152344 11.148438 0.78125 11.777344 1.550781 11.777344 L 10.484375 11.777344 C 11.25 11.777344 11.878906 11.148438 11.878906 10.382812 L 11.878906 1.445312 C 11.878906 0.679688 11.25 0.0507812 10.484375 0.0507812 Z M 1.550781 0.609375 L 10.484375 0.609375 C 10.949219 0.609375 11.320312 0.980469 11.320312 1.445312 L 11.320312 10.382812 C 11.320312 10.847656 10.949219 11.21875 10.484375 11.21875 L 1.550781 11.21875 C 1.085938 11.21875 0.710938 10.847656 0.710938 10.382812 L 0.710938 1.445312 C 0.710938 0.980469 1.085938 0.609375 1.550781 0.609375 Z M 2.109375 2.5625 L 2.109375 7.589844 L 3.226562 7.589844 L 3.226562 8.425781 L 4.34375 8.425781 L 4.34375 9.265625 L 7.691406 9.265625 L 7.691406 8.425781 L 8.808594 8.425781 L 8.808594 7.589844 L 9.925781 7.589844 L 9.925781 2.5625 Z M 2.667969 3.121094 L 9.367188 3.121094 L 9.367188 7.03125 L 8.25 7.03125 L 8.25 7.867188 L 7.132812 7.867188 L 7.132812 8.707031 L 4.898438 8.707031 L 4.898438 7.867188 L 3.785156 7.867188 L 3.785156 7.03125 L 2.667969 7.03125 Z M 3.226562 3.679688 L 3.226562 5.632812 L 3.785156 5.632812 L 3.785156 3.679688 Z M 4.0625 3.679688 L 4.0625 5.632812 L 4.621094 5.632812 L 4.621094 3.679688 Z M 4.898438 3.679688 L 4.898438 5.632812 L 5.457031 5.632812 L 5.457031 3.679688 Z M 5.738281 3.679688 L 5.738281 5.632812 L 6.296875 5.632812 L 6.296875 3.679688 Z M 6.574219 3.679688 L 6.574219 5.632812 L 7.132812 5.632812 L 7.132812 3.679688 Z M 7.414062 3.679688 L 7.414062 5.632812 L 7.972656 5.632812 L 7.972656 3.679688 Z M 8.25 3.679688 L 8.25 5.632812 L 8.808594 5.632812 L 8.808594 3.679688 Z M 8.25 3.679688 "/>
</g>
</g>
</svg>
