<?xml version="1.0" encoding="UTF-8"?>
<svg xmlns="http://www.w3.org/2000/svg" xmlns:xlink="http://www.w3.org/1999/xlink" width="375pt" height="374.999991pt" viewBox="0 0 375 374.999991" version="1.2">
<defs>
<clipPath id="clip1">
  <path d="M 55.910156 0 L 336.832031 0 L 336.832031 375 L 55.910156 375 Z M 55.910156 0 "/>
</clipPath>
</defs>
<g id="surface1">
<rect x="0" y="0" width="375" height="374.999991" style="fill:rgb(100%,100%,100%);fill-opacity:1;stroke:none;"/>
<rect x="0" y="0" width="375" height="374.999991" style="fill:rgb(100%,100%,100%);fill-opacity:1;stroke:none;"/>
<rect x="0" y="0" width="375" height="374.999991" style="fill:rgb(100%,100%,100%);fill-opacity:1;stroke:none;"/>
<g clip-path="url(#clip1)" clip-rule="nonzero">
<path style=" stroke:none;fill-rule:nonzero;fill:rgb(0%,0%,0%);fill-opacity:1;" d="M 277.335938 297.28125 L 208.644531 297.28125 C 166.003906 297.28125 131.296875 262.464844 131.296875 219.691406 L 131.296875 38.253906 C 131.296875 17.351562 114.347656 0.328125 93.488281 0.328125 C 72.652344 0.328125 55.679688 17.351562 55.679688 38.253906 L 55.679688 219.703125 C 55.679688 243.085938 61.128906 266.503906 71.425781 287.492188 C 76.257812 297.335938 78.8125 308.324219 78.8125 319.320312 L 78.8125 464.113281 C 78.8125 467.027344 81.152344 469.371094 84.054688 469.371094 L 261.433594 469.371094 L 261.433594 377.878906 C 261.433594 374.96875 263.804688 372.621094 266.675781 372.621094 C 269.570312 372.621094 271.917969 374.96875 271.917969 377.878906 L 271.917969 469.371094 L 331.824219 469.371094 C 334.726562 469.371094 337.0625 467.027344 337.0625 464.113281 L 337.0625 357.21875 C 337.054688 324.167969 310.25 297.28125 277.335938 297.28125 Z M 277.335938 297.28125 "/>
</g>
<path style=" stroke:none;fill-rule:nonzero;fill:rgb(0%,0%,0%);fill-opacity:1;" d="M 208.644531 147.664062 C 169.078125 147.664062 136.863281 179.964844 136.863281 219.691406 C 136.863281 259.386719 169.066406 291.699219 208.644531 291.699219 C 248.238281 291.699219 280.449219 259.394531 280.449219 219.691406 C 280.449219 179.988281 248.238281 147.664062 208.644531 147.664062 Z M 208.644531 147.664062 "/>
<path style=" stroke:none;fill-rule:nonzero;fill:rgb(100%,100%,100%);fill-opacity:1;" d="M 207.425781 144.695312 C 206.21875 144.695312 205.015625 144.726562 203.808594 144.785156 C 202.605469 144.84375 201.402344 144.933594 200.203125 145.050781 C 199 145.167969 197.804688 145.316406 196.613281 145.496094 C 195.417969 145.671875 194.230469 145.878906 193.046875 146.113281 C 191.863281 146.347656 190.6875 146.613281 189.515625 146.90625 C 188.347656 147.199219 187.183594 147.519531 186.03125 147.871094 C 184.875 148.21875 183.730469 148.597656 182.59375 149.003906 C 181.460938 149.410156 180.335938 149.84375 179.21875 150.308594 C 178.105469 150.769531 177.003906 151.257812 175.914062 151.773438 C 174.820312 152.289062 173.746094 152.832031 172.679688 153.398438 C 171.617188 153.96875 170.566406 154.5625 169.53125 155.183594 C 168.5 155.804688 167.480469 156.449219 166.476562 157.117188 C 165.472656 157.789062 164.488281 158.484375 163.519531 159.203125 C 162.550781 159.921875 161.597656 160.664062 160.667969 161.425781 C 159.734375 162.191406 158.820312 162.980469 157.925781 163.789062 C 157.035156 164.601562 156.160156 165.433594 155.308594 166.285156 C 154.453125 167.136719 153.621094 168.011719 152.8125 168.90625 C 152.003906 169.800781 151.214844 170.710938 150.449219 171.644531 C 149.683594 172.578125 148.941406 173.527344 148.222656 174.496094 C 147.503906 175.464844 146.808594 176.453125 146.140625 177.453125 C 145.46875 178.457031 144.824219 179.476562 144.203125 180.511719 C 143.585938 181.546875 142.988281 182.59375 142.421875 183.660156 C 141.851562 184.722656 141.3125 185.800781 140.792969 186.890625 C 140.277344 187.980469 139.789062 189.082031 139.328125 190.199219 C 138.867188 191.3125 138.433594 192.4375 138.027344 193.574219 C 137.621094 194.710938 137.242188 195.855469 136.890625 197.007812 C 136.542969 198.164062 136.21875 199.324219 135.925781 200.496094 C 135.632812 201.664062 135.371094 202.84375 135.132812 204.023438 C 134.898438 205.207031 134.691406 206.394531 134.515625 207.589844 C 134.339844 208.78125 134.191406 209.980469 134.074219 211.179688 C 133.953125 212.378906 133.867188 213.582031 133.808594 214.789062 C 133.746094 215.992188 133.71875 217.199219 133.71875 218.40625 C 133.71875 219.609375 133.746094 220.816406 133.808594 222.023438 C 133.867188 223.226562 133.953125 224.429688 134.074219 225.628906 C 134.191406 226.832031 134.339844 228.027344 134.515625 229.21875 C 134.691406 230.414062 134.898438 231.601562 135.132812 232.785156 C 135.371094 233.96875 135.632812 235.144531 135.925781 236.316406 C 136.21875 237.484375 136.542969 238.648438 136.890625 239.800781 C 137.242188 240.957031 137.621094 242.101562 138.027344 243.238281 C 138.433594 244.371094 138.867188 245.496094 139.328125 246.613281 C 139.789062 247.726562 140.277344 248.828125 140.792969 249.917969 C 141.3125 251.011719 141.851562 252.085938 142.421875 253.152344 C 142.988281 254.214844 143.585938 255.265625 144.203125 256.296875 C 144.824219 257.332031 145.46875 258.351562 146.140625 259.355469 C 146.808594 260.359375 147.503906 261.34375 148.222656 262.3125 C 148.941406 263.28125 149.683594 264.234375 150.449219 265.164062 C 151.214844 266.097656 152.003906 267.011719 152.8125 267.90625 C 153.621094 268.796875 154.453125 269.671875 155.308594 270.523438 C 156.160156 271.378906 157.035156 272.210938 157.925781 273.019531 C 158.820312 273.828125 159.734375 274.617188 160.667969 275.382812 C 161.597656 276.148438 162.550781 276.890625 163.519531 277.609375 C 164.488281 278.328125 165.472656 279.019531 166.476562 279.691406 C 167.480469 280.363281 168.5 281.007812 169.53125 281.625 C 170.566406 282.246094 171.617188 282.839844 172.679688 283.410156 C 173.746094 283.980469 174.820312 284.519531 175.914062 285.035156 C 177.003906 285.550781 178.105469 286.042969 179.21875 286.503906 C 180.335938 286.964844 181.460938 287.398438 182.59375 287.804688 C 183.730469 288.210938 184.875 288.589844 186.03125 288.941406 C 187.183594 289.289062 188.347656 289.613281 189.515625 289.90625 C 190.6875 290.199219 191.863281 290.460938 193.046875 290.695312 C 194.230469 290.933594 195.417969 291.140625 196.613281 291.316406 C 197.804688 291.492188 199 291.640625 200.203125 291.757812 C 201.402344 291.875 202.605469 291.964844 203.808594 292.023438 C 205.015625 292.082031 206.21875 292.113281 207.425781 292.113281 C 208.632812 292.113281 209.839844 292.082031 211.042969 292.023438 C 212.25 291.964844 213.449219 291.875 214.652344 291.757812 C 215.851562 291.640625 217.046875 291.492188 218.242188 291.316406 C 219.433594 291.140625 220.625 290.933594 221.804688 290.695312 C 222.988281 290.460938 224.167969 290.199219 225.335938 289.90625 C 226.507812 289.613281 227.667969 289.289062 228.824219 288.941406 C 229.976562 288.589844 231.121094 288.210938 232.257812 287.804688 C 233.394531 287.398438 234.519531 286.964844 235.632812 286.503906 C 236.75 286.042969 237.851562 285.550781 238.941406 285.035156 C 240.03125 284.519531 241.109375 283.980469 242.171875 283.410156 C 243.238281 282.839844 244.285156 282.246094 245.320312 281.625 C 246.355469 281.007812 247.375 280.363281 248.375 279.691406 C 249.378906 279.019531 250.367188 278.328125 251.335938 277.609375 C 252.304688 276.890625 253.253906 276.148438 254.1875 275.382812 C 255.121094 274.617188 256.03125 273.828125 256.925781 273.019531 C 257.820312 272.210938 258.695312 271.378906 259.546875 270.523438 C 260.398438 269.671875 261.230469 268.796875 262.042969 267.90625 C 262.851562 267.011719 263.640625 266.097656 264.402344 265.164062 C 265.167969 264.234375 265.910156 263.28125 266.628906 262.3125 C 267.347656 261.34375 268.042969 260.359375 268.714844 259.355469 C 269.382812 258.351562 270.027344 257.332031 270.648438 256.296875 C 271.269531 255.265625 271.863281 254.214844 272.433594 253.152344 C 273 252.085938 273.542969 251.011719 274.058594 249.917969 C 274.574219 248.828125 275.0625 247.726562 275.523438 246.613281 C 275.984375 245.496094 276.421875 244.371094 276.828125 243.238281 C 277.234375 242.101562 277.609375 240.957031 277.960938 239.800781 C 278.3125 238.648438 278.632812 237.484375 278.925781 236.316406 C 279.21875 235.144531 279.484375 233.96875 279.71875 232.785156 C 279.953125 231.601562 280.160156 230.414062 280.335938 229.21875 C 280.515625 228.027344 280.660156 226.832031 280.78125 225.628906 C 280.898438 224.429688 280.988281 223.226562 281.046875 222.023438 C 281.105469 220.816406 281.136719 219.609375 281.136719 218.40625 C 281.136719 217.199219 281.105469 215.992188 281.046875 214.789062 C 280.988281 213.582031 280.898438 212.378906 280.78125 211.179688 C 280.660156 209.980469 280.515625 208.78125 280.335938 207.589844 C 280.160156 206.394531 279.953125 205.207031 279.71875 204.023438 C 279.484375 202.84375 279.21875 201.664062 278.925781 200.496094 C 278.632812 199.324219 278.3125 198.164062 277.960938 197.007812 C 277.609375 195.855469 277.234375 194.710938 276.828125 193.574219 C 276.421875 192.4375 275.984375 191.3125 275.523438 190.199219 C 275.0625 189.082031 274.574219 187.980469 274.058594 186.890625 C 273.542969 185.800781 273 184.722656 272.433594 183.660156 C 271.863281 182.59375 271.269531 181.546875 270.648438 180.511719 C 270.027344 179.476562 269.382812 178.457031 268.714844 177.453125 C 268.042969 176.453125 267.347656 175.464844 266.628906 174.496094 C 265.910156 173.527344 265.167969 172.578125 264.402344 171.644531 C 263.640625 170.710938 262.851562 169.800781 262.042969 168.90625 C 261.230469 168.011719 260.398438 167.136719 259.546875 166.285156 C 258.695312 165.433594 257.820312 164.601562 256.925781 163.789062 C 256.03125 162.980469 255.121094 162.191406 254.1875 161.425781 C 253.253906 160.664062 252.304688 159.921875 251.335938 159.203125 C 250.367188 158.484375 249.378906 157.789062 248.375 157.117188 C 247.375 156.449219 246.355469 155.804688 245.320312 155.183594 C 244.285156 154.5625 243.238281 153.96875 242.171875 153.398438 C 241.109375 152.832031 240.03125 152.289062 238.941406 151.773438 C 237.851562 151.257812 236.75 150.769531 235.632812 150.308594 C 234.519531 149.84375 233.394531 149.410156 232.257812 149.003906 C 231.121094 148.597656 229.976562 148.21875 228.824219 147.871094 C 227.667969 147.519531 226.507812 147.199219 225.335938 146.90625 C 224.167969 146.613281 222.988281 146.347656 221.804688 146.113281 C 220.625 145.878906 219.433594 145.671875 218.242188 145.496094 C 217.046875 145.316406 215.851562 145.167969 214.652344 145.050781 C 213.449219 144.933594 212.25 144.84375 211.042969 144.785156 C 209.839844 144.726562 208.632812 144.695312 207.425781 144.695312 Z M 207.425781 144.695312 "/>
<path style=" stroke:none;fill-rule:nonzero;fill:rgb(0%,0%,0%);fill-opacity:1;" d="M 224.089844 135.445312 C 222.957031 135.445312 221.820312 135.472656 220.6875 135.53125 C 219.550781 135.585938 218.417969 135.667969 217.289062 135.78125 C 216.15625 135.890625 215.03125 136.03125 213.90625 136.199219 C 212.785156 136.363281 211.664062 136.558594 210.550781 136.78125 C 209.4375 137 208.328125 137.25 207.226562 137.527344 C 206.125 137.800781 205.03125 138.105469 203.945312 138.433594 C 202.859375 138.765625 201.777344 139.121094 200.710938 139.503906 C 199.640625 139.886719 198.582031 140.292969 197.53125 140.730469 C 196.480469 141.164062 195.445312 141.625 194.417969 142.109375 C 193.390625 142.59375 192.375 143.105469 191.375 143.640625 C 190.371094 144.175781 189.386719 144.738281 188.410156 145.320312 C 187.4375 145.90625 186.476562 146.511719 185.53125 147.144531 C 184.589844 147.773438 183.660156 148.429688 182.746094 149.105469 C 181.835938 149.78125 180.941406 150.480469 180.0625 151.199219 C 179.183594 151.921875 178.324219 152.664062 177.484375 153.425781 C 176.640625 154.1875 175.820312 154.972656 175.015625 155.773438 C 174.210938 156.578125 173.429688 157.398438 172.667969 158.242188 C 171.902344 159.082031 171.160156 159.941406 170.441406 160.820312 C 169.722656 161.699219 169.023438 162.59375 168.34375 163.507812 C 167.667969 164.417969 167.015625 165.347656 166.382812 166.292969 C 165.753906 167.234375 165.144531 168.195312 164.5625 169.167969 C 163.976562 170.144531 163.417969 171.132812 162.882812 172.132812 C 162.347656 173.136719 161.835938 174.148438 161.351562 175.175781 C 160.867188 176.203125 160.40625 177.242188 159.96875 178.289062 C 159.535156 179.339844 159.128906 180.398438 158.746094 181.46875 C 158.363281 182.539062 158.003906 183.617188 157.675781 184.703125 C 157.347656 185.789062 157.042969 186.882812 156.765625 187.988281 C 156.492188 189.089844 156.242188 190.195312 156.019531 191.308594 C 155.800781 192.425781 155.605469 193.542969 155.4375 194.667969 C 155.273438 195.789062 155.132812 196.917969 155.023438 198.046875 C 154.910156 199.175781 154.828125 200.308594 154.769531 201.445312 C 154.714844 202.578125 154.6875 203.714844 154.6875 204.851562 C 154.6875 205.984375 154.714844 207.121094 154.769531 208.253906 C 154.828125 209.390625 154.910156 210.523438 155.023438 211.652344 C 155.132812 212.785156 155.273438 213.910156 155.4375 215.035156 C 155.605469 216.15625 155.800781 217.277344 156.019531 218.390625 C 156.242188 219.503906 156.492188 220.613281 156.765625 221.714844 C 157.042969 222.816406 157.347656 223.910156 157.675781 224.996094 C 158.003906 226.082031 158.363281 227.160156 158.746094 228.230469 C 159.128906 229.300781 159.535156 230.359375 159.96875 231.410156 C 160.40625 232.460938 160.867188 233.496094 161.351562 234.523438 C 161.835938 235.550781 162.347656 236.566406 162.882812 237.566406 C 163.417969 238.570312 163.976562 239.554688 164.5625 240.53125 C 165.144531 241.503906 165.753906 242.464844 166.382812 243.410156 C 167.015625 244.351562 167.667969 245.28125 168.34375 246.195312 C 169.023438 247.105469 169.722656 248 170.441406 248.878906 C 171.160156 249.757812 171.902344 250.617188 172.667969 251.457031 C 173.429688 252.300781 174.210938 253.121094 175.015625 253.925781 C 175.820312 254.730469 176.640625 255.511719 177.484375 256.273438 C 178.324219 257.039062 179.183594 257.777344 180.0625 258.5 C 180.941406 259.21875 181.835938 259.917969 182.746094 260.59375 C 183.660156 261.273438 184.589844 261.925781 185.53125 262.558594 C 186.476562 263.1875 187.4375 263.796875 188.410156 264.378906 C 189.386719 264.964844 190.371094 265.523438 191.375 266.058594 C 192.375 266.59375 193.390625 267.105469 194.417969 267.589844 C 195.445312 268.074219 196.480469 268.535156 197.53125 268.972656 C 198.582031 269.40625 199.640625 269.8125 200.710938 270.195312 C 201.777344 270.578125 202.859375 270.9375 203.945312 271.265625 C 205.03125 271.59375 206.125 271.898438 207.226562 272.175781 C 208.328125 272.449219 209.4375 272.699219 210.550781 272.921875 C 211.664062 273.140625 212.785156 273.335938 213.90625 273.503906 C 215.03125 273.667969 216.15625 273.808594 217.289062 273.917969 C 218.417969 274.03125 219.550781 274.113281 220.6875 274.171875 C 221.820312 274.226562 222.957031 274.253906 224.089844 274.253906 C 225.226562 274.253906 226.363281 274.226562 227.496094 274.171875 C 228.632812 274.113281 229.761719 274.03125 230.894531 273.917969 C 232.023438 273.808594 233.152344 273.667969 234.273438 273.503906 C 235.398438 273.335938 236.515625 273.140625 237.632812 272.921875 C 238.746094 272.699219 239.851562 272.449219 240.953125 272.175781 C 242.058594 271.898438 243.152344 271.59375 244.238281 271.265625 C 245.324219 270.9375 246.402344 270.578125 247.472656 270.195312 C 248.542969 269.8125 249.601562 269.40625 250.652344 268.972656 C 251.699219 268.535156 252.738281 268.074219 253.765625 267.589844 C 254.792969 267.105469 255.804688 266.59375 256.808594 266.058594 C 257.808594 265.523438 258.796875 264.964844 259.773438 264.378906 C 260.746094 263.796875 261.707031 263.1875 262.648438 262.558594 C 263.59375 261.925781 264.523438 261.273438 265.433594 260.59375 C 266.347656 259.917969 267.242188 259.21875 268.121094 258.5 C 269 257.777344 269.859375 257.039062 270.699219 256.273438 C 271.542969 255.511719 272.363281 254.730469 273.167969 253.925781 C 273.96875 253.121094 274.753906 252.300781 275.515625 251.457031 C 276.277344 250.617188 277.019531 249.757812 277.742188 248.878906 C 278.460938 248 279.160156 247.105469 279.835938 246.195312 C 280.511719 245.28125 281.167969 244.351562 281.796875 243.410156 C 282.429688 242.464844 283.035156 241.503906 283.621094 240.53125 C 284.203125 239.554688 284.765625 238.570312 285.300781 237.566406 C 285.835938 236.566406 286.347656 235.550781 286.832031 234.523438 C 287.316406 233.496094 287.777344 232.460938 288.210938 231.410156 C 288.648438 230.359375 289.054688 229.300781 289.4375 228.230469 C 289.820312 227.160156 290.175781 226.082031 290.507812 224.996094 C 290.835938 223.910156 291.140625 222.816406 291.414062 221.714844 C 291.691406 220.613281 291.941406 219.503906 292.160156 218.390625 C 292.382812 217.277344 292.578125 216.15625 292.742188 215.035156 C 292.910156 213.910156 293.050781 212.785156 293.160156 211.652344 C 293.273438 210.523438 293.355469 209.390625 293.410156 208.253906 C 293.46875 207.121094 293.496094 205.984375 293.496094 204.851562 C 293.496094 203.714844 293.46875 202.578125 293.410156 201.445312 C 293.355469 200.308594 293.273438 199.175781 293.160156 198.046875 C 293.050781 196.917969 292.910156 195.789062 292.742188 194.667969 C 292.578125 193.542969 292.382812 192.425781 292.160156 191.308594 C 291.941406 190.195312 291.691406 189.089844 291.414062 187.988281 C 291.140625 186.882812 290.835938 185.789062 290.507812 184.703125 C 290.175781 183.617188 289.820312 182.539062 289.4375 181.46875 C 289.054688 180.398438 288.648438 179.339844 288.210938 178.289062 C 287.777344 177.242188 287.316406 176.203125 286.832031 175.175781 C 286.347656 174.148438 285.835938 173.136719 285.300781 172.132812 C 284.765625 171.132812 284.203125 170.144531 283.621094 169.167969 C 283.035156 168.195312 282.429688 167.234375 281.796875 166.292969 C 281.167969 165.347656 280.511719 164.417969 279.835938 163.507812 C 279.160156 162.59375 278.460938 161.699219 277.742188 160.820312 C 277.019531 159.941406 276.277344 159.082031 275.515625 158.242188 C 274.753906 157.398438 273.96875 156.578125 273.167969 155.773438 C 272.363281 154.972656 271.542969 154.1875 270.699219 153.425781 C 269.859375 152.664062 269 151.921875 268.121094 151.199219 C 267.242188 150.480469 266.347656 149.78125 265.433594 149.105469 C 264.523438 148.429688 263.59375 147.773438 262.648438 147.144531 C 261.707031 146.511719 260.746094 145.90625 259.773438 145.320312 C 258.796875 144.738281 257.808594 144.175781 256.808594 143.640625 C 255.804688 143.105469 254.792969 142.59375 253.765625 142.109375 C 252.738281 141.625 251.699219 141.164062 250.652344 140.730469 C 249.601562 140.292969 248.542969 139.886719 247.472656 139.503906 C 246.402344 139.121094 245.324219 138.765625 244.238281 138.433594 C 243.152344 138.105469 242.058594 137.800781 240.953125 137.527344 C 239.851562 137.25 238.746094 137 237.632812 136.78125 C 236.515625 136.558594 235.398438 136.363281 234.273438 136.199219 C 233.152344 136.03125 232.023438 135.890625 230.894531 135.78125 C 229.761719 135.667969 228.632812 135.585938 227.496094 135.53125 C 226.363281 135.472656 225.226562 135.445312 224.089844 135.445312 Z M 224.089844 135.445312 "/>
</g>
</svg>
