<?xml version="1.0" encoding="UTF-8"?>
<svg xmlns="http://www.w3.org/2000/svg" xmlns:xlink="http://www.w3.org/1999/xlink" width="12pt" height="12pt" viewBox="0 0 12 12" version="1.1">
<defs>
<clipPath id="clip1">
  <path d="M 1.53125 0 L 10.449219 0 L 10.449219 11.992188 L 1.53125 11.992188 Z M 1.53125 0 "/>
</clipPath>
</defs>
<g id="surface1">
<g clip-path="url(#clip1)" clip-rule="nonzero">
<path style=" stroke:none;fill-rule:nonzero;fill:rgb(0%,0%,0%);fill-opacity:1;" d="M 8.558594 9.40625 L 6.378906 9.40625 C 5.027344 9.40625 3.925781 8.304688 3.925781 6.949219 L 3.925781 1.210938 C 3.925781 0.550781 3.386719 0.0117188 2.726562 0.0117188 C 2.0625 0.0117188 1.523438 0.550781 1.523438 1.210938 L 1.523438 6.953125 C 1.523438 7.691406 1.699219 8.433594 2.023438 9.097656 C 2.175781 9.40625 2.257812 9.753906 2.257812 10.105469 L 2.257812 14.683594 C 2.257812 14.777344 2.332031 14.851562 2.425781 14.851562 L 8.054688 14.851562 L 8.054688 11.957031 C 8.054688 11.863281 8.128906 11.789062 8.222656 11.789062 C 8.3125 11.789062 8.386719 11.863281 8.386719 11.957031 L 8.386719 14.851562 L 10.289062 14.851562 C 10.382812 14.851562 10.457031 14.777344 10.457031 14.683594 L 10.457031 11.300781 C 10.457031 10.257812 9.605469 9.40625 8.558594 9.40625 Z M 8.558594 9.40625 "/>
</g>
<path style=" stroke:none;fill-rule:nonzero;fill:rgb(0%,0%,0%);fill-opacity:1;" d="M 6.378906 4.671875 C 5.125 4.671875 4.101562 5.695312 4.101562 6.949219 C 4.101562 8.207031 5.125 9.230469 6.378906 9.230469 C 7.636719 9.230469 8.660156 8.207031 8.660156 6.949219 C 8.660156 5.695312 7.636719 4.671875 6.378906 4.671875 Z M 6.378906 4.671875 "/>
</g>
</svg>
