<?xml version="1.0" encoding="UTF-8"?>
<svg xmlns="http://www.w3.org/2000/svg" xmlns:xlink="http://www.w3.org/1999/xlink" width="12pt" height="12pt" viewBox="0 0 12 12" version="1.1">
<g id="surface1">
<path style=" stroke:none;fill-rule:nonzero;fill:rgb(100%,100%,100%);fill-opacity:1;" d="M 0 0 L 11.992188 0 L 11.992188 11.992188 L 0 11.992188 Z M 0 0 "/>
<path style=" stroke:none;fill-rule:nonzero;fill:rgb(100%,100%,100%);fill-opacity:1;" d="M 0 0 L 11.992188 0 L 11.992188 11.992188 L 0 11.992188 Z M 0 0 "/>
<path style=" stroke:none;fill-rule:nonzero;fill:rgb(100%,100%,100%);fill-opacity:1;" d="M 0 0 L 11.992188 0 L 11.992188 11.992188 L 0 11.992188 Z M 0 0 "/>
<path style=" stroke:none;fill-rule:nonzero;fill:rgb(0%,0%,0%);fill-opacity:1;" d="M 1.007812 4.109375 L 1.011719 4.113281 L 4.453125 4.109375 L 4.453125 2.78125 L 2.625 2.78125 C 3.476562 1.890625 4.667969 1.332031 5.996094 1.332031 C 8.570312 1.332031 10.660156 3.421875 10.660156 5.996094 L 11.992188 5.996094 C 11.992188 2.683594 9.308594 0 5.996094 0 C 4.296875 0 2.765625 0.710938 1.675781 1.84375 L 1.675781 0 L 0.34375 0 L 0.34375 3.445312 C 0.34375 3.8125 0.640625 4.109375 1.007812 4.109375 Z M 1.007812 4.109375 "/>
<path style=" stroke:none;fill-rule:nonzero;fill:rgb(0%,0%,0%);fill-opacity:1;" d="M 10.984375 7.882812 L 7.539062 7.882812 L 7.539062 9.214844 L 9.367188 9.214844 C 8.519531 10.105469 7.324219 10.660156 5.996094 10.660156 C 3.421875 10.660156 1.332031 8.574219 1.332031 5.996094 L 0 5.996094 C 0 9.308594 2.683594 11.992188 5.996094 11.992188 C 7.695312 11.992188 9.226562 11.285156 10.316406 10.148438 L 10.316406 11.992188 L 11.648438 11.992188 L 11.648438 8.546875 C 11.648438 8.179688 11.351562 7.882812 10.984375 7.882812 Z M 10.984375 7.882812 "/>
</g>
</svg>
