<svg xmlns="http://www.w3.org/2000/svg" xmlns:xlink="http://www.w3.org/1999/xlink" version="1.1" width="1920" height="1080" style="shape-rendering: geometricprecision; text-rendering: geometricprecision; fill-rule: evenodd; clip-rule: evenodd;"><rect id="backgroundrect" width="100%" height="100%" x="0" y="0" fill="none" stroke="none"/>



































<g class="currentLayer" style=""><title>Layer 1</title><g id="svg_1" class="selected" fill-opacity="0" fill="#000000"><path style="opacity:1" fill="#000000" d="M -0.5,-0.5 C 639.5,-0.5 1279.5,-0.5 1919.5,-0.5C 1919.5,359.5 1919.5,719.5 1919.5,1079.5C 1279.5,1079.5 639.5,1079.5 -0.5,1079.5C -0.5,719.5 -0.5,359.5 -0.5,-0.5 Z" id="svg_2"/></g><g id="svg_3"><path style="opacity:1" fill="#0a95cd" d="M 490.5,89.5 C 574.501,89.3333 658.501,89.5 742.5,90C 752.333,93.1667 758.833,99.6667 762,109.5C 762.667,154.167 762.667,198.833 762,243.5C 758.899,252.934 752.732,259.434 743.5,263C 658.833,263.667 574.167,263.667 489.5,263C 480.573,259.74 474.739,253.573 472,244.5C 471.333,199.167 471.333,153.833 472,108.5C 475.352,99.3157 481.519,92.9824 490.5,89.5 Z" id="svg_4"/></g><g id="svg_5"><path style="opacity:1" fill="#bbbbbb" d="M 1204.5,89.5 C 1285.38,117.961 1366.05,147.128 1446.5,177C 1368.91,204.975 1291.41,233.142 1214,261.5C 1213.5,504.5 1213.33,747.5 1213.5,990.5C 1209.5,990.5 1205.5,990.5 1201.5,990.5C 1201.5,747.5 1201.5,504.5 1201.5,261.5C 1123.09,233.64 1044.75,205.473 966.5,177C 1045.82,147.509 1125.15,118.342 1204.5,89.5 Z" id="svg_6"/></g><g id="svg_7"><path style="opacity:1" fill="#fbfdfe" d="M 600.5,107.5 C 644.261,103.603 672.095,122.603 684,164.5C 687.519,198.637 674.352,223.804 644.5,240C 610.117,253 581.284,245.5 558,217.5C 541.807,190.993 541.473,164.326 557,137.5C 567.996,122.419 582.496,112.419 600.5,107.5 Z" id="svg_8"/></g><g id="svg_9"><path style="opacity:1" fill="#1296cd" d="M 603.5,111.5 C 640.174,108.716 665.008,124.382 678,158.5C 683.321,179.604 679.655,198.937 667,216.5C 661.858,209.371 655.025,204.538 646.5,202C 625.5,201.333 604.5,201.333 583.5,202C 574.975,204.538 568.142,209.371 563,216.5C 541.676,182.856 545.51,152.356 574.5,125C 583.469,118.847 593.136,114.347 603.5,111.5 Z" id="svg_10"/></g><g id="svg_11"><path style="opacity:1" fill="#fdfdfd" d="M 1192.5,119.5 C 1196.68,118.704 1199.85,120.037 1202,123.5C 1201.3,132.858 1200.13,142.191 1198.5,151.5C 1207.17,151.5 1215.83,151.5 1224.5,151.5C 1225.24,142.057 1226.74,132.724 1229,123.5C 1232.96,118.564 1237.29,118.231 1242,122.5C 1241.39,132.151 1240.56,141.818 1239.5,151.5C 1246.92,151.109 1254.25,151.609 1261.5,153C 1266.1,158.697 1265.1,163.03 1258.5,166C 1250.84,166.5 1243.17,166.666 1235.5,166.5C 1234.17,173.451 1233.17,180.451 1232.5,187.5C 1242.25,187.08 1251.91,187.58 1261.5,189C 1265.5,193 1265.5,197 1261.5,201C 1250.91,202.263 1240.24,202.93 1229.5,203C 1227.76,212.475 1225.93,221.975 1224,231.5C 1220.34,235.115 1216.34,235.448 1212,232.5C 1211.02,230.634 1210.52,228.634 1210.5,226.5C 1211.84,218.488 1213.17,210.488 1214.5,202.5C 1205.83,202.5 1197.17,202.5 1188.5,202.5C 1187.55,212.671 1185.71,222.671 1183,232.5C 1173.07,236.575 1169.07,233.242 1171,222.5C 1171.8,215.892 1172.96,209.392 1174.5,203C 1167.5,202.667 1160.5,202.333 1153.5,202C 1146.83,197.333 1146.83,192.667 1153.5,188C 1161.49,187.5 1169.49,187.334 1177.5,187.5C 1178.59,180.521 1179.59,173.521 1180.5,166.5C 1171.49,166.666 1162.49,166.5 1153.5,166C 1146.83,161.333 1146.83,156.667 1153.5,152C 1163.52,151.832 1173.52,151.332 1183.5,150.5C 1185,142.183 1186.5,133.849 1188,125.5C 1188.8,122.854 1190.3,120.854 1192.5,119.5 Z" id="svg_12"/></g><g id="svg_13"><path style="opacity:1" fill="#fdfefe" d="M 606.5,132.5 C 626.976,129.81 640.476,138.144 647,157.5C 649.054,178.577 639.888,191.744 619.5,197C 602.246,198.083 590.412,190.583 584,174.5C 579.72,154.054 587.22,140.054 606.5,132.5 Z" id="svg_14"/></g><g id="svg_15"><path style="opacity:1" fill="#bbbbbb" d="M 1195.5,166.5 C 1203.83,166.5 1212.17,166.5 1220.5,166.5C 1219.66,173.519 1218.66,180.519 1217.5,187.5C 1209.17,187.5 1200.83,187.5 1192.5,187.5C 1193.04,180.421 1194.04,173.421 1195.5,166.5 Z" id="svg_16"/></g><g id="svg_17"><path style="opacity:1" fill="#bbbbbb" d="M 610.5,264.5 C 615.167,264.5 619.833,264.5 624.5,264.5C 624.5,288.5 624.5,312.5 624.5,336.5C 619.833,336.5 615.167,336.5 610.5,336.5C 610.5,312.5 610.5,288.5 610.5,264.5 Z" id="svg_18"/></g><g id="svg_19"><path style="opacity:1" fill="#88ce28" d="M 703.5,337.5 C 703.5,372.833 703.5,408.167 703.5,443.5C 677.167,443.5 650.833,443.5 624.5,443.5C 619.833,443.5 615.167,443.5 610.5,443.5C 583.5,443.5 556.5,443.5 529.5,443.5C 529.5,408.167 529.5,372.833 529.5,337.5C 587.5,337.5 645.5,337.5 703.5,337.5 Z" id="svg_20"/></g><g id="svg_21"><path style="opacity:1" fill="#f9fcf4" d="M 639.5,345.5 C 640.552,345.351 641.552,345.517 642.5,346C 648,351.5 653.5,357 659,362.5C 659.667,364.167 659.667,365.833 659,367.5C 638.833,387.667 618.667,407.833 598.5,428C 589.648,431.178 580.648,433.511 571.5,435C 571.657,425.192 573.824,415.692 578,406.5C 598.422,385.911 618.922,365.577 639.5,345.5 Z" id="svg_22"/></g><g id="svg_23"><path style="opacity:1" fill="#8ccf31" d="M 639.5,353.5 C 644.239,356.731 648.572,360.564 652.5,365C 650.65,367.018 648.65,368.851 646.5,370.5C 642.348,366.849 638.348,363.016 634.5,359C 636.373,357.296 638.04,355.463 639.5,353.5 Z" id="svg_24"/></g><g id="svg_25"><path style="opacity:1" fill="#89ce2b" d="M 629.5,363.5 C 634.239,366.731 638.572,370.564 642.5,375C 627.138,390.029 612.138,405.362 597.5,421C 596.833,421.667 596.167,421.667 595.5,421C 592.299,417.464 588.799,414.297 585,411.5C 584.333,410.5 584.333,409.5 585,408.5C 600.035,393.632 614.869,378.632 629.5,363.5 Z" id="svg_26"/></g><g id="svg_27"><path style="opacity:1" fill="#bbbbbb" d="M 1171.5,398.5 C 1172.29,398.217 1172.96,397.717 1173.5,397C 1017.17,396.5 860.834,396.333 704.5,396.5C 704.5,392.5 704.5,388.5 704.5,384.5C 860.834,384.667 1017.17,384.5 1173.5,384C 1172.96,383.283 1172.29,382.783 1171.5,382.5C 1167.88,380.049 1164.38,377.383 1161,374.5C 1158.45,367.388 1160.95,363.888 1168.5,364C 1178.95,371.451 1189.12,379.284 1199,387.5C 1199.67,389.5 1199.67,391.5 1199,393.5C 1189.12,401.716 1178.95,409.549 1168.5,417C 1161.8,417.297 1158.96,414.13 1160,407.5C 1163.71,404.285 1167.54,401.285 1171.5,398.5 Z" id="svg_28"/></g><g id="svg_29"><path style="opacity:1" fill="#cccccc" d="M 1171.5,382.5 C 1172.29,382.783 1172.96,383.283 1173.5,384C 1017.17,384.5 860.834,384.667 704.5,384.5C 704.5,384.167 704.5,383.833 704.5,383.5C 860.334,383.833 1016,383.5 1171.5,382.5 Z" id="svg_30"/></g><g id="svg_31"><path style="opacity:1" fill="#dcdfd6" d="M 703.5,337.5 C 704.496,352.658 704.83,367.991 704.5,383.5C 704.5,383.833 704.5,384.167 704.5,384.5C 704.5,388.5 704.5,392.5 704.5,396.5C 860.834,396.333 1017.17,396.5 1173.5,397C 1172.96,397.717 1172.29,398.217 1171.5,398.5C 1016,397.5 860.334,397.167 704.5,397.5C 704.83,413.009 704.496,428.342 703.5,443.5C 703.5,408.167 703.5,372.833 703.5,337.5 Z" id="svg_32"/></g><g id="svg_33"><path style="opacity:1" fill="#8fd037" d="M 580.5,415.5 C 583.812,418.146 586.812,421.146 589.5,424.5C 585.625,425.759 581.791,427.092 578,428.5C 578.655,424.2 579.488,419.866 580.5,415.5 Z" id="svg_34"/></g><g id="svg_35"><path style="opacity:1" fill="#bbbbba" d="M 610.5,443.5 C 615.167,443.5 619.833,443.5 624.5,443.5C 624.5,470.167 624.5,496.833 624.5,523.5C 619.833,523.5 615.167,523.5 610.5,523.5C 610.5,496.833 610.5,470.167 610.5,443.5 Z" id="svg_36"/></g><g id="svg_37"><path style="opacity:1" fill="#0d95cd" d="M 625.5,757.5 C 620.5,757.5 615.5,757.5 610.5,757.5C 571.165,757.667 531.832,757.5 492.5,757C 482.667,753.833 476.167,747.333 473,737.5C 472.333,692.5 472.333,647.5 473,602.5C 476.254,592.281 483.087,585.781 493.5,583C 575.833,582.333 658.167,582.333 740.5,583C 751.777,585.211 759.277,591.711 763,602.5C 763.667,647.167 763.667,691.833 763,736.5C 760.175,747.325 753.342,754.158 742.5,757C 703.501,757.5 664.501,757.667 625.5,757.5 Z" id="svg_38"/></g><g id="svg_39"><path style="opacity:1" fill="#fcfdfe" d="M 609.5,600.5 C 646.293,599.135 671.46,615.468 685,649.5C 692.504,681.66 683.337,707.827 657.5,728C 639.854,738.775 620.854,742.108 600.5,738C 562.68,724.491 545.513,697.658 549,657.5C 557.13,625.532 577.297,606.532 609.5,600.5 Z" id="svg_40"/></g><g id="svg_41"><path style="opacity:1" fill="#1196cd" d="M 609.5,604.5 C 646.586,603.437 670.753,620.437 682,655.5C 685.879,675.312 681.879,693.312 670,709.5C 663.744,701.455 655.577,696.621 645.5,695C 626.5,694.333 607.5,694.333 588.5,695C 579.435,697.397 571.935,702.23 566,709.5C 547.694,682.272 548.028,655.272 567,628.5C 578.702,615.905 592.869,607.905 609.5,604.5 Z" id="svg_42"/></g><g id="svg_43"><path style="opacity:1" fill="#fdfefe" d="M 611.5,625.5 C 631.058,624.353 643.891,633.02 650,651.5C 650.971,678.862 637.805,691.696 610.5,690C 591.837,683.531 583.67,670.365 586,650.5C 590.452,637.88 598.952,629.547 611.5,625.5 Z" id="svg_44"/></g><g id="svg_45"><path style="opacity:1" fill="#bbbaba" d="M 610.5,757.5 C 615.5,757.5 620.5,757.5 625.5,757.5C 625.5,781.833 625.5,806.167 625.5,830.5C 620.5,830.5 615.5,830.5 610.5,830.5C 610.5,806.167 610.5,781.833 610.5,757.5 Z" id="svg_46"/></g><g id="svg_47"><path style="opacity:1" fill="#ffc10b" d="M 610.5,830.5 C 615.5,830.5 620.5,830.5 625.5,830.5C 652.167,830.5 678.833,830.5 705.5,830.5C 705.5,847.5 705.5,864.5 705.5,881.5C 705.5,882.833 705.5,884.167 705.5,885.5C 705.5,902.833 705.5,920.167 705.5,937.5C 678.833,937.5 652.167,937.5 625.5,937.5C 620.5,937.5 615.5,937.5 610.5,937.5C 583.833,937.5 557.167,937.5 530.5,937.5C 530.5,901.833 530.5,866.167 530.5,830.5C 557.167,830.5 583.833,830.5 610.5,830.5 Z" id="svg_48"/></g><g id="svg_49"><path style="opacity:1" fill="#fffcf6" d="M 591.5,842.5 C 600.547,841.149 608.714,843.149 616,848.5C 620.883,844.317 626.55,842.317 633,842.5C 641.418,843.184 649.584,845.017 657.5,848C 661.833,848.333 666.167,848.667 670.5,849C 671.333,849.833 672.167,850.667 673,851.5C 673.667,875.167 673.667,898.833 673,922.5C 669.397,924.128 665.563,924.962 661.5,925C 628.138,927.214 594.805,926.88 561.5,924C 560.667,923.167 559.833,922.333 559,921.5C 558.333,898.167 558.333,874.833 559,851.5C 559.833,850.667 560.667,849.833 561.5,849C 571.911,848.354 581.911,846.187 591.5,842.5 Z" id="svg_50"/></g><g id="svg_51"><path style="opacity:1" fill="#ffc009" d="M 590.5,846.5 C 595.179,846.334 599.845,846.501 604.5,847C 608.127,847.564 611.293,849.064 614,851.5C 614.667,871.5 614.667,891.5 614,911.5C 609.045,907.528 603.378,905.862 597,906.5C 587.9,906.82 579.067,908.487 570.5,911.5C 570.333,892.164 570.5,872.83 571,853.5C 577.414,850.642 583.914,848.309 590.5,846.5 Z" id="svg_52"/></g><g id="svg_53"><path style="opacity:1" fill="#ffc004" d="M 619.5,910.5 C 618.503,891.007 618.17,871.34 618.5,851.5C 622.51,847.773 627.343,846.107 633,846.5C 637.531,846.719 642.031,847.219 646.5,848C 651.298,850.211 656.298,851.711 661.5,852.5C 661.5,872.167 661.5,891.833 661.5,911.5C 652.671,908.934 643.671,907.268 634.5,906.5C 628.892,905.818 623.892,907.152 619.5,910.5 Z" id="svg_54"/></g><g id="svg_55"><path style="opacity:1" fill="#ffc219" d="M 563.5,852.5 C 564.5,852.5 565.5,852.5 566.5,852.5C 566.169,874.007 566.503,895.34 567.5,916.5C 581.994,917.331 596.661,917.831 611.5,918C 613,918.5 614.5,919 616,919.5C 619.066,918.287 622.233,917.453 625.5,917C 638.513,916.596 651.513,916.596 664.5,917C 665.494,895.242 665.827,873.409 665.5,851.5C 667.39,851.297 668.89,851.963 670,853.5C 670.833,875.841 670.666,898.174 669.5,920.5C 634.216,924.285 598.883,924.452 563.5,921C 563,920.5 562.5,920 562,919.5C 561.333,897.5 561.333,875.5 562,853.5C 562.383,852.944 562.883,852.611 563.5,852.5 Z" id="svg_56"/></g><g id="svg_57"><path style="opacity:1" fill="#ffe081" d="M 563.5,852.5 C 564.568,851.566 565.901,851.232 567.5,851.5C 567.5,873.167 567.5,894.833 567.5,916.5C 566.503,895.34 566.169,874.007 566.5,852.5C 565.5,852.5 564.5,852.5 563.5,852.5 Z" id="svg_58"/></g><g id="svg_59"><path style="opacity:1" fill="#ffe28f" d="M 618.5,851.5 C 618.17,871.34 618.503,891.007 619.5,910.5C 619.44,911.043 619.107,911.376 618.5,911.5C 617.172,891.337 617.172,871.337 618.5,851.5 Z" id="svg_60"/></g><g id="svg_61"><path style="opacity:1" fill="#bcbcbc" d="M 905.5,891.5 C 848.001,890.335 790.335,890.168 732.5,891C 733.044,891.717 733.711,892.217 734.5,892.5C 739.415,895.246 743.082,899.079 745.5,904C 744.422,909.545 741.089,911.545 735.5,910C 724.634,902.608 714.634,894.442 705.5,885.5C 705.5,884.167 705.5,882.833 705.5,881.5C 714.288,874.228 723.288,867.061 732.5,860C 736.274,856.98 740.107,856.813 744,859.5C 745.901,862.747 745.735,865.913 743.5,869C 739.656,871.422 735.99,874.089 732.5,877C 888.5,877.5 1044.5,877.667 1200.5,877.5C 1200.5,882.167 1200.5,886.833 1200.5,891.5C 1102.17,891.5 1003.83,891.5 905.5,891.5 Z" id="svg_62"/></g><g id="svg_63"><path style="opacity:1" fill="#e3e3e3" d="M 905.5,891.5 C 848.331,891.168 791.331,891.501 734.5,892.5C 733.711,892.217 733.044,891.717 732.5,891C 790.335,890.168 848.001,890.335 905.5,891.5 Z" id="svg_64"/></g><g id="svg_65"><path style="opacity:1" fill="#ffc628" d="M 594.5,909.5 C 599.937,908.967 604.937,910.134 609.5,913C 599.5,913.667 589.5,913.667 579.5,913C 584.545,911.425 589.545,910.259 594.5,909.5 Z" id="svg_66"/></g><g id="svg_67"><path style="opacity:1" fill="#ffc72b" d="M 629.5,909.5 C 637.334,909.604 645.001,910.771 652.5,913C 642.5,913.667 632.5,913.667 622.5,913C 624.925,911.787 627.259,910.621 629.5,909.5 Z" id="svg_68"/></g><g id="svg_69"><path style="opacity:1" fill="#bbbbbb" d="M 610.5,937.5 C 615.5,937.5 620.5,937.5 625.5,937.5C 625.5,955.167 625.5,972.833 625.5,990.5C 620.5,990.5 615.5,990.5 610.5,990.5C 610.5,972.833 610.5,955.167 610.5,937.5 Z" id="svg_70"/></g></g></svg>