<?xml version="1.0" encoding="UTF-8"?>
<svg xmlns="http://www.w3.org/2000/svg" xmlns:xlink="http://www.w3.org/1999/xlink" width="375pt" height="374.999991pt" viewBox="0 0 375 374.999991" version="1.2">
<defs>
<clipPath id="clip1">
  <path d="M 22.546875 18.457031 L 353 18.457031 L 353 248.707031 L 22.546875 248.707031 Z M 22.546875 18.457031 "/>
</clipPath>
<clipPath id="clip2">
  <path d="M 22.546875 18.457031 L 241.820312 18.457031 L 241.820312 355.207031 L 22.546875 355.207031 Z M 22.546875 18.457031 "/>
</clipPath>
<clipPath id="clip3">
  <path d="M 260 268.050781 L 342 268.050781 L 342 350.550781 L 260 350.550781 Z M 260 268.050781 "/>
</clipPath>
</defs>
<g id="surface1">
<g clip-path="url(#clip1)" clip-rule="nonzero">
<path style=" stroke:none;fill-rule:nonzero;fill:#000000;fill-opacity:1;" d="M 231.300781 73.980469 L 231.300781 18.453125 L 64.964844 18.453125 L 22.546875 62.84375 L 22.546875 301.339844 L 143.335938 301.339844 L 143.335938 356.871094 L 352.09375 356.871094 L 352.09375 73.980469 Z M 143.335938 280.84375 L 43.011719 280.84375 L 43.011719 71.078125 L 73.707031 38.949219 L 210.839844 38.949219 L 210.839844 73.980469 L 143.335938 73.980469 L 143.335938 79.105469 L 58.359375 79.105469 L 58.359375 95.152344 L 143.335938 95.152344 L 143.335938 119.5625 C 141.1875 120.664062 139.09375 121.875 137.066406 123.175781 L 58.359375 123.175781 L 58.359375 139.222656 L 119.234375 139.222656 C 111.898438 148.351562 106.90625 158.9375 104.542969 170.324219 L 58.359375 170.324219 L 58.359375 186.371094 L 102.980469 186.371094 C 103.085938 196.546875 105.21875 206.367188 109.179688 215.425781 L 58.359375 215.425781 L 58.359375 231.472656 L 118.804688 231.472656 C 120.617188 233.769531 122.519531 236.011719 124.613281 238.089844 C 130.175781 243.679688 136.515625 248.195312 143.335938 251.683594 Z M 290.238281 284.476562 C 294.164062 288.40625 294.164062 294.757812 290.238281 298.691406 C 286.332031 302.605469 279.972656 302.605469 276.066406 298.691406 C 276.066406 298.691406 210.589844 233.003906 210.339844 232.71875 C 187.835938 248.570312 156.5 246.472656 136.390625 226.332031 C 113.886719 203.789062 113.886719 167.121094 136.390625 144.578125 C 158.898438 122.035156 195.507812 122.035156 218.015625 144.578125 C 238.121094 164.71875 240.273438 196.085938 224.445312 218.628906 C 224.730469 218.859375 290.238281 284.476562 290.238281 284.476562 Z M 331.628906 336.375 L 163.800781 336.375 L 163.800781 258.570312 C 168.101562 259.335938 172.46875 259.78125 176.929688 259.78125 C 187.515625 259.78125 197.78125 257.574219 207.25 253.320312 L 224.851562 270.953125 L 179.148438 270.953125 L 179.148438 287 L 240.875 287 L 264.289062 310.449219 C 269.28125 315.449219 275.90625 318.207031 282.957031 318.207031 C 290.007812 318.207031 296.652344 315.449219 301.625 310.449219 C 307.984375 304.082031 310.402344 295.257812 308.910156 287 L 316.28125 287 L 316.28125 270.953125 L 299.53125 270.953125 L 270.523438 241.898438 L 316.28125 241.898438 L 316.28125 225.851562 L 254.5 225.851562 L 244.605469 215.941406 C 247.660156 209.109375 249.632812 201.972656 250.519531 194.75 L 316.28125 194.75 L 316.28125 178.703125 L 250.769531 178.703125 C 249.847656 168.988281 247.039062 159.453125 242.351562 150.679688 L 316.28125 150.679688 L 316.28125 134.632812 L 230.75 134.632812 C 230.289062 134.152344 229.863281 133.636719 229.402344 133.171875 C 215.421875 119.171875 196.824219 111.449219 177.015625 111.449219 C 172.523438 111.449219 168.117188 111.910156 163.800781 112.675781 L 163.800781 94.476562 L 331.628906 94.476562 Z M 331.628906 336.375 "/>
</g>
<g clip-path="url(#clip2)" clip-rule="nonzero">
<path style=" stroke:none;fill-rule:nonzero;fill:#000000;fill-opacity:1;" d="M 231.300781 73.980469 L 231.300781 18.453125 L 64.964844 18.453125 L 22.546875 62.84375 L 22.546875 301.339844 L 143.335938 301.339844 L 143.335938 356.871094 L 352.09375 356.871094 L 352.09375 73.980469 Z M 143.335938 280.84375 L 43.011719 280.84375 L 43.011719 71.078125 L 73.707031 38.949219 L 210.839844 38.949219 L 210.839844 73.980469 L 143.335938 73.980469 L 143.335938 79.105469 L 58.359375 79.105469 L 58.359375 95.152344 L 143.335938 95.152344 L 143.335938 119.5625 C 141.1875 120.664062 139.09375 121.875 137.066406 123.175781 L 58.359375 123.175781 L 58.359375 139.222656 L 119.234375 139.222656 C 111.898438 148.351562 106.90625 158.9375 104.542969 170.324219 L 58.359375 170.324219 L 58.359375 186.371094 L 102.980469 186.371094 C 103.085938 196.546875 105.21875 206.367188 109.179688 215.425781 L 58.359375 215.425781 L 58.359375 231.472656 L 118.804688 231.472656 C 120.617188 233.769531 122.519531 236.011719 124.613281 238.089844 C 130.175781 243.679688 136.515625 248.195312 143.335938 251.683594 Z M 290.238281 284.476562 C 294.164062 288.40625 294.164062 294.757812 290.238281 298.691406 C 286.332031 302.605469 279.972656 302.605469 276.066406 298.691406 C 276.066406 298.691406 210.589844 233.003906 210.339844 232.71875 C 187.835938 248.570312 156.5 246.472656 136.390625 226.332031 C 113.886719 203.789062 113.886719 167.121094 136.390625 144.578125 C 158.898438 122.035156 195.507812 122.035156 218.015625 144.578125 C 238.121094 164.71875 240.273438 196.085938 224.445312 218.628906 C 224.730469 218.859375 290.238281 284.476562 290.238281 284.476562 Z M 331.628906 336.375 L 163.800781 336.375 L 163.800781 258.570312 C 168.101562 259.335938 172.46875 259.78125 176.929688 259.78125 C 187.515625 259.78125 197.78125 257.574219 207.25 253.320312 L 224.851562 270.953125 L 179.148438 270.953125 L 179.148438 287 L 240.875 287 L 264.289062 310.449219 C 269.28125 315.449219 275.90625 318.207031 282.957031 318.207031 C 290.007812 318.207031 296.652344 315.449219 301.625 310.449219 C 307.984375 304.082031 310.402344 295.257812 308.910156 287 L 316.28125 287 L 316.28125 270.953125 L 299.53125 270.953125 L 270.523438 241.898438 L 316.28125 241.898438 L 316.28125 225.851562 L 254.5 225.851562 L 244.605469 215.941406 C 247.660156 209.109375 249.632812 201.972656 250.519531 194.75 L 316.28125 194.75 L 316.28125 178.703125 L 250.769531 178.703125 C 249.847656 168.988281 247.039062 159.453125 242.351562 150.679688 L 316.28125 150.679688 L 316.28125 134.632812 L 230.75 134.632812 C 230.289062 134.152344 229.863281 133.636719 229.402344 133.171875 C 215.421875 119.171875 196.824219 111.449219 177.015625 111.449219 C 172.523438 111.449219 168.117188 111.910156 163.800781 112.675781 L 163.800781 94.476562 L 331.628906 94.476562 Z M 331.628906 336.375 "/>
</g>
<path style=" stroke:none;fill-rule:nonzero;fill:#000000;fill-opacity:1;" d="M 348.75 258.117188 C 350.777344 258.117188 352.445312 259.78125 352.445312 261.808594 L 352.445312 356.769531 C 352.445312 358.796875 350.777344 360.464844 348.75 360.464844 L 253.789062 360.464844 C 251.761719 360.464844 250.097656 358.796875 250.097656 356.769531 L 250.097656 261.808594 C 250.097656 259.78125 251.761719 258.117188 253.789062 258.117188 L 348.75 258.117188 M 348.75 254.710938 L 253.789062 254.710938 C 249.878906 254.710938 246.691406 257.898438 246.691406 261.808594 L 246.691406 356.769531 C 246.691406 360.679688 249.878906 363.867188 253.789062 363.867188 L 348.75 363.867188 C 352.664062 363.867188 355.847656 360.679688 355.847656 356.769531 L 355.847656 261.808594 C 355.847656 257.898438 352.664062 254.710938 348.75 254.710938 Z M 348.75 254.710938 "/>
<g clip-path="url(#clip3)" clip-rule="nonzero">
<path style=" stroke:none;fill-rule:nonzero;fill:#000000;fill-opacity:1;" d="M 263.890625 350.546875 C 262.949219 350.546875 262.007812 350.1875 261.289062 349.464844 C 259.851562 348.023438 259.851562 345.683594 261.289062 344.238281 L 335.667969 269.492188 C 337.101562 268.046875 339.429688 268.046875 340.867188 269.492188 C 342.304688 270.933594 342.304688 273.277344 340.867188 274.71875 L 266.492188 349.464844 C 265.773438 350.1875 264.832031 350.546875 263.890625 350.546875 "/>
<path style=" stroke:none;fill-rule:nonzero;fill:#000000;fill-opacity:1;" d="M 338.265625 350.546875 C 337.324219 350.546875 336.382812 350.1875 335.667969 349.464844 L 261.289062 274.71875 C 259.855469 273.277344 259.855469 270.933594 261.289062 269.492188 C 262.726562 268.046875 265.054688 268.046875 266.492188 269.492188 L 340.867188 344.238281 C 342.304688 345.683594 342.304688 348.023438 340.867188 349.464844 C 340.148438 350.1875 339.207031 350.546875 338.265625 350.546875 "/>
</g>
</g>
</svg>
