<?xml version="1.0" encoding="UTF-8"?>
<svg xmlns="http://www.w3.org/2000/svg" xmlns:xlink="http://www.w3.org/1999/xlink" width="12pt" height="12pt" viewBox="0 0 12 12" version="1.1">
<g id="surface1">
<path style=" stroke:none;fill-rule:nonzero;fill:#000000;fill-opacity:1;" d="M 11.519531 3.65625 L 11.519531 3.550781 L 11.46875 3.550781 C 10.558594 1.511719 8.539062 0.0742188 6.183594 0 C 6.148438 0 6.113281 -0.00390625 6.078125 -0.00390625 C 6.066406 -0.00390625 6.058594 -0.00390625 6.046875 -0.00390625 C 6.03125 -0.00390625 6.011719 -0.00390625 5.996094 -0.00390625 C 3.558594 -0.00390625 1.460938 1.457031 0.519531 3.550781 L 0.472656 3.550781 L 0.472656 3.65625 C 0.167969 4.375 0 5.164062 0 5.996094 C 0 9.300781 2.6875 11.992188 5.996094 11.992188 C 9.304688 11.992188 11.992188 9.300781 11.992188 5.996094 C 11.992188 5.164062 11.824219 4.375 11.519531 3.65625 Z M 4.617188 0.601562 C 3.925781 1.214844 3.378906 2.257812 3.070312 3.550781 L 0.996094 3.550781 C 1.707031 2.101562 3.027344 1.007812 4.617188 0.601562 Z M 0.429688 5.996094 C 0.429688 5.285156 0.566406 4.605469 0.808594 3.980469 L 2.976562 3.980469 C 2.859375 4.605469 2.796875 5.28125 2.796875 5.992188 C 2.796875 6.648438 2.851562 7.28125 2.953125 7.867188 L 0.753906 7.867188 C 0.546875 7.28125 0.429688 6.652344 0.429688 5.996094 Z M 0.933594 8.300781 L 3.039062 8.300781 C 3.34375 9.660156 3.90625 10.757812 4.625 11.390625 C 2.980469 10.972656 1.625 9.816406 0.933594 8.300781 Z M 5.78125 11.523438 C 4.757812 11.316406 3.894531 10.050781 3.484375 8.300781 L 5.78125 8.300781 Z M 5.78125 7.867188 L 3.394531 7.867188 C 3.285156 7.28125 3.226562 6.648438 3.226562 5.992188 C 3.226562 5.28125 3.296875 4.605469 3.421875 3.980469 L 5.78125 3.980469 Z M 5.78125 3.550781 L 3.515625 3.550781 C 3.941406 1.867188 4.785156 0.660156 5.78125 0.457031 Z M 10.996094 3.550781 L 9.082031 3.550781 C 8.785156 2.300781 8.265625 1.289062 7.609375 0.667969 C 9.09375 1.117188 10.320312 2.175781 10.996094 3.550781 Z M 6.210938 0.433594 C 7.277344 0.53125 8.191406 1.777344 8.636719 3.550781 L 6.210938 3.550781 Z M 6.210938 3.980469 L 8.734375 3.980469 C 8.859375 4.605469 8.925781 5.28125 8.925781 5.992188 C 8.925781 6.648438 8.867188 7.28125 8.761719 7.867188 L 6.210938 7.867188 Z M 6.210938 11.546875 L 6.210938 8.300781 L 8.667969 8.300781 C 8.238281 10.144531 7.304688 11.449219 6.210938 11.546875 Z M 7.597656 11.324219 C 8.285156 10.683594 8.820312 9.617188 9.113281 8.300781 L 11.058594 8.300781 C 10.398438 9.746094 9.140625 10.859375 7.597656 11.324219 Z M 9.199219 7.867188 C 9.304688 7.28125 9.359375 6.648438 9.359375 5.992188 C 9.359375 5.28125 9.292969 4.605469 9.175781 3.980469 L 11.183594 3.980469 C 11.425781 4.605469 11.5625 5.285156 11.5625 5.996094 C 11.5625 6.652344 11.445312 7.28125 11.234375 7.867188 Z M 9.199219 7.867188 "/>
</g>
</svg>
