<?xml version="1.0" encoding="UTF-8"?>
<svg xmlns="http://www.w3.org/2000/svg" xmlns:xlink="http://www.w3.org/1999/xlink" width="375pt" height="374.999991pt" viewBox="0 0 375 374.999991" version="1.2">
<defs>
<clipPath id="clip1">
  <path d="M 162.496094 140 L 212.394531 140 L 212.394531 293.394531 L 162.496094 293.394531 Z M 162.496094 140 "/>
</clipPath>
<clipPath id="clip2">
  <path d="M 161.953125 81.894531 L 212.828125 81.894531 L 212.828125 133.160156 L 161.953125 133.160156 Z M 161.953125 81.894531 "/>
</clipPath>
</defs>
<g id="surface1">
<path style=" stroke:none;fill-rule:nonzero;fill:#000000;fill-opacity:1;" d="M 187.5 0 C 84.105469 0 0 84.105469 0 187.5 C 0 290.894531 84.105469 375 187.5 375 C 290.894531 375 375 290.894531 375 187.5 C 375 84.105469 290.894531 0 187.5 0 Z M 187.5 31.25 C 273.988281 31.25 343.75 101.011719 343.75 187.5 C 343.75 273.988281 273.988281 343.75 187.5 343.75 C 101.011719 343.75 31.25 273.988281 31.25 187.5 C 31.25 101.011719 101.011719 31.25 187.5 31.25 Z M 187.5 31.25 "/>
<g clip-path="url(#clip1)" clip-rule="nonzero">
<path style=" stroke:none;fill-rule:nonzero;fill:#000000;fill-opacity:1;" d="M 187.390625 140.207031 C 194.195312 140.207031 200.371094 143 204.847656 147.5 C 209.320312 152 212.101562 158.210938 212.101562 165.050781 L 212.101562 268.570312 C 212.101562 275.410156 209.320312 281.625 204.847656 286.121094 C 200.371094 290.621094 194.195312 293.414062 187.390625 293.414062 C 180.585938 293.414062 174.40625 290.621094 169.933594 286.121094 C 165.457031 281.625 162.679688 275.410156 162.679688 268.570312 L 162.679688 165.050781 C 162.679688 158.210938 165.457031 152 169.933594 147.5 C 174.40625 143 180.585938 140.207031 187.390625 140.207031 "/>
</g>
<g clip-path="url(#clip2)" clip-rule="nonzero">
<path style=" stroke:none;fill-rule:nonzero;fill:#000000;fill-opacity:1;" d="M 187.390625 81.894531 C 194.414062 81.894531 200.773438 84.757812 205.378906 89.386719 C 209.980469 94.015625 212.828125 100.410156 212.828125 107.46875 C 212.828125 114.53125 209.980469 120.929688 205.378906 125.558594 C 200.773438 130.1875 194.414062 133.050781 187.390625 133.050781 C 180.367188 133.050781 174.007812 130.1875 169.402344 125.558594 C 164.800781 120.929688 161.953125 114.53125 161.953125 107.46875 C 161.953125 100.410156 164.800781 94.015625 169.402344 89.386719 C 174.007812 84.757812 180.367188 81.894531 187.390625 81.894531 "/>
</g>
</g>
</svg>
