<?xml version="1.0" encoding="UTF-8"?>
<svg xmlns="http://www.w3.org/2000/svg" xmlns:xlink="http://www.w3.org/1999/xlink" width="375pt" height="374.999991pt" viewBox="0 0 375 374.999991" version="1.2">
<defs>
<clipPath id="clip1">
  <path d="M 8.671875 0 L 366.421875 0 L 366.421875 375 L 8.671875 375 Z M 8.671875 0 "/>
</clipPath>
</defs>
<g id="surface1">
<g clip-path="url(#clip1)" clip-rule="nonzero">
<path style=" stroke:none;fill-rule:nonzero;fill:#000000;fill-opacity:1;" d="M 334.140625 141.972656 L 90.230469 9.011719 C 79.253906 2.988281 68.34375 -0.0703125 57.886719 -0.0703125 C 28.636719 -0.0703125 8.960938 22.945312 8.960938 57.195312 L 8.960938 317.644531 C 8.960938 351.894531 28.636719 374.910156 57.886719 374.910156 C 68.34375 374.910156 79.253906 371.851562 90.230469 365.859375 L 334.171875 232.867188 C 354.53125 221.734375 366.257812 205.164062 366.257812 187.421875 C 366.257812 169.675781 354.53125 153.074219 334.140625 141.972656 Z M 318.570312 204.351562 L 74.628906 337.308594 C 68.570312 340.628906 62.773438 342.355469 57.886719 342.355469 C 43.097656 342.355469 41.535156 325.101562 41.535156 317.644531 L 41.535156 57.195312 C 41.535156 49.742188 43.132812 32.484375 57.886719 32.484375 C 62.773438 32.484375 68.570312 34.242188 74.628906 37.53125 L 318.539062 170.492188 C 328.015625 175.667969 333.652344 182.015625 333.652344 187.421875 C 333.652344 192.824219 328.015625 199.140625 318.570312 204.351562 Z M 318.570312 204.351562 "/>
</g>
</g>
</svg>
