<?xml version="1.0" encoding="UTF-8"?>
<svg xmlns="http://www.w3.org/2000/svg" xmlns:xlink="http://www.w3.org/1999/xlink" width="375pt" height="374.999991pt" viewBox="0 0 375 374.999991" version="1.2">
<g id="surface1">
<path style=" stroke:none;fill-rule:nonzero;fill:#000000;fill-opacity:1;" d="M 365.683594 113.410156 C 355.4375 113.433594 345.199219 113.460938 334.953125 113.488281 C 311.921875 61.726562 266.703125 24.34375 209.582031 15.375 C 145.933594 5.378906 85.023438 35 48.703125 87.109375 C 32.578125 110.25 70.488281 131.910156 86.484375 108.964844 C 136.292969 37.503906 242.652344 43.960938 286.363281 113.613281 C 276.902344 113.636719 267.429688 113.660156 257.964844 113.679688 C 255.320312 113.6875 253.441406 114.871094 252.28125 116.535156 C 250.375 118.578125 249.652344 121.566406 251.648438 124.65625 C 269.664062 152.679688 287.6875 180.703125 305.714844 208.726562 C 308.746094 213.429688 315.277344 213.394531 318.28125 208.679688 C 336.164062 180.566406 354.046875 152.460938 371.929688 124.347656 C 374.886719 119.691406 370.996094 113.398438 365.683594 113.410156 Z M 365.683594 113.410156 "/>
<path style=" stroke:none;fill-rule:nonzero;fill:#000000;fill-opacity:1;" d="M 288.570312 267.242188 C 239.148438 338.164062 134.03125 332.355469 89.707031 264.21875 C 98.777344 264.199219 107.851562 264.171875 116.921875 264.152344 C 119.558594 264.144531 121.4375 262.964844 122.605469 261.304688 C 124.503906 259.269531 125.234375 256.277344 123.238281 253.183594 C 105.222656 225.15625 87.207031 197.128906 69.179688 169.113281 C 66.148438 164.40625 59.609375 164.445312 56.605469 169.160156 C 38.730469 197.269531 20.839844 225.378906 2.957031 253.484375 C 0 258.136719 3.890625 264.433594 9.203125 264.414062 C 19.757812 264.386719 30.328125 264.359375 40.886719 264.332031 C 64.152344 315.242188 108.96875 351.964844 165.484375 360.828125 C 229.128906 370.824219 290.042969 341.203125 326.351562 289.101562 C 342.480469 265.960938 304.566406 244.300781 288.570312 267.242188 Z M 288.570312 267.242188 "/>
</g>
</svg>
