<?xml version="1.0" encoding="UTF-8"?>
<svg xmlns="http://www.w3.org/2000/svg" xmlns:xlink="http://www.w3.org/1999/xlink" width="375pt" height="374.999991pt" viewBox="0 0 375 374.999991" version="1.2">
<defs>
<clipPath id="clip1">
  <path d="M 31 31 L 375 31 L 375 344 L 31 344 Z M 31 31 "/>
</clipPath>
<clipPath id="clip2">
  <path d="M 255.421875 -22.933594 L 397.945312 255.453125 L 119.558594 397.976562 L -22.964844 119.589844 Z M 255.421875 -22.933594 "/>
</clipPath>
<clipPath id="clip3">
  <path d="M 255.421875 -22.933594 L 397.945312 255.453125 L 119.558594 397.976562 L -22.964844 119.589844 Z M 255.421875 -22.933594 "/>
</clipPath>
<clipPath id="clip4">
  <path d="M 255.421875 -22.933594 L 397.960938 255.484375 L 119.542969 398.023438 L -22.996094 119.605469 Z M 255.421875 -22.933594 "/>
</clipPath>
<clipPath id="clip5">
  <path d="M 226 227 L 307 227 L 307 307.226562 L 226 307.226562 Z M 226 227 "/>
</clipPath>
<clipPath id="clip6">
  <path d="M 192.925781 182.8125 L 241.675781 182.8125 L 241.675781 191.8125 L 192.925781 191.8125 Z M 192.925781 182.8125 "/>
</clipPath>
<clipPath id="clip7">
  <path d="M 130.402344 161.324219 L 182.902344 161.324219 L 182.902344 213.824219 L 130.402344 213.824219 Z M 130.402344 161.324219 "/>
</clipPath>
</defs>
<g id="surface1">
<g clip-path="url(#clip1)" clip-rule="nonzero">
<g clip-path="url(#clip2)" clip-rule="nonzero">
<g clip-path="url(#clip3)" clip-rule="nonzero">
<g clip-path="url(#clip4)" clip-rule="nonzero">
<path style=" stroke:none;fill-rule:nonzero;fill:#000000;fill-opacity:1;" d="M 326.691406 116.273438 C 287.402344 39.53125 192.957031 9.042969 116.210938 48.335938 C 39.46875 87.625 8.980469 182.070312 48.273438 258.8125 C 87.5625 335.558594 182.007812 366.042969 258.75 326.753906 C 259.527344 326.371094 260.253906 325.917969 260.9375 325.386719 C 261.621094 324.859375 262.246094 324.269531 262.8125 323.621094 C 263.378906 322.96875 263.878906 322.265625 264.304688 321.515625 C 264.730469 320.765625 265.082031 319.980469 265.351562 319.160156 C 265.621094 318.339844 265.8125 317.5 265.914062 316.644531 C 266.019531 315.789062 266.039062 314.929688 265.972656 314.066406 C 265.90625 313.207031 265.753906 312.359375 265.519531 311.527344 C 265.285156 310.699219 264.972656 309.898438 264.578125 309.128906 C 264.183594 308.359375 263.71875 307.636719 263.183594 306.960938 C 262.644531 306.285156 262.046875 305.667969 261.386719 305.113281 C 260.726562 304.554688 260.019531 304.066406 259.261719 303.652344 C 258.507812 303.234375 257.714844 302.898438 256.890625 302.636719 C 256.070312 302.378906 255.226562 302.203125 254.367188 302.109375 C 253.511719 302.015625 252.652344 302.011719 251.792969 302.089844 C 250.929688 302.167969 250.085938 302.328125 249.257812 302.578125 C 248.433594 302.824219 247.636719 303.148438 246.875 303.550781 C 182.667969 336.421875 104.34375 311.140625 71.472656 246.9375 C 38.605469 182.730469 63.886719 104.40625 128.089844 71.535156 C 192.296875 38.667969 270.621094 63.949219 303.488281 128.152344 C 318.410156 157.292969 321.140625 189.253906 313.878906 218.660156 L 269.242188 204.25 L 304.878906 273.855469 L 374.480469 238.222656 L 338.71875 226.675781 C 347.976562 190.890625 344.828125 151.703125 326.691406 116.273438 Z M 326.691406 116.273438 "/>
</g>
</g>
</g>
</g>
<path style=" stroke:none;fill-rule:nonzero;fill:#000000;fill-opacity:1;" d="M 185.925781 265.664062 C 184.308594 265.664062 182.691406 265.613281 181.074219 265.515625 C 179.460938 265.417969 177.851562 265.269531 176.246094 265.074219 C 174.640625 264.875 173.042969 264.628906 171.449219 264.332031 C 169.859375 264.039062 168.28125 263.695312 166.710938 263.300781 C 165.140625 262.910156 163.585938 262.46875 162.042969 261.980469 C 160.5 261.492188 158.972656 260.957031 157.464844 260.375 C 155.957031 259.792969 154.464844 259.167969 152.992188 258.492188 C 151.523438 257.820312 150.074219 257.101562 148.648438 256.339844 C 147.21875 255.578125 145.816406 254.773438 144.441406 253.925781 C 143.0625 253.078125 141.710938 252.1875 140.390625 251.257812 C 139.066406 250.324219 137.773438 249.355469 136.511719 248.34375 C 135.246094 247.332031 134.015625 246.285156 132.816406 245.199219 C 131.617188 244.113281 130.453125 242.992188 129.324219 241.832031 C 128.191406 240.675781 127.097656 239.484375 126.042969 238.257812 C 124.984375 237.035156 123.96875 235.777344 122.988281 234.492188 C 122.007812 233.203125 121.066406 231.886719 120.167969 230.542969 C 119.269531 229.199219 118.414062 227.828125 117.597656 226.429688 C 116.78125 225.03125 116.011719 223.609375 115.285156 222.164062 C 114.558594 220.71875 113.875 219.253906 113.238281 217.765625 C 112.597656 216.28125 112.007812 214.777344 111.460938 213.253906 C 110.917969 211.730469 110.417969 210.191406 109.96875 208.636719 C 109.519531 207.082031 109.117188 205.515625 108.761719 203.9375 C 108.40625 202.359375 108.101562 200.773438 107.84375 199.175781 C 107.585938 197.578125 107.378906 195.972656 107.21875 194.363281 C 107.0625 192.753906 106.953125 191.140625 106.890625 189.523438 C 106.832031 187.90625 106.824219 186.289062 106.863281 184.671875 C 106.902344 183.054688 106.992188 181.441406 107.128906 179.828125 C 107.269531 178.21875 107.457031 176.613281 107.695312 175.011719 C 107.933594 173.410156 108.21875 171.820312 108.554688 170.238281 C 108.890625 168.65625 109.273438 167.082031 109.703125 165.523438 C 110.136719 163.964844 110.613281 162.421875 111.140625 160.890625 C 111.667969 159.363281 112.242188 157.847656 112.859375 156.355469 C 113.480469 154.859375 114.144531 153.386719 114.851562 151.933594 C 115.5625 150.480469 116.316406 149.046875 117.113281 147.640625 C 117.914062 146.234375 118.753906 144.851562 119.632812 143.496094 C 120.515625 142.140625 121.441406 140.8125 122.40625 139.511719 C 123.367188 138.214844 124.371094 136.945312 125.414062 135.707031 C 126.453125 134.46875 127.535156 133.265625 128.648438 132.09375 C 129.765625 130.921875 130.917969 129.785156 132.101562 128.6875 C 133.289062 127.585938 134.503906 126.523438 135.757812 125.496094 C 137.007812 124.46875 138.289062 123.484375 139.601562 122.535156 C 140.910156 121.589844 142.25 120.683594 143.617188 119.816406 C 144.984375 118.953125 146.375 118.128906 147.792969 117.351562 C 149.210938 116.570312 150.652344 115.835938 152.113281 115.144531 C 153.578125 114.453125 155.058594 113.808594 156.5625 113.207031 C 158.066406 112.605469 159.582031 112.054688 161.121094 111.546875 C 162.65625 111.039062 164.207031 110.582031 165.773438 110.167969 C 167.335938 109.757812 168.910156 109.394531 170.5 109.078125 C 172.085938 108.761719 173.679688 108.496094 175.285156 108.28125 C 176.886719 108.0625 178.496094 107.894531 180.109375 107.777344 C 181.722656 107.660156 183.335938 107.589844 184.957031 107.570312 C 186.574219 107.550781 188.191406 107.582031 189.804688 107.664062 C 191.421875 107.742188 193.03125 107.875 194.640625 108.050781 C 196.25 108.230469 197.847656 108.460938 199.441406 108.738281 C 201.039062 109.015625 202.621094 109.339844 204.195312 109.714844 C 205.769531 110.089844 207.328125 110.511719 208.878906 110.984375 C 210.425781 111.453125 211.957031 111.972656 213.472656 112.535156 C 214.988281 113.101562 216.488281 113.710938 217.964844 114.367188 C 219.445312 115.023438 220.902344 115.726562 222.335938 116.472656 C 223.773438 117.21875 225.183594 118.007812 226.570312 118.839844 C 227.957031 119.671875 229.316406 120.546875 230.652344 121.460938 C 231.984375 122.378906 233.289062 123.335938 234.5625 124.332031 C 235.835938 125.328125 237.082031 126.359375 238.292969 127.433594 C 239.503906 128.507812 240.679688 129.613281 241.824219 130.757812 C 243.195312 132.132812 244.519531 133.550781 245.785156 135.019531 C 247.054688 136.488281 248.269531 138.003906 249.425781 139.5625 C 250.582031 141.121094 251.679688 142.71875 252.71875 144.359375 C 253.757812 146 254.738281 147.675781 255.652344 149.386719 C 256.566406 151.097656 257.417969 152.839844 258.207031 154.613281 C 258.996094 156.390625 259.714844 158.191406 260.371094 160.015625 C 261.023438 161.84375 261.609375 163.695312 262.128906 165.566406 C 262.648438 167.433594 263.097656 169.324219 263.476562 171.226562 C 263.855469 173.128906 264.164062 175.046875 264.402344 176.972656 C 264.640625 178.898438 264.804688 180.832031 264.902344 182.769531 C 264.996094 184.707031 265.019531 186.648438 264.972656 188.589844 C 264.925781 190.527344 264.808594 192.464844 264.617188 194.398438 C 264.425781 196.328125 264.164062 198.25 263.832031 200.164062 C 263.503906 202.078125 263.101562 203.972656 262.628906 205.855469 C 262.15625 207.738281 261.617188 209.601562 261.007812 211.445312 C 260.398438 213.289062 259.722656 215.109375 258.980469 216.902344 C 258.234375 218.695312 257.429688 220.457031 256.554688 222.191406 C 255.683594 223.925781 254.746094 225.625 253.75 227.289062 C 252.75 228.953125 251.691406 230.578125 250.574219 232.167969 C 249.457031 233.753906 248.28125 235.296875 247.046875 236.796875 C 245.816406 238.296875 244.53125 239.75 243.191406 241.15625 C 241.851562 242.558594 240.464844 243.914062 239.023438 245.21875 C 237.585938 246.519531 236.101562 247.769531 234.570312 248.960938 C 233.039062 250.15625 231.46875 251.292969 229.851562 252.371094 C 228.238281 253.445312 226.585938 254.464844 224.898438 255.417969 C 223.207031 256.375 221.484375 257.269531 219.730469 258.097656 C 217.972656 258.925781 216.191406 259.6875 214.378906 260.386719 C 212.566406 261.085938 210.734375 261.714844 208.875 262.277344 C 207.015625 262.839844 205.140625 263.332031 203.246094 263.753906 C 201.351562 264.179688 199.445312 264.53125 197.523438 264.816406 C 195.605469 265.101562 193.675781 265.3125 191.742188 265.453125 C 189.804688 265.59375 187.867188 265.664062 185.925781 265.664062 Z M 185.925781 124.984375 C 184.746094 124.980469 183.570312 125.011719 182.390625 125.078125 C 181.214844 125.140625 180.042969 125.238281 178.871094 125.371094 C 177.699219 125.503906 176.535156 125.667969 175.371094 125.867188 C 174.210938 126.066406 173.058594 126.300781 171.910156 126.5625 C 170.761719 126.828125 169.621094 127.128906 168.488281 127.457031 C 167.359375 127.789062 166.238281 128.152344 165.128906 128.546875 C 164.015625 128.941406 162.917969 129.367188 161.832031 129.824219 C 160.746094 130.28125 159.675781 130.769531 158.617188 131.289062 C 157.558594 131.808594 156.519531 132.355469 155.492188 132.9375 C 154.464844 133.515625 153.457031 134.121094 152.464844 134.757812 C 151.472656 135.394531 150.5 136.058594 149.546875 136.753906 C 148.59375 137.445312 147.660156 138.164062 146.75 138.910156 C 145.835938 139.65625 144.945312 140.425781 144.078125 141.222656 C 143.210938 142.019531 142.367188 142.84375 141.542969 143.6875 C 140.722656 144.53125 139.925781 145.402344 139.15625 146.292969 C 138.386719 147.183594 137.640625 148.09375 136.921875 149.027344 C 136.203125 149.960938 135.511719 150.914062 134.847656 151.886719 C 134.183594 152.863281 133.546875 153.851562 132.9375 154.863281 C 132.332031 155.871094 131.753906 156.898438 131.203125 157.941406 C 130.65625 158.984375 130.136719 160.042969 129.648438 161.113281 C 129.160156 162.1875 128.703125 163.273438 128.277344 164.371094 C 127.851562 165.46875 127.460938 166.582031 127.097656 167.703125 C 126.734375 168.824219 126.40625 169.953125 126.109375 171.09375 C 125.808594 172.234375 125.546875 173.382812 125.3125 174.539062 C 125.082031 175.691406 124.882812 176.855469 124.71875 178.019531 C 124.554688 179.1875 124.421875 180.359375 124.324219 181.53125 C 124.226562 182.707031 124.164062 183.882812 124.132812 185.058594 C 124.101562 186.238281 124.105469 187.417969 124.140625 188.59375 C 124.179688 189.773438 124.25 190.949219 124.355469 192.121094 C 124.457031 193.292969 124.597656 194.464844 124.769531 195.628906 C 124.9375 196.796875 125.144531 197.957031 125.382812 199.109375 C 125.621094 200.265625 125.890625 201.410156 126.195312 202.550781 C 126.496094 203.6875 126.832031 204.816406 127.203125 205.9375 C 127.570312 207.054688 127.96875 208.164062 128.402344 209.257812 C 128.832031 210.355469 129.296875 211.4375 129.789062 212.507812 C 130.285156 213.578125 130.808594 214.632812 131.363281 215.671875 C 131.917969 216.714844 132.5 217.734375 133.113281 218.742188 C 133.726562 219.75 134.367188 220.738281 135.039062 221.707031 C 135.707031 222.675781 136.40625 223.625 137.128906 224.554688 C 137.851562 225.484375 138.601562 226.394531 139.378906 227.28125 C 140.15625 228.167969 140.957031 229.03125 141.78125 229.871094 C 142.605469 230.710938 143.457031 231.527344 144.328125 232.320312 C 145.199219 233.113281 146.09375 233.878906 147.011719 234.621094 C 147.929688 235.359375 148.863281 236.074219 149.820312 236.761719 C 150.777344 237.449219 151.753906 238.109375 152.75 238.738281 C 153.746094 239.371094 154.757812 239.972656 155.789062 240.546875 C 156.816406 241.117188 157.863281 241.660156 158.921875 242.175781 C 159.984375 242.6875 161.058594 243.171875 162.144531 243.621094 C 163.234375 244.074219 164.335938 244.492188 165.449219 244.882812 C 166.558594 245.269531 167.683594 245.628906 168.816406 245.953125 C 169.949219 246.277344 171.089844 246.566406 172.238281 246.828125 C 173.386719 247.085938 174.542969 247.3125 175.707031 247.503906 C 176.871094 247.695312 178.035156 247.855469 179.207031 247.980469 C 180.378906 248.105469 181.554688 248.199219 182.730469 248.257812 C 183.90625 248.316406 185.085938 248.339844 186.265625 248.332031 C 187.441406 248.320312 188.621094 248.277344 189.796875 248.203125 C 190.972656 248.125 192.144531 248.015625 193.3125 247.871094 C 194.484375 247.726562 195.648438 247.550781 196.804688 247.339844 C 197.964844 247.128906 199.117188 246.886719 200.265625 246.609375 C 201.410156 246.332031 202.546875 246.023438 203.671875 245.683594 C 204.800781 245.339844 205.917969 244.964844 207.023438 244.5625 C 208.128906 244.15625 209.222656 243.71875 210.304688 243.25 C 211.386719 242.78125 212.453125 242.28125 213.507812 241.753906 C 214.558594 241.222656 215.59375 240.664062 216.617188 240.074219 C 217.636719 239.484375 218.640625 238.867188 219.625 238.222656 C 220.609375 237.574219 221.574219 236.902344 222.523438 236.199219 C 223.46875 235.496094 224.394531 234.769531 225.300781 234.011719 C 226.203125 233.257812 227.085938 232.476562 227.945312 231.671875 C 228.804688 230.867188 229.644531 230.039062 230.457031 229.183594 C 231.269531 228.332031 232.054688 227.453125 232.816406 226.554688 C 233.578125 225.65625 234.316406 224.738281 235.023438 223.796875 C 235.734375 222.855469 236.417969 221.894531 237.070312 220.917969 C 237.726562 219.9375 238.351562 218.9375 238.949219 217.921875 C 239.546875 216.90625 240.113281 215.875 240.652344 214.828125 C 241.191406 213.777344 241.699219 212.714844 242.175781 211.640625 C 242.652344 210.5625 243.097656 209.472656 243.515625 208.367188 C 243.929688 207.265625 244.3125 206.152344 244.664062 205.027344 C 245.011719 203.902344 245.332031 202.769531 245.617188 201.625 C 245.902344 200.480469 246.15625 199.332031 246.375 198.171875 C 246.597656 197.015625 246.785156 195.851562 246.9375 194.683594 C 247.089844 193.515625 247.210938 192.34375 247.296875 191.167969 C 247.382812 189.996094 247.433594 188.816406 247.453125 187.640625 C 247.472656 186.460938 247.457031 185.285156 247.410156 184.105469 C 247.359375 182.929688 247.277344 181.753906 247.160156 180.582031 C 247.046875 179.410156 246.894531 178.242188 246.710938 177.078125 C 246.53125 175.914062 246.3125 174.753906 246.0625 173.601562 C 245.816406 172.453125 245.53125 171.308594 245.21875 170.171875 C 244.902344 169.035156 244.554688 167.910156 244.175781 166.796875 C 243.796875 165.679688 243.386719 164.578125 242.941406 163.484375 C 242.5 162.390625 242.027344 161.3125 241.519531 160.25 C 241.015625 159.183594 240.480469 158.132812 239.917969 157.101562 C 239.351562 156.066406 238.757812 155.050781 238.136719 154.046875 C 237.511719 153.046875 236.863281 152.066406 236.183594 151.105469 C 235.503906 150.140625 234.796875 149.199219 234.0625 148.277344 C 233.332031 147.355469 232.570312 146.453125 231.785156 145.574219 C 231 144.695312 230.191406 143.839844 229.359375 143.007812 C 226.507812 140.15625 223.402344 137.605469 220.050781 135.363281 C 216.699219 133.121094 213.15625 131.226562 209.433594 129.679688 C 205.707031 128.132812 201.867188 126.964844 197.910156 126.175781 C 193.953125 125.382812 189.957031 124.988281 185.925781 124.984375 Z M 185.925781 124.984375 "/>
<g clip-path="url(#clip5)" clip-rule="nonzero">
<path style=" stroke:none;fill-rule:nonzero;fill:#000000;fill-opacity:1;" d="M 297.980469 307.402344 C 296.832031 307.398438 295.726562 307.171875 294.664062 306.730469 C 293.605469 306.285156 292.667969 305.65625 291.859375 304.839844 L 229.53125 242.554688 C 229.128906 242.152344 228.769531 241.714844 228.449219 241.238281 C 228.132812 240.765625 227.867188 240.265625 227.648438 239.738281 C 227.429688 239.210938 227.265625 238.664062 227.152344 238.105469 C 227.042969 237.546875 226.984375 236.980469 226.984375 236.410156 C 226.984375 235.839844 227.042969 235.273438 227.152344 234.714844 C 227.265625 234.15625 227.429688 233.613281 227.648438 233.085938 C 227.867188 232.558594 228.132812 232.054688 228.449219 231.582031 C 228.769531 231.105469 229.128906 230.667969 229.53125 230.265625 C 229.933594 229.859375 230.375 229.5 230.847656 229.183594 C 231.324219 228.867188 231.824219 228.597656 232.351562 228.378906 C 232.878906 228.164062 233.421875 227.996094 233.980469 227.886719 C 234.542969 227.773438 235.105469 227.71875 235.675781 227.71875 C 236.25 227.71875 236.8125 227.773438 237.375 227.886719 C 237.933594 227.996094 238.476562 228.164062 239.003906 228.378906 C 239.53125 228.597656 240.03125 228.867188 240.507812 229.183594 C 240.980469 229.5 241.417969 229.859375 241.824219 230.265625 L 304.105469 292.589844 C 304.710938 293.199219 305.214844 293.878906 305.617188 294.636719 C 306.015625 295.390625 306.300781 296.191406 306.46875 297.03125 C 306.632812 297.871094 306.675781 298.71875 306.589844 299.570312 C 306.507812 300.421875 306.300781 301.242188 305.972656 302.035156 C 305.644531 302.824219 305.210938 303.554688 304.667969 304.214844 C 304.125 304.878906 303.5 305.449219 302.789062 305.925781 C 302.078125 306.402344 301.3125 306.769531 300.496094 307.019531 C 299.675781 307.269531 298.839844 307.398438 297.980469 307.402344 Z M 297.980469 307.402344 "/>
</g>
<g clip-path="url(#clip6)" clip-rule="nonzero">
<path style=" stroke:none;fill-rule:nonzero;fill:#000000;fill-opacity:1;" d="M 236.949219 182.8125 L 197.546875 182.8125 C 194.976562 182.8125 192.890625 184.828125 192.890625 187.3125 C 192.890625 189.796875 194.976562 191.8125 197.546875 191.8125 L 236.949219 191.8125 C 239.519531 191.8125 241.605469 189.796875 241.605469 187.3125 C 241.605469 184.828125 239.523438 182.8125 236.949219 182.8125 Z M 236.949219 182.8125 "/>
</g>
<g clip-path="url(#clip7)" clip-rule="nonzero">
<path style=" stroke:none;fill-rule:nonzero;fill:#000000;fill-opacity:1;" d="M 156.710938 161.324219 C 156.722656 161.324219 156.738281 161.324219 156.75 161.324219 C 158.058594 161.332031 159.25 161.867188 160.109375 162.730469 C 160.976562 163.59375 161.511719 164.792969 161.511719 166.113281 L 161.515625 166.113281 L 161.515625 182.863281 L 178.269531 182.863281 C 179.585938 182.863281 180.78125 183.402344 181.648438 184.269531 C 182.511719 185.132812 183.050781 186.324219 183.054688 187.632812 C 183.054688 187.648438 183.054688 187.660156 183.054688 187.671875 C 183.046875 188.980469 182.511719 190.167969 181.648438 191.03125 C 180.785156 191.898438 179.585938 192.433594 178.269531 192.433594 L 178.269531 192.4375 L 161.515625 192.4375 L 161.515625 209.191406 C 161.515625 210.507812 160.976562 211.703125 160.109375 212.570312 C 159.246094 213.433594 158.058594 213.972656 156.746094 213.976562 C 156.734375 213.976562 156.71875 213.976562 156.707031 213.976562 C 155.398438 213.972656 154.210938 213.433594 153.347656 212.570312 C 152.480469 211.707031 151.945312 210.507812 151.945312 209.191406 L 151.941406 209.191406 L 151.941406 192.4375 L 135.1875 192.4375 C 133.871094 192.4375 132.675781 191.898438 131.808594 191.03125 C 130.945312 190.167969 130.40625 188.980469 130.402344 187.667969 C 130.402344 187.65625 130.402344 187.640625 130.402344 187.628906 C 130.410156 186.320312 130.945312 185.132812 131.808594 184.269531 C 132.671875 183.402344 133.871094 182.867188 135.1875 182.867188 L 135.1875 182.863281 L 151.941406 182.863281 L 151.941406 166.113281 C 151.941406 164.792969 152.480469 163.597656 153.347656 162.730469 C 154.210938 161.867188 155.402344 161.328125 156.710938 161.324219 "/>
</g>
</g>
</svg>
