<svg xmlns="http://www.w3.org/2000/svg" xmlns:xlink="http://www.w3.org/1999/xlink" width="500" zoomAndPan="magnify" viewBox="0 0 375 374.999991" height="500" preserveAspectRatio="xMidYMid meet" version="1.0"><path fill="#000000" d="M 187.5 264.832031 C 144.789062 264.832031 110.167969 230.210938 110.167969 187.5 C 110.167969 144.789062 144.789062 110.167969 187.5 110.167969 C 230.210938 110.167969 264.832031 144.789062 264.832031 187.5 C 264.832031 230.210938 230.210938 264.832031 187.5 264.832031 Z M 364.875 151.34375 L 330.253906 147.246094 C 327.125 136.121094 322.6875 125.292969 316.917969 115.007812 L 338.488281 87.644531 C 342.089844 83.074219 341.703125 76.539062 337.59375 72.429688 L 302.570312 37.40625 C 298.460938 33.296875 291.925781 32.910156 287.355469 36.511719 L 259.992188 58.082031 C 249.707031 52.3125 238.875 47.875 227.753906 44.746094 L 223.65625 10.121094 C 222.972656 4.347656 218.078125 0 212.261719 0 L 162.734375 0 C 156.921875 0 152.027344 4.347656 151.34375 10.121094 L 147.246094 44.746094 C 136.121094 47.875 125.292969 52.3125 115.007812 58.082031 L 87.640625 36.511719 C 83.074219 32.910156 76.539062 33.296875 72.425781 37.40625 L 37.40625 72.429688 C 33.296875 76.539062 32.910156 83.074219 36.511719 87.644531 L 58.082031 115.007812 C 52.3125 125.292969 47.871094 136.121094 44.746094 147.246094 L 10.121094 151.34375 C 4.347656 152.027344 0 156.921875 0 162.734375 L 0 212.261719 C 0 218.078125 4.347656 222.972656 10.121094 223.65625 L 44.746094 227.753906 C 47.871094 238.875 52.3125 249.707031 58.082031 259.992188 L 36.511719 287.355469 C 32.910156 291.925781 33.296875 298.460938 37.40625 302.570312 L 72.425781 337.59375 C 76.539062 341.703125 83.074219 342.089844 87.640625 338.488281 L 115.007812 316.917969 C 125.292969 322.6875 136.121094 327.125 147.246094 330.253906 L 151.34375 364.875 C 152.027344 370.652344 156.921875 375 162.734375 375 L 211.445312 375 C 217.152344 375 221.996094 370.800781 222.800781 365.140625 L 227.753906 330.253906 C 238.875 327.125 249.707031 322.6875 259.992188 316.917969 L 287.355469 338.488281 C 291.925781 342.089844 298.460938 341.703125 302.570312 337.59375 L 337.59375 302.570312 C 341.703125 298.460938 342.089844 291.925781 338.488281 287.355469 L 316.917969 259.992188 C 322.6875 249.707031 327.125 238.875 330.253906 227.753906 L 364.875 223.65625 C 370.652344 222.972656 375 218.078125 375 212.261719 L 375 162.734375 C 375 156.921875 370.652344 152.027344 364.875 151.34375 " fill-opacity="1" fill-rule="nonzero"/></svg>