<?xml version="1.0" encoding="UTF-8"?>
<svg xmlns="http://www.w3.org/2000/svg" xmlns:xlink="http://www.w3.org/1999/xlink" width="375pt" height="374.999991pt" viewBox="0 0 375 374.999991" version="1.2">
<defs>
<clipPath id="clip1">
  <path d="M 290 150 L 361.253906 150 L 361.253906 201 L 290 201 Z M 290 150 "/>
</clipPath>
<clipPath id="clip2">
  <path d="M 37.5 150 L 109 150 L 109 201 L 37.5 201 Z M 37.5 150 "/>
</clipPath>
</defs>
<g id="surface1">
<path style=" stroke:none;fill-rule:nonzero;fill:#0895cd;fill-opacity:1;" d="M 199.359375 93.863281 C 227.828125 93.863281 250.929688 116.917969 250.929688 145.367188 C 250.929688 173.820312 227.828125 196.90625 199.359375 196.90625 C 170.894531 196.90625 147.828125 173.820312 147.828125 145.367188 C 147.828125 116.917969 170.894531 93.863281 199.359375 93.863281 "/>
<path style=" stroke:none;fill-rule:nonzero;fill:#0895cd;fill-opacity:1;" d="M 334.542969 335.6875 L 255.636719 241.058594 C 255.136719 240.527344 254.609375 240 254.078125 239.46875 C 244.070312 228.96875 231.441406 221.085938 216.726562 217.9375 C 215.136719 217.410156 213.578125 218.46875 212.519531 220.027344 L 207.777344 228.96875 C 207.777344 229.5 207.25 230.558594 207.25 231.054688 L 216.726562 337.773438 C 216.726562 338.835938 216.726562 339.859375 215.667969 340.390625 L 202.011719 355.128906 C 200.421875 356.6875 197.804688 356.6875 196.742188 355.128906 L 183.054688 339.859375 C 182.527344 339.332031 181.996094 338.304688 181.996094 337.246094 L 191.472656 230.558594 C 191.472656 230.027344 190.945312 228.96875 190.945312 228.4375 L 186.238281 219.496094 C 185.707031 217.9375 183.585938 217.410156 181.996094 217.410156 C 167.28125 220.554688 154.652344 228.4375 144.679688 238.9375 C 144.148438 239.46875 143.617188 240 143.085938 240.527344 L 64.210938 335.15625 C 62.089844 337.773438 62.089844 341.449219 64.210938 344.101562 C 68.421875 348.804688 72.597656 353.539062 77.335938 358.277344 C 79.988281 360.894531 84.691406 360.894531 87.34375 357.746094 L 118.363281 320.949219 C 120.484375 317.800781 125.722656 319.886719 125.722656 324.128906 L 125.722656 367.714844 C 125.722656 371.394531 128.371094 374.042969 132.050781 374.042969 L 266.703125 374.042969 C 270.382812 374.042969 273 371.394531 273 367.714844 L 273 324.128906 C 273 319.886719 278.269531 318.332031 280.886719 321.476562 L 311.910156 358.277344 C 314.558594 361.421875 319.300781 361.953125 321.917969 358.808594 C 326.65625 354.601562 330.867188 349.863281 335.074219 344.597656 C 336.632812 341.980469 336.632812 338.304688 334.542969 335.6875 "/>
<path style=" stroke:none;fill-rule:nonzero;fill:#0895cd;fill-opacity:1;" d="M 224.085938 25.003906 L 200.421875 1.355469 C 199.890625 0.824219 198.832031 0.824219 198.332031 1.355469 L 174.636719 25.003906 C 173.609375 26.0625 174.109375 27.621094 175.699219 27.621094 L 186.238281 27.621094 C 187.265625 27.621094 187.796875 28.148438 187.796875 29.210938 L 187.796875 59.183594 C 187.796875 65.480469 192.535156 71.273438 198.832031 71.773438 C 205.691406 72.300781 211.457031 66.539062 211.457031 60.210938 L 211.457031 28.679688 C 211.457031 27.621094 211.988281 27.125 213.046875 27.125 L 223.554688 27.125 C 224.613281 27.621094 225.144531 26.0625 224.085938 25.003906 "/>
<g clip-path="url(#clip1)" clip-rule="nonzero">
<path style=" stroke:none;fill-rule:nonzero;fill:#0895cd;fill-opacity:1;" d="M 337.160156 200.054688 L 360.824219 176.402344 C 361.355469 175.875 361.355469 174.8125 360.824219 174.285156 L 337.160156 150.636719 C 336.132812 149.574219 334.542969 150.105469 334.542969 151.695312 L 334.542969 162.195312 C 334.542969 163.253906 334.015625 163.785156 332.953125 163.785156 L 302.992188 163.785156 C 296.664062 163.785156 290.898438 168.519531 290.367188 174.8125 C 289.835938 181.636719 295.601562 187.433594 301.933594 187.433594 L 332.457031 187.433594 C 333.484375 187.433594 334.015625 187.964844 334.015625 189.023438 L 334.015625 199.523438 C 335.074219 200.054688 336.632812 201.078125 337.160156 200.054688 "/>
</g>
<g clip-path="url(#clip2)" clip-rule="nonzero">
<path style=" stroke:none;fill-rule:nonzero;fill:#0895cd;fill-opacity:1;" d="M 61.558594 200.054688 L 37.898438 176.402344 C 37.367188 175.875 37.367188 174.8125 37.898438 174.285156 L 61.558594 150.636719 C 62.621094 149.574219 64.210938 150.105469 64.210938 151.695312 L 64.210938 162.195312 C 64.210938 163.253906 64.707031 163.785156 65.769531 163.785156 L 95.761719 163.785156 C 102.058594 163.785156 107.859375 168.519531 108.390625 174.8125 C 108.917969 181.636719 103.121094 187.433594 96.789062 187.433594 L 66.300781 187.433594 C 65.238281 187.433594 64.707031 187.964844 64.707031 189.023438 L 64.707031 199.523438 C 63.679688 200.054688 62.089844 201.078125 61.558594 200.054688 "/>
</g>
<path style=" stroke:none;fill-rule:nonzero;fill:#0895cd;fill-opacity:1;" d="M 322.976562 81.773438 L 324.535156 48.121094 C 324.535156 47.097656 324.039062 46.566406 322.976562 46.566406 L 289.304688 44.976562 C 288.246094 44.976562 287.21875 46.566406 288.246094 47.625 L 295.105469 55.476562 C 295.601562 56.003906 295.601562 57.066406 295.105469 57.59375 L 273.53125 77.039062 C 268.792969 81.246094 267.730469 88.597656 271.941406 93.863281 C 276.148438 99.128906 284.035156 99.660156 289.304688 95.453125 L 311.910156 74.953125 C 312.4375 74.421875 313.5 74.421875 314.03125 74.953125 L 320.855469 82.835938 C 321.386719 83.363281 322.976562 82.835938 322.976562 81.773438 "/>
<path style=" stroke:none;fill-rule:nonzero;fill:#0895cd;fill-opacity:1;" d="M 63.152344 81.773438 L 61.558594 48.121094 C 61.558594 47.097656 62.089844 46.566406 63.152344 46.566406 L 96.789062 44.976562 C 97.851562 44.976562 98.910156 46.566406 97.851562 47.625 L 91.023438 55.476562 C 90.492188 56.003906 90.492188 57.066406 91.023438 57.59375 L 113.128906 77.566406 C 117.835938 81.773438 118.894531 89.128906 114.6875 94.394531 C 110.476562 99.660156 102.589844 100.191406 97.320312 95.984375 L 74.71875 75.480469 C 74.1875 74.953125 73.125 74.953125 72.597656 75.480469 L 65.769531 82.304688 C 64.707031 83.363281 63.152344 82.835938 63.152344 81.773438 "/>
</g>
</svg>
