<?xml version="1.0" encoding="UTF-8" standalone="no"?>
<svg xmlns="http://www.w3.org/2000/svg" xmlns:xlink="http://www.w3.org/1999/xlink" width="499.00507" height="499.00507" viewBox="0 0 499.00507 499.00507" version="1.2">
  <g id="surface1">
    <path style="stroke:none;fill-rule:nonzero;fill:#808080;fill-opacity:1;" d="m 380.08055,457.35169 c -15.62296,-2.03191 -31.3793,-8.64717 -43.83881,-18.4056 -4.79258,-3.75361 -12.73179,-11.90362 -16.39647,-16.83184 -12.20639,-16.41498 -18.07506,-35.44648 -17.34804,-56.25794 0.50419,-14.43286 3.35085,-25.1892 10.11978,-38.23847 12.20409,-23.52729 35.05748,-40.54082 61.61582,-45.87078 6.74802,-1.35425 20.88143,-1.84544 27.85249,-0.968 37.77174,4.75436 67.86495,32.45629 76.24674,70.18799 1.48453,6.68279 1.85929,24.41754 0.67574,31.97793 -5.40118,34.50232 -31.23193,63.18564 -64.81558,71.97338 -8.43903,2.20822 -13.33076,2.77173 -23.39086,2.69453 -5.09238,-0.0391 -9.91675,-0.15662 -10.72081,-0.2612 z m 25.66103,-16.2125 c 14.74224,-3.12056 26.55407,-9.5325 37.23334,-20.21178 10.67435,-10.67435 16.96234,-22.17961 20.30144,-37.14597 0.90951,-4.07658 1.07019,-6.28922 1.07356,-14.78394 0.004,-9.25445 -0.0969,-10.4184 -1.36644,-15.81147 -5.01655,-21.31068 -18.21761,-38.67588 -37.33948,-49.11784 -11.64037,-6.3565 -27.29751,-9.52299 -40.67444,-8.22595 -18.61433,1.80486 -33.95161,9.19949 -46.84449,22.58533 -18.87813,19.59995 -25.28941,47.88718 -16.70431,73.70125 8.08474,24.3096 28.35299,42.8253 53.05573,48.46812 7.23325,1.65229 10.38558,1.9436 18.76142,1.73382 5.33084,-0.13352 9.28565,-0.5104 12.50367,-1.19157 z m -44.94724,-41.89101 c -1.5334,-1.53338 -1.81622,-3.30695 -0.914,-5.73164 0.28075,-0.75451 5.70645,-6.57995 12.0571,-12.94543 L 383.4841,368.9975 371.96586,357.4239 c -6.33503,-6.36548 -11.76072,-12.05259 -12.0571,-12.63802 -1.67636,-3.31125 0.56089,-7.4635 4.02136,-7.4635 0.94124,0 2.32867,0.23289 3.08317,0.51754 0.75451,0.28465 6.52897,5.65518 12.83215,11.93451 l 11.46031,11.41698 11.19959,-11.236 c 6.15976,-6.17981 11.79173,-11.55034 12.51548,-11.93452 1.73569,-0.92135 4.52106,-0.88768 5.98626,0.0724 0.64709,0.42398 1.42389,1.52043 1.72624,2.43655 1.08877,3.29902 0.30328,4.39412 -12.11453,16.88957 l -11.49721,11.56907 11.4905,11.57814 c 12.43933,12.53419 13.20717,13.60821 12.10856,16.93702 -0.30931,0.93723 -1.03298,2.03368 -1.60815,2.43654 -1.32296,0.92664 -4.37791,0.94368 -6.09167,0.034 -0.72375,-0.38418 -6.35783,-5.75682 -12.52018,-11.9392 l -11.20426,-11.24071 -11.45564,11.40035 c -6.30059,6.27018 -11.93461,11.64282 -12.52003,11.9392 -0.58543,0.29638 -1.97286,0.53887 -3.08317,0.53887 -1.58152,0 -2.32729,-0.30852 -3.4432,-1.42445 z m -329.090905,35.734 c -7.21463,-1.74568 -13.25502,-6.54513 -15.40722,-12.24194 -2.07434,-5.49072 -1.16452,-13.45893 2.32496,-20.36203 0.67741,-1.3401 25.2903,-44.10152 54.6953,-95.02538 29.405005,-50.92385 75.235305,-130.30659 101.845105,-176.40609 26.60981,-46.09949 49.17398,-85.021689 50.14261,-86.493783 4.47987,-6.808403 11.46458,-11.553644 17.74875,-12.058073 6.46753,-0.519155 13.20138,2.864255 18.39425,9.242154 1.49981,1.842069 27.73274,46.782172 66.04297,113.139402 34.95517,60.54592 63.55486,110.12784 63.55486,110.18203 0,0.0542 -2.35736,0.24783 -5.23858,0.43029 -10.73299,0.67973 -21.81875,2.95042 -30.67348,6.28285 l -4.4767,1.68479 -45.17367,-78.27082 c -24.84552,-43.04895 -46.14234,-79.74481 -47.32627,-81.54637 -7.85943,-11.95952 -19.77119,-11.80832 -27.70654,0.3517 -0.87452,1.3401 -28.61098,49.25482 -61.63657,106.47715 -33.02559,57.22234 -65.50714,113.49683 -72.181225,125.05443 -6.67408,11.5576 -12.59237,22.30277 -13.15177,23.87817 -1.19802,3.37389 -1.40351,8.36582 -0.45723,11.10762 1.41858,4.11032 6.26398,7.85496 11.63993,8.99562 1.86217,0.39511 29.402105,0.54792 98.749535,0.54792 h 96.16718 l 0.85526,3.53299 c 3.22568,13.32485 11.35248,29.94212 19.26578,39.39369 1.05208,1.2566 1.91288,2.41875 1.91288,2.58257 0,0.16382 -62.333,0.27958 -138.51777,0.25726 -118.224885,-0.0346 -138.938895,-0.1425 -141.392345,-0.73615 z M 237.87937,374.14351 c -8.8021,-2.53107 -15.24394,-9.08183 -16.93335,-17.21962 -0.33143,-1.59652 -0.48144,-4.79344 -0.35153,-7.49145 0.19979,-4.14887 0.43717,-5.1498 2.0037,-8.44845 7.39688,-15.57574 28.0798,-18.58231 39.77824,-5.78235 6.07007,6.64163 7.81361,16.65787 4.44355,25.52715 -2.06581,5.43678 -7.20907,10.2463 -13.56881,12.68837 -3.53891,1.3589 -11.81248,1.74984 -15.3718,0.72635 z m 1.6092,-59.66407 c -5.37465,-1.76083 -7.89585,-5.17111 -10.02335,-13.55795 -1.9117,-7.53612 -2.53355,-14.12607 -5.32512,-56.4316 -3.49011,-52.89173 -3.6432,-55.61733 -3.64874,-64.95964 -0.006,-9.33623 0.71664,-13.33127 3.31033,-18.31252 4.57455,-8.78553 12.29935,-12.84913 23.48698,-12.35525 12.57448,0.55511 17.55353,6.01319 20.31268,22.26694 0.56799,3.34589 0.78438,7.65619 0.77166,15.37062 -0.0153,9.28342 -0.54711,16.7644 -3.96654,55.79696 -4.47717,51.10667 -4.5406,51.70134 -6.17866,57.92767 -2.75866,10.48582 -6.30433,14.19577 -13.86299,14.50528 -2.01016,0.0823 -4.20447,-0.0304 -4.87625,-0.25051 z" />
  </g>
</svg>
