<?xml version="1.0" encoding="UTF-8"?>
<svg xmlns="http://www.w3.org/2000/svg" xmlns:xlink="http://www.w3.org/1999/xlink" width="375pt" height="374.999991pt" viewBox="0 0 375 374.999991" version="1.2">
<defs>
<clipPath id="clip1">
  <path d="M 61.226562 4.4375 L 164 4.4375 L 164 370.4375 L 61.226562 370.4375 Z M 61.226562 4.4375 "/>
</clipPath>
<clipPath id="clip2">
  <path d="M 207.15625 4.4375 L 310 4.4375 L 310 370.4375 L 207.15625 370.4375 Z M 207.15625 4.4375 "/>
</clipPath>
</defs>
<g id="surface1">
<g clip-path="url(#clip1)" clip-rule="nonzero">
<path style=" stroke:none;fill-rule:nonzero;fill:#000000;fill-opacity:1;" d="M 106.027344 26.5625 C 93.792969 26.5625 83.835938 36.496094 83.835938 48.710938 L 83.835938 326.136719 C 83.835938 338.34375 93.792969 348.28125 106.027344 348.28125 L 119.347656 348.28125 C 131.582031 348.28125 141.539062 338.34375 141.539062 326.136719 L 141.539062 48.710938 C 141.539062 36.496094 131.582031 26.5625 119.347656 26.5625 Z M 119.347656 370.425781 L 106.027344 370.425781 C 81.554688 370.425781 61.648438 350.558594 61.648438 326.136719 L 61.648438 48.710938 C 61.648438 24.285156 81.554688 4.417969 106.027344 4.417969 L 119.347656 4.417969 C 143.824219 4.417969 163.730469 24.285156 163.730469 48.710938 L 163.730469 326.136719 C 163.730469 350.558594 143.824219 370.425781 119.347656 370.425781 "/>
</g>
<g clip-path="url(#clip2)" clip-rule="nonzero">
<path style=" stroke:none;fill-rule:nonzero;fill:#000000;fill-opacity:1;" d="M 251.957031 26.5625 C 239.726562 26.5625 229.769531 36.496094 229.769531 48.710938 L 229.769531 326.136719 C 229.769531 338.34375 239.726562 348.28125 251.957031 348.28125 L 265.277344 348.28125 C 277.511719 348.28125 287.46875 338.34375 287.46875 326.136719 L 287.46875 48.710938 C 287.46875 36.496094 277.511719 26.5625 265.277344 26.5625 Z M 265.277344 370.425781 L 251.957031 370.425781 C 227.484375 370.425781 207.578125 350.558594 207.578125 326.136719 L 207.578125 48.710938 C 207.578125 24.285156 227.484375 4.417969 251.957031 4.417969 L 265.277344 4.417969 C 289.753906 4.417969 309.660156 24.285156 309.660156 48.710938 L 309.660156 326.136719 C 309.660156 350.558594 289.753906 370.425781 265.277344 370.425781 "/>
</g>
</g>
</svg>
