<?xml version="1.0" encoding="UTF-8"?>
<svg xmlns="http://www.w3.org/2000/svg" xmlns:xlink="http://www.w3.org/1999/xlink" width="375pt" height="374.999991pt" viewBox="0 0 375 374.999991" version="1.2">
<defs>
<clipPath id="clip1">
  <path d="M 218 15.085938 L 337 15.085938 L 337 360.085938 L 218 360.085938 Z M 218 15.085938 "/>
</clipPath>
<clipPath id="clip2">
  <path d="M 38 15.085938 L 157 15.085938 L 157 360.085938 L 38 360.085938 Z M 38 15.085938 "/>
</clipPath>
</defs>
<g id="surface1">
<g clip-path="url(#clip1)" clip-rule="nonzero">
<path style=" stroke:none;fill-rule:nonzero;fill:#0895cd;fill-opacity:1;" d="M 316.164062 15.136719 L 238.265625 15.136719 C 227.128906 15.136719 218.113281 24.164062 218.113281 35.296875 L 218.113281 340.042969 C 218.113281 351.179688 227.128906 360.203125 238.265625 360.203125 L 316.164062 360.203125 C 327.289062 360.203125 336.304688 351.179688 336.304688 340.042969 L 336.304688 35.296875 C 336.3125 24.164062 327.292969 15.136719 316.164062 15.136719 Z M 316.164062 15.136719 "/>
</g>
<g clip-path="url(#clip2)" clip-rule="nonzero">
<path style=" stroke:none;fill-rule:nonzero;fill:#0895cd;fill-opacity:1;" d="M 136.746094 15.136719 L 58.835938 15.136719 C 47.710938 15.136719 38.695312 24.164062 38.695312 35.296875 L 38.695312 340.050781 C 38.695312 351.183594 47.710938 360.210938 58.835938 360.210938 L 136.746094 360.210938 C 147.871094 360.210938 156.886719 351.183594 156.886719 340.050781 L 156.886719 35.296875 C 156.886719 24.164062 147.871094 15.136719 136.746094 15.136719 Z M 136.746094 15.136719 "/>
</g>
</g>
</svg>
