<?xml version="1.0" encoding="UTF-8"?>
<svg xmlns="http://www.w3.org/2000/svg" xmlns:xlink="http://www.w3.org/1999/xlink" width="12pt" height="12pt" viewBox="0 0 12 12" version="1.1">
<defs>
<clipPath id="clip1">
  <path d="M 0.09375 0.191406 L 11.894531 0.191406 L 11.894531 11.988281 L 0.09375 11.988281 Z M 0.09375 0.191406 "/>
</clipPath>
</defs>
<g id="surface1">
<g clip-path="url(#clip1)" clip-rule="nonzero">
<path style=" stroke:none;fill-rule:nonzero;fill:#0895cd;fill-opacity:1;" d="M 5.996094 0.191406 C 2.742188 0.191406 0.09375 2.835938 0.09375 6.089844 C 0.09375 7.925781 0.921875 9.617188 2.363281 10.734375 C 3.191406 11.386719 4.179688 11.804688 5.210938 11.933594 C 5.464844 11.972656 5.730469 11.988281 5.996094 11.988281 C 6.257812 11.988281 6.523438 11.972656 6.773438 11.9375 C 7.808594 11.804688 8.796875 11.390625 9.625 10.738281 C 11.066406 9.617188 11.894531 7.921875 11.894531 6.089844 C 11.894531 2.835938 9.246094 0.191406 5.996094 0.191406 Z M 9.367188 9.847656 L 9.367188 9.273438 C 9.367188 8.449219 7.855469 7.773438 5.996094 7.773438 C 4.132812 7.773438 2.625 8.449219 2.625 9.273438 L 2.625 9.847656 C 1.550781 8.894531 0.9375 7.546875 0.9375 6.089844 C 0.9375 3.300781 3.207031 1.03125 5.996094 1.03125 C 8.785156 1.03125 11.050781 3.300781 11.050781 6.089844 C 11.050781 7.542969 10.4375 8.890625 9.367188 9.847656 Z M 9.367188 9.847656 "/>
</g>
<path style=" stroke:none;fill-rule:nonzero;fill:#0895cd;fill-opacity:1;" d="M 8.101562 4.824219 C 8.101562 4.859375 8.101562 4.894531 8.097656 4.929688 C 8.097656 4.964844 8.09375 4.996094 8.089844 5.03125 C 8.089844 5.066406 8.082031 5.101562 8.078125 5.132812 C 8.074219 5.167969 8.066406 5.203125 8.0625 5.234375 C 8.054688 5.269531 8.046875 5.304688 8.039062 5.335938 C 8.03125 5.371094 8.019531 5.402344 8.011719 5.4375 C 8 5.46875 7.988281 5.503906 7.976562 5.535156 C 7.964844 5.566406 7.953125 5.597656 7.941406 5.632812 C 7.929688 5.664062 7.914062 5.695312 7.898438 5.726562 C 7.882812 5.757812 7.867188 5.789062 7.851562 5.820312 C 7.835938 5.847656 7.820312 5.878906 7.800781 5.910156 C 7.785156 5.9375 7.765625 5.96875 7.746094 5.996094 C 7.726562 6.023438 7.707031 6.050781 7.6875 6.082031 C 7.667969 6.109375 7.644531 6.136719 7.625 6.160156 C 7.601562 6.1875 7.578125 6.214844 7.554688 6.238281 C 7.53125 6.265625 7.507812 6.289062 7.484375 6.316406 C 7.460938 6.339844 7.433594 6.363281 7.410156 6.386719 C 7.382812 6.410156 7.359375 6.433594 7.332031 6.453125 C 7.304688 6.476562 7.277344 6.496094 7.25 6.515625 C 7.222656 6.539062 7.195312 6.558594 7.164062 6.578125 C 7.136719 6.597656 7.105469 6.613281 7.078125 6.632812 C 7.046875 6.648438 7.019531 6.667969 6.988281 6.683594 C 6.957031 6.699219 6.925781 6.714844 6.894531 6.730469 C 6.863281 6.746094 6.832031 6.757812 6.800781 6.773438 C 6.769531 6.785156 6.738281 6.796875 6.703125 6.808594 C 6.671875 6.820312 6.640625 6.832031 6.605469 6.839844 C 6.574219 6.851562 6.539062 6.859375 6.507812 6.867188 C 6.472656 6.878906 6.4375 6.886719 6.40625 6.890625 C 6.371094 6.898438 6.335938 6.90625 6.304688 6.910156 C 6.269531 6.914062 6.234375 6.917969 6.199219 6.921875 C 6.167969 6.925781 6.132812 6.929688 6.097656 6.929688 C 6.0625 6.929688 6.027344 6.933594 5.996094 6.933594 C 5.960938 6.933594 5.925781 6.929688 5.890625 6.929688 C 5.855469 6.929688 5.824219 6.925781 5.789062 6.921875 C 5.753906 6.917969 5.71875 6.914062 5.683594 6.910156 C 5.652344 6.90625 5.617188 6.898438 5.582031 6.890625 C 5.550781 6.886719 5.515625 6.878906 5.484375 6.867188 C 5.449219 6.859375 5.414062 6.851562 5.382812 6.839844 C 5.351562 6.832031 5.316406 6.820312 5.285156 6.808594 C 5.253906 6.796875 5.21875 6.785156 5.1875 6.773438 C 5.15625 6.757812 5.125 6.746094 5.09375 6.730469 C 5.0625 6.714844 5.03125 6.699219 5 6.683594 C 4.972656 6.667969 4.941406 6.648438 4.910156 6.632812 C 4.882812 6.613281 4.851562 6.597656 4.824219 6.578125 C 4.796875 6.558594 4.765625 6.539062 4.738281 6.515625 C 4.710938 6.496094 4.683594 6.476562 4.65625 6.453125 C 4.632812 6.433594 4.605469 6.410156 4.578125 6.386719 C 4.554688 6.363281 4.527344 6.339844 4.503906 6.316406 C 4.480469 6.289062 4.457031 6.265625 4.433594 6.238281 C 4.410156 6.214844 4.386719 6.1875 4.367188 6.160156 C 4.34375 6.136719 4.324219 6.109375 4.300781 6.082031 C 4.28125 6.050781 4.261719 6.023438 4.242188 5.996094 C 4.222656 5.96875 4.203125 5.9375 4.1875 5.910156 C 4.167969 5.878906 4.152344 5.847656 4.136719 5.820312 C 4.121094 5.789062 4.105469 5.757812 4.089844 5.726562 C 4.074219 5.695312 4.0625 5.664062 4.046875 5.632812 C 4.035156 5.597656 4.023438 5.566406 4.011719 5.535156 C 4 5.503906 3.988281 5.46875 3.976562 5.4375 C 3.96875 5.402344 3.960938 5.371094 3.949219 5.335938 C 3.941406 5.304688 3.933594 5.269531 3.929688 5.234375 C 3.921875 5.203125 3.914062 5.167969 3.910156 5.132812 C 3.90625 5.101562 3.902344 5.066406 3.898438 5.03125 C 3.894531 4.996094 3.890625 4.964844 3.890625 4.929688 C 3.886719 4.894531 3.886719 4.859375 3.886719 4.824219 C 3.886719 4.789062 3.886719 4.757812 3.890625 4.722656 C 3.890625 4.6875 3.894531 4.652344 3.898438 4.617188 C 3.902344 4.585938 3.90625 4.550781 3.910156 4.515625 C 3.914062 4.480469 3.921875 4.449219 3.929688 4.414062 C 3.933594 4.378906 3.941406 4.347656 3.949219 4.3125 C 3.960938 4.28125 3.96875 4.246094 3.976562 4.214844 C 3.988281 4.179688 4 4.148438 4.011719 4.117188 C 4.023438 4.082031 4.035156 4.050781 4.046875 4.019531 C 4.0625 3.988281 4.074219 3.957031 4.089844 3.925781 C 4.105469 3.894531 4.121094 3.863281 4.136719 3.832031 C 4.152344 3.800781 4.167969 3.769531 4.1875 3.742188 C 4.203125 3.710938 4.222656 3.683594 4.242188 3.65625 C 4.261719 3.625 4.28125 3.597656 4.300781 3.570312 C 4.324219 3.542969 4.34375 3.515625 4.367188 3.488281 C 4.386719 3.460938 4.410156 3.4375 4.433594 3.410156 C 4.457031 3.382812 4.480469 3.359375 4.503906 3.335938 C 4.527344 3.3125 4.554688 3.285156 4.578125 3.265625 C 4.605469 3.242188 4.632812 3.21875 4.65625 3.195312 C 4.683594 3.175781 4.710938 3.152344 4.738281 3.132812 C 4.765625 3.113281 4.796875 3.09375 4.824219 3.074219 C 4.851562 3.054688 4.882812 3.035156 4.910156 3.019531 C 4.941406 3 4.972656 2.984375 5 2.964844 C 5.03125 2.949219 5.0625 2.933594 5.09375 2.921875 C 5.125 2.90625 5.15625 2.890625 5.1875 2.878906 C 5.21875 2.863281 5.253906 2.851562 5.285156 2.839844 C 5.316406 2.828125 5.351562 2.820312 5.382812 2.808594 C 5.414062 2.796875 5.449219 2.789062 5.484375 2.78125 C 5.515625 2.773438 5.550781 2.765625 5.582031 2.757812 C 5.617188 2.75 5.652344 2.746094 5.683594 2.742188 C 5.71875 2.734375 5.753906 2.730469 5.789062 2.726562 C 5.824219 2.726562 5.855469 2.722656 5.890625 2.71875 C 5.925781 2.71875 5.960938 2.71875 5.996094 2.71875 C 6.027344 2.71875 6.0625 2.71875 6.097656 2.71875 C 6.132812 2.722656 6.167969 2.726562 6.199219 2.726562 C 6.234375 2.730469 6.269531 2.734375 6.304688 2.742188 C 6.335938 2.746094 6.371094 2.75 6.40625 2.757812 C 6.4375 2.765625 6.472656 2.773438 6.507812 2.78125 C 6.539062 2.789062 6.574219 2.796875 6.605469 2.808594 C 6.640625 2.820312 6.671875 2.828125 6.703125 2.839844 C 6.738281 2.851562 6.769531 2.863281 6.800781 2.878906 C 6.832031 2.890625 6.863281 2.90625 6.894531 2.921875 C 6.925781 2.933594 6.957031 2.949219 6.988281 2.964844 C 7.019531 2.984375 7.046875 3 7.078125 3.019531 C 7.105469 3.035156 7.136719 3.054688 7.164062 3.074219 C 7.195312 3.09375 7.222656 3.113281 7.25 3.132812 C 7.277344 3.152344 7.304688 3.175781 7.332031 3.195312 C 7.359375 3.21875 7.382812 3.242188 7.410156 3.265625 C 7.433594 3.285156 7.460938 3.3125 7.484375 3.335938 C 7.507812 3.359375 7.53125 3.382812 7.554688 3.410156 C 7.578125 3.4375 7.601562 3.460938 7.625 3.488281 C 7.644531 3.515625 7.667969 3.542969 7.6875 3.570312 C 7.707031 3.597656 7.726562 3.625 7.746094 3.65625 C 7.765625 3.683594 7.785156 3.710938 7.800781 3.742188 C 7.820312 3.769531 7.835938 3.800781 7.851562 3.832031 C 7.867188 3.863281 7.882812 3.894531 7.898438 3.925781 C 7.914062 3.957031 7.929688 3.988281 7.941406 4.019531 C 7.953125 4.050781 7.964844 4.082031 7.976562 4.117188 C 7.988281 4.148438 8 4.179688 8.011719 4.214844 C 8.019531 4.246094 8.03125 4.28125 8.039062 4.3125 C 8.046875 4.347656 8.054688 4.378906 8.0625 4.414062 C 8.066406 4.449219 8.074219 4.480469 8.078125 4.515625 C 8.082031 4.550781 8.089844 4.585938 8.089844 4.617188 C 8.09375 4.652344 8.097656 4.6875 8.097656 4.722656 C 8.101562 4.757812 8.101562 4.789062 8.101562 4.824219 Z M 8.101562 4.824219 "/>
</g>
</svg>
