<?xml version="1.0" encoding="UTF-8"?>
<svg xmlns="http://www.w3.org/2000/svg" xmlns:xlink="http://www.w3.org/1999/xlink" width="375pt" height="374.999991pt" viewBox="0 0 375 374.999991" version="1.2">
<defs>
<clipPath id="clip1">
  <path d="M 81.8125 121 L 294.601562 121 L 294.601562 375 L 81.8125 375 Z M 81.8125 121 "/>
</clipPath>
<clipPath id="clip2">
  <path d="M 81.8125 1.738281 L 294.601562 1.738281 L 294.601562 256 L 81.8125 256 Z M 81.8125 1.738281 "/>
</clipPath>
</defs>
<g id="surface1">
<g clip-path="url(#clip1)" clip-rule="nonzero">
<path style=" stroke:none;fill-rule:nonzero;fill:#f5f5f5;fill-opacity:1;" d="M 188.207031 322.046875 L 294.601562 322.046875 L 294.601562 121.894531 L 241.40625 161.925781 L 241.40625 268.671875 L 188.207031 268.671875 L 188.207031 215.300781 L 81.8125 295.359375 L 188.207031 375.417969 Z M 188.207031 322.046875 "/>
</g>
<g clip-path="url(#clip2)" clip-rule="nonzero">
<path style=" stroke:none;fill-rule:nonzero;fill:#f5f5f5;fill-opacity:1;" d="M 135.011719 108.554688 L 188.207031 108.554688 L 188.207031 161.925781 L 294.601562 81.867188 L 188.207031 1.808594 L 188.207031 55.179688 L 81.8125 55.179688 L 81.8125 255.328125 L 135.011719 215.300781 Z M 135.011719 108.554688 "/>
</g>
</g>
</svg>
