<?xml version="1.0" encoding="UTF-8"?>
<svg xmlns="http://www.w3.org/2000/svg" xmlns:xlink="http://www.w3.org/1999/xlink" width="375pt" height="374.999991pt" viewBox="0 0 375 374.999991" version="1.2">
<defs>
<clipPath id="clip1">
  <path d="M 0 17 L 374 17 L 374 359.109375 L 0 359.109375 Z M 0 17 "/>
</clipPath>
</defs>
<g id="surface1">
<g clip-path="url(#clip1)" clip-rule="nonzero">
<path style=" stroke:none;fill-rule:nonzero;fill:#000000;fill-opacity:1;" d="M 373.289062 351.339844 C 373.289062 355.632812 369.8125 359.109375 365.515625 359.109375 L 7.929688 359.109375 C 3.632812 359.109375 0.15625 355.632812 0.15625 351.339844 L 0.15625 25.027344 C 0.15625 20.730469 3.632812 17.257812 7.929688 17.257812 C 12.226562 17.257812 15.703125 20.730469 15.703125 25.027344 L 15.703125 343.570312 L 365.515625 343.570312 C 369.8125 343.570312 373.289062 347.046875 373.289062 351.339844 Z M 70.117188 312.492188 C 82.976562 312.492188 93.4375 302.039062 93.4375 289.183594 L 93.4375 195.953125 C 93.4375 183.101562 82.976562 172.644531 70.117188 172.644531 C 57.257812 172.644531 46.796875 183.101562 46.796875 195.953125 L 46.796875 289.183594 C 46.796875 302.039062 57.257812 312.492188 70.117188 312.492188 Z M 124.535156 133.796875 L 124.535156 289.183594 C 124.535156 302.039062 134.996094 312.492188 147.855469 312.492188 C 160.714844 312.492188 171.175781 302.039062 171.175781 289.183594 L 171.175781 133.796875 C 171.175781 120.945312 160.714844 110.488281 147.855469 110.488281 C 134.996094 110.488281 124.535156 120.945312 124.535156 133.796875 Z M 202.269531 195.953125 L 202.269531 289.183594 C 202.269531 302.039062 212.730469 312.492188 225.589844 312.492188 C 238.449219 312.492188 248.910156 302.039062 248.910156 289.183594 L 248.910156 195.953125 C 248.910156 183.101562 238.449219 172.644531 225.589844 172.644531 C 212.730469 172.644531 202.269531 183.101562 202.269531 195.953125 Z M 280.007812 133.796875 L 280.007812 289.183594 C 280.007812 302.039062 290.46875 312.492188 303.328125 312.492188 C 316.1875 312.492188 326.648438 302.039062 326.648438 289.183594 L 326.648438 133.796875 C 326.648438 120.945312 316.1875 110.488281 303.328125 110.488281 C 290.46875 110.488281 280.007812 120.945312 280.007812 133.796875 Z M 75.613281 123.753906 L 143.511719 55.890625 C 146.335938 53.078125 150.785156 52.847656 153.867188 55.324219 L 213.351562 102.878906 C 220.1875 108.359375 229.386719 109.546875 237.386719 105.984375 L 348.871094 56.464844 L 343.015625 68.167969 C 341.101562 72.007812 342.648438 76.671875 346.492188 78.59375 C 350.425781 80.53125 355.027344 78.890625 356.921875 75.117188 L 372.46875 44.039062 C 374.164062 40.652344 372.816406 35.527344 368.992188 33.613281 L 337.898438 18.078125 C 334.070312 16.1875 329.394531 17.703125 327.46875 21.550781 C 325.554688 25.390625 327.101562 30.058594 330.945312 31.976562 L 347.304688 40.152344 L 231.070312 91.785156 C 228.398438 92.960938 225.316406 92.566406 223.070312 90.746094 L 163.582031 43.183594 C 154.277344 35.761719 140.914062 36.492188 132.519531 44.90625 L 64.621094 112.765625 C 61.585938 115.800781 61.585938 120.71875 64.621094 123.753906 C 67.660156 126.785156 72.578125 126.785156 75.613281 123.753906 Z M 75.613281 123.753906 "/>
</g>
</g>
</svg>
