<?xml version="1.0" encoding="UTF-8"?>
<svg xmlns="http://www.w3.org/2000/svg" xmlns:xlink="http://www.w3.org/1999/xlink" width="12pt" height="12pt" viewBox="0 0 12 12" version="1.1">
<defs>
<clipPath id="clip1">
  <path d="M 5.597656 0.222656 L 10.523438 0.222656 L 10.523438 10.90625 L 5.597656 10.90625 Z M 5.597656 0.222656 "/>
</clipPath>
<clipPath id="clip2">
  <path d="M -0.699219 2.605469 L 9.582031 -0.507812 L 12.699219 9.773438 L 2.414062 12.890625 Z M -0.699219 2.605469 "/>
</clipPath>
<clipPath id="clip3">
  <path d="M -0.699219 2.605469 L 9.582031 -0.507812 L 12.699219 9.773438 L 2.414062 12.890625 Z M -0.699219 2.605469 "/>
</clipPath>
<clipPath id="clip4">
  <path d="M -0.699219 2.605469 L 9.585938 -0.511719 L 12.703125 9.777344 L 2.414062 12.894531 Z M -0.699219 2.605469 "/>
</clipPath>
<clipPath id="clip5">
  <path d="M 1.472656 1.472656 L 6.429688 1.472656 L 6.429688 11.992188 L 1.472656 11.992188 Z M 1.472656 1.472656 "/>
</clipPath>
<clipPath id="clip6">
  <path d="M -0.699219 2.605469 L 9.582031 -0.507812 L 12.699219 9.773438 L 2.414062 12.890625 Z M -0.699219 2.605469 "/>
</clipPath>
<clipPath id="clip7">
  <path d="M -0.699219 2.605469 L 9.582031 -0.507812 L 12.699219 9.773438 L 2.414062 12.890625 Z M -0.699219 2.605469 "/>
</clipPath>
<clipPath id="clip8">
  <path d="M -0.699219 2.605469 L 9.585938 -0.511719 L 12.703125 9.777344 L 2.414062 12.894531 Z M -0.699219 2.605469 "/>
</clipPath>
<clipPath id="clip9">
  <path d="M 1.28125 5.789062 L 11.960938 5.789062 L 11.960938 10.714844 L 1.28125 10.714844 Z M 1.28125 5.789062 "/>
</clipPath>
<clipPath id="clip10">
  <path d="M -0.699219 2.605469 L 9.582031 -0.507812 L 12.699219 9.773438 L 2.414062 12.890625 Z M -0.699219 2.605469 "/>
</clipPath>
<clipPath id="clip11">
  <path d="M -0.699219 2.605469 L 9.582031 -0.507812 L 12.699219 9.773438 L 2.414062 12.890625 Z M -0.699219 2.605469 "/>
</clipPath>
<clipPath id="clip12">
  <path d="M -0.699219 2.605469 L 9.585938 -0.511719 L 12.703125 9.777344 L 2.414062 12.894531 Z M -0.699219 2.605469 "/>
</clipPath>
<clipPath id="clip13">
  <path d="M 0.03125 1.664062 L 10.714844 1.664062 L 10.714844 6.621094 L 0.03125 6.621094 Z M 0.03125 1.664062 "/>
</clipPath>
<clipPath id="clip14">
  <path d="M -0.699219 2.605469 L 9.582031 -0.507812 L 12.699219 9.773438 L 2.414062 12.890625 Z M -0.699219 2.605469 "/>
</clipPath>
<clipPath id="clip15">
  <path d="M -0.699219 2.605469 L 9.582031 -0.507812 L 12.699219 9.773438 L 2.414062 12.890625 Z M -0.699219 2.605469 "/>
</clipPath>
<clipPath id="clip16">
  <path d="M -0.699219 2.605469 L 9.585938 -0.511719 L 12.703125 9.777344 L 2.414062 12.894531 Z M -0.699219 2.605469 "/>
</clipPath>
</defs>
<g id="surface1">
<g clip-path="url(#clip1)" clip-rule="nonzero">
<g clip-path="url(#clip2)" clip-rule="nonzero">
<g clip-path="url(#clip3)" clip-rule="nonzero">
<g clip-path="url(#clip4)" clip-rule="nonzero">
<path style=" stroke:none;fill-rule:nonzero;fill:#f5f5f5;fill-opacity:1;" d="M 8.433594 10.511719 L 5.628906 1.25 C 5.535156 0.941406 5.675781 0.675781 5.984375 0.582031 L 7.015625 0.269531 C 7.324219 0.175781 7.59375 0.320312 7.683594 0.628906 L 10.492188 9.886719 C 10.582031 10.195312 10.441406 10.464844 10.132812 10.558594 L 9.101562 10.867188 C 8.792969 10.960938 8.527344 10.820312 8.433594 10.511719 Z M 8.433594 10.511719 "/>
</g>
</g>
</g>
</g>
<g clip-path="url(#clip5)" clip-rule="nonzero">
<g clip-path="url(#clip6)" clip-rule="nonzero">
<g clip-path="url(#clip7)" clip-rule="nonzero">
<g clip-path="url(#clip8)" clip-rule="nonzero">
<path style=" stroke:none;fill-rule:nonzero;fill:#f5f5f5;fill-opacity:1;" d="M 4.316406 11.757812 L 1.511719 2.496094 C 1.417969 2.1875 1.5625 1.921875 1.871094 1.828125 L 2.898438 1.515625 C 3.207031 1.421875 3.476562 1.566406 3.570312 1.875 L 6.375 11.132812 C 6.46875 11.441406 6.324219 11.710938 6.015625 11.804688 L 4.988281 12.117188 C 4.679688 12.207031 4.410156 12.066406 4.316406 11.757812 Z M 4.316406 11.757812 "/>
</g>
</g>
</g>
</g>
<g clip-path="url(#clip9)" clip-rule="nonzero">
<g clip-path="url(#clip10)" clip-rule="nonzero">
<g clip-path="url(#clip11)" clip-rule="nonzero">
<g clip-path="url(#clip12)" clip-rule="nonzero">
<path style=" stroke:none;fill-rule:nonzero;fill:#f5f5f5;fill-opacity:1;" d="M 1.683594 8.625 L 10.941406 5.816406 C 11.25 5.726562 11.519531 5.867188 11.613281 6.175781 L 11.925781 7.207031 C 12.019531 7.515625 11.875 7.78125 11.566406 7.875 L 2.308594 10.679688 C 2 10.773438 1.730469 10.632812 1.636719 10.324219 L 1.324219 9.292969 C 1.230469 8.984375 1.375 8.71875 1.683594 8.625 Z M 1.683594 8.625 "/>
</g>
</g>
</g>
</g>
<g clip-path="url(#clip13)" clip-rule="nonzero">
<g clip-path="url(#clip14)" clip-rule="nonzero">
<g clip-path="url(#clip15)" clip-rule="nonzero">
<g clip-path="url(#clip16)" clip-rule="nonzero">
<path style=" stroke:none;fill-rule:nonzero;fill:#f5f5f5;fill-opacity:1;" d="M 0.4375 4.507812 L 9.695312 1.703125 C 10.003906 1.609375 10.273438 1.753906 10.367188 2.0625 L 10.679688 3.089844 C 10.773438 3.398438 10.628906 3.667969 10.320312 3.761719 L 1.058594 6.566406 C 0.75 6.660156 0.484375 6.515625 0.390625 6.207031 L 0.078125 5.179688 C -0.015625 4.871094 0.128906 4.601562 0.4375 4.507812 Z M 0.4375 4.507812 "/>
</g>
</g>
</g>
</g>
</g>
</svg>
