<?xml version="1.0" encoding="UTF-8"?>
<svg xmlns="http://www.w3.org/2000/svg" xmlns:xlink="http://www.w3.org/1999/xlink" width="375pt" height="374.999991pt" viewBox="0 0 375 374.999991" version="1.2">
<defs>
<clipPath id="clip1">
  <path d="M 113.125 70.601562 L 261.625 70.601562 L 261.625 248 L 113.125 248 Z M 113.125 70.601562 "/>
</clipPath>
<clipPath id="clip2">
  <path d="M 155 262 L 198 262 L 198 304.601562 L 155 304.601562 Z M 155 262 "/>
</clipPath>
</defs>
<g id="surface1">
<path style=" stroke:none;fill-rule:nonzero;fill:#0895cd;fill-opacity:1;" d="M 187.5 0 C 84.105469 0 0 84.105469 0 187.5 C 0 290.894531 84.105469 375 187.5 375 C 290.894531 375 375 290.894531 375 187.5 C 375 84.105469 290.894531 0 187.5 0 Z M 187.5 31.25 C 273.988281 31.25 343.75 101.011719 343.75 187.5 C 343.75 273.988281 273.988281 343.75 187.5 343.75 C 101.011719 343.75 31.25 273.988281 31.25 187.5 C 31.25 101.011719 101.011719 31.25 187.5 31.25 Z M 187.5 31.25 "/>
<g clip-path="url(#clip1)" clip-rule="nonzero">
<path style=" stroke:none;fill-rule:nonzero;fill:#0895cd;fill-opacity:1;" d="M 176.765625 247.863281 C 165.050781 247.863281 155.550781 238.34375 155.550781 226.59375 L 155.550781 198.238281 C 155.550781 186.488281 165.050781 176.96875 176.765625 176.96875 C 181.03125 176.925781 219.195312 169.878906 219.195312 141.519531 C 219.195312 127.339844 205.050781 113.164062 183.839844 113.164062 C 166.578125 113.164062 155.550781 127.339844 155.550781 134.429688 C 155.550781 146.179688 146.054688 155.699219 134.339844 155.699219 C 122.621094 155.699219 113.125 146.179688 113.125 134.429688 C 113.125 99.847656 145.511719 70.625 183.839844 70.625 C 240.410156 70.625 261.625 113.035156 261.625 148.609375 C 261.625 177.996094 245.523438 200.457031 216.273438 211.847656 C 209.910156 214.335938 203.617188 216.011719 197.980469 217.144531 L 197.980469 226.59375 C 197.980469 238.34375 188.484375 247.863281 176.765625 247.863281 Z M 176.765625 247.863281 "/>
</g>
<g clip-path="url(#clip2)" clip-rule="nonzero">
<path style=" stroke:none;fill-rule:nonzero;fill:#0895cd;fill-opacity:1;" d="M 197.980469 283.3125 C 197.980469 284.007812 197.945312 284.703125 197.878906 285.394531 C 197.8125 286.089844 197.710938 286.777344 197.574219 287.460938 C 197.4375 288.144531 197.269531 288.820312 197.066406 289.484375 C 196.867188 290.152344 196.632812 290.808594 196.367188 291.449219 C 196.101562 292.09375 195.804688 292.722656 195.476562 293.335938 C 195.148438 293.953125 194.792969 294.546875 194.40625 295.128906 C 194.019531 295.707031 193.605469 296.265625 193.164062 296.804688 C 192.726562 297.34375 192.257812 297.859375 191.769531 298.351562 C 191.277344 298.84375 190.761719 299.308594 190.226562 299.753906 C 189.6875 300.195312 189.128906 300.609375 188.554688 300.996094 C 187.976562 301.382812 187.378906 301.742188 186.765625 302.070312 C 186.15625 302.398438 185.527344 302.695312 184.886719 302.960938 C 184.242188 303.226562 183.589844 303.460938 182.925781 303.664062 C 182.261719 303.867188 181.585938 304.035156 180.90625 304.171875 C 180.222656 304.308594 179.539062 304.410156 178.847656 304.476562 C 178.15625 304.546875 177.460938 304.582031 176.765625 304.582031 C 176.070312 304.582031 175.378906 304.546875 174.6875 304.476562 C 173.996094 304.410156 173.308594 304.308594 172.628906 304.171875 C 171.945312 304.035156 171.273438 303.867188 170.609375 303.664062 C 169.945312 303.460938 169.289062 303.226562 168.648438 302.960938 C 168.007812 302.695312 167.378906 302.398438 166.765625 302.070312 C 166.152344 301.742188 165.558594 301.382812 164.980469 300.996094 C 164.402344 300.609375 163.847656 300.195312 163.308594 299.753906 C 162.773438 299.308594 162.257812 298.84375 161.765625 298.351562 C 161.273438 297.859375 160.808594 297.34375 160.367188 296.804688 C 159.925781 296.265625 159.515625 295.707031 159.128906 295.128906 C 158.742188 294.546875 158.386719 293.953125 158.058594 293.335938 C 157.730469 292.722656 157.433594 292.09375 157.167969 291.449219 C 156.902344 290.808594 156.667969 290.152344 156.464844 289.484375 C 156.265625 288.820312 156.097656 288.144531 155.960938 287.460938 C 155.824219 286.777344 155.722656 286.089844 155.65625 285.394531 C 155.585938 284.703125 155.550781 284.007812 155.550781 283.3125 C 155.550781 282.613281 155.585938 281.921875 155.65625 281.226562 C 155.722656 280.535156 155.824219 279.84375 155.960938 279.164062 C 156.097656 278.480469 156.265625 277.804688 156.464844 277.136719 C 156.667969 276.472656 156.902344 275.816406 157.167969 275.171875 C 157.433594 274.527344 157.730469 273.898438 158.058594 273.285156 C 158.386719 272.671875 158.742188 272.074219 159.128906 271.496094 C 159.515625 270.917969 159.925781 270.355469 160.367188 269.820312 C 160.808594 269.28125 161.273438 268.765625 161.765625 268.273438 C 162.257812 267.78125 162.773438 267.3125 163.308594 266.871094 C 163.847656 266.429688 164.402344 266.015625 164.980469 265.628906 C 165.558594 265.242188 166.152344 264.882812 166.765625 264.554688 C 167.378906 264.226562 168.007812 263.929688 168.648438 263.660156 C 169.289062 263.394531 169.945312 263.160156 170.609375 262.957031 C 171.273438 262.757812 171.945312 262.585938 172.628906 262.453125 C 173.308594 262.316406 173.996094 262.214844 174.6875 262.144531 C 175.378906 262.078125 176.070312 262.042969 176.765625 262.042969 C 177.460938 262.042969 178.15625 262.078125 178.847656 262.144531 C 179.539062 262.214844 180.222656 262.316406 180.90625 262.453125 C 181.585938 262.585938 182.261719 262.757812 182.925781 262.957031 C 183.589844 263.160156 184.242188 263.394531 184.886719 263.660156 C 185.527344 263.929688 186.15625 264.226562 186.765625 264.554688 C 187.378906 264.882812 187.976562 265.242188 188.554688 265.628906 C 189.128906 266.015625 189.6875 266.429688 190.226562 266.871094 C 190.761719 267.3125 191.277344 267.78125 191.769531 268.273438 C 192.257812 268.765625 192.726562 269.28125 193.164062 269.820312 C 193.605469 270.355469 194.019531 270.917969 194.40625 271.496094 C 194.792969 272.074219 195.148438 272.671875 195.476562 273.285156 C 195.804688 273.898438 196.101562 274.527344 196.367188 275.171875 C 196.632812 275.816406 196.867188 276.472656 197.066406 277.136719 C 197.269531 277.804688 197.4375 278.480469 197.574219 279.164062 C 197.710938 279.84375 197.8125 280.535156 197.878906 281.226562 C 197.945312 281.921875 197.980469 282.613281 197.980469 283.3125 Z M 197.980469 283.3125 "/>
</g>
</g>
</svg>
