<?xml version="1.0" encoding="UTF-8"?>
<svg xmlns="http://www.w3.org/2000/svg" xmlns:xlink="http://www.w3.org/1999/xlink" width="375pt" height="374.999991pt" viewBox="0 0 375 374.999991" version="1.2">
<defs>
<clipPath id="clip1">
  <path d="M 76 78 L 298.699219 78 L 298.699219 300.507812 L 76 300.507812 Z M 76 78 "/>
</clipPath>
</defs>
<g id="surface1">
<path style="fill:none;stroke-width:1;stroke-linecap:round;stroke-linejoin:miter;stroke:#0895cd;stroke-opacity:1;stroke-miterlimit:4;" d="M 0.499959 0.00000117675 L 17.263797 0.00000117675 " transform="matrix(18.735687,0,0,18.749999,33.261832,335.999978)"/>
<path style="fill:none;stroke-width:1;stroke-linecap:round;stroke-linejoin:round;stroke:#0895cd;stroke-opacity:1;stroke-miterlimit:4;" d="M -2.499933 -1.499999 L -0.500073 0.00000117675 L -2.499933 1.500001 " transform="matrix(18.735687,0,0,18.749999,370.76374,335.999978)"/>
<path style="fill:none;stroke-width:1;stroke-linecap:round;stroke-linejoin:miter;stroke:#0895cd;stroke-opacity:1;stroke-miterlimit:4;" d="M 0.500076 -0.0000217205 L 17.107229 -0.0000217205 " transform="matrix(0.000000000000001147,-18.73228,18.749999,0.000000000000001148,39.746501,337.496462)"/>
<path style="fill:none;stroke-width:1;stroke-linecap:round;stroke-linejoin:round;stroke:#0895cd;stroke-opacity:1;stroke-miterlimit:4;" d="M -2.500005 -1.500022 L -0.49999 -0.0000217205 L -2.500005 1.499978 " transform="matrix(0.000000000000001147,-18.73228,18.749999,0.000000000000001148,39.746501,2.989511)"/>
<path style=" stroke:none;fill-rule:nonzero;fill:#0895cd;fill-opacity:1;" d="M 39.75 321.433594 C 38.792969 321.433594 37.847656 321.527344 36.910156 321.714844 C 35.96875 321.902344 35.058594 322.175781 34.175781 322.542969 C 33.292969 322.910156 32.453125 323.359375 31.65625 323.890625 C 30.863281 324.421875 30.125 325.023438 29.449219 325.699219 C 28.773438 326.375 28.171875 327.113281 27.640625 327.90625 C 27.109375 328.703125 26.660156 329.542969 26.292969 330.425781 C 25.925781 331.308594 25.652344 332.21875 25.464844 333.160156 C 25.277344 334.097656 25.183594 335.042969 25.183594 336 C 25.183594 336.957031 25.277344 337.902344 25.464844 338.839844 C 25.652344 339.78125 25.925781 340.691406 26.292969 341.574219 C 26.660156 342.457031 27.109375 343.296875 27.640625 344.09375 C 28.171875 344.886719 28.773438 345.625 29.449219 346.300781 C 30.125 346.976562 30.863281 347.578125 31.65625 348.109375 C 32.453125 348.640625 33.292969 349.089844 34.175781 349.457031 C 35.058594 349.824219 35.96875 350.097656 36.910156 350.285156 C 37.847656 350.472656 38.792969 350.566406 39.75 350.566406 C 40.707031 350.566406 41.652344 350.472656 42.589844 350.285156 C 43.53125 350.097656 44.441406 349.824219 45.324219 349.457031 C 46.207031 349.089844 47.046875 348.640625 47.84375 348.109375 C 48.636719 347.578125 49.375 346.976562 50.050781 346.300781 C 50.726562 345.625 51.328125 344.886719 51.859375 344.09375 C 52.390625 343.296875 52.839844 342.457031 53.207031 341.574219 C 53.574219 340.691406 53.847656 339.78125 54.035156 338.839844 C 54.222656 337.902344 54.316406 336.957031 54.316406 336 C 54.316406 335.042969 54.222656 334.097656 54.035156 333.160156 C 53.847656 332.21875 53.574219 331.308594 53.207031 330.425781 C 52.839844 329.542969 52.390625 328.703125 51.859375 327.90625 C 51.328125 327.113281 50.726562 326.375 50.050781 325.699219 C 49.375 325.023438 48.636719 324.421875 47.84375 323.890625 C 47.046875 323.359375 46.207031 322.910156 45.324219 322.542969 C 44.441406 322.175781 43.53125 321.902344 42.589844 321.714844 C 41.652344 321.527344 40.707031 321.433594 39.75 321.433594 Z M 39.75 321.433594 "/>
<g clip-path="url(#clip1)" clip-rule="nonzero">
<path style=" stroke:none;fill-rule:nonzero;fill:#0895cd;fill-opacity:1;" d="M 296.484375 78.460938 C 294.957031 77.757812 293.199219 78.109375 292.027344 79.28125 L 77.472656 293.835938 C 76.300781 295.007812 75.949219 296.769531 76.535156 298.292969 C 77.121094 299.816406 78.644531 300.871094 80.402344 300.871094 L 294.957031 300.871094 C 297.1875 300.871094 299.0625 298.996094 299.0625 296.769531 L 299.0625 82.210938 C 299.0625 80.570312 298.007812 79.046875 296.484375 78.460938 Z M 290.855469 292.664062 L 274.324219 292.664062 L 274.324219 280.472656 C 274.324219 278.242188 272.449219 276.367188 270.21875 276.367188 C 267.992188 276.367188 266.117188 278.242188 266.117188 280.472656 L 266.117188 292.664062 L 249.585938 292.664062 L 249.585938 272.265625 C 249.585938 270.035156 247.710938 268.160156 245.480469 268.160156 C 243.253906 268.160156 241.378906 270.035156 241.378906 272.265625 L 241.378906 292.664062 L 224.847656 292.664062 L 224.847656 280.472656 C 224.847656 278.242188 222.972656 276.367188 220.742188 276.367188 C 218.515625 276.367188 216.640625 278.242188 216.640625 280.472656 L 216.640625 292.664062 L 200.109375 292.664062 L 200.109375 272.265625 C 200.109375 270.035156 198.234375 268.160156 196.003906 268.160156 C 193.777344 268.160156 191.902344 270.035156 191.902344 272.265625 L 191.902344 292.664062 L 175.253906 292.664062 L 175.253906 280.472656 C 175.253906 278.242188 173.378906 276.367188 171.148438 276.367188 C 168.921875 276.367188 167.046875 278.242188 167.046875 280.472656 L 167.046875 292.664062 L 150.515625 292.664062 L 150.515625 272.265625 C 150.515625 270.035156 148.640625 268.160156 146.410156 268.160156 C 144.183594 268.160156 142.308594 270.035156 142.308594 272.265625 L 142.308594 292.664062 L 125.777344 292.664062 L 125.777344 280.472656 C 125.777344 278.242188 123.902344 276.367188 121.671875 276.367188 C 119.445312 276.367188 117.570312 278.242188 117.570312 280.472656 L 117.570312 292.664062 L 90.371094 292.664062 L 290.855469 92.179688 Z M 290.855469 292.664062 "/>
</g>
<path style=" stroke:none;fill-rule:nonzero;fill:#0895cd;fill-opacity:1;" d="M 175.253906 257.960938 L 253.6875 257.960938 C 255.917969 257.960938 257.792969 256.085938 257.792969 253.855469 L 257.792969 176.242188 C 257.792969 174.601562 256.738281 173.074219 255.214844 172.488281 C 253.6875 171.902344 251.929688 172.136719 250.757812 173.3125 L 172.441406 250.925781 C 171.265625 252.097656 170.914062 253.855469 171.5 255.378906 C 172.089844 256.90625 173.613281 257.960938 175.253906 257.960938 Z M 249.585938 186.089844 L 249.585938 249.753906 L 185.335938 249.753906 Z M 249.585938 186.089844 "/>
</g>
</svg>
