<?xml version="1.0" encoding="UTF-8"?>
<svg xmlns="http://www.w3.org/2000/svg" xmlns:xlink="http://www.w3.org/1999/xlink" width="375pt" height="374.999991pt" viewBox="0 0 375 374.999991" version="1.2">
<defs>
<clipPath id="clip1">
  <path d="M 40.539062 150.757812 L 115 150.757812 L 115 224.257812 L 40.539062 224.257812 Z M 40.539062 150.757812 "/>
</clipPath>
<clipPath id="clip2">
  <path d="M 150 150.757812 L 225 150.757812 L 225 224.257812 L 150 224.257812 Z M 150 150.757812 "/>
</clipPath>
<clipPath id="clip3">
  <path d="M 261 150.757812 L 334.539062 150.757812 L 334.539062 224.257812 L 261 224.257812 Z M 261 150.757812 "/>
</clipPath>
</defs>
<g id="surface1">
<g clip-path="url(#clip1)" clip-rule="nonzero">
<path style=" stroke:none;fill-rule:nonzero;fill:#0895cd;fill-opacity:1;" d="M 114.0625 187.519531 C 114.0625 188.726562 114 189.925781 113.882812 191.125 C 113.765625 192.324219 113.589844 193.511719 113.355469 194.691406 C 113.121094 195.875 112.828125 197.039062 112.476562 198.191406 C 112.128906 199.34375 111.722656 200.476562 111.261719 201.589844 C 110.800781 202.703125 110.289062 203.789062 109.71875 204.851562 C 109.152344 205.914062 108.535156 206.945312 107.867188 207.945312 C 107.195312 208.945312 106.480469 209.910156 105.714844 210.84375 C 104.953125 211.773438 104.144531 212.664062 103.292969 213.515625 C 102.441406 214.367188 101.550781 215.175781 100.621094 215.9375 C 99.691406 216.703125 98.726562 217.417969 97.722656 218.085938 C 96.722656 218.757812 95.691406 219.375 94.628906 219.941406 C 93.566406 220.507812 92.480469 221.023438 91.367188 221.484375 C 90.257812 221.945312 89.125 222.351562 87.972656 222.699219 C 86.820312 223.050781 85.652344 223.339844 84.472656 223.578125 C 83.292969 223.8125 82.101562 223.988281 80.90625 224.105469 C 79.707031 224.222656 78.503906 224.28125 77.300781 224.28125 C 76.097656 224.28125 74.898438 224.222656 73.699219 224.105469 C 72.5 223.988281 71.3125 223.8125 70.128906 223.578125 C 68.949219 223.339844 67.785156 223.050781 66.632812 222.699219 C 65.480469 222.351562 64.347656 221.945312 63.234375 221.484375 C 62.121094 221.023438 61.035156 220.507812 59.972656 219.941406 C 58.914062 219.375 57.878906 218.757812 56.878906 218.085938 C 55.878906 217.417969 54.914062 216.703125 53.980469 215.9375 C 53.050781 215.175781 52.160156 214.367188 51.308594 213.515625 C 50.457031 212.664062 49.652344 211.773438 48.886719 210.84375 C 48.125 209.910156 47.40625 208.945312 46.738281 207.945312 C 46.070312 206.945312 45.449219 205.914062 44.882812 204.851562 C 44.316406 203.789062 43.800781 202.703125 43.339844 201.589844 C 42.878906 200.476562 42.476562 199.34375 42.125 198.191406 C 41.777344 197.039062 41.484375 195.875 41.25 194.691406 C 41.015625 193.511719 40.839844 192.324219 40.71875 191.125 C 40.601562 189.925781 40.542969 188.726562 40.542969 187.519531 C 40.542969 186.316406 40.601562 185.117188 40.71875 183.917969 C 40.839844 182.71875 41.015625 181.53125 41.25 180.347656 C 41.484375 179.167969 41.777344 178 42.125 176.851562 C 42.476562 175.699219 42.878906 174.566406 43.339844 173.453125 C 43.800781 172.339844 44.316406 171.253906 44.882812 170.191406 C 45.449219 169.128906 46.070312 168.097656 46.738281 167.097656 C 47.40625 166.097656 48.125 165.128906 48.886719 164.199219 C 49.652344 163.269531 50.457031 162.378906 51.308594 161.527344 C 52.160156 160.675781 53.050781 159.867188 53.980469 159.105469 C 54.914062 158.339844 55.878906 157.625 56.878906 156.953125 C 57.878906 156.285156 58.914062 155.667969 59.972656 155.101562 C 61.035156 154.53125 62.121094 154.019531 63.234375 153.558594 C 64.347656 153.097656 65.480469 152.691406 66.632812 152.34375 C 67.785156 151.992188 68.949219 151.699219 70.128906 151.464844 C 71.3125 151.230469 72.5 151.054688 73.699219 150.9375 C 74.898438 150.816406 76.097656 150.757812 77.300781 150.757812 C 78.503906 150.757812 79.707031 150.816406 80.90625 150.9375 C 82.101562 151.054688 83.292969 151.230469 84.472656 151.464844 C 85.652344 151.699219 86.820312 151.992188 87.972656 152.34375 C 89.125 152.691406 90.257812 153.097656 91.367188 153.558594 C 92.480469 154.019531 93.566406 154.53125 94.628906 155.101562 C 95.691406 155.667969 96.722656 156.285156 97.722656 156.953125 C 98.726562 157.625 99.691406 158.339844 100.621094 159.105469 C 101.550781 159.867188 102.441406 160.675781 103.292969 161.527344 C 104.144531 162.378906 104.953125 163.269531 105.714844 164.199219 C 106.480469 165.128906 107.195312 166.097656 107.867188 167.097656 C 108.535156 168.097656 109.152344 169.128906 109.71875 170.191406 C 110.289062 171.253906 110.800781 172.339844 111.261719 173.453125 C 111.722656 174.566406 112.128906 175.699219 112.476562 176.851562 C 112.828125 178 113.121094 179.167969 113.355469 180.347656 C 113.589844 181.53125 113.765625 182.71875 113.882812 183.917969 C 114 185.117188 114.0625 186.316406 114.0625 187.519531 Z M 114.0625 187.519531 "/>
</g>
<g clip-path="url(#clip2)" clip-rule="nonzero">
<path style=" stroke:none;fill-rule:nonzero;fill:#0895cd;fill-opacity:1;" d="M 224.335938 187.519531 C 224.335938 188.726562 224.277344 189.925781 224.160156 191.125 C 224.042969 192.324219 223.867188 193.511719 223.628906 194.691406 C 223.394531 195.875 223.105469 197.039062 222.753906 198.191406 C 222.40625 199.34375 222 200.476562 221.539062 201.589844 C 221.078125 202.703125 220.5625 203.789062 219.996094 204.851562 C 219.429688 205.914062 218.8125 206.945312 218.140625 207.945312 C 217.472656 208.945312 216.757812 209.910156 215.992188 210.84375 C 215.230469 211.773438 214.421875 212.664062 213.570312 213.515625 C 212.71875 214.367188 211.828125 215.175781 210.898438 215.9375 C 209.96875 216.703125 209 217.417969 208 218.085938 C 207 218.757812 205.96875 219.375 204.90625 219.941406 C 203.84375 220.507812 202.757812 221.023438 201.644531 221.484375 C 200.53125 221.945312 199.402344 222.351562 198.25 222.699219 C 197.097656 223.050781 195.929688 223.339844 194.75 223.578125 C 193.570312 223.8125 192.378906 223.988281 191.179688 224.105469 C 189.984375 224.222656 188.78125 224.28125 187.578125 224.28125 C 186.375 224.28125 185.171875 224.222656 183.976562 224.105469 C 182.777344 223.988281 181.585938 223.8125 180.40625 223.578125 C 179.226562 223.339844 178.058594 223.050781 176.90625 222.699219 C 175.753906 222.351562 174.625 221.945312 173.511719 221.484375 C 172.398438 221.023438 171.3125 220.507812 170.25 219.941406 C 169.1875 219.375 168.15625 218.757812 167.15625 218.085938 C 166.15625 217.417969 165.1875 216.703125 164.257812 215.9375 C 163.328125 215.175781 162.4375 214.367188 161.585938 213.515625 C 160.734375 212.664062 159.925781 211.773438 159.164062 210.84375 C 158.398438 209.910156 157.683594 208.945312 157.015625 207.945312 C 156.34375 206.945312 155.726562 205.914062 155.160156 204.851562 C 154.59375 203.789062 154.078125 202.703125 153.617188 201.589844 C 153.15625 200.476562 152.75 199.34375 152.402344 198.191406 C 152.054688 197.039062 151.761719 195.875 151.527344 194.691406 C 151.289062 193.511719 151.113281 192.324219 150.996094 191.125 C 150.878906 189.925781 150.820312 188.726562 150.820312 187.519531 C 150.820312 186.316406 150.878906 185.117188 150.996094 183.917969 C 151.113281 182.71875 151.289062 181.53125 151.527344 180.347656 C 151.761719 179.167969 152.054688 178 152.402344 176.851562 C 152.75 175.699219 153.15625 174.566406 153.617188 173.453125 C 154.078125 172.339844 154.59375 171.253906 155.160156 170.191406 C 155.726562 169.128906 156.34375 168.097656 157.015625 167.097656 C 157.683594 166.097656 158.398438 165.128906 159.164062 164.199219 C 159.925781 163.269531 160.734375 162.378906 161.585938 161.527344 C 162.4375 160.675781 163.328125 159.867188 164.257812 159.105469 C 165.1875 158.339844 166.15625 157.625 167.15625 156.953125 C 168.15625 156.285156 169.1875 155.667969 170.25 155.101562 C 171.3125 154.53125 172.398438 154.019531 173.511719 153.558594 C 174.625 153.097656 175.753906 152.691406 176.90625 152.34375 C 178.058594 151.992188 179.226562 151.699219 180.40625 151.464844 C 181.585938 151.230469 182.777344 151.054688 183.976562 150.9375 C 185.171875 150.816406 186.375 150.757812 187.578125 150.757812 C 188.78125 150.757812 189.984375 150.816406 191.179688 150.9375 C 192.378906 151.054688 193.570312 151.230469 194.75 151.464844 C 195.929688 151.699219 197.097656 151.992188 198.25 152.34375 C 199.402344 152.691406 200.53125 153.097656 201.644531 153.558594 C 202.757812 154.019531 203.84375 154.53125 204.90625 155.101562 C 205.96875 155.667969 207 156.285156 208 156.953125 C 209 157.625 209.96875 158.339844 210.898438 159.105469 C 211.828125 159.867188 212.71875 160.675781 213.570312 161.527344 C 214.421875 162.378906 215.230469 163.269531 215.992188 164.199219 C 216.757812 165.128906 217.472656 166.097656 218.140625 167.097656 C 218.8125 168.097656 219.429688 169.128906 219.996094 170.191406 C 220.5625 171.253906 221.078125 172.339844 221.539062 173.453125 C 222 174.566406 222.40625 175.699219 222.753906 176.851562 C 223.105469 178 223.394531 179.167969 223.628906 180.347656 C 223.867188 181.53125 224.042969 182.71875 224.160156 183.917969 C 224.277344 185.117188 224.335938 186.316406 224.335938 187.519531 Z M 224.335938 187.519531 "/>
</g>
<g clip-path="url(#clip3)" clip-rule="nonzero">
<path style=" stroke:none;fill-rule:nonzero;fill:#0895cd;fill-opacity:1;" d="M 334.613281 187.519531 C 334.613281 188.726562 334.554688 189.925781 334.4375 191.125 C 334.316406 192.324219 334.140625 193.511719 333.90625 194.691406 C 333.671875 195.875 333.378906 197.039062 333.03125 198.191406 C 332.679688 199.34375 332.277344 200.476562 331.816406 201.589844 C 331.355469 202.703125 330.839844 203.789062 330.273438 204.851562 C 329.707031 205.914062 329.085938 206.945312 328.417969 207.945312 C 327.75 208.945312 327.035156 209.910156 326.269531 210.84375 C 325.503906 211.773438 324.699219 212.664062 323.847656 213.515625 C 322.996094 214.367188 322.105469 215.175781 321.175781 215.9375 C 320.242188 216.703125 319.277344 217.417969 318.277344 218.085938 C 317.277344 218.757812 316.246094 219.375 315.183594 219.941406 C 314.121094 220.507812 313.035156 221.023438 311.921875 221.484375 C 310.808594 221.945312 309.675781 222.351562 308.523438 222.699219 C 307.371094 223.050781 306.207031 223.339844 305.027344 223.578125 C 303.84375 223.8125 302.65625 223.988281 301.457031 224.105469 C 300.257812 224.222656 299.058594 224.28125 297.855469 224.28125 C 296.652344 224.28125 295.449219 224.222656 294.25 224.105469 C 293.054688 223.988281 291.863281 223.8125 290.683594 223.578125 C 289.503906 223.339844 288.335938 223.050781 287.183594 222.699219 C 286.03125 222.351562 284.898438 221.945312 283.789062 221.484375 C 282.675781 221.023438 281.589844 220.507812 280.527344 219.941406 C 279.464844 219.375 278.433594 218.757812 277.433594 218.085938 C 276.429688 217.417969 275.464844 216.703125 274.535156 215.9375 C 273.605469 215.175781 272.714844 214.367188 271.863281 213.515625 C 271.011719 212.664062 270.203125 211.773438 269.441406 210.84375 C 268.675781 209.910156 267.960938 208.945312 267.289062 207.945312 C 266.621094 206.945312 266.003906 205.914062 265.4375 204.851562 C 264.867188 203.789062 264.355469 202.703125 263.894531 201.589844 C 263.433594 200.476562 263.027344 199.34375 262.679688 198.191406 C 262.328125 197.039062 262.035156 195.875 261.800781 194.691406 C 261.566406 193.511719 261.390625 192.324219 261.273438 191.125 C 261.15625 189.925781 261.097656 188.726562 261.097656 187.519531 C 261.097656 186.316406 261.15625 185.117188 261.273438 183.917969 C 261.390625 182.71875 261.566406 181.53125 261.800781 180.347656 C 262.035156 179.167969 262.328125 178 262.679688 176.851562 C 263.027344 175.699219 263.433594 174.566406 263.894531 173.453125 C 264.355469 172.339844 264.867188 171.253906 265.4375 170.191406 C 266.003906 169.128906 266.621094 168.097656 267.289062 167.097656 C 267.960938 166.097656 268.675781 165.128906 269.441406 164.199219 C 270.203125 163.269531 271.011719 162.378906 271.863281 161.527344 C 272.714844 160.675781 273.605469 159.867188 274.535156 159.105469 C 275.464844 158.339844 276.429688 157.625 277.433594 156.953125 C 278.433594 156.285156 279.464844 155.667969 280.527344 155.101562 C 281.589844 154.53125 282.675781 154.019531 283.789062 153.558594 C 284.898438 153.097656 286.03125 152.691406 287.183594 152.34375 C 288.335938 151.992188 289.503906 151.699219 290.683594 151.464844 C 291.863281 151.230469 293.054688 151.054688 294.25 150.9375 C 295.449219 150.816406 296.652344 150.757812 297.855469 150.757812 C 299.058594 150.757812 300.257812 150.816406 301.457031 150.9375 C 302.65625 151.054688 303.84375 151.230469 305.027344 151.464844 C 306.207031 151.699219 307.371094 151.992188 308.523438 152.34375 C 309.675781 152.691406 310.808594 153.097656 311.921875 153.558594 C 313.035156 154.019531 314.121094 154.53125 315.183594 155.101562 C 316.246094 155.667969 317.277344 156.285156 318.277344 156.953125 C 319.277344 157.625 320.242188 158.339844 321.175781 159.105469 C 322.105469 159.867188 322.996094 160.675781 323.847656 161.527344 C 324.699219 162.378906 325.503906 163.269531 326.269531 164.199219 C 327.035156 165.128906 327.75 166.097656 328.417969 167.097656 C 329.085938 168.097656 329.707031 169.128906 330.273438 170.191406 C 330.839844 171.253906 331.355469 172.339844 331.816406 173.453125 C 332.277344 174.566406 332.679688 175.699219 333.03125 176.851562 C 333.378906 178 333.671875 179.167969 333.90625 180.347656 C 334.140625 181.53125 334.316406 182.71875 334.4375 183.917969 C 334.554688 185.117188 334.613281 186.316406 334.613281 187.519531 Z M 334.613281 187.519531 "/>
</g>
</g>
</svg>
