<?xml version="1.0" encoding="UTF-8" standalone="no"?>
<svg xmlns="http://www.w3.org/2000/svg" xmlns:xlink="http://www.w3.org/1999/xlink" width="499.00507" height="499.00507" viewBox="0 0 499.00507 499.00507" version="1.2">
  <path
     style="stroke:none;fill-rule:nonzero;fill:#808080;fill-opacity:1;" d="m 379.76288,483.91462 c -0.93807,-0.10589 -4.22741,-0.75187 -7.30964,-1.43552 -35.20353,-7.80815 -61.95508,-35.74143 -68.52893,-71.5561 -1.11402,-6.06927 -1.27323,-23.29631 -0.26797,-28.99493 5.1702,-29.30868 22.38357,-52.74124 48.32441,-65.78405 11.76832,-5.91699 22.77111,-8.65699 36.62889,-9.12161 11.77714,-0.39486 21.46849,0.99832 31.79885,4.57124 29.55602,10.22245 50.88389,34.19279 58.07879,65.2746 1.19021,5.14167 1.36422,6.9987 1.55272,16.56664 0.24307,12.33761 -0.35057,17.56768 -3.06567,27.00929 -4.18602,14.5566 -11.52294,26.86137 -22.65307,37.99151 -13.51616,13.51615 -29.19683,21.69675 -47.68295,24.87618 -4.3912,0.75523 -7.55375,0.93514 -15.35025,0.87326 -5.40078,-0.0429 -10.58711,-0.16467 -11.52518,-0.27051 z m 26.56421,-16.13123 c 14.54011,-3.11171 27.47114,-10.26978 37.86352,-20.95964 9.967,-10.2523 16.33415,-22.16794 19.48626,-36.46707 1.44475,-6.55391 1.56844,-21.58046 0.23187,-28.16727 -4.61927,-22.76428 -18.66274,-41.57779 -38.66278,-51.79506 -24.09943,-12.31149 -51.99326,-10.69562 -74.72166,4.32858 -6.22631,4.11579 -15.79433,13.68242 -19.9187,19.9158 -13.25603,20.03456 -16.12402,44.19109 -7.9166,66.67995 5.62948,15.42516 17.12084,29.09579 31.79479,37.82448 7.26293,4.3203 17.11719,7.83437 26.01006,9.2753 6.07847,0.98491 19.84491,0.64648 25.83324,-0.63507 z m -43.43091,-40.52581 c -2.58477,-1.04436 -3.72118,-4.18189 -2.59545,-7.1658 0.28465,-0.75451 5.70817,-6.58213 12.05227,-12.95027 l 11.53472,-11.57845 -11.5134,-11.56876 c -6.33237,-6.36282 -11.75589,-12.04775 -12.05227,-12.63318 -2.28608,-4.51562 2.40902,-9.21072 6.92464,-6.92464 0.58543,0.29638 6.27036,5.7199 12.63318,12.05227 l 11.56876,11.5134 11.57845,-11.53472 c 6.36814,-6.3441 12.19576,-11.76762 12.95027,-12.05227 2.22164,-0.83815 4.05284,-0.60557 5.62095,0.7139 0.80491,0.6773 1.60169,1.86067 1.7706,2.62972 0.62207,2.83227 -0.84056,4.74822 -12.67967,16.60961 l -11.43404,11.45555 11.70593,11.69165 c 12.83166,12.81603 13.39464,13.61867 11.96019,17.05179 -0.50356,1.20519 -1.26317,1.9648 -2.46836,2.46836 -3.43312,1.43445 -4.23576,0.87147 -17.05179,-11.96019 l -11.69165,-11.70593 -11.45555,11.43404 c -12.58371,12.56008 -14.20898,13.72618 -17.35778,12.45392 z M 179.96593,431.39 V 394.59812 H 99.803489 19.641059 V 235.78885 76.979571 l 27.89847,-29.26028 27.89848,-29.26029 110.984771,-0.032 110.98477,-0.032 v 36.79188 36.79187 h 80.16244 80.16243 V 203.81632 c 0,61.51066 -0.0961,111.83756 -0.21366,111.83756 -0.11751,0 -2.02987,-1.36855 -4.24968,-3.04123 -5.13308,-3.86789 -12.60752,-8.35623 -18.07024,-10.85105 l -4.25947,-1.94528 -0.004,-90.27411 -0.004,-90.27411 H 319.09283 207.25527 v 11.85786 c 0,6.52183 0.10372,11.9616 0.2305,12.08837 0.12677,0.12678 2.1552,-0.0671 4.50761,-0.43092 6.12703,-0.94749 20.57673,-0.88859 27.16405,0.11073 14.44735,2.19172 27.77773,7.24941 39.73236,15.07489 4.98235,3.26145 12.06619,9.01609 15.57354,12.65136 l 2.17253,2.25177 h 56.91376 56.91377 v 10.47715 10.47716 h -49.21828 c -27.07005,0 -49.21827,0.0776 -49.21827,0.17247 0,0.0949 1.00907,2.33184 2.24239,4.97105 1.23331,2.63922 3.08695,7.33115 4.11919,10.42651 1.81397,5.43945 4.35923,16.63371 4.35923,19.17215 0,3.0077 -3.60578,2.78066 44.16316,2.78066 h 43.57158 l -0.13133,10.59899 -0.13133,10.59898 -43.67896,0.12442 -43.67896,0.12443 -0.84492,4.74867 c -1.04646,5.8814 -3.58106,14.77466 -5.58351,19.59113 l -1.51098,3.63434 6.70812,6.72099 6.70814,6.721 20.22987,0.0229 20.22988,0.023 -5.60406,1.64363 c -14.40609,4.22521 -26.50479,10.53573 -37.36443,19.48878 l -3.81323,3.14376 -16.95197,-16.93111 -16.95196,-16.9311 2.78376,-4.61062 c 7.43266,-12.31044 10.89682,-24.97212 10.89682,-39.82851 0,-37.85027 -26.62545,-69.33341 -64.04072,-75.72467 -7.71356,-1.31763 -21.4055,-1.05823 -28.30446,0.53624 -16.49276,3.81176 -29.07217,10.96275 -40.33893,22.93138 -19.12381,20.31513 -25.56992,49.96493 -16.69643,76.7976 1.88334,5.69505 6.56221,14.94613 10.08302,19.93618 1.70196,2.41218 5.6163,6.91974 8.69854,10.0168 13.82197,13.88846 31.05144,21.44013 50.7362,22.23765 10.5463,0.42729 19.33502,-0.86634 28.93892,-4.25958 5.03703,-1.77968 11.83636,-5.097 15.68618,-7.65314 l 2.65044,-1.7598 17.72089,17.75472 17.7209,17.75472 -2.20889,3.65482 c -4.78458,7.91656 -8.93309,17.96117 -11.37136,27.533 l -1.36548,5.3604 -30.98994,0.12544 -30.98995,0.12543 v -10.72442 -10.72442 h 30.57743 30.57742 l -11.75506,-11.75506 -11.75506,-11.75506 -5.06157,1.95507 c -6.43378,2.4851 -15.5536,4.78446 -22.68332,5.71908 -8.59389,1.12656 -22.08129,0.87674 -29.02896,-0.53769 l -1.34232,-0.27328 0.12405,51.81586 0.12404,51.81585 45.56345,0.12797 45.56346,0.12797 1.70558,3.25036 c 3.33956,6.36425 7.82211,12.62572 15.36906,21.46832 l 1.76761,2.07107 h -68.75107 -68.75108 z m 0,-83.48383 v -19.40261 l -4.75127,-2.83451 c -7.45012,-4.44459 -15.01171,-10.38928 -20.67918,-16.25734 -2.8639,-2.96526 -5.57542,-5.95351 -6.02559,-6.64055 l -0.81849,-1.24918 H 107.29124 66.891089 l 0.13133,-10.59898 0.13133,-10.59899 33.681231,-0.24365 33.68123,-0.24366 -1.67535,-4.38578 c -3.21588,-8.41868 -5.45391,-19.14615 -6.27784,-30.09137 l -0.28431,-3.77665 H 96.594399 66.910089 v -10.72082 -10.72081 h 30.85506 30.855061 l 0.88479,-3.77665 c 2.67971,-11.43808 9.08168,-25.04893 16.15942,-34.35555 1.17649,-1.54698 2.13907,-2.91989 2.13907,-3.05091 0,-0.13101 -18.20529,-0.23821 -40.4562,-0.23821 H 66.891089 l 0.13133,-10.59898 0.13133,-10.59899 52.629441,-0.24365 52.62944,-0.24366 3.77665,-2.11511 3.77665,-2.11511 v -16.27879 -16.27879 l -56.40609,-0.12386 -56.406091,-0.12387 -0.13133,-10.59898 -0.13133,-10.598989 h 56.537421 56.53742 v -3.41117 -3.41117 h 45.07614 45.07614 v -23.39086 -23.39086 l -91.24873,0.003 -91.248731,0.003 -20.58281,21.56054 -20.58281,21.56051 -0.006,139.492389 -0.006,139.49238 h 66.761431 66.76142 z" />
</svg>
