<?xml version="1.0" encoding="UTF-8"?>
<svg xmlns="http://www.w3.org/2000/svg" xmlns:xlink="http://www.w3.org/1999/xlink" width="375pt" height="374.999991pt" viewBox="0 0 375 374.999991" version="1.2">
<g id="surface1">
<path style=" stroke:none;fill-rule:nonzero;fill:#0895cd;fill-opacity:1;" d="M 351.3125 11.71875 C 358.292969 11.71875 364.027344 17.453125 364.027344 24.433594 L 364.027344 351.3125 C 364.027344 358.292969 358.292969 364.027344 351.3125 364.027344 L 24.433594 364.027344 C 17.453125 364.027344 11.71875 358.292969 11.71875 351.3125 L 11.71875 24.433594 C 11.71875 17.453125 17.453125 11.71875 24.433594 11.71875 L 351.3125 11.71875 M 351.3125 0 L 24.433594 0 C 10.972656 0 0 10.96875 0 24.433594 L 0 351.3125 C 0 364.777344 10.972656 375.746094 24.433594 375.746094 L 351.3125 375.746094 C 364.777344 375.746094 375.746094 364.777344 375.746094 351.3125 L 375.746094 24.433594 C 375.746094 10.96875 364.777344 0 351.3125 0 Z M 351.3125 0 "/>
<path style=" stroke:none;fill-rule:nonzero;fill:#0895cd;fill-opacity:1;" d="M 324.277344 119.921875 L 50.933594 119.921875 C 43.539062 119.921875 37.511719 113.886719 37.511719 106.484375 L 37.511719 50.9375 C 37.511719 43.535156 43.539062 37.5 50.933594 37.5 L 324.277344 37.5 C 331.675781 37.5 337.699219 43.535156 337.699219 50.9375 L 337.699219 106.484375 C 337.699219 113.886719 331.675781 119.921875 324.277344 119.921875 Z M 324.277344 119.921875 "/>
<path style=" stroke:none;fill-rule:nonzero;fill:#0895cd;fill-opacity:1;" d="M 324.277344 228.792969 L 50.933594 228.792969 C 43.539062 228.792969 37.511719 222.757812 37.511719 215.355469 L 37.511719 159.808594 C 37.511719 152.40625 43.539062 146.371094 50.933594 146.371094 L 324.277344 146.371094 C 331.675781 146.371094 337.699219 152.40625 337.699219 159.808594 L 337.699219 215.355469 C 337.699219 222.757812 331.675781 228.792969 324.277344 228.792969 Z M 324.277344 228.792969 "/>
<path style=" stroke:none;fill-rule:nonzero;fill:#0895cd;fill-opacity:1;" d="M 324.277344 337.664062 L 50.933594 337.664062 C 43.539062 337.664062 37.511719 331.628906 37.511719 324.226562 L 37.511719 268.679688 C 37.511719 261.277344 43.539062 255.242188 50.933594 255.242188 L 324.277344 255.242188 C 331.675781 255.242188 337.699219 261.277344 337.699219 268.679688 L 337.699219 324.226562 C 337.699219 331.628906 331.675781 337.664062 324.277344 337.664062 Z M 324.277344 337.664062 "/>
</g>
</svg>
