<?xml version="1.0" encoding="UTF-8"?>
<svg xmlns="http://www.w3.org/2000/svg" xmlns:xlink="http://www.w3.org/1999/xlink" width="375pt" height="374.999991pt" viewBox="0 0 375 374.999991" version="1.2">
<defs>
<clipPath id="clip1">
  <path d="M 1 0 L 374 0 L 374 374 L 1 374 Z M 1 0 "/>
</clipPath>
<clipPath id="clip2">
  <path d="M 187.496094 -9.414062 L 384.25 187.339844 L 187.496094 384.089844 L -9.257812 187.339844 Z M 187.496094 -9.414062 "/>
</clipPath>
<clipPath id="clip3">
  <path d="M 187.496094 -9.414062 L 384.25 187.339844 L 187.496094 384.089844 L -9.257812 187.339844 Z M 187.496094 -9.414062 "/>
</clipPath>
<clipPath id="clip4">
  <path d="M 187.496094 -9.414062 L 384.089844 187.179688 L 187.496094 383.777344 L -9.097656 187.179688 Z M 187.496094 -9.414062 "/>
</clipPath>
</defs>
<g id="surface1">
<g clip-path="url(#clip1)" clip-rule="nonzero">
<g clip-path="url(#clip2)" clip-rule="nonzero">
<g clip-path="url(#clip3)" clip-rule="nonzero">
<g clip-path="url(#clip4)" clip-rule="nonzero">
<path style=" stroke:none;fill-rule:nonzero;fill:#f5f5f5;fill-opacity:1;" d="M 373.730469 187.179688 C 373.75 176.902344 365.398438 168.550781 355.117188 168.566406 L 206.125 168.550781 L 206.125 19.574219 C 206.125 9.277344 197.792969 0.945312 187.496094 0.945312 C 177.199219 0.945312 168.863281 9.277344 168.863281 19.574219 L 168.863281 168.550781 L 19.890625 168.550781 C 9.59375 168.550781 1.257812 176.882812 1.257812 187.179688 C 1.257812 197.476562 9.59375 205.8125 19.890625 205.8125 L 168.882812 205.792969 L 168.882812 354.804688 C 168.863281 365.082031 177.214844 373.433594 187.496094 373.417969 C 197.773438 373.398438 206.109375 365.066406 206.125 354.785156 L 206.109375 205.792969 L 355.101562 205.8125 C 365.382812 205.792969 373.714844 197.460938 373.730469 187.179688 "/>
</g>
</g>
</g>
</g>
</g>
</svg>
