<svg xmlns="http://www.w3.org/2000/svg" xmlns:xlink="http://www.w3.org/1999/xlink" width="500" zoomAndPan="magnify" viewBox="0 0 375 374.999991" height="500" preserveAspectRatio="xMidYMid meet" version="1.0"><defs><clipPath id="6d65b7f4c7"><path d="M 0 273 L 79 273 L 79 351.9375 L 0 351.9375 Z M 0 273 " clip-rule="nonzero"/></clipPath><clipPath id="fc3cbd24f4"><path d="M 0 23.4375 L 79 23.4375 L 79 102 L 0 102 Z M 0 23.4375 " clip-rule="nonzero"/></clipPath></defs><path fill="#000000" d="M 367.1875 70.367188 L 101.5625 70.367188 C 97.25 70.367188 93.75 66.863281 93.75 62.542969 C 93.75 58.226562 97.25 54.722656 101.5625 54.722656 L 367.1875 54.722656 C 371.5 54.722656 375 58.226562 375 62.542969 C 375 66.863281 371.5 70.367188 367.1875 70.367188 Z M 367.1875 70.367188 " fill-opacity="1" fill-rule="nonzero"/><path fill="#000000" d="M 367.1875 195.507812 L 101.5625 195.507812 C 97.25 195.507812 93.75 192.003906 93.75 187.6875 C 93.75 183.371094 97.25 179.867188 101.5625 179.867188 L 367.1875 179.867188 C 371.5 179.867188 375 183.371094 375 187.6875 C 375 192.003906 371.5 195.507812 367.1875 195.507812 Z M 367.1875 195.507812 " fill-opacity="1" fill-rule="nonzero"/><path fill="#000000" d="M 367.1875 320.652344 L 101.5625 320.652344 C 97.25 320.652344 93.75 317.148438 93.75 312.832031 C 93.75 308.511719 97.25 305.007812 101.5625 305.007812 L 367.1875 305.007812 C 371.5 305.007812 375 308.511719 375 312.832031 C 375 317.148438 371.5 320.652344 367.1875 320.652344 Z M 367.1875 320.652344 " fill-opacity="1" fill-rule="nonzero"/><path fill="#000000" d="M 39.0625 226.792969 C 17.515625 226.792969 0 209.242188 0 187.6875 C 0 166.132812 17.515625 148.582031 39.0625 148.582031 C 60.609375 148.582031 78.125 166.132812 78.125 187.6875 C 78.125 209.242188 60.609375 226.792969 39.0625 226.792969 Z M 39.0625 164.222656 C 26.140625 164.222656 15.625 174.75 15.625 187.6875 C 15.625 200.625 26.140625 211.152344 39.0625 211.152344 C 51.984375 211.152344 62.5 200.625 62.5 187.6875 C 62.5 174.75 51.984375 164.222656 39.0625 164.222656 Z M 39.0625 164.222656 " fill-opacity="1" fill-rule="nonzero"/><g clip-path="url(#6d65b7f4c7)"><path fill="#000000" d="M 39.0625 351.9375 C 17.515625 351.9375 0 334.386719 0 312.832031 C 0 291.273438 17.515625 273.722656 39.0625 273.722656 C 60.609375 273.722656 78.125 291.273438 78.125 312.832031 C 78.125 334.386719 60.609375 351.9375 39.0625 351.9375 Z M 39.0625 289.367188 C 26.140625 289.367188 15.625 299.894531 15.625 312.832031 C 15.625 325.765625 26.140625 336.292969 39.0625 336.292969 C 51.984375 336.292969 62.5 325.765625 62.5 312.832031 C 62.5 299.894531 51.984375 289.367188 39.0625 289.367188 Z M 39.0625 289.367188 " fill-opacity="1" fill-rule="nonzero"/></g><g clip-path="url(#fc3cbd24f4)"><path fill="#000000" d="M 39.0625 101.652344 C 17.515625 101.652344 0 84.101562 0 62.542969 C 0 40.988281 17.515625 23.4375 39.0625 23.4375 C 60.609375 23.4375 78.125 40.988281 78.125 62.542969 C 78.125 84.101562 60.609375 101.652344 39.0625 101.652344 Z M 39.0625 39.082031 C 26.140625 39.082031 15.625 49.609375 15.625 62.542969 C 15.625 75.480469 26.140625 86.007812 39.0625 86.007812 C 51.984375 86.007812 62.5 75.480469 62.5 62.542969 C 62.5 49.609375 51.984375 39.082031 39.0625 39.082031 Z M 39.0625 39.082031 " fill-opacity="1" fill-rule="nonzero"/></g></svg>