<svg xmlns="http://www.w3.org/2000/svg" xmlns:xlink="http://www.w3.org/1999/xlink" width="500" zoomAndPan="magnify" viewBox="0 0 375 374.999991" height="500" preserveAspectRatio="xMidYMid meet" version="1.0"><defs><clipPath id="84fd6a8603"><path d="M 0 273 L 79 273 L 79 351.9375 L 0 351.9375 Z M 0 273 " clip-rule="nonzero"/></clipPath><clipPath id="612156ee5a"><path d="M 0 23.4375 L 79 23.4375 L 79 102 L 0 102 Z M 0 23.4375 " clip-rule="nonzero"/></clipPath></defs><path fill="#808080" d="M 367.1875 70.3125 L 101.5625 70.3125 C 97.25 70.3125 93.75 66.8125 93.75 62.5 C 93.75 58.1875 97.25 54.6875 101.5625 54.6875 L 367.1875 54.6875 C 371.5 54.6875 375 58.1875 375 62.5 C 375 66.8125 371.5 70.3125 367.1875 70.3125 Z M 367.1875 70.3125 " fill-opacity="1" fill-rule="nonzero"/><path fill="#808080" d="M 367.1875 195.3125 L 101.5625 195.3125 C 97.25 195.3125 93.75 191.8125 93.75 187.5 C 93.75 183.1875 97.25 179.6875 101.5625 179.6875 L 367.1875 179.6875 C 371.5 179.6875 375 183.1875 375 187.5 C 375 191.8125 371.5 195.3125 367.1875 195.3125 Z M 367.1875 195.3125 " fill-opacity="1" fill-rule="nonzero"/><path fill="#808080" d="M 367.1875 320.3125 L 101.5625 320.3125 C 97.25 320.3125 93.75 316.8125 93.75 312.5 C 93.75 308.1875 97.25 304.6875 101.5625 304.6875 L 367.1875 304.6875 C 371.5 304.6875 375 308.1875 375 312.5 C 375 316.8125 371.5 320.3125 367.1875 320.3125 Z M 367.1875 320.3125 " fill-opacity="1" fill-rule="nonzero"/><path fill="#808080" d="M 39.0625 226.5625 C 17.515625 226.5625 0 209.03125 0 187.5 C 0 165.96875 17.515625 148.4375 39.0625 148.4375 C 60.609375 148.4375 78.125 165.96875 78.125 187.5 C 78.125 209.03125 60.609375 226.5625 39.0625 226.5625 Z M 39.0625 164.0625 C 26.140625 164.0625 15.625 174.578125 15.625 187.5 C 15.625 200.421875 26.140625 210.9375 39.0625 210.9375 C 51.984375 210.9375 62.5 200.421875 62.5 187.5 C 62.5 174.578125 51.984375 164.0625 39.0625 164.0625 Z M 39.0625 164.0625 " fill-opacity="1" fill-rule="nonzero"/><g clip-path="url(#84fd6a8603)"><path fill="#808080" d="M 39.0625 351.5625 C 17.515625 351.5625 0 334.03125 0 312.5 C 0 290.96875 17.515625 273.4375 39.0625 273.4375 C 60.609375 273.4375 78.125 290.96875 78.125 312.5 C 78.125 334.03125 60.609375 351.5625 39.0625 351.5625 Z M 39.0625 289.0625 C 26.140625 289.0625 15.625 299.578125 15.625 312.5 C 15.625 325.421875 26.140625 335.9375 39.0625 335.9375 C 51.984375 335.9375 62.5 325.421875 62.5 312.5 C 62.5 299.578125 51.984375 289.0625 39.0625 289.0625 Z M 39.0625 289.0625 " fill-opacity="1" fill-rule="nonzero"/></g><g clip-path="url(#612156ee5a)"><path fill="#808080" d="M 39.0625 101.5625 C 17.515625 101.5625 0 84.03125 0 62.5 C 0 40.96875 17.515625 23.4375 39.0625 23.4375 C 60.609375 23.4375 78.125 40.96875 78.125 62.5 C 78.125 84.03125 60.609375 101.5625 39.0625 101.5625 Z M 39.0625 39.0625 C 26.140625 39.0625 15.625 49.578125 15.625 62.5 C 15.625 75.421875 26.140625 85.9375 39.0625 85.9375 C 51.984375 85.9375 62.5 75.421875 62.5 62.5 C 62.5 49.578125 51.984375 39.0625 39.0625 39.0625 Z M 39.0625 39.0625 " fill-opacity="1" fill-rule="nonzero"/></g></svg>