<svg xmlns="http://www.w3.org/2000/svg" width="284" height="284" preserveAspectRatio="xMidYMid meet" version="1.0" style=""><rect id="backgroundrect" width="100%" height="100%" x="0" y="0" fill="none" stroke="none"/>

 <g style="" class="currentLayer">
  <title>Layer 1</title>
  <path id="svg_2" d="m105,55.056332397460935 c-2.7,1.4 -6.1,4.4 -8.4,7.5 c-3,4 -4.5,5.2 -6.6,5.2 c-9.3,0 -19.7,8.5 -22,18 c-0.7000000000000001,2.8 -0.9,6.2 -0.6000000000000001,7.5 c0.8,3.3 -0.7000000000000001,6.1 -4.4,8 c-4.1,2.1 -25.2,2.2 -24.4,0 c0.8,-2 -4.1,-6.6 -6.2,-5.8 c-1,0.4 -2.2,0 -3,-1.1 c-1.6,-2.2 -6.8,-2.4 -8.9,-0.30000000000000004 c-0.8,0.9 -2.2,1.4 -3.1,1 c-2,-0.7000000000000001 -6.3,3.4 -5.7,5.5 c0.2,1 -0.5,2.8 -1.6,4.1 c-2.5,2.8 -2.8,7.1 -0.6000000000000001,7.1 c1.4,0 1.6,0.6000000000000001 1.9,5.1 c0.2,2.9 3.8,6.1 6.3,5.4 c1.5,-0.30000000000000004 2.8,0.2 4.2,1.6 c2.2,2.3 5,2 8.1,-1.1 c1.1,-1.1 2.7,-1.6 3.8,-1.3 c2.5,0.6000000000000001 5.4,-3.2 4.6,-6.3 c-1,-4.1 1.4,-4.4 37.5,-4.4 c32.2,0 34.1,-0.1 34.1,-1.8 c0,-2.5 1.9,-4.2 4.7,-4.2 c1.3,0 2.6,-0.7000000000000001 2.9,-1.5 c0.9,-2.1 3,-1.9 5.3,0.6000000000000001 c1.1,1.2 2.7,1.9 3.5,1.6 c1.8,-0.7000000000000001 4.2,2 3.8,4.3 c-0.1,0.9 0.4,2.3 1.3,3 c1.9,1.6 1.9,3.6 0.1,4.3 c-0.8,0.30000000000000004 -1.6,2.1 -1.8,3.9 c-0.2,2.7 -0.8,3.4 -2.8,3.6 c-1.4,0.2 -2.9,0.9 -3.5,1.6 c-1.7000000000000002,2 -4.3,2.6 -5.5,1.1 c-0.6000000000000001,-0.8 -2.3,-1.5 -3.7,-1.7000000000000002 c-2.5,-0.30000000000000004 -3.6,-1.4 -4.7,-5.1 c-0.5,-1.6 -2.9,-1.7000000000000002 -31.6,-1.7000000000000002 l-31,0 l-1.1,2.7 c-0.6000000000000001,1.6 -0.9,6.4 -0.7000000000000001,10.8 c0.30000000000000004,8.9 2.6,14.5 8.1,20.3 l3.1,3.2 l-6.7,0 c-5.6,0 -6.5,-0.2 -6,-1.6 c0.8,-2.2 -3.6,-6.6 -6,-5.8 c-1.2,0.4 -2.6,-0.2 -3.8,-1.5 c-2.5,-2.6 -4.9,-2.7 -7.9,-0.1 c-1.6,1.4 -2.7,1.7000000000000002 -3.4,1 c-1.3,-1.3 -6.7,3.7 -5.9,5.6 c0.30000000000000004,0.7000000000000001 -0.5,2.5 -1.6,4 c-2.7,3.4 -2.7,5.5 0,7.7 c1.4,1.3 1.9,2.5 1.5,4.1 c-0.7000000000000001,3 3.3,7.1 6.2,6.2 c1.2,-0.4 2.6,0 3.5,0.9 c2.1,2 7.7,2 7.7,0 c0,-1.4 1.6,-1.9 5.1,-1.6 c2.3,0.2 4.3,-2.6 4.4,-6.3 l0,-3.1 l29,-0.5 c25.8,-0.4 29,-0.7000000000000001 29,-2.1 c0,-2.8 2.3,-4.7 5,-4.1 c1.5,0.2 2.5,0 2.5,-0.7000000000000001 c0,-1.5 4.7,-1.4 5.2,0.1 c0.2,0.6000000000000001 1.4,1.2 2.5,1.3 c2.8,0.2 5.3,2.3 4.7,3.9 c-0.30000000000000004,0.8 0.2,2 1,2.9 c2,2 2,4.4 0.1,6.4 c-0.8,0.8 -1.3,1.9 -0.9,2.4 c0.8,1.4 -1.5,3.9 -3.7,3.9 c-1.1,0 -2.7,0.9 -3.6,2 c-2,2.3 -5.3,2.7 -5.3,0.5 c0,-1 -1,-1.5 -2.9,-1.5 c-2.8,0 -6,-2.4 -4.8,-3.7 c0.4,-0.30000000000000004 0.2,-1.4 -0.4,-2.4 c-0.9,-1.8 -2.5,-1.9 -22.1,-1.9 l-21.1,0 l0.6000000000000001,4.5 c1.2,8.6 6.9,16.4 16.9,23.2 c3.1,2.1 5.6,4.9 7.3,8.2 c1.6,3.3 4.4,6.4 7.9,9.1 c3,2.3 6.2,5.2 7,6.5 c0.9,1.3 3.7,3.7 6.3,5.2 c4,2.4 5.9,2.8 11.9,2.8 c6.1,0 7.7,-0.4 12,-3 c2.9,-1.9 6,-4.9 7.8,-7.8 c2.5,-4.1 3,-6.1 3.4,-13.3 l0.5,-8.4 l-15.1,0 c-14.4,0 -15.1,0.1 -15.7,2.1 c-0.4,1.1 -0.4,2.3 -0.1,2.6 c0.9,1 -1.5,3.3 -3.4,3.3 c-0.9,0 -2.7,0.9 -4,2 c-2.8,2.4 -3.9,2.5 -4.6,0.5 c-0.4,-0.8 -1.8,-1.5 -3.3,-1.5 c-3.3,0 -5.1,-1.7000000000000002 -5.1,-4.7 c0,-1.3 -0.7000000000000001,-2.6 -1.5,-2.9 c-2,-0.8 -1.9,-5.1 0.2,-6.2 c0.9,-0.5 1.7000000000000002,-1.8 1.8,-2.8 c0.2,-3.1 1.4,-4.4 4.2,-4.4 c1.4,0 3.1,-0.8 3.8,-1.7000000000000002 c1.1,-1.5 1.5,-1.5 4.9,0.6000000000000001 c2,1.3 3.6,1.9 3.6,1.5 c0,-0.4 0.9,0.1 2,1.1 c1.1,1 1.7000000000000002,2.2 1.4,2.6 c-0.30000000000000004,0.5 6.5,0.9 15,0.9 l15.6,0 l0,-23 l0,-23 l-24.6,0 c-20.5,0 -24.5,0.2 -24.1,1.4 c0.7000000000000001,1.7000000000000002 -1.1,3.6 -3.3,3.6 c-1,0 -2.7,0.9 -4,2 c-2.7,2.4 -4.6,2.6 -5.4,0.5 c-0.30000000000000004,-0.8 -1.6,-1.5 -2.9,-1.5 c-2.9,0 -4.7,-1.8 -4.7,-4.7 c0,-1.3 -0.7000000000000001,-2.6 -1.5,-2.9 c-2,-0.8 -1.9,-4.4 0.2,-5.9 c0.9,-0.7000000000000001 1.7000000000000002,-2.1 1.8,-3.1 c0.2,-3.2 1.5,-4.4 4.5,-4.4 c1.5,0 3,-0.7000000000000001 3.4,-1.5 c0.6000000000000001,-1.6 3.2,-1 5.5,1.3 c0.7000000000000001,0.7000000000000001 1.9,1.1 2.7,0.8 c1.6,-0.6000000000000001 3.8,2 3.9,4.8 c0,2.1 0.2,2.1 24.3,2.4 l24.2,0.2 l0,-24 l0,-24 l-13.1,0 c-8.8,0 -12.8,0.30000000000000004 -12.4,1 c0.8,1.3 -1.4,4.2 -2.6,3.4 c-1.5,-0.9 -4.9,0.6000000000000001 -4.9,2.2 c0,2 -4.6,1.8 -5.4,-0.2 c-0.4,-1 -1.4,-1.4 -2.6,-1.1 c-1.9,0.5 -4.4,-1.5 -4.6,-3.7 c0,-0.6000000000000001 -0.2,-1.9 -0.2,-2.9 c-0.1,-0.9 -0.9,-1.7000000000000002 -1.7000000000000002,-1.7000000000000002 c-2.2,0 -1.8,-3.3 0.6000000000000001,-5.4 c1.3,-1 1.9,-2.5 1.6,-3.6 c-0.6000000000000001,-2.3 1.7000000000000002,-4.5 3.8,-3.7 c0.8,0.4 2.1,0 2.9,-0.8 c1.9,-1.9 4.3,-1.9 6.2,0 c0.9,0.8 2.4,1.5 3.3,1.5 c1.9,0 4.3,2.2 4,3.6 c-0.5,3.2 0.2,3.4 12.6,3.4 l12.5,0 l0,-4.8 c0,-10.1 -4.9,-18.7 -13,-22.8 c-3.1,-1.6 -6.8,-2.4 -10.5,-2.4125 c-3.7,-0.012500000000000002 -7.4,0.7625000000000001 -10.5,2.3125 zm-75.3,48.9 c2.9,2.7 2.9,6.5 0.1,9.5 c-4.3,4.6 -12.1,1.6 -12.1,-4.7 c0,-6.3 7.3,-9.2 12,-4.8 zm5.3,53 c5.2,5.6 -1.1,14 -8.5,11.2 c-2.2,-0.9 -4.6,-5.9 -3.8,-8.1 c1.9,-5.6 8.4,-7.2 12.3,-3.1 z" class="" fill-opacity="1" fill="#09487e"/>
  <path id="svg_3" d="m159.2,55.41621551513672 c-7.8,3.9 -11.9,10.6 -12.9,20.9 l-0.6000000000000001,6.5 l11.6,0 l11.7,0 l0.6000000000000001,-2.8 c1,-3.9 2.1,-5 5.1,-5 c1.5,0 2.9,-0.5 3.1,-1.1 c0.5,-1.6 4.9,-1.3 5.6,0.4 c0.30000000000000004,0.8 1.4,1.5 2.4,1.5 c2.5,0 4.2,1.9 4.2,4.7 c0,1.3 0.4,2.3 0.9,2.3 c1.8,0 2,3.2 0.5,5.5 c-0.9,1.3 -1.3,2.8 -1,3.3 c0.7000000000000001,1.3 -2,3.5 -4.7,3.9 c-1.2,0.2 -2.5,1 -3,1.8 c-1,1.8 -4.4,2 -4.9,0.30000000000000004 c-0.30000000000000004,-0.7000000000000001 -1.6,-1.3 -3.1,-1.3 c-3.2,-0.2 -5.8,-2.2 -5,-4.1 c0.4,-1.2 -1.5,-1.4 -11.6,-1.4 l-12.1,0 l0,24 l0,24 l24,0 c22,0 24.1,-0.1 24.6,-1.8 c1.1,-3.5 2.1,-4.5 4.4,-4.7 c1.3,-0.1 2.6,-0.7000000000000001 2.8,-1.3 c0.5,-1.7000000000000002 4.9,-1.5 5.6,0.30000000000000004 c0.30000000000000004,0.8 1.6,1.5 2.9,1.5 c2.7,0 5.2,2.3 4.3,3.9 c-0.4,0.5 0.1,1.6 0.9,2.4 c1.9,2 1.9,4.4 -0.1,6.4 c-0.8,0.9 -1.3,2.2 -0.9,3.1 c0.7000000000000001,1.9 -1.2,4.2 -3,3.6 c-0.7000000000000001,-0.30000000000000004 -2.3,0.4 -3.4,1.5 c-2.5,2.5 -5.6,2.7 -6.5,0.5 c-0.4,-1 -1.4,-1.4 -2.6,-1.1 c-1.9,0.5 -4.4,-1.5 -4.6,-3.7 c0,-0.6000000000000001 -0.2,-1.7000000000000002 -0.2,-2.4 c-0.2,-0.9 -5.7,-1.2 -24.2,-1.2 l-24,0 l0,23 l0,23.1 l15.5,-0.30000000000000004 c9.4,-0.2 15.5,-0.7000000000000001 15.6,-1.3 c0.1,-1.6 3.1,-4.5 4.1,-3.9 c0.5,0.30000000000000004 2,-0.1 3.3,-1 c3,-2 2.7,-2 5.5,0.4 c1.3,1.2 2.9,1.9 3.6,1.6 c1.5,-0.6000000000000001 4.8,2.9 4,4.3 c-0.30000000000000004,0.5 0.1,1.6 0.9,2.4 c1.7000000000000002,1.8 2,4.4 0.5,4.9 c-0.6000000000000001,0.2 -1.1,1.4 -1.2,2.8 c-0.2,3.2 -1.6,5 -3.8,5 c-0.9,0 -2.7,0.9 -4,2 c-2.8,2.4 -3.6,2.5 -4.8,0.4 c-0.6000000000000001,-1.1 -1.7000000000000002,-1.5 -3,-1.2 c-2.5,0.7000000000000001 -4.8,-1.7000000000000002 -5,-5.1 c0,-1.3 -0.4,-2.6 -0.7000000000000001,-3 c-0.4,-0.30000000000000004 -7.4,-0.7000000000000001 -15.7,-0.9 l-15.1,-0.30000000000000004 l0.5,8.5 c0.4,7.2 0.9,9.2 3.4,13.3 c1.8,2.9 4.9,5.9 7.8,7.8 c4.3,2.6 5.9,3 12,3 c8.5,-0.1 13.1,-2.1 19.2,-8.7 c2.2,-2.3 5.8,-5.7 8,-7.4 c2.2,-1.8 5.1,-5.4 6.5,-8 c1.7000000000000002,-3.2 4.2,-6 7.7,-8.4 c2.8,-2 6.2,-4.6 7.6,-5.9 c3.5,-3.3 7.5,-11.3 8.2,-16.5 l0.7000000000000001,-4.6 l-21.4,0.2 c-18.2,0.30000000000000004 -21.4,0.5 -21.4,1.8 c-0.1,2.4 -1.5,4 -3.6,4 c-1,0 -2.7,0.9 -3.6,2 c-2.1,2.4 -4.9,2.6 -5.7,0.4 c-0.4,-1 -1.4,-1.4 -2.6,-1.1 c-2.1,0.5 -5.6,-2.6 -4.6,-4.2 c0.4,-0.6000000000000001 -0.2,-1.9 -1.4,-3.1 c-2.3,-2.3 -2.7,-6 -0.5,-6 c0.8,0 1.6,-0.8 1.7000000000000002,-1.8 c0,-0.9 0.2,-2.2 0.2,-2.7 c0.30000000000000004,-2.2 1.7000000000000002,-3.3 4.3,-3.3 c1.5,0 2.9,-0.5 3.1,-1.1 c0.5,-1.6 4.1,-1.4 5.9,0.5 c0.9,0.8 2.1,1.3 2.8,1 c1.6,-0.6000000000000001 4.7,2.7 4.3,4.5 c-0.2,1.2 4.9,1.4 30,1.7000000000000002 c32.8,0.30000000000000004 30.3,-0.2 30.6,5.3 c0.2,3 3.8,6.1 6.3,5.4 c1.6,-0.4 2.5,0 2.9,1 c0.8,2.1 8.4,2.1 8.4,0 c0,-0.8 0.6000000000000001,-1.5 1.3,-1.6 c4.5,-0.30000000000000004 5.9,-0.8 7.2,-2.5 c0.7000000000000001,-1 1.1,-2.9 0.8,-4.1 c-0.30000000000000004,-1.5 0,-2.5 1.1,-2.9 c2.1,-0.8 2.2,-7 0,-7.8 c-1,-0.4 -1.3,-1.3 -1,-2.4 c0.8,-2.4 -3.9,-7.3 -6.1,-6.5 c-0.9,0.4 -2.1,-0.1 -2.8,-1 c-1.9,-2.7 -5.8,-3 -8.4,-0.8 c-1.7000000000000002,1.5 -2.8,1.8 -3.6,1.1 c-1.9,-1.5 -6.5,3.2 -5.8,5.9 c0.5,2 0.2,2.1 -8.3,2.1 l-8.8,0 l3.6,-3.8 c5.7,-5.7 8.2,-12.3 8.2,-21.2 c0,-4.1 -0.5,-8.5 -1.2,-9.8 l-1.3,-2.2 l-31,0 c-29,0 -31,0.1 -30.7,1.7000000000000002 c0.4,2.5 -1,4.3 -3.2,4.3 c-1,0 -2.5,0.6000000000000001 -3.2,1.3 c-2.2,2.2 -4.7,2.7 -5.6,1.1 c-0.5,-0.8 -1.9,-1.6 -3.3,-1.6 c-3.3,-0.2 -4.9,-1.6 -4.9,-4.5 c0,-1.3 -0.7000000000000001,-2.6 -1.5,-2.9 c-2,-0.8 -1.9,-5.4 0.1,-6.8 c0.8,-0.6000000000000001 1.6,-1.8 1.7000000000000002,-2.6 c0.4,-2.7 1.8,-4 4.3,-4 c1.4,0 2.7,-0.7000000000000001 3,-1.5 c0.8,-2 2.9,-1.9 4.9,0.2 c1,0.9 2.5,1.7000000000000002 3.5,1.8 c2.6,0.2 5,2.4 4.3,4.1 c-0.4,1.2 4.9,1.4 34.8,1.6 l35.4,0.30000000000000004 l0,2.8 c0,3.7 3.5,6.6 7,6 c1.8,-0.4 2.5,-0.1 2.5,1.1 c0,1.2 1,1.6 4,1.6 c2.8,0 4,-0.4 4,-1.4 c0,-1.6 3.4,-3.1 4.8,-2.2 c1.7000000000000002,1 5.4,-4.1 4.7,-6.3 c-0.4,-1.4 -0.1,-2.3 0.9,-2.7 c2.3,-0.9 2.2,-8.4 0,-8.4 c-1.2,0 -1.5,-0.6000000000000001 -1,-2.3 c0.4,-1.7000000000000002 -0.1,-3 -1.8,-4.6 c-1.4,-1.3 -2.9,-2 -3.4,-1.7000000000000002 c-1.5,0.9 -4.2,-0.4 -4.2,-2 c0,-1 -1.2,-1.4 -4,-1.4 c-3,0 -4,0.4 -4,1.6 c0,1.2 -0.6000000000000001,1.5 -2.4,1 c-3.2,-0.8 -8.2,3 -6.6,4.9 c0.9,1 0.6000000000000001,1.9 -0.9,3.4 c-1.8,1.8 -3.3,2.1 -11.6,2.1 c-14.6,0 -15.8,-1 -16.9,-13.4 c-0.9,-11.3 -9.3,-19.9 -20.5,-21.3 c-4.7,-0.5 -5.5,-1 -7.6,-4.2 c-6.9,-10.8 -18.9,-14.2 -30.3,-8.5 zm105.3,45.9 c4,3.9 2.9,9.7 -2.2,11.6 c-5.8,2.2 -11.8,-3.8 -9.2,-9.3 c2.2,-5 7.7,-6.1 11.4,-2.3 zm-0.6000000000000001,56.1 c1.2,1.5 2.1,3.4 2.1,4.4 c0,3.1 -3.9,7 -7,7 c-6.2,0 -9.7,-6.6 -6,-11.3 c2.9,-3.7 8,-3.7 10.9,-0.1 z" class="" fill-opacity="1" fill="#0895cd"/>
 </g>
</svg>