<svg xmlns="http://www.w3.org/2000/svg" version="1.0" width="280.000000" height="280.000000" preserveAspectRatio="xMidYMid meet" style=""><rect id="backgroundrect" width="100%" height="100%" x="0" y="0" fill="none" stroke="none"/>


<g class="currentLayer" style=""><title>Layer 1</title><g transform="translate(0,280) scale(0.10000000149011612,-0.10000000149011612) " fill="#ffc001" stroke="none" id="svg_1" class="selected" fill-opacity="1">
<path d="M2119 2319 c-6 -3 -9 -24 -7 -45 2 -31 9 -42 31 -52 42 -20 46 -15 -83 -117 -41 -32 -77 -62 -80 -65 -3 -3 -50 -42 -104 -86 -55 -43 -131 -105 -170 -136 -143 -117 -271 -215 -286 -220 -16 -5 -64 32 -175 136 -40 37 -79 65 -91 66 -14 0 -42 -22 -77 -61 -58 -63 -909 -931 -939 -958 -21 -18 -23 -31 -5 -31 13 0 108 63 224 149 34 25 112 82 173 126 61 44 150 109 198 145 48 36 134 99 192 140 58 41 149 107 203 147 54 40 104 73 112 73 7 0 51 -36 96 -80 46 -44 88 -80 94 -80 5 0 52 31 103 68 51 37 122 87 158 112 36 25 105 74 154 110 49 36 121 88 160 115 103 73 206 147 278 200 67 49 92 52 92 11 0 -13 7 -27 16 -30 27 -10 71 -7 83 7 12 16 -1 333 -15 347 -11 10 -320 19 -335 9z" id="svg_2" fill="#ffc001"/>
<path d="M2375 1838 c-3 -7 -4 -335 -3 -728 l3 -715 155 0 155 0 3 728 2 727 -155 0 c-115 0 -157 -3 -160 -12z" id="svg_3" fill="#ffc001"/>
<path d="M1891 1646 c-8 -9 -10 -183 -9 -632 l3 -619 156 -3 c124 -2 159 0 168 12 8 10 11 171 9 625 -3 531 -5 613 -18 621 -25 16 -295 13 -309 -4z" id="svg_4" fill="#ffc001"/>
<path d="M1407 1278 c-16 -12 -17 -48 -15 -448 l3 -435 145 -3 c80 -1 155 0 168 3 l22 5 0 435 c0 419 -1 435 -19 445 -29 15 -283 13 -304 -2z" id="svg_5" fill="#ffc001"/>
<path d="M910 1044 c-15 -39 -13 -627 2 -642 13 -13 281 -18 312 -6 14 5 16 44 16 328 0 237 -3 325 -12 334 -8 8 -58 12 -160 12 l-148 0 -10 -26z" id="svg_6" fill="#ffc001"/>
<path d="M424 847 c-2 -7 -3 -111 -2 -232 l3 -220 148 -3 c90 -1 155 2 167 8 19 10 20 21 20 216 0 122 -4 213 -10 225 -10 18 -23 19 -166 19 -116 0 -156 -3 -160 -13z" id="svg_7" fill="#ffc001"/>
</g></g></svg>