<svg xmlns="http://www.w3.org/2000/svg" version="1.0" width="280.000000" height="280.000000" preserveAspectRatio="xMidYMid meet"><rect id="backgroundrect" width="100%" height="100%" x="0" y="0" fill="none" stroke="none"/>


<g class="currentLayer" style=""><title>Layer 1</title><g transform="translate(0,280) scale(0.10000000149011612,-0.10000000149011612) " fill="#4a90d6" stroke="none" id="svg_1" class="selected" fill-opacity="1">
<path d="M1250 2761 c-82 -9 -218 -35 -265 -52 -169 -62 -307 -134 -410 -214 -100 -78 -272 -255 -307 -315 -15 -25 -42 -70 -61 -99 -57 -87 -104 -210 -154 -406 -26 -102 -26 -438 1 -545 69 -280 163 -461 336 -646 177 -191 346 -299 595 -382 137 -46 245 -62 407 -62 229 0 400 42 633 155 118 57 205 124 345 265 143 143 249 308 310 480 37 105 79 347 79 463 1 90 -21 247 -50 365 -32 129 -56 185 -147 337 -194 324 -528 561 -892 634 -109 22 -310 32 -420 22z m888 -627 c66 -72 60 -97 -50 -223 -77 -87 -76 -82 -13 -151 55 -60 66 -88 43 -108 -46 -38 -439 -59 -483 -26 -26 19 -33 116 -24 304 7 149 24 210 58 210 11 0 44 -22 74 -50 30 -27 62 -50 70 -50 8 0 59 34 113 76 90 69 102 75 134 70 25 -4 47 -18 78 -52z m-1115 16 c149 -15 172 -51 87 -135 -56 -55 -61 -79 -25 -113 14 -13 46 -54 72 -90 67 -96 62 -144 -22 -208 -48 -36 -76 -34 -131 12 -99 85 -140 114 -158 114 -11 0 -43 -22 -72 -50 -29 -27 -59 -50 -66 -50 -52 0 -69 79 -71 320 -2 166 5 195 45 203 43 8 253 7 341 -3z m754 -963 c24 -17 70 -54 103 -80 l60 -48 65 62 c60 57 67 61 89 51 38 -17 48 -69 53 -282 6 -263 25 -244 -236 -238 -224 6 -274 16 -279 60 -2 19 8 39 42 77 25 29 46 59 46 69 0 16 -18 41 -107 151 -58 71 -57 97 5 161 60 62 95 66 159 17z m-679 6 c82 -9 86 -24 79 -248 -7 -187 -16 -252 -39 -267 -23 -15 -61 2 -110 48 -56 53 -50 54 -177 -44 -55 -43 -93 -65 -111 -65 -51 0 -130 80 -130 132 0 31 12 50 86 142 35 44 64 86 64 93 0 8 -25 38 -55 67 -67 64 -72 93 -19 115 59 25 301 41 412 27z" id="svg_2" fill="#4a90d6"/>
</g></g></svg>