<svg xmlns="http://www.w3.org/2000/svg" width="280" height="280" preserveAspectRatio="xMidYMid meet" version="1.0" style=""><rect id="backgroundrect" width="100%" height="100%" x="0" y="0" fill="none" stroke="none"/>

 <g style="" class="currentLayer">
  <title>Layer 1</title>
  <path id="svg_2" d="m105,20c-1.9,0.4 -6.5,1.4 -10.2,2.3c-3.7,0.8 -7.8,2.1 -9,2.9c-1.3,0.9 -3.8,1.9 -5.5,2.2c-1.7,0.4 -3.7,1.3 -4.3,2.1c-0.6,0.7 -2.3,1.6 -3.8,2c-2.6,0.6 -7.6,3.6 -13.7,8.2c-1.6,1.3 -4.1,3.1 -5.4,4c-6,4.4 -21.1,20.5 -25.4,27c-7.6,11.4 -13,22.9 -17.4,36.8c-2.8,8.9 -2.8,9.3 -2.7,33c0.1,23.3 0.2,24.2 2.7,31.8c1.5,4.3 2.7,8.2 2.7,8.7c0,1.2 9.2,20 12.2,25c3,4.8 14.2,18.4 19.2,23.2c3.7,3.6 15.3,12.5 20.1,15.6c1.1,0.6 5.8,3 10.5,5.3c4.7,2.2 9.4,4.5 10.5,5.1c1.8,1 4.7,1.9 20,6c5.5,1.5 43.9,1.5 49,0c2.2,-0.6 7.3,-2.1 11.4,-3.2c4,-1.1 7.9,-2.4 8.5,-2.9c0.6,-0.5 3,-1.5 5.4,-2.2c2.3,-0.7 4.7,-1.8 5.3,-2.6c0.6,-0.7 1.7,-1.3 2.3,-1.3c0.7,0 5.4,-2.7 10.4,-6c8,-5.3 9.2,-6.5 9.8,-9.5c0.9,-4.8 -1.2,-9.4 -4.9,-11c-3.7,-1.5 -7.1,-0.7 -12.9,3.2c-12.7,8.7 -24.2,13.3 -43.3,17.4c-6.9,1.4 -30.5,1.1 -36.5,-0.6c-3,-0.8 -7.9,-2 -10.9,-2.6c-5.1,-1 -8.1,-2.2 -18.6,-7.6c-18.5,-9.5 -34.9,-26.6 -45,-47.2c-2.4,-4.7 -4.6,-10.2 -5,-12.1c-0.4,-1.9 -1.4,-5.1 -2.2,-7c-2.2,-5.2 -3.5,-26.9 -2.4,-38.6c1.2,-12.3 6.3,-28.2 12.3,-37.9c0.7,-1.1 2.8,-4.5 4.7,-7.5c3.6,-5.8 24.2,-27 26.2,-27c0.7,0 2.7,-1.1 4.5,-2.5c1.8,-1.4 3.6,-2.5 4.1,-2.5c0.4,0 1.9,-0.9 3.3,-2c1.4,-1.1 3.2,-2 4,-2c0.9,0 3.3,-0.9 5.5,-2c2.2,-1.1 8.2,-3.2 13.5,-4.7c8.7,-2.5 10.9,-2.7 27,-2.6c15.1,0.1 18.3,0.4 23.4,2.2c3.3,1.2 6.5,2.1 7.3,2.1c2.7,0 17.6,7.1 24.8,11.8c15.4,10.1 28,23.8 35.9,39.2c5.9,11.4 6.6,12.9 6.6,14.5c0,0.8 0.9,4.1 2,7.2c1.1,3.2 1.7,6.6 1.4,7.6c-0.6,1.8 -0.7,1.8 -2.7,-0.2c-6.7,-6.2 -17.6,-3.1 -17.7,5.2c0,2.7 4.9,10.5 13.4,21.4c2.3,2.8 5.2,6.8 6.6,8.8c10,14.4 15.7,14.2 25.4,-0.9c6.5,-10.1 7.1,-11.1 7.6,-12.1c2,-4 7.4,-12.6 8.1,-13.1c1.9,-1.1 0.9,-6.9 -1.6,-9.7c-2.1,-2.2 -3.5,-2.7 -7.1,-2.7c-3.8,0 -5,0.5 -7.4,3.2c-1.6,1.7 -3.2,2.9 -3.6,2.5c-0.3,-0.3 -1.2,-3.2 -2,-6.4c-2.4,-10.4 -5.2,-19.7 -6.7,-22.8c-0.8,-1.7 -2.8,-5.7 -4.4,-9c-7.5,-15.5 -16.5,-26.9 -30.8,-39.1c-14,-11.8 -28.8,-19.5 -47.1,-24.6c-6.9,-1.9 -10.8,-2.2 -30.9,-2.4c-12.6,-0.1 -24.6,0.1 -26.5,0.6z" class="selected" fill-opacity="1" fill="#0895cd"/>
  <path id="svg_3" d="m93.7,89.6c-1.5,0.8 -3.2,2.6 -3.7,4c-0.6,1.5 -1,22.7 -1,51l0,48.6l2.9,2.9c1.8,1.8 4,2.9 5.7,2.9c4.3,0 98.8,-47.4 100.9,-50.7c2,-3 1.5,-8.5 -1,-11.3c-0.9,-0.9 -5.9,-3.9 -11.3,-6.5c-5.3,-2.6 -10.4,-5.1 -11.2,-5.6c-0.8,-0.5 -2.6,-1.4 -4,-2c-1.4,-0.6 -16.9,-8.2 -34.5,-16.9c-17.6,-8.7 -33.1,-16.1 -34.5,-16.5c-1.4,-0.4 -3.2,-0.8 -4,-1c-0.8,-0.2 -2.8,0.3 -4.3,1.1z" class="" fill-opacity="1" fill="#ffc001"/>
 </g>
</svg>