<svg xmlns="http://www.w3.org/2000/svg" width="280" height="280" preserveAspectRatio="xMidYMid meet" version="1.0" style=""><rect id="backgroundrect" width="100%" height="100%" x="0" y="0" fill="none" stroke="none"/>

 <g style="" class="currentLayer">
  <title>Layer 1</title>
  <path id="svg_2" d="m12.6,13.6c-0.9,0.8 -1.8,2.5 -2.1,3.7c-0.3,1.2 -0.5,21.7 -0.3,45.5c0.3,41.6 0.4,43.4 2.2,44.8c3,2.2 6.7,1.7 9.8,-1.3l2.8,-2.7l0,-34.5c0,-20.7 0.4,-36.1 1,-38.3l1.1,-3.7l37.3,-0.3c34.4,-0.3 37.5,-0.4 39.4,-2.1c3.1,-2.8 3.2,-6.1 0.5,-9.6l-2.4,-3.1l-43.9,0c-38.5,0 -44,0.2 -45.4,1.6z" class="selected" fill-opacity="1" fill="#0895cd"/>
  <path id="svg_3" d="m175.5,14.5c-2.5,2.4 -3.3,6.8 -1.7,9.2c1.8,2.9 7,3.3 41.3,3.3l35,0l2.4,2.5l2.5,2.4l0,34.9c0,22.8 0.4,36 1.1,38.1c2,5.6 9.5,5.5 12.9,-0.2c1.9,-3 2,-5.2 2,-45l0,-41.9l-2.9,-2.9l-2.9,-2.9l-43.7,0l-43.6,0l-2.4,2.5z" class="selected" fill-opacity="1" fill="#0895cd"/>
  <path id="svg_4" d="m126.4,94.9c-5.5,1.4 -18.4,9.3 -22.5,13.8c-7.5,8.1 -13,21.8 -13.1,32.8c-0.1,11.4 3.8,22.2 11.9,32.6c4.7,6.1 14,12.2 22,14.5c12.5,3.5 15.1,3.8 20.1,2.7c10.8,-2.6 16.8,-4.6 18.7,-6.2c1.1,-0.9 3.3,-2.3 4.9,-3.1c4.4,-2.3 12.4,-11.8 15.9,-19c3.1,-6.3 3.1,-6.9 3.2,-20.5c0,-14 0,-14.1 -3.4,-20.9c-3.6,-7.3 -4.7,-8.9 -9.7,-14c-4.1,-4 -7.5,-6.4 -14.4,-10c-5.1,-2.7 -6.5,-2.9 -18,-3.2c-6.9,-0.2 -13.9,0 -15.6,0.5z" class="" fill-opacity="1" fill="#f44336"/>
  <path id="svg_5" d="m14.4,176.4c-1.7,0.8 -3.4,2.1 -3.8,3.1c-0.3,0.9 -0.6,21.2 -0.6,45.1c0,42.1 0.1,43.5 2,45.4c1.9,1.9 3.3,2 45.6,2c26.5,0 44.2,-0.4 45.4,-1c3.1,-1.7 4.2,-6.5 2.2,-10c-0.9,-1.6 -2.4,-3.3 -3.2,-3.7c-0.8,-0.4 -18.1,-1 -38.5,-1.3l-37,-0.5l-0.5,-37c-0.3,-20.4 -0.9,-37.7 -1.3,-38.6c-0.7,-1.4 -2.3,-2.4 -6.7,-4.6c-0.3,-0.1 -1.9,0.4 -3.6,1.1z" class="selected" fill-opacity="1" fill="#0895cd"/>
  <path id="svg_6" d="m260.1,176.1c-5,2 -5,1.9 -5.1,41.1c0,28.2 -0.3,36.9 -1.2,37.5c-0.7,0.4 -18.1,1 -38.6,1.3l-37.4,0.5l-2.4,2.9c-3.4,3.8 -3,9.5 0.6,11.3c1.9,1 12.9,1.3 45.3,1.3c48.9,0 48.1,0.1 49.2,-7.2c0.3,-2.4 0.5,-22.4 0.3,-44.6l-0.3,-40.2l-3,-2.5c-3.3,-2.7 -3.9,-2.8 -7.4,-1.4z" class="selected" fill-opacity="1" fill="#0895cd"/>
 </g>
</svg>