<svg xmlns="http://www.w3.org/2000/svg" version="1.0" width="280.000000" height="280.000000" preserveAspectRatio="xMidYMid meet"><rect id="backgroundrect" width="100%" height="100%" x="0" y="0" fill="none" stroke="none"/>


<g class="currentLayer" style=""><title>Layer 1</title><g transform="translate(0,280) scale(0.10000000149011612,-0.10000000149011612) " fill="#ffc001" stroke="none" id="svg_1" class="selected" fill-opacity="1">
<path d="M89 2347 c-62 -54 -74 -110 -37 -174 11 -21 190 -208 396 -415 207 -208 374 -380 371 -382 -2 -3 -171 -173 -375 -378 -204 -205 -381 -391 -393 -413 -28 -52 -27 -92 3 -136 40 -59 110 -82 172 -59 37 14 893 881 922 933 27 51 27 57 1 110 -23 45 -841 884 -895 918 -45 28 -130 26 -165 -4z" id="svg_2" fill="#ffc001"/>
<path d="M896 2349 c-15 -11 -36 -39 -47 -61 -39 -76 -31 -87 372 -496 197 -199 367 -375 378 -390 l19 -28 -376 -383 c-207 -211 -381 -393 -386 -405 -23 -58 -24 -74 -5 -116 22 -50 53 -77 96 -86 75 -15 73 -17 536 445 241 240 449 455 462 478 32 53 32 93 0 146 -13 23 -221 239 -462 480 l-439 437 -60 0 c-47 0 -68 -5 -88 -21z" id="svg_3" fill="#ffc001"/>
<path d="M1693 2346 c-16 -14 -35 -43 -42 -65 -25 -85 -24 -87 391 -507 208 -210 378 -388 378 -396 0 -7 -169 -182 -375 -388 -329 -329 -377 -381 -391 -422 -13 -40 -13 -54 -4 -85 35 -108 142 -135 234 -59 66 54 629 632 641 658 5 12 56 69 112 125 57 57 103 112 103 122 0 10 7 24 15 31 30 25 15 52 -90 157 -58 57 -105 112 -105 120 0 8 -21 38 -47 66 -117 124 -628 634 -652 649 -41 28 -132 24 -168 -6z" id="svg_4" fill="#ffc001"/>
</g></g></svg>