<svg xmlns="http://www.w3.org/2000/svg" version="1.0" width="280.000000" height="280.000000" preserveAspectRatio="xMidYMid meet"><rect id="backgroundrect" width="100%" height="100%" x="0" y="0" fill="none" stroke="none"/>


<g class="currentLayer" style=""><title>Layer 1</title><g transform="translate(0,280) scale(0.10000000149011612,-0.10000000149011612) " fill="#ffc001" stroke="none" id="svg_1" class="selected" fill-opacity="1">
<path d="M2240 2366 c-34 -14 -120 -40 -230 -72 -30 -9 -73 -22 -95 -29 -22 -7 -74 -23 -115 -35 -41 -12 -93 -28 -115 -35 -67 -21 -177 -55 -230 -70 -62 -18 -177 -53 -230 -70 -22 -7 -65 -20 -95 -29 -65 -19 -179 -53 -235 -71 -22 -7 -65 -20 -95 -29 -71 -20 -184 -55 -235 -71 -22 -7 -74 -23 -115 -35 -41 -12 -84 -26 -95 -30 -11 -5 -36 -12 -55 -16 -19 -3 -55 -15 -79 -26 l-46 -19 33 -28 c17 -16 75 -64 128 -107 53 -44 116 -95 139 -114 65 -54 75 -61 176 -140 52 -40 100 -80 107 -89 16 -20 85 -20 144 1 24 8 77 25 118 38 41 12 93 28 115 35 22 7 67 20 100 30 33 9 78 23 100 30 22 7 74 23 115 35 41 12 93 28 115 35 70 22 178 55 235 72 30 8 73 21 95 28 79 25 181 56 230 70 62 18 177 53 230 70 22 7 67 21 100 30 33 10 67 21 75 25 26 13 12 91 -41 245 -6 17 -15 46 -19 65 -4 19 -13 49 -19 65 -5 17 -20 64 -32 105 -12 41 -28 92 -37 113 -14 35 -17 37 -61 36 -25 0 -62 -6 -81 -13z" id="svg_2" fill="#ffc001"/>
<path d="M2375 1590 c-11 -4 -54 -18 -95 -30 -41 -12 -93 -28 -115 -35 -22 -7 -74 -23 -115 -35 -41 -12 -93 -27 -115 -34 -22 -7 -67 -21 -100 -31 -33 -9 -78 -23 -100 -30 -22 -7 -74 -23 -115 -35 -78 -23 -173 -53 -248 -76 -23 -8 -49 -14 -57 -14 -8 0 -29 -6 -47 -14 -30 -13 -70 -25 -238 -73 -30 -9 -71 -21 -90 -28 -82 -28 -139 -45 -155 -45 -14 0 -110 67 -147 103 -7 7 -58 49 -113 92 -55 44 -102 83 -103 87 -2 4 -8 8 -14 8 -13 0 -6 -58 15 -125 9 -27 25 -81 37 -120 11 -38 27 -90 34 -115 8 -25 22 -72 31 -105 9 -33 21 -68 26 -77 12 -21 45 -23 96 -4 21 7 63 20 93 29 59 17 169 51 235 72 22 7 74 23 115 35 41 12 93 28 115 35 22 7 67 21 100 30 33 10 78 24 100 31 23 8 47 14 55 14 7 0 102 -90 209 -200 l196 -201 306 1 c224 0 308 -3 317 -12 8 -8 12 -51 12 -129 0 -133 -2 -129 85 -129 93 0 85 -33 85 364 0 260 -3 355 -12 364 -13 13 -126 16 -144 4 -8 -4 -13 -53 -15 -130 -3 -95 -7 -125 -19 -132 -8 -6 -130 -10 -280 -10 l-265 0 -130 131 c-142 144 -142 142 -58 167 21 6 72 21 113 33 41 12 91 27 110 34 59 21 174 55 187 55 7 0 27 6 45 14 18 7 58 21 88 29 30 9 86 26 123 38 l69 22 -7 45 c-4 25 -15 66 -25 91 -18 48 -37 58 -75 41z" id="svg_3" fill="#ffc001"/>
<path d="M175 1362 c-56 -19 -81 -33 -83 -46 -3 -16 12 -76 53 -201 7 -22 23 -73 36 -113 12 -41 27 -76 34 -78 14 -6 115 20 152 38 24 12 28 19 25 48 -1 19 -9 53 -16 75 -8 22 -23 72 -35 110 -46 158 -59 190 -72 192 -8 1 -50 -10 -94 -25z" id="svg_4" fill="#ffc001"/>
</g></g></svg>