<svg xmlns="http://www.w3.org/2000/svg" xmlns:xlink="http://www.w3.org/1999/xlink" width="717" zoomAndPan="magnify" viewBox="0 0 537.75 516.000002" height="688" preserveAspectRatio="xMidYMid meet" version="1.0"><defs><clipPath id="id1"><path d="M 92 74.9375 L 415.050781 74.9375 L 415.050781 402 L 92 402 Z M 92 74.9375 " clip-rule="nonzero"/></clipPath><clipPath id="id2"><path d="M 286.230469 274.457031 L 459.347656 274.457031 L 459.347656 438.191406 L 286.230469 438.191406 Z M 286.230469 274.457031 " clip-rule="nonzero"/></clipPath><clipPath id="id3"><path d="M 284.5 271.886719 L 461.878906 271.886719 L 461.878906 439.886719 L 284.5 439.886719 Z M 284.5 271.886719 " clip-rule="nonzero"/></clipPath><clipPath id="id4"><path d="M 323 281.371094 L 455.855469 281.371094 L 455.855469 381 L 323 381 Z M 323 281.371094 " clip-rule="nonzero"/></clipPath><clipPath id="id5"><path d="M 289.5625 326 L 424 326 L 424 428 L 289.5625 428 Z M 289.5625 326 " clip-rule="nonzero"/></clipPath></defs><path fill="#33333f" d="M 409.703125 398.351562 L 101.574219 398.351562 C 98.664062 398.351562 96.308594 395.972656 96.308594 393.042969 L 96.308594 81.535156 C 96.308594 78.601562 98.664062 76.226562 101.574219 76.226562 C 104.480469 76.226562 106.835938 78.601562 106.835938 81.535156 L 106.835938 387.730469 L 409.703125 387.730469 C 412.609375 387.730469 414.964844 390.109375 414.964844 393.042969 C 414.964844 395.972656 412.609375 398.351562 409.703125 398.351562 Z M 409.703125 398.351562 " fill-opacity="0.9412" fill-rule="nonzero"/><g clip-path="url(#id1)"><path stroke-linecap="butt" transform="matrix(0.662599, 0, 0, 0.662599, 75.799618, 74.93569)" fill="none" stroke-linejoin="miter" d="M 503.93032 488.102284 L 38.89927 488.102284 C 34.507235 488.102284 30.95234 484.512016 30.95234 480.090504 L 30.95234 9.959977 C 30.95234 5.53257 34.507235 1.948197 38.89927 1.948197 C 43.28541 1.948197 46.840306 5.53257 46.840306 9.959977 L 46.840306 472.072829 L 503.93032 472.072829 C 508.31646 472.072829 511.871356 475.663096 511.871356 480.090504 C 511.871356 484.512016 508.31646 488.102284 503.93032 488.102284 Z M 503.93032 488.102284 " stroke="#000000" stroke-width="0.945" stroke-opacity="1" stroke-miterlimit="4"/></g><path stroke-linecap="round" transform="matrix(0.662599, 0, 0, 0.662599, 75.799618, 74.93569)" fill="none" stroke-linejoin="round" d="M 488.042354 417.358092 C 386.371159 419.085429 329.439771 348.624214 307.367583 274.118789 C 295.559198 234.248542 270.551127 152.161698 219.927762 151.395303 C 169.304397 150.623012 150.787105 227.286134 137.852709 258.77909 C 128.060533 282.625778 97.970671 356.187947 59.615528 356.187947 " stroke="#cc00cc" stroke-width="18.009001" stroke-opacity="1" stroke-miterlimit="4"/><path stroke-linecap="round" transform="matrix(0.662599, 0, 0, 0.662599, 75.799618, 74.93569)" fill="none" stroke-linejoin="round" d="M 59.615528 356.187947 C 161.286722 357.92118 215.317599 281.859383 246.427357 210.649459 C 262.84001 173.084293 285.366139 124.217742 326.963724 121.676847 C 364.558367 119.371765 383.830264 163.816804 396.76466 195.30976 C 406.562731 219.162343 448.920816 314.201269 487.275958 314.201269 " stroke="#1177ff" stroke-width="18.009001" stroke-opacity="1" stroke-miterlimit="4"/><g clip-path="url(#id2)"><path fill="#ffffff" d="M 286.230469 274.457031 L 459.34375 274.457031 L 459.34375 438.191406 L 286.230469 438.191406 L 286.230469 274.457031 " fill-opacity="1" fill-rule="nonzero"/></g><g clip-path="url(#id3)"><path fill="#33333f" d="M 455.480469 274.953125 C 457.308594 274.953125 458.808594 276.457031 458.808594 278.285156 L 458.808594 433.488281 C 458.808594 435.316406 457.308594 436.816406 455.480469 436.816406 L 290.894531 436.816406 C 289.066406 436.816406 287.566406 435.316406 287.566406 433.488281 L 287.566406 278.285156 C 287.566406 276.457031 289.066406 274.953125 290.894531 274.953125 L 455.480469 274.953125 M 455.480469 271.886719 L 290.894531 271.886719 C 287.371094 271.886719 284.5 274.757812 284.5 278.285156 L 284.5 433.488281 C 284.5 437.011719 287.371094 439.886719 290.894531 439.886719 L 455.480469 439.886719 C 459.003906 439.886719 461.875 437.011719 461.875 433.488281 L 461.875 278.285156 C 461.875 274.757812 459.003906 271.886719 455.480469 271.886719 " fill-opacity="1" fill-rule="nonzero"/></g><g clip-path="url(#id4)"><path fill="#0895cd" d="M 377.695312 282.039062 C 375.367188 282.539062 373.429688 284.316406 350.644531 307.097656 C 336.457031 321.265625 325.535156 332.597656 324.871094 333.875 C 323.097656 337.210938 323.207031 342.042969 325.148438 345.265625 C 327.253906 348.878906 356.964844 378.324219 359.515625 379.433594 C 362.230469 380.546875 367.277344 380.488281 369.546875 379.378906 C 372.042969 378.101562 374.316406 375.878906 375.535156 373.488281 C 376.808594 370.933594 376.921875 366.042969 375.703125 363.15625 C 375.203125 361.878906 370.824219 357.042969 363.949219 350.097656 L 353.03125 339.15625 L 366.886719 325.265625 L 380.691406 311.429688 L 392.386719 322.988281 C 401.253906 331.820312 404.527344 334.710938 406.242188 335.265625 C 409.347656 336.320312 444.714844 336.433594 447.59375 335.375 C 451.917969 333.875 455.300781 328.820312 455.355469 323.988281 C 455.410156 320.375 454.636719 318.265625 452.363281 315.929688 C 448.703125 312.042969 448.09375 311.929688 431.023438 311.542969 L 415.667969 311.265625 L 401.53125 297.207031 C 387.230469 283.039062 386.566406 282.484375 381.855469 281.761719 C 380.96875 281.597656 379.082031 281.707031 377.695312 282.039062 Z M 377.695312 282.039062 " fill-opacity="1" fill-rule="nonzero"/></g><g clip-path="url(#id5)"><path fill="#09487e" d="M 378.527344 326.875 C 372.652344 328.375 368.828125 333.152344 368.828125 338.988281 C 368.882812 343.820312 370.269531 345.820312 382.296875 357.933594 L 393.496094 369.15625 L 379.359375 383.324219 C 371.597656 391.101562 365.058594 397.492188 364.835938 397.492188 C 364.613281 397.492188 359.292969 392.378906 353.03125 386.15625 C 343.605469 376.824219 341.113281 374.65625 339.003906 373.933594 C 336.898438 373.210938 333.296875 373.046875 317.609375 373.046875 L 298.707031 373.046875 L 295.824219 374.710938 C 291.722656 377.046875 289.839844 380.433594 289.839844 385.269531 C 289.839844 390.101562 291.722656 393.492188 295.824219 395.824219 L 298.707031 397.492188 L 329.195312 397.492188 L 343.050781 411.4375 C 350.703125 419.101562 357.851562 425.824219 358.960938 426.4375 C 362.066406 428.046875 365.445312 428.324219 368.660156 427.269531 C 371.101562 426.4375 373.925781 423.769531 396.652344 400.933594 C 416.71875 380.769531 422.042969 375.101562 422.597656 373.433594 C 423.703125 369.988281 423.09375 364.65625 421.320312 362.101562 C 418.769531 358.378906 388.617188 328.710938 386.566406 327.875 C 383.960938 326.765625 380.578125 326.375 378.527344 326.875 Z M 378.527344 326.875 " fill-opacity="1" fill-rule="nonzero"/></g></svg>