<svg xmlns="http://www.w3.org/2000/svg" width="500" height="500" preserveAspectRatio="xMidYMid meet" version="1.0" style=""><rect id="backgroundrect" width="100%" height="100%" x="0" y="0" fill="none" stroke="none"/>

 <g style="" class="currentLayer">
  <title>Layer 1</title>
  <path id="svg_2" d="m243.5,85.69999c-30.4,3.8 -61.2,17.8 -84.3,38.3c-9.7,8.5 -16.9,16.8 -13.7,15.6c8.1,-3.1 25.3,-7.9 32.9,-9.1c32,-5.2 68.6,3.6 99.4,23.8c19.5,12.8 45.8,37.4 55.2,51.6c11.9,17.9 15.8,41.4 10.5,62.2c-2.3,8.9 -8.3,21.2 -13.9,28.6c-11.6,15.3 -32.6,27.4 -51.8,29.8c-7.5,0.9 -6.8,2.5 3.1,7.4c18.5,9.3 30.2,11.9 52.6,11.6c19.2,-0.2 29.1,-2.2 44.5,-8.9c17.1,-7.4 22.5,-11.9 65.7,-55l40.2,-40.1l-58.7,-59c-58.9,-59.2 -67.4,-67 -84,-76.9c-14.2,-8.5 -36.7,-16.5 -54.2,-19.1c-8.6,-1.4 -35.4,-1.8 -43.5,-0.8z" class="" fill-opacity="1" fill="#0895cd"/>
  <path id="svg_3" d="m142,156.09999c-15.9,3.4 -31.6,10.6 -45.6,21.3c-3.2,2.5 -23,21.6 -43.9,42.5l-38,38.1l59.5,59.6c60.5,60.5 67.9,67.2 84.6,76.7c36.9,21.2 84.5,25.7 125.7,12c19.6,-6.5 38.8,-17.6 53.9,-31c9.1,-8.1 17.3,-17.1 14.3,-15.8c-7.2,3 -22.5,7.6 -30.1,9.1c-11.8,2.2 -38.8,1.5 -51.4,-1.4c-20.7,-4.8 -42.3,-15.2 -61.7,-29.6c-12.6,-9.3 -37.9,-33.7 -43.5,-41.9c-16.4,-24.1 -18.6,-54.7 -5.7,-80.3c7.5,-15.1 18.8,-26.4 34.1,-34.4c8,-4.2 20.6,-8 26.4,-8c5.9,0 4.6,-1.7 -4.9,-6.3c-24.3,-11.8 -50,-15.5 -73.7,-10.6z" class="selected" fill-opacity="1" fill="#09487e"/>
  <path id="svg_4" d="m240,192.6c-23.6,4.6 -41.5,21.1 -47.6,43.9c-1.8,6.7 -1.8,21.7 0.1,28.8c8.1,31.3 40.6,50.2 71.5,41.6c16.5,-4.5 29.8,-15.4 36.9,-30.1c5,-10.5 6.5,-18.2 5.8,-30.1c-1.4,-24.4 -16.2,-43.3 -40.4,-51.8c-5.7,-2 -20.9,-3.3 -26.3,-2.3z" class="" fill-opacity="1" fill="#ffc001"/>
 </g>
</svg>