<svg xmlns="http://www.w3.org/2000/svg" version="1.0" width="280.000000" height="280.000000" preserveAspectRatio="xMidYMid meet" style=""><rect id="backgroundrect" width="100%" height="100%" x="0" y="0" fill="none" stroke="none"/>


<g class="currentLayer" style=""><title>Layer 1</title><g transform="translate(0,280) scale(0.10000000149011612,-0.10000000149011612) " fill="#ffc001" stroke="none" id="svg_1" class="selected" fill-opacity="1">
<path d="M1394 2695 c-4 -8 -16 -15 -29 -15 -12 0 -30 -9 -40 -20 -10 -11 -26 -20 -35 -20 -10 0 -23 -7 -30 -15 -7 -8 -25 -15 -39 -15 -15 0 -36 -7 -47 -15 -10 -8 -26 -15 -35 -15 -9 0 -28 -9 -42 -20 -14 -11 -34 -20 -45 -20 -11 0 -22 -7 -26 -15 -3 -10 -19 -15 -44 -15 -23 0 -45 -6 -52 -15 -7 -8 -29 -15 -50 -15 -24 0 -43 -7 -55 -20 -14 -16 -31 -20 -80 -20 -43 0 -66 -5 -75 -15 -9 -11 -33 -15 -90 -15 -56 0 -81 -4 -90 -15 -7 -8 -34 -15 -68 -17 l-57 -3 -3 -223 c-2 -183 0 -227 13 -252 11 -22 15 -64 15 -172 0 -126 3 -147 20 -173 13 -20 20 -47 20 -81 0 -34 5 -56 15 -64 10 -8 15 -30 15 -65 0 -35 5 -57 15 -65 8 -7 15 -27 15 -45 0 -18 9 -44 20 -58 11 -14 20 -36 20 -49 0 -12 7 -32 15 -42 8 -11 15 -30 15 -42 0 -12 7 -27 15 -34 8 -7 15 -19 15 -27 0 -8 9 -26 20 -40 11 -14 20 -32 20 -39 0 -7 14 -28 30 -46 17 -18 30 -40 30 -49 0 -9 9 -24 20 -34 11 -10 20 -26 20 -35 0 -9 13 -29 28 -46 16 -16 39 -47 52 -69 29 -49 323 -345 343 -345 8 0 34 -18 57 -40 23 -22 48 -40 54 -40 7 0 27 -13 46 -30 19 -16 44 -29 54 -30 10 0 25 -8 32 -17 13 -17 15 -17 28 0 7 9 22 17 33 17 11 0 26 7 33 15 7 8 20 15 30 15 10 0 23 6 29 14 7 8 31 24 53 36 23 12 81 61 129 108 48 48 104 103 126 122 80 74 203 214 203 232 0 10 7 21 15 24 8 4 15 16 15 28 0 12 16 37 35 56 19 19 35 44 35 56 0 12 7 24 15 28 8 3 15 16 15 29 0 13 9 32 20 42 11 10 20 26 20 35 0 10 7 23 15 30 8 7 15 23 15 35 0 13 7 25 15 29 10 3 15 19 15 44 0 26 7 45 20 57 13 12 20 31 20 55 0 21 7 43 15 50 8 7 15 29 15 50 0 24 5 40 15 44 11 4 15 21 15 61 0 43 4 59 20 72 17 15 20 30 20 104 0 65 4 90 15 99 13 11 15 61 15 335 0 354 3 335 -60 335 -15 0 -33 7 -40 15 -9 11 -34 15 -100 15 -66 0 -91 4 -100 15 -8 10 -30 15 -63 15 -32 0 -57 6 -68 16 -10 9 -37 18 -61 21 -24 3 -52 12 -63 19 -11 8 -32 14 -48 14 -15 0 -30 7 -33 15 -4 10 -20 15 -44 15 -24 0 -43 7 -55 20 -10 11 -28 20 -40 20 -13 0 -25 7 -29 15 -3 8 -16 15 -29 15 -14 0 -30 7 -37 15 -7 8 -19 15 -27 15 -8 0 -26 9 -40 20 -14 11 -32 20 -40 20 -8 0 -21 7 -29 15 -9 8 -24 15 -35 15 -11 0 -22 -7 -25 -15z m793 -630 l43 -45 0 -78 0 -77 -460 -461 c-278 -280 -469 -464 -485 -468 -14 -4 -25 -11 -25 -16 0 -16 -86 -12 -100 5 -7 8 -21 15 -31 15 -21 0 -369 344 -369 365 0 7 -7 18 -15 25 -21 18 -21 172 0 190 8 7 15 21 15 31 0 14 9 21 30 25 16 4 35 13 41 20 15 19 73 18 89 -1 7 -8 21 -15 32 -15 12 0 66 -47 134 -115 64 -63 119 -115 123 -115 4 0 171 164 371 365 256 256 371 365 386 365 12 0 24 7 28 15 4 11 23 15 77 15 l72 0 44 -45z" id="svg_2" fill="#ffc001"/>
</g></g></svg>