<svg xmlns="http://www.w3.org/2000/svg" width="280" height="280" preserveAspectRatio="xMidYMid meet" version="1.0"><rect id="backgroundrect" width="100%" height="100%" x="0" y="0" fill="none" stroke="none"/>

 <g style="" class="currentLayer">
  <title>Layer 1</title>
  <path id="svg_2" d="m152.6,16.6c-1.4,1.4 -1.6,7.6 -1.6,53l0,51.4l2.5,1c3.2,1.2 103.5,1.4 104.7,0.2c1.3,-1.3 1,-104.2 -0.3,-105.9c-0.9,-1 -10.7,-1.3 -52.5,-1.3c-45.3,0 -51.4,0.2 -52.8,1.6z" class="" fill-opacity="1" fill="#ffc001"/>
  <path id="svg_3" d="m63.5,32c-1.4,2.3 -3,5.1 -3.6,6.3c-0.5,1.2 -1.8,3.5 -2.9,5.2c-1.1,1.6 -2.7,4.3 -3.5,6c-0.8,1.6 -2,3.7 -2.5,4.5c-1.5,2.3 -13.5,23.3 -14.3,25c-0.4,0.8 -1.6,2.8 -2.7,4.5c-1.1,1.6 -2.4,3.9 -2.9,5c-0.9,2 -9.3,16.6 -11.1,19.5c-0.6,0.8 -1.6,2.6 -2.2,4c-0.7,1.4 -1.6,2.7 -2,3c-0.4,0.3 -1.2,1.7 -1.7,3c-0.6,1.4 -1.5,3.2 -2.1,4c-4.4,6.7 -6.9,12.1 -5.7,12.5c0.6,0.3 28.4,0.4 61.7,0.3l60.5,-0.3l-0.3,-2.5c-0.2,-1.4 -0.9,-3.1 -1.5,-3.9c-1.2,-1.4 -1.8,-2.5 -6.1,-10.3c-1.5,-2.9 -4.1,-7.2 -5.7,-9.6c-1.6,-2.4 -2.9,-4.6 -2.9,-4.9c0,-0.4 -7.8,-14.1 -11.1,-19.3c-0.5,-0.8 -1.3,-2.4 -1.8,-3.6c-0.5,-1.1 -2.8,-5.2 -5.1,-8.9c-2.3,-3.7 -4.6,-7.8 -5.1,-8.9c-0.5,-1.2 -1.8,-3.5 -2.8,-5.1c-1.1,-1.7 -2.9,-4.8 -4.1,-7c-6.9,-12.6 -13.3,-22.5 -14.5,-22.5c-0.8,0 -2.6,1.8 -4,4z" class="" fill-opacity="1" fill="#0895cd"/>
  <path id="svg_4" d="m142,141c-22.3,5.8 -39,21.8 -47.1,45c-3.1,8.7 -3.3,27.4 -0.6,36.5c4.9,15.7 15.3,30.2 27.9,38.6c3.3,2.1 6.2,3.9 6.6,3.9c0.4,0 2,0.7 3.6,1.5c5.6,2.9 17.8,5.5 26.1,5.5c8.7,0 19.9,-2.4 27.5,-6c13.8,-6.4 26.4,-18.4 31.9,-30.5c1.2,-2.8 2.7,-5.8 3.2,-6.8c0.5,-0.9 1.2,-3.9 1.5,-6.5c0.3,-2.6 1,-6.5 1.5,-8.7c1.6,-6.4 -3,-34.3 -6.3,-38c-0.4,-0.5 -0.8,-1.6 -0.8,-2.6c0,-0.9 -1,-2.7 -2.2,-4.1c-1.3,-1.4 -4.5,-5.1 -7.1,-8.2c-5,-5.7 -15.1,-13.1 -22.2,-16.1c-12.9,-5.6 -30.4,-7 -43.5,-3.5z" class="selected" fill-opacity="1" fill="#88ce28"/>
 </g>
</svg>