<?xml version="1.0" encoding="UTF-8" standalone="no"?>
<!DOCTYPE svg PUBLIC "-//W3C//DTD SVG 1.1//EN" "http://www.w3.org/Graphics/SVG/1.1/DTD/svg11.dtd">
<!-- Created with Vectornator (http://vectornator.io/) -->
<svg height="100%" stroke-miterlimit="10" style="fill-rule:nonzero;clip-rule:evenodd;stroke-linecap:round;stroke-linejoin:round;" version="1.1" viewBox="0 0 598.05 491.442" width="100%" xml:space="preserve" xmlns="http://www.w3.org/2000/svg" xmlns:vectornator="http://vectornator.io" xmlns:xlink="http://www.w3.org/1999/xlink">
<defs>
<clipPath id="TextBounds">
<rect height="93.3464" transform="matrix(1 0 0 1 18.1854 394.076)" width="559.535" x="0" y="0"/>
</clipPath>
</defs>
<g id="Layer-1" vectornator:layerName="Layer 1" visibility="hidden">
<g opacity="1">
<path d="M492.207 106.402C470.58 106.953 449.039 107.745 427.381 108.146C424.473 108.2 421.556 108.165 418.661 108.436C418.388 108.462 418.092 108.744 418.079 109.018C417.895 112.986 418.164 116.964 418.079 120.936C418.046 122.492 415.993 129.208 418.951 129.948C423.937 131.195 429.233 130.145 434.358 130.529C437.481 130.764 450.951 132.245 452.091 137.506C453.712 144.988 451.946 152.817 451.8 160.471C451.664 167.641 451.509 174.812 451.509 181.983C451.509 197.673 452.291 213.403 452.382 229.076C452.57 261.634 452.672 294.192 452.672 326.751C452.672 343.128 452.091 359.502 452.091 375.879C452.091 384.714 455.265 395.143 452.672 403.786C450.139 412.231 434.933 411.434 429.126 411.635C425.832 411.748 422.527 411.652 419.242 411.925C416.906 412.12 418.436 416.559 418.37 418.902C418.231 423.843 418.079 428.785 418.079 433.728C418.079 433.944 418.234 434.14 418.37 434.309C419.844 436.152 424.86 434.6 426.219 434.6C429.224 434.6 432.225 434.891 435.23 434.891C445.766 434.891 456.438 434.018 466.916 434.018C485.563 434.018 505.584 433.728 524.475 433.728C525.642 433.728 526.816 434.233 527.963 434.018C530.548 433.534 529.364 413.754 528.254 413.088C526.341 411.94 523.796 412.904 521.568 412.797C519.533 412.701 517.483 412.77 515.463 412.507C508.564 411.607 499.936 409.701 494.823 404.077C493.567 402.695 494.505 398.706 494.533 397.1C494.71 386.733 494.677 376.363 494.823 365.995C495.143 343.289 495.405 317.455 495.405 296.809C495.405 243.981 496.277 190.986 496.277 138.088C496.277 133.525 507.279 130.748 510.23 130.529C512.646 130.351 515.076 130.577 517.498 130.529C520.019 130.48 522.538 130.368 525.056 130.239C526.318 130.174 527.623 130.305 528.835 129.948C530.947 129.327 530.022 125.619 529.998 124.716C529.938 122.486 529.707 120.26 529.707 118.029C529.707 114.733 530.257 111.431 529.998 108.146C529.871 106.533 527.315 106.699 526.51 106.692C515.075 106.6 503.638 106.11 492.207 106.402Z" fill="#589b38" fill-rule="nonzero" opacity="1" stroke="none"/>
<path d="M491.335 282.565C490.544 283.356 490.963 283.809 490.172 284.6C487.719 282.147 492.136 269.556 487.556 268.03C487.556 262.022 487.647 256.014 487.556 250.006C487.5 246.292 486.349 235.85 487.556 233.437C485.072 230.953 481.784 226.085 483.486 222.681C484.12 221.414 487.826 220.957 489.01 219.774C490.019 220.581 493.187 220.239 493.37 221.518C493.699 223.82 493.699 226.193 493.37 228.495C493.187 229.775 491.047 229.792 490.754 231.111C490.549 232.03 491.038 235.29 491.044 235.762C491.225 249.037 491.049 262.315 491.335 275.588C491.341 275.862 491.723 275.975 491.916 276.169C494.091 273.994 491.65 270.865 492.498 268.32C492.514 268.272 493.929 267.147 493.951 266.576C494.041 264.252 493.773 261.918 493.951 259.599C494.505 252.407 494.533 240.477 494.533 230.82C494.533 199.813 494.438 168.805 494.533 137.797C494.566 126.817 521.203 128.713 527.382 127.622C529.603 127.23 527.921 119.965 527.963 118.611C528.054 115.704 528.345 112.797 528.254 109.89C528.245 109.616 527.945 109.332 527.672 109.309C514.543 108.167 501.316 109.018 488.137 109.018C466.342 109.018 444.619 110.471 422.73 110.471C421.978 110.471 420.198 109.741 419.823 111.053C419.367 112.65 419.514 126.998 420.405 127.332C427.733 130.08 452.354 123.649 454.416 138.088C455.478 145.517 453.835 153.147 453.835 160.471C453.835 167.351 453.835 174.231 453.835 181.111C453.835 181.305 453.788 181.504 453.835 181.692C454.496 184.338 454.126 187.427 454.126 189.832C454.126 201.363 454.251 212.895 454.416 224.425C454.94 260.78 454.945 297.607 454.707 334.309C454.612 348.941 454.416 363.572 454.416 378.204C454.416 385.179 455.173 392.151 454.707 399.135C454.559 401.36 455.308 403.776 454.416 405.821C449.393 417.344 429.512 412.488 420.695 414.251C420.427 414.305 420.189 414.569 420.114 414.832C419.721 416.207 420.385 432.119 421.277 432.565C421.624 432.738 422.052 432.57 422.44 432.565C429.416 432.473 436.393 432.369 443.37 432.274C444.633 432.257 445.886 431.984 447.149 431.984C466.415 431.984 485.501 431.839 504.707 431.402C508.487 431.316 512.264 431.111 516.044 431.111C519.538 431.111 523.084 432.378 526.51 431.693C528.258 431.343 527.216 426.727 527.091 423.844C526.977 421.228 527.146 418.59 526.8 415.995C526.579 414.337 523.528 415.025 521.858 415.123C516.203 415.456 510.664 414.206 505.289 413.379C501.669 412.822 494.92 408.631 493.079 404.949C492.026 402.842 493.013 399.638 493.079 397.39C493.17 394.291 493.17 391.188 493.079 388.088C493.073 387.872 492.789 387.723 492.789 387.507C492.789 353.421 493.35 322.079 493.079 286.634C493.073 285.866 492.114 283.343 491.335 282.565Z" fill="#64c537" fill-rule="nonzero" opacity="1" stroke="none"/>
<path d="M89.8808 345.937C86.9395 348.878 84.5847 334.636 84.0669 332.565C81.778 323.409 79.2524 314.47 76.7994 304.658C76.1138 301.915 73.7464 298.695 73.311 296.227C73.1233 295.164 73.8264 288.636 72.1483 287.797C70.7992 287.123 67.6679 296.177 66.9157 297.681C63.7841 303.944 62.3318 310.896 59.6482 317.158C58.7257 319.31 55.7543 324.023 56.4505 326.46C56.6755 327.248 58.2605 328.68 58.7761 329.367C60.7236 327.42 60.7118 324.234 62.8459 322.1C65.4023 323.804 60.686 332.877 59.6482 335.472C56.3847 343.63 52.5959 351.105 49.7645 359.6C48.1539 364.432 46.3155 372.932 42.7877 376.46C41.2036 374.876 43.5551 373.821 43.0784 372.39C42.9024 371.862 41.0633 368.631 40.7528 368.321C38.9101 370.163 39.5077 373.219 38.718 375.588C37.7113 378.608 36.4169 381.462 35.5203 384.6C32.0974 396.58 26.4235 408.154 23.0202 420.065C21.9096 423.952 17.0988 431.37 18.3691 435.181C34.2645 435.181 49.737 434.6 66.0436 434.6C66.8474 434.6 68.0691 434.627 68.6599 434.309C71.3033 432.886 74.9774 419.823 76.5087 415.995C83.1235 399.458 89.3494 382.585 95.9855 365.995C97.1525 363.078 103.905 348.623 102.09 346.809C103.218 345.117 104.515 346.163 106.16 346.228C110.809 346.41 115.462 346.448 120.113 346.518C128.253 346.642 136.394 346.622 144.532 346.809C144.785 346.815 145.974 347.215 145.986 347.681C146.174 355.237 145.891 362.798 145.986 370.356C145.995 371.116 147.772 375.774 149.183 374.716C165.973 362.124 178.599 342.947 190.172 325.588C193.224 321.01 199.765 314.561 199.765 309.018C199.765 307.524 193.046 300.256 191.916 298.844C184.496 289.569 177.647 279.879 169.823 270.937C163.866 264.129 157.91 256.989 151.509 250.588C151.262 250.341 150.968 250.117 150.637 250.006C147.818 249.067 148.634 256.819 148.602 257.565C148.374 262.803 148.243 270.867 147.73 276.169C147.703 276.442 147.422 276.742 147.148 276.751C127.952 277.37 109.255 276.191 89.5901 276.46C87.3219 276.491 88.8285 276.684 87.2646 277.623C86.044 278.355 76.8226 275.579 76.7994 275.588C72.5915 277.271 75.0306 290.859 75.6366 294.193C77.9273 306.791 81.9783 318.106 84.939 329.948C86.0283 334.306 86.537 342.593 89.8808 345.937Z" fill="#64c537" fill-rule="nonzero" opacity="1" stroke="none"/>
<path d="M145.114 346.809C144.92 346.615 144.806 346.234 144.532 346.228C136.492 346.038 128.447 346.289 120.404 346.228C111.636 346.161 99.339 346.201 90.4622 345.355C88.7988 345.197 86.2385 331.744 85.5204 329.948C83.9576 326.042 83.212 321.16 82.3227 317.158C80.5726 309.282 77.7525 301.179 76.218 292.739C75.0445 286.285 73.6664 281.741 77.3808 276.169C80.8079 278.911 85.7624 277.381 89.2994 277.332C95.9856 277.24 102.672 277.136 109.358 277.041C115.594 276.954 122.812 279.299 128.834 278.204C129.239 278.131 129.296 277.351 129.706 277.332C135.708 277.055 141.725 277.52 147.73 277.332C148.004 277.324 148.117 276.944 148.311 276.751C142.949 271.388 131.868 280.075 127.09 275.297C130.523 268.431 133.776 258.262 133.776 250.588C133.776 247.581 128.98 244.665 126.8 243.03C120.123 238.022 110.587 233.173 103.253 230.239C101.311 229.462 96.2444 226.117 94.2413 227.041C90.9431 228.564 89.9149 234.805 88.718 237.797C84.9623 247.186 81.4228 256.617 77.6715 265.995C69.2258 287.109 61.198 308.051 52.6715 329.367C49.7352 336.708 47.0213 344.283 44.5319 351.751C44.0748 353.122 44.2528 356.088 43.9505 356.693C43.4231 357.747 42.2545 357.372 41.9156 358.728C39.1511 369.786 32.6907 381.015 30.5784 391.576C28.3074 402.931 21.9408 414.208 19.2412 425.007C18.8363 426.626 14.9268 435.243 15.7528 436.344C17.0744 438.106 33.2825 437.472 36.1017 437.216C45.7537 436.339 55.4812 436.809 65.1715 436.635C66.2549 436.615 69.519 436.936 70.9855 435.763C73.858 433.465 77.7626 419.547 79.4157 415.414C84.4446 402.841 89.7043 389.256 94.8227 376.46C98.413 367.484 100.719 357.11 104.997 348.553C105.12 348.308 105.305 347.988 105.579 347.972C108.674 347.79 111.78 348.013 114.881 347.972C124.766 347.84 134.658 347.876 144.532 347.39C144.806 347.377 144.92 347.003 145.114 346.809Z" fill="#589b38" fill-rule="nonzero" opacity="1" stroke="none"/>
<path d="M256.451 232.855C250.498 238.808 239.566 243.151 231.451 244.774C228.865 245.291 220.92 244.81 220.695 245.937C220.124 248.793 224.171 250.2 226.218 250.297C229.801 250.468 233.398 250.313 236.974 250.588C239.922 250.815 243.962 249.889 245.404 253.495C247.73 259.308 251.797 265.403 253.253 271.227C256.751 285.218 260.91 298.564 262.846 313.088C263.385 317.13 265.006 331.921 263.137 332.855C262.906 332.971 258.384 331.231 257.904 331.111C251.393 329.483 246.038 328.701 239.881 325.007C218.937 312.44 207.728 290.746 204.997 268.902C204.528 265.147 204.61 261.344 204.416 257.565C204.293 255.16 201.757 250.34 204.416 247.681C206.46 248.703 211.932 250.92 213.718 249.134C212.401 247.817 202.543 244.406 201.8 245.646C199.954 248.723 200.651 263.377 200.928 266.286C202.608 283.927 209.221 300.015 221.567 313.088C228.46 320.386 234.695 325.757 243.079 329.948C245.225 331.021 255.884 333.068 256.16 333.437C257.598 335.353 258.155 338.425 259.067 340.704C261.576 346.977 264.028 354.399 267.497 360.181C270.765 365.628 273.453 372.889 275.928 379.076C280.899 391.504 287.114 404.356 293.079 416.286C295.648 421.424 297.961 431.666 301.8 436.053C305.875 440.71 315.601 437.943 320.114 437.797C329.724 437.488 339.26 436.945 348.893 436.635C349.292 436.622 349.709 436.542 350.056 436.344C351.592 435.466 347.924 424.619 346.567 423.263C346.131 423.699 346.131 423.699 345.695 424.135C343.528 421.968 342.993 415.99 341.335 413.088C336.696 404.97 332.69 393.911 329.416 385.181C327.274 379.469 323.453 374.368 320.986 368.611C316.578 358.326 309.705 346.979 306.16 336.344C305.025 332.938 302.118 329.769 301.218 326.169C300.891 324.858 299.729 324.064 299.184 322.972C296.917 318.439 294.613 313.621 293.079 309.018C292.26 306.562 290.136 304.479 289.591 301.751C289.329 300.442 288.089 299.619 287.556 298.553C285.557 294.557 283.516 290.229 282.323 286.053C281.887 284.528 279.987 282.924 279.416 281.402C275.334 270.516 269.073 260.175 264.59 249.716C262.646 245.178 260.91 235.828 256.451 232.855Z" fill="#64c537" fill-rule="nonzero" opacity="1" stroke="none"/>
<path d="M159.358 85.7619C160.439 87.2042 159.827 86.656 161.102 87.5061C157.736 90.8716 155.489 86.8928 154.416 87.5061C149.249 90.4584 150.252 97.7747 146.567 101.46C143.241 98.1341 150.809 91.2533 148.311 87.5061C143.548 92.2692 142.25 100.511 138.718 106.692C133.859 115.196 129.331 124.637 125.927 133.146C124.55 136.59 124.146 143.566 120.986 145.936C120.484 146.313 117.728 143.959 117.206 143.611C113.534 141.163 109.573 139.597 105.869 136.634C106.305 136.198 106.305 136.198 106.741 135.762C105.219 134.24 101.266 130.166 99.4739 132.855C97.8682 135.264 101.618 152.296 102.381 156.111C105.724 172.827 107.968 187.94 111.683 204.658C112.883 210.058 113.871 219.082 118.369 222.681C120.098 224.064 131.563 219.736 134.067 218.902C145.305 215.156 156.78 210.265 167.497 206.692C172.068 205.169 180.527 204.128 184.067 200.588C183.027 199.548 183.32 199.22 182.904 197.971C181.435 193.564 175.583 189.887 172.148 187.216C170.544 185.967 165.388 183.059 165.172 181.111C164.807 177.827 165.061 180.126 166.625 177.623C167.244 176.633 166.497 175.223 166.916 174.134C168.082 171.102 169.954 168.217 170.986 165.123C175.956 150.211 183.253 137.071 189.009 122.681C190.769 118.282 192.797 113.942 194.823 109.89C195.68 108.177 198.924 109.239 198.602 106.983C197.169 96.9549 186.665 92.4012 177.672 89.8317C176.255 89.4268 173.549 88.3255 172.439 87.2154C172.875 86.7794 172.875 86.7794 173.311 86.3433C171.762 84.7936 163.011 83.5763 161.393 84.0178C160.531 84.2528 160.072 85.2259 159.358 85.7619Z" fill="#64c537" fill-rule="nonzero" opacity="1" stroke="none"/>
<path d="M241.916 211.344C242.207 211.634 242.207 211.634 242.497 211.925C236.493 217.93 231.968 222.603 225.056 226.751C219.966 229.804 214.084 231.895 208.776 234.018C207.787 234.414 205.979 234.494 204.997 235.181C202.941 236.62 201.531 239.042 199.474 240.413C200.416 241.669 211.14 243.767 213.428 243.902C215.944 244.05 218.466 244.102 220.986 244.192C224.768 244.328 228.863 245.524 232.614 244.774C239.865 243.324 246.677 240.34 252.672 236.344C251.816 235.488 251.202 236.036 250.346 235.181C251.388 234.139 251.553 234.556 252.963 233.146C251.8 231.983 251.8 231.983 250.637 230.82C251.773 229.116 251.911 228.316 250.346 226.751C255.98 220.178 261.584 213.357 266.916 206.692C269.018 208.794 265.347 212.358 264.59 214.251C264.192 215.248 265.824 216.972 266.335 217.739C268.107 215.966 268.211 213.986 269.242 211.925C274.592 201.224 277.015 189.627 279.416 177.623C279.747 175.967 282.011 165.548 280.579 164.832C280.5 164.792 271.714 168.087 270.404 168.611C259.403 173.012 247.69 178.336 236.393 182.855C233.494 184.015 229.601 187.998 227.09 190.123C217.286 198.419 209.035 207.339 203.544 218.32C202.577 220.253 196.429 233.171 199.765 233.727C200.95 233.925 205.291 230.529 206.742 229.948C219.469 224.857 231.301 220.442 241.916 211.344Z" fill="#3f6a2b" fill-rule="nonzero" opacity="1" stroke="none"/>
<path d="M221.276 252.913C222.742 255.845 223.256 260.133 224.183 263.379C226.637 271.966 232.14 284.285 237.846 290.704C237.556 290.995 237.556 290.995 237.265 291.286C226.268 283.955 222.674 269.663 217.497 259.309C216.208 256.73 216.03 253.108 214.59 250.588C213.765 249.144 212.181 249.816 210.811 249.425C208.937 248.889 205.737 246.782 203.835 247.099C203.564 247.145 203.269 247.407 203.253 247.681C203.071 250.776 203.071 253.888 203.253 256.983C203.577 262.489 203.75 269.973 204.997 275.588C208.847 292.911 218.582 306.905 232.032 320.355C234.885 323.208 240.283 326.924 244.242 327.914C249.728 329.285 255.585 333.277 261.102 332.274C262.829 331.96 261.731 328.796 261.683 327.041C261.513 320.72 260.774 314.409 259.939 308.146C257.931 293.087 254.716 280.408 249.183 266.576C248.235 264.206 244.766 253.902 243.37 253.204C242.87 252.954 241.718 253.477 241.335 253.495C237.558 253.67 233.778 253.786 229.997 253.786C227.3 253.786 223.356 250.834 221.276 252.913Z" fill="#cbee19" fill-rule="nonzero" opacity="1" stroke="none"/>
<path d="M173.021 86.0526C172.292 86.7808 172.005 86.4873 171.276 87.2154C176.37 92.3094 186.89 92.7798 192.497 96.5178C195.705 98.6564 196.376 103.984 198.021 107.274C196.813 108.482 195.321 108.163 194.242 109.89C191.089 114.934 188.731 122.066 186.393 127.913C184.952 131.516 182.681 134.375 181.16 137.797C177.757 145.454 175.04 154.113 171.567 162.216C170.546 164.599 168.891 167.047 168.079 169.483C167.834 170.218 168.384 171.096 168.079 171.809C167.755 172.564 166.623 172.783 166.334 173.553C165.2 176.578 167.037 175.636 166.044 177.623C164.857 179.995 164.183 177.043 164.59 181.111C164.817 183.375 170.057 186.396 171.858 187.797C177.171 191.93 180.281 196.217 183.776 200.878C185.823 198.832 183.764 196.321 182.323 194.774C179.707 191.964 177.189 189.058 174.474 186.344C172.283 184.153 169.225 182.996 167.207 180.53C166.514 179.683 168.656 176.183 168.951 175.297C170.237 171.437 171.599 164.218 174.474 161.343C176.911 163.78 178.059 167.642 179.416 170.355C182.366 176.255 185.22 181.673 188.428 188.088C188.976 189.186 193.058 197.961 193.66 198.262C194.839 198.852 196.818 195.395 197.439 194.774C201.48 190.733 205.839 186.116 210.23 182.274C215.247 177.884 220.049 173.036 224.765 168.32C225.599 167.486 228.836 165.127 228.544 163.669C227.909 160.496 225.582 157.163 224.183 154.367C222.675 151.35 222.217 147.504 220.404 144.483C215.364 136.082 211.209 125.511 206.742 116.576C203.371 109.835 200.746 100.697 195.404 95.355C194.364 94.3144 192.337 94.1279 191.044 93.6108C184.939 91.1689 178.799 88.9417 173.021 86.0526Z" fill="#589b38" fill-rule="nonzero" opacity="1" stroke="none"/>
<path d="M507.905 15.9944C503.247 18.3234 499.146 24.6673 494.823 28.2037C484.198 36.8975 472.031 44.7194 465.754 57.2735C464.625 59.5314 462.877 61.2232 462.265 63.6689C461.287 67.5817 455.304 79.194 457.614 82.2736C459.425 84.6883 461.131 81.0165 462.556 79.948C467.541 76.209 472.537 72.2796 477.091 68.0294C478.945 66.2989 480.821 64.5901 482.614 62.7968C483.246 62.1651 483.777 61.4402 484.358 60.7619C484.649 61.0526 484.649 61.0526 484.94 61.3433C481.088 69.0475 473.482 74.6955 466.916 79.948C465.301 81.2403 459.94 84.5194 459.94 87.2154C459.94 89.4131 466.805 88.1604 467.789 88.0875C474.622 87.5813 482.122 82.3947 488.137 78.7852C509.765 65.8088 511.103 48.3551 511.103 24.7153C511.103 22.5053 509.469 17.5586 507.905 15.9944Z" fill="#3f6a2b" fill-rule="nonzero" opacity="1" stroke="none"/>
<path d="M282.032 161.343C279.742 163.633 276.432 164.835 273.893 166.867C275.578 168.552 278.446 166.965 279.997 165.413C282.555 167.971 277.635 181.33 277.091 184.599C273.886 203.825 267.401 223.326 249.183 235.472C251.594 237.883 254.445 234.774 256.451 233.437C260.275 237.26 261.951 244.914 264.009 249.716C268.451 260.079 274.259 270.724 278.835 281.402C281.417 287.427 284.131 292.867 286.974 298.553C287.507 299.619 288.747 300.442 289.009 301.751C290.119 307.302 294.223 314.026 297.149 318.902C301.55 326.238 304.575 334.626 308.195 341.867C308.891 343.258 309.101 345.467 309.939 346.809C314.252 353.709 317.326 361.427 320.405 368.611C322.443 373.368 326.424 377.862 327.672 382.856C328.691 386.931 330.609 390.749 332.905 394.193C336.672 399.843 337.415 407.814 340.753 413.379C342.082 415.594 343.044 422.065 344.532 423.553C344.146 424.327 345.137 427.064 345.695 427.623C348.753 424.566 345.097 418.56 343.951 415.123C340.974 406.192 336.847 396.554 332.323 387.507C313.426 349.713 296.758 309.981 277.672 271.809C272.666 261.797 267.989 251.527 264.009 241.576C263.618 240.599 259.12 231.455 259.358 231.111C262.047 227.227 266.819 224.086 268.66 219.483C270.796 214.145 273.955 208.862 276.218 203.204C279.175 195.812 280.113 188.73 281.742 181.402C282.031 180.101 282.567 178.637 282.614 177.332C282.797 172.199 283.091 167.058 282.904 161.925C282.892 161.576 282.323 161.537 282.032 161.343Z" fill="#589b38" fill-rule="nonzero" opacity="1" stroke="none"/>
<path d="M202.672 241.867C206.355 247.391 217.094 242.805 219.823 248.262C216.675 251.41 222.13 256.42 219.823 258.727C217.96 256.864 216.209 244.899 211.393 249.716C212.271 250.594 213.44 249.74 214.009 250.879C219.636 262.132 222.106 273.053 229.416 284.018C230.453 285.574 236.943 294.255 238.428 291.286C238.983 290.176 236.937 289.297 236.102 288.379C235.014 287.181 234.209 284.592 233.486 283.146C230.185 276.545 227.071 269.426 224.474 261.634C223.704 259.325 221.672 254.924 222.439 252.623C227.853 255.33 238.484 252.866 243.079 253.786C243.57 253.884 246.599 262.005 247.149 263.379C251.12 273.308 254.587 282.461 256.742 292.158C259.167 303.071 260.224 315.3 260.811 326.751C260.861 327.711 260.116 332.362 262.265 333.437C264.336 334.472 264.279 330.993 264.3 330.239C264.378 327.428 264.59 324.621 264.59 321.809C264.59 310.862 262.074 298.903 259.067 288.379C256.016 277.701 251.962 268.871 248.021 259.018C247.564 257.877 244.904 250.641 244.242 250.588C237.241 250.028 234.202 250.194 226.509 250.006C223.444 249.932 222.727 248.838 221.567 246.518C224.255 243.83 229.458 247.349 232.032 244.774C230.604 243.346 212.793 243.554 211.393 243.32C208.948 242.913 204.757 239.782 202.672 241.867Z" fill="#589b38" fill-rule="nonzero" opacity="1" stroke="none"/>
<path d="M383.486 412.507C372.337 414.535 368.419 426.171 375.928 435.181C377.218 436.729 379.047 438.723 381.16 439.251C383.513 439.839 386.004 439.542 388.428 439.542C395.393 439.542 396.567 429.439 396.567 425.007C396.567 417.841 389.689 411.378 383.486 412.507Z" fill="#378b20" fill-rule="nonzero" opacity="1" stroke="none"/>
<path d="M564.882 409.018C562.418 409.955 559.248 411.183 557.905 414.542C553.306 426.039 562.473 434.627 573.021 431.111C582.22 428.045 578.868 415.737 573.893 410.763C571.527 408.396 567.722 407.939 564.882 409.018Z" fill="#378b20" fill-rule="nonzero" opacity="1" stroke="none"/>
<path d="M491.916 230.53C492.207 230.82 492.207 230.82 492.498 231.111C494.784 228.825 495.505 221.909 493.37 219.774C493.079 220.065 493.079 220.065 492.789 220.355C491.995 219.561 491.838 219.561 491.044 220.355C488.44 219.053 489.643 219.312 486.975 220.646C476.858 225.704 485.697 227.438 486.684 234.018C487.447 239.107 486.684 244.664 486.684 249.716C486.684 256.112 486.693 262.512 486.975 268.902C486.995 269.355 488.359 269.81 488.428 270.065C489.469 273.882 488.531 280.763 489.01 284.018C489.089 284.56 489.716 284.877 490.172 285.181C491.431 286.02 491.584 282.774 491.626 282.274C491.925 278.68 491.916 277.949 491.916 275.588C491.916 262.41 492.007 249.231 491.916 236.053C491.906 234.537 490.728 231.718 491.916 230.53Z" fill="#bbe5a8" fill-rule="nonzero" opacity="1" stroke="none"/>
<path d="M120.404 143.902C116.621 142.01 108.694 134.169 104.997 136.634C106.387 138.024 120.54 146.86 121.567 146.518C122.556 146.188 125.574 135.014 126.509 133.146C131.495 123.174 136.287 112.136 141.625 101.46C143.694 97.3224 145.239 91.16 148.311 88.0875C148.893 88.6689 148.893 88.6689 149.474 89.2503C153.714 85.0106 153.508 80.4932 159.358 86.3433C162.674 83.0272 166.473 87.368 169.241 84.5992C168.083 83.4402 165.669 82.9584 164.3 82.2736C159.373 79.8104 154.665 76.5015 149.765 81.4015C145.458 85.7084 143.145 92.024 140.753 96.8085C135.36 107.594 130.189 118.276 125.637 129.657C124.123 133.442 123.134 141.172 120.404 143.902Z" fill="#589b38" fill-rule="nonzero" opacity="1" stroke="none"/>
<path d="M56.4505 334.309C54.5925 332.915 55.813 331.927 54.4157 330.53C50.378 334.567 55.4572 336.199 54.9971 338.96C53.9505 345.239 48.7724 353.188 46.8575 359.89C45.7011 363.938 42.9878 368.193 42.2063 372.1C42.0843 372.71 41.2187 378.088 42.7877 377.042C45.1941 375.437 46.0707 370.433 47.1482 367.739C49.5723 361.679 51.0494 354.454 54.4157 348.844C55.7534 346.614 57.4045 343.202 57.904 340.704C58.8547 335.951 61.8855 331.086 63.4273 326.46C63.646 325.804 65.1 320.391 62.8459 321.518C58.5339 323.674 59.4736 331.286 56.4505 334.309Z" fill="#e6f6de" fill-rule="nonzero" opacity="1" stroke="none"/>
<path d="M249.765 230.53C251.218 231.983 251.218 231.983 252.672 233.437C257.963 229.468 263.014 224.435 266.335 218.902C267.241 217.391 265.197 216.228 264.881 215.123C264.695 214.472 265.459 214.037 265.753 213.669C266.549 212.675 269.49 204.849 266.335 206.111C265.207 206.562 263.427 210.763 262.556 211.925C259.454 216.061 256.041 220.475 252.381 224.134C251.739 224.777 250.208 225.14 249.765 225.878C248.575 227.861 252.582 227.712 249.765 230.53Z" fill="#698959" fill-rule="nonzero" opacity="1" stroke="none"/>
<path d="M188.428 313.669C183.161 314.993 180.929 321.536 177.672 325.879C175.83 328.335 174.389 331.054 172.439 333.437C169.366 337.193 167.712 340.312 166.044 344.483C165.82 345.043 165.789 346.5 166.916 345.937C169.487 344.651 171.969 340.913 173.893 338.669C178.352 333.466 183.075 326.701 186.102 320.646C187.244 318.363 191.196 312.973 188.428 313.669Z" fill="#e6f6de" fill-rule="nonzero" opacity="1" stroke="none"/>
<path d="M53.2529 335.472C50.6918 338.033 51.8927 338.892 50.6366 342.158C49.8921 344.093 47.8085 346.282 47.1482 348.262C46.2608 350.925 46.6119 353.741 44.5319 355.821C44.0959 355.53 44.0959 355.53 43.6598 355.239C43.0863 355.813 42.8542 356.269 42.497 356.983C45.8015 360.288 40.3038 364.928 41.3342 366.576C41.9527 367.566 42.9597 368.259 43.6598 369.193C45.2992 367.553 45.8311 364.132 46.5668 361.925C48.5616 355.941 50.4207 349.857 53.2529 344.193C53.6827 343.333 56.1167 338.797 55.5785 337.797C55.0587 336.832 54.0281 336.247 53.2529 335.472Z" fill="#7fd15a" fill-rule="nonzero" opacity="1" stroke="none"/>
<path d="M462.556 393.321C459.363 394.917 461.308 401.528 459.94 404.949C457.94 409.948 452.898 412.21 448.893 415.414C456.449 422.97 470.548 401.022 462.556 393.321Z" fill="#e6f6de" fill-rule="nonzero" opacity="1" stroke="none"/>
<path d="M154.707 82.855C149.328 85.544 147.504 92.367 145.986 97.6806C145.589 99.0675 144.319 101.499 145.986 102.332C147.349 103.014 150.516 93.1906 151.509 91.8666C152.282 90.8353 153.394 88.7006 154.416 88.0875C155.007 87.7327 157.932 90.6101 161.683 87.7968C160.103 85.8218 157.496 83.9592 154.707 82.855Z" fill="#e6f6de" fill-rule="nonzero" opacity="1" stroke="none"/>
<path d="M207.323 246.518C209.365 248.56 213.726 248.127 215.462 250.297C219.583 255.448 219.221 264.23 223.893 268.902C224.329 268.466 224.329 268.466 224.765 268.03C222.036 262.571 220.799 257.158 219.532 251.46C218.967 248.914 220.807 248.979 219.823 246.518C219.576 245.901 210.189 244.012 208.776 244.483C207.848 244.793 207.922 245.919 207.323 246.518Z" fill="#e6f6de" fill-rule="nonzero" opacity="1" stroke="none"/>
<path d="M164.59 171.809C159.953 172.724 156.741 182.918 156.741 187.797C156.741 190.872 163.278 194.151 165.172 190.995C166.626 188.571 160.224 187.243 160.521 185.762C161.156 182.585 168.062 171.123 164.59 171.809Z" fill="#e6f6de" fill-rule="nonzero" opacity="1" stroke="none"/>
<path d="M523.021 121.809C525.269 120.685 524.67 117.834 526.219 116.285C525.914 115.676 525.407 113.425 524.475 113.378C520.893 113.199 517.302 113.513 513.719 113.669C512.051 113.741 509.748 113.713 508.777 115.413C507.46 117.718 513.438 117.739 514.01 117.739C516.434 117.739 518.859 117.275 521.277 117.448C522.635 117.545 522.246 121.033 523.021 121.809Z" fill="#e6f6de" fill-rule="nonzero" opacity="1" stroke="none"/>
<path d="M243.079 209.599C238.119 214.559 232.157 217.209 226.8 221.227C228.253 222.681 228.253 222.681 229.707 224.134C235.105 221.435 238.811 216.193 243.079 211.925C243.43 211.574 243.721 210.93 243.951 210.471C243.515 210.035 243.515 210.035 243.079 209.599Z" fill="#bbe5a8" fill-rule="nonzero" opacity="1" stroke="none"/>
<path d="M383.486 415.704C380.804 416.669 387.583 422.418 389.591 424.425C389.762 424.597 390.477 424.9 390.754 424.716C396.277 421.034 386.861 414.49 383.486 415.704Z" fill="#e6f6de" fill-rule="nonzero" opacity="1" stroke="none"/>
<path d="M568.079 412.216C563.547 413.703 568.932 415.87 570.405 417.449C571.34 418.45 571.942 420.356 573.312 420.356C574.699 420.356 574.283 417.67 574.184 416.286C573.975 413.359 570.203 411.519 568.079 412.216Z" fill="#e6f6de" fill-rule="nonzero" opacity="1" stroke="none"/>
<path d="M55.5785 328.204C53.0865 330.696 54.5078 333.238 56.7412 335.472C57.7769 334.436 57.3517 332.826 58.4854 331.693C57.0294 330.237 57.5314 330.157 55.5785 328.204Z" fill="#64c537" fill-rule="nonzero" opacity="1" stroke="none"/>
<path d="M56.1598 326.169C54.2861 328.043 56.4571 330.246 57.904 331.693C60.1232 329.474 58.3163 328.269 56.1598 326.169Z" fill="#7fd15a" fill-rule="nonzero" opacity="1" stroke="none"/>
</g>
</g>
<g id="Layer-2" vectornator:layerName="Layer 2">
<path d="M287.85 165.289C287.85 165.289 389.532 383.851 386.664 386.361C385.556 387.33 340.836 387.766 339.033 386.359C335.793 383.832 251.02 184.017 251.02 184.017L287.85 165.289Z" fill="#64c537" fill-rule="nonzero" opacity="1" stroke="#579b37" stroke-linecap="butt" stroke-linejoin="round" stroke-width="1"/>
<path d="M232.457 45.8139C239.598 53.0353 267.623 109.878 266.591 114.675C266.036 117.259 256.705 125.446 247.986 133.87C240.009 141.577 232.627 149.725 231.224 148.946C227.631 146.952 194.666 74.2316 194.666 74.2316C194.666 74.2316 217.605 30.7945 232.457 45.8139Z" fill="#589b38" fill-rule="nonzero" opacity="1" stroke="#589b38" stroke-linecap="butt" stroke-linejoin="round" stroke-width="1"/>
<path d="M159.106 94.3172C161.438 94.0217 182.929 32.1456 189.877 29.5476C194.313 27.8891 227.616 39.9105 231.758 45.5184C237.23 49.9937 237.837 53.5511 234.027 59.6751C229.181 67.4658 203.565 127.692 203.727 127.876C222.299 149.011 226.459 147.413 224.171 148.586C207.508 157.127 160.396 174.611 155.341 172.327C149.304 169.599 139.12 102.003 138.583 80.9898C138.525 78.7244 156.773 94.6126 159.106 94.3172Z" fill="#64c537" fill-rule="nonzero" opacity="1" stroke="#589b38" stroke-linecap="butt" stroke-linejoin="round" stroke-width="1"/>
<path d="M234.12 45.0831" fill="none" opacity="1" stroke="#e8f6e1" stroke-linecap="butt" stroke-linejoin="round" stroke-width="1"/>
<g opacity="1">
<path d="M235.87 186.076C235.87 186.076 241.006 155.482 268.724 136.686C276.794 131.214 292.328 125.457 298.068 123.136C303.807 120.814 322.028 111.008 322.028 111.008C322.028 111.008 319.787 144.847 307.879 165.632C295.971 186.417 290.395 189.637 272.719 194.034C255.043 198.43 235.87 186.076 235.87 186.076Z" fill="#3f6a2b" fill-rule="nonzero" opacity="1" stroke="#3f6a2b" stroke-linecap="butt" stroke-linejoin="round" stroke-width="1"/>
<path d="M235.963 186.237C235.963 186.237 251.036 178.3 262.179 172.438C273.322 166.576 281.717 159.441 281.717 159.441C281.717 159.441 276.843 167.801 265.879 175.334C254.914 182.866 241.805 188.905 241.805 188.905L235.963 186.237Z" fill="#579a38" fill-rule="nonzero" opacity="1" stroke="#579b38" stroke-linecap="butt" stroke-linejoin="round" stroke-width="1"/>
</g>
<g opacity="1">
<path d="M238.964 194.289C238.964 194.289 252.729 200.268 263.139 200.542C273.549 200.817 282.839 201.77 282.839 201.77C282.839 201.77 294.688 230.308 299.214 250.087C303.739 269.866 300.941 280.885 300.941 280.885C300.941 280.885 278.131 283.32 257.569 259.955C237.007 236.589 238.964 194.289 238.964 194.289Z" fill="#cbee19" fill-rule="nonzero" opacity="1" stroke="#589b38" stroke-linecap="butt" stroke-linejoin="round" stroke-width="1"/>
<path d="M253.901 199.738L262.641 200.565C262.641 200.565 265.434 213.266 269.418 223.365C273.401 233.464 277.854 241.292 277.854 241.292C277.854 241.292 269.335 234.442 263.878 223.294C258.612 212.535 253.901 199.738 253.901 199.738Z" fill="#579a38" fill-rule="nonzero" opacity="1" stroke="#579b37" stroke-linecap="butt" stroke-linejoin="round" stroke-width="1"/>
</g>
<path d="M132.185 177.116C132.185 177.116 147.313 182.034 154.12 186.392C160.486 190.467 173.025 199.423 173.025 199.423C173.025 199.423 158.178 252.133 141.454 301.675C127.382 343.363 111.277 382.871 108.57 386.227C106.669 388.584 56.331 385.747 56.331 385.747L96.8554 274.371L132.185 177.116Z" fill="#589b38" fill-rule="nonzero" opacity="1" stroke="#5aa139" stroke-linecap="butt" stroke-linejoin="round" stroke-width="1"/>
<path d="M116.301 224.819C118.894 225.592 115.477 227.523 133.5 228.28C150.251 228.983 185.882 226.283 185.882 226.283C185.882 226.283 185.837 197.831 187.063 198.121C194.988 199.993 238.826 258.938 238.826 258.938C238.826 258.938 224.71 282.963 211.103 299.139C197.495 315.316 183.852 318.86 183.852 318.86C183.852 318.86 186.117 290.292 186.547 290.292C186.977 290.292 133.275 293.256 127.869 289.619C124.941 287.649 118.582 260.626 114.953 244.059C111.03 226.153 113.571 224.005 116.301 224.819Z" fill="#64c537" fill-rule="nonzero" opacity="1" stroke="#579b37" stroke-linecap="butt" stroke-linejoin="round" stroke-width="1"/>
<path d="M422.876 83.5271L534.029 82.5259L533.806 102.181C533.806 102.181 503.419 101.087 501.045 107.426C498.277 114.817 496.12 354.706 499.224 359.227C505.755 368.74 533.212 368.046 533.212 368.046L533.685 386.361L423.77 386.361L423.105 367.009C423.105 367.009 453.518 369.978 457.593 362.205C460.261 357.114 459.526 114.102 457.884 110.233C452.449 97.4271 424.343 101.742 424.343 101.742L422.876 83.5271Z" fill="#64c537" fill-rule="nonzero" opacity="1" stroke="#589b38" stroke-linecap="butt" stroke-linejoin="round" stroke-width="1"/>
<g opacity="1">
<path d="M461.357 78.2644C461.357 78.2644 483.091 84.1285 503.108 58.4567C518.772 38.3686 511.201 4.84529 511.201 4.84529C511.201 4.84529 501.045 20.6778 485.381 29.1858C469.24 37.953 465.485 45.378 461.822 57.2134C457.889 69.9199 461.357 78.2644 461.357 78.2644Z" fill="#3f6a2b" fill-rule="nonzero" opacity="1" stroke="#3f6a2b" stroke-linecap="butt" stroke-linejoin="round" stroke-width="1"/>
<path d="M460.494 72.8014C460.494 72.8014 466.796 69.2688 473.446 63.8573C480.097 58.4459 487.187 51.3736 487.187 51.3736C487.187 51.3736 483.198 58.1161 477.042 64.6641C470.886 71.2122 463.239 76.963 462.339 77.7335C461.438 78.504 460.494 72.8014 460.494 72.8014Z" fill="#579a38" fill-rule="nonzero" opacity="1" stroke="#3f6a2b" stroke-linecap="butt" stroke-linejoin="round" stroke-width="0.1"/>
</g>
<g fill="#64c537" opacity="1" stroke="#529831" stroke-linecap="butt" stroke-linejoin="round" stroke-width="1">
<path clip-path="url(#TextBounds)" d="M78.9098 460.675C82.458 460.675 85.3388 460.284 87.5524 459.503C91.7516 458.006 93.8512 455.223 93.8512 451.154C93.8512 448.777 92.8095 446.938 90.7262 445.636C88.6429 444.367 85.3714 443.243 80.9117 442.267L73.2946 440.558C65.8076 438.865 60.6318 437.026 57.7672 435.04C52.917 431.72 50.4918 426.528 50.4918 419.464C50.4918 413.019 52.8356 407.664 57.5231 403.4C62.2106 399.135 69.0953 397.003 78.1774 397.003C85.762 397.003 92.2317 399.013 97.5866 403.034C102.941 407.054 105.749 412.889 106.009 420.538L91.5563 420.538C91.2959 416.209 89.4078 413.133 85.8922 411.31C83.5485 410.105 80.6351 409.503 77.152 409.503C73.2783 409.503 70.1858 410.284 67.8746 411.847C65.5634 413.409 64.4078 415.59 64.4078 418.39C64.4078 420.962 65.5472 422.882 67.8258 424.152C69.2907 424.998 72.4157 425.991 77.2008 427.13L89.6032 430.109C95.0394 431.411 99.1409 433.152 101.908 435.333C106.205 438.719 108.353 443.618 108.353 450.031C108.353 456.606 105.839 462.067 100.809 466.412C95.7799 470.758 88.6754 472.931 79.4957 472.931C70.1207 472.931 62.7477 470.791 57.3766 466.51C52.0055 462.229 49.32 456.346 49.32 448.859L63.6754 448.859C64.1311 452.146 65.0263 454.604 66.361 456.232C68.8024 459.194 72.9853 460.675 78.9098 460.675Z"/>
<path clip-path="url(#TextBounds)" d="M152.494 463.556C152.364 463.719 152.038 464.207 151.517 465.021C150.996 465.835 150.378 466.551 149.662 467.169C147.481 469.122 145.373 470.457 143.339 471.173C141.304 471.889 138.92 472.247 136.185 472.247C128.308 472.247 123.002 469.415 120.267 463.751C118.737 460.626 117.972 456.02 117.972 449.933L117.972 417.853L132.23 417.853L132.23 449.933C132.23 452.96 132.588 455.239 133.304 456.769C134.574 459.471 137.064 460.822 140.775 460.822C145.528 460.822 148.783 458.901 150.541 455.06C151.452 452.977 151.908 450.226 151.908 446.808L151.908 417.853L166.019 417.853L166.019 471.076L152.494 471.076L152.494 463.556Z"/>
<path clip-path="url(#TextBounds)" d="M216.117 420.294C220.283 422.964 222.676 427.553 223.295 434.064L209.379 434.064C209.183 432.273 208.679 430.857 207.865 429.816C206.335 427.928 203.731 426.984 200.052 426.984C197.025 426.984 194.868 427.456 193.583 428.4C192.297 429.344 191.654 430.451 191.654 431.72C191.654 433.315 192.338 434.471 193.705 435.187C195.072 435.936 199.906 437.221 208.207 439.044C213.741 440.346 217.891 442.316 220.658 444.952C223.392 447.622 224.759 450.958 224.759 454.962C224.759 460.236 222.798 464.541 218.876 467.877C214.953 471.214 208.89 472.882 200.687 472.882C192.321 472.882 186.144 471.116 182.157 467.584C178.169 464.052 176.175 459.552 176.175 454.083L190.287 454.083C190.58 456.557 191.214 458.315 192.191 459.357C193.916 461.212 197.106 462.14 201.761 462.14C204.496 462.14 206.669 461.733 208.28 460.919C209.891 460.105 210.697 458.885 210.697 457.257C210.697 455.695 210.046 454.507 208.744 453.693C207.442 452.879 202.608 451.479 194.242 449.493C188.22 447.996 183.972 446.124 181.498 443.878C179.024 441.665 177.787 438.475 177.787 434.308C177.787 429.393 179.715 425.169 183.573 421.637C187.43 418.105 192.858 416.339 199.857 416.339C206.498 416.339 211.918 417.658 216.117 420.294Z"/>
<path clip-path="url(#TextBounds)" d="M259.427 461.163L259.427 471.564L252.836 471.808C246.26 472.036 241.768 470.896 239.359 468.39C237.797 466.795 237.015 464.337 237.015 461.017L237.015 428.253L229.593 428.253L229.593 418.341L237.015 418.341L237.015 403.497L250.785 403.497L250.785 418.341L259.427 418.341L259.427 428.253L250.785 428.253L250.785 456.378C250.785 458.559 251.061 459.918 251.615 460.455C252.168 460.993 253.861 461.261 256.693 461.261C257.116 461.261 257.564 461.253 258.036 461.237C258.508 461.22 258.972 461.196 259.427 461.163Z"/>
<path clip-path="url(#TextBounds)" d="M270.365 423.615C274.043 418.927 280.358 416.583 289.31 416.583C295.137 416.583 300.313 417.739 304.838 420.05C309.362 422.361 311.625 426.723 311.625 433.136L311.625 457.55C311.625 459.243 311.657 461.294 311.722 463.702C311.82 465.525 312.097 466.762 312.552 467.413C313.008 468.064 313.692 468.602 314.603 469.025L314.603 471.076L299.466 471.076C299.043 470.001 298.75 468.992 298.588 468.048C298.425 467.104 298.295 466.03 298.197 464.826C296.276 466.909 294.063 468.683 291.556 470.148C288.561 471.873 285.176 472.736 281.4 472.736C276.582 472.736 272.603 471.36 269.462 468.61C266.32 465.859 264.75 461.961 264.75 456.915C264.75 450.372 267.272 445.636 272.318 442.706C275.085 441.111 279.154 439.972 284.525 439.288L289.261 438.702C291.833 438.377 293.672 437.97 294.779 437.482C296.765 436.635 297.757 435.317 297.757 433.527C297.757 431.346 297.001 429.84 295.487 429.01C293.973 428.18 291.752 427.765 288.822 427.765C285.534 427.765 283.207 428.579 281.839 430.206C280.863 431.411 280.212 433.038 279.886 435.089L266.459 435.089C266.752 430.434 268.054 426.609 270.365 423.615ZM280.716 461.017C282.019 462.091 283.614 462.628 285.502 462.628C288.496 462.628 291.255 461.749 293.778 459.992C296.301 458.234 297.611 455.027 297.709 450.372L297.709 445.197C296.83 445.75 295.943 446.198 295.047 446.539C294.152 446.881 292.923 447.199 291.361 447.492L288.236 448.077C285.306 448.598 283.207 449.233 281.937 449.982C279.789 451.251 278.714 453.221 278.714 455.89C278.714 458.266 279.382 459.975 280.716 461.017Z"/>
<path clip-path="url(#TextBounds)" d="M338.285 417.853L338.285 471.076L324.173 471.076L324.173 417.853L338.285 417.853ZM338.285 398.663L338.285 411.505L324.173 411.505L324.173 398.663L338.285 398.663Z"/>
<path clip-path="url(#TextBounds)" d="M376.81 428.156C372.09 428.156 368.851 430.158 367.093 434.161C366.182 436.277 365.726 438.979 365.726 442.267L365.726 471.076L351.859 471.076L351.859 417.951L365.287 417.951L365.287 425.714C367.077 422.98 368.77 421.01 370.365 419.806C373.229 417.658 376.859 416.583 381.254 416.583C386.755 416.583 391.255 418.024 394.755 420.905C398.254 423.785 400.004 428.562 400.004 435.236L400.004 471.076L385.746 471.076L385.746 438.702C385.746 435.903 385.371 433.755 384.623 432.257C383.255 429.523 380.651 428.156 376.81 428.156Z"/>
<path clip-path="url(#TextBounds)" d="M427.738 471.076L413.724 471.076L413.724 399.103L435.599 399.103L448.685 455.695L461.673 399.103L483.304 399.103L483.304 471.076L469.291 471.076L469.291 422.394C469.291 420.994 469.307 419.033 469.339 416.51C469.372 413.987 469.388 412.042 469.388 410.675L455.765 471.076L441.166 471.076L427.64 410.675C427.64 412.042 427.657 413.987 427.689 416.51C427.722 419.033 427.738 420.994 427.738 422.394L427.738 471.076Z"/>
<path clip-path="url(#TextBounds)" d="M497.269 399.103L512.308 399.103L512.308 458.136L547.953 458.136L547.953 471.076L497.269 471.076L497.269 399.103Z"/>
</g>
</g>
</svg>
