<svg xmlns="http://www.w3.org/2000/svg" xmlns:xlink="http://www.w3.org/1999/xlink" fill="#000000" height="512" width="512" version="1.1" xml:space="preserve"><rect id="backgroundrect" width="100%" height="100%" x="0" y="0" fill="none" stroke="none"/>

<g class="currentLayer" style=""><title>Layer 1</title><g id="svg_1" class="selected" fill-opacity="1" fill="#ffffff">
	<g id="svg_2" fill="#ffffff">
		<g id="svg_3" fill="#ffffff">
			<path d="M437.016,74.984c-99.979-99.979-262.075-99.979-362.033,0.002c-99.978,99.978-99.978,262.073,0.004,362.031     c99.954,99.978,262.05,99.978,362.029-0.002C536.995,337.059,536.995,174.964,437.016,74.984z M406.848,406.844     c-83.318,83.318-218.396,83.318-301.691,0.004c-83.318-83.299-83.318-218.377-0.002-301.693     c83.297-83.317,218.375-83.317,301.691,0S490.162,323.549,406.848,406.844z" id="svg_4" fill="#ffffff"/>
			<path d="M361.592,150.408c-8.331-8.331-21.839-8.331-30.17,0l-75.425,75.425l-75.425-75.425c-8.331-8.331-21.839-8.331-30.17,0     s-8.331,21.839,0,30.17l75.425,75.425L150.43,331.4c-8.331,8.331-8.331,21.839,0,30.17c8.331,8.331,21.839,8.331,30.17,0     l75.397-75.397l75.419,75.419c8.331,8.331,21.839,8.331,30.17,0c8.331-8.331,8.331-21.839,0-30.17l-75.419-75.419l75.425-75.425     C369.923,172.247,369.923,158.74,361.592,150.408z" id="svg_5" fill="#ffffff"/>
		</g>
	</g>
</g></g></svg>