<svg xmlns="http://www.w3.org/2000/svg" xmlns:xlink="http://www.w3.org/1999/xlink" width="500" zoomAndPan="magnify" viewBox="0 0 375 374.999991" height="500" preserveAspectRatio="xMidYMid meet" version="1.0"><defs><clipPath id="082962721a"><path d="M 17.046875 0 L 358 0 L 358 324 L 17.046875 324 Z M 17.046875 0 " clip-rule="nonzero"/></clipPath></defs><rect x="-37.5" width="450" fill="none" y="-37.499999" height="449.999989" fill-opacity="1"/><rect x="-37.5" width="450" fill="none" y="-37.499999" height="449.999989" fill-opacity="1"/><path fill="#000000" d="M 230.34375 342.351562 C 229.507812 341.136719 227.839844 340.300781 226.777344 340.453125 L 148.441406 340.90625 C 148.441406 340.90625 145.632812 341.667969 144.871094 342.882812 C 144.113281 344.097656 143.960938 345.613281 144.570312 346.90625 C 152.007812 363.984375 168.933594 374.992188 187.53125 374.992188 C 206.433594 374.992188 223.359375 363.757812 230.722656 346.375 C 231.253906 345.007812 231.101562 343.488281 230.34375 342.351562 Z M 230.34375 342.351562 " fill-opacity="1" fill-rule="nonzero"/><g clip-path="url(#082962721a)"><path fill="#000000" d="M 354.90625 300.296875 L 306.859375 260.21875 L 306.859375 153.417969 C 306.859375 99.296875 270.574219 53.523438 221.082031 38.949219 C 221.3125 37.355469 221.613281 35.761719 221.613281 34.09375 C 221.613281 15.265625 206.359375 0.0078125 187.53125 0.0078125 C 168.707031 0.0078125 153.449219 15.265625 153.449219 34.09375 C 153.449219 35.761719 153.753906 37.355469 153.980469 38.949219 C 104.492188 53.523438 68.207031 99.21875 68.207031 153.417969 L 68.207031 260.21875 L 20.082031 300.296875 C 18.109375 301.890625 17.046875 304.320312 17.046875 306.824219 L 17.046875 315.328125 C 17.046875 320.035156 20.839844 323.828125 25.546875 323.828125 L 349.441406 323.828125 C 354.148438 323.828125 357.945312 320.035156 357.945312 315.328125 L 357.945312 306.824219 C 357.945312 304.320312 356.804688 301.890625 354.90625 300.296875 Z M 170.605469 35.457031 C 170.605469 35.003906 170.453125 34.546875 170.453125 34.09375 C 170.453125 24.679688 178.121094 17.011719 187.53125 17.011719 C 196.945312 17.011719 204.535156 24.679688 204.535156 34.09375 C 204.535156 34.546875 204.460938 35.003906 204.382812 35.457031 C 198.84375 34.699219 193.226562 34.09375 187.457031 34.09375 C 181.6875 34.09375 176.148438 34.625 170.605469 35.457031 Z M 170.605469 35.457031 " fill-opacity="1" fill-rule="nonzero"/></g></svg>
