<svg xmlns="http://www.w3.org/2000/svg" xmlns:xlink="http://www.w3.org/1999/xlink" width="500" zoomAndPan="magnify" viewBox="0 0 375 374.999991" height="500" preserveAspectRatio="xMidYMid meet" version="1.0"><defs><clipPath id="86ba9094da"><path d="M 35.15625 0 L 339.65625 0 L 339.65625 375 L 35.15625 375 Z M 35.15625 0 " clip-rule="nonzero"/></clipPath></defs><g clip-path="url(#86ba9094da)"><path fill="#040606" d="M 62.527344 160.539062 L 62.527344 255.003906 C 62.527344 261.882812 60.894531 268.789062 57.820312 274.957031 L 36.714844 317.195312 C 35.332031 319.964844 35.476562 323.257812 37.109375 325.882812 C 38.726562 328.507812 41.59375 330.125 44.683594 330.125 L 134.691406 330.125 C 138.957031 355.398438 160.9375 374.742188 187.40625 374.742188 C 201.636719 374.742188 215.082031 369.203125 225.324219 359.058594 C 233.246094 351.039062 238.316406 340.984375 240.136719 330.125 L 330.113281 330.125 C 333.21875 330.125 336.085938 328.507812 337.703125 325.882812 C 339.335938 323.257812 339.480469 319.964844 338.097656 317.195312 L 316.992188 274.957031 C 313.917969 268.789062 312.285156 261.882812 312.285156 255.003906 L 312.285156 160.539062 C 312.285156 127.1875 299.292969 95.824219 275.679688 72.210938 C 260.835938 57.34375 242.628906 46.558594 222.527344 40.609375 C 222.757812 38.949219 223.078125 37.300781 223.078125 35.582031 C 223.078125 15.90625 207.085938 -0.113281 187.40625 -0.113281 C 167.726562 -0.113281 151.734375 15.90625 151.734375 35.582031 C 151.734375 37.316406 152.054688 38.964844 152.285156 40.640625 C 99.757812 56.074219 62.527344 105.035156 62.527344 160.539062 Z M 212.707031 346.449219 C 205.90625 353.183594 196.902344 356.898438 187.40625 356.898438 C 170.816406 356.898438 156.832031 345.503906 152.855469 330.125 L 221.972656 330.125 C 220.398438 336.230469 217.238281 341.859375 212.707031 346.449219 Z M 187.40625 17.742188 C 197.238281 17.742188 205.25 25.742188 205.25 35.582031 C 205.25 36.003906 205.234375 36.425781 205.207031 36.851562 C 204.128906 36.691406 203.050781 36.632812 201.988281 36.5 C 200.996094 36.382812 200.019531 36.28125 199.046875 36.195312 C 195.15625 35.828125 191.265625 35.582031 187.40625 35.582031 C 183.53125 35.582031 179.628906 35.828125 175.738281 36.195312 C 174.792969 36.28125 173.84375 36.382812 172.898438 36.5 C 171.804688 36.617188 170.699219 36.691406 169.605469 36.851562 C 169.578125 36.425781 169.5625 36.003906 169.5625 35.582031 C 169.5625 25.742188 177.574219 17.742188 187.40625 17.742188 Z M 165.03125 55.753906 C 176.175781 53.453125 187.464844 52.882812 198.609375 54.019531 C 202.335938 54.414062 206.050781 54.980469 209.75 55.738281 C 230.011719 60.128906 248.441406 70.183594 263.066406 84.816406 C 283.296875 105.0625 294.441406 131.957031 294.441406 160.539062 L 294.441406 255.003906 C 294.441406 264.652344 296.726562 274.316406 301.027344 282.945312 L 315.695312 312.269531 L 59.117188 312.269531 L 73.785156 282.945312 C 78.085938 274.316406 80.371094 264.652344 80.371094 255.003906 L 80.371094 160.539062 C 80.371094 110.253906 116 66.175781 165.03125 55.753906 " fill-opacity="1" fill-rule="nonzero"/></g></svg>