<svg
    xmlns="http://www.w3.org/2000/svg"
    xmlns:xlink="http://www.w3.org/1999/xlink"
    width="500"
    zoomAndPan="magnify"
    viewBox="0 0 375 374.999991"
    height="500"
    preserveAspectRatio="xMidYMid meet"
    version="1.0"
>
    <defs>
        <clipPath id="47676e7074">
            <path
                d="M 20.886719 0 L 353.859375 0 L 353.859375 320.25 L 20.886719 320.25 Z M 20.886719 0 "
                clip-rule="nonzero"
            />
        </clipPath>
        <clipPath id="2c1b32f200">
            <path
                d="M 131.25 131.25 L 243.75 131.25 L 243.75 243.75 L 131.25 243.75 Z M 131.25 131.25 "
                clip-rule="nonzero"
            />
        </clipPath>
        <clipPath id="b162107f35">
            <path
                d="M 187.5 131.25 C 156.433594 131.25 131.25 156.433594 131.25 187.5 C 131.25 218.566406 156.433594 243.75 187.5 243.75 C 218.566406 243.75 243.75 218.566406 243.75 187.5 C 243.75 156.433594 218.566406 131.25 187.5 131.25 Z M 187.5 131.25 "
                clip-rule="nonzero"
            />
        </clipPath>
        <clipPath id="b3b91732e1">
            <path
                d="M 0.25 0.25 L 112.75 0.25 L 112.75 112.75 L 0.25 112.75 Z M 0.25 0.25 "
                clip-rule="nonzero"
            />
        </clipPath>
        <clipPath id="dd27093289">
            <path
                d="M 56.5 0.25 C 25.433594 0.25 0.25 25.433594 0.25 56.5 C 0.25 87.566406 25.433594 112.75 56.5 112.75 C 87.566406 112.75 112.75 87.566406 112.75 56.5 C 112.75 25.433594 87.566406 0.25 56.5 0.25 Z M 56.5 0.25 "
                clip-rule="nonzero"
            />
        </clipPath>
        <clipPath id="1b7cc32e63">
            <rect x="0" width="113" y="0" height="113" />
        </clipPath>
    </defs>
    <g clip-path="url(#47676e7074)">
        <path
            fill="#f5f5f5"
            d="M 353.9375 296.5 C 352.96875 286.457031 347.640625 277.363281 339.714844 271.113281 C 328.886719 262.574219 310.890625 244.996094 308.074219 220.796875 C 304.007812 185.816406 313.769531 60.539062 211.269531 45.894531 L 210.976562 45.914062 C 210.269531 41.398438 211.609375 36.996094 211.933594 36.027344 C 211.945312 35.988281 211.960938 35.945312 211.976562 35.898438 C 211.992188 35.859375 212.003906 35.828125 212.003906 35.828125 C 213.007812 33.007812 213.5625 29.976562 213.5625 26.808594 C 213.5625 12.003906 201.558594 0 186.75 0 C 171.945312 0 159.941406 12.003906 159.941406 26.808594 C 159.941406 30.140625 160.554688 33.328125 161.664062 36.269531 C 162.085938 37.609375 163.234375 41.816406 162.515625 46.085938 C 61.296875 61.535156 70.949219 185.953125 66.898438 220.796875 C 64.082031 244.996094 46.085938 262.574219 35.257812 271.113281 C 27.332031 277.363281 22.007812 286.457031 21.035156 296.5 C 18.496094 322.863281 49 320.039062 49 320.039062 L 325.972656 320.039062 C 325.972656 320.039062 356.476562 322.863281 353.9375 296.5 "
            fill-opacity="1"
            fill-rule="nonzero"
        />
    </g>
    <path
        fill="#f5f5f5"
        d="M 187.488281 375 C 210.183594 375 229 358.421875 232.511719 336.714844 L 142.464844 336.714844 C 145.972656 358.421875 164.789062 375 187.488281 375 "
        fill-opacity="1"
        fill-rule="nonzero"
    />
    <path
        fill="#f5f5f5"
        d="M 256.84375 25.875 C 275.398438 36.054688 335.179688 75.359375 335.027344 159.089844 C 335.015625 163.117188 331.882812 166.449219 327.863281 166.667969 C 323.539062 166.902344 319.921875 163.460938 319.898438 159.132812 C 319.445312 85.667969 269.046875 49.503906 249.816406 38.367188 C 246.046875 36.183594 245.09375 31.171875 247.785156 27.742188 C 249.945312 24.996094 253.78125 24.191406 256.84375 25.875 "
        fill-opacity="1"
        fill-rule="nonzero"
    />
    <path
        fill="#f5f5f5"
        d="M 117.445312 25.875 C 98.890625 36.054688 39.105469 75.359375 39.265625 159.089844 C 39.269531 163.117188 42.40625 166.449219 46.425781 166.667969 C 50.75 166.902344 54.363281 163.460938 54.390625 159.132812 C 54.84375 85.667969 105.242188 49.503906 124.472656 38.367188 C 128.242188 36.183594 129.195312 31.171875 126.503906 27.742188 C 124.34375 24.996094 120.507812 24.191406 117.445312 25.875 "
        fill-opacity="1"
        fill-rule="nonzero"
    />
</svg>
