<?xml version="1.0" encoding="UTF-8"?>
<svg xmlns="http://www.w3.org/2000/svg" xmlns:xlink="http://www.w3.org/1999/xlink" width="375pt" height="374.999991pt" viewBox="0 0 375 374.999991" version="1.2">
<g id="surface1">
<path style=" stroke:none;fill-rule:nonzero;fill:#f5f5f5;fill-opacity:1;" d="M 351.3125 11.71875 C 358.292969 11.71875 364.027344 17.453125 364.027344 24.433594 L 364.027344 351.3125 C 364.027344 358.292969 358.292969 364.027344 351.3125 364.027344 L 24.433594 364.027344 C 17.453125 364.027344 11.71875 358.292969 11.71875 351.3125 L 11.71875 24.433594 C 11.71875 17.453125 17.453125 11.71875 24.433594 11.71875 L 351.3125 11.71875 M 351.3125 0 L 24.433594 0 C 10.972656 0 0 10.96875 0 24.433594 L 0 351.3125 C 0 364.777344 10.972656 375.746094 24.433594 375.746094 L 351.3125 375.746094 C 364.777344 375.746094 375.746094 364.777344 375.746094 351.3125 L 375.746094 24.433594 C 375.746094 10.96875 364.777344 0 351.3125 0 Z M 351.3125 0 "/>
<path style=" stroke:none;fill-rule:nonzero;fill:#f5f5f5;fill-opacity:1;" d="M 151.800781 119.921875 L 50.925781 119.921875 C 43.527344 119.921875 37.503906 113.886719 37.503906 106.484375 L 37.503906 50.9375 C 37.503906 43.535156 43.527344 37.5 50.925781 37.5 L 151.800781 37.5 C 159.195312 37.5 165.222656 43.535156 165.222656 50.9375 L 165.222656 106.484375 C 165.222656 113.886719 159.195312 119.921875 151.800781 119.921875 Z M 151.800781 119.921875 "/>
<path style=" stroke:none;fill-rule:nonzero;fill:#f5f5f5;fill-opacity:1;" d="M 324.179688 119.921875 L 223.304688 119.921875 C 215.910156 119.921875 209.882812 113.886719 209.882812 106.484375 L 209.882812 50.9375 C 209.882812 43.535156 215.910156 37.5 223.304688 37.5 L 324.179688 37.5 C 331.578125 37.5 337.601562 43.535156 337.601562 50.9375 L 337.601562 106.484375 C 337.601562 113.886719 331.578125 119.921875 324.179688 119.921875 Z M 324.179688 119.921875 "/>
<path style=" stroke:none;fill-rule:nonzero;fill:#f5f5f5;fill-opacity:1;" d="M 151.800781 228.792969 L 50.925781 228.792969 C 43.527344 228.792969 37.503906 222.757812 37.503906 215.355469 L 37.503906 159.808594 C 37.503906 152.40625 43.527344 146.371094 50.925781 146.371094 L 151.800781 146.371094 C 159.195312 146.371094 165.222656 152.40625 165.222656 159.808594 L 165.222656 215.355469 C 165.222656 222.757812 159.195312 228.792969 151.800781 228.792969 Z M 151.800781 228.792969 "/>
<path style=" stroke:none;fill-rule:nonzero;fill:#f5f5f5;fill-opacity:1;" d="M 324.179688 228.792969 L 223.304688 228.792969 C 215.910156 228.792969 209.882812 222.757812 209.882812 215.355469 L 209.882812 159.808594 C 209.882812 152.40625 215.910156 146.371094 223.304688 146.371094 L 324.179688 146.371094 C 331.578125 146.371094 337.601562 152.40625 337.601562 159.808594 L 337.601562 215.355469 C 337.601562 222.757812 331.578125 228.792969 324.179688 228.792969 Z M 324.179688 228.792969 "/>
<path style=" stroke:none;fill-rule:nonzero;fill:#f5f5f5;fill-opacity:1;" d="M 151.800781 337.664062 L 50.925781 337.664062 C 43.527344 337.664062 37.503906 331.628906 37.503906 324.226562 L 37.503906 268.679688 C 37.503906 261.277344 43.527344 255.242188 50.925781 255.242188 L 151.800781 255.242188 C 159.195312 255.242188 165.222656 261.277344 165.222656 268.679688 L 165.222656 324.226562 C 165.222656 331.628906 159.195312 337.664062 151.800781 337.664062 Z M 151.800781 337.664062 "/>
<path style=" stroke:none;fill-rule:nonzero;fill:#f5f5f5;fill-opacity:1;" d="M 324.179688 337.664062 L 223.304688 337.664062 C 215.910156 337.664062 209.882812 331.628906 209.882812 324.226562 L 209.882812 268.679688 C 209.882812 261.277344 215.910156 255.242188 223.304688 255.242188 L 324.179688 255.242188 C 331.578125 255.242188 337.601562 261.277344 337.601562 268.679688 L 337.601562 324.226562 C 337.601562 331.628906 331.578125 337.664062 324.179688 337.664062 Z M 324.179688 337.664062 "/>
</g>
</svg>
