<?xml version="1.0" encoding="UTF-8"?>
<svg xmlns="http://www.w3.org/2000/svg" xmlns:xlink="http://www.w3.org/1999/xlink" width="375pt" height="374.999991pt" viewBox="0 0 375 374.999991" version="1.2">
<g id="surface1">
<path style=" stroke:none;fill-rule:nonzero;fill:#808080;fill-opacity:1;" d="M 351.3125 11.71875 C 358.292969 11.71875 364.027344 17.453125 364.027344 24.433594 L 364.027344 351.3125 C 364.027344 358.292969 358.292969 364.027344 351.3125 364.027344 L 24.433594 364.027344 C 17.453125 364.027344 11.71875 358.292969 11.71875 351.3125 L 11.71875 24.433594 C 11.71875 17.453125 17.453125 11.71875 24.433594 11.71875 L 351.3125 11.71875 M 351.3125 0 L 24.433594 0 C 10.972656 0 0 10.96875 0 24.433594 L 0 351.3125 C 0 364.777344 10.972656 375.746094 24.433594 375.746094 L 351.3125 375.746094 C 364.777344 375.746094 375.746094 364.777344 375.746094 351.3125 L 375.746094 24.433594 C 375.746094 10.96875 364.777344 0 351.3125 0 Z M 351.3125 0 "/>
<path style=" stroke:none;fill-rule:nonzero;fill:#808080;fill-opacity:1;" d="M 104.96875 120.011719 L 50.9375 120.011719 C 43.535156 120.011719 37.5 113.972656 37.5 106.558594 L 37.5 50.957031 C 37.5 43.542969 43.535156 37.5 50.9375 37.5 L 104.96875 37.5 C 112.371094 37.5 118.40625 43.542969 118.40625 50.957031 L 118.40625 106.558594 C 118.40625 113.972656 112.371094 120.011719 104.96875 120.011719 Z M 104.96875 120.011719 "/>
<path style=" stroke:none;fill-rule:nonzero;fill:#808080;fill-opacity:1;" d="M 214.59375 120.011719 L 160.566406 120.011719 C 153.160156 120.011719 147.128906 113.972656 147.128906 106.558594 L 147.128906 50.957031 C 147.128906 43.542969 153.160156 37.5 160.566406 37.5 L 214.59375 37.5 C 222 37.5 228.035156 43.542969 228.035156 50.957031 L 228.035156 106.558594 C 228.035156 113.972656 222 120.011719 214.59375 120.011719 Z M 214.59375 120.011719 "/>
<path style=" stroke:none;fill-rule:nonzero;fill:#808080;fill-opacity:1;" d="M 324.222656 120.011719 L 270.191406 120.011719 C 262.789062 120.011719 256.753906 113.972656 256.753906 106.558594 L 256.753906 50.957031 C 256.753906 43.542969 262.789062 37.5 270.191406 37.5 L 324.222656 37.5 C 331.625 37.5 337.660156 43.542969 337.660156 50.957031 L 337.660156 106.558594 C 337.660156 113.972656 331.625 120.011719 324.222656 120.011719 Z M 324.222656 120.011719 "/>
<path style=" stroke:none;fill-rule:nonzero;fill:#808080;fill-opacity:1;" d="M 104.96875 228.882812 L 50.9375 228.882812 C 43.535156 228.882812 37.5 222.84375 37.5 215.429688 L 37.5 159.828125 C 37.5 152.414062 43.535156 146.371094 50.9375 146.371094 L 104.96875 146.371094 C 112.371094 146.371094 118.40625 152.414062 118.40625 159.828125 L 118.40625 215.429688 C 118.40625 222.84375 112.371094 228.882812 104.96875 228.882812 Z M 104.96875 228.882812 "/>
<path style=" stroke:none;fill-rule:nonzero;fill:#808080;fill-opacity:1;" d="M 214.59375 228.882812 L 160.566406 228.882812 C 153.160156 228.882812 147.128906 222.84375 147.128906 215.429688 L 147.128906 159.828125 C 147.128906 152.414062 153.160156 146.371094 160.566406 146.371094 L 214.59375 146.371094 C 222 146.371094 228.035156 152.414062 228.035156 159.828125 L 228.035156 215.429688 C 228.035156 222.84375 222 228.882812 214.59375 228.882812 Z M 214.59375 228.882812 "/>
<path style=" stroke:none;fill-rule:nonzero;fill:#808080;fill-opacity:1;" d="M 324.222656 228.882812 L 270.191406 228.882812 C 262.789062 228.882812 256.753906 222.84375 256.753906 215.429688 L 256.753906 159.828125 C 256.753906 152.414062 262.789062 146.371094 270.191406 146.371094 L 324.222656 146.371094 C 331.625 146.371094 337.660156 152.414062 337.660156 159.828125 L 337.660156 215.429688 C 337.660156 222.84375 331.625 228.882812 324.222656 228.882812 Z M 324.222656 228.882812 "/>
<path style=" stroke:none;fill-rule:nonzero;fill:#808080;fill-opacity:1;" d="M 104.96875 337.753906 L 50.9375 337.753906 C 43.535156 337.753906 37.5 331.714844 37.5 324.300781 L 37.5 268.695312 C 37.5 261.285156 43.535156 255.242188 50.9375 255.242188 L 104.96875 255.242188 C 112.371094 255.242188 118.40625 261.285156 118.40625 268.695312 L 118.40625 324.300781 C 118.40625 331.714844 112.371094 337.753906 104.96875 337.753906 Z M 104.96875 337.753906 "/>
<path style=" stroke:none;fill-rule:nonzero;fill:#808080;fill-opacity:1;" d="M 214.59375 337.753906 L 160.566406 337.753906 C 153.160156 337.753906 147.128906 331.714844 147.128906 324.300781 L 147.128906 268.695312 C 147.128906 261.285156 153.160156 255.242188 160.566406 255.242188 L 214.59375 255.242188 C 222 255.242188 228.035156 261.285156 228.035156 268.695312 L 228.035156 324.300781 C 228.035156 331.714844 222 337.753906 214.59375 337.753906 Z M 214.59375 337.753906 "/>
<path style=" stroke:none;fill-rule:nonzero;fill:#808080;fill-opacity:1;" d="M 324.222656 337.753906 L 270.191406 337.753906 C 262.789062 337.753906 256.753906 331.714844 256.753906 324.300781 L 256.753906 268.695312 C 256.753906 261.285156 262.789062 255.242188 270.191406 255.242188 L 324.222656 255.242188 C 331.625 255.242188 337.660156 261.285156 337.660156 268.695312 L 337.660156 324.300781 C 337.660156 331.714844 331.625 337.753906 324.222656 337.753906 Z M 324.222656 337.753906 "/>
</g>
</svg>
