<svg xmlns="http://www.w3.org/2000/svg" xmlns:xlink="http://www.w3.org/1999/xlink" width="500" zoomAndPan="magnify" viewBox="0 0 375 374.999991" height="500" preserveAspectRatio="xMidYMid meet" version="1.0"><defs><clipPath id="1077e1f2a3"><path d="M 233.558594 0 L 375 0 L 375 144 L 233.558594 144 Z M 233.558594 0 " clip-rule="nonzero"/></clipPath><clipPath id="60d6019ff3"><path d="M 62.328125 187.5 L 104.472656 187.5 L 104.472656 337.636719 L 62.328125 337.636719 Z M 62.328125 187.5 " clip-rule="nonzero"/></clipPath><clipPath id="4de13ba907"><path d="M 104.472656 194.996094 L 104.472656 330.003906 C 104.472656 334.144531 101.113281 337.5 96.972656 337.5 L 69.824219 337.5 C 65.683594 337.5 62.328125 334.144531 62.328125 330.003906 L 62.328125 194.996094 C 62.328125 190.855469 65.683594 187.5 69.824219 187.5 L 96.972656 187.5 C 101.113281 187.5 104.472656 190.855469 104.472656 194.996094 Z M 104.472656 194.996094 " clip-rule="nonzero"/></clipPath><clipPath id="0e6cccaac2"><path d="M 0.328125 0.5 L 42.472656 0.5 L 42.472656 150.636719 L 0.328125 150.636719 Z M 0.328125 0.5 " clip-rule="nonzero"/></clipPath><clipPath id="038224041e"><path d="M 42.472656 7.996094 L 42.472656 143.003906 C 42.472656 147.144531 39.113281 150.5 34.972656 150.5 L 7.824219 150.5 C 3.683594 150.5 0.328125 147.144531 0.328125 143.003906 L 0.328125 7.996094 C 0.328125 3.855469 3.683594 0.5 7.824219 0.5 L 34.972656 0.5 C 39.113281 0.5 42.472656 3.855469 42.472656 7.996094 Z M 42.472656 7.996094 " clip-rule="nonzero"/></clipPath><clipPath id="69295d686f"><rect x="0" width="43" y="0" height="151"/></clipPath><clipPath id="603c74f770"><path d="M 136.734375 144.058594 L 178.875 144.058594 L 178.875 337.65625 L 136.734375 337.65625 Z M 136.734375 144.058594 " clip-rule="nonzero"/></clipPath><clipPath id="1f9751c70c"><path d="M 178.875 151.558594 L 178.875 330.003906 C 178.875 334.144531 175.519531 337.5 171.378906 337.5 L 144.230469 337.5 C 140.089844 337.5 136.734375 334.144531 136.734375 330.003906 L 136.734375 151.558594 C 136.734375 147.417969 140.089844 144.058594 144.230469 144.058594 L 171.378906 144.058594 C 175.519531 144.058594 178.875 147.417969 178.875 151.558594 Z M 178.875 151.558594 " clip-rule="nonzero"/></clipPath><clipPath id="f06f423634"><path d="M 0.734375 0.0585938 L 42.875 0.0585938 L 42.875 193.65625 L 0.734375 193.65625 Z M 0.734375 0.0585938 " clip-rule="nonzero"/></clipPath><clipPath id="421dc3694a"><path d="M 42.875 7.558594 L 42.875 186.003906 C 42.875 190.144531 39.519531 193.5 35.378906 193.5 L 8.230469 193.5 C 4.089844 193.5 0.734375 190.144531 0.734375 186.003906 L 0.734375 7.558594 C 0.734375 3.417969 4.089844 0.0585938 8.230469 0.0585938 L 35.378906 0.0585938 C 39.519531 0.0585938 42.875 3.417969 42.875 7.558594 Z M 42.875 7.558594 " clip-rule="nonzero"/></clipPath><clipPath id="0798f0cf79"><rect x="0" width="43" y="0" height="194"/></clipPath><clipPath id="f7b2f25bf3"><path d="M 211.136719 217.953125 L 253.28125 217.953125 L 253.28125 337.636719 L 211.136719 337.636719 Z M 211.136719 217.953125 " clip-rule="nonzero"/></clipPath><clipPath id="e9e42b2352"><path d="M 253.28125 225.453125 L 253.28125 330.003906 C 253.28125 334.144531 249.925781 337.5 245.785156 337.5 L 218.636719 337.5 C 214.496094 337.5 211.136719 334.144531 211.136719 330.003906 L 211.136719 225.453125 C 211.136719 221.308594 214.496094 217.953125 218.636719 217.953125 L 245.785156 217.953125 C 249.925781 217.953125 253.28125 221.308594 253.28125 225.453125 Z M 253.28125 225.453125 " clip-rule="nonzero"/></clipPath><clipPath id="fa14dda0da"><path d="M 0.136719 0.953125 L 42.28125 0.953125 L 42.28125 120.636719 L 0.136719 120.636719 Z M 0.136719 0.953125 " clip-rule="nonzero"/></clipPath><clipPath id="706f14b92c"><path d="M 42.28125 8.453125 L 42.28125 113.003906 C 42.28125 117.144531 38.925781 120.5 34.785156 120.5 L 7.636719 120.5 C 3.496094 120.5 0.136719 117.144531 0.136719 113.003906 L 0.136719 8.453125 C 0.136719 4.308594 3.496094 0.953125 7.636719 0.953125 L 34.785156 0.953125 C 38.925781 0.953125 42.28125 4.308594 42.28125 8.453125 Z M 42.28125 8.453125 " clip-rule="nonzero"/></clipPath><clipPath id="dc648ff190"><rect x="0" width="43" y="0" height="121"/></clipPath><clipPath id="ba48ce8daf"><path d="M 0 60.90625 L 187.523438 60.90625 L 187.523438 83.152344 L 0 83.152344 Z M 0 60.90625 " clip-rule="nonzero"/></clipPath><clipPath id="6d7532cc9c"><path d="M 187.449219 68.40625 L 187.449219 75.65625 C 187.449219 79.796875 184.09375 83.152344 179.953125 83.152344 L 7.496094 83.152344 C 3.355469 83.152344 0 79.796875 0 75.65625 L 0 68.40625 C 0 64.265625 3.355469 60.90625 7.496094 60.90625 L 179.953125 60.90625 C 184.09375 60.90625 187.449219 64.265625 187.449219 68.40625 Z M 187.449219 68.40625 " clip-rule="nonzero"/></clipPath><clipPath id="655ee33082"><path d="M 0 0.90625 L 187.523438 0.90625 L 187.523438 23.152344 L 0 23.152344 Z M 0 0.90625 " clip-rule="nonzero"/></clipPath><clipPath id="6c6a5f21c1"><path d="M 187.449219 8.40625 L 187.449219 15.65625 C 187.449219 19.796875 184.09375 23.152344 179.953125 23.152344 L 7.496094 23.152344 C 3.355469 23.152344 0 19.796875 0 15.65625 L 0 8.40625 C 0 4.265625 3.355469 0.90625 7.496094 0.90625 L 179.953125 0.90625 C 184.09375 0.90625 187.449219 4.265625 187.449219 8.40625 Z M 187.449219 8.40625 " clip-rule="nonzero"/></clipPath><clipPath id="ebc8c27d1e"><rect x="0" width="188" y="0" height="24"/></clipPath><clipPath id="0191cb3b72"><path d="M 0 352.613281 L 315.585938 352.613281 L 315.585938 375 L 0 375 Z M 0 352.613281 " clip-rule="nonzero"/></clipPath><clipPath id="22117d6174"><path d="M 315.535156 360.113281 L 315.535156 367.503906 C 315.535156 371.644531 312.179688 375 308.039062 375 L 7.496094 375 C 3.355469 375 0 371.644531 0 367.503906 L 0 360.113281 C 0 355.972656 3.355469 352.613281 7.496094 352.613281 L 308.039062 352.613281 C 312.179688 352.613281 315.535156 355.972656 315.535156 360.113281 Z M 315.535156 360.113281 " clip-rule="nonzero"/></clipPath><clipPath id="d232d9900d"><path d="M 0 0.613281 L 315.585938 0.613281 L 315.585938 23 L 0 23 Z M 0 0.613281 " clip-rule="nonzero"/></clipPath><clipPath id="4f903bf8d9"><path d="M 315.535156 8.113281 L 315.535156 15.503906 C 315.535156 19.644531 312.179688 23 308.039062 23 L 7.496094 23 C 3.355469 23 0 19.644531 0 15.503906 L 0 8.113281 C 0 3.972656 3.355469 0.613281 7.496094 0.613281 L 308.039062 0.613281 C 312.179688 0.613281 315.535156 3.972656 315.535156 8.113281 Z M 315.535156 8.113281 " clip-rule="nonzero"/></clipPath><clipPath id="251927acec"><rect x="0" width="316" y="0" height="23"/></clipPath><clipPath id="a6af70cbf3"><path d="M 0 60.90625 L 22.675781 60.90625 L 22.675781 374.917969 L 0 374.917969 Z M 0 60.90625 " clip-rule="nonzero"/></clipPath><clipPath id="c46c3c001b"><path d="M 15.175781 374.914062 L 7.492188 374.914062 C 3.351562 374.914062 -0.0078125 371.558594 -0.0078125 367.417969 L -0.0078125 68.40625 C -0.0078125 64.265625 3.351562 60.90625 7.492188 60.90625 L 15.175781 60.90625 C 19.320312 60.90625 22.675781 64.265625 22.675781 68.40625 L 22.675781 367.417969 C 22.675781 371.558594 19.320312 374.914062 15.175781 374.914062 Z M 15.175781 374.914062 " clip-rule="nonzero"/></clipPath><clipPath id="2606d47437"><path d="M 0 0.90625 L 22.675781 0.90625 L 22.675781 314.917969 L 0 314.917969 Z M 0 0.90625 " clip-rule="nonzero"/></clipPath><clipPath id="bebb9967c3"><path d="M 15.175781 314.914062 L 7.492188 314.914062 C 3.351562 314.914062 -0.0078125 311.558594 -0.0078125 307.417969 L -0.0078125 8.40625 C -0.0078125 4.265625 3.351562 0.90625 7.492188 0.90625 L 15.175781 0.90625 C 19.320312 0.90625 22.675781 4.265625 22.675781 8.40625 L 22.675781 307.417969 C 22.675781 311.558594 19.320312 314.914062 15.175781 314.914062 Z M 15.175781 314.914062 " clip-rule="nonzero"/></clipPath><clipPath id="31a086aba6"><rect x="0" width="23" y="0" height="315"/></clipPath><clipPath id="ca97898552"><path d="M 292.933594 187.496094 L 315.617188 187.496094 L 315.617188 374.980469 L 292.933594 374.980469 Z M 292.933594 187.496094 " clip-rule="nonzero"/></clipPath><clipPath id="add93cb9bc"><path d="M 308.121094 374.945312 L 300.433594 374.945312 C 296.292969 374.945312 292.933594 371.589844 292.933594 367.449219 L 292.933594 194.996094 C 292.933594 190.855469 296.292969 187.496094 300.433594 187.496094 L 308.121094 187.496094 C 312.261719 187.496094 315.617188 190.855469 315.617188 194.996094 L 315.617188 367.449219 C 315.617188 371.589844 312.261719 374.945312 308.121094 374.945312 Z M 308.121094 374.945312 " clip-rule="nonzero"/></clipPath><clipPath id="43ff7eb161"><path d="M 0.933594 0.496094 L 23.617188 0.496094 L 23.617188 187.980469 L 0.933594 187.980469 Z M 0.933594 0.496094 " clip-rule="nonzero"/></clipPath><clipPath id="24a3a328cd"><path d="M 16.121094 187.945312 L 8.433594 187.945312 C 4.292969 187.945312 0.933594 184.589844 0.933594 180.449219 L 0.933594 7.996094 C 0.933594 3.855469 4.292969 0.496094 8.433594 0.496094 L 16.121094 0.496094 C 20.261719 0.496094 23.617188 3.855469 23.617188 7.996094 L 23.617188 180.449219 C 23.617188 184.589844 20.261719 187.945312 16.121094 187.945312 Z M 16.121094 187.945312 " clip-rule="nonzero"/></clipPath><clipPath id="887225eb98"><rect x="0" width="24" y="0" height="188"/></clipPath></defs><g clip-path="url(#1077e1f2a3)"><path fill="#808080" d="M 287.785156 55.371094 L 287.785156 18.121094 C 287.785156 12.914062 289.207031 8.679688 292.058594 5.421875 C 294.910156 2.082031 298.980469 0.414062 304.269531 0.414062 C 309.5625 0.414062 313.632812 2.082031 316.484375 5.421875 C 319.414062 8.679688 320.882812 12.914062 320.882812 18.121094 L 320.882812 55.371094 L 357.644531 55.371094 C 363.015625 55.371094 367.25 56.839844 370.34375 59.769531 C 373.519531 62.617188 375.109375 66.648438 375.109375 71.859375 C 375.109375 77.152344 373.519531 81.265625 370.34375 84.195312 C 367.25 87.125 363.015625 88.59375 357.644531 88.59375 L 320.882812 88.59375 L 320.882812 125.71875 C 320.882812 131.011719 319.414062 135.285156 316.484375 138.542969 C 313.554688 141.800781 309.480469 143.425781 304.269531 143.425781 C 299.0625 143.425781 294.988281 141.800781 292.058594 138.542969 C 289.207031 135.285156 287.785156 131.011719 287.785156 125.71875 L 287.785156 88.59375 L 251.023438 88.59375 C 245.8125 88.59375 241.578125 87.003906 238.320312 83.828125 C 235.144531 80.570312 233.558594 76.582031 233.558594 71.859375 C 233.558594 66.648438 235.105469 62.617188 238.199219 59.769531 C 241.375 56.839844 245.648438 55.371094 251.023438 55.371094 Z M 287.785156 55.371094 " fill-opacity="1" fill-rule="nonzero"/></g><g clip-path="url(#60d6019ff3)"><g clip-path="url(#4de13ba907)"><g transform="matrix(1, 0, 0, 1, 62, 187)"><g clip-path="url(#69295d686f)"><g clip-path="url(#0e6cccaac2)"><g clip-path="url(#038224041e)"><path fill="#808080" d="M 0.328125 0.5 L 42.472656 0.5 L 42.472656 150.472656 L 0.328125 150.472656 Z M 0.328125 0.5 " fill-opacity="1" fill-rule="nonzero"/></g></g></g></g></g></g><g clip-path="url(#603c74f770)"><g clip-path="url(#1f9751c70c)"><g transform="matrix(1, 0, 0, 1, 136, 144)"><g clip-path="url(#0798f0cf79)"><g clip-path="url(#f06f423634)"><g clip-path="url(#421dc3694a)"><path fill="#808080" d="M 0.734375 0.0585938 L 42.875 0.0585938 L 42.875 193.492188 L 0.734375 193.492188 Z M 0.734375 0.0585938 " fill-opacity="1" fill-rule="nonzero"/></g></g></g></g></g></g><g clip-path="url(#f7b2f25bf3)"><g clip-path="url(#e9e42b2352)"><g transform="matrix(1, 0, 0, 1, 211, 217)"><g clip-path="url(#dc648ff190)"><g clip-path="url(#fa14dda0da)"><g clip-path="url(#706f14b92c)"><path fill="#808080" d="M 0.136719 0.953125 L 42.28125 0.953125 L 42.28125 120.46875 L 0.136719 120.46875 Z M 0.136719 0.953125 " fill-opacity="1" fill-rule="nonzero"/></g></g></g></g></g></g><g clip-path="url(#ba48ce8daf)"><g clip-path="url(#6d7532cc9c)"><g transform="matrix(1, 0, 0, 1, 0, 60)"><g clip-path="url(#ebc8c27d1e)"><g clip-path="url(#655ee33082)"><g clip-path="url(#6c6a5f21c1)"><path fill="#808080" d="M 0 0.90625 L 187.4375 0.90625 L 187.4375 23.152344 L 0 23.152344 Z M 0 0.90625 " fill-opacity="1" fill-rule="nonzero"/></g></g></g></g></g></g><g clip-path="url(#0191cb3b72)"><g clip-path="url(#22117d6174)"><g transform="matrix(1, 0, 0, 1, 0, 352)"><g clip-path="url(#251927acec)"><g clip-path="url(#d232d9900d)"><g clip-path="url(#4f903bf8d9)"><path fill="#808080" d="M 0 0.613281 L 315.496094 0.613281 L 315.496094 23 L 0 23 Z M 0 0.613281 " fill-opacity="1" fill-rule="nonzero"/></g></g></g></g></g></g><g clip-path="url(#a6af70cbf3)"><g clip-path="url(#c46c3c001b)"><g transform="matrix(1, 0, 0, 1, 0, 60)"><g clip-path="url(#31a086aba6)"><g clip-path="url(#2606d47437)"><g clip-path="url(#bebb9967c3)"><path fill="#808080" d="M 22.675781 0.90625 L 22.675781 314.917969 L -0.0078125 314.917969 L -0.0078125 0.90625 Z M 22.675781 0.90625 " fill-opacity="1" fill-rule="nonzero"/></g></g></g></g></g></g><g clip-path="url(#ca97898552)"><g clip-path="url(#add93cb9bc)"><g transform="matrix(1, 0, 0, 1, 292, 187)"><g clip-path="url(#887225eb98)"><g clip-path="url(#43ff7eb161)"><g clip-path="url(#24a3a328cd)"><path fill="#808080" d="M 23.617188 0.496094 L 23.617188 187.980469 L 0.933594 187.980469 L 0.933594 0.496094 Z M 23.617188 0.496094 " fill-opacity="1" fill-rule="nonzero"/></g></g></g></g></g></g></svg>