<?xml version="1.0" encoding="UTF-8"?>
<svg xmlns="http://www.w3.org/2000/svg" xmlns:xlink="http://www.w3.org/1999/xlink" width="375pt" height="374.999991pt" viewBox="0 0 375 374.999991" version="1.2">
<g id="surface1">
<path style=" stroke:none;fill-rule:nonzero;fill:#0895cd;fill-opacity:1;" d="M 317.308594 0 L 57.691406 0 C 25.832031 0 0 25.832031 0 57.691406 L 0 317.308594 C 0 349.167969 25.832031 375 57.691406 375 L 317.308594 375 C 349.167969 375 375 349.167969 375 317.308594 L 375 57.691406 C 375 25.832031 349.167969 0 317.308594 0 Z M 346.152344 317.308594 C 346.152344 333.230469 333.214844 346.152344 317.308594 346.152344 L 57.691406 346.152344 C 41.769531 346.152344 28.847656 333.230469 28.847656 317.308594 L 28.847656 57.691406 C 28.847656 41.785156 41.769531 28.847656 57.691406 28.847656 L 317.308594 28.847656 C 333.214844 28.847656 346.152344 41.785156 346.152344 57.691406 Z M 346.152344 317.308594 "/>
</g>
</svg>
