<svg xmlns="http://www.w3.org/2000/svg" xmlns:xlink="http://www.w3.org/1999/xlink" width="375" height="375" version="1.2" style=""><rect id="backgroundrect" width="100%" height="100%" x="0" y="0" fill="none" stroke="none"/>
<defs>
<clipPath id="clip1">
  <path d="M 14 37 L 360 37 L 360 340.84375 L 14 340.84375 Z M 14 37 " id="svg_1"/>
</clipPath>
</defs>

<g class="currentLayer" style=""><title>Layer 1</title><path fill="#ffee02" stroke="none" stroke-dashoffset="" fill-rule="nonzero" marker-start="" marker-mid="" marker-end="" id="svg_7" d="M30.34917881649224,324.9663872051411 L187.33841373597863,50.23522609601878 L344.3276486554685,324.9663872051411 L30.34917881649224,324.9663872051411 z" style="color: rgb(200, 211, 74);" class="" fill-opacity="1"/><g id="surface1" class="">
<g clip-path="url(#clip1)" clip-rule="nonzero" id="svg_2">
<path style=" stroke:none;fill-rule:nonzero;fill:#000000;fill-opacity:1;" d="M 295.265625 306.1875 L 209.496094 306.1875 C 197.226562 306.1875 177.15625 306.1875 164.894531 306.1875 L 79.125 306.1875 C 66.859375 306.1875 61.835938 297.5 67.976562 286.871094 L 110.855469 212.589844 C 116.988281 201.984375 127.027344 184.59375 133.160156 173.976562 L 176.050781 99.695312 C 182.175781 89.070312 192.210938 89.070312 198.34375 99.695312 L 241.238281 173.976562 C 247.355469 184.59375 257.398438 201.984375 263.535156 212.589844 L 306.414062 286.871094 C 312.550781 297.5 307.53125 306.1875 295.265625 306.1875 Z M 355.910156 313.476562 L 295.222656 208.367188 C 286.542969 193.335938 272.335938 168.742188 263.664062 153.703125 L 202.96875 48.589844 C 194.289062 33.5625 180.097656 33.5625 171.417969 48.589844 L 110.730469 153.703125 C 102.046875 168.742188 87.847656 193.335938 79.171875 208.367188 L 18.476562 313.476562 C 9.796875 328.507812 16.894531 340.808594 34.257812 340.808594 L 155.636719 340.808594 C 172.992188 340.808594 201.394531 340.808594 218.75 340.808594 L 340.132812 340.808594 C 357.488281 340.808594 364.589844 328.507812 355.910156 313.476562 " id="svg_3"/>
</g>
<path style=" stroke:none;fill-rule:nonzero;fill:#000000;fill-opacity:1;" d="M 173.960938 227.710938 L 170.105469 170.085938 C 169.386719 158.847656 169.027344 150.792969 169.027344 145.894531 C 169.027344 139.238281 170.773438 134.042969 174.261719 130.320312 C 177.75 126.589844 182.339844 124.726562 188.03125 124.726562 C 194.929688 124.726562 199.546875 127.117188 201.875 131.882812 C 204.199219 136.65625 205.363281 143.527344 205.363281 152.523438 C 205.363281 157.816406 205.078125 163.179688 204.515625 168.632812 L 199.347656 227.953125 C 198.789062 235.011719 197.585938 240.429688 195.734375 244.199219 C 193.894531 247.960938 190.84375 249.847656 186.589844 249.847656 C 182.261719 249.847656 179.253906 248.023438 177.566406 244.367188 C 175.882812 240.730469 174.679688 235.171875 173.960938 227.710938 " id="svg_4"/>
<path style=" stroke:none;fill-rule:nonzero;fill:#000000;fill-opacity:1;" d="M 187.316406 294.9375 C 182.425781 294.9375 178.148438 293.351562 174.496094 290.175781 C 170.84375 287.015625 169.027344 282.585938 169.027344 276.878906 C 169.027344 271.910156 170.773438 267.683594 174.261719 264.191406 C 177.75 260.699219 182.019531 258.953125 187.074219 258.953125 C 192.125 258.953125 196.4375 260.699219 200.011719 264.191406 C 203.574219 267.683594 205.363281 271.910156 205.363281 276.878906 C 205.363281 282.507812 203.558594 286.914062 199.949219 290.125 C 196.339844 293.320312 192.125 294.9375 187.316406 294.9375 " id="svg_5"/>
</g><path fill="#6767e7" fill-opacity="1" stroke="#1aeb1a" stroke-opacity="1" stroke-width="1" stroke-dasharray="none" stroke-linejoin="miter" stroke-linecap="butt" stroke-dashoffset="" fill-rule="nonzero" opacity="1" marker-start="" marker-mid="" marker-end="" id="svg_6" d="M187.76881576018576,72.58064460307827 " style="color: rgb(200, 211, 74);"/></g></svg>