<?xml version="1.0" encoding="UTF-8"?>
<svg xmlns="http://www.w3.org/2000/svg" xmlns:xlink="http://www.w3.org/1999/xlink" width="375pt" height="374.999991pt" viewBox="0 0 375 374.999991" version="1.2">
<g id="surface1">
<path style=" stroke:none;fill-rule:nonzero;fill:#0895cd;fill-opacity:1;" d="M 365.664062 374.222656 L 7.78125 374.222656 C 7.269531 374.222656 6.761719 374.171875 6.261719 374.074219 C 5.761719 373.972656 5.273438 373.824219 4.804688 373.628906 C 4.332031 373.433594 3.882812 373.195312 3.457031 372.910156 C 3.03125 372.625 2.640625 372.304688 2.277344 371.941406 C 1.917969 371.582031 1.59375 371.1875 1.3125 370.765625 C 1.027344 370.339844 0.789062 369.890625 0.59375 369.417969 C 0.398438 368.945312 0.25 368.460938 0.148438 367.960938 C 0.0507812 367.457031 0 366.953125 0 366.441406 L 0 8.558594 C 0 8.046875 0.0507812 7.542969 0.148438 7.039062 C 0.25 6.539062 0.398438 6.054688 0.59375 5.582031 C 0.789062 5.109375 1.027344 4.660156 1.3125 4.234375 C 1.59375 3.8125 1.917969 3.417969 2.277344 3.058594 C 2.640625 2.695312 3.03125 2.371094 3.457031 2.089844 C 3.882812 1.804688 4.332031 1.566406 4.804688 1.371094 C 5.273438 1.175781 5.761719 1.027344 6.261719 0.925781 C 6.761719 0.828125 7.269531 0.777344 7.78125 0.777344 C 8.289062 0.777344 8.796875 0.828125 9.296875 0.925781 C 9.800781 1.027344 10.285156 1.175781 10.757812 1.371094 C 11.230469 1.566406 11.675781 1.804688 12.101562 2.089844 C 12.527344 2.371094 12.921875 2.695312 13.28125 3.058594 C 13.644531 3.417969 13.964844 3.8125 14.25 4.234375 C 14.53125 4.660156 14.773438 5.109375 14.96875 5.582031 C 15.164062 6.054688 15.3125 6.539062 15.410156 7.039062 C 15.511719 7.542969 15.558594 8.046875 15.558594 8.558594 L 15.558594 358.660156 L 365.664062 358.660156 C 366.175781 358.660156 366.679688 358.710938 367.179688 358.8125 C 367.683594 358.910156 368.167969 359.058594 368.640625 359.253906 C 369.113281 359.449219 369.5625 359.6875 369.984375 359.972656 C 370.410156 360.257812 370.804688 360.578125 371.164062 360.941406 C 371.527344 361.300781 371.847656 361.695312 372.132812 362.121094 C 372.417969 362.542969 372.65625 362.992188 372.851562 363.464844 C 373.046875 363.9375 373.195312 364.421875 373.292969 364.925781 C 373.394531 365.425781 373.445312 365.929688 373.445312 366.441406 C 373.445312 366.953125 373.394531 367.457031 373.292969 367.960938 C 373.195312 368.460938 373.046875 368.945312 372.851562 369.417969 C 372.65625 369.890625 372.417969 370.339844 372.132812 370.765625 C 371.847656 371.1875 371.527344 371.582031 371.164062 371.941406 C 370.804688 372.304688 370.410156 372.625 369.984375 372.910156 C 369.5625 373.195312 369.113281 373.433594 368.640625 373.628906 C 368.167969 373.824219 367.683594 373.972656 367.183594 374.074219 C 366.679688 374.171875 366.175781 374.222656 365.664062 374.222656 Z M 365.664062 374.222656 "/>
<path style=" stroke:none;fill-rule:nonzero;fill:#0895cd;fill-opacity:1;" d="M 54.460938 327.542969 C 53.765625 327.539062 53.085938 327.449219 52.417969 327.265625 C 51.746094 327.082031 51.113281 326.8125 50.515625 326.457031 C 49.921875 326.105469 49.378906 325.679688 48.894531 325.183594 C 48.414062 324.6875 48.003906 324.132812 47.667969 323.527344 C 47.332031 322.917969 47.082031 322.277344 46.917969 321.605469 C 46.753906 320.929688 46.679688 320.246094 46.699219 319.554688 C 46.71875 318.859375 46.828125 318.179688 47.027344 317.515625 C 47.226562 316.851562 47.511719 316.226562 47.878906 315.636719 L 86.777344 253.398438 C 87.453125 252.3125 88.339844 251.449219 89.441406 250.804688 C 90.542969 250.15625 91.730469 249.804688 93.003906 249.742188 C 94.28125 249.699219 95.5 249.957031 96.65625 250.503906 C 97.808594 251.054688 98.777344 251.835938 99.554688 252.851562 L 115.953125 274.714844 L 203.371094 129.039062 C 204.035156 127.9375 204.914062 127.050781 206.015625 126.386719 C 207.117188 125.71875 208.308594 125.347656 209.59375 125.273438 C 210.238281 125.207031 210.875 125.226562 211.511719 125.332031 C 212.148438 125.441406 212.761719 125.628906 213.34375 125.90625 C 213.929688 126.179688 214.464844 126.527344 214.953125 126.949219 C 215.441406 127.371094 215.867188 127.847656 216.222656 128.386719 L 255.871094 181.292969 L 358.941406 4.636719 C 359.210938 4.226562 359.519531 3.847656 359.863281 3.492188 C 360.207031 3.140625 360.578125 2.824219 360.980469 2.542969 C 361.386719 2.261719 361.8125 2.023438 362.261719 1.820312 C 362.707031 1.621094 363.171875 1.464844 363.652344 1.351562 C 364.128906 1.238281 364.613281 1.171875 365.105469 1.152344 C 365.597656 1.132812 366.085938 1.15625 366.570312 1.230469 C 367.058594 1.300781 367.53125 1.417969 367.996094 1.578125 C 368.460938 1.742188 368.90625 1.945312 369.332031 2.191406 C 369.753906 2.4375 370.152344 2.722656 370.527344 3.042969 C 370.898438 3.363281 371.234375 3.71875 371.539062 4.105469 C 371.84375 4.492188 372.109375 4.902344 372.335938 5.335938 C 372.5625 5.773438 372.746094 6.226562 372.886719 6.699219 C 373.027344 7.167969 373.125 7.648438 373.171875 8.136719 C 373.222656 8.625 373.226562 9.117188 373.183594 9.605469 C 373.140625 10.09375 373.050781 10.578125 372.917969 11.050781 C 372.785156 11.523438 372.605469 11.976562 372.386719 12.417969 L 263.464844 199.140625 C 263.144531 199.691406 262.761719 200.195312 262.316406 200.648438 C 261.871094 201.105469 261.375 201.503906 260.832031 201.835938 C 260.289062 202.171875 259.714844 202.4375 259.105469 202.632812 C 258.5 202.824219 257.878906 202.941406 257.242188 202.980469 C 256.597656 203.027344 255.960938 202.992188 255.324219 202.878906 C 254.691406 202.761719 254.082031 202.566406 253.5 202.292969 C 252.914062 202.023438 252.375 201.679688 251.878906 201.269531 C 251.378906 200.859375 250.941406 200.394531 250.566406 199.871094 L 210.777344 146.964844 L 123.375 292.640625 C 122.714844 293.742188 121.832031 294.628906 120.730469 295.296875 C 119.628906 295.960938 118.4375 296.332031 117.152344 296.40625 C 116.511719 296.453125 115.878906 296.417969 115.246094 296.304688 C 114.617188 296.1875 114.011719 295.992188 113.429688 295.71875 C 112.847656 295.445312 112.3125 295.105469 111.820312 294.695312 C 111.328125 294.28125 110.894531 293.816406 110.523438 293.292969 L 93.953125 271.277344 L 61.058594 323.886719 C 60.707031 324.445312 60.292969 324.949219 59.816406 325.40625 C 59.335938 325.859375 58.808594 326.246094 58.230469 326.566406 C 57.65625 326.886719 57.046875 327.128906 56.410156 327.292969 C 55.769531 327.457031 55.121094 327.542969 54.460938 327.542969 Z M 54.460938 327.542969 "/>
</g>
</svg>
