<svg xmlns="http://www.w3.org/2000/svg" xmlns:xlink="http://www.w3.org/1999/xlink" width="500" zoomAndPan="magnify" viewBox="0 0 375 374.999991" height="500" preserveAspectRatio="xMidYMid meet" version="1.0"><defs><clipPath id="47893a3b20"><path d="M 30.832031 44.746094 L 87.382812 44.746094 L 87.382812 71.355469 L 30.832031 71.355469 Z M 30.832031 44.746094 " clip-rule="nonzero"/></clipPath><clipPath id="0545995399"><path d="M 30.882812 58.050781 C 30.882812 50.703125 36.839844 44.746094 44.1875 44.746094 L 74.074219 44.746094 C 81.425781 44.746094 87.382812 50.703125 87.382812 58.050781 C 87.382812 65.398438 81.425781 71.355469 74.074219 71.355469 L 44.1875 71.355469 C 36.839844 71.355469 30.882812 65.398438 30.882812 58.050781 Z M 30.882812 58.050781 " clip-rule="nonzero"/></clipPath><clipPath id="a9893c1b59"><path d="M 0.832031 0.746094 L 57.382812 0.746094 L 57.382812 27.355469 L 0.832031 27.355469 Z M 0.832031 0.746094 " clip-rule="nonzero"/></clipPath><clipPath id="d05d9748ab"><path d="M 0.882812 14.050781 C 0.882812 6.703125 6.839844 0.746094 14.1875 0.746094 L 44.074219 0.746094 C 51.425781 0.746094 57.382812 6.703125 57.382812 14.050781 C 57.382812 21.398438 51.425781 27.355469 44.074219 27.355469 L 14.1875 27.355469 C 6.839844 27.355469 0.882812 21.398438 0.882812 14.050781 Z M 0.882812 14.050781 " clip-rule="nonzero"/></clipPath><clipPath id="bb501a001f"><rect x="0" width="58" y="0" height="28"/></clipPath><clipPath id="c819ded5f2"><path d="M 221.792969 315.261719 L 248.402344 315.261719 L 248.402344 371.8125 L 221.792969 371.8125 Z M 221.792969 315.261719 " clip-rule="nonzero"/></clipPath><clipPath id="287dde55a5"><path d="M 235.097656 371.761719 C 227.75 371.761719 221.792969 365.804688 221.792969 358.457031 L 221.792969 328.566406 C 221.792969 321.21875 227.75 315.261719 235.097656 315.261719 C 242.445312 315.261719 248.402344 321.21875 248.402344 328.566406 L 248.402344 358.457031 C 248.402344 365.804688 242.445312 371.761719 235.097656 371.761719 Z M 235.097656 371.761719 " clip-rule="nonzero"/></clipPath><clipPath id="b4a2329443"><path d="M 0.792969 0.261719 L 27.402344 0.261719 L 27.402344 56.8125 L 0.792969 56.8125 Z M 0.792969 0.261719 " clip-rule="nonzero"/></clipPath><clipPath id="033be3da11"><path d="M 14.097656 56.761719 C 6.75 56.761719 0.792969 50.804688 0.792969 43.457031 L 0.792969 13.566406 C 0.792969 6.21875 6.75 0.261719 14.097656 0.261719 C 21.445312 0.261719 27.402344 6.21875 27.402344 13.566406 L 27.402344 43.457031 C 27.402344 50.804688 21.445312 56.761719 14.097656 56.761719 Z M 14.097656 56.761719 " clip-rule="nonzero"/></clipPath><clipPath id="59d87cb72b"><rect x="0" width="28" y="0" height="57"/></clipPath></defs><path fill="#000000" d="M 314.34375 0 L 103.625 0 C 85.953125 0 71.496094 14.464844 71.496094 32.144531 L 71.496094 298.125 C 71.496094 315.804688 85.953125 330.269531 103.625 330.269531 L 314.34375 330.269531 C 332.015625 330.269531 346.476562 315.9375 346.476562 298.125 L 346.476562 32.144531 C 346.476562 14.464844 332.015625 0 314.34375 0 Z M 319.699219 298.125 C 319.699219 301.070312 317.289062 303.480469 314.34375 303.480469 L 103.625 303.480469 C 100.679688 303.480469 98.269531 301.070312 98.269531 298.125 L 98.269531 32.144531 C 98.269531 29.195312 100.679688 26.785156 103.625 26.785156 L 314.34375 26.785156 C 317.289062 26.785156 319.699219 29.195312 319.699219 32.144531 Z M 319.699219 298.125 " fill-opacity="1" fill-rule="nonzero"/><path fill="#000000" d="M 234.824219 348.214844 L 61.054688 348.214844 C 57.839844 348.214844 55.164062 345.535156 55.164062 342.320312 L 55.164062 58.257812 C 55.164062 50.894531 49.140625 44.867188 41.777344 44.867188 C 34.414062 44.867188 28.386719 50.894531 28.386719 58.257812 L 28.386719 342.320312 C 28.386719 360.402344 42.980469 375 61.054688 375 L 234.691406 375 C 242.050781 375 248.078125 368.972656 248.078125 361.605469 C 248.078125 354.242188 242.1875 348.214844 234.824219 348.214844 Z M 234.824219 348.214844 " fill-opacity="1" fill-rule="nonzero"/><path fill="#000000" d="M 281.277344 96.5625 L 143.386719 96.5625 C 136.023438 96.5625 130 102.589844 130 109.957031 C 130 117.320312 136.023438 123.347656 143.386719 123.347656 L 281.277344 123.347656 C 288.640625 123.347656 294.664062 117.320312 294.664062 109.957031 C 294.664062 102.589844 288.773438 96.5625 281.277344 96.5625 Z M 281.277344 96.5625 " fill-opacity="1" fill-rule="nonzero"/><path fill="#000000" d="M 277.929688 151.742188 L 140.039062 151.742188 C 132.675781 151.742188 126.652344 157.769531 126.652344 165.132812 C 126.652344 172.5 132.675781 178.527344 140.039062 178.527344 L 277.929688 178.527344 C 285.292969 178.527344 291.320312 172.5 291.320312 165.132812 C 291.320312 157.769531 285.292969 151.742188 277.929688 151.742188 Z M 277.929688 151.742188 " fill-opacity="1" fill-rule="nonzero"/><path fill="#000000" d="M 274.449219 206.917969 L 136.558594 206.917969 C 129.195312 206.917969 123.171875 212.945312 123.171875 220.3125 C 123.171875 227.679688 129.195312 233.707031 136.558594 233.707031 L 274.449219 233.707031 C 281.8125 233.707031 287.839844 227.679688 287.839844 220.3125 C 287.839844 212.945312 281.8125 206.917969 274.449219 206.917969 Z M 274.449219 206.917969 " fill-opacity="1" fill-rule="nonzero"/><g clip-path="url(#47893a3b20)"><g clip-path="url(#0545995399)"><g transform="matrix(1, 0, 0, 1, 30, 44)"><g clip-path="url(#bb501a001f)"><g clip-path="url(#a9893c1b59)"><g clip-path="url(#d05d9748ab)"><path fill="#000000" d="M 57.382812 27.355469 L 0.832031 27.355469 L 0.832031 0.746094 L 57.382812 0.746094 Z M 57.382812 27.355469 " fill-opacity="1" fill-rule="nonzero"/></g></g></g></g></g></g><g clip-path="url(#c819ded5f2)"><g clip-path="url(#287dde55a5)"><g transform="matrix(1, 0, 0, 1, 221, 315)"><g clip-path="url(#59d87cb72b)"><g clip-path="url(#b4a2329443)"><g clip-path="url(#033be3da11)"><path fill="#000000" d="M 27.402344 0.261719 L 27.402344 56.8125 L 0.792969 56.8125 L 0.792969 0.261719 Z M 27.402344 0.261719 " fill-opacity="1" fill-rule="nonzero"/></g></g></g></g></g></g></svg>