<svg xmlns="http://www.w3.org/2000/svg" xmlns:xlink="http://www.w3.org/1999/xlink" width="500" zoomAndPan="magnify" viewBox="0 0 375 374.999991" height="500" preserveAspectRatio="xMidYMid meet" version="1.0"><defs><clipPath id="eef2b7a64f"><path d="M 30.832031 44.746094 L 87.382812 44.746094 L 87.382812 71.355469 L 30.832031 71.355469 Z M 30.832031 44.746094 " clip-rule="nonzero"/></clipPath><clipPath id="868bd7efeb"><path d="M 30.882812 58.050781 C 30.882812 50.703125 36.839844 44.746094 44.1875 44.746094 L 74.074219 44.746094 C 81.425781 44.746094 87.382812 50.703125 87.382812 58.050781 C 87.382812 65.398438 81.425781 71.355469 74.074219 71.355469 L 44.1875 71.355469 C 36.839844 71.355469 30.882812 65.398438 30.882812 58.050781 Z M 30.882812 58.050781 " clip-rule="nonzero"/></clipPath><clipPath id="06d1e0b8f9"><path d="M 0.832031 0.746094 L 57.382812 0.746094 L 57.382812 27.355469 L 0.832031 27.355469 Z M 0.832031 0.746094 " clip-rule="nonzero"/></clipPath><clipPath id="dd85c3a426"><path d="M 0.882812 14.050781 C 0.882812 6.703125 6.839844 0.746094 14.1875 0.746094 L 44.074219 0.746094 C 51.425781 0.746094 57.382812 6.703125 57.382812 14.050781 C 57.382812 21.398438 51.425781 27.355469 44.074219 27.355469 L 14.1875 27.355469 C 6.839844 27.355469 0.882812 21.398438 0.882812 14.050781 Z M 0.882812 14.050781 " clip-rule="nonzero"/></clipPath><clipPath id="a6b0224d80"><rect x="0" width="58" y="0" height="28"/></clipPath><clipPath id="c4391342ba"><path d="M 221.792969 315.261719 L 248.402344 315.261719 L 248.402344 371.8125 L 221.792969 371.8125 Z M 221.792969 315.261719 " clip-rule="nonzero"/></clipPath><clipPath id="93d2f7a8b7"><path d="M 235.097656 371.761719 C 227.75 371.761719 221.792969 365.804688 221.792969 358.457031 L 221.792969 328.566406 C 221.792969 321.21875 227.75 315.261719 235.097656 315.261719 C 242.445312 315.261719 248.402344 321.21875 248.402344 328.566406 L 248.402344 358.457031 C 248.402344 365.804688 242.445312 371.761719 235.097656 371.761719 Z M 235.097656 371.761719 " clip-rule="nonzero"/></clipPath><clipPath id="cd625f0dfb"><path d="M 0.792969 0.261719 L 27.402344 0.261719 L 27.402344 56.8125 L 0.792969 56.8125 Z M 0.792969 0.261719 " clip-rule="nonzero"/></clipPath><clipPath id="05b174098b"><path d="M 14.097656 56.761719 C 6.75 56.761719 0.792969 50.804688 0.792969 43.457031 L 0.792969 13.566406 C 0.792969 6.21875 6.75 0.261719 14.097656 0.261719 C 21.445312 0.261719 27.402344 6.21875 27.402344 13.566406 L 27.402344 43.457031 C 27.402344 50.804688 21.445312 56.761719 14.097656 56.761719 Z M 14.097656 56.761719 " clip-rule="nonzero"/></clipPath><clipPath id="c57b106084"><rect x="0" width="28" y="0" height="57"/></clipPath></defs><path fill="#808080" d="M 314.460938 0 L 103.65625 0 C 85.976562 0 71.515625 14.464844 71.515625 32.144531 L 71.515625 298.125 C 71.515625 315.804688 85.976562 330.269531 103.65625 330.269531 L 314.460938 330.269531 C 332.140625 330.269531 346.601562 315.9375 346.601562 298.125 L 346.601562 32.144531 C 346.601562 14.464844 332.140625 0 314.460938 0 Z M 319.816406 298.125 C 319.816406 301.070312 317.40625 303.480469 314.460938 303.480469 L 103.65625 303.480469 C 100.710938 303.480469 98.300781 301.070312 98.300781 298.125 L 98.300781 32.144531 C 98.300781 29.195312 100.710938 26.785156 103.65625 26.785156 L 314.460938 26.785156 C 317.40625 26.785156 319.816406 29.195312 319.816406 32.144531 Z M 319.816406 298.125 " fill-opacity="1" fill-rule="nonzero"/><path fill="#808080" d="M 234.90625 348.214844 L 61.066406 348.214844 C 57.851562 348.214844 55.175781 345.535156 55.175781 342.320312 L 55.175781 58.257812 C 55.175781 50.894531 49.148438 44.867188 41.78125 44.867188 C 34.414062 44.867188 28.390625 50.894531 28.390625 58.257812 L 28.390625 342.320312 C 28.390625 360.402344 42.988281 375 61.066406 375 L 234.773438 375 C 242.140625 375 248.164062 368.972656 248.164062 361.605469 C 248.164062 354.242188 242.273438 348.214844 234.90625 348.214844 Z M 234.90625 348.214844 " fill-opacity="1" fill-rule="nonzero"/><path fill="#808080" d="M 281.378906 96.5625 L 143.433594 96.5625 C 136.066406 96.5625 130.039062 102.589844 130.039062 109.957031 C 130.039062 117.320312 136.066406 123.347656 143.433594 123.347656 L 281.378906 123.347656 C 288.746094 123.347656 294.773438 117.320312 294.773438 109.957031 C 294.773438 102.589844 288.878906 96.5625 281.378906 96.5625 Z M 281.378906 96.5625 " fill-opacity="1" fill-rule="nonzero"/><path fill="#808080" d="M 278.03125 151.742188 L 140.085938 151.742188 C 132.71875 151.742188 126.691406 157.769531 126.691406 165.132812 C 126.691406 172.5 132.71875 178.527344 140.085938 178.527344 L 278.03125 178.527344 C 285.398438 178.527344 291.425781 172.5 291.425781 165.132812 C 291.425781 157.769531 285.398438 151.742188 278.03125 151.742188 Z M 278.03125 151.742188 " fill-opacity="1" fill-rule="nonzero"/><path fill="#808080" d="M 274.550781 206.917969 L 136.601562 206.917969 C 129.238281 206.917969 123.210938 212.945312 123.210938 220.3125 C 123.210938 227.679688 129.238281 233.707031 136.601562 233.707031 L 274.550781 233.707031 C 281.914062 233.707031 287.941406 227.679688 287.941406 220.3125 C 287.941406 212.945312 281.914062 206.917969 274.550781 206.917969 Z M 274.550781 206.917969 " fill-opacity="1" fill-rule="nonzero"/><g clip-path="url(#eef2b7a64f)"><g clip-path="url(#868bd7efeb)"><g transform="matrix(1, 0, 0, 1, 30, 44)"><g clip-path="url(#a6b0224d80)"><g clip-path="url(#06d1e0b8f9)"><g clip-path="url(#dd85c3a426)"><path fill="#808080" d="M 57.382812 27.355469 L 0.832031 27.355469 L 0.832031 0.746094 L 57.382812 0.746094 Z M 57.382812 27.355469 " fill-opacity="1" fill-rule="nonzero"/></g></g></g></g></g></g><g clip-path="url(#c4391342ba)"><g clip-path="url(#93d2f7a8b7)"><g transform="matrix(1, 0, 0, 1, 221, 315)"><g clip-path="url(#c57b106084)"><g clip-path="url(#cd625f0dfb)"><g clip-path="url(#05b174098b)"><path fill="#808080" d="M 27.402344 0.261719 L 27.402344 56.8125 L 0.792969 56.8125 L 0.792969 0.261719 Z M 27.402344 0.261719 " fill-opacity="1" fill-rule="nonzero"/></g></g></g></g></g></g></svg>