<?xml version="1.0" encoding="UTF-8" standalone="no"?>
<svg
   width="375pt"
   height="374.999991pt"
   viewBox="0 0 375 374.999991"
   version="1.2"
   id="svg8"
   sodipodi:docname="resize_grey.svg"
   inkscape:version="1.4 (e7c3feb, 2024-10-09)"
   xmlns:inkscape="http://www.inkscape.org/namespaces/inkscape"
   xmlns:sodipodi="http://sodipodi.sourceforge.net/DTD/sodipodi-0.dtd"
   xmlns="http://www.w3.org/2000/svg"
   xmlns:svg="http://www.w3.org/2000/svg">
  <defs
     id="defs8" />
  <sodipodi:namedview
     id="namedview8"
     pagecolor="#505050"
     bordercolor="#eeeeee"
     borderopacity="1"
     inkscape:showpageshadow="0"
     inkscape:pageopacity="0"
     inkscape:pagecheckerboard="0"
     inkscape:deskcolor="#505050"
     inkscape:document-units="pt"
     inkscape:zoom="2.332"
     inkscape:cx="249.78559"
     inkscape:cy="250"
     inkscape:window-width="2560"
     inkscape:window-height="1403"
     inkscape:window-x="0"
     inkscape:window-y="0"
     inkscape:window-maximized="1"
     inkscape:current-layer="surface1" />
  <g
     id="surface1">
    <path
       style="stroke:none;fill-rule:nonzero;fill:#808080;fill-opacity:1"
       d="M 323.265625 300.554688 L 314.835938 241.578125 C 314.417969 238.738281 313.257812 236.367188 311.441406 234.554688 C 307.585938 230.695312 301.769531 230.839844 297.628906 234.980469 L 282.546875 250.0625 L 244.605469 212.121094 C 238.097656 205.890625 227.773438 205.992188 221.347656 212.414062 C 214.925781 218.835938 214.828125 229.164062 221.054688 235.671875 L 258.996094 273.613281 L 243.917969 288.691406 C 239.773438 292.835938 239.632812 298.648438 243.488281 302.507812 C 245.304688 304.320312 247.722656 305.4375 250.558594 305.851562 L 309.488281 314.332031 C 313.582031 314.886719 317.445312 313.722656 320.050781 311.113281 C 322.703125 308.460938 323.820312 304.648438 323.265625 300.554688 Z M 323.265625 300.554688 "
       id="path1" />
    <path
       style="stroke:none;fill-rule:nonzero;fill:#808080;fill-opacity:1"
       d="M 309.066406 62.511719 L 250.355469 70.902344 C 247.53125 71.316406 245.171875 72.472656 243.363281 74.28125 C 239.523438 78.121094 239.667969 83.910156 243.789062 88.03125 L 258.800781 103.042969 L 221.03125 140.8125 C 214.832031 147.292969 214.929688 157.574219 221.324219 163.964844 C 227.71875 170.359375 238 170.460938 244.476562 164.257812 L 282.246094 126.488281 L 297.257812 141.5 C 301.382812 145.625 307.171875 145.765625 311.011719 141.925781 C 312.816406 140.121094 313.925781 137.714844 314.339844 134.890625 L 322.78125 76.226562 C 323.335938 72.148438 322.175781 68.304688 319.578125 65.710938 C 316.9375 63.070312 313.140625 61.957031 309.066406 62.511719 Z M 309.066406 62.511719 "
       id="path2" />
    <path
       style="stroke:none;fill-rule:nonzero;fill:#808080;fill-opacity:1"
       d="M 75.207031 313.589844 L 133.917969 305.199219 C 136.742188 304.78125 139.101562 303.625 140.90625 301.820312 C 144.75 297.980469 144.605469 292.191406 140.484375 288.066406 L 125.46875 273.054688 L 163.238281 235.285156 C 169.441406 228.808594 169.34375 218.527344 162.949219 212.132812 C 156.554688 205.738281 146.273438 205.640625 139.796875 211.839844 L 102.027344 249.609375 L 87.011719 234.597656 C 82.890625 230.476562 77.101562 230.332031 73.261719 234.171875 C 71.453125 235.980469 70.34375 238.386719 69.929688 241.210938 L 61.492188 299.875 C 60.9375 303.949219 62.097656 307.792969 64.691406 310.390625 C 67.332031 313.03125 71.128906 314.144531 75.207031 313.589844 Z M 75.207031 313.589844 "
       id="path3" />
    <path
       style="stroke:none;fill-rule:nonzero;fill:#808080;fill-opacity:1"
       d="M 61.011719 75.546875 L 69.441406 134.523438 C 69.859375 137.359375 71.023438 139.730469 72.835938 141.542969 C 76.691406 145.402344 82.507812 145.261719 86.648438 141.117188 L 101.730469 126.039062 L 139.671875 163.976562 C 146.179688 170.207031 156.507812 170.109375 162.929688 163.683594 C 169.351562 157.261719 169.453125 146.9375 163.222656 140.425781 L 125.28125 102.488281 L 140.363281 87.40625 C 144.503906 83.265625 144.648438 77.449219 140.789062 73.589844 C 138.976562 71.777344 136.558594 70.664062 133.71875 70.246094 L 74.789062 61.769531 C 70.695312 61.210938 66.835938 62.378906 64.226562 64.984375 C 61.574219 67.636719 60.457031 71.453125 61.011719 75.546875 Z M 61.011719 75.546875 "
       id="path4" />
    <path
       style="stroke:none;fill-rule:nonzero;fill:#808080;fill-opacity:1"
       d="M 364.847656 -0.121094 C 369.722656 0.367188 373.902344 4.136719 374.558594 8.972656 C 374.640625 9.589844 374.640625 9.753906 374.679688 10.367188 L 374.679688 136.652344 C 374.640625 137.265625 374.640625 137.429688 374.558594 138.085938 C 373.613281 145.050781 364.394531 149.679688 358.085938 145.214844 C 355.75 143.574219 354.109375 140.910156 353.703125 138.085938 C 353.621094 137.429688 353.660156 137.265625 353.621094 136.652344 L 353.621094 20.898438 L 237.167969 20.898438 C 236.554688 20.816406 236.390625 20.816406 235.734375 20.691406 C 229.917969 19.464844 225.941406 12.621094 227.992188 6.882812 C 229.261719 3.277344 232.664062 0.492188 236.472656 -0.0390625 C 237.085938 -0.121094 237.25 -0.121094 237.90625 -0.121094 L 364.148438 -0.121094 C 364.394531 -0.121094 364.601562 -0.121094 364.847656 -0.121094 "
       id="path5" />
    <path
       style="stroke:none;fill-rule:nonzero;fill:#808080;fill-opacity:1"
       d="M 375.121094 364.847656 C 374.632812 369.722656 370.863281 373.902344 366.027344 374.558594 C 365.410156 374.640625 365.246094 374.640625 364.632812 374.679688 L 238.347656 374.679688 C 237.734375 374.640625 237.570312 374.640625 236.914062 374.558594 C 229.949219 373.613281 225.320312 364.394531 229.785156 358.085938 C 231.425781 355.75 234.089844 354.109375 236.914062 353.703125 C 237.570312 353.621094 237.734375 353.660156 238.347656 353.621094 L 354.101562 353.621094 L 354.101562 237.167969 C 354.183594 236.554688 354.183594 236.390625 354.308594 235.734375 C 355.535156 229.917969 362.378906 225.941406 368.117188 227.992188 C 371.722656 229.261719 374.507812 232.664062 375.039062 236.472656 C 375.121094 237.085938 375.121094 237.25 375.121094 237.90625 L 375.121094 364.148438 C 375.121094 364.394531 375.121094 364.601562 375.121094 364.847656 "
       id="path6" />
    <path
       style="stroke:none;fill-rule:nonzero;fill:#808080;fill-opacity:1"
       d="M 10.152344 375.121094 C 5.277344 374.632812 1.097656 370.863281 0.441406 366.027344 C 0.359375 365.410156 0.359375 365.246094 0.320312 364.632812 L 0.320312 238.347656 C 0.359375 237.734375 0.359375 237.570312 0.441406 236.914062 C 1.386719 229.949219 10.605469 225.320312 16.914062 229.785156 C 19.25 231.425781 20.890625 234.089844 21.296875 236.914062 C 21.378906 237.570312 21.339844 237.734375 21.378906 238.347656 L 21.378906 354.101562 L 137.832031 354.101562 C 138.445312 354.183594 138.609375 354.183594 139.265625 354.308594 C 145.082031 355.535156 149.058594 362.378906 147.007812 368.117188 C 145.738281 371.722656 142.335938 374.507812 138.527344 375.039062 C 137.914062 375.121094 137.75 375.121094 137.09375 375.121094 L 10.851562 375.121094 C 10.605469 375.121094 10.398438 375.121094 10.152344 375.121094 "
       id="path7" />
    <path
       style="stroke:none;fill-rule:nonzero;fill:#808080;fill-opacity:1"
       d="M -0.121094 10.152344 C 0.367188 5.277344 4.136719 1.097656 8.972656 0.441406 C 9.589844 0.359375 9.753906 0.359375 10.367188 0.320312 L 136.652344 0.320312 C 137.265625 0.359375 137.429688 0.359375 138.085938 0.441406 C 145.050781 1.386719 149.679688 10.605469 145.214844 16.914062 C 143.574219 19.25 140.910156 20.890625 138.085938 21.296875 C 137.429688 21.378906 137.265625 21.339844 136.652344 21.378906 L 20.898438 21.378906 L 20.898438 137.832031 C 20.816406 138.445312 20.816406 138.609375 20.691406 139.265625 C 19.464844 145.082031 12.621094 149.058594 6.882812 147.007812 C 3.277344 145.738281 0.492188 142.335938 -0.0390625 138.527344 C -0.121094 137.914062 -0.121094 137.75 -0.121094 137.09375 L -0.121094 10.851562 C -0.121094 10.605469 -0.121094 10.398438 -0.121094 10.152344 "
       id="path8" />
  </g>
</svg>
