<?xml version="1.0" encoding="UTF-8"?>
<svg xmlns="http://www.w3.org/2000/svg" xmlns:xlink="http://www.w3.org/1999/xlink" width="12pt" height="12pt" viewBox="0 0 12 12" version="1.1">
<g id="surface1">
<path style=" stroke:none;fill-rule:nonzero;fill:#808080;fill-opacity:1;" d="M 11.785156 3.898438 L 6.226562 0.101562 C 6.074219 0 5.878906 0 5.730469 0.101562 L 0.171875 3.898438 C 0.0117188 4.003906 -0.0546875 4.203125 0 4.386719 C 0.0585938 4.570312 0.226562 4.695312 0.421875 4.695312 L 1.445312 4.695312 L 1.445312 11.554688 C 1.445312 11.796875 1.640625 11.992188 1.882812 11.992188 L 10.074219 11.992188 C 10.316406 11.992188 10.511719 11.796875 10.511719 11.554688 L 10.511719 4.695312 L 11.535156 4.695312 C 11.730469 4.695312 11.898438 4.570312 11.957031 4.386719 C 12.011719 4.203125 11.941406 4.003906 11.785156 3.898438 Z M 7.585938 5.425781 C 7.585938 6.3125 6.867188 7.03125 5.980469 7.03125 C 5.089844 7.03125 4.371094 6.3125 4.371094 5.425781 C 4.371094 4.539062 5.089844 3.820312 5.980469 3.820312 C 6.867188 3.820312 7.585938 4.539062 7.585938 5.425781 Z M 8.320312 11.261719 L 3.636719 11.261719 L 3.636719 8.164062 C 3.636719 7.777344 3.949219 7.464844 4.335938 7.464844 L 7.617188 7.464844 C 8.003906 7.464844 8.316406 7.777344 8.316406 8.164062 L 8.316406 11.261719 Z M 8.320312 11.261719 "/>
</g>
</svg>
