<svg xmlns="http://www.w3.org/2000/svg" xmlns:xlink="http://www.w3.org/1999/xlink" width="500" zoomAndPan="magnify" viewBox="0 0 375 374.999991" height="500" preserveAspectRatio="xMidYMid meet" version="1.0"><path fill="#000000" d="M 373.140625 90.976562 L 284.019531 1.855469 C 283.363281 1.199219 282.601562 0.691406 281.742188 0.335938 C 280.882812 -0.0195312 279.988281 -0.199219 279.054688 -0.199219 L 31.46875 -0.199219 C 30.445312 -0.199219 29.421875 -0.148438 28.402344 -0.046875 C 27.382812 0.0546875 26.371094 0.203125 25.367188 0.40625 C 24.363281 0.605469 23.371094 0.855469 22.390625 1.152344 C 21.410156 1.449219 20.445312 1.792969 19.5 2.1875 C 18.554688 2.578125 17.628906 3.015625 16.726562 3.5 C 15.824219 3.984375 14.945312 4.511719 14.09375 5.078125 C 13.242188 5.648438 12.421875 6.257812 11.628906 6.90625 C 10.835938 7.558594 10.078125 8.246094 9.355469 8.96875 C 8.628906 9.695312 7.941406 10.453125 7.292969 11.242188 C 6.644531 12.035156 6.035156 12.855469 5.464844 13.707031 C 4.894531 14.558594 4.367188 15.4375 3.886719 16.339844 C 3.402344 17.242188 2.964844 18.167969 2.570312 19.113281 C 2.179688 20.0625 1.835938 21.023438 1.535156 22.003906 C 1.238281 22.984375 0.988281 23.976562 0.789062 24.980469 C 0.589844 25.984375 0.4375 26.996094 0.335938 28.015625 C 0.234375 29.035156 0.183594 30.058594 0.183594 31.082031 L 0.183594 343.546875 C 0.183594 344.574219 0.234375 345.59375 0.335938 346.613281 C 0.4375 347.632812 0.589844 348.644531 0.789062 349.648438 C 0.988281 350.652344 1.238281 351.648438 1.535156 352.625 C 1.835938 353.605469 2.179688 354.570312 2.570312 355.515625 C 2.964844 356.460938 3.402344 357.386719 3.886719 358.289062 C 4.367188 359.195312 4.894531 360.070312 5.464844 360.921875 C 6.035156 361.773438 6.644531 362.597656 7.292969 363.386719 C 7.941406 364.179688 8.628906 364.9375 9.355469 365.660156 C 10.078125 366.386719 10.835938 367.074219 11.628906 367.722656 C 12.421875 368.375 13.242188 368.984375 14.09375 369.550781 C 14.945312 370.121094 15.824219 370.648438 16.726562 371.128906 C 17.628906 371.613281 18.554688 372.050781 19.5 372.445312 C 20.445312 372.835938 21.410156 373.179688 22.390625 373.480469 C 23.371094 373.777344 24.363281 374.027344 25.367188 374.226562 C 26.371094 374.425781 27.382812 374.578125 28.402344 374.679688 C 29.421875 374.78125 30.445312 374.832031 31.46875 374.832031 L 343.929688 374.832031 C 344.953125 374.832031 345.976562 374.78125 346.996094 374.679688 C 348.015625 374.578125 349.027344 374.425781 350.03125 374.226562 C 351.035156 374.027344 352.027344 373.777344 353.007812 373.480469 C 353.988281 373.183594 354.953125 372.835938 355.898438 372.445312 C 356.84375 372.050781 357.769531 371.613281 358.671875 371.132812 C 359.574219 370.648438 360.453125 370.121094 361.304688 369.554688 C 362.15625 368.984375 362.976562 368.375 363.769531 367.722656 C 364.5625 367.074219 365.320312 366.386719 366.042969 365.664062 C 366.769531 364.9375 367.457031 364.179688 368.105469 363.390625 C 368.753906 362.597656 369.363281 361.773438 369.933594 360.921875 C 370.503906 360.070312 371.03125 359.195312 371.511719 358.292969 C 371.996094 357.386719 372.433594 356.464844 372.824219 355.515625 C 373.21875 354.570312 373.5625 353.605469 373.859375 352.628906 C 374.160156 351.648438 374.40625 350.65625 374.609375 349.648438 C 374.808594 348.644531 374.960938 347.632812 375.058594 346.613281 C 375.160156 345.59375 375.210938 344.574219 375.210938 343.546875 L 375.210938 95.941406 C 375.210938 95.007812 375.03125 94.109375 374.671875 93.25 C 374.3125 92.390625 373.800781 91.632812 373.140625 90.976562 Z M 270.984375 13.835938 L 270.984375 95.089844 C 270.980469 95.871094 270.941406 96.652344 270.867188 97.429688 C 270.789062 98.207031 270.671875 98.980469 270.519531 99.746094 C 270.367188 100.511719 270.175781 101.269531 269.949219 102.019531 C 269.722656 102.765625 269.457031 103.5 269.160156 104.222656 C 268.859375 104.945312 268.523438 105.652344 268.15625 106.339844 C 267.789062 107.027344 267.386719 107.699219 266.953125 108.347656 C 266.515625 109 266.050781 109.625 265.554688 110.230469 C 265.058594 110.832031 264.535156 111.414062 263.984375 111.964844 C 263.429688 112.519531 262.851562 113.042969 262.246094 113.539062 C 261.644531 114.035156 261.015625 114.5 260.367188 114.933594 C 259.714844 115.367188 259.046875 115.769531 258.355469 116.140625 C 257.667969 116.507812 256.960938 116.84375 256.238281 117.140625 C 255.519531 117.441406 254.78125 117.703125 254.035156 117.933594 C 253.285156 118.160156 252.53125 118.347656 251.761719 118.503906 C 250.996094 118.65625 250.222656 118.769531 249.445312 118.847656 C 248.667969 118.925781 247.886719 118.964844 247.105469 118.964844 L 128.285156 118.964844 C 127.503906 118.964844 126.726562 118.925781 125.945312 118.847656 C 125.167969 118.769531 124.398438 118.65625 123.628906 118.5 C 122.863281 118.347656 122.105469 118.160156 121.359375 117.929688 C 120.609375 117.703125 119.875 117.441406 119.152344 117.140625 C 118.433594 116.839844 117.726562 116.507812 117.035156 116.136719 C 116.347656 115.769531 115.679688 115.367188 115.027344 114.933594 C 114.378906 114.5 113.75 114.03125 113.148438 113.539062 C 112.542969 113.042969 111.964844 112.515625 111.410156 111.964844 C 110.859375 111.410156 110.335938 110.832031 109.839844 110.230469 C 109.34375 109.625 108.878906 108.996094 108.441406 108.347656 C 108.007812 107.699219 107.605469 107.027344 107.238281 106.339844 C 106.871094 105.648438 106.535156 104.945312 106.234375 104.222656 C 105.9375 103.5 105.671875 102.765625 105.445312 102.015625 C 105.21875 101.269531 105.027344 100.511719 104.875 99.746094 C 104.71875 98.980469 104.605469 98.207031 104.527344 97.429688 C 104.449219 96.652344 104.410156 95.871094 104.410156 95.089844 L 104.410156 13.835938 Z M 70.074219 360.761719 L 70.074219 234.507812 C 70.074219 233.726562 70.113281 232.949219 70.191406 232.171875 C 70.269531 231.390625 70.386719 230.621094 70.539062 229.851562 C 70.691406 229.085938 70.882812 228.328125 71.109375 227.582031 C 71.335938 226.832031 71.601562 226.097656 71.898438 225.378906 C 72.199219 224.65625 72.535156 223.949219 72.902344 223.261719 C 73.269531 222.570312 73.671875 221.902344 74.105469 221.25 C 74.542969 220.601562 75.007812 219.972656 75.503906 219.371094 C 76 218.765625 76.523438 218.1875 77.074219 217.636719 C 77.628906 217.082031 78.207031 216.558594 78.8125 216.0625 C 79.414062 215.566406 80.042969 215.101562 80.691406 214.667969 C 81.34375 214.230469 82.011719 213.828125 82.703125 213.460938 C 83.390625 213.09375 84.097656 212.757812 84.816406 212.457031 C 85.539062 212.160156 86.273438 211.894531 87.023438 211.667969 C 87.769531 211.441406 88.527344 211.25 89.292969 211.097656 C 90.0625 210.945312 90.832031 210.828125 91.609375 210.75 C 92.390625 210.671875 93.167969 210.632812 93.949219 210.632812 L 281.445312 210.632812 C 282.226562 210.632812 283.007812 210.675781 283.785156 210.75 C 284.5625 210.828125 285.335938 210.945312 286.101562 211.097656 C 286.867188 211.25 287.625 211.441406 288.375 211.667969 C 289.121094 211.898438 289.855469 212.160156 290.578125 212.460938 C 291.300781 212.757812 292.003906 213.09375 292.695312 213.460938 C 293.382812 213.832031 294.054688 214.234375 294.703125 214.667969 C 295.351562 215.101562 295.980469 215.566406 296.582031 216.0625 C 297.1875 216.558594 297.765625 217.082031 298.320312 217.636719 C 298.871094 218.1875 299.394531 218.765625 299.890625 219.371094 C 300.386719 219.976562 300.851562 220.601562 301.285156 221.253906 C 301.722656 221.902344 302.121094 222.570312 302.492188 223.261719 C 302.859375 223.949219 303.195312 224.65625 303.492188 225.378906 C 303.792969 226.101562 304.054688 226.835938 304.285156 227.582031 C 304.511719 228.332031 304.703125 229.085938 304.855469 229.855469 C 305.007812 230.621094 305.125 231.390625 305.199219 232.171875 C 305.277344 232.949219 305.316406 233.726562 305.316406 234.507812 L 305.316406 360.761719 Z M 361.160156 343.515625 C 361.160156 344.082031 361.132812 344.644531 361.074219 345.207031 C 361.019531 345.769531 360.9375 346.328125 360.828125 346.878906 C 360.71875 347.433594 360.582031 347.980469 360.417969 348.523438 C 360.253906 349.0625 360.0625 349.59375 359.847656 350.117188 C 359.628906 350.636719 359.390625 351.148438 359.121094 351.644531 C 358.855469 352.144531 358.566406 352.628906 358.253906 353.097656 C 357.9375 353.566406 357.601562 354.019531 357.246094 354.457031 C 356.886719 354.894531 356.507812 355.3125 356.109375 355.710938 C 355.707031 356.109375 355.289062 356.488281 354.855469 356.847656 C 354.417969 357.207031 353.964844 357.542969 353.496094 357.855469 C 353.023438 358.167969 352.539062 358.460938 352.042969 358.726562 C 351.542969 358.992188 351.035156 359.234375 350.511719 359.449219 C 349.992188 359.664062 349.460938 359.855469 348.917969 360.019531 C 348.378906 360.183594 347.832031 360.320312 347.277344 360.429688 C 346.722656 360.539062 346.164062 360.625 345.605469 360.679688 C 345.042969 360.734375 344.476562 360.761719 343.914062 360.761719 L 319.355469 360.761719 L 319.355469 234.507812 C 319.355469 233.269531 319.292969 232.03125 319.167969 230.792969 C 319.046875 229.558594 318.863281 228.332031 318.621094 227.117188 C 318.378906 225.898438 318.074219 224.695312 317.714844 223.507812 C 317.351562 222.320312 316.933594 221.15625 316.460938 220.007812 C 315.984375 218.859375 315.453125 217.742188 314.867188 216.644531 C 314.28125 215.550781 313.644531 214.488281 312.953125 213.457031 C 312.265625 212.425781 311.527344 211.429688 310.738281 210.46875 C 309.949219 209.511719 309.117188 208.589844 308.242188 207.714844 C 307.363281 206.835938 306.445312 206.003906 305.484375 205.214844 C 304.527344 204.429688 303.53125 203.6875 302.5 203 C 301.464844 202.308594 300.402344 201.671875 299.308594 201.085938 C 298.214844 200.5 297.09375 199.96875 295.949219 199.492188 C 294.800781 199.019531 293.632812 198.601562 292.445312 198.238281 C 291.257812 197.878906 290.058594 197.574219 288.839844 197.332031 C 287.621094 197.089844 286.394531 196.90625 285.160156 196.78125 C 283.925781 196.660156 282.6875 196.597656 281.445312 196.597656 L 93.949219 196.597656 C 92.710938 196.597656 91.472656 196.660156 90.234375 196.78125 C 89 196.90625 87.773438 197.089844 86.558594 197.332031 C 85.339844 197.574219 84.136719 197.878906 82.949219 198.238281 C 81.761719 198.601562 80.59375 199.019531 79.449219 199.492188 C 78.300781 199.96875 77.179688 200.5 76.085938 201.085938 C 74.992188 201.671875 73.929688 202.308594 72.898438 203 C 71.867188 203.6875 70.871094 204.429688 69.910156 205.214844 C 68.949219 206.003906 68.03125 206.835938 67.15625 207.714844 C 66.277344 208.589844 65.445312 209.511719 64.65625 210.46875 C 63.871094 211.429688 63.128906 212.425781 62.441406 213.457031 C 61.75 214.488281 61.113281 215.550781 60.527344 216.644531 C 59.941406 217.742188 59.410156 218.859375 58.933594 220.007812 C 58.460938 221.152344 58.042969 222.320312 57.679688 223.507812 C 57.320312 224.695312 57.015625 225.898438 56.773438 227.117188 C 56.53125 228.332031 56.347656 229.558594 56.222656 230.792969 C 56.101562 232.03125 56.039062 233.269531 56.039062 234.507812 L 56.039062 360.761719 L 31.46875 360.761719 C 30.902344 360.761719 30.339844 360.734375 29.777344 360.679688 C 29.214844 360.625 28.65625 360.539062 28.101562 360.429688 C 27.550781 360.320312 27.003906 360.183594 26.460938 360.019531 C 25.921875 359.855469 25.390625 359.664062 24.867188 359.449219 C 24.347656 359.234375 23.835938 358.992188 23.339844 358.726562 C 22.839844 358.460938 22.355469 358.167969 21.886719 357.855469 C 21.417969 357.542969 20.964844 357.207031 20.527344 356.847656 C 20.089844 356.488281 19.671875 356.109375 19.273438 355.710938 C 18.875 355.3125 18.496094 354.894531 18.136719 354.457031 C 17.777344 354.019531 17.441406 353.566406 17.128906 353.097656 C 16.816406 352.628906 16.523438 352.144531 16.257812 351.644531 C 15.992188 351.148438 15.75 350.636719 15.535156 350.117188 C 15.320312 349.59375 15.128906 349.0625 14.964844 348.523438 C 14.800781 347.980469 14.664062 347.433594 14.554688 346.878906 C 14.441406 346.328125 14.359375 345.769531 14.304688 345.207031 C 14.25 344.644531 14.222656 344.082031 14.222656 343.515625 L 14.222656 31.066406 C 14.222656 30.503906 14.25 29.9375 14.304688 29.375 C 14.359375 28.8125 14.441406 28.257812 14.554688 27.703125 C 14.664062 27.148438 14.800781 26.601562 14.964844 26.0625 C 15.128906 25.519531 15.320312 24.988281 15.535156 24.46875 C 15.75 23.945312 15.992188 23.433594 16.257812 22.9375 C 16.523438 22.4375 16.816406 21.957031 17.128906 21.484375 C 17.441406 21.015625 17.777344 20.5625 18.136719 20.125 C 18.496094 19.691406 18.875 19.269531 19.273438 18.871094 C 19.671875 18.472656 20.089844 18.09375 20.527344 17.734375 C 20.964844 17.378906 21.417969 17.042969 21.886719 16.726562 C 22.355469 16.414062 22.839844 16.125 23.339844 15.855469 C 23.835938 15.589844 24.347656 15.351562 24.867188 15.132812 C 25.390625 14.917969 25.921875 14.726562 26.460938 14.5625 C 27.003906 14.398438 27.550781 14.261719 28.101562 14.152344 C 28.65625 14.042969 29.214844 13.960938 29.777344 13.902344 C 30.339844 13.847656 30.902344 13.820312 31.46875 13.820312 L 90.371094 13.820312 L 90.371094 95.089844 C 90.375 96.332031 90.4375 97.570312 90.558594 98.804688 C 90.683594 100.039062 90.867188 101.265625 91.109375 102.484375 C 91.351562 103.699219 91.652344 104.902344 92.015625 106.089844 C 92.375 107.277344 92.796875 108.445312 93.269531 109.589844 C 93.746094 110.738281 94.277344 111.859375 94.863281 112.953125 C 95.449219 114.046875 96.085938 115.109375 96.777344 116.140625 C 97.464844 117.175781 98.203125 118.171875 98.992188 119.128906 C 99.78125 120.089844 100.613281 121.007812 101.492188 121.886719 C 102.367188 122.761719 103.285156 123.59375 104.246094 124.382812 C 105.207031 125.171875 106.203125 125.910156 107.234375 126.601562 C 108.265625 127.289062 109.328125 127.925781 110.421875 128.511719 C 111.515625 129.097656 112.636719 129.628906 113.785156 130.105469 C 114.929688 130.582031 116.097656 131 117.285156 131.359375 C 118.472656 131.722656 119.675781 132.023438 120.894531 132.265625 C 122.109375 132.511719 123.335938 132.691406 124.570312 132.816406 C 125.804688 132.9375 127.042969 133 128.285156 133.003906 L 247.105469 133.003906 C 248.347656 133 249.585938 132.9375 250.820312 132.816406 C 252.058594 132.691406 253.28125 132.511719 254.5 132.265625 C 255.71875 132.023438 256.921875 131.722656 258.109375 131.359375 C 259.296875 131 260.460938 130.582031 261.609375 130.105469 C 262.753906 129.628906 263.875 129.097656 264.96875 128.511719 C 266.066406 127.925781 267.128906 127.289062 268.160156 126.601562 C 269.191406 125.910156 270.1875 125.171875 271.148438 124.382812 C 272.105469 123.59375 273.023438 122.761719 273.902344 121.886719 C 274.78125 121.007812 275.613281 120.089844 276.402344 119.128906 C 277.1875 118.171875 277.925781 117.175781 278.617188 116.140625 C 279.308594 115.109375 279.945312 114.046875 280.53125 112.953125 C 281.117188 111.859375 281.648438 110.738281 282.121094 109.589844 C 282.597656 108.445312 283.015625 107.277344 283.378906 106.089844 C 283.738281 104.902344 284.042969 103.699219 284.285156 102.484375 C 284.527344 101.265625 284.710938 100.039062 284.832031 98.804688 C 284.957031 97.570312 285.019531 96.332031 285.019531 95.089844 L 285.019531 22.703125 L 361.160156 98.847656 Z M 361.160156 343.515625 " fill-opacity="1" fill-rule="nonzero"/><path fill="#000000" d="M 222.054688 102.925781 L 239.179688 102.925781 C 239.980469 102.925781 240.777344 102.847656 241.566406 102.6875 C 242.355469 102.53125 243.121094 102.300781 243.863281 101.992188 C 244.605469 101.683594 245.308594 101.304688 245.976562 100.859375 C 246.644531 100.414062 247.265625 99.90625 247.832031 99.335938 C 248.402344 98.769531 248.910156 98.148438 249.355469 97.480469 C 249.800781 96.8125 250.179688 96.109375 250.488281 95.367188 C 250.796875 94.625 251.027344 93.859375 251.183594 93.070312 C 251.34375 92.28125 251.421875 91.484375 251.421875 90.683594 L 251.421875 37.359375 C 251.421875 36.554688 251.34375 35.761719 251.183594 34.972656 C 251.027344 34.183594 250.796875 33.417969 250.488281 32.675781 C 250.179688 31.933594 249.800781 31.226562 249.355469 30.558594 C 248.910156 29.890625 248.402344 29.273438 247.832031 28.703125 C 247.265625 28.136719 246.644531 27.628906 245.976562 27.183594 C 245.308594 26.734375 244.605469 26.359375 243.863281 26.050781 C 243.121094 25.742188 242.355469 25.507812 241.566406 25.351562 C 240.777344 25.195312 239.980469 25.117188 239.179688 25.113281 L 222.054688 25.113281 C 221.253906 25.117188 220.457031 25.195312 219.667969 25.351562 C 218.878906 25.511719 218.113281 25.742188 217.371094 26.050781 C 216.628906 26.359375 215.925781 26.738281 215.257812 27.183594 C 214.589844 27.628906 213.972656 28.136719 213.402344 28.707031 C 212.835938 29.273438 212.328125 29.890625 211.878906 30.5625 C 211.433594 31.230469 211.054688 31.933594 210.746094 32.675781 C 210.441406 33.417969 210.207031 34.183594 210.050781 34.972656 C 209.890625 35.761719 209.8125 36.554688 209.8125 37.359375 L 209.8125 90.683594 C 209.8125 91.484375 209.890625 92.28125 210.050781 93.070312 C 210.207031 93.859375 210.441406 94.621094 210.746094 95.363281 C 211.054688 96.109375 211.433594 96.8125 211.878906 97.480469 C 212.328125 98.148438 212.835938 98.765625 213.402344 99.335938 C 213.972656 99.902344 214.589844 100.410156 215.257812 100.859375 C 215.925781 101.304688 216.628906 101.683594 217.371094 101.988281 C 218.113281 102.296875 218.878906 102.53125 219.667969 102.6875 C 220.457031 102.847656 221.253906 102.925781 222.054688 102.925781 Z M 223.847656 39.15625 L 237.386719 39.15625 L 237.386719 88.890625 L 223.847656 88.890625 Z M 223.847656 39.15625 " fill-opacity="1" fill-rule="nonzero"/><path fill="#000000" d="M 259.804688 243.117188 L 115.585938 243.117188 C 115.125 243.117188 114.667969 243.160156 114.214844 243.25 C 113.761719 243.339844 113.324219 243.472656 112.898438 243.652344 C 112.472656 243.828125 112.066406 244.042969 111.683594 244.300781 C 111.300781 244.554688 110.945312 244.847656 110.621094 245.171875 C 110.296875 245.496094 110.003906 245.851562 109.75 246.234375 C 109.492188 246.617188 109.277344 247.023438 109.101562 247.449219 C 108.921875 247.875 108.789062 248.3125 108.699219 248.765625 C 108.609375 249.21875 108.566406 249.675781 108.566406 250.136719 C 108.566406 250.597656 108.609375 251.050781 108.699219 251.503906 C 108.789062 251.957031 108.921875 252.394531 109.101562 252.820312 C 109.277344 253.246094 109.492188 253.652344 109.75 254.035156 C 110.003906 254.417969 110.296875 254.773438 110.621094 255.097656 C 110.945312 255.425781 111.300781 255.714844 111.683594 255.972656 C 112.066406 256.226562 112.472656 256.441406 112.898438 256.621094 C 113.324219 256.796875 113.761719 256.929688 114.214844 257.019531 C 114.667969 257.109375 115.125 257.152344 115.585938 257.152344 L 259.804688 257.152344 C 260.265625 257.152344 260.722656 257.109375 261.175781 257.019531 C 261.625 256.929688 262.066406 256.796875 262.492188 256.621094 C 262.917969 256.441406 263.320312 256.226562 263.703125 255.972656 C 264.085938 255.714844 264.441406 255.425781 264.769531 255.097656 C 265.09375 254.773438 265.382812 254.417969 265.640625 254.035156 C 265.898438 253.652344 266.113281 253.246094 266.289062 252.820312 C 266.464844 252.394531 266.597656 251.957031 266.6875 251.503906 C 266.777344 251.050781 266.824219 250.597656 266.824219 250.136719 C 266.824219 249.675781 266.777344 249.21875 266.6875 248.765625 C 266.597656 248.3125 266.464844 247.875 266.289062 247.449219 C 266.113281 247.023438 265.898438 246.617188 265.640625 246.234375 C 265.382812 245.851562 265.09375 245.496094 264.769531 245.171875 C 264.441406 244.847656 264.085938 244.554688 263.703125 244.300781 C 263.320312 244.042969 262.917969 243.828125 262.492188 243.652344 C 262.066406 243.472656 261.625 243.339844 261.175781 243.25 C 260.722656 243.160156 260.265625 243.117188 259.804688 243.117188 Z M 259.804688 243.117188 " fill-opacity="1" fill-rule="nonzero"/><path fill="#000000" d="M 259.804688 278.679688 L 115.585938 278.679688 C 115.125 278.679688 114.667969 278.722656 114.214844 278.8125 C 113.761719 278.902344 113.324219 279.035156 112.898438 279.214844 C 112.472656 279.390625 112.066406 279.605469 111.683594 279.863281 C 111.300781 280.117188 110.945312 280.410156 110.621094 280.734375 C 110.296875 281.0625 110.003906 281.414062 109.75 281.796875 C 109.492188 282.179688 109.277344 282.585938 109.101562 283.011719 C 108.921875 283.4375 108.789062 283.875 108.699219 284.328125 C 108.609375 284.78125 108.566406 285.238281 108.566406 285.699219 C 108.566406 286.160156 108.609375 286.613281 108.699219 287.066406 C 108.789062 287.519531 108.921875 287.957031 109.101562 288.382812 C 109.277344 288.808594 109.492188 289.214844 109.75 289.597656 C 110.003906 289.980469 110.296875 290.335938 110.621094 290.660156 C 110.945312 290.988281 111.300781 291.277344 111.683594 291.535156 C 112.066406 291.789062 112.472656 292.007812 112.898438 292.183594 C 113.324219 292.359375 113.761719 292.492188 114.214844 292.582031 C 114.667969 292.671875 115.125 292.714844 115.585938 292.714844 L 259.804688 292.714844 C 260.265625 292.714844 260.722656 292.671875 261.175781 292.582031 C 261.625 292.492188 262.066406 292.359375 262.492188 292.183594 C 262.917969 292.007812 263.320312 291.789062 263.703125 291.535156 C 264.085938 291.277344 264.441406 290.988281 264.769531 290.660156 C 265.09375 290.335938 265.382812 289.980469 265.640625 289.597656 C 265.898438 289.214844 266.113281 288.808594 266.289062 288.382812 C 266.464844 287.957031 266.597656 287.519531 266.6875 287.066406 C 266.777344 286.613281 266.824219 286.160156 266.824219 285.699219 C 266.824219 285.238281 266.777344 284.78125 266.6875 284.328125 C 266.597656 283.875 266.464844 283.4375 266.289062 283.011719 C 266.113281 282.585938 265.898438 282.183594 265.640625 281.796875 C 265.382812 281.414062 265.09375 281.0625 264.769531 280.734375 C 264.441406 280.410156 264.085938 280.117188 263.703125 279.863281 C 263.320312 279.605469 262.917969 279.390625 262.492188 279.214844 C 262.066406 279.035156 261.625 278.902344 261.175781 278.8125 C 260.722656 278.722656 260.265625 278.679688 259.804688 278.679688 Z M 259.804688 278.679688 " fill-opacity="1" fill-rule="nonzero"/><path fill="#000000" d="M 259.804688 314.246094 L 115.585938 314.246094 C 115.125 314.246094 114.667969 314.289062 114.214844 314.378906 C 113.761719 314.472656 113.324219 314.605469 112.898438 314.78125 C 112.472656 314.957031 112.066406 315.171875 111.683594 315.429688 C 111.300781 315.683594 110.945312 315.976562 110.621094 316.300781 C 110.296875 316.628906 110.003906 316.980469 109.75 317.367188 C 109.492188 317.75 109.277344 318.152344 109.101562 318.578125 C 108.921875 319.003906 108.789062 319.445312 108.699219 319.894531 C 108.609375 320.347656 108.566406 320.804688 108.566406 321.265625 C 108.566406 321.726562 108.609375 322.183594 108.699219 322.632812 C 108.789062 323.085938 108.921875 323.523438 109.101562 323.949219 C 109.277344 324.375 109.492188 324.78125 109.75 325.164062 C 110.003906 325.546875 110.296875 325.902344 110.621094 326.226562 C 110.945312 326.554688 111.300781 326.84375 111.683594 327.101562 C 112.066406 327.355469 112.472656 327.574219 112.898438 327.75 C 113.324219 327.925781 113.761719 328.058594 114.214844 328.148438 C 114.667969 328.238281 115.125 328.285156 115.585938 328.285156 L 259.804688 328.285156 C 260.265625 328.285156 260.722656 328.238281 261.175781 328.148438 C 261.625 328.058594 262.066406 327.925781 262.492188 327.75 C 262.917969 327.574219 263.320312 327.355469 263.703125 327.101562 C 264.085938 326.84375 264.441406 326.554688 264.769531 326.226562 C 265.09375 325.902344 265.382812 325.546875 265.640625 325.164062 C 265.898438 324.78125 266.113281 324.375 266.289062 323.949219 C 266.464844 323.523438 266.597656 323.085938 266.6875 322.632812 C 266.777344 322.183594 266.824219 321.726562 266.824219 321.265625 C 266.824219 320.804688 266.777344 320.347656 266.6875 319.894531 C 266.597656 319.445312 266.464844 319.003906 266.289062 318.578125 C 266.113281 318.152344 265.898438 317.75 265.640625 317.367188 C 265.382812 316.980469 265.09375 316.628906 264.769531 316.300781 C 264.441406 315.976562 264.085938 315.683594 263.703125 315.429688 C 263.320312 315.171875 262.917969 314.957031 262.492188 314.78125 C 262.066406 314.605469 261.625 314.472656 261.175781 314.378906 C 260.722656 314.289062 260.265625 314.246094 259.804688 314.246094 Z M 259.804688 314.246094 " fill-opacity="1" fill-rule="nonzero"/></svg>